<?xml version="1.0" encoding="UTF-8" standalone="no"?><svg xmlns="http://www.w3.org/2000/svg" xmlns:xlink="http://www.w3.org/1999/xlink" contentScriptType="application/ecmascript" contentStyleType="text/css" height="437px" preserveAspectRatio="none" style="width:453px;height:437px;background:#FFFFFF;" version="1.1" viewBox="0 0 453 437" width="453px" zoomAndPan="magnify"><defs><filter height="300%" id="fxo04v87qtr6i" width="300%" x="-1" y="-1"><feGaussianBlur result="blurOut" stdDeviation="2.0"/><feColorMatrix in="blurOut" result="blurOut2" type="matrix" values="0 0 0 0 0 0 0 0 0 0 0 0 0 0 0 0 0 0 .4 0"/><feOffset dx="4.0" dy="4.0" in="blurOut2" result="blurOut3"/><feBlend in="SourceGraphic" in2="blurOut3" mode="normal"/></filter></defs><g><!--MD5=[f5a132bbe13e47fdeaaabd37349c48b3]
class RatioOfCargoManifestUI--><rect codeLine="3" fill="#FEFECE" filter="url(#fxo04v87qtr6i)" height="48" id="RatioOfCargoManifestUI" style="stroke:#A80036;stroke-width:1.5;" width="165" x="28" y="7"/><ellipse cx="43" cy="23" fill="#ADD1B2" rx="11" ry="11" style="stroke:#A80036;stroke-width:1.0;"/><path d="M45,19.5 Q45.2031,19 45.4375,18.75 Q45.6719,18.5 45.9375,18.5 Q46.4063,18.5 46.7031,18.7813 Q47,19.0625 47,19.7188 L47,21.2813 Q47,21.9375 46.7188,22.2188 Q46.4375,22.5 46,22.5 Q45.6094,22.5 45.3594,22.3281 Q45.1094,22.1563 45,21.7031 Q44.9531,21.3906 44.7813,21.2188 Q44.4688,20.8906 43.9063,20.7031 Q43.3438,20.5 42.7813,20.5 Q42.0781,20.5 41.4844,20.7813 Q40.9063,21.0625 40.4531,21.6875 Q40,22.3125 40,23.1719 L40,24.0938 Q40,25.125 40.8438,25.8125 Q41.6875,26.5 43.1875,26.5 Q44.0781,26.5 44.7031,26.2969 Q45.0625,26.1875 45.4688,25.8281 Q45.7344,25.625 45.875,25.5625 Q46.0156,25.5 46.1875,25.5 Q46.5156,25.5 46.75,25.7656 Q47,26.0156 47,26.375 Q47,26.7188 46.6563,27.125 Q46.1563,27.7188 45.3594,28.0469 Q44.3125,28.5 43.0313,28.5 Q41.5313,28.5 40.3281,27.9063 Q39.3594,27.4375 38.6719,26.4219 Q38,25.4063 38,24.2031 L38,23.1094 Q38,21.8594 38.5938,20.7656 Q39.2031,19.6719 40.25,19.0938 Q41.3125,18.5 42.5,18.5 Q43.2188,18.5 43.8438,18.75 Q44.4688,19 45,19.5 Z " fill="#000000"/><text fill="#000000" font-family="sans-serif" font-size="12" lengthAdjust="spacing" textLength="133" x="57" y="27.9102">RatioOfCargoManifestUI</text><line style="stroke:#A80036;stroke-width:1.5;" x1="29" x2="192" y1="39" y2="39"/><line style="stroke:#A80036;stroke-width:1.5;" x1="29" x2="192" y1="47" y2="47"/><!--MD5=[485ed7aefc05f5d8e6f71259a9d98e77]
class RatioOfCargoManifestController--><rect codeLine="5" fill="#FEFECE" filter="url(#fxo04v87qtr6i)" height="61.8359" id="RatioOfCargoManifestController" style="stroke:#A80036;stroke-width:1.5;" width="207" x="7" y="116"/><ellipse cx="22" cy="132" fill="#ADD1B2" rx="11" ry="11" style="stroke:#A80036;stroke-width:1.0;"/><path d="M24,128.5 Q24.2031,128 24.4375,127.75 Q24.6719,127.5 24.9375,127.5 Q25.4063,127.5 25.7031,127.7813 Q26,128.0625 26,128.7188 L26,130.2813 Q26,130.9375 25.7188,131.2188 Q25.4375,131.5 25,131.5 Q24.6094,131.5 24.3594,131.3281 Q24.1094,131.1563 24,130.7031 Q23.9531,130.3906 23.7813,130.2188 Q23.4688,129.8906 22.9063,129.7031 Q22.3438,129.5 21.7813,129.5 Q21.0781,129.5 20.4844,129.7813 Q19.9063,130.0625 19.4531,130.6875 Q19,131.3125 19,132.1719 L19,133.0938 Q19,134.125 19.8438,134.8125 Q20.6875,135.5 22.1875,135.5 Q23.0781,135.5 23.7031,135.2969 Q24.0625,135.1875 24.4688,134.8281 Q24.7344,134.625 24.875,134.5625 Q25.0156,134.5 25.1875,134.5 Q25.5156,134.5 25.75,134.7656 Q26,135.0156 26,135.375 Q26,135.7188 25.6563,136.125 Q25.1563,136.7188 24.3594,137.0469 Q23.3125,137.5 22.0313,137.5 Q20.5313,137.5 19.3281,136.9063 Q18.3594,136.4375 17.6719,135.4219 Q17,134.4063 17,133.2031 L17,132.1094 Q17,130.8594 17.5938,129.7656 Q18.2031,128.6719 19.25,128.0938 Q20.3125,127.5 21.5,127.5 Q22.2188,127.5 22.8438,127.75 Q23.4688,128 24,128.5 Z " fill="#000000"/><text fill="#000000" font-family="sans-serif" font-size="12" lengthAdjust="spacing" textLength="175" x="36" y="136.9102">RatioOfCargoManifestController</text><line style="stroke:#A80036;stroke-width:1.5;" x1="8" x2="213" y1="148" y2="148"/><line style="stroke:#A80036;stroke-width:1.5;" x1="8" x2="213" y1="156" y2="156"/><rect fill="#F24D5C" height="6" style="stroke:#C82930;stroke-width:1.0;" width="6" x="15" y="164"/><text fill="#000000" font-family="sans-serif" font-size="11" lengthAdjust="spacing" textLength="155" x="27" y="171.4189">getTheRatioOfCargoManifest(id)</text><!--MD5=[02e4b9b7573f1156f41e60aa5b4e25a4]
class Company--><rect codeLine="9" fill="#FEFECE" filter="url(#fxo04v87qtr6i)" height="61.8359" id="Company" style="stroke:#A80036;stroke-width:1.5;" width="145" x="38" y="239"/><ellipse cx="80" cy="255" fill="#ADD1B2" rx="11" ry="11" style="stroke:#A80036;stroke-width:1.0;"/><path d="M82,251.5 Q82.2031,251 82.4375,250.75 Q82.6719,250.5 82.9375,250.5 Q83.4063,250.5 83.7031,250.7813 Q84,251.0625 84,251.7188 L84,253.2813 Q84,253.9375 83.7188,254.2188 Q83.4375,254.5 83,254.5 Q82.6094,254.5 82.3594,254.3281 Q82.1094,254.1563 82,253.7031 Q81.9531,253.3906 81.7813,253.2188 Q81.4688,252.8906 80.9063,252.7031 Q80.3438,252.5 79.7813,252.5 Q79.0781,252.5 78.4844,252.7813 Q77.9063,253.0625 77.4531,253.6875 Q77,254.3125 77,255.1719 L77,256.0938 Q77,257.125 77.8438,257.8125 Q78.6875,258.5 80.1875,258.5 Q81.0781,258.5 81.7031,258.2969 Q82.0625,258.1875 82.4688,257.8281 Q82.7344,257.625 82.875,257.5625 Q83.0156,257.5 83.1875,257.5 Q83.5156,257.5 83.75,257.7656 Q84,258.0156 84,258.375 Q84,258.7188 83.6563,259.125 Q83.1563,259.7188 82.3594,260.0469 Q81.3125,260.5 80.0313,260.5 Q78.5313,260.5 77.3281,259.9063 Q76.3594,259.4375 75.6719,258.4219 Q75,257.4063 75,256.2031 L75,255.1094 Q75,253.8594 75.5938,252.7656 Q76.2031,251.6719 77.25,251.0938 Q78.3125,250.5 79.5,250.5 Q80.2188,250.5 80.8438,250.75 Q81.4688,251 82,251.5 Z " fill="#000000"/><text fill="#000000" font-family="sans-serif" font-size="12" lengthAdjust="spacing" textLength="53" x="100" y="259.9102">Company</text><line style="stroke:#A80036;stroke-width:1.5;" x1="39" x2="182" y1="271" y2="271"/><line style="stroke:#A80036;stroke-width:1.5;" x1="39" x2="182" y1="279" y2="279"/><rect fill="#F24D5C" height="6" style="stroke:#C82930;stroke-width:1.0;" width="6" x="46" y="287"/><text fill="#000000" font-family="sans-serif" font-size="11" lengthAdjust="spacing" textLength="119" x="58" y="294.4189">getCargoManifestStore()</text><!--MD5=[4ebfed50a2843d6810d5f28a3ed1348c]
class CargoManifestStore--><rect codeLine="13" fill="#FEFECE" filter="url(#fxo04v87qtr6i)" height="61.8359" id="CargoManifestStore" style="stroke:#A80036;stroke-width:1.5;" width="192" x="247.5" y="239"/><ellipse cx="285.45" cy="255" fill="#ADD1B2" rx="11" ry="11" style="stroke:#A80036;stroke-width:1.0;"/><path d="M287.45,251.5 Q287.6531,251 287.8875,250.75 Q288.1219,250.5 288.3875,250.5 Q288.8563,250.5 289.1531,250.7813 Q289.45,251.0625 289.45,251.7188 L289.45,253.2813 Q289.45,253.9375 289.1688,254.2188 Q288.8875,254.5 288.45,254.5 Q288.0594,254.5 287.8094,254.3281 Q287.5594,254.1563 287.45,253.7031 Q287.4031,253.3906 287.2313,253.2188 Q286.9188,252.8906 286.3563,252.7031 Q285.7938,252.5 285.2313,252.5 Q284.5281,252.5 283.9344,252.7813 Q283.3563,253.0625 282.9031,253.6875 Q282.45,254.3125 282.45,255.1719 L282.45,256.0938 Q282.45,257.125 283.2938,257.8125 Q284.1375,258.5 285.6375,258.5 Q286.5281,258.5 287.1531,258.2969 Q287.5125,258.1875 287.9188,257.8281 Q288.1844,257.625 288.325,257.5625 Q288.4656,257.5 288.6375,257.5 Q288.9656,257.5 289.2,257.7656 Q289.45,258.0156 289.45,258.375 Q289.45,258.7188 289.1063,259.125 Q288.6063,259.7188 287.8094,260.0469 Q286.7625,260.5 285.4813,260.5 Q283.9813,260.5 282.7781,259.9063 Q281.8094,259.4375 281.1219,258.4219 Q280.45,257.4063 280.45,256.2031 L280.45,255.1094 Q280.45,253.8594 281.0438,252.7656 Q281.6531,251.6719 282.7,251.0938 Q283.7625,250.5 284.95,250.5 Q285.6688,250.5 286.2938,250.75 Q286.9188,251 287.45,251.5 Z " fill="#000000"/><text fill="#000000" font-family="sans-serif" font-size="12" lengthAdjust="spacing" textLength="109" x="304.55" y="259.9102">CargoManifestStore</text><line style="stroke:#A80036;stroke-width:1.5;" x1="248.5" x2="438.5" y1="271" y2="271"/><line style="stroke:#A80036;stroke-width:1.5;" x1="248.5" x2="438.5" y1="279" y2="279"/><rect fill="#F24D5C" height="6" style="stroke:#C82930;stroke-width:1.0;" width="6" x="255.5" y="287"/><text fill="#000000" font-family="sans-serif" font-size="11" lengthAdjust="spacing" textLength="166" x="267.5" y="294.4189">getRatioOfACargoManifestById(id)</text><!--MD5=[76562047389981627aea27c31a97aff5]
class CargoManifest--><rect codeLine="17" fill="#FEFECE" filter="url(#fxo04v87qtr6i)" height="61.8359" id="CargoManifest" style="stroke:#A80036;stroke-width:1.5;" width="112" x="287.5" y="362"/><ellipse cx="302.5" cy="378" fill="#ADD1B2" rx="11" ry="11" style="stroke:#A80036;stroke-width:1.0;"/><path d="M304.5,374.5 Q304.7031,374 304.9375,373.75 Q305.1719,373.5 305.4375,373.5 Q305.9063,373.5 306.2031,373.7813 Q306.5,374.0625 306.5,374.7188 L306.5,376.2813 Q306.5,376.9375 306.2188,377.2188 Q305.9375,377.5 305.5,377.5 Q305.1094,377.5 304.8594,377.3281 Q304.6094,377.1563 304.5,376.7031 Q304.4531,376.3906 304.2813,376.2188 Q303.9688,375.8906 303.4063,375.7031 Q302.8438,375.5 302.2813,375.5 Q301.5781,375.5 300.9844,375.7813 Q300.4063,376.0625 299.9531,376.6875 Q299.5,377.3125 299.5,378.1719 L299.5,379.0938 Q299.5,380.125 300.3438,380.8125 Q301.1875,381.5 302.6875,381.5 Q303.5781,381.5 304.2031,381.2969 Q304.5625,381.1875 304.9688,380.8281 Q305.2344,380.625 305.375,380.5625 Q305.5156,380.5 305.6875,380.5 Q306.0156,380.5 306.25,380.7656 Q306.5,381.0156 306.5,381.375 Q306.5,381.7188 306.1563,382.125 Q305.6563,382.7188 304.8594,383.0469 Q303.8125,383.5 302.5313,383.5 Q301.0313,383.5 299.8281,382.9063 Q298.8594,382.4375 298.1719,381.4219 Q297.5,380.4063 297.5,379.2031 L297.5,378.1094 Q297.5,376.8594 298.0938,375.7656 Q298.7031,374.6719 299.75,374.0938 Q300.8125,373.5 302,373.5 Q302.7188,373.5 303.3438,373.75 Q303.9688,374 304.5,374.5 Z " fill="#000000"/><text fill="#000000" font-family="sans-serif" font-size="12" lengthAdjust="spacing" textLength="80" x="316.5" y="382.9102">CargoManifest</text><line style="stroke:#A80036;stroke-width:1.5;" x1="288.5" x2="398.5" y1="394" y2="394"/><line style="stroke:#A80036;stroke-width:1.5;" x1="288.5" x2="398.5" y1="402" y2="402"/><rect fill="#F24D5C" height="6" style="stroke:#C82930;stroke-width:1.0;" width="6" x="295.5" y="410"/><text fill="#000000" font-family="sans-serif" font-size="11" lengthAdjust="spacing" textLength="47" x="307.5" y="417.4189">getRatio()</text><!--MD5=[e26e1438c36be4fec08eb756b362bcd9]
link RatioOfCargoManifestUI to RatioOfCargoManifestController--><path codeLine="21" d="M110.5,55.07 C110.5,71.01 110.5,92.51 110.5,110.6 " fill="none" id="RatioOfCargoManifestUI-to-RatioOfCargoManifestController" style="stroke:#A80036;stroke-width:1.0;stroke-dasharray:7.0,7.0;"/><polygon fill="#A80036" points="110.5,115.61,114.5,106.61,110.5,110.61,106.5,106.61,110.5,115.61" style="stroke:#A80036;stroke-width:1.0;"/><!--MD5=[2b0dda58c090e13ba6c4fbef87cc3f67]
link RatioOfCargoManifestController to Company--><path codeLine="23" d="M110.5,178.22 C110.5,194.97 110.5,215.89 110.5,233.42 " fill="none" id="RatioOfCargoManifestController-to-Company" style="stroke:#A80036;stroke-width:1.0;stroke-dasharray:7.0,7.0;"/><polygon fill="#A80036" points="110.5,238.74,114.5,229.74,110.5,233.74,106.5,229.74,110.5,238.74" style="stroke:#A80036;stroke-width:1.0;"/><!--MD5=[091e7e5555d20c2e87a993879722993a]
link Company to CargoManifestStore--><path codeLine="25" d="M183.26,270 C201.97,270 222.45,270 242.31,270 " fill="none" id="Company-to-CargoManifestStore" style="stroke:#A80036;stroke-width:1.0;"/><polygon fill="#A80036" points="247.35,270,238.35,266,242.35,270,238.35,274,247.35,270" style="stroke:#A80036;stroke-width:1.0;"/><text fill="#000000" font-family="sans-serif" font-size="13" lengthAdjust="spacing" textLength="28" x="201.25" y="263.4951">uses</text><!--MD5=[f858fe3e0a975cbe8df455f793b528ba]
link CargoManifestStore to CargoManifest--><path codeLine="27" d="M343.5,301.22 C343.5,315.51 343.5,332.84 343.5,348.52 " fill="none" id="CargoManifestStore-to-CargoManifest" style="stroke:#A80036;stroke-width:1.0;"/><polygon fill="#A80036" points="343.5,361.74,347.5,355.74,343.5,349.74,339.5,355.74,343.5,361.74" style="stroke:#A80036;stroke-width:1.0;"/><!--MD5=[f15ba1f79f7721871cf27eb38ae5e4de]
@startuml
'https://plantuml.com/sequence-diagram

class RatioOfCargoManifestUI{}

class RatioOfCargoManifestController{
-getTheRatioOfCargoManifest(id)
}

class Company{
-getCargoManifestStore()
}

class CargoManifestStore{
-getRatioOfACargoManifestById(id)
}

class CargoManifest{
-getRatio()
}

RatioOfCargoManifestUI ..> RatioOfCargoManifestController

RatioOfCargoManifestController ..> Company

Company -> CargoManifestStore : uses

CargoManifestStore - -* CargoManifest
@enduml

@startuml

class RatioOfCargoManifestUI{}

class RatioOfCargoManifestController{
-getTheRatioOfCargoManifest(id)
}

class Company{
-getCargoManifestStore()
}

class CargoManifestStore{
-getRatioOfACargoManifestById(id)
}

class CargoManifest{
-getRatio()
}

RatioOfCargoManifestUI ..> RatioOfCargoManifestController

RatioOfCargoManifestController ..> Company

Company -> CargoManifestStore : uses

CargoManifestStore - -* CargoManifest
@enduml

PlantUML version 1.2021.11(Sat Oct 02 14:26:11 BST 2021)
(GPL source distribution)
Java Runtime: OpenJDK Runtime Environment
JVM: OpenJDK 64-Bit Server VM
Default Encoding: Cp1252
Language: pt
Country: PT
--></g></svg>