<?xml version="1.0" encoding="UTF-8" standalone="no"?><svg xmlns="http://www.w3.org/2000/svg" xmlns:xlink="http://www.w3.org/1999/xlink" contentScriptType="application/ecmascript" contentStyleType="text/css" height="1242px" preserveAspectRatio="none" style="width:1002px;height:1242px;" version="1.1" viewBox="0 0 1002 1242" width="1002.6px" zoomAndPan="magnify"><defs><filter height="300%" id="ft2c948vrz37e" width="300%" x="-1" y="-1"><feGaussianBlur result="blurOut" stdDeviation="1.8"/><feColorMatrix in="blurOut" result="blurOut2" type="matrix" values="0 0 0 0 0 0 0 0 0 0 0 0 0 0 0 0 0 0 .4 0"/><feOffset dx="3.6" dy="3.6" in="blurOut2" result="blurOut3"/><feBlend in="SourceGraphic" in2="blurOut3" mode="normal"/></filter></defs><g><!--MD5=[da4973dec178cce7bebfbe29460be526]
class CreateFreightNetworkUI--><rect codeLine="7" fill="#FEFECE" filter="url(#ft2c948vrz37e)" height="43.2" id="CreateFreightNetworkUI" style="stroke:#A80036;stroke-width:1.35;" width="147.6" x="642.6" y="6.3"/><ellipse cx="656.1" cy="20.7" fill="#ADD1B2" rx="9.9" ry="9.9" style="stroke:#A80036;stroke-width:0.9;"/><path d="M657.9,17.55 Q658.0828,17.1 658.2938,16.875 Q658.5047,16.65 658.7438,16.65 Q659.1656,16.65 659.4328,16.9031 Q659.7,17.1563 659.7,17.7469 L659.7,19.1531 Q659.7,19.7438 659.4469,19.9969 Q659.1938,20.25 658.8,20.25 Q658.4484,20.25 658.2234,20.0953 Q657.9984,19.9406 657.9,19.5328 Q657.8578,19.2516 657.7031,19.0969 Q657.4219,18.8016 656.9156,18.6328 Q656.4094,18.45 655.9031,18.45 Q655.2703,18.45 654.7359,18.7031 Q654.2156,18.9563 653.8078,19.5188 Q653.4,20.0813 653.4,20.8547 L653.4,21.6844 Q653.4,22.6125 654.1594,23.2313 Q654.9188,23.85 656.2688,23.85 Q657.0703,23.85 657.6328,23.6672 Q657.9563,23.5688 658.3219,23.2453 Q658.5609,23.0625 658.6875,23.0063 Q658.8141,22.95 658.9688,22.95 Q659.2641,22.95 659.475,23.1891 Q659.7,23.4141 659.7,23.7375 Q659.7,24.0469 659.3906,24.4125 Q658.9406,24.9469 658.2234,25.2422 Q657.2813,25.65 656.1281,25.65 Q654.7781,25.65 653.6953,25.1156 Q652.8234,24.6938 652.2047,23.7797 Q651.6,22.8656 651.6,21.7828 L651.6,20.7984 Q651.6,19.6734 652.1344,18.6891 Q652.6828,17.7047 653.625,17.1844 Q654.5813,16.65 655.65,16.65 Q656.2969,16.65 656.8594,16.875 Q657.4219,17.1 657.9,17.55 Z " fill="#000000"/><text fill="#000000" font-family="sans-serif" font-size="10.8" lengthAdjust="spacing" textLength="118.8" x="668.7" y="25.1191">CreateFreightNetworkUI</text><line style="stroke:#A80036;stroke-width:1.35;" x1="643.5" x2="789.3" y1="35.1" y2="35.1"/><line style="stroke:#A80036;stroke-width:1.35;" x1="643.5" x2="789.3" y1="42.3" y2="42.3"/><!--MD5=[974473823045a8c177f55f5ab2912b22]
class CreateFreightNetworkController--><rect codeLine="9" fill="#FEFECE" filter="url(#ft2c948vrz37e)" height="55.6523" id="CreateFreightNetworkController" style="stroke:#A80036;stroke-width:1.35;" width="185.4" x="623.7" y="104.4"/><ellipse cx="637.2" cy="118.8" fill="#ADD1B2" rx="9.9" ry="9.9" style="stroke:#A80036;stroke-width:0.9;"/><path d="M639,115.65 Q639.1828,115.2 639.3938,114.975 Q639.6047,114.75 639.8438,114.75 Q640.2656,114.75 640.5328,115.0031 Q640.8,115.2563 640.8,115.8469 L640.8,117.2531 Q640.8,117.8438 640.5469,118.0969 Q640.2938,118.35 639.9,118.35 Q639.5484,118.35 639.3234,118.1953 Q639.0984,118.0406 639,117.6328 Q638.9578,117.3516 638.8031,117.1969 Q638.5219,116.9016 638.0156,116.7328 Q637.5094,116.55 637.0031,116.55 Q636.3703,116.55 635.8359,116.8031 Q635.3156,117.0563 634.9078,117.6188 Q634.5,118.1813 634.5,118.9547 L634.5,119.7844 Q634.5,120.7125 635.2594,121.3313 Q636.0188,121.95 637.3688,121.95 Q638.1703,121.95 638.7328,121.7672 Q639.0563,121.6688 639.4219,121.3453 Q639.6609,121.1625 639.7875,121.1063 Q639.9141,121.05 640.0688,121.05 Q640.3641,121.05 640.575,121.2891 Q640.8,121.5141 640.8,121.8375 Q640.8,122.1469 640.4906,122.5125 Q640.0406,123.0469 639.3234,123.3422 Q638.3813,123.75 637.2281,123.75 Q635.8781,123.75 634.7953,123.2156 Q633.9234,122.7938 633.3047,121.8797 Q632.7,120.9656 632.7,119.8828 L632.7,118.8984 Q632.7,117.7734 633.2344,116.7891 Q633.7828,115.8047 634.725,115.2844 Q635.6813,114.75 636.75,114.75 Q637.3969,114.75 637.9594,114.975 Q638.5219,115.2 639,115.65 Z " fill="#000000"/><text fill="#000000" font-family="sans-serif" font-size="10.8" lengthAdjust="spacing" textLength="156.6" x="649.8" y="123.2191">CreateFreightNetworkController</text><line style="stroke:#A80036;stroke-width:1.35;" x1="624.6" x2="808.2" y1="133.2" y2="133.2"/><line style="stroke:#A80036;stroke-width:1.35;" x1="624.6" x2="808.2" y1="140.4" y2="140.4"/><text fill="#000000" font-family="sans-serif" font-size="9.9" lengthAdjust="spacing" textLength="110.7" x="629.1" y="154.2771">-createFreightNetwork(n)</text><!--MD5=[02e4b9b7573f1156f41e60aa5b4e25a4]
class Company--><rect codeLine="13" fill="#FEFECE" filter="url(#ft2c948vrz37e)" height="130.3664" id="Company" style="stroke:#A80036;stroke-width:1.35;" width="135.9" x="523.35" y="215.1"/><ellipse cx="563.625" cy="229.5" fill="#ADD1B2" rx="9.9" ry="9.9" style="stroke:#A80036;stroke-width:0.9;"/><path d="M565.425,226.35 Q565.6078,225.9 565.8188,225.675 Q566.0297,225.45 566.2688,225.45 Q566.6906,225.45 566.9578,225.7031 Q567.225,225.9563 567.225,226.5469 L567.225,227.9531 Q567.225,228.5438 566.9719,228.7969 Q566.7188,229.05 566.325,229.05 Q565.9734,229.05 565.7484,228.8953 Q565.5234,228.7406 565.425,228.3328 Q565.3828,228.0516 565.2281,227.8969 Q564.9469,227.6016 564.4406,227.4328 Q563.9344,227.25 563.4281,227.25 Q562.7953,227.25 562.2609,227.5031 Q561.7406,227.7563 561.3328,228.3188 Q560.925,228.8813 560.925,229.6547 L560.925,230.4844 Q560.925,231.4125 561.6844,232.0313 Q562.4438,232.65 563.7938,232.65 Q564.5953,232.65 565.1578,232.4672 Q565.4813,232.3688 565.8469,232.0453 Q566.0859,231.8625 566.2125,231.8063 Q566.3391,231.75 566.4938,231.75 Q566.7891,231.75 567,231.9891 Q567.225,232.2141 567.225,232.5375 Q567.225,232.8469 566.9156,233.2125 Q566.4656,233.7469 565.7484,234.0422 Q564.8063,234.45 563.6531,234.45 Q562.3031,234.45 561.2203,233.9156 Q560.3484,233.4938 559.7297,232.5797 Q559.125,231.6656 559.125,230.5828 L559.125,229.5984 Q559.125,228.4734 559.6594,227.4891 Q560.2078,226.5047 561.15,225.9844 Q562.1063,225.45 563.175,225.45 Q563.8219,225.45 564.3844,225.675 Q564.9469,225.9 565.425,226.35 Z " fill="#000000"/><text fill="#000000" font-family="sans-serif" font-size="10.8" lengthAdjust="spacing" textLength="47.7" x="582.075" y="233.9191">Company</text><line style="stroke:#A80036;stroke-width:1.35;" x1="524.25" x2="658.35" y1="243.9" y2="243.9"/><text fill="#000000" font-family="sans-serif" font-size="9.9" lengthAdjust="spacing" textLength="53.1" x="528.75" y="257.7771">-designation</text><line style="stroke:#A80036;stroke-width:1.35;" x1="524.25" x2="658.35" y1="263.5523" y2="263.5523"/><text fill="#000000" font-family="sans-serif" font-size="9.9" lengthAdjust="spacing" textLength="125.1" x="528.75" y="277.4294">-getTransferFromDatabase()</text><text fill="#000000" font-family="sans-serif" font-size="9.9" lengthAdjust="spacing" textLength="54" x="528.75" y="289.8817">-getPortStr()</text><text fill="#000000" font-family="sans-serif" font-size="9.9" lengthAdjust="spacing" textLength="69.3" x="528.75" y="302.3341">-getSeadistStr()</text><text fill="#000000" font-family="sans-serif" font-size="9.9" lengthAdjust="spacing" textLength="65.7" x="528.75" y="314.7864">-getCapitalStr()</text><text fill="#000000" font-family="sans-serif" font-size="9.9" lengthAdjust="spacing" textLength="66.6" x="528.75" y="327.2388">-getBorderStr()</text><text fill="#000000" font-family="sans-serif" font-size="9.9" lengthAdjust="spacing" textLength="90.9" x="528.75" y="339.6911">-getFreightNetwork()</text><!--MD5=[ec10caadca290dc6847215ad9bfe1041]
class TransferFromDataBase--><rect codeLine="23" fill="#FEFECE" filter="url(#ft2c948vrz37e)" height="93.0094" id="TransferFromDataBase" style="stroke:#A80036;stroke-width:1.35;" width="145.8" x="621" y="449.1"/><ellipse cx="634.5" cy="463.5" fill="#ADD1B2" rx="9.9" ry="9.9" style="stroke:#A80036;stroke-width:0.9;"/><path d="M636.3,460.35 Q636.4828,459.9 636.6938,459.675 Q636.9047,459.45 637.1438,459.45 Q637.5656,459.45 637.8328,459.7031 Q638.1,459.9563 638.1,460.5469 L638.1,461.9531 Q638.1,462.5438 637.8469,462.7969 Q637.5938,463.05 637.2,463.05 Q636.8484,463.05 636.6234,462.8953 Q636.3984,462.7406 636.3,462.3328 Q636.2578,462.0516 636.1031,461.8969 Q635.8219,461.6016 635.3156,461.4328 Q634.8094,461.25 634.3031,461.25 Q633.6703,461.25 633.1359,461.5031 Q632.6156,461.7563 632.2078,462.3188 Q631.8,462.8813 631.8,463.6547 L631.8,464.4844 Q631.8,465.4125 632.5594,466.0313 Q633.3188,466.65 634.6688,466.65 Q635.4703,466.65 636.0328,466.4672 Q636.3563,466.3688 636.7219,466.0453 Q636.9609,465.8625 637.0875,465.8063 Q637.2141,465.75 637.3688,465.75 Q637.6641,465.75 637.875,465.9891 Q638.1,466.2141 638.1,466.5375 Q638.1,466.8469 637.7906,467.2125 Q637.3406,467.7469 636.6234,468.0422 Q635.6813,468.45 634.5281,468.45 Q633.1781,468.45 632.0953,467.9156 Q631.2234,467.4938 630.6047,466.5797 Q630,465.6656 630,464.5828 L630,463.5984 Q630,462.4734 630.5344,461.4891 Q631.0828,460.5047 632.025,459.9844 Q632.9813,459.45 634.05,459.45 Q634.6969,459.45 635.2594,459.675 Q635.8219,459.9 636.3,460.35 Z " fill="#000000"/><text fill="#000000" font-family="sans-serif" font-size="10.8" lengthAdjust="spacing" textLength="117" x="647.1" y="467.9191">TransferFromDataBase</text><line style="stroke:#A80036;stroke-width:1.35;" x1="621.9" x2="765.9" y1="477.9" y2="477.9"/><line style="stroke:#A80036;stroke-width:1.35;" x1="621.9" x2="765.9" y1="485.1" y2="485.1"/><text fill="#000000" font-family="sans-serif" font-size="9.9" lengthAdjust="spacing" textLength="59.4" x="626.4" y="498.9771">-importPorts()</text><text fill="#000000" font-family="sans-serif" font-size="9.9" lengthAdjust="spacing" textLength="74.7" x="626.4" y="511.4294">-importSeadists()</text><text fill="#000000" font-family="sans-serif" font-size="9.9" lengthAdjust="spacing" textLength="78.3" x="626.4" y="523.8817">-importCountries()</text><text fill="#000000" font-family="sans-serif" font-size="9.9" lengthAdjust="spacing" textLength="72" x="626.4" y="536.3341">-importBorders()</text><!--MD5=[074ba6ad47b234bd73d65012320c1634]
class FreightNetwork--><rect codeLine="30" fill="#FEFECE" filter="url(#ft2c948vrz37e)" height="105.4617" id="FreightNetwork" style="stroke:#A80036;stroke-width:1.35;" width="428.4" x="97.2" y="442.8"/><ellipse cx="270.225" cy="457.2" fill="#ADD1B2" rx="9.9" ry="9.9" style="stroke:#A80036;stroke-width:0.9;"/><path d="M272.025,454.05 Q272.2078,453.6 272.4188,453.375 Q272.6297,453.15 272.8688,453.15 Q273.2906,453.15 273.5578,453.4031 Q273.825,453.6563 273.825,454.2469 L273.825,455.6531 Q273.825,456.2438 273.5719,456.4969 Q273.3188,456.75 272.925,456.75 Q272.5734,456.75 272.3484,456.5953 Q272.1234,456.4406 272.025,456.0328 Q271.9828,455.7516 271.8281,455.5969 Q271.5469,455.3016 271.0406,455.1328 Q270.5344,454.95 270.0281,454.95 Q269.3953,454.95 268.8609,455.2031 Q268.3406,455.4563 267.9328,456.0188 Q267.525,456.5813 267.525,457.3547 L267.525,458.1844 Q267.525,459.1125 268.2844,459.7313 Q269.0438,460.35 270.3938,460.35 Q271.1953,460.35 271.7578,460.1672 Q272.0813,460.0688 272.4469,459.7453 Q272.6859,459.5625 272.8125,459.5063 Q272.9391,459.45 273.0938,459.45 Q273.3891,459.45 273.6,459.6891 Q273.825,459.9141 273.825,460.2375 Q273.825,460.5469 273.5156,460.9125 Q273.0656,461.4469 272.3484,461.7422 Q271.4063,462.15 270.2531,462.15 Q268.9031,462.15 267.8203,461.6156 Q266.9484,461.1938 266.3297,460.2797 Q265.725,459.3656 265.725,458.2828 L265.725,457.2984 Q265.725,456.1734 266.2594,455.1891 Q266.8078,454.2047 267.75,453.6844 Q268.7063,453.15 269.775,453.15 Q270.4219,453.15 270.9844,453.375 Q271.5469,453.6 272.025,454.05 Z " fill="#000000"/><text fill="#000000" font-family="sans-serif" font-size="10.8" lengthAdjust="spacing" textLength="74.7" x="288.675" y="461.6191">FreightNetwork</text><line style="stroke:#A80036;stroke-width:1.35;" x1="98.1" x2="524.7" y1="471.6" y2="471.6"/><line style="stroke:#A80036;stroke-width:1.35;" x1="98.1" x2="524.7" y1="478.8" y2="478.8"/><text fill="#000000" font-family="sans-serif" font-size="9.9" lengthAdjust="spacing" textLength="310.5" x="102.6" y="492.6771">-addNewInformation(capitalStore,portStore,seadistStore,borderStore,n)</text><text fill="#000000" font-family="sans-serif" font-size="9.9" lengthAdjust="spacing" textLength="310.5" x="102.6" y="505.1294">-linkBetweenCapitalsOfNeighboringCountries(capitalStore,borderStore);</text><text fill="#000000" font-family="sans-serif" font-size="9.9" lengthAdjust="spacing" textLength="306.9" x="102.6" y="517.5817">-connectionBetweenPortsOfTheSameCountry(portStore,seadistStore);</text><text fill="#000000" font-family="sans-serif" font-size="9.9" lengthAdjust="spacing" textLength="325.8" x="102.6" y="530.0341">-connectionBetweenTheCapitalAndTheNearestPort(capitalStore,portStore);</text><text fill="#000000" font-family="sans-serif" font-size="9.9" lengthAdjust="spacing" textLength="417.6" x="102.6" y="542.4864">-connectionBetweenThePortAndTheNearestNPortsOfAnotherCountry(seadistStore,n,portStore);</text><!--MD5=[f70d2b281f9eefc1b49373c49159755a]
class PortStore--><rect codeLine="38" fill="#FEFECE" filter="url(#ft2c948vrz37e)" height="43.2" id="PortStore" style="stroke:#A80036;stroke-width:1.35;" width="74.7" x="746.55" y="372.6"/><ellipse cx="760.05" cy="387" fill="#ADD1B2" rx="9.9" ry="9.9" style="stroke:#A80036;stroke-width:0.9;"/><path d="M761.85,383.85 Q762.0328,383.4 762.2438,383.175 Q762.4547,382.95 762.6938,382.95 Q763.1156,382.95 763.3828,383.2031 Q763.65,383.4563 763.65,384.0469 L763.65,385.4531 Q763.65,386.0438 763.3969,386.2969 Q763.1438,386.55 762.75,386.55 Q762.3984,386.55 762.1734,386.3953 Q761.9484,386.2406 761.85,385.8328 Q761.8078,385.5516 761.6531,385.3969 Q761.3719,385.1016 760.8656,384.9328 Q760.3594,384.75 759.8531,384.75 Q759.2203,384.75 758.6859,385.0031 Q758.1656,385.2563 757.7578,385.8188 Q757.35,386.3813 757.35,387.1547 L757.35,387.9844 Q757.35,388.9125 758.1094,389.5313 Q758.8688,390.15 760.2188,390.15 Q761.0203,390.15 761.5828,389.9672 Q761.9063,389.8688 762.2719,389.5453 Q762.5109,389.3625 762.6375,389.3063 Q762.7641,389.25 762.9188,389.25 Q763.2141,389.25 763.425,389.4891 Q763.65,389.7141 763.65,390.0375 Q763.65,390.3469 763.3406,390.7125 Q762.8906,391.2469 762.1734,391.5422 Q761.2313,391.95 760.0781,391.95 Q758.7281,391.95 757.6453,391.4156 Q756.7734,390.9938 756.1547,390.0797 Q755.55,389.1656 755.55,388.0828 L755.55,387.0984 Q755.55,385.9734 756.0844,384.9891 Q756.6328,384.0047 757.575,383.4844 Q758.5313,382.95 759.6,382.95 Q760.2469,382.95 760.8094,383.175 Q761.3719,383.4 761.85,383.85 Z " fill="#000000"/><text fill="#000000" font-family="sans-serif" font-size="10.8" lengthAdjust="spacing" textLength="45.9" x="772.65" y="391.4191">PortStore</text><line style="stroke:#A80036;stroke-width:1.35;" x1="747.45" x2="820.35" y1="401.4" y2="401.4"/><line style="stroke:#A80036;stroke-width:1.35;" x1="747.45" x2="820.35" y1="408.6" y2="408.6"/><!--MD5=[1422bb85f79f029a0f123e8b9236e461]
class SeadistStore--><rect codeLine="42" fill="#FEFECE" filter="url(#ft2c948vrz37e)" height="43.2" id="SeadistStore" style="stroke:#A80036;stroke-width:1.35;" width="92.7" x="832.05" y="728.1"/><ellipse cx="845.55" cy="742.5" fill="#ADD1B2" rx="9.9" ry="9.9" style="stroke:#A80036;stroke-width:0.9;"/><path d="M847.35,739.35 Q847.5328,738.9 847.7438,738.675 Q847.9547,738.45 848.1938,738.45 Q848.6156,738.45 848.8828,738.7031 Q849.15,738.9563 849.15,739.5469 L849.15,740.9531 Q849.15,741.5438 848.8969,741.7969 Q848.6438,742.05 848.25,742.05 Q847.8984,742.05 847.6734,741.8953 Q847.4484,741.7406 847.35,741.3328 Q847.3078,741.0516 847.1531,740.8969 Q846.8719,740.6016 846.3656,740.4328 Q845.8594,740.25 845.3531,740.25 Q844.7203,740.25 844.1859,740.5031 Q843.6656,740.7563 843.2578,741.3188 Q842.85,741.8813 842.85,742.6547 L842.85,743.4844 Q842.85,744.4125 843.6094,745.0313 Q844.3688,745.65 845.7188,745.65 Q846.5203,745.65 847.0828,745.4672 Q847.4063,745.3688 847.7719,745.0453 Q848.0109,744.8625 848.1375,744.8063 Q848.2641,744.75 848.4188,744.75 Q848.7141,744.75 848.925,744.9891 Q849.15,745.2141 849.15,745.5375 Q849.15,745.8469 848.8406,746.2125 Q848.3906,746.7469 847.6734,747.0422 Q846.7313,747.45 845.5781,747.45 Q844.2281,747.45 843.1453,746.9156 Q842.2734,746.4938 841.6547,745.5797 Q841.05,744.6656 841.05,743.5828 L841.05,742.5984 Q841.05,741.4734 841.5844,740.4891 Q842.1328,739.5047 843.075,738.9844 Q844.0313,738.45 845.1,738.45 Q845.7469,738.45 846.3094,738.675 Q846.8719,738.9 847.35,739.35 Z " fill="#000000"/><text fill="#000000" font-family="sans-serif" font-size="10.8" lengthAdjust="spacing" textLength="63.9" x="858.15" y="746.9191">SeadistStore</text><line style="stroke:#A80036;stroke-width:1.35;" x1="832.95" x2="923.85" y1="756.9" y2="756.9"/><line style="stroke:#A80036;stroke-width:1.35;" x1="832.95" x2="923.85" y1="764.1" y2="764.1"/><!--MD5=[01d3084fc1194834bba60ab651fe9055]
class CapitalStore--><rect codeLine="46" fill="#FEFECE" filter="url(#ft2c948vrz37e)" height="43.2" id="CapitalStore" style="stroke:#A80036;stroke-width:1.35;" width="90" x="174.6" y="372.6"/><ellipse cx="188.1" cy="387" fill="#ADD1B2" rx="9.9" ry="9.9" style="stroke:#A80036;stroke-width:0.9;"/><path d="M189.9,383.85 Q190.0828,383.4 190.2938,383.175 Q190.5047,382.95 190.7438,382.95 Q191.1656,382.95 191.4328,383.2031 Q191.7,383.4563 191.7,384.0469 L191.7,385.4531 Q191.7,386.0438 191.4469,386.2969 Q191.1938,386.55 190.8,386.55 Q190.4484,386.55 190.2234,386.3953 Q189.9984,386.2406 189.9,385.8328 Q189.8578,385.5516 189.7031,385.3969 Q189.4219,385.1016 188.9156,384.9328 Q188.4094,384.75 187.9031,384.75 Q187.2703,384.75 186.7359,385.0031 Q186.2156,385.2563 185.8078,385.8188 Q185.4,386.3813 185.4,387.1547 L185.4,387.9844 Q185.4,388.9125 186.1594,389.5313 Q186.9188,390.15 188.2688,390.15 Q189.0703,390.15 189.6328,389.9672 Q189.9563,389.8688 190.3219,389.5453 Q190.5609,389.3625 190.6875,389.3063 Q190.8141,389.25 190.9688,389.25 Q191.2641,389.25 191.475,389.4891 Q191.7,389.7141 191.7,390.0375 Q191.7,390.3469 191.3906,390.7125 Q190.9406,391.2469 190.2234,391.5422 Q189.2813,391.95 188.1281,391.95 Q186.7781,391.95 185.6953,391.4156 Q184.8234,390.9938 184.2047,390.0797 Q183.6,389.1656 183.6,388.0828 L183.6,387.0984 Q183.6,385.9734 184.1344,384.9891 Q184.6828,384.0047 185.625,383.4844 Q186.5813,382.95 187.65,382.95 Q188.2969,382.95 188.8594,383.175 Q189.4219,383.4 189.9,383.85 Z " fill="#000000"/><text fill="#000000" font-family="sans-serif" font-size="10.8" lengthAdjust="spacing" textLength="61.2" x="200.7" y="391.4191">CapitalStore</text><line style="stroke:#A80036;stroke-width:1.35;" x1="175.5" x2="263.7" y1="401.4" y2="401.4"/><line style="stroke:#A80036;stroke-width:1.35;" x1="175.5" x2="263.7" y1="408.6" y2="408.6"/><!--MD5=[1a5e2587019baa51be2acd1776bfe516]
class BorderStore--><rect codeLine="50" fill="#FEFECE" filter="url(#ft2c948vrz37e)" height="43.2" id="BorderStore" style="stroke:#A80036;stroke-width:1.35;" width="88.2" x="900.9" y="575.1"/><ellipse cx="914.4" cy="589.5" fill="#ADD1B2" rx="9.9" ry="9.9" style="stroke:#A80036;stroke-width:0.9;"/><path d="M916.2,586.35 Q916.3828,585.9 916.5938,585.675 Q916.8047,585.45 917.0438,585.45 Q917.4656,585.45 917.7328,585.7031 Q918,585.9563 918,586.5469 L918,587.9531 Q918,588.5438 917.7469,588.7969 Q917.4938,589.05 917.1,589.05 Q916.7484,589.05 916.5234,588.8953 Q916.2984,588.7406 916.2,588.3328 Q916.1578,588.0516 916.0031,587.8969 Q915.7219,587.6016 915.2156,587.4328 Q914.7094,587.25 914.2031,587.25 Q913.5703,587.25 913.0359,587.5031 Q912.5156,587.7563 912.1078,588.3188 Q911.7,588.8813 911.7,589.6547 L911.7,590.4844 Q911.7,591.4125 912.4594,592.0313 Q913.2188,592.65 914.5688,592.65 Q915.3703,592.65 915.9328,592.4672 Q916.2563,592.3688 916.6219,592.0453 Q916.8609,591.8625 916.9875,591.8063 Q917.1141,591.75 917.2688,591.75 Q917.5641,591.75 917.775,591.9891 Q918,592.2141 918,592.5375 Q918,592.8469 917.6906,593.2125 Q917.2406,593.7469 916.5234,594.0422 Q915.5813,594.45 914.4281,594.45 Q913.0781,594.45 911.9953,593.9156 Q911.1234,593.4938 910.5047,592.5797 Q909.9,591.6656 909.9,590.5828 L909.9,589.5984 Q909.9,588.4734 910.4344,587.4891 Q910.9828,586.5047 911.925,585.9844 Q912.8813,585.45 913.95,585.45 Q914.5969,585.45 915.1594,585.675 Q915.7219,585.9 916.2,586.35 Z " fill="#000000"/><text fill="#000000" font-family="sans-serif" font-size="10.8" lengthAdjust="spacing" textLength="59.4" x="927" y="593.9191">BorderStore</text><line style="stroke:#A80036;stroke-width:1.35;" x1="901.8" x2="988.2" y1="603.9" y2="603.9"/><line style="stroke:#A80036;stroke-width:1.35;" x1="901.8" x2="988.2" y1="611.1" y2="611.1"/><!--MD5=[ea13aecf8df941b18fb8e3885c78c184]
class Ports--><rect codeLine="54" fill="#FEFECE" filter="url(#ft2c948vrz37e)" height="68.1047" id="Ports" style="stroke:#A80036;stroke-width:1.35;" width="68.4" x="583.2" y="810.45"/><ellipse cx="602.775" cy="824.85" fill="#ADD1B2" rx="9.9" ry="9.9" style="stroke:#A80036;stroke-width:0.9;"/><path d="M604.575,821.7 Q604.7578,821.25 604.9688,821.025 Q605.1797,820.8 605.4188,820.8 Q605.8406,820.8 606.1078,821.0531 Q606.375,821.3063 606.375,821.8969 L606.375,823.3031 Q606.375,823.8938 606.1219,824.1469 Q605.8688,824.4 605.475,824.4 Q605.1234,824.4 604.8984,824.2453 Q604.6734,824.0906 604.575,823.6828 Q604.5328,823.4016 604.3781,823.2469 Q604.0969,822.9516 603.5906,822.7828 Q603.0844,822.6 602.5781,822.6 Q601.9453,822.6 601.4109,822.8531 Q600.8906,823.1063 600.4828,823.6688 Q600.075,824.2313 600.075,825.0047 L600.075,825.8344 Q600.075,826.7625 600.8344,827.3813 Q601.5938,828 602.9438,828 Q603.7453,828 604.3078,827.8172 Q604.6313,827.7188 604.9969,827.3953 Q605.2359,827.2125 605.3625,827.1563 Q605.4891,827.1 605.6438,827.1 Q605.9391,827.1 606.15,827.3391 Q606.375,827.5641 606.375,827.8875 Q606.375,828.1969 606.0656,828.5625 Q605.6156,829.0969 604.8984,829.3922 Q603.9563,829.8 602.8031,829.8 Q601.4531,829.8 600.3703,829.2656 Q599.4984,828.8438 598.8797,827.9297 Q598.275,827.0156 598.275,825.9328 L598.275,824.9484 Q598.275,823.8234 598.8094,822.8391 Q599.3578,821.8547 600.3,821.3344 Q601.2563,820.8 602.325,820.8 Q602.9719,820.8 603.5344,821.025 Q604.0969,821.25 604.575,821.7 Z " fill="#000000"/><text fill="#000000" font-family="sans-serif" font-size="10.8" lengthAdjust="spacing" textLength="26.1" x="616.725" y="829.2691">Ports</text><line style="stroke:#A80036;stroke-width:1.35;" x1="584.1" x2="650.7" y1="839.25" y2="839.25"/><text fill="#000000" font-family="sans-serif" font-size="9.9" lengthAdjust="spacing" textLength="57.6" x="588.6" y="853.1271">-identification</text><text fill="#000000" font-family="sans-serif" font-size="9.9" lengthAdjust="spacing" textLength="27" x="588.6" y="865.5794">-name</text><line style="stroke:#A80036;stroke-width:1.35;" x1="584.1" x2="650.7" y1="871.3547" y2="871.3547"/><!--MD5=[deb4e1f6eb1e3c1256fdb830f96abfbb]
class Country--><rect codeLine="60" fill="#FEFECE" filter="url(#ft2c948vrz37e)" height="68.1047" id="Country" style="stroke:#A80036;stroke-width:1.35;" width="66.6" x="480.6" y="992.25"/><ellipse cx="494.1" cy="1006.65" fill="#ADD1B2" rx="9.9" ry="9.9" style="stroke:#A80036;stroke-width:0.9;"/><path d="M495.9,1003.5 Q496.0828,1003.05 496.2938,1002.825 Q496.5047,1002.6 496.7438,1002.6 Q497.1656,1002.6 497.4328,1002.8531 Q497.7,1003.1063 497.7,1003.6969 L497.7,1005.1031 Q497.7,1005.6938 497.4469,1005.9469 Q497.1938,1006.2 496.8,1006.2 Q496.4484,1006.2 496.2234,1006.0453 Q495.9984,1005.8906 495.9,1005.4828 Q495.8578,1005.2016 495.7031,1005.0469 Q495.4219,1004.7516 494.9156,1004.5828 Q494.4094,1004.4 493.9031,1004.4 Q493.2703,1004.4 492.7359,1004.6531 Q492.2156,1004.9063 491.8078,1005.4688 Q491.4,1006.0313 491.4,1006.8047 L491.4,1007.6344 Q491.4,1008.5625 492.1594,1009.1813 Q492.9188,1009.8 494.2688,1009.8 Q495.0703,1009.8 495.6328,1009.6172 Q495.9563,1009.5188 496.3219,1009.1953 Q496.5609,1009.0125 496.6875,1008.9563 Q496.8141,1008.9 496.9688,1008.9 Q497.2641,1008.9 497.475,1009.1391 Q497.7,1009.3641 497.7,1009.6875 Q497.7,1009.9969 497.3906,1010.3625 Q496.9406,1010.8969 496.2234,1011.1922 Q495.2813,1011.6 494.1281,1011.6 Q492.7781,1011.6 491.6953,1011.0656 Q490.8234,1010.6438 490.2047,1009.7297 Q489.6,1008.8156 489.6,1007.7328 L489.6,1006.7484 Q489.6,1005.6234 490.1344,1004.6391 Q490.6828,1003.6547 491.625,1003.1344 Q492.5813,1002.6 493.65,1002.6 Q494.2969,1002.6 494.8594,1002.825 Q495.4219,1003.05 495.9,1003.5 Z " fill="#000000"/><text fill="#000000" font-family="sans-serif" font-size="10.8" lengthAdjust="spacing" textLength="37.8" x="506.7" y="1011.0691">Country</text><line style="stroke:#A80036;stroke-width:1.35;" x1="481.5" x2="546.3" y1="1021.05" y2="1021.05"/><text fill="#000000" font-family="sans-serif" font-size="9.9" lengthAdjust="spacing" textLength="27" x="486" y="1034.9271">-name</text><text fill="#000000" font-family="sans-serif" font-size="9.9" lengthAdjust="spacing" textLength="43.2" x="486" y="1047.3794">-continent</text><line style="stroke:#A80036;stroke-width:1.35;" x1="481.5" x2="546.3" y1="1053.1547" y2="1053.1547"/><!--MD5=[9febfb2ff9adfe183e01ff702b9c1c02]
class PlaceLocation--><rect codeLine="65" fill="#FEFECE" filter="url(#ft2c948vrz37e)" height="68.1047" id="PlaceLocation" style="stroke:#A80036;stroke-width:1.35;" width="99" x="271.8" y="810.45"/><ellipse cx="285.3" cy="824.85" fill="#ADD1B2" rx="9.9" ry="9.9" style="stroke:#A80036;stroke-width:0.9;"/><path d="M287.1,821.7 Q287.2828,821.25 287.4938,821.025 Q287.7047,820.8 287.9438,820.8 Q288.3656,820.8 288.6328,821.0531 Q288.9,821.3063 288.9,821.8969 L288.9,823.3031 Q288.9,823.8938 288.6469,824.1469 Q288.3938,824.4 288,824.4 Q287.6484,824.4 287.4234,824.2453 Q287.1984,824.0906 287.1,823.6828 Q287.0578,823.4016 286.9031,823.2469 Q286.6219,822.9516 286.1156,822.7828 Q285.6094,822.6 285.1031,822.6 Q284.4703,822.6 283.9359,822.8531 Q283.4156,823.1063 283.0078,823.6688 Q282.6,824.2313 282.6,825.0047 L282.6,825.8344 Q282.6,826.7625 283.3594,827.3813 Q284.1188,828 285.4688,828 Q286.2703,828 286.8328,827.8172 Q287.1563,827.7188 287.5219,827.3953 Q287.7609,827.2125 287.8875,827.1563 Q288.0141,827.1 288.1688,827.1 Q288.4641,827.1 288.675,827.3391 Q288.9,827.5641 288.9,827.8875 Q288.9,828.1969 288.5906,828.5625 Q288.1406,829.0969 287.4234,829.3922 Q286.4813,829.8 285.3281,829.8 Q283.9781,829.8 282.8953,829.2656 Q282.0234,828.8438 281.4047,827.9297 Q280.8,827.0156 280.8,825.9328 L280.8,824.9484 Q280.8,823.8234 281.3344,822.8391 Q281.8828,821.8547 282.825,821.3344 Q283.7813,820.8 284.85,820.8 Q285.4969,820.8 286.0594,821.025 Q286.6219,821.25 287.1,821.7 Z " fill="#000000"/><text fill="#000000" font-family="sans-serif" font-size="10.8" lengthAdjust="spacing" textLength="70.2" x="297.9" y="829.2691">PlaceLocation</text><line style="stroke:#A80036;stroke-width:1.35;" x1="272.7" x2="369.9" y1="839.25" y2="839.25"/><text fill="#000000" font-family="sans-serif" font-size="9.9" lengthAdjust="spacing" textLength="34.2" x="277.2" y="853.1271">-latitude</text><text fill="#000000" font-family="sans-serif" font-size="9.9" lengthAdjust="spacing" textLength="42.3" x="277.2" y="865.5794">-longitude</text><line style="stroke:#A80036;stroke-width:1.35;" x1="272.7" x2="369.9" y1="871.3547" y2="871.3547"/><!--MD5=[ea8f20dfdca176213da526d9b557babf]
class Capital--><rect codeLine="70" fill="#FEFECE" filter="url(#ft2c948vrz37e)" height="93.0094" id="Capital" style="stroke:#A80036;stroke-width:1.35;" width="63.9" x="92.25" y="798.3"/><ellipse cx="105.75" cy="812.7" fill="#ADD1B2" rx="9.9" ry="9.9" style="stroke:#A80036;stroke-width:0.9;"/><path d="M107.55,809.55 Q107.7328,809.1 107.9438,808.875 Q108.1547,808.65 108.3938,808.65 Q108.8156,808.65 109.0828,808.9031 Q109.35,809.1563 109.35,809.7469 L109.35,811.1531 Q109.35,811.7438 109.0969,811.9969 Q108.8438,812.25 108.45,812.25 Q108.0984,812.25 107.8734,812.0953 Q107.6484,811.9406 107.55,811.5328 Q107.5078,811.2516 107.3531,811.0969 Q107.0719,810.8016 106.5656,810.6328 Q106.0594,810.45 105.5531,810.45 Q104.9203,810.45 104.3859,810.7031 Q103.8656,810.9563 103.4578,811.5188 Q103.05,812.0813 103.05,812.8547 L103.05,813.6844 Q103.05,814.6125 103.8094,815.2313 Q104.5688,815.85 105.9188,815.85 Q106.7203,815.85 107.2828,815.6672 Q107.6063,815.5688 107.9719,815.2453 Q108.2109,815.0625 108.3375,815.0063 Q108.4641,814.95 108.6188,814.95 Q108.9141,814.95 109.125,815.1891 Q109.35,815.4141 109.35,815.7375 Q109.35,816.0469 109.0406,816.4125 Q108.5906,816.9469 107.8734,817.2422 Q106.9313,817.65 105.7781,817.65 Q104.4281,817.65 103.3453,817.1156 Q102.4734,816.6938 101.8547,815.7797 Q101.25,814.8656 101.25,813.7828 L101.25,812.7984 Q101.25,811.6734 101.7844,810.6891 Q102.3328,809.7047 103.275,809.1844 Q104.2313,808.65 105.3,808.65 Q105.9469,808.65 106.5094,808.875 Q107.0719,809.1 107.55,809.55 Z " fill="#000000"/><text fill="#000000" font-family="sans-serif" font-size="10.8" lengthAdjust="spacing" textLength="35.1" x="118.35" y="817.1191">Capital</text><line style="stroke:#A80036;stroke-width:1.35;" x1="93.15" x2="155.25" y1="827.1" y2="827.1"/><text fill="#000000" font-family="sans-serif" font-size="9.9" lengthAdjust="spacing" textLength="27" x="97.65" y="840.9771">-name</text><text fill="#000000" font-family="sans-serif" font-size="9.9" lengthAdjust="spacing" textLength="36.9" x="97.65" y="853.4294">-country</text><text fill="#000000" font-family="sans-serif" font-size="9.9" lengthAdjust="spacing" textLength="34.2" x="97.65" y="865.8817">-latitude</text><text fill="#000000" font-family="sans-serif" font-size="9.9" lengthAdjust="spacing" textLength="42.3" x="97.65" y="878.3341">-longitude</text><line style="stroke:#A80036;stroke-width:1.35;" x1="93.15" x2="155.25" y1="884.1094" y2="884.1094"/><!--MD5=[8515a37c80da559ff7ce07f8a9e75d30]
class Place--><rect codeLine="77" fill="#FEFECE" filter="url(#ft2c948vrz37e)" height="43.2" id="Place" style="stroke:#A80036;stroke-width:1.35;" width="56.7" x="283.05" y="651.6"/><ellipse cx="296.55" cy="666" fill="#ADD1B2" rx="9.9" ry="9.9" style="stroke:#A80036;stroke-width:0.9;"/><path d="M298.35,662.85 Q298.5328,662.4 298.7438,662.175 Q298.9547,661.95 299.1938,661.95 Q299.6156,661.95 299.8828,662.2031 Q300.15,662.4563 300.15,663.0469 L300.15,664.4531 Q300.15,665.0438 299.8969,665.2969 Q299.6438,665.55 299.25,665.55 Q298.8984,665.55 298.6734,665.3953 Q298.4484,665.2406 298.35,664.8328 Q298.3078,664.5516 298.1531,664.3969 Q297.8719,664.1016 297.3656,663.9328 Q296.8594,663.75 296.3531,663.75 Q295.7203,663.75 295.1859,664.0031 Q294.6656,664.2563 294.2578,664.8188 Q293.85,665.3813 293.85,666.1547 L293.85,666.9844 Q293.85,667.9125 294.6094,668.5313 Q295.3688,669.15 296.7188,669.15 Q297.5203,669.15 298.0828,668.9672 Q298.4063,668.8688 298.7719,668.5453 Q299.0109,668.3625 299.1375,668.3063 Q299.2641,668.25 299.4188,668.25 Q299.7141,668.25 299.925,668.4891 Q300.15,668.7141 300.15,669.0375 Q300.15,669.3469 299.8406,669.7125 Q299.3906,670.2469 298.6734,670.5422 Q297.7313,670.95 296.5781,670.95 Q295.2281,670.95 294.1453,670.4156 Q293.2734,669.9938 292.6547,669.0797 Q292.05,668.1656 292.05,667.0828 L292.05,666.0984 Q292.05,664.9734 292.5844,663.9891 Q293.1328,663.0047 294.075,662.4844 Q295.0313,661.95 296.1,661.95 Q296.7469,661.95 297.3094,662.175 Q297.8719,662.4 298.35,662.85 Z " fill="#000000"/><text fill="#000000" font-family="sans-serif" font-size="10.8" lengthAdjust="spacing" textLength="27.9" x="309.15" y="670.4191">Place</text><line style="stroke:#A80036;stroke-width:1.35;" x1="283.95" x2="338.85" y1="680.4" y2="680.4"/><line style="stroke:#A80036;stroke-width:1.35;" x1="283.95" x2="338.85" y1="687.6" y2="687.6"/><!--MD5=[a0336aaa8110b78d9cacadb9d45e00a3]
class Border--><rect codeLine="81" fill="#FEFECE" filter="url(#ft2c948vrz37e)" height="68.1047" id="Border" style="stroke:#A80036;stroke-width:1.35;" width="77.4" x="691.2" y="1161.9"/><ellipse cx="711.585" cy="1176.3" fill="#ADD1B2" rx="9.9" ry="9.9" style="stroke:#A80036;stroke-width:0.9;"/><path d="M713.385,1173.15 Q713.5678,1172.7 713.7788,1172.475 Q713.9897,1172.25 714.2288,1172.25 Q714.6506,1172.25 714.9178,1172.5031 Q715.185,1172.7563 715.185,1173.3469 L715.185,1174.7531 Q715.185,1175.3438 714.9319,1175.5969 Q714.6788,1175.85 714.285,1175.85 Q713.9334,1175.85 713.7084,1175.6953 Q713.4834,1175.5406 713.385,1175.1328 Q713.3428,1174.8516 713.1881,1174.6969 Q712.9069,1174.4016 712.4006,1174.2328 Q711.8944,1174.05 711.3881,1174.05 Q710.7553,1174.05 710.2209,1174.3031 Q709.7006,1174.5563 709.2928,1175.1188 Q708.885,1175.6813 708.885,1176.4547 L708.885,1177.2844 Q708.885,1178.2125 709.6444,1178.8313 Q710.4038,1179.45 711.7538,1179.45 Q712.5553,1179.45 713.1178,1179.2672 Q713.4413,1179.1688 713.8069,1178.8453 Q714.0459,1178.6625 714.1725,1178.6063 Q714.2991,1178.55 714.4538,1178.55 Q714.7491,1178.55 714.96,1178.7891 Q715.185,1179.0141 715.185,1179.3375 Q715.185,1179.6469 714.8756,1180.0125 Q714.4256,1180.5469 713.7084,1180.8422 Q712.7663,1181.25 711.6131,1181.25 Q710.2631,1181.25 709.1803,1180.7156 Q708.3084,1180.2938 707.6897,1179.3797 Q707.085,1178.4656 707.085,1177.3828 L707.085,1176.3984 Q707.085,1175.2734 707.6194,1174.2891 Q708.1678,1173.3047 709.11,1172.7844 Q710.0663,1172.25 711.135,1172.25 Q711.7819,1172.25 712.3444,1172.475 Q712.9069,1172.7 713.385,1173.15 Z " fill="#000000"/><text fill="#000000" font-family="sans-serif" font-size="10.8" lengthAdjust="spacing" textLength="33.3" x="725.715" y="1180.7191">Border</text><line style="stroke:#A80036;stroke-width:1.35;" x1="692.1" x2="767.7" y1="1190.7" y2="1190.7"/><text fill="#000000" font-family="sans-serif" font-size="9.9" lengthAdjust="spacing" textLength="66.6" x="696.6" y="1204.5771">-countryName1</text><text fill="#000000" font-family="sans-serif" font-size="9.9" lengthAdjust="spacing" textLength="66.6" x="696.6" y="1217.0294">-countryName2</text><line style="stroke:#A80036;stroke-width:1.35;" x1="692.1" x2="767.7" y1="1222.8047" y2="1222.8047"/><!--MD5=[e24af10a0367b93d82d6bdd24a6ec764]
class Seadist--><rect codeLine="86" fill="#FEFECE" filter="url(#ft2c948vrz37e)" height="130.3664" id="Seadist" style="stroke:#A80036;stroke-width:1.35;" width="77.4" x="671.4" y="961.2"/><ellipse cx="689.76" cy="975.6" fill="#ADD1B2" rx="9.9" ry="9.9" style="stroke:#A80036;stroke-width:0.9;"/><path d="M691.56,972.45 Q691.7428,972 691.9538,971.775 Q692.1647,971.55 692.4038,971.55 Q692.8256,971.55 693.0928,971.8031 Q693.36,972.0563 693.36,972.6469 L693.36,974.0531 Q693.36,974.6438 693.1069,974.8969 Q692.8538,975.15 692.46,975.15 Q692.1084,975.15 691.8834,974.9953 Q691.6584,974.8406 691.56,974.4328 Q691.5178,974.1516 691.3631,973.9969 Q691.0819,973.7016 690.5756,973.5328 Q690.0694,973.35 689.5631,973.35 Q688.9303,973.35 688.3959,973.6031 Q687.8756,973.8563 687.4678,974.4188 Q687.06,974.9813 687.06,975.7547 L687.06,976.5844 Q687.06,977.5125 687.8194,978.1313 Q688.5788,978.75 689.9288,978.75 Q690.7303,978.75 691.2928,978.5672 Q691.6163,978.4688 691.9819,978.1453 Q692.2209,977.9625 692.3475,977.9063 Q692.4741,977.85 692.6288,977.85 Q692.9241,977.85 693.135,978.0891 Q693.36,978.3141 693.36,978.6375 Q693.36,978.9469 693.0506,979.3125 Q692.6006,979.8469 691.8834,980.1422 Q690.9413,980.55 689.7881,980.55 Q688.4381,980.55 687.3553,980.0156 Q686.4834,979.5938 685.8647,978.6797 Q685.26,977.7656 685.26,976.6828 L685.26,975.6984 Q685.26,974.5734 685.7944,973.5891 Q686.3428,972.6047 687.285,972.0844 Q688.2413,971.55 689.31,971.55 Q689.9569,971.55 690.5194,971.775 Q691.0819,972 691.56,972.45 Z " fill="#000000"/><text fill="#000000" font-family="sans-serif" font-size="10.8" lengthAdjust="spacing" textLength="37.8" x="703.44" y="980.0191">Seadist</text><line style="stroke:#A80036;stroke-width:1.35;" x1="672.3" x2="747.9" y1="990" y2="990"/><text fill="#000000" font-family="sans-serif" font-size="9.9" lengthAdjust="spacing" textLength="33.3" x="676.8" y="1003.8771">-portId1</text><text fill="#000000" font-family="sans-serif" font-size="9.9" lengthAdjust="spacing" textLength="33.3" x="676.8" y="1016.3294">-portId2</text><text fill="#000000" font-family="sans-serif" font-size="9.9" lengthAdjust="spacing" textLength="57.6" x="676.8" y="1028.7817">-seaDistance</text><text fill="#000000" font-family="sans-serif" font-size="9.9" lengthAdjust="spacing" textLength="50.4" x="676.8" y="1041.2341">-portName1</text><text fill="#000000" font-family="sans-serif" font-size="9.9" lengthAdjust="spacing" textLength="50.4" x="676.8" y="1053.6864">-portName2</text><text fill="#000000" font-family="sans-serif" font-size="9.9" lengthAdjust="spacing" textLength="66.6" x="676.8" y="1066.1388">-countryName1</text><text fill="#000000" font-family="sans-serif" font-size="9.9" lengthAdjust="spacing" textLength="66.6" x="676.8" y="1078.5911">-countryName2</text><line style="stroke:#A80036;stroke-width:1.35;" x1="672.3" x2="747.9" y1="1084.3664" y2="1084.3664"/><!--MD5=[305bcb7b78fcb9f22634b78a6e830e55]
class AdjacencyMatrixGraph--><rect codeLine="96" fill="#FEFECE" filter="url(#ft2c948vrz37e)" height="55.6523" id="AdjacencyMatrixGraph" style="stroke:#A80036;stroke-width:1.35;" width="136.8" x="371.7" y="645.3"/><ellipse cx="385.2" cy="659.7" fill="#ADD1B2" rx="9.9" ry="9.9" style="stroke:#A80036;stroke-width:0.9;"/><path d="M387,656.55 Q387.1828,656.1 387.3938,655.875 Q387.6047,655.65 387.8438,655.65 Q388.2656,655.65 388.5328,655.9031 Q388.8,656.1563 388.8,656.7469 L388.8,658.1531 Q388.8,658.7438 388.5469,658.9969 Q388.2938,659.25 387.9,659.25 Q387.5484,659.25 387.3234,659.0953 Q387.0984,658.9406 387,658.5328 Q386.9578,658.2516 386.8031,658.0969 Q386.5219,657.8016 386.0156,657.6328 Q385.5094,657.45 385.0031,657.45 Q384.3703,657.45 383.8359,657.7031 Q383.3156,657.9563 382.9078,658.5188 Q382.5,659.0813 382.5,659.8547 L382.5,660.6844 Q382.5,661.6125 383.2594,662.2313 Q384.0188,662.85 385.3688,662.85 Q386.1703,662.85 386.7328,662.6672 Q387.0563,662.5688 387.4219,662.2453 Q387.6609,662.0625 387.7875,662.0063 Q387.9141,661.95 388.0688,661.95 Q388.3641,661.95 388.575,662.1891 Q388.8,662.4141 388.8,662.7375 Q388.8,663.0469 388.4906,663.4125 Q388.0406,663.9469 387.3234,664.2422 Q386.3813,664.65 385.2281,664.65 Q383.8781,664.65 382.7953,664.1156 Q381.9234,663.6938 381.3047,662.7797 Q380.7,661.8656 380.7,660.7828 L380.7,659.7984 Q380.7,658.6734 381.2344,657.6891 Q381.7828,656.7047 382.725,656.1844 Q383.6813,655.65 384.75,655.65 Q385.3969,655.65 385.9594,655.875 Q386.5219,656.1 387,656.55 Z " fill="#000000"/><text fill="#000000" font-family="sans-serif" font-size="10.8" lengthAdjust="spacing" textLength="108" x="397.8" y="664.1191">AdjacencyMatrixGraph</text><line style="stroke:#A80036;stroke-width:1.35;" x1="372.6" x2="507.6" y1="674.1" y2="674.1"/><line style="stroke:#A80036;stroke-width:1.35;" x1="372.6" x2="507.6" y1="681.3" y2="681.3"/><text fill="#000000" font-family="sans-serif" font-size="9.9" lengthAdjust="spacing" textLength="48.6" x="377.1" y="695.1771">-addEdge()</text><!--MD5=[2e2f8c8f62c4eb3bc59a59727cfd81a5]
class Edge--><rect codeLine="101" fill="#FEFECE" filter="url(#ft2c948vrz37e)" height="43.2" id="Edge" style="stroke:#A80036;stroke-width:1.35;" width="54.9" x="412.65" y="823.05"/><ellipse cx="426.15" cy="837.45" fill="#ADD1B2" rx="9.9" ry="9.9" style="stroke:#A80036;stroke-width:0.9;"/><path d="M427.95,834.3 Q428.1328,833.85 428.3438,833.625 Q428.5547,833.4 428.7938,833.4 Q429.2156,833.4 429.4828,833.6531 Q429.75,833.9063 429.75,834.4969 L429.75,835.9031 Q429.75,836.4938 429.4969,836.7469 Q429.2438,837 428.85,837 Q428.4984,837 428.2734,836.8453 Q428.0484,836.6906 427.95,836.2828 Q427.9078,836.0016 427.7531,835.8469 Q427.4719,835.5516 426.9656,835.3828 Q426.4594,835.2 425.9531,835.2 Q425.3203,835.2 424.7859,835.4531 Q424.2656,835.7063 423.8578,836.2688 Q423.45,836.8313 423.45,837.6047 L423.45,838.4344 Q423.45,839.3625 424.2094,839.9813 Q424.9688,840.6 426.3188,840.6 Q427.1203,840.6 427.6828,840.4172 Q428.0063,840.3188 428.3719,839.9953 Q428.6109,839.8125 428.7375,839.7563 Q428.8641,839.7 429.0188,839.7 Q429.3141,839.7 429.525,839.9391 Q429.75,840.1641 429.75,840.4875 Q429.75,840.7969 429.4406,841.1625 Q428.9906,841.6969 428.2734,841.9922 Q427.3313,842.4 426.1781,842.4 Q424.8281,842.4 423.7453,841.8656 Q422.8734,841.4438 422.2547,840.5297 Q421.65,839.6156 421.65,838.5328 L421.65,837.5484 Q421.65,836.4234 422.1844,835.4391 Q422.7328,834.4547 423.675,833.9344 Q424.6313,833.4 425.7,833.4 Q426.3469,833.4 426.9094,833.625 Q427.4719,833.85 427.95,834.3 Z " fill="#000000"/><text fill="#000000" font-family="sans-serif" font-size="10.8" lengthAdjust="spacing" textLength="26.1" x="438.75" y="841.8691">Edge</text><line style="stroke:#A80036;stroke-width:1.35;" x1="413.55" x2="466.65" y1="851.85" y2="851.85"/><line style="stroke:#A80036;stroke-width:1.35;" x1="413.55" x2="466.65" y1="859.05" y2="859.05"/><!--MD5=[391129f97cbf29e496416e41529bff0f]
link CreateFreightNetworkUI to CreateFreightNetworkController--><path codeLine="105" d="M716.4,49.563 C716.4,63.909 716.4,83.259 716.4,99.54 " fill="none" id="CreateFreightNetworkUI-to-CreateFreightNetworkController" style="stroke:#A80036;stroke-width:0.9;stroke-dasharray:7.0,7.0;"/><polygon fill="#A80036" points="716.4,104.049,720,95.949,716.4,99.549,712.8,95.949,716.4,104.049" style="stroke:#A80036;stroke-width:0.9;"/><!--MD5=[f04de9d4c066040755c4788048ff1168]
link CreateFreightNetworkController to Company--><path codeLine="107" d="M693.162,160.362 C680.778,174.852 664.929,193.374 649.449,211.473 " fill="none" id="CreateFreightNetworkController-to-Company" style="stroke:#A80036;stroke-width:0.9;stroke-dasharray:7.0,7.0;"/><polygon fill="#A80036" points="646.353,215.091,654.3577,211.2839,649.2816,211.6743,648.8911,206.5982,646.353,215.091" style="stroke:#A80036;stroke-width:0.9;"/><!--MD5=[aa44d5b3339bd2b4759b8158b432e83b]
link CreateFreightNetworkController to FreightNetwork--><path codeLine="108" d="M623.502,156.726 C584.955,169.614 541.431,188.505 507.6,215.1 C429.849,276.219 370.107,376.362 337.932,438.705 " fill="none" id="CreateFreightNetworkController-to-FreightNetwork" style="stroke:#A80036;stroke-width:0.9;stroke-dasharray:7.0,7.0;"/><polygon fill="#A80036" points="335.853,442.764,342.7525,437.1992,337.9064,438.7598,336.3458,433.9137,335.853,442.764" style="stroke:#A80036;stroke-width:0.9;"/><!--MD5=[e359b474b5bea3d5e0a05d5f38acf6c5]
link Company to FreightNetwork--><path codeLine="110" d="M535.698,345.699 C528.03,354.699 520.299,363.861 513,372.6 C497.151,391.59 497.367,400.536 477.9,415.8 C465.444,425.565 451.584,434.502 437.319,442.566 " fill="none" id="Company-FreightNetwork" style="stroke:#A80036;stroke-width:0.9;"/><polygon fill="#000000" points="514.2935,397.5154,521.9499,393.6887,518.2384,389.9192,514.2935,397.5154" style="stroke:#000000;stroke-width:0.9;"/><text fill="#000000" font-family="sans-serif" font-size="11.7" lengthAdjust="spacing" textLength="23.4" x="525.6" y="399.1456">have</text><text fill="#000000" font-family="sans-serif" font-size="11.7" lengthAdjust="spacing" textLength="6.3" x="523.7982" y="364.7809">1</text><text fill="#000000" font-family="sans-serif" font-size="11.7" lengthAdjust="spacing" textLength="6.3" x="445.9815" y="432.9983">1</text><!--MD5=[c834a245beec73db3c4af2461c29a9dc]
link Company to TransferFromDataBase--><path codeLine="111" d="M622.359,345.825 C637.596,377.496 655.668,415.062 669.834,444.519 " fill="none" id="Company-to-TransferFromDataBase" style="stroke:#A80036;stroke-width:0.9;stroke-dasharray:7.0,7.0;"/><polygon fill="#A80036" points="671.895,448.803,671.6399,439.9427,669.9498,444.7451,665.1474,443.055,671.895,448.803" style="stroke:#A80036;stroke-width:0.9;"/><!--MD5=[c8e8e510b3d61337403bff1e4f9e7277]
link FreightNetwork to AdjacencyMatrixGraph--><path codeLine="112" d="M358.596,548.343 C365.931,557.082 373.248,566.208 379.8,575.1 C395.424,596.295 411.039,621.603 422.46,641.079 " fill="none" id="FreightNetwork-to-AdjacencyMatrixGraph" style="stroke:#A80036;stroke-width:0.9;stroke-dasharray:7.0,7.0;"/><polygon fill="#A80036" points="424.836,645.147,423.8805,636.3347,422.5758,641.2558,417.6546,639.951,424.836,645.147" style="stroke:#A80036;stroke-width:0.9;"/><!--MD5=[5957790c5297b9f6d5589f6d219daa42]
link AdjacencyMatrixGraph to Edge--><path codeLine="113" d="M440.1,701.361 C440.1,733.545 440.1,786.663 440.1,818.118 " fill="none" id="AdjacencyMatrixGraph-to-Edge" style="stroke:#A80036;stroke-width:0.9;stroke-dasharray:7.0,7.0;"/><polygon fill="#A80036" points="440.1,822.978,443.7,814.878,440.1,818.478,436.5,814.878,440.1,822.978" style="stroke:#A80036;stroke-width:0.9;"/><!--MD5=[1c7ef3eed46208412625467f91f87f69]
link CreateFreightNetworkController to PortStore--><path codeLine="114" d="M723.438,160.299 C736.551,210.843 764.577,318.825 777.33,367.983 " fill="none" id="CreateFreightNetworkController-to-PortStore" style="stroke:#A80036;stroke-width:0.9;stroke-dasharray:7.0,7.0;"/><polygon fill="#A80036" points="778.518,372.555,779.9673,363.8103,777.3873,368.1994,772.9983,365.6194,778.518,372.555" style="stroke:#A80036;stroke-width:0.9;"/><!--MD5=[9b3785718498db7ce85977e49a9dd4c2]
link CreateFreightNetworkController to SeadistStore--><path codeLine="115" d="M780.192,160.236 C825.525,184.203 878.4,224.037 878.4,279.45 C878.4,279.45 878.4,279.45 878.4,597.6 C878.4,641.826 878.4,693.333 878.4,723.375 " fill="none" id="CreateFreightNetworkController-to-SeadistStore" style="stroke:#A80036;stroke-width:0.9;stroke-dasharray:7.0,7.0;"/><polygon fill="#A80036" points="878.4,728.01,882,719.91,878.4,723.51,874.8,719.91,878.4,728.01" style="stroke:#A80036;stroke-width:0.9;"/><!--MD5=[9d17a4b78cd5cf71b8e658a89e9f66c4]
link CreateFreightNetworkController to BorderStore--><path codeLine="116" d="M809.289,139.014 C843.3,145.989 879.003,159.939 901.8,187.2 C997.164,301.257 965.88,500.436 950.958,570.528 " fill="none" id="CreateFreightNetworkController-to-BorderStore" style="stroke:#A80036;stroke-width:0.9;stroke-dasharray:7.0,7.0;"/><polygon fill="#A80036" points="950.004,574.956,955.2356,567.8005,950.9557,570.5578,948.1984,566.2779,950.004,574.956" style="stroke:#A80036;stroke-width:0.9;"/><!--MD5=[3d97e7a8068d9b0a6bb8fcf7dc76451d]
link Company to Ports--><path codeLine="117" d="M594.297,345.78 C599.859,465.678 611.613,718.929 615.843,810.126 " fill="none" id="Company-Ports" style="stroke:#A80036;stroke-width:0.9;"/><polygon fill="#000000" points="611.3086,601.3534,613.5734,593.0989,608.2891,593.3441,611.3086,601.3534" style="stroke:#000000;stroke-width:0.9;"/><text fill="#000000" font-family="sans-serif" font-size="11.7" lengthAdjust="spacing" textLength="23.4" x="619.2" y="601.6456">have</text><text fill="#000000" font-family="sans-serif" font-size="11.7" lengthAdjust="spacing" textLength="6.3" x="587.9824" y="364.8696">1</text><text fill="#000000" font-family="sans-serif" font-size="11.7" lengthAdjust="spacing" textLength="18" x="596.0285" y="800.7529">1..*</text><!--MD5=[af03eac9374996fab52622a2288382b0]
link PortStore to Ports--><path codeLine="118" d="M787.005,415.818 C790.749,445.644 795.141,502.128 783,548.1 C756.225,649.476 686.466,752.994 646.56,806.535 " fill="none" id="PortStore-to-Ports" style="stroke:#A80036;stroke-width:0.9;"/><polygon fill="#A80036" points="643.734,810.306,651.474,805.986,646.434,806.706,645.714,801.666,643.734,810.306" style="stroke:#A80036;stroke-width:0.9;"/><text fill="#000000" font-family="sans-serif" font-size="11.7" lengthAdjust="spacing" textLength="35.1" x="774.9" y="601.6456">adopts</text><text fill="#000000" font-family="sans-serif" font-size="11.7" lengthAdjust="spacing" textLength="6.3" x="780.694" y="435.0266">1</text><text fill="#000000" font-family="sans-serif" font-size="11.7" lengthAdjust="spacing" textLength="4.5" x="643.524" y="800.7061">*</text><!--MD5=[ee6496886c16455100a23a654f1e78a4]
link SeadistStore to Seadist--><path codeLine="119" d="M865.611,771.489 C841.59,810.729 788.787,897.003 751.392,958.095 " fill="none" id="SeadistStore-to-Seadist" style="stroke:#A80036;stroke-width:0.9;"/><polygon fill="#A80036" points="748.953,962.082,756.2595,957.0635,751.3078,958.2473,750.124,953.2957,748.953,962.082" style="stroke:#A80036;stroke-width:0.9;"/><text fill="#000000" font-family="sans-serif" font-size="11.7" lengthAdjust="spacing" textLength="35.1" x="848.7" y="849.5956">adopts</text><text fill="#000000" font-family="sans-serif" font-size="11.7" lengthAdjust="spacing" textLength="6.3" x="855.4259" y="790.7392">1</text><text fill="#000000" font-family="sans-serif" font-size="11.7" lengthAdjust="spacing" textLength="4.5" x="753.7055" y="951.5786">*</text><!--MD5=[79560296f397660a41a436e13f02127c]
link BorderStore to Border--><path codeLine="120" d="M945.207,618.39 C945.468,647.532 945.9,702.207 945.9,748.8 C945.9,748.8 945.9,748.8 945.9,1027.35 C945.9,1113.957 836.28,1162.359 773.226,1183.023 " fill="none" id="BorderStore-to-Border" style="stroke:#A80036;stroke-width:0.9;"/><polygon fill="#A80036" points="768.771,1184.463,777.584,1185.4125,773.0553,1183.0864,775.3814,1178.5577,768.771,1184.463" style="stroke:#A80036;stroke-width:0.9;"/><text fill="#000000" font-family="sans-serif" font-size="11.7" lengthAdjust="spacing" textLength="35.1" x="946.8" y="849.5956">adopts</text><text fill="#000000" font-family="sans-serif" font-size="11.7" lengthAdjust="spacing" textLength="6.3" x="938.1896" y="637.6161">1</text><text fill="#000000" font-family="sans-serif" font-size="11.7" lengthAdjust="spacing" textLength="4.5" x="775.8387" y="1179.0236">*</text><!--MD5=[6d3d45a2319404bb3e06b58881af6b0d]
link Ports to Seadist--><path codeLine="122" d="M634.617,878.985 C646.452,901.962 662.544,933.21 676.836,960.957 " fill="none" id="Ports-Seadist" style="stroke:#A80036;stroke-width:0.9;"/><text fill="#000000" font-family="sans-serif" font-size="11.7" lengthAdjust="spacing" textLength="28.8" x="661.5" y="931.0456">has a</text><text fill="#000000" font-family="sans-serif" font-size="11.7" lengthAdjust="spacing" textLength="6.3" x="630.5589" y="897.799">2</text><text fill="#000000" font-family="sans-serif" font-size="11.7" lengthAdjust="spacing" textLength="4.5" x="668.6736" y="951.2293">*</text><!--MD5=[fa4d65f953ae0f8f2ca1213e61726aa9]
link FreightNetwork to Place--><path codeLine="123" d="M311.4,548.19 C311.4,582.651 311.4,626.076 311.4,651.357 " fill="none" id="FreightNetwork-Place" style="stroke:#A80036;stroke-width:0.9;"/><text fill="#000000" font-family="sans-serif" font-size="11.7" lengthAdjust="spacing" textLength="59.4" x="312.3" y="601.6456">related with</text><text fill="#000000" font-family="sans-serif" font-size="11.7" lengthAdjust="spacing" textLength="6.3" x="304.7161" y="567.6502">1</text><text fill="#000000" font-family="sans-serif" font-size="11.7" lengthAdjust="spacing" textLength="18" x="291.0938" y="641.7009">1..*</text><!--MD5=[8019f7a40ce5be359cb5778b910e4989]
reverse link Place to Capital--><path codeLine="124" d="M275.049,707.049 C240.633,738.234 189.45,784.62 156.447,814.527 " fill="none" id="Place-backto-Capital" style="stroke:#A80036;stroke-width:0.9;"/><polygon fill="none" points="270.882,702.324,288.45,694.899,279.342,711.657,270.882,702.324" style="stroke:#A80036;stroke-width:0.9;"/><!--MD5=[c549efd5903bd57ae8426884da365cce]
reverse link Place to Ports--><path codeLine="125" d="M355.266,700.965 C355.347,701.01 355.419,701.055 355.5,701.1 C436.194,747.738 532.89,799.317 583.191,825.831 " fill="none" id="Place-backto-Ports" style="stroke:#A80036;stroke-width:0.9;"/><polygon fill="none" points="352.242,706.491,339.975,691.884,358.677,695.664,352.242,706.491" style="stroke:#A80036;stroke-width:0.9;"/><!--MD5=[553c71e238892de64676e9482c62727a]
link Country to Border--><path codeLine="126" d="M547.416,1053.396 C586.278,1083.591 650.241,1133.298 691.191,1165.122 " fill="none" id="Country-Border" style="stroke:#A80036;stroke-width:0.9;"/><text fill="#000000" font-family="sans-serif" font-size="11.7" lengthAdjust="spacing" textLength="28.8" x="648" y="1131.7456">has a</text><text fill="#000000" font-family="sans-serif" font-size="11.7" lengthAdjust="spacing" textLength="6.3" x="554.4055" y="1054.964">2</text><text fill="#000000" font-family="sans-serif" font-size="11.7" lengthAdjust="spacing" textLength="4.5" x="679.3952" y="1156.1216">*</text><!--MD5=[3d04185e7085eaaeba7ebd93b9963be0]
link PlaceLocation to Country--><path codeLine="127" d="M357.075,878.985 C392.436,912.024 446.094,962.172 480.573,994.401 " fill="none" id="PlaceLocation-Country" style="stroke:#A80036;stroke-width:0.9;"/><polygon fill="#000000" points="419.9877,929.3308,415.8462,921.8399,412.2341,925.7049,419.9877,929.3308" style="stroke:#000000;stroke-width:0.9;"/><text fill="#000000" font-family="sans-serif" font-size="11.7" lengthAdjust="spacing" textLength="46.8" x="424.8" y="931.0456">placed in</text><text fill="#000000" font-family="sans-serif" font-size="11.7" lengthAdjust="spacing" textLength="4.5" x="357.918" y="897.799">*</text><text fill="#000000" font-family="sans-serif" font-size="11.7" lengthAdjust="spacing" textLength="6.3" x="467.0916" y="984.4797">1</text><!--MD5=[3f90a4e0e12e19ee6f3a457d358ba219]
link Place to PlaceLocation--><path codeLine="128" d="M312.615,694.899 C314.289,723.654 317.34,775.881 319.347,810.198 " fill="none" id="Place-PlaceLocation" style="stroke:#A80036;stroke-width:0.9;"/><polygon fill="#000000" points="322.4623,754.3506,324.6283,746.0696,319.3473,746.378,322.4623,754.3506" style="stroke:#000000;stroke-width:0.9;"/><text fill="#000000" font-family="sans-serif" font-size="11.7" lengthAdjust="spacing" textLength="51.3" x="330.3" y="754.6456">located at</text><text fill="#000000" font-family="sans-serif" font-size="11.7" lengthAdjust="spacing" textLength="6.3" x="305.8433" y="714.1273">1</text><text fill="#000000" font-family="sans-serif" font-size="11.7" lengthAdjust="spacing" textLength="6.3" x="312.138" y="800.5788">1</text><!--MD5=[c64d6da58f6299e5b5c121a2193db5e3]
link CreateFreightNetworkController to CapitalStore--><path codeLine="129" d="M623.574,137.799 C566.685,143.757 493.848,157.176 435.6,187.2 C347.769,232.479 270.972,324.612 237.474,368.712 " fill="none" id="CreateFreightNetworkController-to-CapitalStore" style="stroke:#A80036;stroke-width:0.9;stroke-dasharray:7.0,7.0;"/><polygon fill="#A80036" points="234.756,372.312,242.5132,368.023,237.4704,368.7228,236.7706,363.68,234.756,372.312" style="stroke:#A80036;stroke-width:0.9;"/><!--MD5=[06f151f668f74ec93f0d48e2fb4c1fb4]
link CapitalStore to Capital--><path codeLine="130" d="M174.447,397.503 C142.623,401.841 102.06,413.28 81,442.8 C5.4,548.766 62.397,712.296 99.27,793.89 " fill="none" id="CapitalStore-to-Capital" style="stroke:#A80036;stroke-width:0.9;"/><polygon fill="#A80036" points="101.223,798.183,101.138,789.3194,99.356,794.0886,94.5869,792.3066,101.223,798.183" style="stroke:#A80036;stroke-width:0.9;"/><text fill="#000000" font-family="sans-serif" font-size="11.7" lengthAdjust="spacing" textLength="35.1" x="47.7" y="601.6456">adopts</text><text fill="#000000" font-family="sans-serif" font-size="11.7" lengthAdjust="spacing" textLength="6.3" x="161.0525" y="394.6995">1</text><text fill="#000000" font-family="sans-serif" font-size="11.7" lengthAdjust="spacing" textLength="4.5" x="93.1755" y="788.3822">*</text><!--MD5=[d355c21641bb0c4e12acc9790190ed6a]
@startuml
'https://plantuml.com/class-diagram

skinparam classAttributeIconSize 0



class CreateFreightNetworkUI {}

class CreateFreightNetworkController {
-createFreightNetwork(n)
}

class Company {
-designation
-getTransferFromDatabase()
-getPortStr()
-getSeadistStr()
-getCapitalStr()
-getBorderStr()
-getFreightNetwork()
}

class TransferFromDataBase {
-importPorts()
-importSeadists()
-importCountries()
-importBorders()
}

class FreightNetwork {
-addNewInformation(capitalStore,portStore,seadistStore,borderStore,n)
-linkBetweenCapitalsOfNeighboringCountries(capitalStore,borderStore);
-connectionBetweenPortsOfTheSameCountry(portStore,seadistStore);
-connectionBetweenTheCapitalAndTheNearestPort(capitalStore,portStore);
-connectionBetweenThePortAndTheNearestNPortsOfAnotherCountry(seadistStore,n,portStore);
}

class PortStore {

}

class SeadistStore {

}

class CapitalStore {

}

class BorderStore {

}

class Ports {
-identification
-name
}


class Country {
-name
-continent
}

class PlaceLocation {
-latitude
-longitude
}

class Capital{
-name
-country
-latitude
-longitude
}

class Place {

}

class Border {
-countryName1
-countryName2
}

class Seadist {
-portId1
-portId2
-seaDistance
-portName1
-portName2
-countryName1
-countryName2
}

class AdjacencyMatrixGraph {
-addEdge()

}

class Edge {

}

CreateFreightNetworkUI ..> CreateFreightNetworkController

CreateFreightNetworkController ..> Company
CreateFreightNetworkController ..> FreightNetwork

Company "1"- -"1" FreightNetwork: have >
Company ..> TransferFromDataBase
FreightNetwork ..> AdjacencyMatrixGraph
AdjacencyMatrixGraph ..> Edge
CreateFreightNetworkController ..> PortStore
CreateFreightNetworkController ..> SeadistStore
CreateFreightNetworkController ..> BorderStore
Company "1"- -"1..*" Ports: have >
PortStore "1"- -> "*" Ports : adopts
SeadistStore "1"- -> "*" Seadist : adopts
BorderStore "1"- -> "*" Border : adopts

Ports "2"- -"*" Seadist: has a
FreightNetwork "1" - - "1..*" Place : related with
Place <|- - Capital
Place <|- - Ports
Country "2" - - "*" Border : has a
PlaceLocation "*" - - "1" Country : placed in >
Place "1" - - "1" PlaceLocation : located at >
CreateFreightNetworkController ..> CapitalStore
CapitalStore "1"- -> "*" Capital : adopts
@enduml

@startuml

skinparam classAttributeIconSize 0



class CreateFreightNetworkUI {}

class CreateFreightNetworkController {
-createFreightNetwork(n)
}

class Company {
-designation
-getTransferFromDatabase()
-getPortStr()
-getSeadistStr()
-getCapitalStr()
-getBorderStr()
-getFreightNetwork()
}

class TransferFromDataBase {
-importPorts()
-importSeadists()
-importCountries()
-importBorders()
}

class FreightNetwork {
-addNewInformation(capitalStore,portStore,seadistStore,borderStore,n)
-linkBetweenCapitalsOfNeighboringCountries(capitalStore,borderStore);
-connectionBetweenPortsOfTheSameCountry(portStore,seadistStore);
-connectionBetweenTheCapitalAndTheNearestPort(capitalStore,portStore);
-connectionBetweenThePortAndTheNearestNPortsOfAnotherCountry(seadistStore,n,portStore);
}

class PortStore {

}

class SeadistStore {

}

class CapitalStore {

}

class BorderStore {

}

class Ports {
-identification
-name
}


class Country {
-name
-continent
}

class PlaceLocation {
-latitude
-longitude
}

class Capital{
-name
-country
-latitude
-longitude
}

class Place {

}

class Border {
-countryName1
-countryName2
}

class Seadist {
-portId1
-portId2
-seaDistance
-portName1
-portName2
-countryName1
-countryName2
}

class AdjacencyMatrixGraph {
-addEdge()

}

class Edge {

}

CreateFreightNetworkUI ..> CreateFreightNetworkController

CreateFreightNetworkController ..> Company
CreateFreightNetworkController ..> FreightNetwork

Company "1"- -"1" FreightNetwork: have >
Company ..> TransferFromDataBase
FreightNetwork ..> AdjacencyMatrixGraph
AdjacencyMatrixGraph ..> Edge
CreateFreightNetworkController ..> PortStore
CreateFreightNetworkController ..> SeadistStore
CreateFreightNetworkController ..> BorderStore
Company "1"- -"1..*" Ports: have >
PortStore "1"- -> "*" Ports : adopts
SeadistStore "1"- -> "*" Seadist : adopts
BorderStore "1"- -> "*" Border : adopts

Ports "2"- -"*" Seadist: has a
FreightNetwork "1" - - "1..*" Place : related with
Place <|- - Capital
Place <|- - Ports
Country "2" - - "*" Border : has a
PlaceLocation "*" - - "1" Country : placed in >
Place "1" - - "1" PlaceLocation : located at >
CreateFreightNetworkController ..> CapitalStore
CapitalStore "1"- -> "*" Capital : adopts
@enduml

PlantUML version 1.2021.5(Sun Apr 25 12:20:28 BST 2021)
(GPL source distribution)
Java Runtime: OpenJDK Runtime Environment
JVM: Dynamic Code Evolution 64-Bit Server VM
Default Encoding: Cp1252
Language: pt
Country: PT
--></g></svg>