<?xml version="1.0" encoding="UTF-8" standalone="no"?><svg xmlns="http://www.w3.org/2000/svg" xmlns:xlink="http://www.w3.org/1999/xlink" contentScriptType="application/ecmascript" contentStyleType="text/css" height="328px" preserveAspectRatio="none" style="width:1639px;height:328px;background:#FFFFFF;" version="1.1" viewBox="0 0 1639 328" width="1639px" zoomAndPan="magnify"><defs><filter height="300%" id="f1gwbm91wxodoi" width="300%" x="-1" y="-1"><feGaussianBlur result="blurOut" stdDeviation="2.0"/><feColorMatrix in="blurOut" result="blurOut2" type="matrix" values="0 0 0 0 0 0 0 0 0 0 0 0 0 0 0 0 0 0 .4 0"/><feOffset dx="4.0" dy="4.0" in="blurOut2" result="blurOut3"/><feBlend in="SourceGraphic" in2="blurOut3" mode="normal"/></filter></defs><g><!--MD5=[02e4b9b7573f1156f41e60aa5b4e25a4]
class Company--><rect codeLine="4" fill="#FEFECE" filter="url(#f1gwbm91wxodoi)" height="89.5078" id="Company" style="stroke:#A80036;stroke-width:1.5;" width="99" x="384" y="155"/><ellipse cx="405.3" cy="171" fill="#ADD1B2" rx="11" ry="11" style="stroke:#A80036;stroke-width:1.0;"/><path d="M407.3,167.5 Q407.5031,167 407.7375,166.75 Q407.9719,166.5 408.2375,166.5 Q408.7063,166.5 409.0031,166.7813 Q409.3,167.0625 409.3,167.7188 L409.3,169.2813 Q409.3,169.9375 409.0188,170.2188 Q408.7375,170.5 408.3,170.5 Q407.9094,170.5 407.6594,170.3281 Q407.4094,170.1563 407.3,169.7031 Q407.2531,169.3906 407.0813,169.2188 Q406.7688,168.8906 406.2063,168.7031 Q405.6438,168.5 405.0813,168.5 Q404.3781,168.5 403.7844,168.7813 Q403.2063,169.0625 402.7531,169.6875 Q402.3,170.3125 402.3,171.1719 L402.3,172.0938 Q402.3,173.125 403.1438,173.8125 Q403.9875,174.5 405.4875,174.5 Q406.3781,174.5 407.0031,174.2969 Q407.3625,174.1875 407.7688,173.8281 Q408.0344,173.625 408.175,173.5625 Q408.3156,173.5 408.4875,173.5 Q408.8156,173.5 409.05,173.7656 Q409.3,174.0156 409.3,174.375 Q409.3,174.7188 408.9563,175.125 Q408.4563,175.7188 407.6594,176.0469 Q406.6125,176.5 405.3313,176.5 Q403.8313,176.5 402.6281,175.9063 Q401.6594,175.4375 400.9719,174.4219 Q400.3,173.4063 400.3,172.2031 L400.3,171.1094 Q400.3,169.8594 400.8938,168.7656 Q401.5031,167.6719 402.55,167.0938 Q403.6125,166.5 404.8,166.5 Q405.5188,166.5 406.1438,166.75 Q406.7688,167 407.3,167.5 Z " fill="#000000"/><text fill="#000000" font-family="sans-serif" font-size="12" lengthAdjust="spacing" textLength="53" x="420.7" y="175.9102">Company</text><line style="stroke:#A80036;stroke-width:1.5;" x1="385" x2="482" y1="187" y2="187"/><rect fill="none" height="6" style="stroke:#C82930;stroke-width:1.0;" width="6" x="392" y="195"/><text fill="#000000" font-family="sans-serif" font-size="11" lengthAdjust="spacing" textLength="55" x="404" y="202.4189">designation</text><line style="stroke:#A80036;stroke-width:1.5;" x1="385" x2="482" y1="208.8359" y2="208.8359"/><rect fill="#F24D5C" height="6" style="stroke:#C82930;stroke-width:1.0;" width="6" x="392" y="216.8359"/><text fill="#000000" font-family="sans-serif" font-size="11" lengthAdjust="spacing" textLength="60" x="404" y="224.2549">getBstShip()</text><rect fill="#F24D5C" height="6" style="stroke:#C82930;stroke-width:1.0;" width="6" x="392" y="230.6719"/><text fill="#000000" font-family="sans-serif" font-size="11" lengthAdjust="spacing" textLength="73" x="404" y="238.0908">getImportShip()</text><!--MD5=[0dc7f2ddb409b58bcf52b12238c25399]
class Ship--><rect codeLine="10" fill="#FEFECE" filter="url(#f1gwbm91wxodoi)" height="227.8672" id="Ship" style="stroke:#A80036;stroke-width:1.5;" width="151" x="1040" y="7"/><ellipse cx="1098.75" cy="23" fill="#ADD1B2" rx="11" ry="11" style="stroke:#A80036;stroke-width:1.0;"/><path d="M1100.75,19.5 Q1100.9531,19 1101.1875,18.75 Q1101.4219,18.5 1101.6875,18.5 Q1102.1563,18.5 1102.4531,18.7813 Q1102.75,19.0625 1102.75,19.7188 L1102.75,21.2813 Q1102.75,21.9375 1102.4688,22.2188 Q1102.1875,22.5 1101.75,22.5 Q1101.3594,22.5 1101.1094,22.3281 Q1100.8594,22.1563 1100.75,21.7031 Q1100.7031,21.3906 1100.5313,21.2188 Q1100.2188,20.8906 1099.6563,20.7031 Q1099.0938,20.5 1098.5313,20.5 Q1097.8281,20.5 1097.2344,20.7813 Q1096.6563,21.0625 1096.2031,21.6875 Q1095.75,22.3125 1095.75,23.1719 L1095.75,24.0938 Q1095.75,25.125 1096.5938,25.8125 Q1097.4375,26.5 1098.9375,26.5 Q1099.8281,26.5 1100.4531,26.2969 Q1100.8125,26.1875 1101.2188,25.8281 Q1101.4844,25.625 1101.625,25.5625 Q1101.7656,25.5 1101.9375,25.5 Q1102.2656,25.5 1102.5,25.7656 Q1102.75,26.0156 1102.75,26.375 Q1102.75,26.7188 1102.4063,27.125 Q1101.9063,27.7188 1101.1094,28.0469 Q1100.0625,28.5 1098.7813,28.5 Q1097.2813,28.5 1096.0781,27.9063 Q1095.1094,27.4375 1094.4219,26.4219 Q1093.75,25.4063 1093.75,24.2031 L1093.75,23.1094 Q1093.75,21.8594 1094.3438,20.7656 Q1094.9531,19.6719 1096,19.0938 Q1097.0625,18.5 1098.25,18.5 Q1098.9688,18.5 1099.5938,18.75 Q1100.2188,19 1100.75,19.5 Z " fill="#000000"/><text fill="#000000" font-family="sans-serif" font-size="12" lengthAdjust="spacing" textLength="25" x="1119.25" y="27.9102">Ship</text><line style="stroke:#A80036;stroke-width:1.5;" x1="1041" x2="1190" y1="39" y2="39"/><rect fill="none" height="6" style="stroke:#C82930;stroke-width:1.0;" width="6" x="1048" y="47"/><text fill="#000000" font-family="sans-serif" font-size="11" lengthAdjust="spacing" textLength="25" x="1060" y="54.4189">MMSI</text><rect fill="none" height="6" style="stroke:#C82930;stroke-width:1.0;" width="6" x="1048" y="60.8359"/><text fill="#000000" font-family="sans-serif" font-size="11" lengthAdjust="spacing" textLength="26" x="1060" y="68.2549">name</text><rect fill="none" height="6" style="stroke:#C82930;stroke-width:1.0;" width="6" x="1048" y="74.6719"/><text fill="#000000" font-family="sans-serif" font-size="11" lengthAdjust="spacing" textLength="29" x="1060" y="82.0908">shipID</text><rect fill="none" height="6" style="stroke:#C82930;stroke-width:1.0;" width="6" x="1048" y="88.5078"/><text fill="#000000" font-family="sans-serif" font-size="11" lengthAdjust="spacing" textLength="125" x="1060" y="95.9268">numberEnergyGenerators</text><rect fill="none" height="6" style="stroke:#C82930;stroke-width:1.0;" width="6" x="1048" y="102.3438"/><text fill="#000000" font-family="sans-serif" font-size="11" lengthAdjust="spacing" textLength="79" x="1060" y="109.7627">generatorPower</text><rect fill="none" height="6" style="stroke:#C82930;stroke-width:1.0;" width="6" x="1048" y="116.1797"/><text fill="#000000" font-family="sans-serif" font-size="11" lengthAdjust="spacing" textLength="37" x="1060" y="123.5986">callSign</text><rect fill="none" height="6" style="stroke:#C82930;stroke-width:1.0;" width="6" x="1048" y="130.0156"/><text fill="#000000" font-family="sans-serif" font-size="11" lengthAdjust="spacing" textLength="56" x="1060" y="137.4346">vesselType</text><rect fill="none" height="6" style="stroke:#C82930;stroke-width:1.0;" width="6" x="1048" y="143.8516"/><text fill="#000000" font-family="sans-serif" font-size="11" lengthAdjust="spacing" textLength="29" x="1060" y="151.2705">length</text><rect fill="none" height="6" style="stroke:#C82930;stroke-width:1.0;" width="6" x="1048" y="157.6875"/><text fill="#000000" font-family="sans-serif" font-size="11" lengthAdjust="spacing" textLength="27" x="1060" y="165.1064">width</text><rect fill="none" height="6" style="stroke:#C82930;stroke-width:1.0;" width="6" x="1048" y="171.5234"/><text fill="#000000" font-family="sans-serif" font-size="11" lengthAdjust="spacing" textLength="41" x="1060" y="178.9424">capacity</text><rect fill="none" height="6" style="stroke:#C82930;stroke-width:1.0;" width="6" x="1048" y="185.3594"/><text fill="#000000" font-family="sans-serif" font-size="11" lengthAdjust="spacing" textLength="23" x="1060" y="192.7783">draft</text><line style="stroke:#A80036;stroke-width:1.5;" x1="1041" x2="1190" y1="199.1953" y2="199.1953"/><rect fill="#F24D5C" height="6" style="stroke:#C82930;stroke-width:1.0;" width="6" x="1048" y="207.1953"/><text fill="#000000" font-family="sans-serif" font-size="11" lengthAdjust="spacing" textLength="48" x="1060" y="214.6143">setMMSI()</text><rect fill="#F24D5C" height="6" style="stroke:#C82930;stroke-width:1.0;" width="6" x="1048" y="221.0313"/><text fill="#000000" font-family="sans-serif" font-size="11" lengthAdjust="spacing" textLength="81" x="1060" y="228.4502">getShipPosition()</text><!--MD5=[9265310f4bc9be4cc0c3c11287946897]
class ImportShip--><rect codeLine="26" fill="#FEFECE" filter="url(#f1gwbm91wxodoi)" height="103.3438" id="ImportShip" style="stroke:#A80036;stroke-width:1.5;" width="98" x="586" y="43.5"/><ellipse cx="603.7" cy="59.5" fill="#ADD1B2" rx="11" ry="11" style="stroke:#A80036;stroke-width:1.0;"/><path d="M605.7,56 Q605.9031,55.5 606.1375,55.25 Q606.3719,55 606.6375,55 Q607.1063,55 607.4031,55.2813 Q607.7,55.5625 607.7,56.2188 L607.7,57.7813 Q607.7,58.4375 607.4188,58.7188 Q607.1375,59 606.7,59 Q606.3094,59 606.0594,58.8281 Q605.8094,58.6563 605.7,58.2031 Q605.6531,57.8906 605.4813,57.7188 Q605.1688,57.3906 604.6063,57.2031 Q604.0438,57 603.4813,57 Q602.7781,57 602.1844,57.2813 Q601.6063,57.5625 601.1531,58.1875 Q600.7,58.8125 600.7,59.6719 L600.7,60.5938 Q600.7,61.625 601.5438,62.3125 Q602.3875,63 603.8875,63 Q604.7781,63 605.4031,62.7969 Q605.7625,62.6875 606.1688,62.3281 Q606.4344,62.125 606.575,62.0625 Q606.7156,62 606.8875,62 Q607.2156,62 607.45,62.2656 Q607.7,62.5156 607.7,62.875 Q607.7,63.2188 607.3563,63.625 Q606.8563,64.2188 606.0594,64.5469 Q605.0125,65 603.7313,65 Q602.2313,65 601.0281,64.4063 Q600.0594,63.9375 599.3719,62.9219 Q598.7,61.9063 598.7,60.7031 L598.7,59.6094 Q598.7,58.3594 599.2938,57.2656 Q599.9031,56.1719 600.95,55.5938 Q602.0125,55 603.2,55 Q603.9188,55 604.5438,55.25 Q605.1688,55.5 605.7,56 Z " fill="#000000"/><text fill="#000000" font-family="sans-serif" font-size="12" lengthAdjust="spacing" textLength="60" x="618.3" y="64.4102">ImportShip</text><line style="stroke:#A80036;stroke-width:1.5;" x1="587" x2="683" y1="75.5" y2="75.5"/><line style="stroke:#A80036;stroke-width:1.5;" x1="587" x2="683" y1="83.5" y2="83.5"/><rect fill="#F24D5C" height="6" style="stroke:#C82930;stroke-width:1.0;" width="6" x="594" y="91.5"/><text fill="#000000" font-family="sans-serif" font-size="11" lengthAdjust="spacing" textLength="39" x="606" y="98.9189">getFile()</text><rect fill="#F24D5C" height="6" style="stroke:#C82930;stroke-width:1.0;" width="6" x="594" y="105.3359"/><text fill="#000000" font-family="sans-serif" font-size="11" lengthAdjust="spacing" textLength="72" x="606" y="112.7549">convertShips()</text><rect fill="#F24D5C" height="6" style="stroke:#C82930;stroke-width:1.0;" width="6" x="594" y="119.1719"/><text fill="#000000" font-family="sans-serif" font-size="11" lengthAdjust="spacing" textLength="71" x="606" y="126.5908">getLineArray()</text><rect fill="#F24D5C" height="6" style="stroke:#C82930;stroke-width:1.0;" width="6" x="594" y="133.0078"/><text fill="#000000" font-family="sans-serif" font-size="11" lengthAdjust="spacing" textLength="60" x="606" y="140.4268">createShip()</text><!--MD5=[e4b1e7fd7cdb68395c6b7447b65253e8]
class ImportShipController--><rect codeLine="33" fill="#FEFECE" filter="url(#f1gwbm91wxodoi)" height="75.6719" id="ImportShipController" style="stroke:#A80036;stroke-width:1.5;" width="151" x="172" y="162"/><ellipse cx="189.25" cy="178" fill="#ADD1B2" rx="11" ry="11" style="stroke:#A80036;stroke-width:1.0;"/><path d="M191.25,174.5 Q191.4531,174 191.6875,173.75 Q191.9219,173.5 192.1875,173.5 Q192.6563,173.5 192.9531,173.7813 Q193.25,174.0625 193.25,174.7188 L193.25,176.2813 Q193.25,176.9375 192.9688,177.2188 Q192.6875,177.5 192.25,177.5 Q191.8594,177.5 191.6094,177.3281 Q191.3594,177.1563 191.25,176.7031 Q191.2031,176.3906 191.0313,176.2188 Q190.7188,175.8906 190.1563,175.7031 Q189.5938,175.5 189.0313,175.5 Q188.3281,175.5 187.7344,175.7813 Q187.1563,176.0625 186.7031,176.6875 Q186.25,177.3125 186.25,178.1719 L186.25,179.0938 Q186.25,180.125 187.0938,180.8125 Q187.9375,181.5 189.4375,181.5 Q190.3281,181.5 190.9531,181.2969 Q191.3125,181.1875 191.7188,180.8281 Q191.9844,180.625 192.125,180.5625 Q192.2656,180.5 192.4375,180.5 Q192.7656,180.5 193,180.7656 Q193.25,181.0156 193.25,181.375 Q193.25,181.7188 192.9063,182.125 Q192.4063,182.7188 191.6094,183.0469 Q190.5625,183.5 189.2813,183.5 Q187.7813,183.5 186.5781,182.9063 Q185.6094,182.4375 184.9219,181.4219 Q184.25,180.4063 184.25,179.2031 L184.25,178.1094 Q184.25,176.8594 184.8438,175.7656 Q185.4531,174.6719 186.5,174.0938 Q187.5625,173.5 188.75,173.5 Q189.4688,173.5 190.0938,173.75 Q190.7188,174 191.25,174.5 Z " fill="#000000"/><text fill="#000000" font-family="sans-serif" font-size="12" lengthAdjust="spacing" textLength="114" x="203.75" y="182.9102">ImportShipController</text><line style="stroke:#A80036;stroke-width:1.5;" x1="173" x2="322" y1="194" y2="194"/><line style="stroke:#A80036;stroke-width:1.5;" x1="173" x2="322" y1="202" y2="202"/><rect fill="#F24D5C" height="6" style="stroke:#C82930;stroke-width:1.0;" width="6" x="180" y="210"/><text fill="#000000" font-family="sans-serif" font-size="11" lengthAdjust="spacing" textLength="125" x="192" y="217.4189">importFile(String fileName)</text><rect fill="#F24D5C" height="6" style="stroke:#C82930;stroke-width:1.0;" width="6" x="180" y="223.8359"/><text fill="#000000" font-family="sans-serif" font-size="11" lengthAdjust="spacing" textLength="64" x="192" y="231.2549">importShips()</text><!--MD5=[e9ec94dad9dff345b5dd5149ea3f379c]
class ImportShipUI--><rect codeLine="38" fill="#FEFECE" filter="url(#f1gwbm91wxodoi)" height="48" id="ImportShipUI" style="stroke:#A80036;stroke-width:1.5;" width="104" x="7" y="176"/><ellipse cx="22" cy="192" fill="#ADD1B2" rx="11" ry="11" style="stroke:#A80036;stroke-width:1.0;"/><path d="M24,188.5 Q24.2031,188 24.4375,187.75 Q24.6719,187.5 24.9375,187.5 Q25.4063,187.5 25.7031,187.7813 Q26,188.0625 26,188.7188 L26,190.2813 Q26,190.9375 25.7188,191.2188 Q25.4375,191.5 25,191.5 Q24.6094,191.5 24.3594,191.3281 Q24.1094,191.1563 24,190.7031 Q23.9531,190.3906 23.7813,190.2188 Q23.4688,189.8906 22.9063,189.7031 Q22.3438,189.5 21.7813,189.5 Q21.0781,189.5 20.4844,189.7813 Q19.9063,190.0625 19.4531,190.6875 Q19,191.3125 19,192.1719 L19,193.0938 Q19,194.125 19.8438,194.8125 Q20.6875,195.5 22.1875,195.5 Q23.0781,195.5 23.7031,195.2969 Q24.0625,195.1875 24.4688,194.8281 Q24.7344,194.625 24.875,194.5625 Q25.0156,194.5 25.1875,194.5 Q25.5156,194.5 25.75,194.7656 Q26,195.0156 26,195.375 Q26,195.7188 25.6563,196.125 Q25.1563,196.7188 24.3594,197.0469 Q23.3125,197.5 22.0313,197.5 Q20.5313,197.5 19.3281,196.9063 Q18.3594,196.4375 17.6719,195.4219 Q17,194.4063 17,193.2031 L17,192.1094 Q17,190.8594 17.5938,189.7656 Q18.2031,188.6719 19.25,188.0938 Q20.3125,187.5 21.5,187.5 Q22.2188,187.5 22.8438,187.75 Q23.4688,188 24,188.5 Z " fill="#000000"/><text fill="#000000" font-family="sans-serif" font-size="12" lengthAdjust="spacing" textLength="72" x="36" y="196.9102">ImportShipUI</text><line style="stroke:#A80036;stroke-width:1.5;" x1="8" x2="110" y1="208" y2="208"/><line style="stroke:#A80036;stroke-width:1.5;" x1="8" x2="110" y1="216" y2="216"/><!--MD5=[efa7c3600894dd6faaa8b816738c33b1]
class ShipLocation--><rect codeLine="41" fill="#FEFECE" filter="url(#f1gwbm91wxodoi)" height="158.6875" id="ShipLocation" style="stroke:#A80036;stroke-width:1.5;" width="108" x="1517" y="41.5"/><ellipse cx="1533.8" cy="57.5" fill="#ADD1B2" rx="11" ry="11" style="stroke:#A80036;stroke-width:1.0;"/><path d="M1535.8,54 Q1536.0031,53.5 1536.2375,53.25 Q1536.4719,53 1536.7375,53 Q1537.2063,53 1537.5031,53.2813 Q1537.8,53.5625 1537.8,54.2188 L1537.8,55.7813 Q1537.8,56.4375 1537.5188,56.7188 Q1537.2375,57 1536.8,57 Q1536.4094,57 1536.1594,56.8281 Q1535.9094,56.6563 1535.8,56.2031 Q1535.7531,55.8906 1535.5813,55.7188 Q1535.2688,55.3906 1534.7063,55.2031 Q1534.1438,55 1533.5813,55 Q1532.8781,55 1532.2844,55.2813 Q1531.7063,55.5625 1531.2531,56.1875 Q1530.8,56.8125 1530.8,57.6719 L1530.8,58.5938 Q1530.8,59.625 1531.6438,60.3125 Q1532.4875,61 1533.9875,61 Q1534.8781,61 1535.5031,60.7969 Q1535.8625,60.6875 1536.2688,60.3281 Q1536.5344,60.125 1536.675,60.0625 Q1536.8156,60 1536.9875,60 Q1537.3156,60 1537.55,60.2656 Q1537.8,60.5156 1537.8,60.875 Q1537.8,61.2188 1537.4563,61.625 Q1536.9563,62.2188 1536.1594,62.5469 Q1535.1125,63 1533.8313,63 Q1532.3313,63 1531.1281,62.4063 Q1530.1594,61.9375 1529.4719,60.9219 Q1528.8,59.9063 1528.8,58.7031 L1528.8,57.6094 Q1528.8,56.3594 1529.3938,55.2656 Q1530.0031,54.1719 1531.05,53.5938 Q1532.1125,53 1533.3,53 Q1534.0188,53 1534.6438,53.25 Q1535.2688,53.5 1535.8,54 Z " fill="#000000"/><text fill="#000000" font-family="sans-serif" font-size="12" lengthAdjust="spacing" textLength="72" x="1548.2" y="62.4102">ShipLocation</text><line style="stroke:#A80036;stroke-width:1.5;" x1="1518" x2="1624" y1="73.5" y2="73.5"/><rect fill="none" height="6" style="stroke:#C82930;stroke-width:1.0;" width="6" x="1525" y="81.5"/><text fill="#000000" font-family="sans-serif" font-size="11" lengthAdjust="spacing" textLength="68" x="1537" y="88.9189">baseDateTime</text><rect fill="none" height="6" style="stroke:#C82930;stroke-width:1.0;" width="6" x="1525" y="95.3359"/><text fill="#000000" font-family="sans-serif" font-size="11" lengthAdjust="spacing" textLength="34" x="1537" y="102.7549">latitude</text><rect fill="none" height="6" style="stroke:#C82930;stroke-width:1.0;" width="6" x="1525" y="109.1719"/><text fill="#000000" font-family="sans-serif" font-size="11" lengthAdjust="spacing" textLength="43" x="1537" y="116.5908">longitude</text><rect fill="none" height="6" style="stroke:#C82930;stroke-width:1.0;" width="6" x="1525" y="123.0078"/><text fill="#000000" font-family="sans-serif" font-size="11" lengthAdjust="spacing" textLength="23" x="1537" y="130.4268">SOG</text><rect fill="none" height="6" style="stroke:#C82930;stroke-width:1.0;" width="6" x="1525" y="136.8438"/><text fill="#000000" font-family="sans-serif" font-size="11" lengthAdjust="spacing" textLength="23" x="1537" y="144.2627">COG</text><rect fill="none" height="6" style="stroke:#C82930;stroke-width:1.0;" width="6" x="1525" y="150.6797"/><text fill="#000000" font-family="sans-serif" font-size="11" lengthAdjust="spacing" textLength="38" x="1537" y="158.0986">heading</text><rect fill="none" height="6" style="stroke:#C82930;stroke-width:1.0;" width="6" x="1525" y="164.5156"/><text fill="#000000" font-family="sans-serif" font-size="11" lengthAdjust="spacing" textLength="37" x="1537" y="171.9346">position</text><rect fill="none" height="6" style="stroke:#C82930;stroke-width:1.0;" width="6" x="1525" y="178.3516"/><text fill="#000000" font-family="sans-serif" font-size="11" lengthAdjust="spacing" textLength="82" x="1537" y="185.7705">transceiverClass</text><line style="stroke:#A80036;stroke-width:1.5;" x1="1518" x2="1624" y1="192.1875" y2="192.1875"/><!--MD5=[44870eba88b8d6183fea351333848730]
class ShipLocationBST--><rect codeLine="52" fill="#FEFECE" filter="url(#f1gwbm91wxodoi)" height="61.8359" id="ShipLocationBST" style="stroke:#A80036;stroke-width:1.5;" width="127" x="1294" y="90"/><ellipse cx="1309" cy="106" fill="#ADD1B2" rx="11" ry="11" style="stroke:#A80036;stroke-width:1.0;"/><path d="M1311,102.5 Q1311.2031,102 1311.4375,101.75 Q1311.6719,101.5 1311.9375,101.5 Q1312.4063,101.5 1312.7031,101.7813 Q1313,102.0625 1313,102.7188 L1313,104.2813 Q1313,104.9375 1312.7188,105.2188 Q1312.4375,105.5 1312,105.5 Q1311.6094,105.5 1311.3594,105.3281 Q1311.1094,105.1563 1311,104.7031 Q1310.9531,104.3906 1310.7813,104.2188 Q1310.4688,103.8906 1309.9063,103.7031 Q1309.3438,103.5 1308.7813,103.5 Q1308.0781,103.5 1307.4844,103.7813 Q1306.9063,104.0625 1306.4531,104.6875 Q1306,105.3125 1306,106.1719 L1306,107.0938 Q1306,108.125 1306.8438,108.8125 Q1307.6875,109.5 1309.1875,109.5 Q1310.0781,109.5 1310.7031,109.2969 Q1311.0625,109.1875 1311.4688,108.8281 Q1311.7344,108.625 1311.875,108.5625 Q1312.0156,108.5 1312.1875,108.5 Q1312.5156,108.5 1312.75,108.7656 Q1313,109.0156 1313,109.375 Q1313,109.7188 1312.6563,110.125 Q1312.1563,110.7188 1311.3594,111.0469 Q1310.3125,111.5 1309.0313,111.5 Q1307.5313,111.5 1306.3281,110.9063 Q1305.3594,110.4375 1304.6719,109.4219 Q1304,108.4063 1304,107.2031 L1304,106.1094 Q1304,104.8594 1304.5938,103.7656 Q1305.2031,102.6719 1306.25,102.0938 Q1307.3125,101.5 1308.5,101.5 Q1309.2188,101.5 1309.8438,101.75 Q1310.4688,102 1311,102.5 Z " fill="#000000"/><text fill="#000000" font-family="sans-serif" font-size="12" lengthAdjust="spacing" textLength="95" x="1323" y="110.9102">ShipLocationBST</text><line style="stroke:#A80036;stroke-width:1.5;" x1="1295" x2="1420" y1="122" y2="122"/><line style="stroke:#A80036;stroke-width:1.5;" x1="1295" x2="1420" y1="130" y2="130"/><rect fill="#F24D5C" height="6" style="stroke:#C82930;stroke-width:1.0;" width="6" x="1302" y="138"/><text fill="#000000" font-family="sans-serif" font-size="11" lengthAdjust="spacing" textLength="96" x="1314" y="145.4189">insert(shipLocation)</text><!--MD5=[b5b6c86a063960d0027bc1719947b1c8]
class BstShip--><rect codeLine="56" fill="#FEFECE" filter="url(#f1gwbm91wxodoi)" height="75.6719" id="BstShip" style="stroke:#A80036;stroke-width:1.5;" width="157" x="787" y="83"/><ellipse cx="839.75" cy="99" fill="#ADD1B2" rx="11" ry="11" style="stroke:#A80036;stroke-width:1.0;"/><path d="M841.75,95.5 Q841.9531,95 842.1875,94.75 Q842.4219,94.5 842.6875,94.5 Q843.1563,94.5 843.4531,94.7813 Q843.75,95.0625 843.75,95.7188 L843.75,97.2813 Q843.75,97.9375 843.4688,98.2188 Q843.1875,98.5 842.75,98.5 Q842.3594,98.5 842.1094,98.3281 Q841.8594,98.1563 841.75,97.7031 Q841.7031,97.3906 841.5313,97.2188 Q841.2188,96.8906 840.6563,96.7031 Q840.0938,96.5 839.5313,96.5 Q838.8281,96.5 838.2344,96.7813 Q837.6563,97.0625 837.2031,97.6875 Q836.75,98.3125 836.75,99.1719 L836.75,100.0938 Q836.75,101.125 837.5938,101.8125 Q838.4375,102.5 839.9375,102.5 Q840.8281,102.5 841.4531,102.2969 Q841.8125,102.1875 842.2188,101.8281 Q842.4844,101.625 842.625,101.5625 Q842.7656,101.5 842.9375,101.5 Q843.2656,101.5 843.5,101.7656 Q843.75,102.0156 843.75,102.375 Q843.75,102.7188 843.4063,103.125 Q842.9063,103.7188 842.1094,104.0469 Q841.0625,104.5 839.7813,104.5 Q838.2813,104.5 837.0781,103.9063 Q836.1094,103.4375 835.4219,102.4219 Q834.75,101.4063 834.75,100.2031 L834.75,99.1094 Q834.75,97.8594 835.3438,96.7656 Q835.9531,95.6719 837,95.0938 Q838.0625,94.5 839.25,94.5 Q839.9688,94.5 840.5938,94.75 Q841.2188,95 841.75,95.5 Z " fill="#000000"/><text fill="#000000" font-family="sans-serif" font-size="12" lengthAdjust="spacing" textLength="43" x="860.25" y="103.9102">BstShip</text><line style="stroke:#A80036;stroke-width:1.5;" x1="788" x2="943" y1="115" y2="115"/><line style="stroke:#A80036;stroke-width:1.5;" x1="788" x2="943" y1="123" y2="123"/><rect fill="#F24D5C" height="6" style="stroke:#C82930;stroke-width:1.0;" width="6" x="795" y="131"/><text fill="#000000" font-family="sans-serif" font-size="11" lengthAdjust="spacing" textLength="131" x="807" y="138.4189">getShipByMmsiCode(MMSI)</text><rect fill="#F24D5C" height="6" style="stroke:#C82930;stroke-width:1.0;" width="6" x="795" y="144.8359"/><text fill="#000000" font-family="sans-serif" font-size="11" lengthAdjust="spacing" textLength="55" x="807" y="152.2549">insert(ship)</text><!--MD5=[cf9c7d7c3da40397ddde4f51b7097da6]
class VesselType--><rect codeLine="61" fill="#FEFECE" filter="url(#f1gwbm91wxodoi)" height="103.3438" id="VesselType" style="stroke:#A80036;stroke-width:1.5;" width="96" x="1309.5" y="211.5"/><ellipse cx="1324.5" cy="227.5" fill="#ADD1B2" rx="11" ry="11" style="stroke:#A80036;stroke-width:1.0;"/><path d="M1326.5,224 Q1326.7031,223.5 1326.9375,223.25 Q1327.1719,223 1327.4375,223 Q1327.9063,223 1328.2031,223.2813 Q1328.5,223.5625 1328.5,224.2188 L1328.5,225.7813 Q1328.5,226.4375 1328.2188,226.7188 Q1327.9375,227 1327.5,227 Q1327.1094,227 1326.8594,226.8281 Q1326.6094,226.6563 1326.5,226.2031 Q1326.4531,225.8906 1326.2813,225.7188 Q1325.9688,225.3906 1325.4063,225.2031 Q1324.8438,225 1324.2813,225 Q1323.5781,225 1322.9844,225.2813 Q1322.4063,225.5625 1321.9531,226.1875 Q1321.5,226.8125 1321.5,227.6719 L1321.5,228.5938 Q1321.5,229.625 1322.3438,230.3125 Q1323.1875,231 1324.6875,231 Q1325.5781,231 1326.2031,230.7969 Q1326.5625,230.6875 1326.9688,230.3281 Q1327.2344,230.125 1327.375,230.0625 Q1327.5156,230 1327.6875,230 Q1328.0156,230 1328.25,230.2656 Q1328.5,230.5156 1328.5,230.875 Q1328.5,231.2188 1328.1563,231.625 Q1327.6563,232.2188 1326.8594,232.5469 Q1325.8125,233 1324.5313,233 Q1323.0313,233 1321.8281,232.4063 Q1320.8594,231.9375 1320.1719,230.9219 Q1319.5,229.9063 1319.5,228.7031 L1319.5,227.6094 Q1319.5,226.3594 1320.0938,225.2656 Q1320.7031,224.1719 1321.75,223.5938 Q1322.8125,223 1324,223 Q1324.7188,223 1325.3438,223.25 Q1325.9688,223.5 1326.5,224 Z " fill="#000000"/><text fill="#000000" font-family="sans-serif" font-size="12" lengthAdjust="spacing" textLength="64" x="1338.5" y="232.4102">VesselType</text><line style="stroke:#A80036;stroke-width:1.5;" x1="1310.5" x2="1404.5" y1="243.5" y2="243.5"/><rect fill="none" height="6" style="stroke:#C82930;stroke-width:1.0;" width="6" x="1317.5" y="251.5"/><text fill="#000000" font-family="sans-serif" font-size="11" lengthAdjust="spacing" textLength="64" x="1329.5" y="258.9189">vesselTypeId</text><rect fill="none" height="6" style="stroke:#C82930;stroke-width:1.0;" width="6" x="1317.5" y="265.3359"/><text fill="#000000" font-family="sans-serif" font-size="11" lengthAdjust="spacing" textLength="29" x="1329.5" y="272.7549">length</text><rect fill="none" height="6" style="stroke:#C82930;stroke-width:1.0;" width="6" x="1317.5" y="279.1719"/><text fill="#000000" font-family="sans-serif" font-size="11" lengthAdjust="spacing" textLength="27" x="1329.5" y="286.5908">width</text><rect fill="none" height="6" style="stroke:#C82930;stroke-width:1.0;" width="6" x="1317.5" y="293.0078"/><text fill="#000000" font-family="sans-serif" font-size="11" lengthAdjust="spacing" textLength="41" x="1329.5" y="300.4268">capacity</text><line style="stroke:#A80036;stroke-width:1.5;" x1="1310.5" x2="1404.5" y1="306.8438" y2="306.8438"/><!--MD5=[53ce2e8bf530494d610a04b4b10cd9d1]
link ImportShipUI to ImportShipController--><path codeLine="68" d="M111.46,200 C128.51,200 147.91,200 166.58,200 " fill="none" id="ImportShipUI-to-ImportShipController" style="stroke:#A80036;stroke-width:1.0;stroke-dasharray:7.0,7.0;"/><polygon fill="#A80036" points="171.82,200,162.82,196,166.82,200,162.82,204,171.82,200" style="stroke:#A80036;stroke-width:1.0;"/><!--MD5=[87c145bcf280b307bfe7711f70b00160]
link ImportShipController to Company--><path codeLine="70" d="M323.07,200 C341.67,200 361.26,200 378.63,200 " fill="none" id="ImportShipController-to-Company" style="stroke:#A80036;stroke-width:1.0;stroke-dasharray:7.0,7.0;"/><polygon fill="#A80036" points="383.95,200,374.95,196,378.95,200,374.95,204,383.95,200" style="stroke:#A80036;stroke-width:1.0;"/><!--MD5=[4b6f3fd2ee3d7707b5278205c405f62c]
link ImportShip to BstShip--><path codeLine="72" d="M684.18,100.48 C713.9,103.86 752.71,108.28 786.71,112.15 " fill="none" id="ImportShip-BstShip" style="stroke:#A80036;stroke-width:1.0;"/><polygon fill="#000000" points="723.9679,96.7412,715.3132,92.7982,714.6485,98.6384,723.9679,96.7412" style="stroke:#000000;stroke-width:1.0;"/><text fill="#000000" font-family="sans-serif" font-size="13" lengthAdjust="spacing" textLength="28" x="728" y="101.4951">uses</text><text fill="#000000" font-family="sans-serif" font-size="13" lengthAdjust="spacing" textLength="7" x="691.9174" y="115.9556">1</text><text fill="#000000" font-family="sans-serif" font-size="13" lengthAdjust="spacing" textLength="7" x="772.1239" y="125.5981">1</text><!--MD5=[14fdb76946ac0c0eabf5d41702e30a18]
link Company to BstShip--><path codeLine="74" d="M483.29,200.12 C533.94,199.4 615.25,195.86 684,182 C718.37,175.07 755.22,163.42 786.61,152.15 " fill="none" id="Company-BstShip" style="stroke:#A80036;stroke-width:1.0;"/><polygon fill="#000000" points="622.4386,172.3947,613.0455,170.9048,613.9637,176.7105,622.4386,172.3947" style="stroke:#000000;stroke-width:1.0;"/><text fill="#000000" font-family="sans-serif" font-size="13" lengthAdjust="spacing" textLength="30" x="626.5" y="178.4951">owns</text><text fill="#000000" font-family="sans-serif" font-size="13" lengthAdjust="spacing" textLength="7" x="491.117" y="214.8697">1</text><text fill="#000000" font-family="sans-serif" font-size="13" lengthAdjust="spacing" textLength="7" x="772.0147" y="169.2856">1</text><!--MD5=[9d91f1df0c90718d85872c4ac6e523ca]
link Company to VesselType--><path codeLine="76" d="M483.13,235.03 C522.01,259.57 578.92,288 634,288 C634,288 634,288 1116.5,288 C1183.74,288 1261,278.17 1309.29,270.84 " fill="none" id="Company-VesselType" style="stroke:#A80036;stroke-width:1.0;"/><polygon fill="#000000" points="852.9953,279.3923,844.086,276.0644,843.8314,281.9368,852.9953,279.3923" style="stroke:#000000;stroke-width:1.0;"/><text fill="#000000" font-family="sans-serif" font-size="13" lengthAdjust="spacing" textLength="30" x="857" y="284.4951">owns</text><text fill="#000000" font-family="sans-serif" font-size="13" lengthAdjust="spacing" textLength="7" x="490.9335" y="254.9071">1</text><text fill="#000000" font-family="sans-serif" font-size="13" lengthAdjust="spacing" textLength="20" x="1281.468" y="286.4641">1..*</text><!--MD5=[4d4214124fc7542d980390b9fb881a9c]
link Company to ImportShip--><path codeLine="78" d="M483.05,174.45 C514.3,158 554.76,136.7 585.93,120.3 " fill="none" id="Company-ImportShip" style="stroke:#A80036;stroke-width:1.0;"/><polygon fill="#000000" points="522.4245,127.847,513.0516,129.4592,515.7893,134.6605,522.4245,127.847" style="stroke:#000000;stroke-width:1.0;"/><text fill="#000000" font-family="sans-serif" font-size="13" lengthAdjust="spacing" textLength="28" x="527" y="135.4951">uses</text><text fill="#000000" font-family="sans-serif" font-size="13" lengthAdjust="spacing" textLength="7" x="490.8417" y="185.4294">1</text><text fill="#000000" font-family="sans-serif" font-size="13" lengthAdjust="spacing" textLength="7" x="570.8802" y="138.8948">1</text><!--MD5=[42c269113f15bf3b39a3f95e82b93e8f]
link BstShip to Ship--><path codeLine="80" d="M944.29,121 C974.83,121 1009.73,121 1039.95,121 " fill="none" id="BstShip-Ship" style="stroke:#A80036;stroke-width:1.0;"/><polygon fill="#000000" points="984,112.1758,974.9549,109.2369,974.9549,115.1147,984,112.1758" style="stroke:#000000;stroke-width:1.0;"/><text fill="#000000" font-family="sans-serif" font-size="13" lengthAdjust="spacing" textLength="21" x="988" y="117.4951">has</text><text fill="#000000" font-family="sans-serif" font-size="13" lengthAdjust="spacing" textLength="7" x="951.8761" y="135.2639">1</text><text fill="#000000" font-family="sans-serif" font-size="13" lengthAdjust="spacing" textLength="20" x="1012.0634" y="135.2549">1..*</text><!--MD5=[da82a26002d83bc84a8d0ff7e6a1d871]
link Ship to ShipLocationBST--><path codeLine="82" d="M1191.12,121 C1224.01,121 1262.23,121 1293.64,121 " fill="none" id="Ship-ShipLocationBST" style="stroke:#A80036;stroke-width:1.0;"/><polygon fill="#000000" points="1231,112.1758,1221.9549,109.2369,1221.9549,115.1147,1231,112.1758" style="stroke:#000000;stroke-width:1.0;"/><text fill="#000000" font-family="sans-serif" font-size="13" lengthAdjust="spacing" textLength="28" x="1235" y="117.4951">uses</text><text fill="#000000" font-family="sans-serif" font-size="13" lengthAdjust="spacing" textLength="7" x="1198.9084" y="135.3065">1</text><text fill="#000000" font-family="sans-serif" font-size="13" lengthAdjust="spacing" textLength="7" x="1278.8515" y="135.4499">1</text><!--MD5=[c324832c0212842eac80843bc02aaded]
link Ship to VesselType--><path codeLine="84" d="M1191.12,165.15 C1229.79,188.03 1275.83,215.27 1309.5,235.19 " fill="none" id="Ship-VesselType" style="stroke:#A80036;stroke-width:1.0;"/><polygon fill="#000000" points="1233.8032,176.7218,1227.5151,169.5866,1224.5221,174.6454,1233.8032,176.7218" style="stroke:#000000;stroke-width:1.0;"/><text fill="#000000" font-family="sans-serif" font-size="13" lengthAdjust="spacing" textLength="21" x="1238.5" y="179.4951">has</text><text fill="#000000" font-family="sans-serif" font-size="13" lengthAdjust="spacing" textLength="7" x="1198.9084" y="183.8025">1</text><text fill="#000000" font-family="sans-serif" font-size="13" lengthAdjust="spacing" textLength="7" x="1294.6141" y="245.6523">1</text><!--MD5=[7d0be1610fef1464a18ff24c07f1ca9d]
link ShipLocationBST to ShipLocation--><path codeLine="86" d="M1421.1,121 C1451.55,121 1487.77,121 1516.85,121 " fill="none" id="ShipLocationBST-ShipLocation" style="stroke:#A80036;stroke-width:1.0;"/><polygon fill="#000000" points="1461,112.1758,1451.9549,109.2369,1451.9549,115.1147,1461,112.1758" style="stroke:#000000;stroke-width:1.0;"/><text fill="#000000" font-family="sans-serif" font-size="13" lengthAdjust="spacing" textLength="21" x="1465" y="117.4951">has</text><text fill="#000000" font-family="sans-serif" font-size="13" lengthAdjust="spacing" textLength="7" x="1428.8584" y="135.4499">1</text><text fill="#000000" font-family="sans-serif" font-size="13" lengthAdjust="spacing" textLength="20" x="1489.0317" y="135.5106">1..*</text><!--MD5=[94e216ba623f0583e58fa8e55a96c955]
@startuml
left to right direction


class Company{
-designation
-getBstShip()
-getImportShip()
}

class Ship {
-MMSI
-name
-shipID
-numberEnergyGenerators
-generatorPower
-callSign
-vesselType
-length
-width
-capacity
-draft
-setMMSI()
-getShipPosition()
}

class ImportShip{
-getFile()
-convertShips()
-getLineArray()
-createShip()
}

class ImportShipController{
-importFile(String fileName)
-importShips()
}

class ImportShipUI{
}

class ShipLocation{
-baseDateTime
-latitude
-longitude
-SOG
-COG
-heading
-position
-transceiverClass
}

class ShipLocationBST{
-insert(shipLocation)
}

class BstShip{
-getShipByMmsiCode(MMSI)
-insert(ship)
}

class VesselType {
-vesselTypeId
-length
-width
-capacity
}

ImportShipUI ..> ImportShipController

ImportShipController ..> Company

ImportShip "1" - - "1" BstShip : uses >

Company "1" - - "1" BstShip : owns >

Company "1" - - "1..*" VesselType : owns >

Company "1" - - "1" ImportShip : uses >

BstShip "1" - - "1..*" Ship : has >

Ship "1" - - "1" ShipLocationBST : uses >

Ship "1" - - "1" VesselType : has >

ShipLocationBST "1" - - "1..*" ShipLocation : has >



@enduml

PlantUML version 1.2021.11(Sat Oct 02 14:26:11 BST 2021)
(GPL source distribution)
Java Runtime: OpenJDK Runtime Environment
JVM: OpenJDK 64-Bit Server VM
Default Encoding: Cp1252
Language: pt
Country: PT
--></g></svg>