<?xml version="1.0" encoding="UTF-8" standalone="no"?><svg xmlns="http://www.w3.org/2000/svg" xmlns:xlink="http://www.w3.org/1999/xlink" contentScriptType="application/ecmascript" contentStyleType="text/css" height="831px" preserveAspectRatio="none" style="width:1741px;height:831px;background:#FFFFFF;" version="1.1" viewBox="0 0 1741 831" width="1741px" zoomAndPan="magnify"><defs><filter height="300%" id="f15b3xujav7nir" width="300%" x="-1" y="-1"><feGaussianBlur result="blurOut" stdDeviation="2.0"/><feColorMatrix in="blurOut" result="blurOut2" type="matrix" values="0 0 0 0 0 0 0 0 0 0 0 0 0 0 0 0 0 0 .4 0"/><feOffset dx="4.0" dy="4.0" in="blurOut2" result="blurOut3"/><feBlend in="SourceGraphic" in2="blurOut3" mode="normal"/></filter></defs><g><rect fill="#FFFFFF" filter="url(#f15b3xujav7nir)" height="636.9766" style="stroke:#A80036;stroke-width:1.0;" width="10" x="53" y="99.6094"/><rect fill="#FFFFFF" filter="url(#f15b3xujav7nir)" height="30.3516" style="stroke:#A80036;stroke-width:1.0;" width="10" x="448" y="121.9609"/><rect fill="#FFFFFF" filter="url(#f15b3xujav7nir)" height="553.9219" style="stroke:#A80036;stroke-width:1.0;" width="10" x="448" y="182.6641"/><rect fill="#FFFFFF" filter="url(#f15b3xujav7nir)" height="60.3516" style="stroke:#A80036;stroke-width:1.0;" width="10" x="603" y="213.0156"/><rect fill="#FFFFFF" filter="url(#f15b3xujav7nir)" height="423.8672" style="stroke:#A80036;stroke-width:1.0;" width="10" x="603" y="303.7188"/><rect fill="#FFFFFF" filter="url(#f15b3xujav7nir)" height="30" style="stroke:#A80036;stroke-width:1.0;" width="10" x="849" y="243.3672"/><rect fill="#FFFFFF" filter="url(#f15b3xujav7nir)" height="371.1641" style="stroke:#A80036;stroke-width:1.0;" width="10" x="849" y="334.0703"/><rect fill="#FFFFFF" filter="url(#f15b3xujav7nir)" height="28" style="stroke:#A80036;stroke-width:1.0;" width="10" x="854" y="397.7734"/><rect fill="#FFFFFF" filter="url(#f15b3xujav7nir)" height="219.1094" style="stroke:#A80036;stroke-width:1.0;" width="10" x="854" y="471.125"/><rect fill="#FFFFFF" filter="url(#f15b3xujav7nir)" height="30" style="stroke:#A80036;stroke-width:1.0;" width="10" x="1531" y="599.8828"/><rect fill="#FFFFFF" filter="url(#f15b3xujav7nir)" height="30" style="stroke:#A80036;stroke-width:1.0;" width="10" x="1647" y="660.2344"/><rect fill="#FFFFFF" filter="url(#f15b3xujav7nir)" height="349.1641" style="stroke:#000000;stroke-width:2.0;" width="927.5" x="799.5" y="349.0703"/><line style="stroke:#A80036;stroke-width:1.0;stroke-dasharray:5.0,5.0;" x1="58" x2="58" y1="89.6094" y2="745.5859"/><line style="stroke:#A80036;stroke-width:1.0;stroke-dasharray:5.0,5.0;" x1="452.5" x2="452.5" y1="89.6094" y2="745.5859"/><line style="stroke:#A80036;stroke-width:1.0;stroke-dasharray:5.0,5.0;" x1="607.5" x2="607.5" y1="89.6094" y2="745.5859"/><line style="stroke:#A80036;stroke-width:1.0;stroke-dasharray:5.0,5.0;" x1="853.5" x2="853.5" y1="89.6094" y2="745.5859"/><line style="stroke:#A80036;stroke-width:1.0;stroke-dasharray:5.0,5.0;" x1="1307" x2="1307" y1="517.4766" y2="745.5859"/><line style="stroke:#A80036;stroke-width:1.0;stroke-dasharray:5.0,5.0;" x1="1447" x2="1447" y1="564.1797" y2="745.5859"/><line style="stroke:#A80036;stroke-width:1.0;stroke-dasharray:5.0,5.0;" x1="1536" x2="1536" y1="89.6094" y2="745.5859"/><line style="stroke:#A80036;stroke-width:1.0;stroke-dasharray:5.0,5.0;" x1="1652" x2="1652" y1="89.6094" y2="745.5859"/><text fill="#000000" font-family="sans-serif" font-size="14" lengthAdjust="spacing" textLength="100" x="5" y="86.5332">Traffic Manager</text><ellipse cx="58" cy="15" fill="#FEFECE" filter="url(#f15b3xujav7nir)" rx="8" ry="8" style="stroke:#A80036;stroke-width:2.0;"/><path d="M58,23 L58,50 M45,31 L71,31 M58,50 L45,65 M58,50 L71,65 " fill="none" filter="url(#f15b3xujav7nir)" style="stroke:#A80036;stroke-width:2.0;"/><text fill="#000000" font-family="sans-serif" font-size="14" lengthAdjust="spacing" textLength="100" x="5" y="759.1191">Traffic Manager</text><ellipse cx="58" cy="772.1953" fill="#FEFECE" filter="url(#f15b3xujav7nir)" rx="8" ry="8" style="stroke:#A80036;stroke-width:2.0;"/><path d="M58,780.1953 L58,807.1953 M45,788.1953 L71,788.1953 M58,807.1953 L45,822.1953 M58,807.1953 L71,822.1953 " fill="none" filter="url(#f15b3xujav7nir)" style="stroke:#A80036;stroke-width:2.0;"/><rect fill="#FEFECE" filter="url(#f15b3xujav7nir)" height="31.6094" style="stroke:#A80036;stroke-width:1.5;" width="97" x="402.5" y="53"/><text fill="#000000" font-family="sans-serif" font-size="14" lengthAdjust="spacing" textLength="83" x="409.5" y="74.5332">:ImportShipUI</text><rect fill="#FEFECE" filter="url(#f15b3xujav7nir)" height="31.6094" style="stroke:#A80036;stroke-width:1.5;" width="97" x="402.5" y="744.5859"/><text fill="#000000" font-family="sans-serif" font-size="14" lengthAdjust="spacing" textLength="83" x="409.5" y="766.1191">:ImportShipUI</text><rect fill="#FEFECE" filter="url(#f15b3xujav7nir)" height="31.6094" style="stroke:#A80036;stroke-width:1.5;" width="147" x="532.5" y="53"/><text fill="#000000" font-family="sans-serif" font-size="14" lengthAdjust="spacing" textLength="133" x="539.5" y="74.5332">:ImportShipController</text><rect fill="#FEFECE" filter="url(#f15b3xujav7nir)" height="31.6094" style="stroke:#A80036;stroke-width:1.5;" width="147" x="532.5" y="744.5859"/><text fill="#000000" font-family="sans-serif" font-size="14" lengthAdjust="spacing" textLength="133" x="539.5" y="766.1191">:ImportShipController</text><rect fill="#FEFECE" filter="url(#f15b3xujav7nir)" height="31.6094" style="stroke:#A80036;stroke-width:1.5;" width="85" x="809.5" y="53"/><text fill="#000000" font-family="sans-serif" font-size="14" lengthAdjust="spacing" textLength="71" x="816.5" y="74.5332">:ImportShip</text><rect fill="#FEFECE" filter="url(#f15b3xujav7nir)" height="31.6094" style="stroke:#A80036;stroke-width:1.5;" width="85" x="809.5" y="744.5859"/><text fill="#000000" font-family="sans-serif" font-size="14" lengthAdjust="spacing" textLength="71" x="816.5" y="766.1191">:ImportShip</text><rect fill="#FEFECE" filter="url(#f15b3xujav7nir)" height="31.6094" style="stroke:#A80036;stroke-width:1.5;" width="180" x="1215" y="744.5859"/><text fill="#000000" font-family="sans-serif" font-size="14" lengthAdjust="spacing" textLength="166" x="1222" y="766.1191">shipLocation:ShipLocation</text><rect fill="#FEFECE" filter="url(#f15b3xujav7nir)" height="31.6094" style="stroke:#A80036;stroke-width:1.5;" width="72" x="1409" y="744.5859"/><text fill="#000000" font-family="sans-serif" font-size="14" lengthAdjust="spacing" textLength="58" x="1416" y="766.1191">ship:Ship</text><rect fill="#FEFECE" filter="url(#f15b3xujav7nir)" height="31.6094" style="stroke:#A80036;stroke-width:1.5;" width="78" x="1495" y="53"/><text fill="#000000" font-family="sans-serif" font-size="14" lengthAdjust="spacing" textLength="64" x="1502" y="74.5332">:Company</text><rect fill="#FEFECE" filter="url(#f15b3xujav7nir)" height="31.6094" style="stroke:#A80036;stroke-width:1.5;" width="78" x="1495" y="744.5859"/><text fill="#000000" font-family="sans-serif" font-size="14" lengthAdjust="spacing" textLength="64" x="1502" y="766.1191">:Company</text><rect fill="#FEFECE" filter="url(#f15b3xujav7nir)" height="31.6094" style="stroke:#A80036;stroke-width:1.5;" width="126" x="1587" y="53"/><text fill="#000000" font-family="sans-serif" font-size="14" lengthAdjust="spacing" textLength="112" x="1594" y="74.5332">shipBST:ShipBST</text><rect fill="#FEFECE" filter="url(#f15b3xujav7nir)" height="31.6094" style="stroke:#A80036;stroke-width:1.5;" width="126" x="1587" y="744.5859"/><text fill="#000000" font-family="sans-serif" font-size="14" lengthAdjust="spacing" textLength="112" x="1594" y="766.1191">shipBST:ShipBST</text><rect fill="#FFFFFF" filter="url(#f15b3xujav7nir)" height="636.9766" style="stroke:#A80036;stroke-width:1.0;" width="10" x="53" y="99.6094"/><rect fill="#FFFFFF" filter="url(#f15b3xujav7nir)" height="30.3516" style="stroke:#A80036;stroke-width:1.0;" width="10" x="448" y="121.9609"/><rect fill="#FFFFFF" filter="url(#f15b3xujav7nir)" height="553.9219" style="stroke:#A80036;stroke-width:1.0;" width="10" x="448" y="182.6641"/><rect fill="#FFFFFF" filter="url(#f15b3xujav7nir)" height="60.3516" style="stroke:#A80036;stroke-width:1.0;" width="10" x="603" y="213.0156"/><rect fill="#FFFFFF" filter="url(#f15b3xujav7nir)" height="423.8672" style="stroke:#A80036;stroke-width:1.0;" width="10" x="603" y="303.7188"/><rect fill="#FFFFFF" filter="url(#f15b3xujav7nir)" height="30" style="stroke:#A80036;stroke-width:1.0;" width="10" x="849" y="243.3672"/><rect fill="#FFFFFF" filter="url(#f15b3xujav7nir)" height="371.1641" style="stroke:#A80036;stroke-width:1.0;" width="10" x="849" y="334.0703"/><rect fill="#FFFFFF" filter="url(#f15b3xujav7nir)" height="28" style="stroke:#A80036;stroke-width:1.0;" width="10" x="854" y="397.7734"/><rect fill="#FFFFFF" filter="url(#f15b3xujav7nir)" height="219.1094" style="stroke:#A80036;stroke-width:1.0;" width="10" x="854" y="471.125"/><rect fill="#FFFFFF" filter="url(#f15b3xujav7nir)" height="30" style="stroke:#A80036;stroke-width:1.0;" width="10" x="1531" y="599.8828"/><rect fill="#FFFFFF" filter="url(#f15b3xujav7nir)" height="30" style="stroke:#A80036;stroke-width:1.0;" width="10" x="1647" y="660.2344"/><polygon fill="#A80036" points="436,117.9609,446,121.9609,436,125.9609,440,121.9609" style="stroke:#A80036;stroke-width:1.0;"/><line style="stroke:#A80036;stroke-width:1.0;" x1="63" x2="442" y1="121.9609" y2="121.9609"/><text fill="#000000" font-family="sans-serif" font-size="13" font-weight="bold" lengthAdjust="spacing" textLength="7" x="70" y="117.1045">1</text><text fill="#000000" font-family="sans-serif" font-size="13" lengthAdjust="spacing" textLength="222" x="81" y="117.1045">import ships from a text file into a BST</text><polygon fill="#A80036" points="74,148.3125,64,152.3125,74,156.3125,70,152.3125" style="stroke:#A80036;stroke-width:1.0;"/><line style="stroke:#A80036;stroke-width:1.0;stroke-dasharray:2.0,2.0;" x1="68" x2="452" y1="152.3125" y2="152.3125"/><text fill="#000000" font-family="sans-serif" font-size="13" font-weight="bold" lengthAdjust="spacing" textLength="7" x="80" y="147.4561">2</text><text fill="#000000" font-family="sans-serif" font-size="13" lengthAdjust="spacing" textLength="305" x="91" y="147.4561">requests the name of the .csv file containing the data</text><polygon fill="#A80036" points="436,178.6641,446,182.6641,436,186.6641,440,182.6641" style="stroke:#A80036;stroke-width:1.0;"/><line style="stroke:#A80036;stroke-width:1.0;" x1="63" x2="442" y1="182.6641" y2="182.6641"/><text fill="#000000" font-family="sans-serif" font-size="13" font-weight="bold" lengthAdjust="spacing" textLength="7" x="70" y="177.8076">3</text><text fill="#000000" font-family="sans-serif" font-size="13" lengthAdjust="spacing" textLength="95" x="81" y="177.8076">inserts file name</text><polygon fill="#A80036" points="591,209.0156,601,213.0156,591,217.0156,595,213.0156" style="stroke:#A80036;stroke-width:1.0;"/><line style="stroke:#A80036;stroke-width:1.0;" x1="458" x2="597" y1="213.0156" y2="213.0156"/><text fill="#000000" font-family="sans-serif" font-size="13" font-weight="bold" lengthAdjust="spacing" textLength="7" x="465" y="208.1592">4</text><text fill="#000000" font-family="sans-serif" font-size="13" lengthAdjust="spacing" textLength="115" x="476" y="208.1592">importFile(fileName)</text><polygon fill="#A80036" points="837,239.3672,847,243.3672,837,247.3672,841,243.3672" style="stroke:#A80036;stroke-width:1.0;"/><line style="stroke:#A80036;stroke-width:1.0;" x1="613" x2="843" y1="243.3672" y2="243.3672"/><text fill="#000000" font-family="sans-serif" font-size="13" font-weight="bold" lengthAdjust="spacing" textLength="7" x="620" y="238.5107">5</text><text fill="#000000" font-family="sans-serif" font-size="13" lengthAdjust="spacing" textLength="97" x="631" y="238.5107">getFile(fileName)</text><polygon fill="#A80036" points="591,299.7188,601,303.7188,591,307.7188,595,303.7188" style="stroke:#A80036;stroke-width:1.0;"/><line style="stroke:#A80036;stroke-width:1.0;" x1="458" x2="597" y1="303.7188" y2="303.7188"/><text fill="#000000" font-family="sans-serif" font-size="13" font-weight="bold" lengthAdjust="spacing" textLength="7" x="465" y="298.8623">6</text><text fill="#000000" font-family="sans-serif" font-size="13" lengthAdjust="spacing" textLength="77" x="476" y="298.8623">importShips()</text><polygon fill="#A80036" points="837,330.0703,847,334.0703,837,338.0703,841,334.0703" style="stroke:#A80036;stroke-width:1.0;"/><line style="stroke:#A80036;stroke-width:1.0;" x1="613" x2="843" y1="334.0703" y2="334.0703"/><text fill="#000000" font-family="sans-serif" font-size="13" font-weight="bold" lengthAdjust="spacing" textLength="7" x="620" y="329.2139">7</text><text fill="#000000" font-family="sans-serif" font-size="13" lengthAdjust="spacing" textLength="206" x="631" y="329.2139">shipsNotConverted = convertShips()</text><path d="M799.5,349.0703 L872.5,349.0703 L872.5,357.0703 L862.5,367.0703 L799.5,367.0703 L799.5,349.0703 " fill="#EEEEEE" style="stroke:#000000;stroke-width:1.0;"/><rect fill="none" height="349.1641" style="stroke:#000000;stroke-width:2.0;" width="927.5" x="799.5" y="349.0703"/><text fill="#000000" font-family="sans-serif" font-size="13" font-weight="bold" lengthAdjust="spacing" textLength="28" x="814.5" y="363.5654">loop</text><text fill="#000000" font-family="sans-serif" font-size="11" font-weight="bold" lengthAdjust="spacing" textLength="134" x="887.5" y="362.4893">[for each line on the file]</text><line style="stroke:#A80036;stroke-width:1.0;" x1="864" x2="906" y1="389.7734" y2="389.7734"/><line style="stroke:#A80036;stroke-width:1.0;" x1="906" x2="906" y1="389.7734" y2="402.7734"/><line style="stroke:#A80036;stroke-width:1.0;" x1="865" x2="906" y1="402.7734" y2="402.7734"/><polygon fill="#A80036" points="875,398.7734,865,402.7734,875,406.7734,871,402.7734" style="stroke:#A80036;stroke-width:1.0;"/><text fill="#000000" font-family="sans-serif" font-size="13" font-weight="bold" lengthAdjust="spacing" textLength="7" x="871" y="384.917">8</text><text fill="#000000" font-family="sans-serif" font-size="13" lengthAdjust="spacing" textLength="200" x="882" y="384.917">shipArray = getLineArray(shipLine)</text><line style="stroke:#A80036;stroke-width:1.0;" x1="859" x2="906" y1="458.125" y2="458.125"/><line style="stroke:#A80036;stroke-width:1.0;" x1="906" x2="906" y1="458.125" y2="471.125"/><line style="stroke:#A80036;stroke-width:1.0;" x1="865" x2="906" y1="471.125" y2="471.125"/><polygon fill="#A80036" points="875,467.125,865,471.125,875,475.125,871,471.125" style="stroke:#A80036;stroke-width:1.0;"/><text fill="#000000" font-family="sans-serif" font-size="13" font-weight="bold" lengthAdjust="spacing" textLength="7" x="871" y="453.2686">9</text><text fill="#000000" font-family="sans-serif" font-size="13" lengthAdjust="spacing" textLength="249" x="882" y="453.2686">shipsNotConverted = createShip(shipArray)</text><polygon fill="#A80036" points="1203,518.8281,1213,522.8281,1203,526.8281,1207,522.8281" style="stroke:#A80036;stroke-width:1.0;"/><line style="stroke:#A80036;stroke-width:1.0;stroke-dasharray:2.0,2.0;" x1="864" x2="1209" y1="522.8281" y2="522.8281"/><text fill="#000000" font-family="sans-serif" font-size="13" font-weight="bold" lengthAdjust="spacing" textLength="14" x="871" y="509.7959">10</text><text fill="#000000" font-family="sans-serif" font-size="13" lengthAdjust="spacing" textLength="309" x="889" y="501.6201">create(messageTime, latitude, longitude, SOG, COG,</text><text fill="#000000" font-family="sans-serif" font-size="13" lengthAdjust="spacing" textLength="205" x="893" y="517.9717">heading, position, transceiverClass)</text><rect fill="#FEFECE" filter="url(#f15b3xujav7nir)" height="31.6094" style="stroke:#A80036;stroke-width:1.5;" width="180" x="1215" y="484.2188"/><text fill="#000000" font-family="sans-serif" font-size="14" lengthAdjust="spacing" textLength="166" x="1222" y="505.752">shipLocation:ShipLocation</text><polygon fill="#A80036" points="1397,565.5313,1407,569.5313,1397,573.5313,1401,569.5313" style="stroke:#A80036;stroke-width:1.0;"/><line style="stroke:#A80036;stroke-width:1.0;stroke-dasharray:2.0,2.0;" x1="864" x2="1403" y1="569.5313" y2="569.5313"/><text fill="#000000" font-family="sans-serif" font-size="13" font-weight="bold" lengthAdjust="spacing" textLength="14" x="871" y="556.499">11</text><text fill="#000000" font-family="sans-serif" font-size="13" lengthAdjust="spacing" textLength="374" x="889" y="548.3232">create(MMSI, name, shipID, energyGenerators, generatorOutput,</text><text fill="#000000" font-family="sans-serif" font-size="13" lengthAdjust="spacing" textLength="374" x="893" y="564.6748">callSign, vesselType, length, width, capacity, draft, shipLocation)</text><rect fill="#FEFECE" filter="url(#f15b3xujav7nir)" height="31.6094" style="stroke:#A80036;stroke-width:1.5;" width="72" x="1409" y="530.9219"/><text fill="#000000" font-family="sans-serif" font-size="14" lengthAdjust="spacing" textLength="58" x="1416" y="552.4551">ship:Ship</text><polygon fill="#A80036" points="1519,595.8828,1529,599.8828,1519,603.8828,1523,599.8828" style="stroke:#A80036;stroke-width:1.0;"/><line style="stroke:#A80036;stroke-width:1.0;" x1="864" x2="1525" y1="599.8828" y2="599.8828"/><text fill="#000000" font-family="sans-serif" font-size="13" font-weight="bold" lengthAdjust="spacing" textLength="14" x="871" y="595.0264">12</text><text fill="#000000" font-family="sans-serif" font-size="13" lengthAdjust="spacing" textLength="142" x="889" y="595.0264">shipBST = getShipTree()</text><polygon fill="#A80036" points="1635,656.2344,1645,660.2344,1635,664.2344,1639,660.2344" style="stroke:#A80036;stroke-width:1.0;"/><line style="stroke:#A80036;stroke-width:1.0;" x1="864" x2="1641" y1="660.2344" y2="660.2344"/><text fill="#000000" font-family="sans-serif" font-size="13" font-weight="bold" lengthAdjust="spacing" textLength="14" x="871" y="655.3779">13</text><text fill="#000000" font-family="sans-serif" font-size="13" lengthAdjust="spacing" textLength="64" x="889" y="655.3779">insert(ship)</text><polygon fill="#A80036" points="74,723.5859,64,727.5859,74,731.5859,70,727.5859" style="stroke:#A80036;stroke-width:1.0;"/><line style="stroke:#A80036;stroke-width:1.0;" x1="68" x2="447" y1="727.5859" y2="727.5859"/><text fill="#000000" font-family="sans-serif" font-size="13" font-weight="bold" lengthAdjust="spacing" textLength="14" x="80" y="722.7295">14</text><text fill="#000000" font-family="sans-serif" font-size="13" lengthAdjust="spacing" textLength="343" x="98" y="722.7295">Displays the number of ships which have not been imported</text><!--MD5=[43b80e1faaac1ce1c8ca5487bcbbf90a]
@startuml

autonumber
actor "Traffic Manager" as manager

participant ":ImportShipUI" as ui
participant ":ImportShipController" as controller
participant ":ImportShip" as importShip
participant "shipLocation:ShipLocation" as shipLocation
participant "ship:Ship" as ship


activate manager
manager -> ui : import ships from a text file into a BST


activate ui
ui - -> manager : requests the name of the .csv file containing the data


deactivate ui


manager -> ui : inserts file name


activate ui


ui -> controller : importFile(fileName)
activate controller


controller -> importShip : getFile(fileName)
activate importShip


deactivate importShip
deactivate controller


ui -> controller : importShips()
activate controller


controller -> importShip : shipsNotConverted = convertShips()
activate importShip


loop for each line on the file


importShip -> importShip ++: shipArray = getLineArray(shipLine)
deactivate importShip


importShip -> importShip ++: shipsNotConverted = createShip(shipArray)


create shipLocation
importShip - -> shipLocation: create(messageTime, latitude, longitude, SOG, COG,\n heading, position, transceiverClass)


create ship
importShip - -> ship: create(MMSI, name, shipID, energyGenerators, generatorOutput,\n callSign, vesselType, length, width, capacity, draft, shipLocation)


participant ":Company" as company
participant "shipBST:ShipBST" as shipBST


importShip -> company : shipBST = getShipTree()
activate company
deactivate company


importShip -> shipBST : insert(ship)
activate shipBST
deactivate shipBST


deactivate importShip
end
deactivate importShip


ui -> manager : Displays the number of ships which have not been imported
deactivate controller

@enduml

PlantUML version 1.2021.11(Sat Oct 02 14:26:11 BST 2021)
(GPL source distribution)
Java Runtime: OpenJDK Runtime Environment
JVM: OpenJDK 64-Bit Server VM
Default Encoding: Cp1252
Language: pt
Country: PT
--></g></svg>