<?xml version="1.0" encoding="UTF-8" standalone="no"?><svg xmlns="http://www.w3.org/2000/svg" xmlns:xlink="http://www.w3.org/1999/xlink" contentScriptType="application/ecmascript" contentStyleType="text/css" height="209.6px" preserveAspectRatio="none" style="width:1311px;height:209px;background:#FFFFFF;" version="1.1" viewBox="0 0 1311 209" width="1311.2px" zoomAndPan="magnify"><defs><filter height="300%" id="f1s1yjvc2kszr4" width="300%" x="-1" y="-1"><feGaussianBlur result="blurOut" stdDeviation="1.6000000000000003"/><feColorMatrix in="blurOut" result="blurOut2" type="matrix" values="0 0 0 0 0 0 0 0 0 0 0 0 0 0 0 0 0 0 .4 0"/><feOffset dx="3.2000000000000006" dy="3.2000000000000006" in="blurOut2" result="blurOut3"/><feBlend in="SourceGraphic" in2="blurOut3" mode="normal"/></filter></defs><g><!--MD5=[02e4b9b7573f1156f41e60aa5b4e25a4]
class Company--><rect codeLine="4" fill="#FEFECE" filter="url(#f1s1yjvc2kszr4)" height="71.6063" id="Company" style="stroke:#A80036;stroke-width:1.2000000000000002;" width="79.2" x="307.2" y="71.6"/><ellipse cx="324.24" cy="84.4" fill="#ADD1B2" rx="8.8" ry="8.8" style="stroke:#A80036;stroke-width:0.8000000000000002;"/><path d="M325.84,81.6 Q326.0025,81.2 326.19,81 Q326.3775,80.8 326.59,80.8 Q326.965,80.8 327.2025,81.025 Q327.44,81.25 327.44,81.775 L327.44,83.025 Q327.44,83.55 327.215,83.775 Q326.99,84 326.64,84 Q326.3275,84 326.1275,83.8625 Q325.9275,83.725 325.84,83.3625 Q325.8025,83.1125 325.665,82.975 Q325.415,82.7125 324.965,82.5625 Q324.515,82.4 324.065,82.4 Q323.5025,82.4 323.0275,82.625 Q322.565,82.85 322.2025,83.35 Q321.84,83.85 321.84,84.5375 L321.84,85.275 Q321.84,86.1 322.515,86.65 Q323.19,87.2 324.39,87.2 Q325.1025,87.2 325.6025,87.0375 Q325.89,86.95 326.215,86.6625 Q326.4275,86.5 326.54,86.45 Q326.6525,86.4 326.79,86.4 Q327.0525,86.4 327.24,86.6125 Q327.44,86.8125 327.44,87.1 Q327.44,87.375 327.165,87.7 Q326.765,88.175 326.1275,88.4375 Q325.29,88.8 324.265,88.8 Q323.065,88.8 322.1025,88.325 Q321.3275,87.95 320.7775,87.1375 Q320.24,86.325 320.24,85.3625 L320.24,84.4875 Q320.24,83.4875 320.715,82.6125 Q321.2025,81.7375 322.04,81.275 Q322.89,80.8 323.84,80.8 Q324.415,80.8 324.915,81 Q325.415,81.2 325.84,81.6 Z " fill="#000000"/><text fill="#000000" font-family="sans-serif" font-size="9.6" lengthAdjust="spacing" textLength="42.4" x="336.56" y="88.3281">Company</text><line style="stroke:#A80036;stroke-width:1.2000000000000002;" x1="308" x2="385.6" y1="97.2" y2="97.2"/><rect fill="none" height="4.8" style="stroke:#C82930;stroke-width:0.8000000000000002;" width="4.8" x="313.6" y="103.6"/><text fill="#000000" font-family="sans-serif" font-size="8.8" lengthAdjust="spacing" textLength="44" x="323.2" y="109.5352">designation</text><line style="stroke:#A80036;stroke-width:1.2000000000000002;" x1="308" x2="385.6" y1="114.6688" y2="114.6688"/><rect fill="#F24D5C" height="4.8" style="stroke:#C82930;stroke-width:0.8000000000000002;" width="4.8" x="313.6" y="121.0688"/><text fill="#000000" font-family="sans-serif" font-size="8.8" lengthAdjust="spacing" textLength="48" x="323.2" y="127.0039">getBstShip()</text><rect fill="#F24D5C" height="4.8" style="stroke:#C82930;stroke-width:0.8000000000000002;" width="4.8" x="313.6" y="132.1375"/><text fill="#000000" font-family="sans-serif" font-size="8.8" lengthAdjust="spacing" textLength="58.4" x="323.2" y="138.0727">getImportShip()</text><!--MD5=[0dc7f2ddb409b58bcf52b12238c25399]
class Ship--><rect codeLine="10" fill="#FEFECE" filter="url(#f1s1yjvc2kszr4)" height="182.2938" id="Ship" style="stroke:#A80036;stroke-width:1.2000000000000002;" width="120.8" x="832" y="16.4"/><ellipse cx="879" cy="29.2" fill="#ADD1B2" rx="8.8" ry="8.8" style="stroke:#A80036;stroke-width:0.8000000000000002;"/><path d="M880.6,26.4 Q880.7625,26 880.95,25.8 Q881.1375,25.6 881.35,25.6 Q881.725,25.6 881.9625,25.825 Q882.2,26.05 882.2,26.575 L882.2,27.825 Q882.2,28.35 881.975,28.575 Q881.75,28.8 881.4,28.8 Q881.0875,28.8 880.8875,28.6625 Q880.6875,28.525 880.6,28.1625 Q880.5625,27.9125 880.425,27.775 Q880.175,27.5125 879.725,27.3625 Q879.275,27.2 878.825,27.2 Q878.2625,27.2 877.7875,27.425 Q877.325,27.65 876.9625,28.15 Q876.6,28.65 876.6,29.3375 L876.6,30.075 Q876.6,30.9 877.275,31.45 Q877.95,32 879.15,32 Q879.8625,32 880.3625,31.8375 Q880.65,31.75 880.975,31.4625 Q881.1875,31.3 881.3,31.25 Q881.4125,31.2 881.55,31.2 Q881.8125,31.2 882,31.4125 Q882.2,31.6125 882.2,31.9 Q882.2,32.175 881.925,32.5 Q881.525,32.975 880.8875,33.2375 Q880.05,33.6 879.025,33.6 Q877.825,33.6 876.8625,33.125 Q876.0875,32.75 875.5375,31.9375 Q875,31.125 875,30.1625 L875,29.2875 Q875,28.2875 875.475,27.4125 Q875.9625,26.5375 876.8,26.075 Q877.65,25.6 878.6,25.6 Q879.175,25.6 879.675,25.8 Q880.175,26 880.6,26.4 Z " fill="#000000"/><text fill="#000000" font-family="sans-serif" font-size="9.6" lengthAdjust="spacing" textLength="20" x="895.4" y="33.1281">Ship</text><line style="stroke:#A80036;stroke-width:1.2000000000000002;" x1="832.8" x2="952" y1="42" y2="42"/><rect fill="none" height="4.8" style="stroke:#C82930;stroke-width:0.8000000000000002;" width="4.8" x="838.4" y="48.4"/><text fill="#000000" font-family="sans-serif" font-size="8.8" lengthAdjust="spacing" textLength="20" x="848" y="54.3352">MMSI</text><rect fill="none" height="4.8" style="stroke:#C82930;stroke-width:0.8000000000000002;" width="4.8" x="838.4" y="59.4688"/><text fill="#000000" font-family="sans-serif" font-size="8.8" lengthAdjust="spacing" textLength="20.8" x="848" y="65.4039">name</text><rect fill="none" height="4.8" style="stroke:#C82930;stroke-width:0.8000000000000002;" width="4.8" x="838.4" y="70.5375"/><text fill="#000000" font-family="sans-serif" font-size="8.8" lengthAdjust="spacing" textLength="23.2" x="848" y="76.4727">shipID</text><rect fill="none" height="4.8" style="stroke:#C82930;stroke-width:0.8000000000000002;" width="4.8" x="838.4" y="81.6063"/><text fill="#000000" font-family="sans-serif" font-size="8.8" lengthAdjust="spacing" textLength="100" x="848" y="87.5414">numberEnergyGenerators</text><rect fill="none" height="4.8" style="stroke:#C82930;stroke-width:0.8000000000000002;" width="4.8" x="838.4" y="92.675"/><text fill="#000000" font-family="sans-serif" font-size="8.8" lengthAdjust="spacing" textLength="63.2" x="848" y="98.6102">generatorPower</text><rect fill="none" height="4.8" style="stroke:#C82930;stroke-width:0.8000000000000002;" width="4.8" x="838.4" y="103.7438"/><text fill="#000000" font-family="sans-serif" font-size="8.8" lengthAdjust="spacing" textLength="29.6" x="848" y="109.6789">callSign</text><rect fill="none" height="4.8" style="stroke:#C82930;stroke-width:0.8000000000000002;" width="4.8" x="838.4" y="114.8125"/><text fill="#000000" font-family="sans-serif" font-size="8.8" lengthAdjust="spacing" textLength="44.8" x="848" y="120.7477">vesselType</text><rect fill="none" height="4.8" style="stroke:#C82930;stroke-width:0.8000000000000002;" width="4.8" x="838.4" y="125.8813"/><text fill="#000000" font-family="sans-serif" font-size="8.8" lengthAdjust="spacing" textLength="23.2" x="848" y="131.8164">length</text><rect fill="none" height="4.8" style="stroke:#C82930;stroke-width:0.8000000000000002;" width="4.8" x="838.4" y="136.95"/><text fill="#000000" font-family="sans-serif" font-size="8.8" lengthAdjust="spacing" textLength="21.6" x="848" y="142.8852">width</text><rect fill="none" height="4.8" style="stroke:#C82930;stroke-width:0.8000000000000002;" width="4.8" x="838.4" y="148.0188"/><text fill="#000000" font-family="sans-serif" font-size="8.8" lengthAdjust="spacing" textLength="32.8" x="848" y="153.9539">capacity</text><rect fill="none" height="4.8" style="stroke:#C82930;stroke-width:0.8000000000000002;" width="4.8" x="838.4" y="159.0875"/><text fill="#000000" font-family="sans-serif" font-size="8.8" lengthAdjust="spacing" textLength="18.4" x="848" y="165.0227">draft</text><line style="stroke:#A80036;stroke-width:1.2000000000000002;" x1="832.8" x2="952" y1="170.1563" y2="170.1563"/><rect fill="#F24D5C" height="4.8" style="stroke:#C82930;stroke-width:0.8000000000000002;" width="4.8" x="838.4" y="176.5563"/><text fill="#000000" font-family="sans-serif" font-size="8.8" lengthAdjust="spacing" textLength="38.4" x="848" y="182.4914">setMMSI()</text><rect fill="#F24D5C" height="4.8" style="stroke:#C82930;stroke-width:0.8000000000000002;" width="4.8" x="838.4" y="187.625"/><text fill="#000000" font-family="sans-serif" font-size="8.8" lengthAdjust="spacing" textLength="64.8" x="848" y="193.5602">getShipPosition()</text><!--MD5=[9265310f4bc9be4cc0c3c11287946897]
class ImportShip--><rect codeLine="26" fill="#FEFECE" filter="url(#f1s1yjvc2kszr4)" height="82.675" id="ImportShip" style="stroke:#A80036;stroke-width:1.2000000000000002;" width="78.4" x="468.8" y="5.6"/><ellipse cx="482.96" cy="18.4" fill="#ADD1B2" rx="8.8" ry="8.8" style="stroke:#A80036;stroke-width:0.8000000000000002;"/><path d="M484.56,15.6 Q484.7225,15.2 484.91,15 Q485.0975,14.8 485.31,14.8 Q485.685,14.8 485.9225,15.025 Q486.16,15.25 486.16,15.775 L486.16,17.025 Q486.16,17.55 485.935,17.775 Q485.71,18 485.36,18 Q485.0475,18 484.8475,17.8625 Q484.6475,17.725 484.56,17.3625 Q484.5225,17.1125 484.385,16.975 Q484.135,16.7125 483.685,16.5625 Q483.235,16.4 482.785,16.4 Q482.2225,16.4 481.7475,16.625 Q481.285,16.85 480.9225,17.35 Q480.56,17.85 480.56,18.5375 L480.56,19.275 Q480.56,20.1 481.235,20.65 Q481.91,21.2 483.11,21.2 Q483.8225,21.2 484.3225,21.0375 Q484.61,20.95 484.935,20.6625 Q485.1475,20.5 485.26,20.45 Q485.3725,20.4 485.51,20.4 Q485.7725,20.4 485.96,20.6125 Q486.16,20.8125 486.16,21.1 Q486.16,21.375 485.885,21.7 Q485.485,22.175 484.8475,22.4375 Q484.01,22.8 482.985,22.8 Q481.785,22.8 480.8225,22.325 Q480.0475,21.95 479.4975,21.1375 Q478.96,20.325 478.96,19.3625 L478.96,18.4875 Q478.96,17.4875 479.435,16.6125 Q479.9225,15.7375 480.76,15.275 Q481.61,14.8 482.56,14.8 Q483.135,14.8 483.635,15 Q484.135,15.2 484.56,15.6 Z " fill="#000000"/><text fill="#000000" font-family="sans-serif" font-size="9.6" lengthAdjust="spacing" textLength="48" x="494.64" y="22.3281">ImportShip</text><line style="stroke:#A80036;stroke-width:1.2000000000000002;" x1="469.6" x2="546.4" y1="31.2" y2="31.2"/><line style="stroke:#A80036;stroke-width:1.2000000000000002;" x1="469.6" x2="546.4" y1="37.6" y2="37.6"/><rect fill="#F24D5C" height="4.8" style="stroke:#C82930;stroke-width:0.8000000000000002;" width="4.8" x="475.2" y="44"/><text fill="#000000" font-family="sans-serif" font-size="8.8" lengthAdjust="spacing" textLength="31.2" x="484.8" y="49.9352">getFile()</text><rect fill="#F24D5C" height="4.8" style="stroke:#C82930;stroke-width:0.8000000000000002;" width="4.8" x="475.2" y="55.0688"/><text fill="#000000" font-family="sans-serif" font-size="8.8" lengthAdjust="spacing" textLength="57.6" x="484.8" y="61.0039">convertShips()</text><rect fill="#F24D5C" height="4.8" style="stroke:#C82930;stroke-width:0.8000000000000002;" width="4.8" x="475.2" y="66.1375"/><text fill="#000000" font-family="sans-serif" font-size="8.8" lengthAdjust="spacing" textLength="56.8" x="484.8" y="72.0727">getLineArray()</text><rect fill="#F24D5C" height="4.8" style="stroke:#C82930;stroke-width:0.8000000000000002;" width="4.8" x="475.2" y="77.2063"/><text fill="#000000" font-family="sans-serif" font-size="8.8" lengthAdjust="spacing" textLength="48" x="484.8" y="83.1414">createShip()</text><!--MD5=[e4b1e7fd7cdb68395c6b7447b65253e8]
class ImportShipController--><rect codeLine="33" fill="#FEFECE" filter="url(#f1s1yjvc2kszr4)" height="60.5375" id="ImportShipController" style="stroke:#A80036;stroke-width:1.2000000000000002;" width="120.8" x="137.6" y="77.2"/><ellipse cx="151.4" cy="90" fill="#ADD1B2" rx="8.8" ry="8.8" style="stroke:#A80036;stroke-width:0.8000000000000002;"/><path d="M153,87.2 Q153.1625,86.8 153.35,86.6 Q153.5375,86.4 153.75,86.4 Q154.125,86.4 154.3625,86.625 Q154.6,86.85 154.6,87.375 L154.6,88.625 Q154.6,89.15 154.375,89.375 Q154.15,89.6 153.8,89.6 Q153.4875,89.6 153.2875,89.4625 Q153.0875,89.325 153,88.9625 Q152.9625,88.7125 152.825,88.575 Q152.575,88.3125 152.125,88.1625 Q151.675,88 151.225,88 Q150.6625,88 150.1875,88.225 Q149.725,88.45 149.3625,88.95 Q149,89.45 149,90.1375 L149,90.875 Q149,91.7 149.675,92.25 Q150.35,92.8 151.55,92.8 Q152.2625,92.8 152.7625,92.6375 Q153.05,92.55 153.375,92.2625 Q153.5875,92.1 153.7,92.05 Q153.8125,92 153.95,92 Q154.2125,92 154.4,92.2125 Q154.6,92.4125 154.6,92.7 Q154.6,92.975 154.325,93.3 Q153.925,93.775 153.2875,94.0375 Q152.45,94.4 151.425,94.4 Q150.225,94.4 149.2625,93.925 Q148.4875,93.55 147.9375,92.7375 Q147.4,91.925 147.4,90.9625 L147.4,90.0875 Q147.4,89.0875 147.875,88.2125 Q148.3625,87.3375 149.2,86.875 Q150.05,86.4 151,86.4 Q151.575,86.4 152.075,86.6 Q152.575,86.8 153,87.2 Z " fill="#000000"/><text fill="#000000" font-family="sans-serif" font-size="9.6" lengthAdjust="spacing" textLength="91.2" x="163" y="93.9281">ImportShipController</text><line style="stroke:#A80036;stroke-width:1.2000000000000002;" x1="138.4" x2="257.6" y1="102.8" y2="102.8"/><line style="stroke:#A80036;stroke-width:1.2000000000000002;" x1="138.4" x2="257.6" y1="109.2" y2="109.2"/><rect fill="#F24D5C" height="4.8" style="stroke:#C82930;stroke-width:0.8000000000000002;" width="4.8" x="144" y="115.6"/><text fill="#000000" font-family="sans-serif" font-size="8.8" lengthAdjust="spacing" textLength="100" x="153.6" y="121.5352">importFile(String fileName)</text><rect fill="#F24D5C" height="4.8" style="stroke:#C82930;stroke-width:0.8000000000000002;" width="4.8" x="144" y="126.6688"/><text fill="#000000" font-family="sans-serif" font-size="8.8" lengthAdjust="spacing" textLength="51.2" x="153.6" y="132.6039">importShips()</text><!--MD5=[e9ec94dad9dff345b5dd5149ea3f379c]
class ImportShipUI--><rect codeLine="38" fill="#FEFECE" filter="url(#f1s1yjvc2kszr4)" height="38.4" id="ImportShipUI" style="stroke:#A80036;stroke-width:1.2000000000000002;" width="83.2" x="5.6" y="88.4"/><ellipse cx="17.6" cy="101.2" fill="#ADD1B2" rx="8.8" ry="8.8" style="stroke:#A80036;stroke-width:0.8000000000000002;"/><path d="M19.2,98.4 Q19.3625,98 19.55,97.8 Q19.7375,97.6 19.95,97.6 Q20.325,97.6 20.5625,97.825 Q20.8,98.05 20.8,98.575 L20.8,99.825 Q20.8,100.35 20.575,100.575 Q20.35,100.8 20,100.8 Q19.6875,100.8 19.4875,100.6625 Q19.2875,100.525 19.2,100.1625 Q19.1625,99.9125 19.025,99.775 Q18.775,99.5125 18.325,99.3625 Q17.875,99.2 17.425,99.2 Q16.8625,99.2 16.3875,99.425 Q15.925,99.65 15.5625,100.15 Q15.2,100.65 15.2,101.3375 L15.2,102.075 Q15.2,102.9 15.875,103.45 Q16.55,104 17.75,104 Q18.4625,104 18.9625,103.8375 Q19.25,103.75 19.575,103.4625 Q19.7875,103.3 19.9,103.25 Q20.0125,103.2 20.15,103.2 Q20.4125,103.2 20.6,103.4125 Q20.8,103.6125 20.8,103.9 Q20.8,104.175 20.525,104.5 Q20.125,104.975 19.4875,105.2375 Q18.65,105.6 17.625,105.6 Q16.425,105.6 15.4625,105.125 Q14.6875,104.75 14.1375,103.9375 Q13.6,103.125 13.6,102.1625 L13.6,101.2875 Q13.6,100.2875 14.075,99.4125 Q14.5625,98.5375 15.4,98.075 Q16.25,97.6 17.2,97.6 Q17.775,97.6 18.275,97.8 Q18.775,98 19.2,98.4 Z " fill="#000000"/><text fill="#000000" font-family="sans-serif" font-size="9.6" lengthAdjust="spacing" textLength="57.6" x="28.8" y="105.1281">ImportShipUI</text><line style="stroke:#A80036;stroke-width:1.2000000000000002;" x1="6.4" x2="88" y1="114" y2="114"/><line style="stroke:#A80036;stroke-width:1.2000000000000002;" x1="6.4" x2="88" y1="120.4" y2="120.4"/><!--MD5=[efa7c3600894dd6faaa8b816738c33b1]
class ShipLocation--><rect codeLine="41" fill="#FEFECE" filter="url(#f1s1yjvc2kszr4)" height="126.95" id="ShipLocation" style="stroke:#A80036;stroke-width:1.2000000000000002;" width="86.4" x="1213.6" y="44"/><ellipse cx="1227.04" cy="56.8" fill="#ADD1B2" rx="8.8" ry="8.8" style="stroke:#A80036;stroke-width:0.8000000000000002;"/><path d="M1228.64,54 Q1228.8025,53.6 1228.99,53.4 Q1229.1775,53.2 1229.39,53.2 Q1229.765,53.2 1230.0025,53.425 Q1230.24,53.65 1230.24,54.175 L1230.24,55.425 Q1230.24,55.95 1230.015,56.175 Q1229.79,56.4 1229.44,56.4 Q1229.1275,56.4 1228.9275,56.2625 Q1228.7275,56.125 1228.64,55.7625 Q1228.6025,55.5125 1228.465,55.375 Q1228.215,55.1125 1227.765,54.9625 Q1227.315,54.8 1226.865,54.8 Q1226.3025,54.8 1225.8275,55.025 Q1225.365,55.25 1225.0025,55.75 Q1224.64,56.25 1224.64,56.9375 L1224.64,57.675 Q1224.64,58.5 1225.315,59.05 Q1225.99,59.6 1227.19,59.6 Q1227.9025,59.6 1228.4025,59.4375 Q1228.69,59.35 1229.015,59.0625 Q1229.2275,58.9 1229.34,58.85 Q1229.4525,58.8 1229.59,58.8 Q1229.8525,58.8 1230.04,59.0125 Q1230.24,59.2125 1230.24,59.5 Q1230.24,59.775 1229.965,60.1 Q1229.565,60.575 1228.9275,60.8375 Q1228.09,61.2 1227.065,61.2 Q1225.865,61.2 1224.9025,60.725 Q1224.1275,60.35 1223.5775,59.5375 Q1223.04,58.725 1223.04,57.7625 L1223.04,56.8875 Q1223.04,55.8875 1223.515,55.0125 Q1224.0025,54.1375 1224.84,53.675 Q1225.69,53.2 1226.64,53.2 Q1227.215,53.2 1227.715,53.4 Q1228.215,53.6 1228.64,54 Z " fill="#000000"/><text fill="#000000" font-family="sans-serif" font-size="9.6" lengthAdjust="spacing" textLength="57.6" x="1238.56" y="60.7281">ShipLocation</text><line style="stroke:#A80036;stroke-width:1.2000000000000002;" x1="1214.4" x2="1299.2" y1="69.6" y2="69.6"/><rect fill="none" height="4.8" style="stroke:#C82930;stroke-width:0.8000000000000002;" width="4.8" x="1220" y="76"/><text fill="#000000" font-family="sans-serif" font-size="8.8" lengthAdjust="spacing" textLength="54.4" x="1229.6" y="81.9352">baseDateTime</text><rect fill="none" height="4.8" style="stroke:#C82930;stroke-width:0.8000000000000002;" width="4.8" x="1220" y="87.0688"/><text fill="#000000" font-family="sans-serif" font-size="8.8" lengthAdjust="spacing" textLength="27.2" x="1229.6" y="93.0039">latitude</text><rect fill="none" height="4.8" style="stroke:#C82930;stroke-width:0.8000000000000002;" width="4.8" x="1220" y="98.1375"/><text fill="#000000" font-family="sans-serif" font-size="8.8" lengthAdjust="spacing" textLength="34.4" x="1229.6" y="104.0727">longitude</text><rect fill="none" height="4.8" style="stroke:#C82930;stroke-width:0.8000000000000002;" width="4.8" x="1220" y="109.2063"/><text fill="#000000" font-family="sans-serif" font-size="8.8" lengthAdjust="spacing" textLength="18.4" x="1229.6" y="115.1414">SOG</text><rect fill="none" height="4.8" style="stroke:#C82930;stroke-width:0.8000000000000002;" width="4.8" x="1220" y="120.275"/><text fill="#000000" font-family="sans-serif" font-size="8.8" lengthAdjust="spacing" textLength="18.4" x="1229.6" y="126.2102">COG</text><rect fill="none" height="4.8" style="stroke:#C82930;stroke-width:0.8000000000000002;" width="4.8" x="1220" y="131.3438"/><text fill="#000000" font-family="sans-serif" font-size="8.8" lengthAdjust="spacing" textLength="30.4" x="1229.6" y="137.2789">heading</text><rect fill="none" height="4.8" style="stroke:#C82930;stroke-width:0.8000000000000002;" width="4.8" x="1220" y="142.4125"/><text fill="#000000" font-family="sans-serif" font-size="8.8" lengthAdjust="spacing" textLength="29.6" x="1229.6" y="148.3477">position</text><rect fill="none" height="4.8" style="stroke:#C82930;stroke-width:0.8000000000000002;" width="4.8" x="1220" y="153.4813"/><text fill="#000000" font-family="sans-serif" font-size="8.8" lengthAdjust="spacing" textLength="65.6" x="1229.6" y="159.4164">transceiverClass</text><line style="stroke:#A80036;stroke-width:1.2000000000000002;" x1="1214.4" x2="1299.2" y1="164.55" y2="164.55"/><!--MD5=[44870eba88b8d6183fea351333848730]
class ShipLocationBST--><rect codeLine="52" fill="#FEFECE" filter="url(#f1s1yjvc2kszr4)" height="49.4688" id="ShipLocationBST" style="stroke:#A80036;stroke-width:1.2000000000000002;" width="101.6" x="1035.2" y="82.8"/><ellipse cx="1047.2" cy="95.6" fill="#ADD1B2" rx="8.8" ry="8.8" style="stroke:#A80036;stroke-width:0.8000000000000002;"/><path d="M1048.8,92.8 Q1048.9625,92.4 1049.15,92.2 Q1049.3375,92 1049.55,92 Q1049.925,92 1050.1625,92.225 Q1050.4,92.45 1050.4,92.975 L1050.4,94.225 Q1050.4,94.75 1050.175,94.975 Q1049.95,95.2 1049.6,95.2 Q1049.2875,95.2 1049.0875,95.0625 Q1048.8875,94.925 1048.8,94.5625 Q1048.7625,94.3125 1048.625,94.175 Q1048.375,93.9125 1047.925,93.7625 Q1047.475,93.6 1047.025,93.6 Q1046.4625,93.6 1045.9875,93.825 Q1045.525,94.05 1045.1625,94.55 Q1044.8,95.05 1044.8,95.7375 L1044.8,96.475 Q1044.8,97.3 1045.475,97.85 Q1046.15,98.4 1047.35,98.4 Q1048.0625,98.4 1048.5625,98.2375 Q1048.85,98.15 1049.175,97.8625 Q1049.3875,97.7 1049.5,97.65 Q1049.6125,97.6 1049.75,97.6 Q1050.0125,97.6 1050.2,97.8125 Q1050.4,98.0125 1050.4,98.3 Q1050.4,98.575 1050.125,98.9 Q1049.725,99.375 1049.0875,99.6375 Q1048.25,100 1047.225,100 Q1046.025,100 1045.0625,99.525 Q1044.2875,99.15 1043.7375,98.3375 Q1043.2,97.525 1043.2,96.5625 L1043.2,95.6875 Q1043.2,94.6875 1043.675,93.8125 Q1044.1625,92.9375 1045,92.475 Q1045.85,92 1046.8,92 Q1047.375,92 1047.875,92.2 Q1048.375,92.4 1048.8,92.8 Z " fill="#000000"/><text fill="#000000" font-family="sans-serif" font-size="9.6" lengthAdjust="spacing" textLength="76" x="1058.4" y="99.5281">ShipLocationBST</text><line style="stroke:#A80036;stroke-width:1.2000000000000002;" x1="1036" x2="1136" y1="108.4" y2="108.4"/><line style="stroke:#A80036;stroke-width:1.2000000000000002;" x1="1036" x2="1136" y1="114.8" y2="114.8"/><rect fill="#F24D5C" height="4.8" style="stroke:#C82930;stroke-width:0.8000000000000002;" width="4.8" x="1041.6" y="121.2"/><text fill="#000000" font-family="sans-serif" font-size="8.8" lengthAdjust="spacing" textLength="76.8" x="1051.2" y="127.1352">insert(shipLocation)</text><!--MD5=[b5b6c86a063960d0027bc1719947b1c8]
class BstShip--><rect codeLine="56" fill="#FEFECE" filter="url(#f1s1yjvc2kszr4)" height="60.5375" id="BstShip" style="stroke:#A80036;stroke-width:1.2000000000000002;" width="125.6" x="629.6" y="77.2"/><ellipse cx="671.8" cy="90" fill="#ADD1B2" rx="8.8" ry="8.8" style="stroke:#A80036;stroke-width:0.8000000000000002;"/><path d="M673.4,87.2 Q673.5625,86.8 673.75,86.6 Q673.9375,86.4 674.15,86.4 Q674.525,86.4 674.7625,86.625 Q675,86.85 675,87.375 L675,88.625 Q675,89.15 674.775,89.375 Q674.55,89.6 674.2,89.6 Q673.8875,89.6 673.6875,89.4625 Q673.4875,89.325 673.4,88.9625 Q673.3625,88.7125 673.225,88.575 Q672.975,88.3125 672.525,88.1625 Q672.075,88 671.625,88 Q671.0625,88 670.5875,88.225 Q670.125,88.45 669.7625,88.95 Q669.4,89.45 669.4,90.1375 L669.4,90.875 Q669.4,91.7 670.075,92.25 Q670.75,92.8 671.95,92.8 Q672.6625,92.8 673.1625,92.6375 Q673.45,92.55 673.775,92.2625 Q673.9875,92.1 674.1,92.05 Q674.2125,92 674.35,92 Q674.6125,92 674.8,92.2125 Q675,92.4125 675,92.7 Q675,92.975 674.725,93.3 Q674.325,93.775 673.6875,94.0375 Q672.85,94.4 671.825,94.4 Q670.625,94.4 669.6625,93.925 Q668.8875,93.55 668.3375,92.7375 Q667.8,91.925 667.8,90.9625 L667.8,90.0875 Q667.8,89.0875 668.275,88.2125 Q668.7625,87.3375 669.6,86.875 Q670.45,86.4 671.4,86.4 Q671.975,86.4 672.475,86.6 Q672.975,86.8 673.4,87.2 Z " fill="#000000"/><text fill="#000000" font-family="sans-serif" font-size="9.6" lengthAdjust="spacing" textLength="34.4" x="688.2" y="93.9281">BstShip</text><line style="stroke:#A80036;stroke-width:1.2000000000000002;" x1="630.4" x2="754.4" y1="102.8" y2="102.8"/><line style="stroke:#A80036;stroke-width:1.2000000000000002;" x1="630.4" x2="754.4" y1="109.2" y2="109.2"/><rect fill="#F24D5C" height="4.8" style="stroke:#C82930;stroke-width:0.8000000000000002;" width="4.8" x="636" y="115.6"/><text fill="#000000" font-family="sans-serif" font-size="8.8" lengthAdjust="spacing" textLength="104.8" x="645.6" y="121.5352">getShipByMmsiCode(MMSI)</text><rect fill="#F24D5C" height="4.8" style="stroke:#C82930;stroke-width:0.8000000000000002;" width="4.8" x="636" y="126.6688"/><text fill="#000000" font-family="sans-serif" font-size="8.8" lengthAdjust="spacing" textLength="44" x="645.6" y="132.6039">insert(ship)</text><!--MD5=[53ce2e8bf530494d610a04b4b10cd9d1]
link ImportShipUI to ImportShipController--><path codeLine="61" d="M89.168,107.6 C102.808,107.6 118.328,107.6 133.264,107.6 " fill="none" id="ImportShipUI-to-ImportShipController" style="stroke:#A80036;stroke-width:0.8000000000000002;stroke-dasharray:7.0,7.0;"/><polygon fill="#A80036" points="137.456,107.6,130.256,104.4,133.456,107.6,130.256,110.8,137.456,107.6" style="stroke:#A80036;stroke-width:0.8000000000000002;"/><!--MD5=[87c145bcf280b307bfe7711f70b00160]
link ImportShipController to Company--><path codeLine="63" d="M258.456,107.6 C273.336,107.6 289.008,107.6 302.904,107.6 " fill="none" id="ImportShipController-to-Company" style="stroke:#A80036;stroke-width:0.8000000000000002;stroke-dasharray:7.0,7.0;"/><polygon fill="#A80036" points="307.16,107.6,299.96,104.4,303.16,107.6,299.96,110.8,307.16,107.6" style="stroke:#A80036;stroke-width:0.8000000000000002;"/><!--MD5=[4b6f3fd2ee3d7707b5278205c405f62c]
link ImportShip to BstShip--><path codeLine="65" d="M547.344,59.616 C571.12,67.528 602.168,77.856 629.368,86.904 " fill="none" id="ImportShip-BstShip" style="stroke:#A80036;stroke-width:0.8000000000000002;"/><polygon fill="#000000" points="578.9955,61.8033,572.8716,57.2882,571.3872,61.75,578.9955,61.8033" style="stroke:#000000;stroke-width:0.8000000000000002;"/><text fill="#000000" font-family="sans-serif" font-size="10.4" lengthAdjust="spacing" textLength="22.4" x="582.4" y="64.7961">uses</text><text fill="#000000" font-family="sans-serif" font-size="10.4" lengthAdjust="spacing" textLength="5.6" x="553.5339" y="73.2349">1</text><text fill="#000000" font-family="sans-serif" font-size="10.4" lengthAdjust="spacing" textLength="5.6" x="617.6991" y="96.4072">1</text><!--MD5=[14fdb76946ac0c0eabf5d41702e30a18]
link Company to BstShip--><path codeLine="67" d="M386.584,111.152 C410.328,113.136 441.288,115.4 468.8,116.4 C523.056,118.368 584.736,115.536 629.416,112.576 " fill="none" id="Company-BstShip" style="stroke:#A80036;stroke-width:0.8000000000000002;"/><polygon fill="#000000" points="497.9999,109.3641,490.7778,106.9705,490.7502,111.6727,497.9999,109.3641" style="stroke:#000000;stroke-width:0.8000000000000002;"/><text fill="#000000" font-family="sans-serif" font-size="10.4" lengthAdjust="spacing" textLength="24" x="501.2" y="113.5961">owns</text><text fill="#000000" font-family="sans-serif" font-size="10.4" lengthAdjust="spacing" textLength="5.6" x="392.8385" y="123.4594">1</text><text fill="#000000" font-family="sans-serif" font-size="10.4" lengthAdjust="spacing" textLength="5.6" x="617.546" y="124.4823">1</text><!--MD5=[4d4214124fc7542d980390b9fb881a9c]
link Company to ImportShip--><path codeLine="69" d="M386.44,92.808 C411.44,83.28 443.808,70.952 468.744,61.448 " fill="none" id="Company-ImportShip" style="stroke:#A80036;stroke-width:0.8000000000000002;"/><polygon fill="#000000" points="418.1379,63.1164,410.5389,63.4958,412.2131,67.8899,418.1379,63.1164" style="stroke:#000000;stroke-width:0.8000000000000002;"/><text fill="#000000" font-family="sans-serif" font-size="10.4" lengthAdjust="spacing" textLength="22.4" x="421.6" y="68.7961">uses</text><text fill="#000000" font-family="sans-serif" font-size="10.4" lengthAdjust="spacing" textLength="5.6" x="392.6734" y="102.4211">1</text><text fill="#000000" font-family="sans-serif" font-size="10.4" lengthAdjust="spacing" textLength="5.6" x="456.7042" y="75.4675">1</text><!--MD5=[42c269113f15bf3b39a3f95e82b93e8f]
link BstShip to Ship--><path codeLine="71" d="M755.432,107.6 C779.864,107.6 807.784,107.6 831.96,107.6 " fill="none" id="BstShip-Ship" style="stroke:#A80036;stroke-width:0.8000000000000002;"/><polygon fill="#000000" points="787.2,100.5406,779.9639,98.1895,779.9639,102.8918,787.2,100.5406" style="stroke:#000000;stroke-width:0.8000000000000002;"/><text fill="#000000" font-family="sans-serif" font-size="10.4" lengthAdjust="spacing" textLength="16.8" x="790.4" y="104.7961">has</text><text fill="#000000" font-family="sans-serif" font-size="10.4" lengthAdjust="spacing" textLength="5.6" x="761.5009" y="119.0112">1</text><text fill="#000000" font-family="sans-serif" font-size="10.4" lengthAdjust="spacing" textLength="16" x="809.6507" y="119.004">1..*</text><!--MD5=[da82a26002d83bc84a8d0ff7e6a1d871]
link Ship to ShipLocationBST--><path codeLine="73" d="M952.896,107.6 C979.208,107.6 1009.784,107.6 1034.912,107.6 " fill="none" id="Ship-ShipLocationBST" style="stroke:#A80036;stroke-width:0.8000000000000002;"/><polygon fill="#000000" points="984.8,100.5406,977.5639,98.1895,977.5639,102.8918,984.8,100.5406" style="stroke:#000000;stroke-width:0.8000000000000002;"/><text fill="#000000" font-family="sans-serif" font-size="10.4" lengthAdjust="spacing" textLength="22.4" x="988" y="104.7961">uses</text><text fill="#000000" font-family="sans-serif" font-size="10.4" lengthAdjust="spacing" textLength="5.6" x="959.1267" y="119.0452">1</text><text fill="#000000" font-family="sans-serif" font-size="10.4" lengthAdjust="spacing" textLength="5.6" x="1023.0812" y="119.1599">1</text><!--MD5=[7d0be1610fef1464a18ff24c07f1ca9d]
link ShipLocationBST to ShipLocation--><path codeLine="75" d="M1136.88,107.6 C1161.24,107.6 1190.216,107.6 1213.48,107.6 " fill="none" id="ShipLocationBST-ShipLocation" style="stroke:#A80036;stroke-width:0.8000000000000002;"/><polygon fill="#000000" points="1168.8,100.5406,1161.5639,98.1895,1161.5639,102.8918,1168.8,100.5406" style="stroke:#000000;stroke-width:0.8000000000000002;"/><text fill="#000000" font-family="sans-serif" font-size="10.4" lengthAdjust="spacing" textLength="16.8" x="1172" y="104.7961">has</text><text fill="#000000" font-family="sans-serif" font-size="10.4" lengthAdjust="spacing" textLength="5.6" x="1143.0868" y="119.1599">1</text><text fill="#000000" font-family="sans-serif" font-size="10.4" lengthAdjust="spacing" textLength="16" x="1191.2254" y="119.2085">1..*</text><!--MD5=[dbbad8195351a35e089c07eb9151faf1]
@startuml
left to right direction


class Company{
-designation
-getBstShip()
-getImportShip()
}

class Ship {
-MMSI
-name
-shipID
-numberEnergyGenerators
-generatorPower
-callSign
-vesselType
-length
-width
-capacity
-draft
-setMMSI()
-getShipPosition()
}

class ImportShip{
-getFile()
-convertShips()
-getLineArray()
-createShip()
}

class ImportShipController{
-importFile(String fileName)
-importShips()
}

class ImportShipUI{
}

class ShipLocation{
-baseDateTime
-latitude
-longitude
-SOG
-COG
-heading
-position
-transceiverClass
}

class ShipLocationBST{
-insert(shipLocation)
}

class BstShip{
-getShipByMmsiCode(MMSI)
-insert(ship)
}

ImportShipUI ..> ImportShipController

ImportShipController ..> Company

ImportShip "1" - - "1" BstShip : uses >

Company "1" - - "1" BstShip : owns >

Company "1" - - "1" ImportShip : uses >

BstShip "1" - - "1..*" Ship : has >

Ship "1" - - "1" ShipLocationBST : uses >

ShipLocationBST "1" - - "1..*" ShipLocation : has >



@enduml

PlantUML version 1.2021.11(Sat Oct 02 14:26:11 BST 2021)
(GPL source distribution)
Java Runtime: OpenJDK Runtime Environment
JVM: OpenJDK 64-Bit Server VM
Default Encoding: Cp1252
Language: pt
Country: PT
--></g></svg>