<?xml version="1.0" encoding="UTF-8" standalone="no"?><svg xmlns="http://www.w3.org/2000/svg" xmlns:xlink="http://www.w3.org/1999/xlink" contentScriptType="application/ecmascript" contentStyleType="text/css" height="350px" preserveAspectRatio="none" style="width:573px;height:350px;background:#FFFFFF;" version="1.1" viewBox="0 0 573 350" width="573px" zoomAndPan="magnify"><defs><filter height="300%" id="f1hl7zcqd9lxck" width="300%" x="-1" y="-1"><feGaussianBlur result="blurOut" stdDeviation="2.0"/><feColorMatrix in="blurOut" result="blurOut2" type="matrix" values="0 0 0 0 0 0 0 0 0 0 0 0 0 0 0 0 0 0 .4 0"/><feOffset dx="4.0" dy="4.0" in="blurOut2" result="blurOut3"/><feBlend in="SourceGraphic" in2="blurOut3" mode="normal"/></filter></defs><g><!--MD5=[02e4b9b7573f1156f41e60aa5b4e25a4]
class Company--><rect codeLine="6" fill="#FEFECE" filter="url(#f1hl7zcqd9lxck)" height="53.8359" id="Company" style="stroke:#A80036;stroke-width:1.5;" width="85" x="7" y="134.5"/><ellipse cx="22" cy="150.5" fill="#ADD1B2" rx="11" ry="11" style="stroke:#A80036;stroke-width:1.0;"/><path d="M24,147 Q24.2031,146.5 24.4375,146.25 Q24.6719,146 24.9375,146 Q25.4063,146 25.7031,146.2813 Q26,146.5625 26,147.2188 L26,148.7813 Q26,149.4375 25.7188,149.7188 Q25.4375,150 25,150 Q24.6094,150 24.3594,149.8281 Q24.1094,149.6563 24,149.2031 Q23.9531,148.8906 23.7813,148.7188 Q23.4688,148.3906 22.9063,148.2031 Q22.3438,148 21.7813,148 Q21.0781,148 20.4844,148.2813 Q19.9063,148.5625 19.4531,149.1875 Q19,149.8125 19,150.6719 L19,151.5938 Q19,152.625 19.8438,153.3125 Q20.6875,154 22.1875,154 Q23.0781,154 23.7031,153.7969 Q24.0625,153.6875 24.4688,153.3281 Q24.7344,153.125 24.875,153.0625 Q25.0156,153 25.1875,153 Q25.5156,153 25.75,153.2656 Q26,153.5156 26,153.875 Q26,154.2188 25.6563,154.625 Q25.1563,155.2188 24.3594,155.5469 Q23.3125,156 22.0313,156 Q20.5313,156 19.3281,155.4063 Q18.3594,154.9375 17.6719,153.9219 Q17,152.9063 17,151.7031 L17,150.6094 Q17,149.3594 17.5938,148.2656 Q18.2031,147.1719 19.25,146.5938 Q20.3125,146 21.5,146 Q22.2188,146 22.8438,146.25 Q23.4688,146.5 24,147 Z " fill="#000000"/><text fill="#000000" font-family="sans-serif" font-size="12" lengthAdjust="spacing" textLength="53" x="36" y="155.4102">Company</text><line style="stroke:#A80036;stroke-width:1.5;" x1="8" x2="91" y1="166.5" y2="166.5"/><text fill="#000000" font-family="sans-serif" font-size="11" lengthAdjust="spacing" textLength="59" x="13" y="181.9189">-designation</text><!--MD5=[ddaf6f62b0bc30921877ec9fb9463c9f]
class TrafficManager--><rect codeLine="10" fill="#FEFECE" filter="url(#f1hl7zcqd9lxck)" height="53.8359" id="TrafficManager" style="stroke:#A80036;stroke-width:1.5;" width="113" x="207" y="55.5"/><ellipse cx="222" cy="71.5" fill="#ADD1B2" rx="11" ry="11" style="stroke:#A80036;stroke-width:1.0;"/><path d="M224,68 Q224.2031,67.5 224.4375,67.25 Q224.6719,67 224.9375,67 Q225.4063,67 225.7031,67.2813 Q226,67.5625 226,68.2188 L226,69.7813 Q226,70.4375 225.7188,70.7188 Q225.4375,71 225,71 Q224.6094,71 224.3594,70.8281 Q224.1094,70.6563 224,70.2031 Q223.9531,69.8906 223.7813,69.7188 Q223.4688,69.3906 222.9063,69.2031 Q222.3438,69 221.7813,69 Q221.0781,69 220.4844,69.2813 Q219.9063,69.5625 219.4531,70.1875 Q219,70.8125 219,71.6719 L219,72.5938 Q219,73.625 219.8438,74.3125 Q220.6875,75 222.1875,75 Q223.0781,75 223.7031,74.7969 Q224.0625,74.6875 224.4688,74.3281 Q224.7344,74.125 224.875,74.0625 Q225.0156,74 225.1875,74 Q225.5156,74 225.75,74.2656 Q226,74.5156 226,74.875 Q226,75.2188 225.6563,75.625 Q225.1563,76.2188 224.3594,76.5469 Q223.3125,77 222.0313,77 Q220.5313,77 219.3281,76.4063 Q218.3594,75.9375 217.6719,74.9219 Q217,73.9063 217,72.7031 L217,71.6094 Q217,70.3594 217.5938,69.2656 Q218.2031,68.1719 219.25,67.5938 Q220.3125,67 221.5,67 Q222.2188,67 222.8438,67.25 Q223.4688,67.5 224,68 Z " fill="#000000"/><text fill="#000000" font-family="sans-serif" font-size="12" lengthAdjust="spacing" textLength="81" x="236" y="76.4102">TrafficManager</text><line style="stroke:#A80036;stroke-width:1.5;" x1="208" x2="319" y1="87.5" y2="87.5"/><text fill="#000000" font-family="sans-serif" font-size="11" lengthAdjust="spacing" textLength="30" x="213" y="102.9189">-name</text><!--MD5=[0dc7f2ddb409b58bcf52b12238c25399]
class Ship--><rect codeLine="14" fill="#FEFECE" filter="url(#f1hl7zcqd9lxck)" height="192.1953" id="Ship" style="stroke:#A80036;stroke-width:1.5;" width="141" x="193" y="144.5"/><ellipse cx="246.75" cy="160.5" fill="#ADD1B2" rx="11" ry="11" style="stroke:#A80036;stroke-width:1.0;"/><path d="M248.75,157 Q248.9531,156.5 249.1875,156.25 Q249.4219,156 249.6875,156 Q250.1563,156 250.4531,156.2813 Q250.75,156.5625 250.75,157.2188 L250.75,158.7813 Q250.75,159.4375 250.4688,159.7188 Q250.1875,160 249.75,160 Q249.3594,160 249.1094,159.8281 Q248.8594,159.6563 248.75,159.2031 Q248.7031,158.8906 248.5313,158.7188 Q248.2188,158.3906 247.6563,158.2031 Q247.0938,158 246.5313,158 Q245.8281,158 245.2344,158.2813 Q244.6563,158.5625 244.2031,159.1875 Q243.75,159.8125 243.75,160.6719 L243.75,161.5938 Q243.75,162.625 244.5938,163.3125 Q245.4375,164 246.9375,164 Q247.8281,164 248.4531,163.7969 Q248.8125,163.6875 249.2188,163.3281 Q249.4844,163.125 249.625,163.0625 Q249.7656,163 249.9375,163 Q250.2656,163 250.5,163.2656 Q250.75,163.5156 250.75,163.875 Q250.75,164.2188 250.4063,164.625 Q249.9063,165.2188 249.1094,165.5469 Q248.0625,166 246.7813,166 Q245.2813,166 244.0781,165.4063 Q243.1094,164.9375 242.4219,163.9219 Q241.75,162.9063 241.75,161.7031 L241.75,160.6094 Q241.75,159.3594 242.3438,158.2656 Q242.9531,157.1719 244,156.5938 Q245.0625,156 246.25,156 Q246.9688,156 247.5938,156.25 Q248.2188,156.5 248.75,157 Z " fill="#000000"/><text fill="#000000" font-family="sans-serif" font-size="12" lengthAdjust="spacing" textLength="25" x="267.25" y="165.4102">Ship</text><line style="stroke:#A80036;stroke-width:1.5;" x1="194" x2="333" y1="176.5" y2="176.5"/><text fill="#000000" font-family="sans-serif" font-size="11" lengthAdjust="spacing" textLength="53" x="199" y="191.9189">-mmsiCode</text><text fill="#000000" font-family="sans-serif" font-size="11" lengthAdjust="spacing" textLength="30" x="199" y="205.7549">-name</text><text fill="#000000" font-family="sans-serif" font-size="11" lengthAdjust="spacing" textLength="45" x="199" y="219.5908">-imoCode</text><text fill="#000000" font-family="sans-serif" font-size="11" lengthAdjust="spacing" textLength="129" x="199" y="233.4268">-numberEnergyGenerators</text><text fill="#000000" font-family="sans-serif" font-size="11" lengthAdjust="spacing" textLength="83" x="199" y="247.2627">-generatorPower</text><text fill="#000000" font-family="sans-serif" font-size="11" lengthAdjust="spacing" textLength="41" x="199" y="261.0986">-callSign</text><text fill="#000000" font-family="sans-serif" font-size="11" lengthAdjust="spacing" textLength="60" x="199" y="274.9346">-vesselType</text><text fill="#000000" font-family="sans-serif" font-size="11" lengthAdjust="spacing" textLength="33" x="199" y="288.7705">-length</text><text fill="#000000" font-family="sans-serif" font-size="11" lengthAdjust="spacing" textLength="31" x="199" y="302.6064">-width</text><text fill="#000000" font-family="sans-serif" font-size="11" lengthAdjust="spacing" textLength="45" x="199" y="316.4424">-capacity</text><text fill="#000000" font-family="sans-serif" font-size="11" lengthAdjust="spacing" textLength="27" x="199" y="330.2783">-draft</text><!--MD5=[efa7c3600894dd6faaa8b816738c33b1]
class ShipLocation--><rect codeLine="28" fill="#FEFECE" filter="url(#f1hl7zcqd9lxck)" height="150.6875" id="ShipLocation" style="stroke:#A80036;stroke-width:1.5;" width="104" x="455" y="7"/><ellipse cx="470" cy="23" fill="#ADD1B2" rx="11" ry="11" style="stroke:#A80036;stroke-width:1.0;"/><path d="M472,19.5 Q472.2031,19 472.4375,18.75 Q472.6719,18.5 472.9375,18.5 Q473.4063,18.5 473.7031,18.7813 Q474,19.0625 474,19.7188 L474,21.2813 Q474,21.9375 473.7188,22.2188 Q473.4375,22.5 473,22.5 Q472.6094,22.5 472.3594,22.3281 Q472.1094,22.1563 472,21.7031 Q471.9531,21.3906 471.7813,21.2188 Q471.4688,20.8906 470.9063,20.7031 Q470.3438,20.5 469.7813,20.5 Q469.0781,20.5 468.4844,20.7813 Q467.9063,21.0625 467.4531,21.6875 Q467,22.3125 467,23.1719 L467,24.0938 Q467,25.125 467.8438,25.8125 Q468.6875,26.5 470.1875,26.5 Q471.0781,26.5 471.7031,26.2969 Q472.0625,26.1875 472.4688,25.8281 Q472.7344,25.625 472.875,25.5625 Q473.0156,25.5 473.1875,25.5 Q473.5156,25.5 473.75,25.7656 Q474,26.0156 474,26.375 Q474,26.7188 473.6563,27.125 Q473.1563,27.7188 472.3594,28.0469 Q471.3125,28.5 470.0313,28.5 Q468.5313,28.5 467.3281,27.9063 Q466.3594,27.4375 465.6719,26.4219 Q465,25.4063 465,24.2031 L465,23.1094 Q465,21.8594 465.5938,20.7656 Q466.2031,19.6719 467.25,19.0938 Q468.3125,18.5 469.5,18.5 Q470.2188,18.5 470.8438,18.75 Q471.4688,19 472,19.5 Z " fill="#000000"/><text fill="#000000" font-family="sans-serif" font-size="12" lengthAdjust="spacing" textLength="72" x="484" y="27.9102">ShipLocation</text><line style="stroke:#A80036;stroke-width:1.5;" x1="456" x2="558" y1="39" y2="39"/><text fill="#000000" font-family="sans-serif" font-size="11" lengthAdjust="spacing" textLength="72" x="461" y="54.4189">-baseDateTime</text><text fill="#000000" font-family="sans-serif" font-size="11" lengthAdjust="spacing" textLength="38" x="461" y="68.2549">-latitude</text><text fill="#000000" font-family="sans-serif" font-size="11" lengthAdjust="spacing" textLength="47" x="461" y="82.0908">-longitude</text><text fill="#000000" font-family="sans-serif" font-size="11" lengthAdjust="spacing" textLength="22" x="461" y="95.9268">-sog</text><text fill="#000000" font-family="sans-serif" font-size="11" lengthAdjust="spacing" textLength="22" x="461" y="109.7627">-cog</text><text fill="#000000" font-family="sans-serif" font-size="11" lengthAdjust="spacing" textLength="42" x="461" y="123.5986">-heading</text><text fill="#000000" font-family="sans-serif" font-size="11" lengthAdjust="spacing" textLength="41" x="461" y="137.4346">-position</text><text fill="#000000" font-family="sans-serif" font-size="11" lengthAdjust="spacing" textLength="59" x="461" y="151.2705">-transceiver</text><!--MD5=[cf9c7d7c3da40397ddde4f51b7097da6]
class VesselType--><rect codeLine="39" fill="#FEFECE" filter="url(#f1hl7zcqd9lxck)" height="95.3438" id="VesselType" style="stroke:#A80036;stroke-width:1.5;" width="96" x="459" y="193"/><ellipse cx="474" cy="209" fill="#ADD1B2" rx="11" ry="11" style="stroke:#A80036;stroke-width:1.0;"/><path d="M476,205.5 Q476.2031,205 476.4375,204.75 Q476.6719,204.5 476.9375,204.5 Q477.4063,204.5 477.7031,204.7813 Q478,205.0625 478,205.7188 L478,207.2813 Q478,207.9375 477.7188,208.2188 Q477.4375,208.5 477,208.5 Q476.6094,208.5 476.3594,208.3281 Q476.1094,208.1563 476,207.7031 Q475.9531,207.3906 475.7813,207.2188 Q475.4688,206.8906 474.9063,206.7031 Q474.3438,206.5 473.7813,206.5 Q473.0781,206.5 472.4844,206.7813 Q471.9063,207.0625 471.4531,207.6875 Q471,208.3125 471,209.1719 L471,210.0938 Q471,211.125 471.8438,211.8125 Q472.6875,212.5 474.1875,212.5 Q475.0781,212.5 475.7031,212.2969 Q476.0625,212.1875 476.4688,211.8281 Q476.7344,211.625 476.875,211.5625 Q477.0156,211.5 477.1875,211.5 Q477.5156,211.5 477.75,211.7656 Q478,212.0156 478,212.375 Q478,212.7188 477.6563,213.125 Q477.1563,213.7188 476.3594,214.0469 Q475.3125,214.5 474.0313,214.5 Q472.5313,214.5 471.3281,213.9063 Q470.3594,213.4375 469.6719,212.4219 Q469,211.4063 469,210.2031 L469,209.1094 Q469,207.8594 469.5938,206.7656 Q470.2031,205.6719 471.25,205.0938 Q472.3125,204.5 473.5,204.5 Q474.2188,204.5 474.8438,204.75 Q475.4688,205 476,205.5 Z " fill="#000000"/><text fill="#000000" font-family="sans-serif" font-size="12" lengthAdjust="spacing" textLength="64" x="488" y="213.9102">VesselType</text><line style="stroke:#A80036;stroke-width:1.5;" x1="460" x2="554" y1="225" y2="225"/><text fill="#000000" font-family="sans-serif" font-size="11" lengthAdjust="spacing" textLength="68" x="465" y="240.4189">-vesselTypeId</text><text fill="#000000" font-family="sans-serif" font-size="11" lengthAdjust="spacing" textLength="33" x="465" y="254.2549">-length</text><text fill="#000000" font-family="sans-serif" font-size="11" lengthAdjust="spacing" textLength="31" x="465" y="268.0908">-width</text><text fill="#000000" font-family="sans-serif" font-size="11" lengthAdjust="spacing" textLength="45" x="465" y="281.9268">-capacity</text><!--MD5=[37a14a5de6d6fd738aee271300f4b5c8]
link Company to Ship--><path codeLine="46" d="M92.13,177.01 C120.71,187.66 159.34,202.06 192.58,214.45 " fill="none" id="Company-Ship" style="stroke:#A80036;stroke-width:1.0;"/><polygon fill="#000000" points="133.1851,182.422,125.7361,176.5092,123.6832,182.0169,133.1851,182.422" style="stroke:#000000;stroke-width:1.0;"/><text fill="#000000" font-family="sans-serif" font-size="13" lengthAdjust="spacing" textLength="23" x="137.5" y="185.9951">own</text><text fill="#000000" font-family="sans-serif" font-size="13" lengthAdjust="spacing" textLength="7" x="100.0586" y="194.5902">1</text><text fill="#000000" font-family="sans-serif" font-size="13" lengthAdjust="spacing" textLength="20" x="165.1202" y="226.2883">1..*</text><!--MD5=[683ea96df93176af8455607a7c1d2a32]
link Company to TrafficManager--><path codeLine="47" d="M92.13,145.99 C124.93,133.76 170.96,116.61 206.91,103.21 " fill="none" id="Company-TrafficManager" style="stroke:#A80036;stroke-width:1.0;"/><polygon fill="#000000" points="131.6852,109.9296,122.1832,110.3346,124.236,115.8424,131.6852,109.9296" style="stroke:#000000;stroke-width:1.0;"/><text fill="#000000" font-family="sans-serif" font-size="13" lengthAdjust="spacing" textLength="26" x="136" y="116.9951">have</text><text fill="#000000" font-family="sans-serif" font-size="13" lengthAdjust="spacing" textLength="7" x="100.0586" y="158.2386">1</text><text fill="#000000" font-family="sans-serif" font-size="13" lengthAdjust="spacing" textLength="20" x="178.7943" y="120.2356">1..*</text><!--MD5=[5541ef512584d1243c10a7f3b3317e1c]
link Ship to ShipLocation--><path codeLine="49" d="M334.03,195.01 C372.63,169.76 419.8,138.9 454.96,115.89 " fill="none" id="Ship-ShipLocation" style="stroke:#A80036;stroke-width:1.0;"/><polygon fill="#000000" points="385.684,126.9383,376.506,129.4311,379.7241,134.3498,385.684,126.9383" style="stroke:#000000;stroke-width:1.0;"/><text fill="#000000" font-family="sans-serif" font-size="13" lengthAdjust="spacing" textLength="21" x="390.5" y="134.9951">has</text><text fill="#000000" font-family="sans-serif" font-size="13" lengthAdjust="spacing" textLength="7" x="342.127" y="204.4132">1</text><text fill="#000000" font-family="sans-serif" font-size="13" lengthAdjust="spacing" textLength="20" x="427.0111" y="134.7308">1..*</text><!--MD5=[1acbea49718d4a103d0265f6d40a2097]
link TrafficManager to ShipLocation--><path codeLine="51" d="M320.21,82.5 C360.74,82.5 415.22,82.5 454.69,82.5 " fill="none" id="TrafficManager-ShipLocation" style="stroke:#A80036;stroke-width:1.0;"/><polygon fill="#000000" points="374,73.6758,364.9549,70.7369,364.9549,76.6147,374,73.6758" style="stroke:#000000;stroke-width:1.0;"/><text fill="#000000" font-family="sans-serif" font-size="13" lengthAdjust="spacing" textLength="46" x="378" y="78.9951">controls</text><text fill="#000000" font-family="sans-serif" font-size="13" lengthAdjust="spacing" textLength="7" x="327.9244" y="97.0531">1</text><text fill="#000000" font-family="sans-serif" font-size="13" lengthAdjust="spacing" textLength="20" x="427.096" y="97.0106">1..*</text><!--MD5=[c324832c0212842eac80843bc02aaded]
link Ship to VesselType--><path codeLine="53" d="M334.03,240.5 C374.02,240.5 423.21,240.5 458.73,240.5 " fill="none" id="Ship-VesselType" style="stroke:#A80036;stroke-width:1.0;"/><polygon fill="#000000" points="385,231.6758,375.9549,228.7369,375.9549,234.6147,385,231.6758" style="stroke:#000000;stroke-width:1.0;"/><text fill="#000000" font-family="sans-serif" font-size="13" lengthAdjust="spacing" textLength="24" x="389" y="236.9951">is of</text><text fill="#000000" font-family="sans-serif" font-size="13" lengthAdjust="spacing" textLength="5" x="342.0177" y="254.8787">*</text><text fill="#000000" font-family="sans-serif" font-size="13" lengthAdjust="spacing" textLength="7" x="444.1263" y="255.1707">1</text><!--MD5=[134c305695b47bb0b0b8e9d262f3826d]
@startuml

hide methods
left to right direction
skinparam classAttributeIconSize 0

class Company {
-designation
}

class TrafficManager {
-name
}

class Ship {
-mmsiCode
-name
-imoCode
-numberEnergyGenerators
-generatorPower
-callSign
-vesselType
-length
-width
-capacity
-draft
}

class ShipLocation {
-baseDateTime
-latitude
-longitude
-sog
-cog
-heading
-position
-transceiver
}

class VesselType {
-vesselTypeId
-length
-width
-capacity
}

Company "1"- -"1..*" Ship: own >
Company "1"- -"1..*" TrafficManager: have >

Ship "1" - - "1..*" ShipLocation : has >

TrafficManager "1" - - "1..*" ShipLocation : controls >

Ship "*" - - "1" VesselType : is of >

@enduml

PlantUML version 1.2021.11(Sat Oct 02 14:26:11 BST 2021)
(GPL source distribution)
Java Runtime: OpenJDK Runtime Environment
JVM: OpenJDK 64-Bit Server VM
Default Encoding: Cp1252
Language: pt
Country: PT
--></g></svg>