<?xml version="1.0" encoding="UTF-8" standalone="no"?><svg xmlns="http://www.w3.org/2000/svg" xmlns:xlink="http://www.w3.org/1999/xlink" contentScriptType="application/ecmascript" contentStyleType="text/css" height="345px" preserveAspectRatio="none" style="width:404px;height:345px;background:#FFFFFF;" version="1.1" viewBox="0 0 404 345" width="404px" zoomAndPan="magnify"><defs><filter height="300%" id="fg2yerk7ffvt7" width="300%" x="-1" y="-1"><feGaussianBlur result="blurOut" stdDeviation="2.0"/><feColorMatrix in="blurOut" result="blurOut2" type="matrix" values="0 0 0 0 0 0 0 0 0 0 0 0 0 0 0 0 0 0 .4 0"/><feOffset dx="4.0" dy="4.0" in="blurOut2" result="blurOut3"/><feBlend in="SourceGraphic" in2="blurOut3" mode="normal"/></filter></defs><g><!--MD5=[ea157df1fa39030cc170d8f4b7bdd8fc]
class KnowRouteUI--><rect codeLine="3" fill="#FEFECE" filter="url(#fg2yerk7ffvt7)" height="48" id="KnowRouteUI" style="stroke:#A80036;stroke-width:1.5;" width="108" x="42" y="7"/><ellipse cx="57" cy="23" fill="#ADD1B2" rx="11" ry="11" style="stroke:#A80036;stroke-width:1.0;"/><path d="M59,19.5 Q59.2031,19 59.4375,18.75 Q59.6719,18.5 59.9375,18.5 Q60.4063,18.5 60.7031,18.7813 Q61,19.0625 61,19.7188 L61,21.2813 Q61,21.9375 60.7188,22.2188 Q60.4375,22.5 60,22.5 Q59.6094,22.5 59.3594,22.3281 Q59.1094,22.1563 59,21.7031 Q58.9531,21.3906 58.7813,21.2188 Q58.4688,20.8906 57.9063,20.7031 Q57.3438,20.5 56.7813,20.5 Q56.0781,20.5 55.4844,20.7813 Q54.9063,21.0625 54.4531,21.6875 Q54,22.3125 54,23.1719 L54,24.0938 Q54,25.125 54.8438,25.8125 Q55.6875,26.5 57.1875,26.5 Q58.0781,26.5 58.7031,26.2969 Q59.0625,26.1875 59.4688,25.8281 Q59.7344,25.625 59.875,25.5625 Q60.0156,25.5 60.1875,25.5 Q60.5156,25.5 60.75,25.7656 Q61,26.0156 61,26.375 Q61,26.7188 60.6563,27.125 Q60.1563,27.7188 59.3594,28.0469 Q58.3125,28.5 57.0313,28.5 Q55.5313,28.5 54.3281,27.9063 Q53.3594,27.4375 52.6719,26.4219 Q52,25.4063 52,24.2031 L52,23.1094 Q52,21.8594 52.5938,20.7656 Q53.2031,19.6719 54.25,19.0938 Q55.3125,18.5 56.5,18.5 Q57.2188,18.5 57.8438,18.75 Q58.4688,19 59,19.5 Z " fill="#000000"/><text fill="#000000" font-family="sans-serif" font-size="12" lengthAdjust="spacing" textLength="76" x="71" y="27.9102">KnowRouteUI</text><line style="stroke:#A80036;stroke-width:1.5;" x1="43" x2="149" y1="39" y2="39"/><line style="stroke:#A80036;stroke-width:1.5;" x1="43" x2="149" y1="47" y2="47"/><!--MD5=[acdaf4045c659dc7634bd8df8d0662a3]
class KnowRouteController--><rect codeLine="6" fill="#FEFECE" filter="url(#fg2yerk7ffvt7)" height="61.8359" id="KnowRouteController" style="stroke:#A80036;stroke-width:1.5;" width="178" x="7" y="123"/><ellipse cx="34.6" cy="139" fill="#ADD1B2" rx="11" ry="11" style="stroke:#A80036;stroke-width:1.0;"/><path d="M36.6,135.5 Q36.8031,135 37.0375,134.75 Q37.2719,134.5 37.5375,134.5 Q38.0063,134.5 38.3031,134.7813 Q38.6,135.0625 38.6,135.7188 L38.6,137.2813 Q38.6,137.9375 38.3188,138.2188 Q38.0375,138.5 37.6,138.5 Q37.2094,138.5 36.9594,138.3281 Q36.7094,138.1563 36.6,137.7031 Q36.5531,137.3906 36.3813,137.2188 Q36.0688,136.8906 35.5063,136.7031 Q34.9438,136.5 34.3813,136.5 Q33.6781,136.5 33.0844,136.7813 Q32.5063,137.0625 32.0531,137.6875 Q31.6,138.3125 31.6,139.1719 L31.6,140.0938 Q31.6,141.125 32.4438,141.8125 Q33.2875,142.5 34.7875,142.5 Q35.6781,142.5 36.3031,142.2969 Q36.6625,142.1875 37.0688,141.8281 Q37.3344,141.625 37.475,141.5625 Q37.6156,141.5 37.7875,141.5 Q38.1156,141.5 38.35,141.7656 Q38.6,142.0156 38.6,142.375 Q38.6,142.7188 38.2563,143.125 Q37.7563,143.7188 36.9594,144.0469 Q35.9125,144.5 34.6313,144.5 Q33.1313,144.5 31.9281,143.9063 Q30.9594,143.4375 30.2719,142.4219 Q29.6,141.4063 29.6,140.2031 L29.6,139.1094 Q29.6,137.8594 30.1938,136.7656 Q30.8031,135.6719 31.85,135.0938 Q32.9125,134.5 34.1,134.5 Q34.8188,134.5 35.4438,134.75 Q36.0688,135 36.6,135.5 Z " fill="#000000"/><text fill="#000000" font-family="sans-serif" font-size="12" lengthAdjust="spacing" textLength="118" x="51.4" y="143.9102">KnowRouteController</text><line style="stroke:#A80036;stroke-width:1.5;" x1="8" x2="184" y1="155" y2="155"/><line style="stroke:#A80036;stroke-width:1.5;" x1="8" x2="184" y1="163" y2="163"/><ellipse cx="18" cy="174" fill="#84BE84" rx="3" ry="3" style="stroke:#038048;stroke-width:1.0;"/><text fill="#000000" font-family="sans-serif" font-size="11" lengthAdjust="spacing" textLength="152" x="27" y="178.4189">createUS205(registration code)</text><!--MD5=[88954a3c78b20e10016b3e3a2e07b84f]
class US305--><rect codeLine="11" fill="#FEFECE" filter="url(#fg2yerk7ffvt7)" height="75.6719" id="US305" style="stroke:#A80036;stroke-width:1.5;" width="152" x="220" y="116"/><ellipse cx="272.75" cy="132" fill="#ADD1B2" rx="11" ry="11" style="stroke:#A80036;stroke-width:1.0;"/><path d="M274.75,128.5 Q274.9531,128 275.1875,127.75 Q275.4219,127.5 275.6875,127.5 Q276.1563,127.5 276.4531,127.7813 Q276.75,128.0625 276.75,128.7188 L276.75,130.2813 Q276.75,130.9375 276.4688,131.2188 Q276.1875,131.5 275.75,131.5 Q275.3594,131.5 275.1094,131.3281 Q274.8594,131.1563 274.75,130.7031 Q274.7031,130.3906 274.5313,130.2188 Q274.2188,129.8906 273.6563,129.7031 Q273.0938,129.5 272.5313,129.5 Q271.8281,129.5 271.2344,129.7813 Q270.6563,130.0625 270.2031,130.6875 Q269.75,131.3125 269.75,132.1719 L269.75,133.0938 Q269.75,134.125 270.5938,134.8125 Q271.4375,135.5 272.9375,135.5 Q273.8281,135.5 274.4531,135.2969 Q274.8125,135.1875 275.2188,134.8281 Q275.4844,134.625 275.625,134.5625 Q275.7656,134.5 275.9375,134.5 Q276.2656,134.5 276.5,134.7656 Q276.75,135.0156 276.75,135.375 Q276.75,135.7188 276.4063,136.125 Q275.9063,136.7188 275.1094,137.0469 Q274.0625,137.5 272.7813,137.5 Q271.2813,137.5 270.0781,136.9063 Q269.1094,136.4375 268.4219,135.4219 Q267.75,134.4063 267.75,133.2031 L267.75,132.1094 Q267.75,130.8594 268.3438,129.7656 Q268.9531,128.6719 270,128.0938 Q271.0625,127.5 272.25,127.5 Q272.9688,127.5 273.5938,127.75 Q274.2188,128 274.75,128.5 Z " fill="#000000"/><text fill="#000000" font-family="sans-serif" font-size="12" lengthAdjust="spacing" textLength="38" x="293.25" y="136.9102">US305</text><line style="stroke:#A80036;stroke-width:1.5;" x1="221" x2="371" y1="148" y2="148"/><line style="stroke:#A80036;stroke-width:1.5;" x1="221" x2="371" y1="156" y2="156"/><rect fill="#F24D5C" height="6" style="stroke:#C82930;stroke-width:1.0;" width="6" x="228" y="164"/><text fill="#000000" font-family="sans-serif" font-size="11" lengthAdjust="spacing" textLength="126" x="240" y="171.4189">initialize(registration code)</text><ellipse cx="231" cy="180.8359" fill="#84BE84" rx="3" ry="3" style="stroke:#038048;stroke-width:1.0;"/><text fill="#000000" font-family="sans-serif" font-size="11" lengthAdjust="spacing" textLength="45" x="240" y="185.2549">toString()</text><!--MD5=[c4c1f95cf25890b8d906953e22c853cc]
class WriteForAFile--><rect codeLine="17" fill="#FEFECE" filter="url(#fg2yerk7ffvt7)" height="61.8359" id="WriteForAFile" style="stroke:#A80036;stroke-width:1.5;" width="188" x="202" y="270"/><ellipse cx="255.25" cy="286" fill="#ADD1B2" rx="11" ry="11" style="stroke:#A80036;stroke-width:1.0;"/><path d="M257.25,282.5 Q257.4531,282 257.6875,281.75 Q257.9219,281.5 258.1875,281.5 Q258.6563,281.5 258.9531,281.7813 Q259.25,282.0625 259.25,282.7188 L259.25,284.2813 Q259.25,284.9375 258.9688,285.2188 Q258.6875,285.5 258.25,285.5 Q257.8594,285.5 257.6094,285.3281 Q257.3594,285.1563 257.25,284.7031 Q257.2031,284.3906 257.0313,284.2188 Q256.7188,283.8906 256.1563,283.7031 Q255.5938,283.5 255.0313,283.5 Q254.3281,283.5 253.7344,283.7813 Q253.1563,284.0625 252.7031,284.6875 Q252.25,285.3125 252.25,286.1719 L252.25,287.0938 Q252.25,288.125 253.0938,288.8125 Q253.9375,289.5 255.4375,289.5 Q256.3281,289.5 256.9531,289.2969 Q257.3125,289.1875 257.7188,288.8281 Q257.9844,288.625 258.125,288.5625 Q258.2656,288.5 258.4375,288.5 Q258.7656,288.5 259,288.7656 Q259.25,289.0156 259.25,289.375 Q259.25,289.7188 258.9063,290.125 Q258.4063,290.7188 257.6094,291.0469 Q256.5625,291.5 255.2813,291.5 Q253.7813,291.5 252.5781,290.9063 Q251.6094,290.4375 250.9219,289.4219 Q250.25,288.4063 250.25,287.2031 L250.25,286.1094 Q250.25,284.8594 250.8438,283.7656 Q251.4531,282.6719 252.5,282.0938 Q253.5625,281.5 254.75,281.5 Q255.4688,281.5 256.0938,281.75 Q256.7188,282 257.25,282.5 Z " fill="#000000"/><text fill="#000000" font-family="sans-serif" font-size="12" lengthAdjust="spacing" textLength="73" x="275.75" y="290.9102">WriteForAFile</text><line style="stroke:#A80036;stroke-width:1.5;" x1="203" x2="389" y1="302" y2="302"/><line style="stroke:#A80036;stroke-width:1.5;" x1="203" x2="389" y1="310" y2="310"/><ellipse cx="213" cy="321" fill="#84BE84" rx="3" ry="3" style="stroke:#038048;stroke-width:1.0;"/><text fill="#000000" font-family="sans-serif" font-size="11" lengthAdjust="spacing" textLength="162" x="222" y="325.4189">writeForAFiLe(textualInformation)</text><!--MD5=[be5cd08c93ff5fe2f10846c8d8e97e2b]
link KnowRouteUI to KnowRouteController--><path codeLine="23" d="M96,55.04 C96,72.74 96,97.49 96,117.69 " fill="none" id="KnowRouteUI-to-KnowRouteController" style="stroke:#A80036;stroke-width:1.0;stroke-dasharray:7.0,7.0;"/><polygon fill="#A80036" points="96,122.72,100,113.72,96,117.72,92,113.72,96,122.72" style="stroke:#A80036;stroke-width:1.0;"/><!--MD5=[ab68a184a1af215f20f3266043e2be21]
link KnowRouteController to US305--><path codeLine="24" d="M185.06,154 C194.9,154 204.74,154 214.58,154 " fill="none" id="KnowRouteController-to-US305" style="stroke:#A80036;stroke-width:1.0;"/><polygon fill="#A80036" points="219.73,154,210.73,150,214.73,154,210.73,158,219.73,154" style="stroke:#A80036;stroke-width:1.0;"/><!--MD5=[201864743bb55c041def6998fc32d041]
link US305 to WriteForAFile--><path codeLine="25" d="M296,192.34 C296,214.56 296,242.59 296,264.48 " fill="none" id="US305-to-WriteForAFile" style="stroke:#A80036;stroke-width:1.0;"/><polygon fill="#A80036" points="296,269.62,300,260.62,296,264.62,292,260.62,296,269.62" style="stroke:#A80036;stroke-width:1.0;"/><text fill="#000000" font-family="sans-serif" font-size="13" lengthAdjust="spacing" textLength="28" x="297" y="236.4951">uses</text><!--MD5=[7cf24e34570a860d712abb7c3641fd4a]
@startuml
'https://plantuml.com/class-diagram

class KnowRouteUI{
}

class KnowRouteController{
+ createUS205(registration code)
}


class US305 {
- initialize(registration code)
+ toString()

}

class WriteForAFile{
+ writeForAFiLe(textualInformation)

}


KnowRouteUI ..> KnowRouteController
KnowRouteController -> US305
US305 - -> WriteForAFile : uses

@enduml

@startuml

class KnowRouteUI{
}

class KnowRouteController{
+ createUS205(registration code)
}


class US305 {
- initialize(registration code)
+ toString()

}

class WriteForAFile{
+ writeForAFiLe(textualInformation)

}


KnowRouteUI ..> KnowRouteController
KnowRouteController -> US305
US305 - -> WriteForAFile : uses

@enduml

PlantUML version 1.2021.11(Sat Oct 02 14:26:11 BST 2021)
(GPL source distribution)
Java Runtime: OpenJDK Runtime Environment
JVM: OpenJDK 64-Bit Server VM
Default Encoding: Cp1252
Language: pt
Country: PT
--></g></svg>