<?xml version="1.0" encoding="UTF-8" standalone="no"?><svg xmlns="http://www.w3.org/2000/svg" xmlns:xlink="http://www.w3.org/1999/xlink" contentScriptType="application/ecmascript" contentStyleType="text/css" height="884.4px" preserveAspectRatio="none" style="width:936px;height:884px;" version="1.1" viewBox="0 0 936 884" width="936px" zoomAndPan="magnify"><defs><filter height="300%" id="ff5tmv8tn6tju" width="300%" x="-1" y="-1"><feGaussianBlur result="blurOut" stdDeviation="2.4"/><feColorMatrix in="blurOut" result="blurOut2" type="matrix" values="0 0 0 0 0 0 0 0 0 0 0 0 0 0 0 0 0 0 .4 0"/><feOffset dx="4.8" dy="4.8" in="blurOut2" result="blurOut3"/><feBlend in="SourceGraphic" in2="blurOut3" mode="normal"/></filter></defs><g><!--MD5=[f398d87fabaa512fdbdd8750b9801b35]
class FindClosestPortUI--><rect codeLine="3" fill="#FEFECE" filter="url(#ff5tmv8tn6tju)" height="57.6" id="FindClosestPortUI" style="stroke:#A80036;stroke-width:1.7999999999999998;" width="159.6" x="348.912" y="8.4"/><ellipse cx="366.912" cy="27.6" fill="#ADD1B2" rx="13.2" ry="13.2" style="stroke:#A80036;stroke-width:1.2;"/><path d="M369.312,23.4 Q369.5558,22.8 369.837,22.5 Q370.1183,22.2 370.437,22.2 Q370.9995,22.2 371.3558,22.5375 Q371.712,22.875 371.712,23.6625 L371.712,25.5375 Q371.712,26.325 371.3745,26.6625 Q371.037,27 370.512,27 Q370.0433,27 369.7433,26.7938 Q369.4433,26.5875 369.312,26.0438 Q369.2558,25.6688 369.0495,25.4625 Q368.6745,25.0687 367.9995,24.8438 Q367.3245,24.6 366.6495,24.6 Q365.8058,24.6 365.0932,24.9375 Q364.3995,25.275 363.8558,26.025 Q363.312,26.775 363.312,27.8063 L363.312,28.9125 Q363.312,30.15 364.3245,30.975 Q365.337,31.8 367.137,31.8 Q368.2057,31.8 368.9557,31.5563 Q369.387,31.425 369.8745,30.9938 Q370.1933,30.75 370.362,30.675 Q370.5307,30.6 370.737,30.6 Q371.1308,30.6 371.412,30.9188 Q371.712,31.2188 371.712,31.65 Q371.712,32.0625 371.2995,32.55 Q370.6995,33.2625 369.7433,33.6563 Q368.487,34.2 366.9495,34.2 Q365.1495,34.2 363.7057,33.4875 Q362.5433,32.925 361.7182,31.7062 Q360.912,30.4875 360.912,29.0438 L360.912,27.7313 Q360.912,26.2313 361.6245,24.9188 Q362.3558,23.6063 363.612,22.9125 Q364.887,22.2 366.312,22.2 Q367.1745,22.2 367.9245,22.5 Q368.6745,22.8 369.312,23.4 Z " fill="#000000"/><text fill="#000000" font-family="sans-serif" font-size="14.4" lengthAdjust="spacing" textLength="121.2" x="383.712" y="33.4922">FindClosestPortUI</text><line style="stroke:#A80036;stroke-width:1.7999999999999998;" x1="350.112" x2="507.312" y1="46.8" y2="46.8"/><line style="stroke:#A80036;stroke-width:1.7999999999999998;" x1="350.112" x2="507.312" y1="56.4" y2="56.4"/><!--MD5=[ece3d410acf7c62c5f936bff9ee27dc6]
class FindClosestPortController--><rect codeLine="5" fill="#FEFECE" filter="url(#ff5tmv8tn6tju)" height="57.6" id="FindClosestPortController" style="stroke:#A80036;stroke-width:1.7999999999999998;" width="210" x="323.712" y="139.2"/><ellipse cx="341.712" cy="158.4" fill="#ADD1B2" rx="13.2" ry="13.2" style="stroke:#A80036;stroke-width:1.2;"/><path d="M344.112,154.2 Q344.3558,153.6 344.637,153.3 Q344.9183,153 345.237,153 Q345.7995,153 346.1557,153.3375 Q346.512,153.675 346.512,154.4625 L346.512,156.3375 Q346.512,157.125 346.1745,157.4625 Q345.837,157.8 345.312,157.8 Q344.8432,157.8 344.5433,157.5938 Q344.2433,157.3875 344.112,156.8438 Q344.0558,156.4688 343.8495,156.2625 Q343.4745,155.8688 342.7995,155.6437 Q342.1245,155.4 341.4495,155.4 Q340.6058,155.4 339.8932,155.7375 Q339.1995,156.075 338.6557,156.825 Q338.112,157.575 338.112,158.6063 L338.112,159.7125 Q338.112,160.95 339.1245,161.775 Q340.137,162.6 341.937,162.6 Q343.0058,162.6 343.7558,162.3563 Q344.187,162.225 344.6745,161.7938 Q344.9933,161.55 345.162,161.475 Q345.3307,161.4 345.537,161.4 Q345.9308,161.4 346.212,161.7188 Q346.512,162.0187 346.512,162.45 Q346.512,162.8625 346.0995,163.35 Q345.4995,164.0625 344.5433,164.4562 Q343.287,165 341.7495,165 Q339.9495,165 338.5058,164.2875 Q337.3432,163.725 336.5182,162.5063 Q335.712,161.2875 335.712,159.8438 L335.712,158.5313 Q335.712,157.0313 336.4245,155.7188 Q337.1557,154.4063 338.412,153.7125 Q339.687,153 341.112,153 Q341.9745,153 342.7245,153.3 Q343.4745,153.6 344.112,154.2 Z " fill="#000000"/><text fill="#000000" font-family="sans-serif" font-size="14.4" lengthAdjust="spacing" textLength="171.6" x="358.512" y="164.2922">FindClosestPortController</text><line style="stroke:#A80036;stroke-width:1.7999999999999998;" x1="324.912" x2="532.512" y1="177.6" y2="177.6"/><line style="stroke:#A80036;stroke-width:1.7999999999999998;" x1="324.912" x2="532.512" y1="187.2" y2="187.2"/><!--MD5=[02e4b9b7573f1156f41e60aa5b4e25a4]
class Company--><rect codeLine="9" fill="#FEFECE" filter="url(#ff5tmv8tn6tju)" height="74.2031" id="Company" style="stroke:#A80036;stroke-width:1.7999999999999998;" width="102" x="208.512" y="270"/><ellipse cx="226.512" cy="289.2" fill="#ADD1B2" rx="13.2" ry="13.2" style="stroke:#A80036;stroke-width:1.2;"/><path d="M228.912,285 Q229.1557,284.4 229.437,284.1 Q229.7182,283.8 230.037,283.8 Q230.5995,283.8 230.9557,284.1375 Q231.312,284.475 231.312,285.2625 L231.312,287.1375 Q231.312,287.925 230.9745,288.2625 Q230.637,288.6 230.112,288.6 Q229.6433,288.6 229.3432,288.3938 Q229.0432,288.1875 228.912,287.6438 Q228.8557,287.2688 228.6495,287.0625 Q228.2745,286.6688 227.5995,286.4437 Q226.9245,286.2 226.2495,286.2 Q225.4057,286.2 224.6932,286.5375 Q223.9995,286.875 223.4558,287.625 Q222.912,288.375 222.912,289.4063 L222.912,290.5125 Q222.912,291.75 223.9245,292.575 Q224.937,293.4 226.737,293.4 Q227.8058,293.4 228.5558,293.1563 Q228.987,293.025 229.4745,292.5938 Q229.7932,292.35 229.962,292.275 Q230.1307,292.2 230.337,292.2 Q230.7307,292.2 231.012,292.5188 Q231.312,292.8187 231.312,293.25 Q231.312,293.6625 230.8995,294.15 Q230.2995,294.8625 229.3432,295.2562 Q228.087,295.8 226.5495,295.8 Q224.7495,295.8 223.3058,295.0875 Q222.1433,294.525 221.3182,293.3063 Q220.512,292.0875 220.512,290.6438 L220.512,289.3313 Q220.512,287.8313 221.2245,286.5188 Q221.9558,285.2063 223.212,284.5125 Q224.487,283.8 225.912,283.8 Q226.7745,283.8 227.5245,284.1 Q228.2745,284.4 228.912,285 Z " fill="#000000"/><text fill="#000000" font-family="sans-serif" font-size="14.4" lengthAdjust="spacing" textLength="63.6" x="243.312" y="295.0922">Company</text><line style="stroke:#A80036;stroke-width:1.7999999999999998;" x1="209.712" x2="309.312" y1="308.4" y2="308.4"/><rect fill="none" height="7.2" style="stroke:#C82930;stroke-width:1.2;" width="7.2" x="218.112" y="318"/><text fill="#000000" font-family="sans-serif" font-size="13.2" lengthAdjust="spacing" textLength="66" x="232.512" y="326.9027">designation</text><line style="stroke:#A80036;stroke-width:1.7999999999999998;" x1="209.712" x2="309.312" y1="334.6031" y2="334.6031"/><!--MD5=[b5b6c86a063960d0027bc1719947b1c8]
class BstShip--><rect codeLine="13" fill="#FEFECE" filter="url(#ff5tmv8tn6tju)" height="57.6" id="BstShip" style="stroke:#A80036;stroke-width:1.7999999999999998;" width="90" x="76.512" y="278.4"/><ellipse cx="94.512" cy="297.6" fill="#ADD1B2" rx="13.2" ry="13.2" style="stroke:#A80036;stroke-width:1.2;"/><path d="M96.912,293.4 Q97.1557,292.8 97.437,292.5 Q97.7182,292.2 98.037,292.2 Q98.5995,292.2 98.9557,292.5375 Q99.312,292.875 99.312,293.6625 L99.312,295.5375 Q99.312,296.325 98.9745,296.6625 Q98.637,297 98.112,297 Q97.6432,297 97.3432,296.7938 Q97.0432,296.5875 96.912,296.0438 Q96.8557,295.6688 96.6495,295.4625 Q96.2745,295.0687 95.5995,294.8438 Q94.9245,294.6 94.2495,294.6 Q93.4057,294.6 92.6932,294.9375 Q91.9995,295.275 91.4557,296.025 Q90.912,296.775 90.912,297.8063 L90.912,298.9125 Q90.912,300.15 91.9245,300.975 Q92.937,301.8 94.737,301.8 Q95.8057,301.8 96.5557,301.5563 Q96.987,301.425 97.4745,300.9938 Q97.7932,300.75 97.962,300.675 Q98.1307,300.6 98.337,300.6 Q98.7307,300.6 99.012,300.9188 Q99.312,301.2188 99.312,301.65 Q99.312,302.0625 98.8995,302.55 Q98.2995,303.2625 97.3432,303.6563 Q96.087,304.2 94.5495,304.2 Q92.7495,304.2 91.3057,303.4875 Q90.1432,302.925 89.3182,301.7063 Q88.512,300.4875 88.512,299.0438 L88.512,297.7313 Q88.512,296.2313 89.2245,294.9188 Q89.9557,293.6063 91.212,292.9125 Q92.487,292.2 93.912,292.2 Q94.7745,292.2 95.5245,292.5 Q96.2745,292.8 96.912,293.4 Z " fill="#000000"/><text fill="#000000" font-family="sans-serif" font-size="14.4" lengthAdjust="spacing" textLength="51.6" x="111.312" y="303.4922">BstShip</text><line style="stroke:#A80036;stroke-width:1.7999999999999998;" x1="77.712" x2="165.312" y1="316.8" y2="316.8"/><line style="stroke:#A80036;stroke-width:1.7999999999999998;" x1="77.712" x2="165.312" y1="326.4" y2="326.4"/><!--MD5=[0dc7f2ddb409b58bcf52b12238c25399]
class Ship--><rect codeLine="17" fill="#FEFECE" filter="url(#ff5tmv8tn6tju)" height="57.6" id="Ship" style="stroke:#A80036;stroke-width:1.7999999999999998;" width="68.4" x="125.712" y="474"/><ellipse cx="143.712" cy="493.2" fill="#ADD1B2" rx="13.2" ry="13.2" style="stroke:#A80036;stroke-width:1.2;"/><path d="M146.112,489 Q146.3557,488.4 146.637,488.1 Q146.9182,487.8 147.237,487.8 Q147.7995,487.8 148.1557,488.1375 Q148.512,488.475 148.512,489.2625 L148.512,491.1375 Q148.512,491.925 148.1745,492.2625 Q147.837,492.6 147.312,492.6 Q146.8432,492.6 146.5432,492.3937 Q146.2433,492.1875 146.112,491.6437 Q146.0558,491.2687 145.8495,491.0625 Q145.4745,490.6688 144.7995,490.4437 Q144.1245,490.2 143.4495,490.2 Q142.6057,490.2 141.8933,490.5375 Q141.1995,490.875 140.6557,491.625 Q140.112,492.375 140.112,493.4063 L140.112,494.5125 Q140.112,495.75 141.1245,496.575 Q142.137,497.4 143.937,497.4 Q145.0057,497.4 145.7557,497.1563 Q146.187,497.025 146.6745,496.5938 Q146.9933,496.35 147.162,496.275 Q147.3308,496.2 147.537,496.2 Q147.9308,496.2 148.212,496.5187 Q148.512,496.8187 148.512,497.25 Q148.512,497.6625 148.0995,498.15 Q147.4995,498.8625 146.5432,499.2562 Q145.287,499.8 143.7495,499.8 Q141.9495,499.8 140.5057,499.0875 Q139.3432,498.525 138.5183,497.3063 Q137.712,496.0875 137.712,494.6437 L137.712,493.3312 Q137.712,491.8312 138.4245,490.5187 Q139.1557,489.2062 140.412,488.5125 Q141.687,487.8 143.112,487.8 Q143.9745,487.8 144.7245,488.1 Q145.4745,488.4 146.112,489 Z " fill="#000000"/><text fill="#000000" font-family="sans-serif" font-size="14.4" lengthAdjust="spacing" textLength="30" x="160.512" y="499.0922">Ship</text><line style="stroke:#A80036;stroke-width:1.7999999999999998;" x1="126.912" x2="192.912" y1="512.4" y2="512.4"/><line style="stroke:#A80036;stroke-width:1.7999999999999998;" x1="126.912" x2="192.912" y1="522" y2="522"/><!--MD5=[44870eba88b8d6183fea351333848730]
class ShipLocationBST--><rect codeLine="21" fill="#FEFECE" filter="url(#ff5tmv8tn6tju)" height="57.6" id="ShipLocationBST" style="stroke:#A80036;stroke-width:1.7999999999999998;" width="152.4" x="352.512" y="278.4"/><ellipse cx="370.512" cy="297.6" fill="#ADD1B2" rx="13.2" ry="13.2" style="stroke:#A80036;stroke-width:1.2;"/><path d="M372.912,293.4 Q373.1557,292.8 373.437,292.5 Q373.7182,292.2 374.037,292.2 Q374.5995,292.2 374.9557,292.5375 Q375.312,292.875 375.312,293.6625 L375.312,295.5375 Q375.312,296.325 374.9745,296.6625 Q374.637,297 374.112,297 Q373.6432,297 373.3432,296.7938 Q373.0433,296.5875 372.912,296.0438 Q372.8558,295.6688 372.6495,295.4625 Q372.2745,295.0687 371.5995,294.8438 Q370.9245,294.6 370.2495,294.6 Q369.4057,294.6 368.6933,294.9375 Q367.9995,295.275 367.4557,296.025 Q366.912,296.775 366.912,297.8063 L366.912,298.9125 Q366.912,300.15 367.9245,300.975 Q368.937,301.8 370.737,301.8 Q371.8058,301.8 372.5558,301.5563 Q372.987,301.425 373.4745,300.9938 Q373.7933,300.75 373.962,300.675 Q374.1308,300.6 374.337,300.6 Q374.7308,300.6 375.012,300.9188 Q375.312,301.2188 375.312,301.65 Q375.312,302.0625 374.8995,302.55 Q374.2995,303.2625 373.3432,303.6563 Q372.087,304.2 370.5495,304.2 Q368.7495,304.2 367.3058,303.4875 Q366.1432,302.925 365.3183,301.7063 Q364.512,300.4875 364.512,299.0438 L364.512,297.7313 Q364.512,296.2313 365.2245,294.9188 Q365.9557,293.6063 367.212,292.9125 Q368.487,292.2 369.912,292.2 Q370.7745,292.2 371.5245,292.5 Q372.2745,292.8 372.912,293.4 Z " fill="#000000"/><text fill="#000000" font-family="sans-serif" font-size="14.4" lengthAdjust="spacing" textLength="114" x="387.312" y="303.4922">ShipLocationBST</text><line style="stroke:#A80036;stroke-width:1.7999999999999998;" x1="353.712" x2="503.712" y1="316.8" y2="316.8"/><line style="stroke:#A80036;stroke-width:1.7999999999999998;" x1="353.712" x2="503.712" y1="326.4" y2="326.4"/><!--MD5=[efa7c3600894dd6faaa8b816738c33b1]
class ShipLocation--><rect codeLine="25" fill="#FEFECE" filter="url(#ff5tmv8tn6tju)" height="57.6" id="ShipLocation" style="stroke:#A80036;stroke-width:1.7999999999999998;" width="124.8" x="71.112" y="642"/><ellipse cx="89.112" cy="661.2" fill="#ADD1B2" rx="13.2" ry="13.2" style="stroke:#A80036;stroke-width:1.2;"/><path d="M91.512,657 Q91.7557,656.4 92.037,656.1 Q92.3182,655.8 92.637,655.8 Q93.1995,655.8 93.5557,656.1375 Q93.912,656.475 93.912,657.2625 L93.912,659.1375 Q93.912,659.925 93.5745,660.2625 Q93.237,660.6 92.712,660.6 Q92.2432,660.6 91.9432,660.3938 Q91.6432,660.1875 91.512,659.6438 Q91.4557,659.2688 91.2495,659.0625 Q90.8745,658.6687 90.1995,658.4438 Q89.5245,658.2 88.8495,658.2 Q88.0057,658.2 87.2932,658.5375 Q86.5995,658.875 86.0557,659.625 Q85.512,660.375 85.512,661.4063 L85.512,662.5125 Q85.512,663.75 86.5245,664.575 Q87.537,665.4 89.337,665.4 Q90.4057,665.4 91.1557,665.1563 Q91.587,665.025 92.0745,664.5938 Q92.3932,664.35 92.562,664.275 Q92.7307,664.2 92.937,664.2 Q93.3307,664.2 93.612,664.5188 Q93.912,664.8188 93.912,665.25 Q93.912,665.6625 93.4995,666.15 Q92.8995,666.8625 91.9432,667.2563 Q90.687,667.8 89.1495,667.8 Q87.3495,667.8 85.9057,667.0875 Q84.7432,666.525 83.9182,665.3063 Q83.112,664.0875 83.112,662.6438 L83.112,661.3313 Q83.112,659.8313 83.8245,658.5188 Q84.5557,657.2063 85.812,656.5125 Q87.087,655.8 88.512,655.8 Q89.3745,655.8 90.1245,656.1 Q90.8745,656.4 91.512,657 Z " fill="#000000"/><text fill="#000000" font-family="sans-serif" font-size="14.4" lengthAdjust="spacing" textLength="86.4" x="105.912" y="667.0922">ShipLocation</text><line style="stroke:#A80036;stroke-width:1.7999999999999998;" x1="72.312" x2="194.712" y1="680.4" y2="680.4"/><line style="stroke:#A80036;stroke-width:1.7999999999999998;" x1="72.312" x2="194.712" y1="690" y2="690"/><!--MD5=[ea13aecf8df941b18fb8e3885c78c184]
class Ports--><rect codeLine="29" fill="#FEFECE" filter="url(#ff5tmv8tn6tju)" height="90.8062" id="Ports" style="stroke:#A80036;stroke-width:1.7999999999999998;" width="103.2" x="252.312" y="625.2"/><ellipse cx="283.812" cy="644.4" fill="#ADD1B2" rx="13.2" ry="13.2" style="stroke:#A80036;stroke-width:1.2;"/><path d="M286.212,640.2 Q286.4557,639.6 286.737,639.3 Q287.0182,639 287.337,639 Q287.8995,639 288.2558,639.3375 Q288.612,639.675 288.612,640.4625 L288.612,642.3375 Q288.612,643.125 288.2745,643.4625 Q287.937,643.8 287.412,643.8 Q286.9433,643.8 286.6432,643.5938 Q286.3432,643.3875 286.212,642.8438 Q286.1557,642.4688 285.9495,642.2625 Q285.5745,641.8688 284.8995,641.6438 Q284.2245,641.4 283.5495,641.4 Q282.7057,641.4 281.9933,641.7375 Q281.2995,642.075 280.7558,642.825 Q280.212,643.575 280.212,644.6062 L280.212,645.7125 Q280.212,646.95 281.2245,647.775 Q282.237,648.6 284.037,648.6 Q285.1058,648.6 285.8558,648.3562 Q286.287,648.225 286.7745,647.7937 Q287.0932,647.55 287.262,647.475 Q287.4308,647.4 287.637,647.4 Q288.0307,647.4 288.312,647.7188 Q288.612,648.0188 288.612,648.45 Q288.612,648.8625 288.1995,649.35 Q287.5995,650.0625 286.6432,650.4563 Q285.387,651 283.8495,651 Q282.0495,651 280.6058,650.2875 Q279.4433,649.725 278.6183,648.5063 Q277.812,647.2875 277.812,645.8438 L277.812,644.5313 Q277.812,643.0313 278.5245,641.7188 Q279.2558,640.4063 280.512,639.7125 Q281.787,639 283.212,639 Q284.0745,639 284.8245,639.3 Q285.5745,639.6 286.212,640.2 Z " fill="#000000"/><text fill="#000000" font-family="sans-serif" font-size="14.4" lengthAdjust="spacing" textLength="34.8" x="303.612" y="650.2922">Ports</text><line style="stroke:#A80036;stroke-width:1.7999999999999998;" x1="253.512" x2="354.312" y1="663.6" y2="663.6"/><rect fill="none" height="7.2" style="stroke:#C82930;stroke-width:1.2;" width="7.2" x="261.912" y="673.2"/><text fill="#000000" font-family="sans-serif" font-size="13.2" lengthAdjust="spacing" textLength="72" x="276.312" y="682.1027">identification</text><rect fill="none" height="7.2" style="stroke:#C82930;stroke-width:1.2;" width="7.2" x="261.912" y="689.8031"/><text fill="#000000" font-family="sans-serif" font-size="13.2" lengthAdjust="spacing" textLength="31.2" x="276.312" y="698.7059">name</text><line style="stroke:#A80036;stroke-width:1.7999999999999998;" x1="253.512" x2="354.312" y1="706.4063" y2="706.4063"/><!--MD5=[f70d2b281f9eefc1b49373c49159755a]
class PortStore--><rect codeLine="35" fill="#FEFECE" filter="url(#ff5tmv8tn6tju)" height="57.6" id="PortStore" style="stroke:#A80036;stroke-width:1.7999999999999998;" width="99.6" x="431.712" y="380.4"/><ellipse cx="449.712" cy="399.6" fill="#ADD1B2" rx="13.2" ry="13.2" style="stroke:#A80036;stroke-width:1.2;"/><path d="M452.112,395.4 Q452.3558,394.8 452.637,394.5 Q452.9183,394.2 453.237,394.2 Q453.7995,394.2 454.1557,394.5375 Q454.512,394.875 454.512,395.6625 L454.512,397.5375 Q454.512,398.325 454.1745,398.6625 Q453.837,399 453.312,399 Q452.8432,399 452.5433,398.7938 Q452.2433,398.5875 452.112,398.0438 Q452.0558,397.6688 451.8495,397.4625 Q451.4745,397.0687 450.7995,396.8438 Q450.1245,396.6 449.4495,396.6 Q448.6058,396.6 447.8932,396.9375 Q447.1995,397.275 446.6557,398.025 Q446.112,398.775 446.112,399.8063 L446.112,400.9125 Q446.112,402.15 447.1245,402.975 Q448.137,403.8 449.937,403.8 Q451.0058,403.8 451.7558,403.5563 Q452.187,403.425 452.6745,402.9938 Q452.9933,402.75 453.162,402.675 Q453.3307,402.6 453.537,402.6 Q453.9308,402.6 454.212,402.9188 Q454.512,403.2188 454.512,403.65 Q454.512,404.0625 454.0995,404.55 Q453.4995,405.2625 452.5433,405.6563 Q451.287,406.2 449.7495,406.2 Q447.9495,406.2 446.5058,405.4875 Q445.3432,404.925 444.5182,403.7063 Q443.712,402.4875 443.712,401.0438 L443.712,399.7313 Q443.712,398.2313 444.4245,396.9188 Q445.1557,395.6063 446.412,394.9125 Q447.687,394.2 449.112,394.2 Q449.9745,394.2 450.7245,394.5 Q451.4745,394.8 452.112,395.4 Z " fill="#000000"/><text fill="#000000" font-family="sans-serif" font-size="14.4" lengthAdjust="spacing" textLength="61.2" x="466.512" y="405.4922">PortStore</text><line style="stroke:#A80036;stroke-width:1.7999999999999998;" x1="432.912" x2="530.112" y1="418.8" y2="418.8"/><line style="stroke:#A80036;stroke-width:1.7999999999999998;" x1="432.912" x2="530.112" y1="428.4" y2="428.4"/><!--MD5=[591897fc66076d66d8e53c84834f2faa]
class Ports2DTree--><rect codeLine="38" fill="#FEFECE" filter="url(#ff5tmv8tn6tju)" height="57.6" id="Ports2DTree" style="stroke:#A80036;stroke-width:1.7999999999999998;" width="122.4" x="632.712" y="278.4"/><ellipse cx="650.712" cy="297.6" fill="#ADD1B2" rx="13.2" ry="13.2" style="stroke:#A80036;stroke-width:1.2;"/><path d="M653.112,293.4 Q653.3558,292.8 653.637,292.5 Q653.9183,292.2 654.237,292.2 Q654.7995,292.2 655.1558,292.5375 Q655.512,292.875 655.512,293.6625 L655.512,295.5375 Q655.512,296.325 655.1745,296.6625 Q654.837,297 654.312,297 Q653.8433,297 653.5433,296.7938 Q653.2433,296.5875 653.112,296.0438 Q653.0558,295.6688 652.8495,295.4625 Q652.4745,295.0687 651.7995,294.8438 Q651.1245,294.6 650.4495,294.6 Q649.6058,294.6 648.8933,294.9375 Q648.1995,295.275 647.6558,296.025 Q647.112,296.775 647.112,297.8063 L647.112,298.9125 Q647.112,300.15 648.1245,300.975 Q649.137,301.8 650.937,301.8 Q652.0057,301.8 652.7557,301.5563 Q653.187,301.425 653.6745,300.9938 Q653.9933,300.75 654.162,300.675 Q654.3308,300.6 654.537,300.6 Q654.9308,300.6 655.212,300.9188 Q655.512,301.2188 655.512,301.65 Q655.512,302.0625 655.0995,302.55 Q654.4995,303.2625 653.5433,303.6563 Q652.287,304.2 650.7495,304.2 Q648.9495,304.2 647.5057,303.4875 Q646.3433,302.925 645.5183,301.7063 Q644.712,300.4875 644.712,299.0438 L644.712,297.7313 Q644.712,296.2313 645.4245,294.9188 Q646.1558,293.6063 647.412,292.9125 Q648.687,292.2 650.112,292.2 Q650.9745,292.2 651.7245,292.5 Q652.4745,292.8 653.112,293.4 Z " fill="#000000"/><text fill="#000000" font-family="sans-serif" font-size="14.4" lengthAdjust="spacing" textLength="84" x="667.512" y="303.4922">Ports2DTree</text><line style="stroke:#A80036;stroke-width:1.7999999999999998;" x1="633.912" x2="753.912" y1="316.8" y2="316.8"/><line style="stroke:#A80036;stroke-width:1.7999999999999998;" x1="633.912" x2="753.912" y1="326.4" y2="326.4"/><!--MD5=[9ac0f71af410e4e2ba801391d9df81b3]
class PortsMapper--><rect codeLine="42" fill="#FEFECE" filter="url(#ff5tmv8tn6tju)" height="57.6" id="PortsMapper" style="stroke:#A80036;stroke-width:1.7999999999999998;" width="122.4" x="797.112" y="278.4"/><ellipse cx="815.112" cy="297.6" fill="#ADD1B2" rx="13.2" ry="13.2" style="stroke:#A80036;stroke-width:1.2;"/><path d="M817.512,293.4 Q817.7557,292.8 818.037,292.5 Q818.3182,292.2 818.637,292.2 Q819.1995,292.2 819.5558,292.5375 Q819.912,292.875 819.912,293.6625 L819.912,295.5375 Q819.912,296.325 819.5745,296.6625 Q819.237,297 818.712,297 Q818.2433,297 817.9432,296.7938 Q817.6433,296.5875 817.512,296.0438 Q817.4558,295.6688 817.2495,295.4625 Q816.8745,295.0687 816.1995,294.8438 Q815.5245,294.6 814.8495,294.6 Q814.0057,294.6 813.2933,294.9375 Q812.5995,295.275 812.0558,296.025 Q811.512,296.775 811.512,297.8063 L811.512,298.9125 Q811.512,300.15 812.5245,300.975 Q813.537,301.8 815.337,301.8 Q816.4058,301.8 817.1558,301.5563 Q817.587,301.425 818.0745,300.9938 Q818.3933,300.75 818.562,300.675 Q818.7308,300.6 818.937,300.6 Q819.3308,300.6 819.612,300.9188 Q819.912,301.2188 819.912,301.65 Q819.912,302.0625 819.4995,302.55 Q818.8995,303.2625 817.9432,303.6563 Q816.687,304.2 815.1495,304.2 Q813.3495,304.2 811.9058,303.4875 Q810.7433,302.925 809.9183,301.7063 Q809.112,300.4875 809.112,299.0438 L809.112,297.7313 Q809.112,296.2313 809.8245,294.9188 Q810.5558,293.6063 811.812,292.9125 Q813.087,292.2 814.512,292.2 Q815.3745,292.2 816.1245,292.5 Q816.8745,292.8 817.512,293.4 Z " fill="#000000"/><text fill="#000000" font-family="sans-serif" font-size="14.4" lengthAdjust="spacing" textLength="84" x="831.912" y="303.4922">PortsMapper</text><line style="stroke:#A80036;stroke-width:1.7999999999999998;" x1="798.312" x2="918.312" y1="316.8" y2="316.8"/><line style="stroke:#A80036;stroke-width:1.7999999999999998;" x1="798.312" x2="918.312" y1="326.4" y2="326.4"/><!--MD5=[2bcc4683937db28f632bc72c67458500]
class PortsDto--><rect codeLine="45" fill="#FEFECE" filter="url(#ff5tmv8tn6tju)" height="57.6" id="PortsDto" style="stroke:#A80036;stroke-width:1.7999999999999998;" width="96" x="810.312" y="474"/><ellipse cx="828.312" cy="493.2" fill="#ADD1B2" rx="13.2" ry="13.2" style="stroke:#A80036;stroke-width:1.2;"/><path d="M830.712,489 Q830.9558,488.4 831.237,488.1 Q831.5183,487.8 831.837,487.8 Q832.3995,487.8 832.7557,488.1375 Q833.112,488.475 833.112,489.2625 L833.112,491.1375 Q833.112,491.925 832.7745,492.2625 Q832.437,492.6 831.912,492.6 Q831.4432,492.6 831.1433,492.3937 Q830.8433,492.1875 830.712,491.6437 Q830.6558,491.2687 830.4495,491.0625 Q830.0745,490.6688 829.3995,490.4437 Q828.7245,490.2 828.0495,490.2 Q827.2058,490.2 826.4933,490.5375 Q825.7995,490.875 825.2557,491.625 Q824.712,492.375 824.712,493.4063 L824.712,494.5125 Q824.712,495.75 825.7245,496.575 Q826.737,497.4 828.537,497.4 Q829.6058,497.4 830.3558,497.1563 Q830.787,497.025 831.2745,496.5938 Q831.5933,496.35 831.762,496.275 Q831.9308,496.2 832.137,496.2 Q832.5308,496.2 832.812,496.5187 Q833.112,496.8187 833.112,497.25 Q833.112,497.6625 832.6995,498.15 Q832.0995,498.8625 831.1433,499.2562 Q829.887,499.8 828.3495,499.8 Q826.5495,499.8 825.1058,499.0875 Q823.9432,498.525 823.1183,497.3063 Q822.312,496.0875 822.312,494.6437 L822.312,493.3312 Q822.312,491.8312 823.0245,490.5187 Q823.7557,489.2062 825.012,488.5125 Q826.287,487.8 827.712,487.8 Q828.5745,487.8 829.3245,488.1 Q830.0745,488.4 830.712,489 Z " fill="#000000"/><text fill="#000000" font-family="sans-serif" font-size="14.4" lengthAdjust="spacing" textLength="57.6" x="845.112" y="499.0922">PortsDto</text><line style="stroke:#A80036;stroke-width:1.7999999999999998;" x1="811.512" x2="905.112" y1="512.4" y2="512.4"/><line style="stroke:#A80036;stroke-width:1.7999999999999998;" x1="811.512" x2="905.112" y1="522" y2="522"/><!--MD5=[9febfb2ff9adfe183e01ff702b9c1c02]
class PlaceLocation--><rect fill="#FEFECE" filter="url(#ff5tmv8tn6tju)" height="57.6" id="PlaceLocation" style="stroke:#A80036;stroke-width:1.7999999999999998;" width="132" x="237.912" y="810"/><ellipse cx="255.912" cy="829.2" fill="#ADD1B2" rx="13.2" ry="13.2" style="stroke:#A80036;stroke-width:1.2;"/><path d="M258.312,825 Q258.5558,824.4 258.837,824.1 Q259.1183,823.8 259.437,823.8 Q259.9995,823.8 260.3558,824.1375 Q260.712,824.475 260.712,825.2625 L260.712,827.1375 Q260.712,827.925 260.3745,828.2625 Q260.037,828.6 259.512,828.6 Q259.0433,828.6 258.7433,828.3938 Q258.4433,828.1875 258.312,827.6438 Q258.2558,827.2688 258.0495,827.0625 Q257.6745,826.6687 256.9995,826.4438 Q256.3245,826.2 255.6495,826.2 Q254.8058,826.2 254.0932,826.5375 Q253.3995,826.875 252.8557,827.625 Q252.312,828.375 252.312,829.4063 L252.312,830.5125 Q252.312,831.75 253.3245,832.575 Q254.337,833.4 256.137,833.4 Q257.2057,833.4 257.9557,833.1563 Q258.387,833.025 258.8745,832.5938 Q259.1933,832.35 259.362,832.275 Q259.5307,832.2 259.737,832.2 Q260.1308,832.2 260.412,832.5188 Q260.712,832.8188 260.712,833.25 Q260.712,833.6625 260.2995,834.15 Q259.6995,834.8625 258.7433,835.2563 Q257.487,835.8 255.9495,835.8 Q254.1495,835.8 252.7057,835.0875 Q251.5432,834.525 250.7182,833.3063 Q249.912,832.0875 249.912,830.6438 L249.912,829.3313 Q249.912,827.8313 250.6245,826.5188 Q251.3557,825.2063 252.612,824.5125 Q253.887,823.8 255.312,823.8 Q256.1745,823.8 256.9245,824.1 Q257.6745,824.4 258.312,825 Z " fill="#000000"/><text fill="#000000" font-family="sans-serif" font-size="14.4" lengthAdjust="spacing" textLength="93.6" x="272.712" y="835.0922">PlaceLocation</text><line style="stroke:#A80036;stroke-width:1.7999999999999998;" x1="239.112" x2="368.712" y1="848.4" y2="848.4"/><line style="stroke:#A80036;stroke-width:1.7999999999999998;" x1="239.112" x2="368.712" y1="858" y2="858"/><!--MD5=[3d97e7a8068d9b0a6bb8fcf7dc76451d]
link Company to Ports--><path codeLine="48" d="M269.676,344.424 C272.592,355.848 275.508,368.58 277.512,380.4 C292.056,466.14 298.992,567.648 301.968,624.732 " fill="none" id="Company-Ports" style="stroke:#A80036;stroke-width:1.2;"/><polygon fill="#000000" points="302.1987,508.9715,304.46,497.7851,297.4529,498.5923,302.1987,508.9715" style="stroke:#000000;stroke-width:1.2;"/><text fill="#000000" font-family="sans-serif" font-size="15.6" lengthAdjust="spacing" textLength="31.2" x="312.312" y="509.3941">have</text><text fill="#000000" font-family="sans-serif" font-size="15.6" lengthAdjust="spacing" textLength="8.4" x="262.4502" y="369.8975">1</text><text fill="#000000" font-family="sans-serif" font-size="15.6" lengthAdjust="spacing" textLength="24" x="275.5714" y="612.2283">1..*</text><!--MD5=[37a14a5de6d6fd738aee271300f4b5c8]
link Company to Ship--><path codeLine="49" d="M240.78,344.736 C221.508,382.128 191.904,439.548 174.372,473.568 " fill="none" id="Company-Ship" style="stroke:#A80036;stroke-width:1.2;"/><polygon fill="#000000" points="225.563,414.7441,233.6708,406.7122,227.4013,403.4805,225.563,414.7441" style="stroke:#000000;stroke-width:1.2;"/><text fill="#000000" font-family="sans-serif" font-size="15.6" lengthAdjust="spacing" textLength="27.6" x="239.112" y="415.7941">own</text><text fill="#000000" font-family="sans-serif" font-size="15.6" lengthAdjust="spacing" textLength="8.4" x="228.0086" y="369.9744">1</text><text fill="#000000" font-family="sans-serif" font-size="15.6" lengthAdjust="spacing" textLength="24" x="150.9716" y="461.1483">1..*</text><!--MD5=[b5e7d3b323f2cd13b2215620f50e65f3]
link Ship to Ports--><path codeLine="51" d="M178.032,531.792 C189.636,548.904 205.416,570.996 221.112,589.2 C231.588,601.344 243.6,613.74 255.156,625.068 " fill="none" id="Ship-Ports" style="stroke:#A80036;stroke-width:1.2;"/><polygon fill="#000000" points="230.9353,583.235,226.7368,572.6227,221.3009,577.1173,230.9353,583.235" style="stroke:#000000;stroke-width:1.2;"/><text fill="#000000" font-family="sans-serif" font-size="15.6" lengthAdjust="spacing" textLength="33.6" x="237.912" y="584.9941">dock</text><text fill="#000000" font-family="sans-serif" font-size="15.6" lengthAdjust="spacing" textLength="24" x="155.5238" y="557.4444">0..*</text><text fill="#000000" font-family="sans-serif" font-size="15.6" lengthAdjust="spacing" textLength="8.4" x="237.3232" y="612.2788">1</text><!--MD5=[5541ef512584d1243c10a7f3b3317e1c]
link Ship to ShipLocation--><path codeLine="52" d="M143.52,531.852 C138.06,542.64 132.66,555.324 129.912,567.6 C124.38,592.32 126.144,621.252 128.796,641.976 " fill="none" id="Ship-ShipLocation" style="stroke:#A80036;stroke-width:1.2;"/><polygon fill="#000000" points="135.1169,584.558,140.0509,574.267,133.0597,573.3323,135.1169,584.558" style="stroke:#000000;stroke-width:1.2;"/><text fill="#000000" font-family="sans-serif" font-size="15.6" lengthAdjust="spacing" textLength="25.2" x="146.712" y="584.9941">has</text><text fill="#000000" font-family="sans-serif" font-size="15.6" lengthAdjust="spacing" textLength="8.4" x="130.1007" y="557.519">1</text><text fill="#000000" font-family="sans-serif" font-size="15.6" lengthAdjust="spacing" textLength="24" x="100.5125" y="629.178">1..*</text><!--MD5=[aaa368e4b832683362a5bdda330bd90d]
link Ports to PlaceLocation--><path codeLine="54" d="M303.912,716.808 C303.912,746.508 303.912,784.524 303.912,809.904 " fill="none" id="Ports-PlaceLocation" style="stroke:#A80036;stroke-width:1.2;"/><polygon fill="#000000" points="309.912,769.4109,313.4387,758.5568,306.3853,758.5568,309.912,769.4109" style="stroke:#000000;stroke-width:1.2;"/><text fill="#000000" font-family="sans-serif" font-size="15.6" lengthAdjust="spacing" textLength="68.4" x="320.712" y="769.7941">located at</text><text fill="#000000" font-family="sans-serif" font-size="15.6" lengthAdjust="spacing" textLength="8.4" x="294.8426" y="741.9297">1</text><text fill="#000000" font-family="sans-serif" font-size="15.6" lengthAdjust="spacing" textLength="8.4" x="294.4358" y="797.0876">1</text><!--MD5=[7d9e25b05351abad966dfb34d685e1c0]
link FindClosestPortUI to FindClosestPortController--><path codeLine="56" d="M428.712,66.264 C428.712,85.776 428.712,111.984 428.712,132.744 " fill="none" id="FindClosestPortUI-to-FindClosestPortController" style="stroke:#A80036;stroke-width:1.2;stroke-dasharray:7.0,7.0;"/><polygon fill="#A80036" points="428.712,138.996,433.512,128.196,428.712,132.996,423.912,128.196,428.712,138.996" style="stroke:#A80036;stroke-width:1.2;"/><!--MD5=[00255207dc8ee15ac763dae01d413c77]
link FindClosestPortController to Company--><path codeLine="57" d="M394.476,196.884 C369.924,216.732 336.468,243.78 309.012,265.98 " fill="none" id="FindClosestPortController-to-Company" style="stroke:#A80036;stroke-width:1.2;stroke-dasharray:7.0,7.0;"/><polygon fill="#A80036" points="304.308,269.784,315.7237,266.7243,308.9731,266.0108,309.6865,259.2602,304.308,269.784" style="stroke:#A80036;stroke-width:1.2;"/><!--MD5=[075947312fe9433e59dcafefcd3d0a6b]
link FindClosestPortController to BstShip--><path codeLine="58" d="M357.144,196.848 C308.7,216.108 243.564,243.084 187.512,270 C182.508,272.412 177.336,275.004 172.2,277.68 " fill="none" id="FindClosestPortController-to-BstShip" style="stroke:#A80036;stroke-width:1.2;stroke-dasharray:7.0,7.0;"/><polygon fill="#A80036" points="166.644,280.584,178.437,279.8063,171.9546,277.7916,173.9692,271.3093,166.644,280.584" style="stroke:#A80036;stroke-width:1.2;"/><!--MD5=[043780038e30aee0d5a3ccc1f9eddfaa]
link FindClosestPortController to Ship--><path codeLine="59" d="M323.484,183.252 C224.916,198.828 88.056,227.508 55.512,270 C7.2,333.096 78.624,422.112 125.16,469.296 " fill="none" id="FindClosestPortController-to-Ship" style="stroke:#A80036;stroke-width:1.2;stroke-dasharray:7.0,7.0;"/><polygon fill="#A80036" points="129.576,473.736,125.3557,462.6966,125.3419,469.4848,118.5537,469.4711,129.576,473.736" style="stroke:#A80036;stroke-width:1.2;"/><!--MD5=[dfa15327ad2e5a3234d53230401e7ac0]
link FindClosestPortController to ShipLocationBST--><path codeLine="60" d="M428.712,196.884 C428.712,218.58 428.712,248.868 428.712,272.028 " fill="none" id="FindClosestPortController-to-ShipLocationBST" style="stroke:#A80036;stroke-width:1.2;stroke-dasharray:7.0,7.0;"/><polygon fill="#A80036" points="428.712,278.352,433.512,267.552,428.712,272.352,423.912,267.552,428.712,278.352" style="stroke:#A80036;stroke-width:1.2;"/><!--MD5=[176f9272f2872437077881362ce1cda7]
link FindClosestPortController to PortStore--><path codeLine="61" d="M467.58,197.124 C489.204,215.16 514.092,240.696 525.912,270 C538.296,300.66 535.836,312.852 525.912,344.4 C522.504,355.236 516.528,365.844 510.024,375.192 " fill="none" id="FindClosestPortController-to-PortStore" style="stroke:#A80036;stroke-width:1.2;stroke-dasharray:7.0,7.0;"/><polygon fill="#A80036" points="506.388,380.244,516.601,374.2964,509.8997,375.379,508.8171,368.6777,506.388,380.244" style="stroke:#A80036;stroke-width:1.2;"/><!--MD5=[2f38b66cd95aa2b5cdd97b781f4c4071]
link FindClosestPortController to Ports2DTree--><path codeLine="62" d="M519.228,196.836 C546.096,206.592 575.076,218.7 600.312,232.8 C621.06,244.38 642.084,260.364 658.932,274.428 " fill="none" id="FindClosestPortController-to-Ports2DTree" style="stroke:#A80036;stroke-width:1.2;stroke-dasharray:7.0,7.0;"/><polygon fill="#A80036" points="663.576,278.352,658.4141,267.7202,658.9892,274.484,652.2254,275.0591,663.576,278.352" style="stroke:#A80036;stroke-width:1.2;"/><!--MD5=[d7984ba771d209e602eb97b106b759ac]
link FindClosestPortController to PortsMapper--><path codeLine="63" d="M533.784,195.996 C603.132,214.596 695.604,241.152 775.512,270 C780.708,271.872 786.048,273.924 791.388,276.048 " fill="none" id="FindClosestPortController-to-PortsMapper" style="stroke:#A80036;stroke-width:1.2;stroke-dasharray:7.0,7.0;"/><polygon fill="#A80036" points="797.172,278.388,788.9496,269.8985,791.6071,276.1449,785.3606,278.8024,797.172,278.388" style="stroke:#A80036;stroke-width:1.2;"/><!--MD5=[43500506fff1da1e031be076e7dba2a8]
link PortsMapper to PortsDto--><path codeLine="64" d="M858.312,336.084 C858.312,370.8 858.312,430.296 858.312,467.712 " fill="none" id="PortsMapper-to-PortsDto" style="stroke:#A80036;stroke-width:1.2;stroke-dasharray:7.0,7.0;"/><polygon fill="#A80036" points="858.312,473.976,863.112,463.176,858.312,467.976,853.512,463.176,858.312,473.976" style="stroke:#A80036;stroke-width:1.2;"/><!--MD5=[af03eac9374996fab52622a2288382b0]
link PortStore to Ports--><path codeLine="65" d="M462.504,438.144 C432.864,481.404 375.18,565.596 338.148,619.632 " fill="none" id="PortStore-to-Ports" style="stroke:#A80036;stroke-width:1.2;"/><polygon fill="#A80036" points="334.632,624.768,344.7059,618.5877,338.0312,619.8237,336.7951,613.149,334.632,624.768" style="stroke:#A80036;stroke-width:1.2;"/><text fill="#000000" font-family="sans-serif" font-size="15.6" lengthAdjust="spacing" textLength="46.8" x="438.312" y="509.3941">adopts</text><text fill="#000000" font-family="sans-serif" font-size="15.6" lengthAdjust="spacing" textLength="8.4" x="448.4471" y="463.7847">1</text><text fill="#000000" font-family="sans-serif" font-size="15.6" lengthAdjust="spacing" textLength="6" x="333.3964" y="612.2705">*</text><!--MD5=[89ff831127031ac7428e02a91b59f98a]
@startuml
'https://plantuml.com/class-diagram

class FindClosestPortUI {}

class FindClosestPortController {

}

class Company {
-designation
}

class BstShip {

}

class Ship {

}

class ShipLocationBST {

}

class ShipLocation {

}

class Ports {
-identification
-name
}


class PortStore {
}

class Ports2DTree {

}

class PortsMapper {
}

class PortsDto {
}

Company "1"- -"1..*" Ports: have >
Company "1"- -"1..*" Ship: own >

Ship "0..*"- -"1" Ports: dock >
Ship "1" - - "1..*" ShipLocation : has >

Ports "1" - - "1" PlaceLocation : located at >

FindClosestPortUI ..> FindClosestPortController
FindClosestPortController ..> Company
FindClosestPortController ..> BstShip
FindClosestPortController ..> Ship
FindClosestPortController ..> ShipLocationBST
FindClosestPortController ..> PortStore
FindClosestPortController ..> Ports2DTree
FindClosestPortController ..> PortsMapper
PortsMapper ..> PortsDto
PortStore "1"- -> "*" Ports : adopts


@enduml

@startuml

class FindClosestPortUI {}

class FindClosestPortController {

}

class Company {
-designation
}

class BstShip {

}

class Ship {

}

class ShipLocationBST {

}

class ShipLocation {

}

class Ports {
-identification
-name
}


class PortStore {
}

class Ports2DTree {

}

class PortsMapper {
}

class PortsDto {
}

Company "1"- -"1..*" Ports: have >
Company "1"- -"1..*" Ship: own >

Ship "0..*"- -"1" Ports: dock >
Ship "1" - - "1..*" ShipLocation : has >

Ports "1" - - "1" PlaceLocation : located at >

FindClosestPortUI ..> FindClosestPortController
FindClosestPortController ..> Company
FindClosestPortController ..> BstShip
FindClosestPortController ..> Ship
FindClosestPortController ..> ShipLocationBST
FindClosestPortController ..> PortStore
FindClosestPortController ..> Ports2DTree
FindClosestPortController ..> PortsMapper
PortsMapper ..> PortsDto
PortStore "1"- -> "*" Ports : adopts


@enduml

PlantUML version 1.2021.5(Sun Apr 25 12:20:28 BST 2021)
(GPL source distribution)
Java Runtime: OpenJDK Runtime Environment
JVM: Dynamic Code Evolution 64-Bit Server VM
Default Encoding: Cp1252
Language: pt
Country: PT
--></g></svg>