<?xml version="1.0" encoding="UTF-8" standalone="no"?><svg xmlns="http://www.w3.org/2000/svg" xmlns:xlink="http://www.w3.org/1999/xlink" contentScriptType="application/ecmascript" contentStyleType="text/css" height="818px" preserveAspectRatio="none" style="width:281px;height:818px;background:#FFFFFF;" version="1.1" viewBox="0 0 281 818" width="281px" zoomAndPan="magnify"><defs><filter height="300%" id="ftqss0o80mhpd" width="300%" x="-1" y="-1"><feGaussianBlur result="blurOut" stdDeviation="2.0"/><feColorMatrix in="blurOut" result="blurOut2" type="matrix" values="0 0 0 0 0 0 0 0 0 0 0 0 0 0 0 0 0 0 .4 0"/><feOffset dx="4.0" dy="4.0" in="blurOut2" result="blurOut3"/><feBlend in="SourceGraphic" in2="blurOut3" mode="normal"/></filter></defs><g><!--MD5=[5645f35ced8186cc9062fa7c1141fcae]
class ListSomeShipDataUi--><rect codeLine="3" fill="#FEFECE" filter="url(#ftqss0o80mhpd)" height="48" id="ListSomeShipDataUi" style="stroke:#A80036;stroke-width:1.5;" width="148" x="28" y="7"/><ellipse cx="43" cy="23" fill="#ADD1B2" rx="11" ry="11" style="stroke:#A80036;stroke-width:1.0;"/><path d="M45,19.5 Q45.2031,19 45.4375,18.75 Q45.6719,18.5 45.9375,18.5 Q46.4063,18.5 46.7031,18.7813 Q47,19.0625 47,19.7188 L47,21.2813 Q47,21.9375 46.7188,22.2188 Q46.4375,22.5 46,22.5 Q45.6094,22.5 45.3594,22.3281 Q45.1094,22.1563 45,21.7031 Q44.9531,21.3906 44.7813,21.2188 Q44.4688,20.8906 43.9063,20.7031 Q43.3438,20.5 42.7813,20.5 Q42.0781,20.5 41.4844,20.7813 Q40.9063,21.0625 40.4531,21.6875 Q40,22.3125 40,23.1719 L40,24.0938 Q40,25.125 40.8438,25.8125 Q41.6875,26.5 43.1875,26.5 Q44.0781,26.5 44.7031,26.2969 Q45.0625,26.1875 45.4688,25.8281 Q45.7344,25.625 45.875,25.5625 Q46.0156,25.5 46.1875,25.5 Q46.5156,25.5 46.75,25.7656 Q47,26.0156 47,26.375 Q47,26.7188 46.6563,27.125 Q46.1563,27.7188 45.3594,28.0469 Q44.3125,28.5 43.0313,28.5 Q41.5313,28.5 40.3281,27.9063 Q39.3594,27.4375 38.6719,26.4219 Q38,25.4063 38,24.2031 L38,23.1094 Q38,21.8594 38.5938,20.7656 Q39.2031,19.6719 40.25,19.0938 Q41.3125,18.5 42.5,18.5 Q43.2188,18.5 43.8438,18.75 Q44.4688,19 45,19.5 Z " fill="#000000"/><text fill="#000000" font-family="sans-serif" font-size="12" lengthAdjust="spacing" textLength="116" x="57" y="27.9102">ListSomeShipDataUi</text><line style="stroke:#A80036;stroke-width:1.5;" x1="29" x2="175" y1="39" y2="39"/><line style="stroke:#A80036;stroke-width:1.5;" x1="29" x2="175" y1="47" y2="47"/><!--MD5=[ea0ceb958d65c39c91195deee001a455]
class ListSomeShipDataController--><rect codeLine="6" fill="#FEFECE" filter="url(#ftqss0o80mhpd)" height="61.8359" id="ListSomeShipDataController" style="stroke:#A80036;stroke-width:1.5;" width="190" x="7" y="116"/><ellipse cx="22" cy="132" fill="#ADD1B2" rx="11" ry="11" style="stroke:#A80036;stroke-width:1.0;"/><path d="M24,128.5 Q24.2031,128 24.4375,127.75 Q24.6719,127.5 24.9375,127.5 Q25.4063,127.5 25.7031,127.7813 Q26,128.0625 26,128.7188 L26,130.2813 Q26,130.9375 25.7188,131.2188 Q25.4375,131.5 25,131.5 Q24.6094,131.5 24.3594,131.3281 Q24.1094,131.1563 24,130.7031 Q23.9531,130.3906 23.7813,130.2188 Q23.4688,129.8906 22.9063,129.7031 Q22.3438,129.5 21.7813,129.5 Q21.0781,129.5 20.4844,129.7813 Q19.9063,130.0625 19.4531,130.6875 Q19,131.3125 19,132.1719 L19,133.0938 Q19,134.125 19.8438,134.8125 Q20.6875,135.5 22.1875,135.5 Q23.0781,135.5 23.7031,135.2969 Q24.0625,135.1875 24.4688,134.8281 Q24.7344,134.625 24.875,134.5625 Q25.0156,134.5 25.1875,134.5 Q25.5156,134.5 25.75,134.7656 Q26,135.0156 26,135.375 Q26,135.7188 25.6563,136.125 Q25.1563,136.7188 24.3594,137.0469 Q23.3125,137.5 22.0313,137.5 Q20.5313,137.5 19.3281,136.9063 Q18.3594,136.4375 17.6719,135.4219 Q17,134.4063 17,133.2031 L17,132.1094 Q17,130.8594 17.5938,129.7656 Q18.2031,128.6719 19.25,128.0938 Q20.3125,127.5 21.5,127.5 Q22.2188,127.5 22.8438,127.75 Q23.4688,128 24,128.5 Z " fill="#000000"/><text fill="#000000" font-family="sans-serif" font-size="12" lengthAdjust="spacing" textLength="158" x="36" y="136.9102">ListSomeShipDataController</text><line style="stroke:#A80036;stroke-width:1.5;" x1="8" x2="196" y1="148" y2="148"/><line style="stroke:#A80036;stroke-width:1.5;" x1="8" x2="196" y1="156" y2="156"/><ellipse cx="18" cy="167" fill="#84BE84" rx="3" ry="3" style="stroke:#038048;stroke-width:1.0;"/><text fill="#000000" font-family="sans-serif" font-size="11" lengthAdjust="spacing" textLength="74" x="27" y="171.4189">getShipByList()</text><!--MD5=[02e4b9b7573f1156f41e60aa5b4e25a4]
class Company--><rect codeLine="9" fill="#FEFECE" filter="url(#ftqss0o80mhpd)" height="61.8359" id="Company" style="stroke:#A80036;stroke-width:1.5;" width="86" x="59" y="239"/><ellipse cx="74.45" cy="255" fill="#ADD1B2" rx="11" ry="11" style="stroke:#A80036;stroke-width:1.0;"/><path d="M76.45,251.5 Q76.6531,251 76.8875,250.75 Q77.1219,250.5 77.3875,250.5 Q77.8563,250.5 78.1531,250.7813 Q78.45,251.0625 78.45,251.7188 L78.45,253.2813 Q78.45,253.9375 78.1688,254.2188 Q77.8875,254.5 77.45,254.5 Q77.0594,254.5 76.8094,254.3281 Q76.5594,254.1563 76.45,253.7031 Q76.4031,253.3906 76.2313,253.2188 Q75.9188,252.8906 75.3563,252.7031 Q74.7938,252.5 74.2313,252.5 Q73.5281,252.5 72.9344,252.7813 Q72.3563,253.0625 71.9031,253.6875 Q71.45,254.3125 71.45,255.1719 L71.45,256.0938 Q71.45,257.125 72.2938,257.8125 Q73.1375,258.5 74.6375,258.5 Q75.5281,258.5 76.1531,258.2969 Q76.5125,258.1875 76.9188,257.8281 Q77.1844,257.625 77.325,257.5625 Q77.4656,257.5 77.6375,257.5 Q77.9656,257.5 78.2,257.7656 Q78.45,258.0156 78.45,258.375 Q78.45,258.7188 78.1063,259.125 Q77.6063,259.7188 76.8094,260.0469 Q75.7625,260.5 74.4813,260.5 Q72.9813,260.5 71.7781,259.9063 Q70.8094,259.4375 70.1219,258.4219 Q69.45,257.4063 69.45,256.2031 L69.45,255.1094 Q69.45,253.8594 70.0438,252.7656 Q70.6531,251.6719 71.7,251.0938 Q72.7625,250.5 73.95,250.5 Q74.6688,250.5 75.2938,250.75 Q75.9188,251 76.45,251.5 Z " fill="#000000"/><text fill="#000000" font-family="sans-serif" font-size="12" lengthAdjust="spacing" textLength="53" x="88.55" y="259.9102">Company</text><line style="stroke:#A80036;stroke-width:1.5;" x1="60" x2="144" y1="271" y2="271"/><line style="stroke:#A80036;stroke-width:1.5;" x1="60" x2="144" y1="279" y2="279"/><ellipse cx="70" cy="290" fill="#84BE84" rx="3" ry="3" style="stroke:#038048;stroke-width:1.0;"/><text fill="#000000" font-family="sans-serif" font-size="11" lengthAdjust="spacing" textLength="60" x="79" y="294.4189">getBstShip()</text><!--MD5=[b5b6c86a063960d0027bc1719947b1c8]
class BstShip--><rect codeLine="13" fill="#FEFECE" filter="url(#ftqss0o80mhpd)" height="61.8359" id="BstShip" style="stroke:#A80036;stroke-width:1.5;" width="75" x="15.5" y="386"/><ellipse cx="30.5" cy="402" fill="#ADD1B2" rx="11" ry="11" style="stroke:#A80036;stroke-width:1.0;"/><path d="M32.5,398.5 Q32.7031,398 32.9375,397.75 Q33.1719,397.5 33.4375,397.5 Q33.9063,397.5 34.2031,397.7813 Q34.5,398.0625 34.5,398.7188 L34.5,400.2813 Q34.5,400.9375 34.2188,401.2188 Q33.9375,401.5 33.5,401.5 Q33.1094,401.5 32.8594,401.3281 Q32.6094,401.1563 32.5,400.7031 Q32.4531,400.3906 32.2813,400.2188 Q31.9688,399.8906 31.4063,399.7031 Q30.8438,399.5 30.2813,399.5 Q29.5781,399.5 28.9844,399.7813 Q28.4063,400.0625 27.9531,400.6875 Q27.5,401.3125 27.5,402.1719 L27.5,403.0938 Q27.5,404.125 28.3438,404.8125 Q29.1875,405.5 30.6875,405.5 Q31.5781,405.5 32.2031,405.2969 Q32.5625,405.1875 32.9688,404.8281 Q33.2344,404.625 33.375,404.5625 Q33.5156,404.5 33.6875,404.5 Q34.0156,404.5 34.25,404.7656 Q34.5,405.0156 34.5,405.375 Q34.5,405.7188 34.1563,406.125 Q33.6563,406.7188 32.8594,407.0469 Q31.8125,407.5 30.5313,407.5 Q29.0313,407.5 27.8281,406.9063 Q26.8594,406.4375 26.1719,405.4219 Q25.5,404.4063 25.5,403.2031 L25.5,402.1094 Q25.5,400.8594 26.0938,399.7656 Q26.7031,398.6719 27.75,398.0938 Q28.8125,397.5 30,397.5 Q30.7188,397.5 31.3438,397.75 Q31.9688,398 32.5,398.5 Z " fill="#000000"/><text fill="#000000" font-family="sans-serif" font-size="12" lengthAdjust="spacing" textLength="43" x="44.5" y="406.9102">BstShip</text><line style="stroke:#A80036;stroke-width:1.5;" x1="16.5" x2="89.5" y1="418" y2="418"/><line style="stroke:#A80036;stroke-width:1.5;" x1="16.5" x2="89.5" y1="426" y2="426"/><ellipse cx="26.5" cy="437" fill="#84BE84" rx="3" ry="3" style="stroke:#038048;stroke-width:1.0;"/><text fill="#000000" font-family="sans-serif" font-size="11" lengthAdjust="spacing" textLength="44" x="35.5" y="441.4189">inOrder()</text><!--MD5=[0dc7f2ddb409b58bcf52b12238c25399]
class Ship--><rect codeLine="16" fill="#FEFECE" filter="url(#ftqss0o80mhpd)" height="75.6719" id="Ship" style="stroke:#A80036;stroke-width:1.5;" width="107" x="125.5" y="379"/><ellipse cx="163" cy="395" fill="#ADD1B2" rx="11" ry="11" style="stroke:#A80036;stroke-width:1.0;"/><path d="M165,391.5 Q165.2031,391 165.4375,390.75 Q165.6719,390.5 165.9375,390.5 Q166.4063,390.5 166.7031,390.7813 Q167,391.0625 167,391.7188 L167,393.2813 Q167,393.9375 166.7188,394.2188 Q166.4375,394.5 166,394.5 Q165.6094,394.5 165.3594,394.3281 Q165.1094,394.1563 165,393.7031 Q164.9531,393.3906 164.7813,393.2188 Q164.4688,392.8906 163.9063,392.7031 Q163.3438,392.5 162.7813,392.5 Q162.0781,392.5 161.4844,392.7813 Q160.9063,393.0625 160.4531,393.6875 Q160,394.3125 160,395.1719 L160,396.0938 Q160,397.125 160.8438,397.8125 Q161.6875,398.5 163.1875,398.5 Q164.0781,398.5 164.7031,398.2969 Q165.0625,398.1875 165.4688,397.8281 Q165.7344,397.625 165.875,397.5625 Q166.0156,397.5 166.1875,397.5 Q166.5156,397.5 166.75,397.7656 Q167,398.0156 167,398.375 Q167,398.7188 166.6563,399.125 Q166.1563,399.7188 165.3594,400.0469 Q164.3125,400.5 163.0313,400.5 Q161.5313,400.5 160.3281,399.9063 Q159.3594,399.4375 158.6719,398.4219 Q158,397.4063 158,396.2031 L158,395.1094 Q158,393.8594 158.5938,392.7656 Q159.2031,391.6719 160.25,391.0938 Q161.3125,390.5 162.5,390.5 Q163.2188,390.5 163.8438,390.75 Q164.4688,391 165,391.5 Z " fill="#000000"/><text fill="#000000" font-family="sans-serif" font-size="12" lengthAdjust="spacing" textLength="25" x="182" y="399.9102">Ship</text><line style="stroke:#A80036;stroke-width:1.5;" x1="126.5" x2="231.5" y1="411" y2="411"/><line style="stroke:#A80036;stroke-width:1.5;" x1="126.5" x2="231.5" y1="419" y2="419"/><ellipse cx="136.5" cy="430" fill="#84BE84" rx="3" ry="3" style="stroke:#038048;stroke-width:1.0;"/><text fill="#000000" font-family="sans-serif" font-size="11" lengthAdjust="spacing" textLength="72" x="145.5" y="434.4189">getMmsiCode()</text><ellipse cx="136.5" cy="443.8359" fill="#84BE84" rx="3" ry="3" style="stroke:#038048;stroke-width:1.0;"/><text fill="#000000" font-family="sans-serif" font-size="11" lengthAdjust="spacing" textLength="81" x="145.5" y="448.2549">getShipPosition()</text><!--MD5=[3926afa14e8e1c3657aeb55cfbadc3ce]
class BstShipLocation--><rect codeLine="20" fill="#FEFECE" filter="url(#ftqss0o80mhpd)" height="89.5078" id="BstShipLocation" style="stroke:#A80036;stroke-width:1.5;" width="176" x="91" y="533"/><ellipse cx="130.3" cy="549" fill="#ADD1B2" rx="11" ry="11" style="stroke:#A80036;stroke-width:1.0;"/><path d="M132.3,545.5 Q132.5031,545 132.7375,544.75 Q132.9719,544.5 133.2375,544.5 Q133.7063,544.5 134.0031,544.7813 Q134.3,545.0625 134.3,545.7188 L134.3,547.2813 Q134.3,547.9375 134.0188,548.2188 Q133.7375,548.5 133.3,548.5 Q132.9094,548.5 132.6594,548.3281 Q132.4094,548.1563 132.3,547.7031 Q132.2531,547.3906 132.0813,547.2188 Q131.7688,546.8906 131.2063,546.7031 Q130.6438,546.5 130.0813,546.5 Q129.3781,546.5 128.7844,546.7813 Q128.2063,547.0625 127.7531,547.6875 Q127.3,548.3125 127.3,549.1719 L127.3,550.0938 Q127.3,551.125 128.1438,551.8125 Q128.9875,552.5 130.4875,552.5 Q131.3781,552.5 132.0031,552.2969 Q132.3625,552.1875 132.7688,551.8281 Q133.0344,551.625 133.175,551.5625 Q133.3156,551.5 133.4875,551.5 Q133.8156,551.5 134.05,551.7656 Q134.3,552.0156 134.3,552.375 Q134.3,552.7188 133.9563,553.125 Q133.4563,553.7188 132.6594,554.0469 Q131.6125,554.5 130.3313,554.5 Q128.8313,554.5 127.6281,553.9063 Q126.6594,553.4375 125.9719,552.4219 Q125.3,551.4063 125.3,550.2031 L125.3,549.1094 Q125.3,547.8594 125.8938,546.7656 Q126.5031,545.6719 127.55,545.0938 Q128.6125,544.5 129.8,544.5 Q130.5188,544.5 131.1438,544.75 Q131.7688,545 132.3,545.5 Z " fill="#000000"/><text fill="#000000" font-family="sans-serif" font-size="12" lengthAdjust="spacing" textLength="90" x="149.7" y="553.9102">BstShipLocation</text><line style="stroke:#A80036;stroke-width:1.5;" x1="92" x2="266" y1="565" y2="565"/><line style="stroke:#A80036;stroke-width:1.5;" x1="92" x2="266" y1="573" y2="573"/><ellipse cx="102" cy="584" fill="#84BE84" rx="3" ry="3" style="stroke:#038048;stroke-width:1.0;"/><text fill="#000000" font-family="sans-serif" font-size="11" lengthAdjust="spacing" textLength="150" x="111" y="588.4189">getTotalNumberOfMovements()</text><ellipse cx="102" cy="597.8359" fill="#84BE84" rx="3" ry="3" style="stroke:#038048;stroke-width:1.0;"/><text fill="#000000" font-family="sans-serif" font-size="11" lengthAdjust="spacing" textLength="109" x="111" y="602.2549">getTravelledDistance()</text><ellipse cx="102" cy="611.6719" fill="#84BE84" rx="3" ry="3" style="stroke:#038048;stroke-width:1.0;"/><text fill="#000000" font-family="sans-serif" font-size="11" lengthAdjust="spacing" textLength="89" x="111" y="616.0908">getDeltaDistance()</text><!--MD5=[b89bf2a6b23953433f8a6a1db696fe42]
class BriefSummary--><rect codeLine="26" fill="#FEFECE" filter="url(#ftqss0o80mhpd)" height="103.3438" id="BriefSummary" style="stroke:#A80036;stroke-width:1.5;" width="170" x="94" y="701"/><ellipse cx="136" cy="717" fill="#ADD1B2" rx="11" ry="11" style="stroke:#A80036;stroke-width:1.0;"/><path d="M138,713.5 Q138.2031,713 138.4375,712.75 Q138.6719,712.5 138.9375,712.5 Q139.4063,712.5 139.7031,712.7813 Q140,713.0625 140,713.7188 L140,715.2813 Q140,715.9375 139.7188,716.2188 Q139.4375,716.5 139,716.5 Q138.6094,716.5 138.3594,716.3281 Q138.1094,716.1563 138,715.7031 Q137.9531,715.3906 137.7813,715.2188 Q137.4688,714.8906 136.9063,714.7031 Q136.3438,714.5 135.7813,714.5 Q135.0781,714.5 134.4844,714.7813 Q133.9063,715.0625 133.4531,715.6875 Q133,716.3125 133,717.1719 L133,718.0938 Q133,719.125 133.8438,719.8125 Q134.6875,720.5 136.1875,720.5 Q137.0781,720.5 137.7031,720.2969 Q138.0625,720.1875 138.4688,719.8281 Q138.7344,719.625 138.875,719.5625 Q139.0156,719.5 139.1875,719.5 Q139.5156,719.5 139.75,719.7656 Q140,720.0156 140,720.375 Q140,720.7188 139.6563,721.125 Q139.1563,721.7188 138.3594,722.0469 Q137.3125,722.5 136.0313,722.5 Q134.5313,722.5 133.3281,721.9063 Q132.3594,721.4375 131.6719,720.4219 Q131,719.4063 131,718.2031 L131,717.1094 Q131,715.8594 131.5938,714.7656 Q132.2031,713.6719 133.25,713.0938 Q134.3125,712.5 135.5,712.5 Q136.2188,712.5 136.8438,712.75 Q137.4688,713 138,713.5 Z " fill="#000000"/><text fill="#000000" font-family="sans-serif" font-size="12" lengthAdjust="spacing" textLength="78" x="156" y="721.9102">BriefSummary</text><line style="stroke:#A80036;stroke-width:1.5;" x1="95" x2="263" y1="733" y2="733"/><rect fill="none" height="6" style="stroke:#C82930;stroke-width:1.0;" width="6" x="102" y="741"/><text fill="#000000" font-family="sans-serif" font-size="11" lengthAdjust="spacing" textLength="86" x="114" y="748.4189">mmsiCode : String</text><rect fill="none" height="6" style="stroke:#C82930;stroke-width:1.0;" width="6" x="102" y="754.8359"/><text fill="#000000" font-family="sans-serif" font-size="11" lengthAdjust="spacing" textLength="144" x="114" y="762.2549">totalNumberOfMovements : int</text><rect fill="none" height="6" style="stroke:#C82930;stroke-width:1.0;" width="6" x="102" y="768.6719"/><text fill="#000000" font-family="sans-serif" font-size="11" lengthAdjust="spacing" textLength="95" x="114" y="776.0908">deltaDistance : float</text><rect fill="none" height="6" style="stroke:#C82930;stroke-width:1.0;" width="6" x="102" y="782.5078"/><text fill="#000000" font-family="sans-serif" font-size="11" lengthAdjust="spacing" textLength="113" x="114" y="789.9268">travelledDistance : float</text><line style="stroke:#A80036;stroke-width:1.5;" x1="95" x2="263" y1="796.3438" y2="796.3438"/><!--MD5=[2b843c5d6fbd90494fca32824aa72ede]
link ListSomeShipDataUi to ListSomeShipDataController--><path codeLine="34" d="M102,55.07 C102,71.01 102,92.51 102,110.6 " fill="none" id="ListSomeShipDataUi-to-ListSomeShipDataController" style="stroke:#A80036;stroke-width:1.0;stroke-dasharray:7.0,7.0;"/><polygon fill="#A80036" points="102,115.61,106,106.61,102,110.61,98,106.61,102,115.61" style="stroke:#A80036;stroke-width:1.0;"/><!--MD5=[7c8ee5e634ce47b91d6be2d4e4ec0d0e]
link ListSomeShipDataController to Company--><path codeLine="35" d="M102,178.22 C102,194.97 102,215.89 102,233.42 " fill="none" id="ListSomeShipDataController-to-Company" style="stroke:#A80036;stroke-width:1.0;stroke-dasharray:7.0,7.0;"/><polygon fill="#A80036" points="102,238.74,106,229.74,102,233.74,98,229.74,102,238.74" style="stroke:#A80036;stroke-width:1.0;"/><!--MD5=[37a14a5de6d6fd738aee271300f4b5c8]
link Company to Ship--><path codeLine="36" d="M117.95,301.04 C129.19,322.2 144.37,350.79 156.79,374.17 " fill="none" id="Company-to-Ship" style="stroke:#A80036;stroke-width:1.0;"/><polygon fill="#A80036" points="159.23,378.78,158.5439,368.9551,156.886,374.3635,151.4775,372.7055,159.23,378.78" style="stroke:#A80036;stroke-width:1.0;"/><text fill="#000000" font-family="sans-serif" font-size="13" lengthAdjust="spacing" textLength="30" x="143" y="345.4951">owns</text><!--MD5=[14fdb76946ac0c0eabf5d41702e30a18]
link Company to BstShip--><path codeLine="37" d="M89.35,301.01 C85.51,310.53 81.41,321.14 78,331 C72.39,347.19 66.93,365.39 62.55,380.78 " fill="none" id="Company-to-BstShip" style="stroke:#A80036;stroke-width:1.0;"/><polygon fill="#A80036" points="61.11,385.88,67.4019,378.3029,62.4666,381.0676,59.702,376.1323,61.11,385.88" style="stroke:#A80036;stroke-width:1.0;"/><text fill="#000000" font-family="sans-serif" font-size="13" lengthAdjust="spacing" textLength="28" x="79" y="345.4951">uses</text><!--MD5=[2e6333b7238471e275f240dd5244832b]
link Ship to BstShipLocation--><path codeLine="38" d="M179,455.28 C179,476.87 179,504.31 179,527.67 " fill="none" id="Ship-to-BstShipLocation" style="stroke:#A80036;stroke-width:1.0;"/><polygon fill="#A80036" points="179,532.9,183,523.9,179,527.9,175,523.9,179,532.9" style="stroke:#A80036;stroke-width:1.0;"/><text fill="#000000" font-family="sans-serif" font-size="13" lengthAdjust="spacing" textLength="21" x="180" y="499.4951">has</text><!--MD5=[3c51872893ff89d961f0e6f85f47d4d5]
link BstShipLocation to BriefSummary--><path codeLine="39" d="M179,623.42 C179,645.42 179,672.2 179,695.58 " fill="none" id="BstShipLocation-to-BriefSummary" style="stroke:#A80036;stroke-width:1.0;"/><polygon fill="#A80036" points="179,700.82,183,691.82,179,695.82,175,691.82,179,700.82" style="stroke:#A80036;stroke-width:1.0;"/><text fill="#000000" font-family="sans-serif" font-size="13" lengthAdjust="spacing" textLength="50" x="180" y="667.4951">generate</text><!--MD5=[c61044a90761b4a75bcba3bcaff96098]
@startuml
'https://plantuml.com/use-case-diagram

class ListSomeShipDataUi{

}
class ListSomeShipDataController{
+ getShipByList()
}
class Company{
+ getBstShip()

}
class BstShip{
+ inOrder()
}
class Ship{
+ getMmsiCode()
+ getShipPosition()
}
class BstShipLocation{
+ getTotalNumberOfMovements()
+ getTravelledDistance()
+ getDeltaDistance()
}

class BriefSummary{
- mmsiCode : String 
- totalNumberOfMovements : int 
- deltaDistance : float 
- travelledDistance : float
}


ListSomeShipDataUi ..> ListSomeShipDataController
ListSomeShipDataController ..> Company
Company - -> Ship : owns 
Company - -> BstShip : uses 
Ship - -> BstShipLocation : has 
BstShipLocation - -> BriefSummary : generate 

@enduml

@startuml

class ListSomeShipDataUi{

}
class ListSomeShipDataController{
+ getShipByList()
}
class Company{
+ getBstShip()

}
class BstShip{
+ inOrder()
}
class Ship{
+ getMmsiCode()
+ getShipPosition()
}
class BstShipLocation{
+ getTotalNumberOfMovements()
+ getTravelledDistance()
+ getDeltaDistance()
}

class BriefSummary{
- mmsiCode : String 
- totalNumberOfMovements : int 
- deltaDistance : float 
- travelledDistance : float
}


ListSomeShipDataUi ..> ListSomeShipDataController
ListSomeShipDataController ..> Company
Company - -> Ship : owns 
Company - -> BstShip : uses 
Ship - -> BstShipLocation : has 
BstShipLocation - -> BriefSummary : generate 

@enduml

PlantUML version 1.2021.11(Sat Oct 02 14:26:11 BST 2021)
(GPL source distribution)
Java Runtime: OpenJDK Runtime Environment
JVM: OpenJDK 64-Bit Server VM
Default Encoding: Cp1252
Language: pt
Country: PT
--></g></svg>