<?xml version="1.0" encoding="UTF-8" standalone="no"?><svg xmlns="http://www.w3.org/2000/svg" xmlns:xlink="http://www.w3.org/1999/xlink" contentScriptType="application/ecmascript" contentStyleType="text/css" height="345px" preserveAspectRatio="none" style="width:364px;height:345px;background:#FFFFFF;" version="1.1" viewBox="0 0 364 345" width="364px" zoomAndPan="magnify"><defs><filter height="300%" id="f1s68go17aq53q" width="300%" x="-1" y="-1"><feGaussianBlur result="blurOut" stdDeviation="2.0"/><feColorMatrix in="blurOut" result="blurOut2" type="matrix" values="0 0 0 0 0 0 0 0 0 0 0 0 0 0 0 0 0 0 .4 0"/><feOffset dx="4.0" dy="4.0" in="blurOut2" result="blurOut3"/><feBlend in="SourceGraphic" in2="blurOut3" mode="normal"/></filter></defs><g><!--MD5=[aedf80f5550967f2ee5ca16deb50ccdc]
class LoadUnloadUI--><rect codeLine="3" fill="#FEFECE" filter="url(#f1s68go17aq53q)" height="48" id="LoadUnloadUI" style="stroke:#A80036;stroke-width:1.5;" width="112" x="28" y="7"/><ellipse cx="43" cy="23" fill="#ADD1B2" rx="11" ry="11" style="stroke:#A80036;stroke-width:1.0;"/><path d="M45,19.5 Q45.2031,19 45.4375,18.75 Q45.6719,18.5 45.9375,18.5 Q46.4063,18.5 46.7031,18.7813 Q47,19.0625 47,19.7188 L47,21.2813 Q47,21.9375 46.7188,22.2188 Q46.4375,22.5 46,22.5 Q45.6094,22.5 45.3594,22.3281 Q45.1094,22.1563 45,21.7031 Q44.9531,21.3906 44.7813,21.2188 Q44.4688,20.8906 43.9063,20.7031 Q43.3438,20.5 42.7813,20.5 Q42.0781,20.5 41.4844,20.7813 Q40.9063,21.0625 40.4531,21.6875 Q40,22.3125 40,23.1719 L40,24.0938 Q40,25.125 40.8438,25.8125 Q41.6875,26.5 43.1875,26.5 Q44.0781,26.5 44.7031,26.2969 Q45.0625,26.1875 45.4688,25.8281 Q45.7344,25.625 45.875,25.5625 Q46.0156,25.5 46.1875,25.5 Q46.5156,25.5 46.75,25.7656 Q47,26.0156 47,26.375 Q47,26.7188 46.6563,27.125 Q46.1563,27.7188 45.3594,28.0469 Q44.3125,28.5 43.0313,28.5 Q41.5313,28.5 40.3281,27.9063 Q39.3594,27.4375 38.6719,26.4219 Q38,25.4063 38,24.2031 L38,23.1094 Q38,21.8594 38.5938,20.7656 Q39.2031,19.6719 40.25,19.0938 Q41.3125,18.5 42.5,18.5 Q43.2188,18.5 43.8438,18.75 Q44.4688,19 45,19.5 Z " fill="#000000"/><text fill="#000000" font-family="sans-serif" font-size="12" lengthAdjust="spacing" textLength="80" x="57" y="27.9102">LoadUnloadUI</text><line style="stroke:#A80036;stroke-width:1.5;" x1="29" x2="139" y1="39" y2="39"/><line style="stroke:#A80036;stroke-width:1.5;" x1="29" x2="139" y1="47" y2="47"/><!--MD5=[77a3e63c46b732492ba296454873ab1f]
class LoadUnloadController--><rect codeLine="7" fill="#FEFECE" filter="url(#f1s68go17aq53q)" height="61.8359" id="LoadUnloadController" style="stroke:#A80036;stroke-width:1.5;" width="154" x="7" y="123"/><ellipse cx="22" cy="139" fill="#ADD1B2" rx="11" ry="11" style="stroke:#A80036;stroke-width:1.0;"/><path d="M24,135.5 Q24.2031,135 24.4375,134.75 Q24.6719,134.5 24.9375,134.5 Q25.4063,134.5 25.7031,134.7813 Q26,135.0625 26,135.7188 L26,137.2813 Q26,137.9375 25.7188,138.2188 Q25.4375,138.5 25,138.5 Q24.6094,138.5 24.3594,138.3281 Q24.1094,138.1563 24,137.7031 Q23.9531,137.3906 23.7813,137.2188 Q23.4688,136.8906 22.9063,136.7031 Q22.3438,136.5 21.7813,136.5 Q21.0781,136.5 20.4844,136.7813 Q19.9063,137.0625 19.4531,137.6875 Q19,138.3125 19,139.1719 L19,140.0938 Q19,141.125 19.8438,141.8125 Q20.6875,142.5 22.1875,142.5 Q23.0781,142.5 23.7031,142.2969 Q24.0625,142.1875 24.4688,141.8281 Q24.7344,141.625 24.875,141.5625 Q25.0156,141.5 25.1875,141.5 Q25.5156,141.5 25.75,141.7656 Q26,142.0156 26,142.375 Q26,142.7188 25.6563,143.125 Q25.1563,143.7188 24.3594,144.0469 Q23.3125,144.5 22.0313,144.5 Q20.5313,144.5 19.3281,143.9063 Q18.3594,143.4375 17.6719,142.4219 Q17,141.4063 17,140.2031 L17,139.1094 Q17,137.8594 17.5938,136.7656 Q18.2031,135.6719 19.25,135.0938 Q20.3125,134.5 21.5,134.5 Q22.2188,134.5 22.8438,134.75 Q23.4688,135 24,135.5 Z " fill="#000000"/><text fill="#000000" font-family="sans-serif" font-size="12" lengthAdjust="spacing" textLength="122" x="36" y="143.9102">LoadUnloadController</text><line style="stroke:#A80036;stroke-width:1.5;" x1="8" x2="160" y1="155" y2="155"/><line style="stroke:#A80036;stroke-width:1.5;" x1="8" x2="160" y1="163" y2="163"/><ellipse cx="18" cy="174" fill="#84BE84" rx="3" ry="3" style="stroke:#038048;stroke-width:1.0;"/><text fill="#000000" font-family="sans-serif" font-size="11" lengthAdjust="spacing" textLength="120" x="27" y="178.4189">createUS205(mmsiCode)</text><!--MD5=[90b796d63b6b3040cd4d0f38563823bb]
class US205--><rect codeLine="12" fill="#FEFECE" filter="url(#f1s68go17aq53q)" height="75.6719" id="US205" style="stroke:#A80036;stroke-width:1.5;" width="120" x="196" y="116"/><ellipse cx="233.5" cy="132" fill="#ADD1B2" rx="11" ry="11" style="stroke:#A80036;stroke-width:1.0;"/><path d="M235.5,128.5 Q235.7031,128 235.9375,127.75 Q236.1719,127.5 236.4375,127.5 Q236.9063,127.5 237.2031,127.7813 Q237.5,128.0625 237.5,128.7188 L237.5,130.2813 Q237.5,130.9375 237.2188,131.2188 Q236.9375,131.5 236.5,131.5 Q236.1094,131.5 235.8594,131.3281 Q235.6094,131.1563 235.5,130.7031 Q235.4531,130.3906 235.2813,130.2188 Q234.9688,129.8906 234.4063,129.7031 Q233.8438,129.5 233.2813,129.5 Q232.5781,129.5 231.9844,129.7813 Q231.4063,130.0625 230.9531,130.6875 Q230.5,131.3125 230.5,132.1719 L230.5,133.0938 Q230.5,134.125 231.3438,134.8125 Q232.1875,135.5 233.6875,135.5 Q234.5781,135.5 235.2031,135.2969 Q235.5625,135.1875 235.9688,134.8281 Q236.2344,134.625 236.375,134.5625 Q236.5156,134.5 236.6875,134.5 Q237.0156,134.5 237.25,134.7656 Q237.5,135.0156 237.5,135.375 Q237.5,135.7188 237.1563,136.125 Q236.6563,136.7188 235.8594,137.0469 Q234.8125,137.5 233.5313,137.5 Q232.0313,137.5 230.8281,136.9063 Q229.8594,136.4375 229.1719,135.4219 Q228.5,134.4063 228.5,133.2031 L228.5,132.1094 Q228.5,130.8594 229.0938,129.7656 Q229.7031,128.6719 230.75,128.0938 Q231.8125,127.5 233,127.5 Q233.7188,127.5 234.3438,127.75 Q234.9688,128 235.5,128.5 Z " fill="#000000"/><text fill="#000000" font-family="sans-serif" font-size="12" lengthAdjust="spacing" textLength="38" x="252.5" y="136.9102">US205</text><line style="stroke:#A80036;stroke-width:1.5;" x1="197" x2="315" y1="148" y2="148"/><line style="stroke:#A80036;stroke-width:1.5;" x1="197" x2="315" y1="156" y2="156"/><rect fill="#F24D5C" height="6" style="stroke:#C82930;stroke-width:1.0;" width="6" x="204" y="164"/><text fill="#000000" font-family="sans-serif" font-size="11" lengthAdjust="spacing" textLength="94" x="216" y="171.4189">initialize(mmsiCode)</text><ellipse cx="207" cy="180.8359" fill="#84BE84" rx="3" ry="3" style="stroke:#038048;stroke-width:1.0;"/><text fill="#000000" font-family="sans-serif" font-size="11" lengthAdjust="spacing" textLength="45" x="216" y="185.2549">toString()</text><!--MD5=[c4c1f95cf25890b8d906953e22c853cc]
class WriteForAFile--><rect codeLine="18" fill="#FEFECE" filter="url(#f1s68go17aq53q)" height="61.8359" id="WriteForAFile" style="stroke:#A80036;stroke-width:1.5;" width="188" x="162" y="270"/><ellipse cx="215.25" cy="286" fill="#ADD1B2" rx="11" ry="11" style="stroke:#A80036;stroke-width:1.0;"/><path d="M217.25,282.5 Q217.4531,282 217.6875,281.75 Q217.9219,281.5 218.1875,281.5 Q218.6563,281.5 218.9531,281.7813 Q219.25,282.0625 219.25,282.7188 L219.25,284.2813 Q219.25,284.9375 218.9688,285.2188 Q218.6875,285.5 218.25,285.5 Q217.8594,285.5 217.6094,285.3281 Q217.3594,285.1563 217.25,284.7031 Q217.2031,284.3906 217.0313,284.2188 Q216.7188,283.8906 216.1563,283.7031 Q215.5938,283.5 215.0313,283.5 Q214.3281,283.5 213.7344,283.7813 Q213.1563,284.0625 212.7031,284.6875 Q212.25,285.3125 212.25,286.1719 L212.25,287.0938 Q212.25,288.125 213.0938,288.8125 Q213.9375,289.5 215.4375,289.5 Q216.3281,289.5 216.9531,289.2969 Q217.3125,289.1875 217.7188,288.8281 Q217.9844,288.625 218.125,288.5625 Q218.2656,288.5 218.4375,288.5 Q218.7656,288.5 219,288.7656 Q219.25,289.0156 219.25,289.375 Q219.25,289.7188 218.9063,290.125 Q218.4063,290.7188 217.6094,291.0469 Q216.5625,291.5 215.2813,291.5 Q213.7813,291.5 212.5781,290.9063 Q211.6094,290.4375 210.9219,289.4219 Q210.25,288.4063 210.25,287.2031 L210.25,286.1094 Q210.25,284.8594 210.8438,283.7656 Q211.4531,282.6719 212.5,282.0938 Q213.5625,281.5 214.75,281.5 Q215.4688,281.5 216.0938,281.75 Q216.7188,282 217.25,282.5 Z " fill="#000000"/><text fill="#000000" font-family="sans-serif" font-size="12" lengthAdjust="spacing" textLength="73" x="235.75" y="290.9102">WriteForAFile</text><line style="stroke:#A80036;stroke-width:1.5;" x1="163" x2="349" y1="302" y2="302"/><line style="stroke:#A80036;stroke-width:1.5;" x1="163" x2="349" y1="310" y2="310"/><ellipse cx="173" cy="321" fill="#84BE84" rx="3" ry="3" style="stroke:#038048;stroke-width:1.0;"/><text fill="#000000" font-family="sans-serif" font-size="11" lengthAdjust="spacing" textLength="162" x="182" y="325.4189">writeForAFiLe(textualInformation)</text><!--MD5=[197a066b59b6aed6fca21850b7ac6ae2]
link LoadUnloadUI to LoadUnloadController--><path codeLine="24" d="M84,55.04 C84,72.74 84,97.49 84,117.69 " fill="none" id="LoadUnloadUI-to-LoadUnloadController" style="stroke:#A80036;stroke-width:1.0;stroke-dasharray:7.0,7.0;"/><polygon fill="#A80036" points="84,122.72,88,113.72,84,117.72,80,113.72,84,122.72" style="stroke:#A80036;stroke-width:1.0;"/><!--MD5=[b92bf8b83af3f9eca8376696bcce0a6e]
link LoadUnloadController to US205--><path codeLine="25" d="M161.27,154 C171.03,154 180.8,154 190.57,154 " fill="none" id="LoadUnloadController-to-US205" style="stroke:#A80036;stroke-width:1.0;"/><polygon fill="#A80036" points="195.68,154,186.68,150,190.68,154,186.68,158,195.68,154" style="stroke:#A80036;stroke-width:1.0;"/><!--MD5=[13ef01235fc380b860129ce23b9fb49b]
link US205 to WriteForAFile--><path codeLine="26" d="M256,192.34 C256,214.56 256,242.59 256,264.48 " fill="none" id="US205-to-WriteForAFile" style="stroke:#A80036;stroke-width:1.0;"/><polygon fill="#A80036" points="256,269.62,260,260.62,256,264.62,252,260.62,256,269.62" style="stroke:#A80036;stroke-width:1.0;"/><text fill="#000000" font-family="sans-serif" font-size="13" lengthAdjust="spacing" textLength="28" x="257" y="236.4951">uses</text><!--MD5=[de9e6b633f28029cbd263f39076c7557]
@startuml
'https://plantuml.com/class-diagram

class LoadUnloadUI{

}

class LoadUnloadController{
+ createUS205(mmsiCode)
}


class US205 {
- initialize(mmsiCode)
+ toString()

}

class WriteForAFile{
+ writeForAFiLe(textualInformation)

}


LoadUnloadUI ..> LoadUnloadController
LoadUnloadController -> US205
US205 - -> WriteForAFile : uses

@enduml

@startuml

class LoadUnloadUI{

}

class LoadUnloadController{
+ createUS205(mmsiCode)
}


class US205 {
- initialize(mmsiCode)
+ toString()

}

class WriteForAFile{
+ writeForAFiLe(textualInformation)

}


LoadUnloadUI ..> LoadUnloadController
LoadUnloadController -> US205
US205 - -> WriteForAFile : uses

@enduml

PlantUML version 1.2021.11(Sat Oct 02 14:26:11 BST 2021)
(GPL source distribution)
Java Runtime: OpenJDK Runtime Environment
JVM: OpenJDK 64-Bit Server VM
Default Encoding: Cp1252
Language: pt
Country: PT
--></g></svg>