<?xml version="1.0" encoding="UTF-8" standalone="no"?><svg xmlns="http://www.w3.org/2000/svg" xmlns:xlink="http://www.w3.org/1999/xlink" contentScriptType="application/ecmascript" contentStyleType="text/css" height="1822.5px" preserveAspectRatio="none" style="width:3102px;height:1822px;" version="1.1" viewBox="0 0 3102 1822" width="3102px" zoomAndPan="magnify"><defs><filter height="300%" id="fve5o2bf46f5r" width="300%" x="-1" y="-1"><feGaussianBlur result="blurOut" stdDeviation="3.0"/><feColorMatrix in="blurOut" result="blurOut2" type="matrix" values="0 0 0 0 0 0 0 0 0 0 0 0 0 0 0 0 0 0 .4 0"/><feOffset dx="6.0" dy="6.0" in="blurOut2" result="blurOut3"/><feBlend in="SourceGraphic" in2="blurOut3" mode="normal"/></filter></defs><g><rect fill="#FFFFFF" filter="url(#fve5o2bf46f5r)" height="1532.0156" style="stroke:#A80036;stroke-width:1.5;" width="15" x="69" y="149.4141"/><rect fill="#FFFFFF" filter="url(#fve5o2bf46f5r)" height="45.5273" style="stroke:#A80036;stroke-width:1.5;" width="15" x="594" y="182.9414"/><rect fill="#FFFFFF" filter="url(#fve5o2bf46f5r)" height="1407.4336" style="stroke:#A80036;stroke-width:1.5;" width="15" x="594" y="273.9961"/><rect fill="#FFFFFF" filter="url(#fve5o2bf46f5r)" height="90.5273" style="stroke:#A80036;stroke-width:1.5;" width="15" x="933" y="319.5234"/><rect fill="#FFFFFF" filter="url(#fve5o2bf46f5r)" height="1166.8242" style="stroke:#A80036;stroke-width:1.5;" width="15" x="933" y="455.5781"/><rect fill="#FFFFFF" filter="url(#fve5o2bf46f5r)" height="45" style="stroke:#A80036;stroke-width:1.5;" width="15" x="1323" y="365.0508"/><rect fill="#FFFFFF" filter="url(#fve5o2bf46f5r)" height="1075.7695" style="stroke:#A80036;stroke-width:1.5;" width="15" x="1323" y="501.1055"/><rect fill="#FFFFFF" filter="url(#fve5o2bf46f5r)" height="45" style="stroke:#A80036;stroke-width:1.5;" width="15" x="1515" y="584.6602"/><rect fill="#FFFFFF" filter="url(#fve5o2bf46f5r)" height="45" style="stroke:#A80036;stroke-width:1.5;" width="15" x="1515" y="675.1875"/><rect fill="#FFFFFF" filter="url(#fve5o2bf46f5r)" height="45" style="stroke:#A80036;stroke-width:1.5;" width="15" x="1765.5" y="765.7148"/><rect fill="#FFFFFF" filter="url(#fve5o2bf46f5r)" height="45" style="stroke:#A80036;stroke-width:1.5;" width="15" x="1765.5" y="894.2695"/><rect fill="#FFFFFF" filter="url(#fve5o2bf46f5r)" height="45" style="stroke:#A80036;stroke-width:1.5;" width="15" x="2428.5" y="1065.2109"/><rect fill="#FFFFFF" filter="url(#fve5o2bf46f5r)" height="45" style="stroke:#A80036;stroke-width:1.5;" width="15" x="2428.5" y="1155.7383"/><rect fill="#FFFFFF" filter="url(#fve5o2bf46f5r)" height="45" style="stroke:#A80036;stroke-width:1.5;" width="15" x="2717.25" y="1284.293"/><rect fill="#FFFFFF" filter="url(#fve5o2bf46f5r)" height="45" style="stroke:#A80036;stroke-width:1.5;" width="15" x="2717.25" y="1486.3477"/><rect fill="#FFFFFF" filter="url(#fve5o2bf46f5r)" height="45" style="stroke:#A80036;stroke-width:1.5;" width="15" x="2926.5" y="1374.8203"/><rect fill="#FFFFFF" filter="url(#fve5o2bf46f5r)" height="918.7148" style="stroke:#000000;stroke-width:3.0;" width="1845.75" x="1235.25" y="523.6055"/><rect fill="#FFFFFF" filter="url(#fve5o2bf46f5r)" height="118.0547" style="stroke:#000000;stroke-width:3.0;" width="617.25" x="1250.25" y="833.2148"/><rect fill="#FFFFFF" filter="url(#fve5o2bf46f5r)" height="208.582" style="stroke:#000000;stroke-width:3.0;" width="1815.75" x="1250.25" y="1223.2383"/><line style="stroke:#A80036;stroke-width:1.5;stroke-dasharray:5.0,5.0;" x1="76.5" x2="76.5" y1="134.4141" y2="1694.9297"/><line style="stroke:#A80036;stroke-width:1.5;stroke-dasharray:5.0,5.0;" x1="600.75" x2="600.75" y1="134.4141" y2="1694.9297"/><line style="stroke:#A80036;stroke-width:1.5;stroke-dasharray:5.0,5.0;" x1="939.75" x2="939.75" y1="134.4141" y2="1694.9297"/><line style="stroke:#A80036;stroke-width:1.5;stroke-dasharray:5.0,5.0;" x1="1329.75" x2="1329.75" y1="134.4141" y2="1694.9297"/><line style="stroke:#A80036;stroke-width:1.5;stroke-dasharray:5.0,5.0;" x1="1522.5" x2="1522.5" y1="134.4141" y2="1694.9297"/><line style="stroke:#A80036;stroke-width:1.5;stroke-dasharray:5.0,5.0;" x1="1773" x2="1773" y1="134.4141" y2="1694.9297"/><line style="stroke:#A80036;stroke-width:1.5;stroke-dasharray:5.0,5.0;" x1="1956" x2="1956" y1="134.4141" y2="1694.9297"/><line style="stroke:#A80036;stroke-width:1.5;stroke-dasharray:5.0,5.0;" x1="2209.5" x2="2209.5" y1="1011.7266" y2="1694.9297"/><line style="stroke:#A80036;stroke-width:1.5;stroke-dasharray:5.0,5.0;" x1="2436" x2="2436" y1="134.4141" y2="1694.9297"/><line style="stroke:#A80036;stroke-width:1.5;stroke-dasharray:5.0,5.0;" x1="2572.5" x2="2572.5" y1="134.4141" y2="1694.9297"/><line style="stroke:#A80036;stroke-width:1.5;stroke-dasharray:5.0,5.0;" x1="2724" x2="2724" y1="134.4141" y2="1694.9297"/><line style="stroke:#A80036;stroke-width:1.5;stroke-dasharray:5.0,5.0;" x1="2934" x2="2934" y1="134.4141" y2="1694.9297"/><text fill="#000000" font-family="sans-serif" font-size="21" lengthAdjust="spacing" textLength="129" x="7.5" y="129.7998">Port Manager</text><ellipse cx="76.5" cy="22.5" fill="#FEFECE" filter="url(#fve5o2bf46f5r)" rx="12" ry="12" style="stroke:#A80036;stroke-width:3.0;"/><path d="M76.5,34.5 L76.5,75 M57,46.5 L96,46.5 M76.5,75 L57,97.5 M76.5,75 L96,97.5 " fill="none" filter="url(#fve5o2bf46f5r)" style="stroke:#A80036;stroke-width:3.0;"/><text fill="#000000" font-family="sans-serif" font-size="21" lengthAdjust="spacing" textLength="129" x="7.5" y="1715.2295">Port Manager</text><ellipse cx="76.5" cy="1734.8438" fill="#FEFECE" filter="url(#fve5o2bf46f5r)" rx="12" ry="12" style="stroke:#A80036;stroke-width:3.0;"/><path d="M76.5,1746.8438 L76.5,1787.3438 M57,1758.8438 L96,1758.8438 M76.5,1787.3438 L57,1809.8438 M76.5,1787.3438 L96,1809.8438 " fill="none" filter="url(#fve5o2bf46f5r)" style="stroke:#A80036;stroke-width:3.0;"/><rect fill="#FEFECE" filter="url(#fve5o2bf46f5r)" height="47.4141" style="stroke:#A80036;stroke-width:2.25;" width="142.5" x="527.25" y="79.5"/><text fill="#000000" font-family="sans-serif" font-size="21" lengthAdjust="spacing" textLength="121.5" x="537.75" y="111.7998">:ImportPortUI</text><rect fill="#FEFECE" filter="url(#fve5o2bf46f5r)" height="47.4141" style="stroke:#A80036;stroke-width:2.25;" width="142.5" x="527.25" y="1693.4297"/><text fill="#000000" font-family="sans-serif" font-size="21" lengthAdjust="spacing" textLength="121.5" x="537.75" y="1725.7295">:ImportPortUI</text><rect fill="#FEFECE" filter="url(#fve5o2bf46f5r)" height="47.4141" style="stroke:#A80036;stroke-width:2.25;" width="217.5" x="828.75" y="79.5"/><text fill="#000000" font-family="sans-serif" font-size="21" lengthAdjust="spacing" textLength="196.5" x="839.25" y="111.7998">:ImportPortController</text><rect fill="#FEFECE" filter="url(#fve5o2bf46f5r)" height="47.4141" style="stroke:#A80036;stroke-width:2.25;" width="217.5" x="828.75" y="1693.4297"/><text fill="#000000" font-family="sans-serif" font-size="21" lengthAdjust="spacing" textLength="196.5" x="839.25" y="1725.7295">:ImportPortController</text><rect fill="#FEFECE" filter="url(#fve5o2bf46f5r)" height="47.4141" style="stroke:#A80036;stroke-width:2.25;" width="124.5" x="1265.25" y="79.5"/><text fill="#000000" font-family="sans-serif" font-size="21" lengthAdjust="spacing" textLength="103.5" x="1275.75" y="111.7998">:ImportPort</text><rect fill="#FEFECE" filter="url(#fve5o2bf46f5r)" height="47.4141" style="stroke:#A80036;stroke-width:2.25;" width="124.5" x="1265.25" y="1693.4297"/><text fill="#000000" font-family="sans-serif" font-size="21" lengthAdjust="spacing" textLength="103.5" x="1275.75" y="1725.7295">:ImportPort</text><rect fill="#FEFECE" filter="url(#fve5o2bf46f5r)" height="47.4141" style="stroke:#A80036;stroke-width:2.25;" width="117" x="1461" y="79.5"/><text fill="#000000" font-family="sans-serif" font-size="21" lengthAdjust="spacing" textLength="96" x="1471.5" y="111.7998">:Company</text><rect fill="#FEFECE" filter="url(#fve5o2bf46f5r)" height="47.4141" style="stroke:#A80036;stroke-width:2.25;" width="117" x="1461" y="1693.4297"/><text fill="#000000" font-family="sans-serif" font-size="21" lengthAdjust="spacing" textLength="96" x="1471.5" y="1725.7295">:Company</text><rect fill="#FEFECE" filter="url(#fve5o2bf46f5r)" height="47.4141" style="stroke:#A80036;stroke-width:2.25;" width="153" x="1693.5" y="79.5"/><text fill="#000000" font-family="sans-serif" font-size="21" lengthAdjust="spacing" textLength="132" x="1704" y="111.7998">:CountryStore</text><rect fill="#FEFECE" filter="url(#fve5o2bf46f5r)" height="47.4141" style="stroke:#A80036;stroke-width:2.25;" width="153" x="1693.5" y="1693.4297"/><text fill="#000000" font-family="sans-serif" font-size="21" lengthAdjust="spacing" textLength="132" x="1704" y="1725.7295">:CountryStore</text><rect fill="#FEFECE" filter="url(#fve5o2bf46f5r)" height="47.4141" style="stroke:#A80036;stroke-width:2.25;" width="172.5" x="1867.5" y="79.5"/><text fill="#000000" font-family="sans-serif" font-size="21" lengthAdjust="spacing" textLength="151.5" x="1878" y="111.7998">country:Country</text><rect fill="#FEFECE" filter="url(#fve5o2bf46f5r)" height="47.4141" style="stroke:#A80036;stroke-width:2.25;" width="172.5" x="1867.5" y="1693.4297"/><text fill="#000000" font-family="sans-serif" font-size="21" lengthAdjust="spacing" textLength="151.5" x="1878" y="1725.7295">country:Country</text><rect fill="#FEFECE" filter="url(#fve5o2bf46f5r)" height="47.4141" style="stroke:#A80036;stroke-width:2.25;" width="292.5" x="2061" y="1693.4297"/><text fill="#000000" font-family="sans-serif" font-size="21" lengthAdjust="spacing" textLength="271.5" x="2071.5" y="1725.7295">placeLocation:PlaceLocation</text><rect fill="#FEFECE" filter="url(#fve5o2bf46f5r)" height="47.4141" style="stroke:#A80036;stroke-width:2.25;" width="117" x="2374.5" y="79.5"/><text fill="#000000" font-family="sans-serif" font-size="21" lengthAdjust="spacing" textLength="96" x="2385" y="111.7998">:PortStore</text><rect fill="#FEFECE" filter="url(#fve5o2bf46f5r)" height="47.4141" style="stroke:#A80036;stroke-width:2.25;" width="117" x="2374.5" y="1693.4297"/><text fill="#000000" font-family="sans-serif" font-size="21" lengthAdjust="spacing" textLength="96" x="2385" y="1725.7295">:PortStore</text><rect fill="#FEFECE" filter="url(#fve5o2bf46f5r)" height="47.4141" style="stroke:#A80036;stroke-width:2.25;" width="114" x="2512.5" y="79.5"/><text fill="#000000" font-family="sans-serif" font-size="21" lengthAdjust="spacing" textLength="93" x="2523" y="111.7998">port:Ports</text><rect fill="#FEFECE" filter="url(#fve5o2bf46f5r)" height="47.4141" style="stroke:#A80036;stroke-width:2.25;" width="114" x="2512.5" y="1693.4297"/><text fill="#000000" font-family="sans-serif" font-size="21" lengthAdjust="spacing" textLength="93" x="2523" y="1725.7295">port:Ports</text><rect fill="#FEFECE" filter="url(#fve5o2bf46f5r)" height="47.4141" style="stroke:#A80036;stroke-width:2.25;" width="148.5" x="2647.5" y="79.5"/><text fill="#000000" font-family="sans-serif" font-size="21" lengthAdjust="spacing" textLength="127.5" x="2658" y="111.7998">:Ports2DTree</text><rect fill="#FEFECE" filter="url(#fve5o2bf46f5r)" height="47.4141" style="stroke:#A80036;stroke-width:2.25;" width="148.5" x="2647.5" y="1693.4297"/><text fill="#000000" font-family="sans-serif" font-size="21" lengthAdjust="spacing" textLength="127.5" x="2658" y="1725.7295">:Ports2DTree</text><rect fill="#FEFECE" filter="url(#fve5o2bf46f5r)" height="47.4141" style="stroke:#A80036;stroke-width:2.25;" width="228" x="2817" y="79.5"/><text fill="#000000" font-family="sans-serif" font-size="21" lengthAdjust="spacing" textLength="207" x="2827.5" y="111.7998">lst:List&lt;Nodes&lt;Port&gt;&gt;</text><rect fill="#FEFECE" filter="url(#fve5o2bf46f5r)" height="47.4141" style="stroke:#A80036;stroke-width:2.25;" width="228" x="2817" y="1693.4297"/><text fill="#000000" font-family="sans-serif" font-size="21" lengthAdjust="spacing" textLength="207" x="2827.5" y="1725.7295">lst:List&lt;Nodes&lt;Port&gt;&gt;</text><rect fill="#FFFFFF" filter="url(#fve5o2bf46f5r)" height="1532.0156" style="stroke:#A80036;stroke-width:1.5;" width="15" x="69" y="149.4141"/><rect fill="#FFFFFF" filter="url(#fve5o2bf46f5r)" height="45.5273" style="stroke:#A80036;stroke-width:1.5;" width="15" x="594" y="182.9414"/><rect fill="#FFFFFF" filter="url(#fve5o2bf46f5r)" height="1407.4336" style="stroke:#A80036;stroke-width:1.5;" width="15" x="594" y="273.9961"/><rect fill="#FFFFFF" filter="url(#fve5o2bf46f5r)" height="90.5273" style="stroke:#A80036;stroke-width:1.5;" width="15" x="933" y="319.5234"/><rect fill="#FFFFFF" filter="url(#fve5o2bf46f5r)" height="1166.8242" style="stroke:#A80036;stroke-width:1.5;" width="15" x="933" y="455.5781"/><rect fill="#FFFFFF" filter="url(#fve5o2bf46f5r)" height="45" style="stroke:#A80036;stroke-width:1.5;" width="15" x="1323" y="365.0508"/><rect fill="#FFFFFF" filter="url(#fve5o2bf46f5r)" height="1075.7695" style="stroke:#A80036;stroke-width:1.5;" width="15" x="1323" y="501.1055"/><rect fill="#FFFFFF" filter="url(#fve5o2bf46f5r)" height="45" style="stroke:#A80036;stroke-width:1.5;" width="15" x="1515" y="584.6602"/><rect fill="#FFFFFF" filter="url(#fve5o2bf46f5r)" height="45" style="stroke:#A80036;stroke-width:1.5;" width="15" x="1515" y="675.1875"/><rect fill="#FFFFFF" filter="url(#fve5o2bf46f5r)" height="45" style="stroke:#A80036;stroke-width:1.5;" width="15" x="1765.5" y="765.7148"/><rect fill="#FFFFFF" filter="url(#fve5o2bf46f5r)" height="45" style="stroke:#A80036;stroke-width:1.5;" width="15" x="1765.5" y="894.2695"/><rect fill="#FFFFFF" filter="url(#fve5o2bf46f5r)" height="45" style="stroke:#A80036;stroke-width:1.5;" width="15" x="2428.5" y="1065.2109"/><rect fill="#FFFFFF" filter="url(#fve5o2bf46f5r)" height="45" style="stroke:#A80036;stroke-width:1.5;" width="15" x="2428.5" y="1155.7383"/><rect fill="#FFFFFF" filter="url(#fve5o2bf46f5r)" height="45" style="stroke:#A80036;stroke-width:1.5;" width="15" x="2717.25" y="1284.293"/><rect fill="#FFFFFF" filter="url(#fve5o2bf46f5r)" height="45" style="stroke:#A80036;stroke-width:1.5;" width="15" x="2717.25" y="1486.3477"/><rect fill="#FFFFFF" filter="url(#fve5o2bf46f5r)" height="45" style="stroke:#A80036;stroke-width:1.5;" width="15" x="2926.5" y="1374.8203"/><polygon fill="#A80036" points="576,176.9414,591,182.9414,576,188.9414,582,182.9414" style="stroke:#A80036;stroke-width:1.5;"/><line style="stroke:#A80036;stroke-width:1.5;" x1="84" x2="585" y1="182.9414" y2="182.9414"/><text fill="#000000" font-family="sans-serif" font-size="19.5" font-weight="bold" lengthAdjust="spacing" textLength="10.5" x="94.5" y="175.6567">1</text><text fill="#000000" font-family="sans-serif" font-size="19.5" lengthAdjust="spacing" textLength="354" x="111" y="175.6567">import ports from a text file into a 2DTree</text><polygon fill="#A80036" points="100.5,222.4688,85.5,228.4688,100.5,234.4688,94.5,228.4688" style="stroke:#A80036;stroke-width:1.5;"/><line style="stroke:#A80036;stroke-width:1.5;stroke-dasharray:2.0,2.0;" x1="91.5" x2="600" y1="228.4688" y2="228.4688"/><text fill="#000000" font-family="sans-serif" font-size="19.5" font-weight="bold" lengthAdjust="spacing" textLength="10.5" x="109.5" y="221.1841">2</text><text fill="#000000" font-family="sans-serif" font-size="19.5" lengthAdjust="spacing" textLength="457.5" x="126" y="221.1841">requests the name of the .csv file containing the data</text><polygon fill="#A80036" points="576,267.9961,591,273.9961,576,279.9961,582,273.9961" style="stroke:#A80036;stroke-width:1.5;"/><line style="stroke:#A80036;stroke-width:1.5;" x1="84" x2="585" y1="273.9961" y2="273.9961"/><text fill="#000000" font-family="sans-serif" font-size="19.5" font-weight="bold" lengthAdjust="spacing" textLength="10.5" x="94.5" y="266.7114">3</text><text fill="#000000" font-family="sans-serif" font-size="19.5" lengthAdjust="spacing" textLength="142.5" x="111" y="266.7114">inserts file name</text><polygon fill="#A80036" points="915,313.5234,930,319.5234,915,325.5234,921,319.5234" style="stroke:#A80036;stroke-width:1.5;"/><line style="stroke:#A80036;stroke-width:1.5;" x1="609" x2="924" y1="319.5234" y2="319.5234"/><text fill="#000000" font-family="sans-serif" font-size="19.5" font-weight="bold" lengthAdjust="spacing" textLength="10.5" x="619.5" y="312.2388">4</text><text fill="#000000" font-family="sans-serif" font-size="19.5" lengthAdjust="spacing" textLength="172.5" x="636" y="312.2388">importFile(fileName)</text><polygon fill="#A80036" points="1305,359.0508,1320,365.0508,1305,371.0508,1311,365.0508" style="stroke:#A80036;stroke-width:1.5;"/><line style="stroke:#A80036;stroke-width:1.5;" x1="948" x2="1314" y1="365.0508" y2="365.0508"/><text fill="#000000" font-family="sans-serif" font-size="19.5" font-weight="bold" lengthAdjust="spacing" textLength="10.5" x="958.5" y="357.7661">5</text><text fill="#000000" font-family="sans-serif" font-size="19.5" lengthAdjust="spacing" textLength="330" x="975" y="357.7661">loadFile(nameOfTheFileToBeImported)</text><polygon fill="#A80036" points="915,449.5781,930,455.5781,915,461.5781,921,455.5781" style="stroke:#A80036;stroke-width:1.5;"/><line style="stroke:#A80036;stroke-width:1.5;" x1="609" x2="924" y1="455.5781" y2="455.5781"/><text fill="#000000" font-family="sans-serif" font-size="19.5" font-weight="bold" lengthAdjust="spacing" textLength="10.5" x="619.5" y="448.2935">6</text><text fill="#000000" font-family="sans-serif" font-size="19.5" lengthAdjust="spacing" textLength="112.5" x="636" y="448.2935">importPorts()</text><polygon fill="#A80036" points="1305,495.1055,1320,501.1055,1305,507.1055,1311,501.1055" style="stroke:#A80036;stroke-width:1.5;"/><line style="stroke:#A80036;stroke-width:1.5;" x1="948" x2="1314" y1="501.1055" y2="501.1055"/><text fill="#000000" font-family="sans-serif" font-size="19.5" font-weight="bold" lengthAdjust="spacing" textLength="10.5" x="958.5" y="493.8208">7</text><text fill="#000000" font-family="sans-serif" font-size="19.5" lengthAdjust="spacing" textLength="120" x="975" y="493.8208">convertPorts()</text><path d="M1235.25,523.6055 L1344.75,523.6055 L1344.75,535.6055 L1329.75,550.6055 L1235.25,550.6055 L1235.25,523.6055 " fill="#EEEEEE" style="stroke:#000000;stroke-width:1.5;"/><rect fill="none" height="918.7148" style="stroke:#000000;stroke-width:3.0;" width="1845.75" x="1235.25" y="523.6055"/><text fill="#000000" font-family="sans-serif" font-size="19.5" font-weight="bold" lengthAdjust="spacing" textLength="42" x="1257.75" y="545.3481">loop</text><text fill="#000000" font-family="sans-serif" font-size="16.5" font-weight="bold" lengthAdjust="spacing" textLength="201" x="1367.25" y="543.7339">[for each line on the file]</text><polygon fill="#A80036" points="1497,578.6602,1512,584.6602,1497,590.6602,1503,584.6602" style="stroke:#A80036;stroke-width:1.5;"/><line style="stroke:#A80036;stroke-width:1.5;" x1="1338" x2="1506" y1="584.6602" y2="584.6602"/><text fill="#000000" font-family="sans-serif" font-size="19.5" font-weight="bold" lengthAdjust="spacing" textLength="10.5" x="1348.5" y="577.3755">8</text><text fill="#000000" font-family="sans-serif" font-size="19.5" lengthAdjust="spacing" textLength="132" x="1365" y="577.3755">getCountryStr()</text><polygon fill="#A80036" points="1497,669.1875,1512,675.1875,1497,681.1875,1503,675.1875" style="stroke:#A80036;stroke-width:1.5;"/><line style="stroke:#A80036;stroke-width:1.5;" x1="1338" x2="1506" y1="675.1875" y2="675.1875"/><text fill="#000000" font-family="sans-serif" font-size="19.5" font-weight="bold" lengthAdjust="spacing" textLength="10.5" x="1348.5" y="667.9028">9</text><text fill="#000000" font-family="sans-serif" font-size="19.5" lengthAdjust="spacing" textLength="100.5" x="1365" y="667.9028">getPortStr()</text><polygon fill="#A80036" points="1747.5,759.7148,1762.5,765.7148,1747.5,771.7148,1753.5,765.7148" style="stroke:#A80036;stroke-width:1.5;"/><line style="stroke:#A80036;stroke-width:1.5;" x1="1338" x2="1756.5" y1="765.7148" y2="765.7148"/><text fill="#000000" font-family="sans-serif" font-size="19.5" font-weight="bold" lengthAdjust="spacing" textLength="21" x="1348.5" y="758.4302">10</text><text fill="#000000" font-family="sans-serif" font-size="19.5" lengthAdjust="spacing" textLength="372" x="1375.5" y="758.4302">country = getCountryByName(portArray[1])</text><path d="M1250.25,833.2148 L1341.75,833.2148 L1341.75,845.2148 L1326.75,860.2148 L1250.25,860.2148 L1250.25,833.2148 " fill="#EEEEEE" style="stroke:#000000;stroke-width:1.5;"/><rect fill="none" height="118.0547" style="stroke:#000000;stroke-width:3.0;" width="617.25" x="1250.25" y="833.2148"/><text fill="#000000" font-family="sans-serif" font-size="19.5" font-weight="bold" lengthAdjust="spacing" textLength="24" x="1272.75" y="854.9575">alt</text><text fill="#000000" font-family="sans-serif" font-size="16.5" font-weight="bold" lengthAdjust="spacing" textLength="132" x="1364.25" y="853.3433">[country == null]</text><polygon fill="#A80036" points="1747.5,888.2695,1762.5,894.2695,1747.5,900.2695,1753.5,894.2695" style="stroke:#A80036;stroke-width:1.5;"/><line style="stroke:#A80036;stroke-width:1.5;" x1="1338" x2="1756.5" y1="894.2695" y2="894.2695"/><text fill="#000000" font-family="sans-serif" font-size="19.5" font-weight="bold" lengthAdjust="spacing" textLength="21" x="1348.5" y="886.9849">11</text><text fill="#000000" font-family="sans-serif" font-size="19.5" lengthAdjust="spacing" textLength="343.5" x="1375.5" y="886.9849">createCountry(portArray[1],portArray[0])</text><polygon fill="#A80036" points="2043,989.2969,2058,995.2969,2043,1001.2969,2049,995.2969" style="stroke:#A80036;stroke-width:1.5;"/><line style="stroke:#A80036;stroke-width:1.5;stroke-dasharray:2.0,2.0;" x1="1338" x2="2052" y1="995.2969" y2="995.2969"/><text fill="#000000" font-family="sans-serif" font-size="19.5" font-weight="bold" lengthAdjust="spacing" textLength="21" x="1348.5" y="988.0122">12</text><text fill="#000000" font-family="sans-serif" font-size="19.5" lengthAdjust="spacing" textLength="276" x="1375.5" y="988.0122">create(portArray[4],portArray[5])</text><rect fill="#FEFECE" filter="url(#fve5o2bf46f5r)" height="47.4141" style="stroke:#A80036;stroke-width:2.25;" width="292.5" x="2061" y="961.7695"/><text fill="#000000" font-family="sans-serif" font-size="21" lengthAdjust="spacing" textLength="271.5" x="2071.5" y="994.0693">placeLocation:PlaceLocation</text><polygon fill="#A80036" points="2410.5,1059.2109,2425.5,1065.2109,2410.5,1071.2109,2416.5,1065.2109" style="stroke:#A80036;stroke-width:1.5;"/><line style="stroke:#A80036;stroke-width:1.5;stroke-dasharray:2.0,2.0;" x1="1338" x2="2419.5" y1="1065.2109" y2="1065.2109"/><text fill="#000000" font-family="sans-serif" font-size="19.5" font-weight="bold" lengthAdjust="spacing" textLength="21" x="1348.5" y="1057.9263">13</text><text fill="#000000" font-family="sans-serif" font-size="19.5" lengthAdjust="spacing" textLength="472.5" x="1375.5" y="1057.9263">create(country,portArray[2],portArray[3],placeLocation)</text><polygon fill="#A80036" points="2410.5,1149.7383,2425.5,1155.7383,2410.5,1161.7383,2416.5,1155.7383" style="stroke:#A80036;stroke-width:1.5;"/><line style="stroke:#A80036;stroke-width:1.5;" x1="1338" x2="2419.5" y1="1155.7383" y2="1155.7383"/><text fill="#000000" font-family="sans-serif" font-size="19.5" font-weight="bold" lengthAdjust="spacing" textLength="21" x="1348.5" y="1148.4536">14</text><text fill="#000000" font-family="sans-serif" font-size="19.5" lengthAdjust="spacing" textLength="178.5" x="1375.5" y="1148.4536">success =savePort()</text><path d="M1250.25,1223.2383 L1341.75,1223.2383 L1341.75,1235.2383 L1326.75,1250.2383 L1250.25,1250.2383 L1250.25,1223.2383 " fill="#EEEEEE" style="stroke:#000000;stroke-width:1.5;"/><rect fill="none" height="208.582" style="stroke:#000000;stroke-width:3.0;" width="1815.75" x="1250.25" y="1223.2383"/><text fill="#000000" font-family="sans-serif" font-size="19.5" font-weight="bold" lengthAdjust="spacing" textLength="24" x="1272.75" y="1244.981">alt</text><text fill="#000000" font-family="sans-serif" font-size="16.5" font-weight="bold" lengthAdjust="spacing" textLength="144" x="1364.25" y="1243.3667">[success == true]</text><polygon fill="#A80036" points="2699.25,1278.293,2714.25,1284.293,2699.25,1290.293,2705.25,1284.293" style="stroke:#A80036;stroke-width:1.5;"/><line style="stroke:#A80036;stroke-width:1.5;stroke-dasharray:2.0,2.0;" x1="1338" x2="2708.25" y1="1284.293" y2="1284.293"/><text fill="#000000" font-family="sans-serif" font-size="19.5" font-weight="bold" lengthAdjust="spacing" textLength="21" x="1348.5" y="1277.0083">15</text><text fill="#000000" font-family="sans-serif" font-size="19.5" lengthAdjust="spacing" textLength="231" x="1375.5" y="1277.0083">node = create Node&lt;Port&gt;</text><polygon fill="#A80036" points="2908.5,1368.8203,2923.5,1374.8203,2908.5,1380.8203,2914.5,1374.8203" style="stroke:#A80036;stroke-width:1.5;"/><line style="stroke:#A80036;stroke-width:1.5;" x1="1338" x2="2917.5" y1="1374.8203" y2="1374.8203"/><text fill="#000000" font-family="sans-serif" font-size="19.5" font-weight="bold" lengthAdjust="spacing" textLength="21" x="1348.5" y="1367.5356">16</text><text fill="#000000" font-family="sans-serif" font-size="19.5" lengthAdjust="spacing" textLength="85.5" x="1375.5" y="1367.5356">add(node)</text><polygon fill="#A80036" points="2699.25,1480.3477,2714.25,1486.3477,2699.25,1492.3477,2705.25,1486.3477" style="stroke:#A80036;stroke-width:1.5;"/><line style="stroke:#A80036;stroke-width:1.5;" x1="1338" x2="2708.25" y1="1486.3477" y2="1486.3477"/><text fill="#000000" font-family="sans-serif" font-size="19.5" font-weight="bold" lengthAdjust="spacing" textLength="21" x="1348.5" y="1479.063">17</text><text fill="#000000" font-family="sans-serif" font-size="19.5" lengthAdjust="spacing" textLength="138" x="1375.5" y="1479.063">balanceTree(lst)</text><polygon fill="#A80036" points="964.5,1570.875,949.5,1576.875,964.5,1582.875,958.5,1576.875" style="stroke:#A80036;stroke-width:1.5;"/><line style="stroke:#A80036;stroke-width:1.5;stroke-dasharray:2.0,2.0;" x1="955.5" x2="1329" y1="1576.875" y2="1576.875"/><text fill="#000000" font-family="sans-serif" font-size="19.5" font-weight="bold" lengthAdjust="spacing" textLength="21" x="973.5" y="1569.5903">18</text><text fill="#000000" font-family="sans-serif" font-size="19.5" lengthAdjust="spacing" textLength="261" x="1000.5" y="1569.5903">Informs the operation success</text><polygon fill="#A80036" points="625.5,1616.4023,610.5,1622.4023,625.5,1628.4023,619.5,1622.4023" style="stroke:#A80036;stroke-width:1.5;"/><line style="stroke:#A80036;stroke-width:1.5;stroke-dasharray:2.0,2.0;" x1="616.5" x2="939" y1="1622.4023" y2="1622.4023"/><text fill="#000000" font-family="sans-serif" font-size="19.5" font-weight="bold" lengthAdjust="spacing" textLength="21" x="634.5" y="1615.1177">19</text><text fill="#000000" font-family="sans-serif" font-size="19.5" lengthAdjust="spacing" textLength="261" x="661.5" y="1615.1177">Informs the operation success</text><polygon fill="#A80036" points="100.5,1661.9297,85.5,1667.9297,100.5,1673.9297,94.5,1667.9297" style="stroke:#A80036;stroke-width:1.5;"/><line style="stroke:#A80036;stroke-width:1.5;" x1="91.5" x2="592.5" y1="1667.9297" y2="1667.9297"/><text fill="#000000" font-family="sans-serif" font-size="19.5" font-weight="bold" lengthAdjust="spacing" textLength="21" x="109.5" y="1660.645">20</text><text fill="#000000" font-family="sans-serif" font-size="19.5" lengthAdjust="spacing" textLength="261" x="136.5" y="1660.645">Informs the operation success</text><!--MD5=[d60e4ff9a51a1f7f1dee026a252cd721]
@startuml

autonumber
actor "Port Manager" as PM

participant ":ImportPortUI" as ui
participant ":ImportPortController" as controller
participant ":ImportPort" as importPort
participant ":Company" as company
participant ":CountryStore" as str
participant "country:Country" as country
participant "placeLocation:PlaceLocation" as PL
participant ":PortStore" as pstore
participant "port:Ports" as Port
participant ":Ports2DTree" as tree
participant "lst:List<Nodes<Port>>" as lst

activate PM
PM -> ui : import ports from a text file into a 2DTree
activate ui
ui - -> PM : requests the name of the .csv file containing the data
deactivate ui
PM -> ui : inserts file name
activate ui
ui -> controller : importFile(fileName)
activate controller
controller -> importPort : loadFile(nameOfTheFileToBeImported)
activate importPort
deactivate importPort
deactivate controller
ui -> controller : importPorts()
activate controller
controller -> importPort : convertPorts()
activate importPort
loop for each line on the file
importPort -> company: getCountryStr()
activate company
deactivate company
importPort -> company : getPortStr()
activate company
deactivate company
importPort -> str: country = getCountryByName(portArray[1])
activate str
deactivate str
alt country == null
importPort->str : createCountry(portArray[1],portArray[0])
activate str
deactivate str
end
importPort- -> PL** : create(portArray[4],portArray[5])
importPort - -> pstore : create(country,portArray[2],portArray[3],placeLocation)
activate pstore
deactivate pstore
importPort -> pstore : success =savePort()
activate pstore
deactivate pstore
alt success == true
importPort - -> tree : node = create Node<Port>
activate tree
deactivate tree
importPort -> lst : add(node)
activate lst
deactivate lst
end
end
importPort -> tree: balanceTree(lst)
activate tree
deactivate tree


importPort - -> controller : Informs the operation success
deactivate importPort
controller - -> ui : Informs the operation success
deactivate controller

ui -> PM : Informs the operation success


@enduml

PlantUML version 1.2021.5(Sun Apr 25 12:20:28 BST 2021)
(GPL source distribution)
Java Runtime: OpenJDK Runtime Environment
JVM: Dynamic Code Evolution 64-Bit Server VM
Default Encoding: Cp1252
Language: pt
Country: PT
--></g></svg>