<?xml version="1.0" encoding="UTF-8" standalone="no"?><svg xmlns="http://www.w3.org/2000/svg" xmlns:xlink="http://www.w3.org/1999/xlink" contentScriptType="application/ecmascript" contentStyleType="text/css" height="342px" preserveAspectRatio="none" style="width:576px;height:342px;background:#FFFFFF;" version="1.1" viewBox="0 0 576 342" width="576px" zoomAndPan="magnify"><defs><filter height="300%" id="f19p0ompeh5opk" width="300%" x="-1" y="-1"><feGaussianBlur result="blurOut" stdDeviation="2.0"/><feColorMatrix in="blurOut" result="blurOut2" type="matrix" values="0 0 0 0 0 0 0 0 0 0 0 0 0 0 0 0 0 0 .4 0"/><feOffset dx="4.0" dy="4.0" in="blurOut2" result="blurOut3"/><feBlend in="SourceGraphic" in2="blurOut3" mode="normal"/></filter></defs><g><!--MD5=[e9747e1058721c717a44ac46a5514e6f]
class RatioOfCargoManifestDateUI--><rect codeLine="2" fill="#FEFECE" filter="url(#f19p0ompeh5opk)" height="48" id="RatioOfCargoManifestDateUI" style="stroke:#A80036;stroke-width:1.5;" width="191" x="28" y="7"/><ellipse cx="43" cy="23" fill="#ADD1B2" rx="11" ry="11" style="stroke:#A80036;stroke-width:1.0;"/><path d="M45,19.5 Q45.2031,19 45.4375,18.75 Q45.6719,18.5 45.9375,18.5 Q46.4063,18.5 46.7031,18.7813 Q47,19.0625 47,19.7188 L47,21.2813 Q47,21.9375 46.7188,22.2188 Q46.4375,22.5 46,22.5 Q45.6094,22.5 45.3594,22.3281 Q45.1094,22.1563 45,21.7031 Q44.9531,21.3906 44.7813,21.2188 Q44.4688,20.8906 43.9063,20.7031 Q43.3438,20.5 42.7813,20.5 Q42.0781,20.5 41.4844,20.7813 Q40.9063,21.0625 40.4531,21.6875 Q40,22.3125 40,23.1719 L40,24.0938 Q40,25.125 40.8438,25.8125 Q41.6875,26.5 43.1875,26.5 Q44.0781,26.5 44.7031,26.2969 Q45.0625,26.1875 45.4688,25.8281 Q45.7344,25.625 45.875,25.5625 Q46.0156,25.5 46.1875,25.5 Q46.5156,25.5 46.75,25.7656 Q47,26.0156 47,26.375 Q47,26.7188 46.6563,27.125 Q46.1563,27.7188 45.3594,28.0469 Q44.3125,28.5 43.0313,28.5 Q41.5313,28.5 40.3281,27.9063 Q39.3594,27.4375 38.6719,26.4219 Q38,25.4063 38,24.2031 L38,23.1094 Q38,21.8594 38.5938,20.7656 Q39.2031,19.6719 40.25,19.0938 Q41.3125,18.5 42.5,18.5 Q43.2188,18.5 43.8438,18.75 Q44.4688,19 45,19.5 Z " fill="#000000"/><text fill="#000000" font-family="sans-serif" font-size="12" lengthAdjust="spacing" textLength="159" x="57" y="27.9102">RatioOfCargoManifestDateUI</text><line style="stroke:#A80036;stroke-width:1.5;" x1="29" x2="218" y1="39" y2="39"/><line style="stroke:#A80036;stroke-width:1.5;" x1="29" x2="218" y1="47" y2="47"/><!--MD5=[070341b94daddadd59076c9ddc525b66]
class RatioOfCargoManifestDateController--><rect codeLine="4" fill="#FEFECE" filter="url(#f19p0ompeh5opk)" height="75.6719" id="RatioOfCargoManifestDateController" style="stroke:#A80036;stroke-width:1.5;" width="233" x="7" y="116"/><ellipse cx="22" cy="132" fill="#ADD1B2" rx="11" ry="11" style="stroke:#A80036;stroke-width:1.0;"/><path d="M24,128.5 Q24.2031,128 24.4375,127.75 Q24.6719,127.5 24.9375,127.5 Q25.4063,127.5 25.7031,127.7813 Q26,128.0625 26,128.7188 L26,130.2813 Q26,130.9375 25.7188,131.2188 Q25.4375,131.5 25,131.5 Q24.6094,131.5 24.3594,131.3281 Q24.1094,131.1563 24,130.7031 Q23.9531,130.3906 23.7813,130.2188 Q23.4688,129.8906 22.9063,129.7031 Q22.3438,129.5 21.7813,129.5 Q21.0781,129.5 20.4844,129.7813 Q19.9063,130.0625 19.4531,130.6875 Q19,131.3125 19,132.1719 L19,133.0938 Q19,134.125 19.8438,134.8125 Q20.6875,135.5 22.1875,135.5 Q23.0781,135.5 23.7031,135.2969 Q24.0625,135.1875 24.4688,134.8281 Q24.7344,134.625 24.875,134.5625 Q25.0156,134.5 25.1875,134.5 Q25.5156,134.5 25.75,134.7656 Q26,135.0156 26,135.375 Q26,135.7188 25.6563,136.125 Q25.1563,136.7188 24.3594,137.0469 Q23.3125,137.5 22.0313,137.5 Q20.5313,137.5 19.3281,136.9063 Q18.3594,136.4375 17.6719,135.4219 Q17,134.4063 17,133.2031 L17,132.1094 Q17,130.8594 17.5938,129.7656 Q18.2031,128.6719 19.25,128.0938 Q20.3125,127.5 21.5,127.5 Q22.2188,127.5 22.8438,127.75 Q23.4688,128 24,128.5 Z " fill="#000000"/><text fill="#000000" font-family="sans-serif" font-size="12" lengthAdjust="spacing" textLength="201" x="36" y="136.9102">RatioOfCargoManifestDateController</text><line style="stroke:#A80036;stroke-width:1.5;" x1="8" x2="239" y1="148" y2="148"/><line style="stroke:#A80036;stroke-width:1.5;" x1="8" x2="239" y1="156" y2="156"/><rect fill="#F24D5C" height="6" style="stroke:#C82930;stroke-width:1.0;" width="6" x="15" y="164"/><text fill="#000000" font-family="sans-serif" font-size="11" lengthAdjust="spacing" textLength="180" x="27" y="171.4189">getCargoManifestByMMSI(mmsiCode)</text><rect fill="#F24D5C" height="6" style="stroke:#C82930;stroke-width:1.0;" width="6" x="15" y="177.8359"/><text fill="#000000" font-family="sans-serif" font-size="11" lengthAdjust="spacing" textLength="184" x="27" y="185.2549">getCargoManifestClosestOfDate(date)</text><!--MD5=[02e4b9b7573f1156f41e60aa5b4e25a4]
class Company--><rect codeLine="9" fill="#FEFECE" filter="url(#f19p0ompeh5opk)" height="61.8359" id="Company" style="stroke:#A80036;stroke-width:1.5;" width="145" x="51" y="260"/><ellipse cx="93" cy="276" fill="#ADD1B2" rx="11" ry="11" style="stroke:#A80036;stroke-width:1.0;"/><path d="M95,272.5 Q95.2031,272 95.4375,271.75 Q95.6719,271.5 95.9375,271.5 Q96.4063,271.5 96.7031,271.7813 Q97,272.0625 97,272.7188 L97,274.2813 Q97,274.9375 96.7188,275.2188 Q96.4375,275.5 96,275.5 Q95.6094,275.5 95.3594,275.3281 Q95.1094,275.1563 95,274.7031 Q94.9531,274.3906 94.7813,274.2188 Q94.4688,273.8906 93.9063,273.7031 Q93.3438,273.5 92.7813,273.5 Q92.0781,273.5 91.4844,273.7813 Q90.9063,274.0625 90.4531,274.6875 Q90,275.3125 90,276.1719 L90,277.0938 Q90,278.125 90.8438,278.8125 Q91.6875,279.5 93.1875,279.5 Q94.0781,279.5 94.7031,279.2969 Q95.0625,279.1875 95.4688,278.8281 Q95.7344,278.625 95.875,278.5625 Q96.0156,278.5 96.1875,278.5 Q96.5156,278.5 96.75,278.7656 Q97,279.0156 97,279.375 Q97,279.7188 96.6563,280.125 Q96.1563,280.7188 95.3594,281.0469 Q94.3125,281.5 93.0313,281.5 Q91.5313,281.5 90.3281,280.9063 Q89.3594,280.4375 88.6719,279.4219 Q88,278.4063 88,277.2031 L88,276.1094 Q88,274.8594 88.5938,273.7656 Q89.2031,272.6719 90.25,272.0938 Q91.3125,271.5 92.5,271.5 Q93.2188,271.5 93.8438,271.75 Q94.4688,272 95,272.5 Z " fill="#000000"/><text fill="#000000" font-family="sans-serif" font-size="12" lengthAdjust="spacing" textLength="53" x="113" y="280.9102">Company</text><line style="stroke:#A80036;stroke-width:1.5;" x1="52" x2="195" y1="292" y2="292"/><line style="stroke:#A80036;stroke-width:1.5;" x1="52" x2="195" y1="300" y2="300"/><rect fill="#F24D5C" height="6" style="stroke:#C82930;stroke-width:1.0;" width="6" x="59" y="308"/><text fill="#000000" font-family="sans-serif" font-size="11" lengthAdjust="spacing" textLength="119" x="71" y="315.4189">getCargoManifestStore()</text><!--MD5=[4ebfed50a2843d6810d5f28a3ed1348c]
class CargoManifestStore--><rect codeLine="13" fill="#FEFECE" filter="url(#f19p0ompeh5opk)" height="75.6719" id="CargoManifestStore" style="stroke:#A80036;stroke-width:1.5;" width="302" x="260.5" y="253"/><ellipse cx="352.75" cy="269" fill="#ADD1B2" rx="11" ry="11" style="stroke:#A80036;stroke-width:1.0;"/><path d="M354.75,265.5 Q354.9531,265 355.1875,264.75 Q355.4219,264.5 355.6875,264.5 Q356.1563,264.5 356.4531,264.7813 Q356.75,265.0625 356.75,265.7188 L356.75,267.2813 Q356.75,267.9375 356.4688,268.2188 Q356.1875,268.5 355.75,268.5 Q355.3594,268.5 355.1094,268.3281 Q354.8594,268.1563 354.75,267.7031 Q354.7031,267.3906 354.5313,267.2188 Q354.2188,266.8906 353.6563,266.7031 Q353.0938,266.5 352.5313,266.5 Q351.8281,266.5 351.2344,266.7813 Q350.6563,267.0625 350.2031,267.6875 Q349.75,268.3125 349.75,269.1719 L349.75,270.0938 Q349.75,271.125 350.5938,271.8125 Q351.4375,272.5 352.9375,272.5 Q353.8281,272.5 354.4531,272.2969 Q354.8125,272.1875 355.2188,271.8281 Q355.4844,271.625 355.625,271.5625 Q355.7656,271.5 355.9375,271.5 Q356.2656,271.5 356.5,271.7656 Q356.75,272.0156 356.75,272.375 Q356.75,272.7188 356.4063,273.125 Q355.9063,273.7188 355.1094,274.0469 Q354.0625,274.5 352.7813,274.5 Q351.2813,274.5 350.0781,273.9063 Q349.1094,273.4375 348.4219,272.4219 Q347.75,271.4063 347.75,270.2031 L347.75,269.1094 Q347.75,267.8594 348.3438,266.7656 Q348.9531,265.6719 350,265.0938 Q351.0625,264.5 352.25,264.5 Q352.9688,264.5 353.5938,264.75 Q354.2188,265 354.75,265.5 Z " fill="#000000"/><text fill="#000000" font-family="sans-serif" font-size="12" lengthAdjust="spacing" textLength="109" x="373.25" y="273.9102">CargoManifestStore</text><line style="stroke:#A80036;stroke-width:1.5;" x1="261.5" x2="561.5" y1="285" y2="285"/><line style="stroke:#A80036;stroke-width:1.5;" x1="261.5" x2="561.5" y1="293" y2="293"/><rect fill="#F24D5C" height="6" style="stroke:#C82930;stroke-width:1.0;" width="6" x="268.5" y="301"/><text fill="#000000" font-family="sans-serif" font-size="11" lengthAdjust="spacing" textLength="180" x="280.5" y="308.4189">getCargoManifestByMMSI(mmsiCode)</text><rect fill="#F24D5C" height="6" style="stroke:#C82930;stroke-width:1.0;" width="6" x="268.5" y="314.8359"/><text fill="#000000" font-family="sans-serif" font-size="11" lengthAdjust="spacing" textLength="276" x="280.5" y="322.2549">getCargoManifestClosestOfDate(date, cargoManifestList)</text><!--MD5=[e28524b2ff94125c9d50ce46cd4629e7]
link RatioOfCargoManifestDateUI to RatioOfCargoManifestDateController--><path codeLine="18" d="M123.5,55.04 C123.5,70.71 123.5,91.91 123.5,110.58 " fill="none" id="RatioOfCargoManifestDateUI-to-RatioOfCargoManifestDateController" style="stroke:#A80036;stroke-width:1.0;stroke-dasharray:7.0,7.0;"/><polygon fill="#A80036" points="123.5,115.77,127.5,106.77,123.5,110.77,119.5,106.77,123.5,115.77" style="stroke:#A80036;stroke-width:1.0;"/><!--MD5=[5e8f17b01e49f53268ef166ff6d30a44]
link RatioOfCargoManifestDateController to Company--><path codeLine="19" d="M123.5,192.25 C123.5,211.65 123.5,235.26 123.5,254.42 " fill="none" id="RatioOfCargoManifestDateController-to-Company" style="stroke:#A80036;stroke-width:1.0;stroke-dasharray:7.0,7.0;"/><polygon fill="#A80036" points="123.5,259.69,127.5,250.69,123.5,254.69,119.5,250.69,123.5,259.69" style="stroke:#A80036;stroke-width:1.0;"/><!--MD5=[091e7e5555d20c2e87a993879722993a]
link Company to CargoManifestStore--><path codeLine="20" d="M196.17,291 C214.38,291 234.62,291 255.19,291 " fill="none" id="Company-to-CargoManifestStore" style="stroke:#A80036;stroke-width:1.0;"/><polygon fill="#A80036" points="260.43,291,251.43,287,255.43,291,251.43,295,260.43,291" style="stroke:#A80036;stroke-width:1.0;"/><text fill="#000000" font-family="sans-serif" font-size="13" lengthAdjust="spacing" textLength="28" x="214.25" y="284.4951">uses</text><!--MD5=[7320a97a05a0765f65a1bf8b4e7d63f9]
@startuml
'https://plantuml.com/sequence-diagram
class RatioOfCargoManifestDateUI {}

class RatioOfCargoManifestDateController {
-getCargoManifestByMMSI(mmsiCode)
-getCargoManifestClosestOfDate(date)
}

class Company {
-getCargoManifestStore()
}

class CargoManifestStore {
- getCargoManifestByMMSI(mmsiCode)
- getCargoManifestClosestOfDate(date, cargoManifestList)
}

RatioOfCargoManifestDateUI ..> RatioOfCargoManifestDateController
RatioOfCargoManifestDateController ..> Company
Company -> CargoManifestStore : uses 















@enduml

@startuml
class RatioOfCargoManifestDateUI {}

class RatioOfCargoManifestDateController {
-getCargoManifestByMMSI(mmsiCode)
-getCargoManifestClosestOfDate(date)
}

class Company {
-getCargoManifestStore()
}

class CargoManifestStore {
- getCargoManifestByMMSI(mmsiCode)
- getCargoManifestClosestOfDate(date, cargoManifestList)
}

RatioOfCargoManifestDateUI ..> RatioOfCargoManifestDateController
RatioOfCargoManifestDateController ..> Company
Company -> CargoManifestStore : uses 















@enduml

PlantUML version 1.2021.11(Sat Oct 02 14:26:11 BST 2021)
(GPL source distribution)
Java Runtime: OpenJDK Runtime Environment
JVM: OpenJDK 64-Bit Server VM
Default Encoding: Cp1252
Language: pt
Country: PT
--></g></svg>