<?xml version="1.0" encoding="UTF-8" standalone="no"?><svg xmlns="http://www.w3.org/2000/svg" xmlns:xlink="http://www.w3.org/1999/xlink" contentScriptType="application/ecmascript" contentStyleType="text/css" height="275px" preserveAspectRatio="none" style="width:369px;height:275px;background:#FFFFFF;" version="1.1" viewBox="0 0 369 275" width="369px" zoomAndPan="magnify"><defs><filter height="300%" id="fe45wxm431ph8" width="300%" x="-1" y="-1"><feGaussianBlur result="blurOut" stdDeviation="2.0"/><feColorMatrix in="blurOut" result="blurOut2" type="matrix" values="0 0 0 0 0 0 0 0 0 0 0 0 0 0 0 0 0 0 .4 0"/><feOffset dx="4.0" dy="4.0" in="blurOut2" result="blurOut3"/><feBlend in="SourceGraphic" in2="blurOut3" mode="normal"/></filter></defs><g><!--MD5=[0dc7f2ddb409b58bcf52b12238c25399]
class Ship--><rect codeLine="6" fill="#FEFECE" filter="url(#fe45wxm431ph8)" height="192.1953" id="Ship" style="stroke:#A80036;stroke-width:1.5;" width="141" x="7" y="59.5"/><ellipse cx="60.75" cy="75.5" fill="#ADD1B2" rx="11" ry="11" style="stroke:#A80036;stroke-width:1.0;"/><path d="M62.75,72 Q62.9531,71.5 63.1875,71.25 Q63.4219,71 63.6875,71 Q64.1563,71 64.4531,71.2813 Q64.75,71.5625 64.75,72.2188 L64.75,73.7813 Q64.75,74.4375 64.4688,74.7188 Q64.1875,75 63.75,75 Q63.3594,75 63.1094,74.8281 Q62.8594,74.6563 62.75,74.2031 Q62.7031,73.8906 62.5313,73.7188 Q62.2188,73.3906 61.6563,73.2031 Q61.0938,73 60.5313,73 Q59.8281,73 59.2344,73.2813 Q58.6563,73.5625 58.2031,74.1875 Q57.75,74.8125 57.75,75.6719 L57.75,76.5938 Q57.75,77.625 58.5938,78.3125 Q59.4375,79 60.9375,79 Q61.8281,79 62.4531,78.7969 Q62.8125,78.6875 63.2188,78.3281 Q63.4844,78.125 63.625,78.0625 Q63.7656,78 63.9375,78 Q64.2656,78 64.5,78.2656 Q64.75,78.5156 64.75,78.875 Q64.75,79.2188 64.4063,79.625 Q63.9063,80.2188 63.1094,80.5469 Q62.0625,81 60.7813,81 Q59.2813,81 58.0781,80.4063 Q57.1094,79.9375 56.4219,78.9219 Q55.75,77.9063 55.75,76.7031 L55.75,75.6094 Q55.75,74.3594 56.3438,73.2656 Q56.9531,72.1719 58,71.5938 Q59.0625,71 60.25,71 Q60.9688,71 61.5938,71.25 Q62.2188,71.5 62.75,72 Z " fill="#000000"/><text fill="#000000" font-family="sans-serif" font-size="12" lengthAdjust="spacing" textLength="25" x="81.25" y="80.4102">Ship</text><line style="stroke:#A80036;stroke-width:1.5;" x1="8" x2="147" y1="91.5" y2="91.5"/><text fill="#000000" font-family="sans-serif" font-size="11" lengthAdjust="spacing" textLength="53" x="13" y="106.9189">-mmsiCode</text><text fill="#000000" font-family="sans-serif" font-size="11" lengthAdjust="spacing" textLength="45" x="13" y="120.7549">-imoCode</text><text fill="#000000" font-family="sans-serif" font-size="11" lengthAdjust="spacing" textLength="129" x="13" y="134.5908">-numberEnergyGenerators</text><text fill="#000000" font-family="sans-serif" font-size="11" lengthAdjust="spacing" textLength="83" x="13" y="148.4268">-generatorPower</text><text fill="#000000" font-family="sans-serif" font-size="11" lengthAdjust="spacing" textLength="41" x="13" y="162.2627">-callSign</text><text fill="#000000" font-family="sans-serif" font-size="11" lengthAdjust="spacing" textLength="27" x="13" y="176.0986">-draft</text><text fill="#000000" font-family="sans-serif" font-size="11" lengthAdjust="spacing" textLength="30" x="13" y="189.9346">-name</text><text fill="#000000" font-family="sans-serif" font-size="11" lengthAdjust="spacing" textLength="68" x="13" y="203.7705">-vesselTypeId</text><text fill="#000000" font-family="sans-serif" font-size="11" lengthAdjust="spacing" textLength="33" x="13" y="217.6064">-length</text><text fill="#000000" font-family="sans-serif" font-size="11" lengthAdjust="spacing" textLength="31" x="13" y="231.4424">-width</text><text fill="#000000" font-family="sans-serif" font-size="11" lengthAdjust="spacing" textLength="45" x="13" y="245.2783">-capacity</text><!--MD5=[efa7c3600894dd6faaa8b816738c33b1]
class ShipLocation--><rect codeLine="20" fill="#FEFECE" filter="url(#fe45wxm431ph8)" height="150.6875" id="ShipLocation" style="stroke:#A80036;stroke-width:1.5;" width="104" x="251" y="7"/><ellipse cx="266" cy="23" fill="#ADD1B2" rx="11" ry="11" style="stroke:#A80036;stroke-width:1.0;"/><path d="M268,19.5 Q268.2031,19 268.4375,18.75 Q268.6719,18.5 268.9375,18.5 Q269.4063,18.5 269.7031,18.7813 Q270,19.0625 270,19.7188 L270,21.2813 Q270,21.9375 269.7188,22.2188 Q269.4375,22.5 269,22.5 Q268.6094,22.5 268.3594,22.3281 Q268.1094,22.1563 268,21.7031 Q267.9531,21.3906 267.7813,21.2188 Q267.4688,20.8906 266.9063,20.7031 Q266.3438,20.5 265.7813,20.5 Q265.0781,20.5 264.4844,20.7813 Q263.9063,21.0625 263.4531,21.6875 Q263,22.3125 263,23.1719 L263,24.0938 Q263,25.125 263.8438,25.8125 Q264.6875,26.5 266.1875,26.5 Q267.0781,26.5 267.7031,26.2969 Q268.0625,26.1875 268.4688,25.8281 Q268.7344,25.625 268.875,25.5625 Q269.0156,25.5 269.1875,25.5 Q269.5156,25.5 269.75,25.7656 Q270,26.0156 270,26.375 Q270,26.7188 269.6563,27.125 Q269.1563,27.7188 268.3594,28.0469 Q267.3125,28.5 266.0313,28.5 Q264.5313,28.5 263.3281,27.9063 Q262.3594,27.4375 261.6719,26.4219 Q261,25.4063 261,24.2031 L261,23.1094 Q261,21.8594 261.5938,20.7656 Q262.2031,19.6719 263.25,19.0938 Q264.3125,18.5 265.5,18.5 Q266.2188,18.5 266.8438,18.75 Q267.4688,19 268,19.5 Z " fill="#000000"/><text fill="#000000" font-family="sans-serif" font-size="12" lengthAdjust="spacing" textLength="72" x="280" y="27.9102">ShipLocation</text><line style="stroke:#A80036;stroke-width:1.5;" x1="252" x2="354" y1="39" y2="39"/><text fill="#000000" font-family="sans-serif" font-size="11" lengthAdjust="spacing" textLength="72" x="257" y="54.4189">-baseDateTime</text><text fill="#000000" font-family="sans-serif" font-size="11" lengthAdjust="spacing" textLength="38" x="257" y="68.2549">-latitude</text><text fill="#000000" font-family="sans-serif" font-size="11" lengthAdjust="spacing" textLength="47" x="257" y="82.0908">-longitude</text><text fill="#000000" font-family="sans-serif" font-size="11" lengthAdjust="spacing" textLength="22" x="257" y="95.9268">-sog</text><text fill="#000000" font-family="sans-serif" font-size="11" lengthAdjust="spacing" textLength="22" x="257" y="109.7627">-cog</text><text fill="#000000" font-family="sans-serif" font-size="11" lengthAdjust="spacing" textLength="42" x="257" y="123.5986">-heading</text><text fill="#000000" font-family="sans-serif" font-size="11" lengthAdjust="spacing" textLength="41" x="257" y="137.4346">-position</text><text fill="#000000" font-family="sans-serif" font-size="11" lengthAdjust="spacing" textLength="59" x="257" y="151.2705">-transceiver</text><!--MD5=[ea13aecf8df941b18fb8e3885c78c184]
class Ports--><rect codeLine="31" fill="#FEFECE" filter="url(#fe45wxm431ph8)" height="67.6719" id="Ports" style="stroke:#A80036;stroke-width:1.5;" width="76" x="265" y="193.5"/><ellipse cx="286.75" cy="209.5" fill="#ADD1B2" rx="11" ry="11" style="stroke:#A80036;stroke-width:1.0;"/><path d="M288.75,206 Q288.9531,205.5 289.1875,205.25 Q289.4219,205 289.6875,205 Q290.1563,205 290.4531,205.2813 Q290.75,205.5625 290.75,206.2188 L290.75,207.7813 Q290.75,208.4375 290.4688,208.7188 Q290.1875,209 289.75,209 Q289.3594,209 289.1094,208.8281 Q288.8594,208.6563 288.75,208.2031 Q288.7031,207.8906 288.5313,207.7188 Q288.2188,207.3906 287.6563,207.2031 Q287.0938,207 286.5313,207 Q285.8281,207 285.2344,207.2813 Q284.6563,207.5625 284.2031,208.1875 Q283.75,208.8125 283.75,209.6719 L283.75,210.5938 Q283.75,211.625 284.5938,212.3125 Q285.4375,213 286.9375,213 Q287.8281,213 288.4531,212.7969 Q288.8125,212.6875 289.2188,212.3281 Q289.4844,212.125 289.625,212.0625 Q289.7656,212 289.9375,212 Q290.2656,212 290.5,212.2656 Q290.75,212.5156 290.75,212.875 Q290.75,213.2188 290.4063,213.625 Q289.9063,214.2188 289.1094,214.5469 Q288.0625,215 286.7813,215 Q285.2813,215 284.0781,214.4063 Q283.1094,213.9375 282.4219,212.9219 Q281.75,211.9063 281.75,210.7031 L281.75,209.6094 Q281.75,208.3594 282.3438,207.2656 Q282.9531,206.1719 284,205.5938 Q285.0625,205 286.25,205 Q286.9688,205 287.5938,205.25 Q288.2188,205.5 288.75,206 Z " fill="#000000"/><text fill="#000000" font-family="sans-serif" font-size="12" lengthAdjust="spacing" textLength="29" x="302.25" y="214.4102">Ports</text><line style="stroke:#A80036;stroke-width:1.5;" x1="266" x2="340" y1="225.5" y2="225.5"/><text fill="#000000" font-family="sans-serif" font-size="11" lengthAdjust="spacing" textLength="64" x="271" y="240.9189">-identification</text><text fill="#000000" font-family="sans-serif" font-size="11" lengthAdjust="spacing" textLength="30" x="271" y="254.7549">-name</text><!--MD5=[5541ef512584d1243c10a7f3b3317e1c]
link Ship to ShipLocation--><path codeLine="37" d="M148.3,132.7 C181.47,121.87 220.41,109.15 250.8,99.22 " fill="none" id="Ship-ShipLocation" style="stroke:#A80036;stroke-width:1.0;"/><polygon fill="#000000" points="191.2529,100.1233,181.7423,100.1381,183.5673,105.7254,191.2529,100.1233" style="stroke:#000000;stroke-width:1.0;"/><text fill="#000000" font-family="sans-serif" font-size="13" lengthAdjust="spacing" textLength="21" x="195.5" y="106.9951">has</text><text fill="#000000" font-family="sans-serif" font-size="13" lengthAdjust="spacing" textLength="7" x="155.9622" y="144.6769">1</text><text fill="#000000" font-family="sans-serif" font-size="13" lengthAdjust="spacing" textLength="20" x="222.8306" y="115.9249">1..*</text><!--MD5=[b5e7d3b323f2cd13b2215620f50e65f3]
link Ship to Ports--><path codeLine="38" d="M148.3,177.99 C186.85,190.4 233.2,205.33 264.85,215.53 " fill="none" id="Ship-Ports" style="stroke:#A80036;stroke-width:1.0;"/><polygon fill="#000000" points="187.7592,181.2087,180.0507,175.6382,178.2487,181.233,187.7592,181.2087" style="stroke:#000000;stroke-width:1.0;"/><text fill="#000000" font-family="sans-serif" font-size="13" lengthAdjust="spacing" textLength="28" x="192" y="184.9951">dock</text><text fill="#000000" font-family="sans-serif" font-size="13" lengthAdjust="spacing" textLength="20" x="156.0013" y="194.3986">0..*</text><text fill="#000000" font-family="sans-serif" font-size="13" lengthAdjust="spacing" textLength="7" x="249.9105" y="228.3331">1</text><!--MD5=[2a79822ae8746c0eff81ae08a4ac4de4]
@startuml
'https://plantuml.com/sequence-diagram
hide methods
left to right direction
skinparam classAttributeIconSize 0

class Ship {
-mmsiCode
-imoCode
-numberEnergyGenerators
-generatorPower
-callSign
-draft
-name
-vesselTypeId
-length
-width
-capacity
}

class ShipLocation {
-baseDateTime
-latitude
-longitude
-sog
-cog
-heading
-position
-transceiver
}

class Ports {
-identification
-name
}


Ship "1" - - "1..*" ShipLocation : has >
Ship "0..*"- -"1" Ports: dock >


@enduml

@startuml
hide methods
left to right direction
skinparam classAttributeIconSize 0

class Ship {
-mmsiCode
-imoCode
-numberEnergyGenerators
-generatorPower
-callSign
-draft
-name
-vesselTypeId
-length
-width
-capacity
}

class ShipLocation {
-baseDateTime
-latitude
-longitude
-sog
-cog
-heading
-position
-transceiver
}

class Ports {
-identification
-name
}


Ship "1" - - "1..*" ShipLocation : has >
Ship "0..*"- -"1" Ports: dock >


@enduml

PlantUML version 1.2021.16(Wed Dec 08 17:25:22 GMT 2021)
(GPL source distribution)
Java Runtime: OpenJDK Runtime Environment
JVM: OpenJDK 64-Bit Server VM
Default Encoding: Cp1252
Language: pt
Country: BR
--></g></svg>