<?xml version="1.0" encoding="UTF-8" standalone="no"?><svg xmlns="http://www.w3.org/2000/svg" xmlns:xlink="http://www.w3.org/1999/xlink" contentScriptType="application/ecmascript" contentStyleType="text/css" height="345px" preserveAspectRatio="none" style="width:348px;height:345px;background:#FFFFFF;" version="1.1" viewBox="0 0 348 345" width="348px" zoomAndPan="magnify"><defs><filter height="300%" id="f10ib045ckzbv0" width="300%" x="-1" y="-1"><feGaussianBlur result="blurOut" stdDeviation="2.0"/><feColorMatrix in="blurOut" result="blurOut2" type="matrix" values="0 0 0 0 0 0 0 0 0 0 0 0 0 0 0 0 0 0 .4 0"/><feOffset dx="4.0" dy="4.0" in="blurOut2" result="blurOut3"/><feBlend in="SourceGraphic" in2="blurOut3" mode="normal"/></filter></defs><g><!--MD5=[1a55a5c0930150539fc1694b6b917e80]
class ShipsIdleUI--><rect codeLine="3" fill="#FEFECE" filter="url(#f10ib045ckzbv0)" height="48" id="ShipsIdleUI" style="stroke:#A80036;stroke-width:1.5;" width="96" x="28" y="7"/><ellipse cx="43" cy="23" fill="#ADD1B2" rx="11" ry="11" style="stroke:#A80036;stroke-width:1.0;"/><path d="M45,19.5 Q45.2031,19 45.4375,18.75 Q45.6719,18.5 45.9375,18.5 Q46.4063,18.5 46.7031,18.7813 Q47,19.0625 47,19.7188 L47,21.2813 Q47,21.9375 46.7188,22.2188 Q46.4375,22.5 46,22.5 Q45.6094,22.5 45.3594,22.3281 Q45.1094,22.1563 45,21.7031 Q44.9531,21.3906 44.7813,21.2188 Q44.4688,20.8906 43.9063,20.7031 Q43.3438,20.5 42.7813,20.5 Q42.0781,20.5 41.4844,20.7813 Q40.9063,21.0625 40.4531,21.6875 Q40,22.3125 40,23.1719 L40,24.0938 Q40,25.125 40.8438,25.8125 Q41.6875,26.5 43.1875,26.5 Q44.0781,26.5 44.7031,26.2969 Q45.0625,26.1875 45.4688,25.8281 Q45.7344,25.625 45.875,25.5625 Q46.0156,25.5 46.1875,25.5 Q46.5156,25.5 46.75,25.7656 Q47,26.0156 47,26.375 Q47,26.7188 46.6563,27.125 Q46.1563,27.7188 45.3594,28.0469 Q44.3125,28.5 43.0313,28.5 Q41.5313,28.5 40.3281,27.9063 Q39.3594,27.4375 38.6719,26.4219 Q38,25.4063 38,24.2031 L38,23.1094 Q38,21.8594 38.5938,20.7656 Q39.2031,19.6719 40.25,19.0938 Q41.3125,18.5 42.5,18.5 Q43.2188,18.5 43.8438,18.75 Q44.4688,19 45,19.5 Z " fill="#000000"/><text fill="#000000" font-family="sans-serif" font-size="12" lengthAdjust="spacing" textLength="64" x="57" y="27.9102">ShipsIdleUI</text><line style="stroke:#A80036;stroke-width:1.5;" x1="29" x2="123" y1="39" y2="39"/><line style="stroke:#A80036;stroke-width:1.5;" x1="29" x2="123" y1="47" y2="47"/><!--MD5=[2774d0312eb4cd240c0b6b3334d0bd65]
class ShipsIdleController--><rect codeLine="6" fill="#FEFECE" filter="url(#f10ib045ckzbv0)" height="61.8359" id="ShipsIdleController" style="stroke:#A80036;stroke-width:1.5;" width="138" x="7" y="123"/><ellipse cx="22" cy="139" fill="#ADD1B2" rx="11" ry="11" style="stroke:#A80036;stroke-width:1.0;"/><path d="M24,135.5 Q24.2031,135 24.4375,134.75 Q24.6719,134.5 24.9375,134.5 Q25.4063,134.5 25.7031,134.7813 Q26,135.0625 26,135.7188 L26,137.2813 Q26,137.9375 25.7188,138.2188 Q25.4375,138.5 25,138.5 Q24.6094,138.5 24.3594,138.3281 Q24.1094,138.1563 24,137.7031 Q23.9531,137.3906 23.7813,137.2188 Q23.4688,136.8906 22.9063,136.7031 Q22.3438,136.5 21.7813,136.5 Q21.0781,136.5 20.4844,136.7813 Q19.9063,137.0625 19.4531,137.6875 Q19,138.3125 19,139.1719 L19,140.0938 Q19,141.125 19.8438,141.8125 Q20.6875,142.5 22.1875,142.5 Q23.0781,142.5 23.7031,142.2969 Q24.0625,142.1875 24.4688,141.8281 Q24.7344,141.625 24.875,141.5625 Q25.0156,141.5 25.1875,141.5 Q25.5156,141.5 25.75,141.7656 Q26,142.0156 26,142.375 Q26,142.7188 25.6563,143.125 Q25.1563,143.7188 24.3594,144.0469 Q23.3125,144.5 22.0313,144.5 Q20.5313,144.5 19.3281,143.9063 Q18.3594,143.4375 17.6719,142.4219 Q17,141.4063 17,140.2031 L17,139.1094 Q17,137.8594 17.5938,136.7656 Q18.2031,135.6719 19.25,135.0938 Q20.3125,134.5 21.5,134.5 Q22.2188,134.5 22.8438,134.75 Q23.4688,135 24,135.5 Z " fill="#000000"/><text fill="#000000" font-family="sans-serif" font-size="12" lengthAdjust="spacing" textLength="106" x="36" y="143.9102">ShipsIdleController</text><line style="stroke:#A80036;stroke-width:1.5;" x1="8" x2="144" y1="155" y2="155"/><line style="stroke:#A80036;stroke-width:1.5;" x1="8" x2="144" y1="163" y2="163"/><ellipse cx="18" cy="174" fill="#84BE84" rx="3" ry="3" style="stroke:#038048;stroke-width:1.0;"/><text fill="#000000" font-family="sans-serif" font-size="11" lengthAdjust="spacing" textLength="82" x="27" y="178.4189">createShipsIdle()</text><!--MD5=[e2728d5365209f0609d7f7dd4cf7c90c]
class ShipsIdle--><rect codeLine="11" fill="#FEFECE" filter="url(#f10ib045ckzbv0)" height="75.6719" id="ShipsIdle" style="stroke:#A80036;stroke-width:1.5;" width="84" x="180" y="116"/><ellipse cx="195" cy="132" fill="#ADD1B2" rx="11" ry="11" style="stroke:#A80036;stroke-width:1.0;"/><path d="M197,128.5 Q197.2031,128 197.4375,127.75 Q197.6719,127.5 197.9375,127.5 Q198.4063,127.5 198.7031,127.7813 Q199,128.0625 199,128.7188 L199,130.2813 Q199,130.9375 198.7188,131.2188 Q198.4375,131.5 198,131.5 Q197.6094,131.5 197.3594,131.3281 Q197.1094,131.1563 197,130.7031 Q196.9531,130.3906 196.7813,130.2188 Q196.4688,129.8906 195.9063,129.7031 Q195.3438,129.5 194.7813,129.5 Q194.0781,129.5 193.4844,129.7813 Q192.9063,130.0625 192.4531,130.6875 Q192,131.3125 192,132.1719 L192,133.0938 Q192,134.125 192.8438,134.8125 Q193.6875,135.5 195.1875,135.5 Q196.0781,135.5 196.7031,135.2969 Q197.0625,135.1875 197.4688,134.8281 Q197.7344,134.625 197.875,134.5625 Q198.0156,134.5 198.1875,134.5 Q198.5156,134.5 198.75,134.7656 Q199,135.0156 199,135.375 Q199,135.7188 198.6563,136.125 Q198.1563,136.7188 197.3594,137.0469 Q196.3125,137.5 195.0313,137.5 Q193.5313,137.5 192.3281,136.9063 Q191.3594,136.4375 190.6719,135.4219 Q190,134.4063 190,133.2031 L190,132.1094 Q190,130.8594 190.5938,129.7656 Q191.2031,128.6719 192.25,128.0938 Q193.3125,127.5 194.5,127.5 Q195.2188,127.5 195.8438,127.75 Q196.4688,128 197,128.5 Z " fill="#000000"/><text fill="#000000" font-family="sans-serif" font-size="12" lengthAdjust="spacing" textLength="52" x="209" y="136.9102">ShipsIdle</text><line style="stroke:#A80036;stroke-width:1.5;" x1="181" x2="263" y1="148" y2="148"/><line style="stroke:#A80036;stroke-width:1.5;" x1="181" x2="263" y1="156" y2="156"/><rect fill="#F24D5C" height="6" style="stroke:#C82930;stroke-width:1.0;" width="6" x="188" y="164"/><text fill="#000000" font-family="sans-serif" font-size="11" lengthAdjust="spacing" textLength="45" x="200" y="171.4189">initialize()</text><ellipse cx="191" cy="180.8359" fill="#84BE84" rx="3" ry="3" style="stroke:#038048;stroke-width:1.0;"/><text fill="#000000" font-family="sans-serif" font-size="11" lengthAdjust="spacing" textLength="45" x="200" y="185.2549">toString()</text><!--MD5=[c4c1f95cf25890b8d906953e22c853cc]
class WriteForAFile--><rect codeLine="16" fill="#FEFECE" filter="url(#f10ib045ckzbv0)" height="61.8359" id="WriteForAFile" style="stroke:#A80036;stroke-width:1.5;" width="225" x="109.5" y="270"/><ellipse cx="181.25" cy="286" fill="#ADD1B2" rx="11" ry="11" style="stroke:#A80036;stroke-width:1.0;"/><path d="M183.25,282.5 Q183.4531,282 183.6875,281.75 Q183.9219,281.5 184.1875,281.5 Q184.6563,281.5 184.9531,281.7813 Q185.25,282.0625 185.25,282.7188 L185.25,284.2813 Q185.25,284.9375 184.9688,285.2188 Q184.6875,285.5 184.25,285.5 Q183.8594,285.5 183.6094,285.3281 Q183.3594,285.1563 183.25,284.7031 Q183.2031,284.3906 183.0313,284.2188 Q182.7188,283.8906 182.1563,283.7031 Q181.5938,283.5 181.0313,283.5 Q180.3281,283.5 179.7344,283.7813 Q179.1563,284.0625 178.7031,284.6875 Q178.25,285.3125 178.25,286.1719 L178.25,287.0938 Q178.25,288.125 179.0938,288.8125 Q179.9375,289.5 181.4375,289.5 Q182.3281,289.5 182.9531,289.2969 Q183.3125,289.1875 183.7188,288.8281 Q183.9844,288.625 184.125,288.5625 Q184.2656,288.5 184.4375,288.5 Q184.7656,288.5 185,288.7656 Q185.25,289.0156 185.25,289.375 Q185.25,289.7188 184.9063,290.125 Q184.4063,290.7188 183.6094,291.0469 Q182.5625,291.5 181.2813,291.5 Q179.7813,291.5 178.5781,290.9063 Q177.6094,290.4375 176.9219,289.4219 Q176.25,288.4063 176.25,287.2031 L176.25,286.1094 Q176.25,284.8594 176.8438,283.7656 Q177.4531,282.6719 178.5,282.0938 Q179.5625,281.5 180.75,281.5 Q181.4688,281.5 182.0938,281.75 Q182.7188,282 183.25,282.5 Z " fill="#000000"/><text fill="#000000" font-family="sans-serif" font-size="12" lengthAdjust="spacing" textLength="73" x="201.75" y="290.9102">WriteForAFile</text><line style="stroke:#A80036;stroke-width:1.5;" x1="110.5" x2="333.5" y1="302" y2="302"/><line style="stroke:#A80036;stroke-width:1.5;" x1="110.5" x2="333.5" y1="310" y2="310"/><ellipse cx="120.5" cy="321" fill="#84BE84" rx="3" ry="3" style="stroke:#038048;stroke-width:1.0;"/><text fill="#000000" font-family="sans-serif" font-size="11" lengthAdjust="spacing" textLength="199" x="129.5" y="325.4189">writeForAFiLe(textualInformation : String)</text><!--MD5=[dc602eaa9a1fc4d37918338190846d15]
link ShipsIdleUI to ShipsIdleController--><path codeLine="20" d="M76,55.04 C76,72.74 76,97.49 76,117.69 " fill="none" id="ShipsIdleUI-to-ShipsIdleController" style="stroke:#A80036;stroke-width:1.0;stroke-dasharray:7.0,7.0;"/><polygon fill="#A80036" points="76,122.72,80,113.72,76,117.72,72,113.72,76,122.72" style="stroke:#A80036;stroke-width:1.0;"/><!--MD5=[e8e0b1b0debece877ba3b39ea6e9d940]
link ShipsIdleController to ShipsIdle--><path codeLine="21" d="M145.01,154 C154.91,154 164.81,154 174.72,154 " fill="none" id="ShipsIdleController-to-ShipsIdle" style="stroke:#A80036;stroke-width:1.0;"/><polygon fill="#A80036" points="179.89,154,170.89,150,174.89,154,170.89,158,179.89,154" style="stroke:#A80036;stroke-width:1.0;"/><!--MD5=[bc590d7085e9063ea2cb72eed84dfa28]
link ShipsIdle to WriteForAFile--><path codeLine="22" d="M222,192.34 C222,214.56 222,242.59 222,264.48 " fill="none" id="ShipsIdle-to-WriteForAFile" style="stroke:#A80036;stroke-width:1.0;"/><polygon fill="#A80036" points="222,269.62,226,260.62,222,264.62,218,260.62,222,269.62" style="stroke:#A80036;stroke-width:1.0;"/><text fill="#000000" font-family="sans-serif" font-size="13" lengthAdjust="spacing" textLength="28" x="223" y="236.4951">uses</text><!--MD5=[82cd20304330c48c167e403dcff1f5d6]
@startuml
'https://plantuml.com/sequence-diagram

class ShipsIdleUI{
}

class ShipsIdleController{
+ createShipsIdle()
}


class ShipsIdle {
- initialize()
+ toString()
}

class WriteForAFile{
+ writeForAFiLe(textualInformation : String)
}

ShipsIdleUI ..> ShipsIdleController
ShipsIdleController-> ShipsIdle
ShipsIdle - -> WriteForAFile : uses
@enduml

@startuml

class ShipsIdleUI{
}

class ShipsIdleController{
+ createShipsIdle()
}


class ShipsIdle {
- initialize()
+ toString()
}

class WriteForAFile{
+ writeForAFiLe(textualInformation : String)
}

ShipsIdleUI ..> ShipsIdleController
ShipsIdleController-> ShipsIdle
ShipsIdle - -> WriteForAFile : uses
@enduml

PlantUML version 1.2021.16(Wed Dec 08 17:25:22 GMT 2021)
(GPL source distribution)
Java Runtime: OpenJDK Runtime Environment
JVM: OpenJDK 64-Bit Server VM
Default Encoding: Cp1252
Language: pt
Country: BR
--></g></svg>