<?xml version="1.0" encoding="UTF-8" standalone="no"?><svg xmlns="http://www.w3.org/2000/svg" xmlns:xlink="http://www.w3.org/1999/xlink" contentScriptType="application/ecmascript" contentStyleType="text/css" height="356px" preserveAspectRatio="none" style="width:707px;height:356px;background:#FFFFFF;" version="1.1" viewBox="0 0 707 356" width="707px" zoomAndPan="magnify"><defs><filter height="300%" id="f19oic21uxccrf" width="300%" x="-1" y="-1"><feGaussianBlur result="blurOut" stdDeviation="2.0"/><feColorMatrix in="blurOut" result="blurOut2" type="matrix" values="0 0 0 0 0 0 0 0 0 0 0 0 0 0 0 0 0 0 .4 0"/><feOffset dx="4.0" dy="4.0" in="blurOut2" result="blurOut3"/><feBlend in="SourceGraphic" in2="blurOut3" mode="normal"/></filter></defs><g><!--MD5=[87e3da244db8eade259da682573a171a]
class CargoManifestPerYearUI--><rect codeLine="3" fill="#FEFECE" filter="url(#f19oic21uxccrf)" height="48" id="CargoManifestPerYearUI" style="stroke:#A80036;stroke-width:1.5;" width="168" x="88.5" y="7"/><ellipse cx="103.5" cy="23" fill="#ADD1B2" rx="11" ry="11" style="stroke:#A80036;stroke-width:1.0;"/><path d="M105.5,19.5 Q105.7031,19 105.9375,18.75 Q106.1719,18.5 106.4375,18.5 Q106.9063,18.5 107.2031,18.7813 Q107.5,19.0625 107.5,19.7188 L107.5,21.2813 Q107.5,21.9375 107.2188,22.2188 Q106.9375,22.5 106.5,22.5 Q106.1094,22.5 105.8594,22.3281 Q105.6094,22.1563 105.5,21.7031 Q105.4531,21.3906 105.2813,21.2188 Q104.9688,20.8906 104.4063,20.7031 Q103.8438,20.5 103.2813,20.5 Q102.5781,20.5 101.9844,20.7813 Q101.4063,21.0625 100.9531,21.6875 Q100.5,22.3125 100.5,23.1719 L100.5,24.0938 Q100.5,25.125 101.3438,25.8125 Q102.1875,26.5 103.6875,26.5 Q104.5781,26.5 105.2031,26.2969 Q105.5625,26.1875 105.9688,25.8281 Q106.2344,25.625 106.375,25.5625 Q106.5156,25.5 106.6875,25.5 Q107.0156,25.5 107.25,25.7656 Q107.5,26.0156 107.5,26.375 Q107.5,26.7188 107.1563,27.125 Q106.6563,27.7188 105.8594,28.0469 Q104.8125,28.5 103.5313,28.5 Q102.0313,28.5 100.8281,27.9063 Q99.8594,27.4375 99.1719,26.4219 Q98.5,25.4063 98.5,24.2031 L98.5,23.1094 Q98.5,21.8594 99.0938,20.7656 Q99.7031,19.6719 100.75,19.0938 Q101.8125,18.5 103,18.5 Q103.7188,18.5 104.3438,18.75 Q104.9688,19 105.5,19.5 Z " fill="#000000"/><text fill="#000000" font-family="sans-serif" font-size="12" lengthAdjust="spacing" textLength="136" x="117.5" y="27.9102">CargoManifestPerYearUI</text><line style="stroke:#A80036;stroke-width:1.5;" x1="89.5" x2="255.5" y1="39" y2="39"/><line style="stroke:#A80036;stroke-width:1.5;" x1="89.5" x2="255.5" y1="47" y2="47"/><!--MD5=[e4700ca012c676064232e4f97ac67d5f]
class CargoManifestPerYearController--><rect codeLine="7" fill="#FEFECE" filter="url(#f19oic21uxccrf)" height="89.5078" id="CargoManifestPerYearController" style="stroke:#A80036;stroke-width:1.5;" width="331" x="7" y="116"/><ellipse cx="79.25" cy="132" fill="#ADD1B2" rx="11" ry="11" style="stroke:#A80036;stroke-width:1.0;"/><path d="M81.25,128.5 Q81.4531,128 81.6875,127.75 Q81.9219,127.5 82.1875,127.5 Q82.6563,127.5 82.9531,127.7813 Q83.25,128.0625 83.25,128.7188 L83.25,130.2813 Q83.25,130.9375 82.9688,131.2188 Q82.6875,131.5 82.25,131.5 Q81.8594,131.5 81.6094,131.3281 Q81.3594,131.1563 81.25,130.7031 Q81.2031,130.3906 81.0313,130.2188 Q80.7188,129.8906 80.1563,129.7031 Q79.5938,129.5 79.0313,129.5 Q78.3281,129.5 77.7344,129.7813 Q77.1563,130.0625 76.7031,130.6875 Q76.25,131.3125 76.25,132.1719 L76.25,133.0938 Q76.25,134.125 77.0938,134.8125 Q77.9375,135.5 79.4375,135.5 Q80.3281,135.5 80.9531,135.2969 Q81.3125,135.1875 81.7188,134.8281 Q81.9844,134.625 82.125,134.5625 Q82.2656,134.5 82.4375,134.5 Q82.7656,134.5 83,134.7656 Q83.25,135.0156 83.25,135.375 Q83.25,135.7188 82.9063,136.125 Q82.4063,136.7188 81.6094,137.0469 Q80.5625,137.5 79.2813,137.5 Q77.7813,137.5 76.5781,136.9063 Q75.6094,136.4375 74.9219,135.4219 Q74.25,134.4063 74.25,133.2031 L74.25,132.1094 Q74.25,130.8594 74.8438,129.7656 Q75.4531,128.6719 76.5,128.0938 Q77.5625,127.5 78.75,127.5 Q79.4688,127.5 80.0938,127.75 Q80.7188,128 81.25,128.5 Z " fill="#000000"/><text fill="#000000" font-family="sans-serif" font-size="12" lengthAdjust="spacing" textLength="178" x="99.75" y="136.9102">CargoManifestPerYearController</text><line style="stroke:#A80036;stroke-width:1.5;" x1="8" x2="337" y1="148" y2="148"/><line style="stroke:#A80036;stroke-width:1.5;" x1="8" x2="337" y1="156" y2="156"/><rect fill="#F24D5C" height="6" style="stroke:#C82930;stroke-width:1.0;" width="6" x="15" y="164"/><text fill="#000000" font-family="sans-serif" font-size="11" lengthAdjust="spacing" textLength="190" x="27" y="171.4189">shipExists(mmsiCode : String) : boolean</text><rect fill="#F24D5C" height="6" style="stroke:#C82930;stroke-width:1.0;" width="6" x="15" y="177.8359"/><text fill="#000000" font-family="sans-serif" font-size="11" lengthAdjust="spacing" textLength="291" x="27" y="185.2549">getNumberOfContainerPerManifest(mmsiCode : String) : float</text><rect fill="#F24D5C" height="6" style="stroke:#C82930;stroke-width:1.0;" width="6" x="15" y="191.6719"/><text fill="#000000" font-family="sans-serif" font-size="11" lengthAdjust="spacing" textLength="305" x="27" y="199.0908">getTheCargoManifestPerYear(mmsiCode : String, year : int) : int</text><!--MD5=[02e4b9b7573f1156f41e60aa5b4e25a4]
class Company--><rect codeLine="13" fill="#FEFECE" filter="url(#f19oic21uxccrf)" height="75.6719" id="Company" style="stroke:#A80036;stroke-width:1.5;" width="250" x="47.5" y="267"/><ellipse cx="141.75" cy="283" fill="#ADD1B2" rx="11" ry="11" style="stroke:#A80036;stroke-width:1.0;"/><path d="M143.75,279.5 Q143.9531,279 144.1875,278.75 Q144.4219,278.5 144.6875,278.5 Q145.1563,278.5 145.4531,278.7813 Q145.75,279.0625 145.75,279.7188 L145.75,281.2813 Q145.75,281.9375 145.4688,282.2188 Q145.1875,282.5 144.75,282.5 Q144.3594,282.5 144.1094,282.3281 Q143.8594,282.1563 143.75,281.7031 Q143.7031,281.3906 143.5313,281.2188 Q143.2188,280.8906 142.6563,280.7031 Q142.0938,280.5 141.5313,280.5 Q140.8281,280.5 140.2344,280.7813 Q139.6563,281.0625 139.2031,281.6875 Q138.75,282.3125 138.75,283.1719 L138.75,284.0938 Q138.75,285.125 139.5938,285.8125 Q140.4375,286.5 141.9375,286.5 Q142.8281,286.5 143.4531,286.2969 Q143.8125,286.1875 144.2188,285.8281 Q144.4844,285.625 144.625,285.5625 Q144.7656,285.5 144.9375,285.5 Q145.2656,285.5 145.5,285.7656 Q145.75,286.0156 145.75,286.375 Q145.75,286.7188 145.4063,287.125 Q144.9063,287.7188 144.1094,288.0469 Q143.0625,288.5 141.7813,288.5 Q140.2813,288.5 139.0781,287.9063 Q138.1094,287.4375 137.4219,286.4219 Q136.75,285.4063 136.75,284.2031 L136.75,283.1094 Q136.75,281.8594 137.3438,280.7656 Q137.9531,279.6719 139,279.0938 Q140.0625,278.5 141.25,278.5 Q141.9688,278.5 142.5938,278.75 Q143.2188,279 143.75,279.5 Z " fill="#000000"/><text fill="#000000" font-family="sans-serif" font-size="12" lengthAdjust="spacing" textLength="53" x="162.25" y="287.9102">Company</text><line style="stroke:#A80036;stroke-width:1.5;" x1="48.5" x2="296.5" y1="299" y2="299"/><line style="stroke:#A80036;stroke-width:1.5;" x1="48.5" x2="296.5" y1="307" y2="307"/><rect fill="#F24D5C" height="6" style="stroke:#C82930;stroke-width:1.0;" width="6" x="55.5" y="315"/><text fill="#000000" font-family="sans-serif" font-size="11" lengthAdjust="spacing" textLength="106" x="67.5" y="322.4189">getBstShip() : BstShip</text><rect fill="#F24D5C" height="6" style="stroke:#C82930;stroke-width:1.0;" width="6" x="55.5" y="328.8359"/><text fill="#000000" font-family="sans-serif" font-size="11" lengthAdjust="spacing" textLength="224" x="67.5" y="336.2549">getCargoManifestStore() : CargoManifestStore</text><!--MD5=[4ebfed50a2843d6810d5f28a3ed1348c]
class CargoManifestStore--><rect codeLine="18" fill="#FEFECE" filter="url(#f19oic21uxccrf)" height="75.6719" id="CargoManifestStore" style="stroke:#A80036;stroke-width:1.5;" width="331" x="362" y="267"/><ellipse cx="468.75" cy="283" fill="#ADD1B2" rx="11" ry="11" style="stroke:#A80036;stroke-width:1.0;"/><path d="M470.75,279.5 Q470.9531,279 471.1875,278.75 Q471.4219,278.5 471.6875,278.5 Q472.1563,278.5 472.4531,278.7813 Q472.75,279.0625 472.75,279.7188 L472.75,281.2813 Q472.75,281.9375 472.4688,282.2188 Q472.1875,282.5 471.75,282.5 Q471.3594,282.5 471.1094,282.3281 Q470.8594,282.1563 470.75,281.7031 Q470.7031,281.3906 470.5313,281.2188 Q470.2188,280.8906 469.6563,280.7031 Q469.0938,280.5 468.5313,280.5 Q467.8281,280.5 467.2344,280.7813 Q466.6563,281.0625 466.2031,281.6875 Q465.75,282.3125 465.75,283.1719 L465.75,284.0938 Q465.75,285.125 466.5938,285.8125 Q467.4375,286.5 468.9375,286.5 Q469.8281,286.5 470.4531,286.2969 Q470.8125,286.1875 471.2188,285.8281 Q471.4844,285.625 471.625,285.5625 Q471.7656,285.5 471.9375,285.5 Q472.2656,285.5 472.5,285.7656 Q472.75,286.0156 472.75,286.375 Q472.75,286.7188 472.4063,287.125 Q471.9063,287.7188 471.1094,288.0469 Q470.0625,288.5 468.7813,288.5 Q467.2813,288.5 466.0781,287.9063 Q465.1094,287.4375 464.4219,286.4219 Q463.75,285.4063 463.75,284.2031 L463.75,283.1094 Q463.75,281.8594 464.3438,280.7656 Q464.9531,279.6719 466,279.0938 Q467.0625,278.5 468.25,278.5 Q468.9688,278.5 469.5938,278.75 Q470.2188,279 470.75,279.5 Z " fill="#000000"/><text fill="#000000" font-family="sans-serif" font-size="12" lengthAdjust="spacing" textLength="109" x="489.25" y="287.9102">CargoManifestStore</text><line style="stroke:#A80036;stroke-width:1.5;" x1="363" x2="692" y1="299" y2="299"/><line style="stroke:#A80036;stroke-width:1.5;" x1="363" x2="692" y1="307" y2="307"/><rect fill="#F24D5C" height="6" style="stroke:#C82930;stroke-width:1.0;" width="6" x="370" y="315"/><text fill="#000000" font-family="sans-serif" font-size="11" lengthAdjust="spacing" textLength="291" x="382" y="322.4189">getNumberOfContainerPerManifest(mmsiCode : String) : float</text><rect fill="#F24D5C" height="6" style="stroke:#C82930;stroke-width:1.0;" width="6" x="370" y="328.8359"/><text fill="#000000" font-family="sans-serif" font-size="11" lengthAdjust="spacing" textLength="305" x="382" y="336.2549">getTheCargoManifestPerYear(mmsiCode : String, year : int) : int</text><!--MD5=[b2004ed1fc7d0974be5b538f0aa6b0c6]
link CargoManifestPerYearUI to CargoManifestPerYearController--><path codeLine="25" d="M172.5,55.18 C172.5,70.59 172.5,91.42 172.5,110.45 " fill="none" id="CargoManifestPerYearUI-to-CargoManifestPerYearController" style="stroke:#A80036;stroke-width:1.0;stroke-dasharray:7.0,7.0;"/><polygon fill="#A80036" points="172.5,115.76,176.5,106.76,172.5,110.76,168.5,106.76,172.5,115.76" style="stroke:#A80036;stroke-width:1.0;"/><!--MD5=[033dac9a5b137d898cbb78e9d9ce4a9f]
link CargoManifestPerYearController to Company--><path codeLine="26" d="M172.5,206.15 C172.5,223.71 172.5,243.84 172.5,261.26 " fill="none" id="CargoManifestPerYearController-to-Company" style="stroke:#A80036;stroke-width:1.0;stroke-dasharray:7.0,7.0;"/><polygon fill="#A80036" points="172.5,266.57,176.5,257.57,172.5,261.57,168.5,257.57,172.5,266.57" style="stroke:#A80036;stroke-width:1.0;"/><!--MD5=[091e7e5555d20c2e87a993879722993a]
link Company to CargoManifestStore--><path codeLine="27" d="M297.66,305 C316.8,305 336.83,305 356.75,305 " fill="none" id="Company-to-CargoManifestStore" style="stroke:#A80036;stroke-width:1.0;"/><polygon fill="#A80036" points="361.81,305,352.81,301,356.81,305,352.81,309,361.81,305" style="stroke:#A80036;stroke-width:1.0;"/><text fill="#000000" font-family="sans-serif" font-size="13" lengthAdjust="spacing" textLength="28" x="315.75" y="298.4951">uses</text><!--MD5=[e3842944579da6d20642ddb993dfe105]
@startuml
'https://plantuml.com/class-diagram

class CargoManifestPerYearUI{

}

class CargoManifestPerYearController{
- shipExists(mmsiCode : String) : boolean
- getNumberOfContainerPerManifest(mmsiCode : String) : float
- getTheCargoManifestPerYear(mmsiCode : String, year : int) : int
}

class Company {
-getBstShip() : BstShip
-getCargoManifestStore() : CargoManifestStore
}

class CargoManifestStore{
- getNumberOfContainerPerManifest(mmsiCode : String) : float
- getTheCargoManifestPerYear(mmsiCode : String, year : int) : int

}


CargoManifestPerYearUI ..> CargoManifestPerYearController
CargoManifestPerYearController ..> Company
Company -> CargoManifestStore : uses
@enduml

@startuml

class CargoManifestPerYearUI{

}

class CargoManifestPerYearController{
- shipExists(mmsiCode : String) : boolean
- getNumberOfContainerPerManifest(mmsiCode : String) : float
- getTheCargoManifestPerYear(mmsiCode : String, year : int) : int
}

class Company {
-getBstShip() : BstShip
-getCargoManifestStore() : CargoManifestStore
}

class CargoManifestStore{
- getNumberOfContainerPerManifest(mmsiCode : String) : float
- getTheCargoManifestPerYear(mmsiCode : String, year : int) : int

}


CargoManifestPerYearUI ..> CargoManifestPerYearController
CargoManifestPerYearController ..> Company
Company -> CargoManifestStore : uses
@enduml

PlantUML version 1.2021.11(Sat Oct 02 14:26:11 BST 2021)
(GPL source distribution)
Java Runtime: OpenJDK Runtime Environment
JVM: OpenJDK 64-Bit Server VM
Default Encoding: Cp1252
Language: pt
Country: PT
--></g></svg>