<?xml version="1.0" encoding="UTF-8" standalone="no"?><svg xmlns="http://www.w3.org/2000/svg" xmlns:xlink="http://www.w3.org/1999/xlink" contentScriptType="application/ecmascript" contentStyleType="text/css" height="1713px" preserveAspectRatio="none" style="width:2907px;height:1713px;" version="1.1" viewBox="0 0 2907 1713" width="2907px" zoomAndPan="magnify"><defs><filter height="300%" id="f14wqu4ypnsw80" width="300%" x="-1" y="-1"><feGaussianBlur result="blurOut" stdDeviation="3.0"/><feColorMatrix in="blurOut" result="blurOut2" type="matrix" values="0 0 0 0 0 0 0 0 0 0 0 0 0 0 0 0 0 0 .4 0"/><feOffset dx="6.0" dy="6.0" in="blurOut2" result="blurOut3"/><feBlend in="SourceGraphic" in2="blurOut3" mode="normal"/></filter></defs><g><!--MD5=[02e4b9b7573f1156f41e60aa5b4e25a4]
class Company--><rect codeLine="7" fill="#FEFECE" filter="url(#f14wqu4ypnsw80)" height="80.7539" id="Company" style="stroke:#A80036;stroke-width:2.25;" width="127.5" x="10.5" y="783"/><ellipse cx="33" cy="807" fill="#ADD1B2" rx="16.5" ry="16.5" style="stroke:#A80036;stroke-width:1.5;"/><path d="M36,801.75 Q36.3047,801 36.6563,800.625 Q37.0078,800.25 37.4063,800.25 Q38.1094,800.25 38.5547,800.6719 Q39,801.0938 39,802.0781 L39,804.4219 Q39,805.4063 38.5781,805.8281 Q38.1563,806.25 37.5,806.25 Q36.9141,806.25 36.5391,805.9922 Q36.1641,805.7344 36,805.0547 Q35.9297,804.5859 35.6719,804.3281 Q35.2031,803.8359 34.3594,803.5547 Q33.5156,803.25 32.6719,803.25 Q31.6172,803.25 30.7266,803.6719 Q29.8594,804.0938 29.1797,805.0313 Q28.5,805.9688 28.5,807.2578 L28.5,808.6406 Q28.5,810.1875 29.7656,811.2188 Q31.0313,812.25 33.2813,812.25 Q34.6172,812.25 35.5547,811.9453 Q36.0938,811.7813 36.7031,811.2422 Q37.1016,810.9375 37.3125,810.8438 Q37.5234,810.75 37.7813,810.75 Q38.2734,810.75 38.625,811.1484 Q39,811.5234 39,812.0625 Q39,812.5781 38.4844,813.1875 Q37.7344,814.0781 36.5391,814.5703 Q34.9688,815.25 33.0469,815.25 Q30.7969,815.25 28.9922,814.3594 Q27.5391,813.6563 26.5078,812.1328 Q25.5,810.6094 25.5,808.8047 L25.5,807.1641 Q25.5,805.2891 26.3906,803.6484 Q27.3047,802.0078 28.875,801.1406 Q30.4688,800.25 32.25,800.25 Q33.3281,800.25 34.2656,800.625 Q35.2031,801 36,801.75 Z " fill="#000000"/><text fill="#000000" font-family="sans-serif" font-size="18" lengthAdjust="spacing" textLength="79.5" x="54" y="814.3652">Company</text><line style="stroke:#A80036;stroke-width:2.25;" x1="12" x2="136.5" y1="831" y2="831"/><text fill="#000000" font-family="sans-serif" font-size="16.5" lengthAdjust="spacing" textLength="88.5" x="19.5" y="854.1284">-designation</text><!--MD5=[7421f545a0d8420c5bec41e74b387d9c]
class Employee--><rect codeLine="11" fill="#FEFECE" filter="url(#f14wqu4ypnsw80)" height="80.7539" id="Employee" style="stroke:#A80036;stroke-width:2.25;" width="130.5" x="330" y="312"/><ellipse cx="352.5" cy="336" fill="#ADD1B2" rx="16.5" ry="16.5" style="stroke:#A80036;stroke-width:1.5;"/><path d="M355.5,330.75 Q355.8047,330 356.1563,329.625 Q356.5078,329.25 356.9063,329.25 Q357.6094,329.25 358.0547,329.6719 Q358.5,330.0938 358.5,331.0781 L358.5,333.4219 Q358.5,334.4063 358.0781,334.8281 Q357.6563,335.25 357,335.25 Q356.4141,335.25 356.0391,334.9922 Q355.6641,334.7344 355.5,334.0547 Q355.4297,333.5859 355.1719,333.3281 Q354.7031,332.8359 353.8594,332.5547 Q353.0156,332.25 352.1719,332.25 Q351.1172,332.25 350.2266,332.6719 Q349.3594,333.0938 348.6797,334.0313 Q348,334.9688 348,336.2578 L348,337.6406 Q348,339.1875 349.2656,340.2188 Q350.5313,341.25 352.7813,341.25 Q354.1172,341.25 355.0547,340.9453 Q355.5938,340.7813 356.2031,340.2422 Q356.6016,339.9375 356.8125,339.8438 Q357.0234,339.75 357.2813,339.75 Q357.7734,339.75 358.125,340.1484 Q358.5,340.5234 358.5,341.0625 Q358.5,341.5781 357.9844,342.1875 Q357.2344,343.0781 356.0391,343.5703 Q354.4688,344.25 352.5469,344.25 Q350.2969,344.25 348.4922,343.3594 Q347.0391,342.6563 346.0078,341.1328 Q345,339.6094 345,337.8047 L345,336.1641 Q345,334.2891 345.8906,332.6484 Q346.8047,331.0078 348.375,330.1406 Q349.9688,329.25 351.75,329.25 Q352.8281,329.25 353.7656,329.625 Q354.7031,330 355.5,330.75 Z " fill="#000000"/><text fill="#000000" font-family="sans-serif" font-size="18" lengthAdjust="spacing" textLength="82.5" x="373.5" y="343.3652">Employee</text><line style="stroke:#A80036;stroke-width:2.25;" x1="331.5" x2="459" y1="360" y2="360"/><text fill="#000000" font-family="sans-serif" font-size="16.5" lengthAdjust="spacing" textLength="45" x="339" y="383.1284">-name</text><!--MD5=[a3093aa9f96b7df9aab31d8715601ff6]
class Containers--><rect codeLine="15" fill="#FEFECE" filter="url(#f14wqu4ypnsw80)" height="267.5391" id="Containers" style="stroke:#A80036;stroke-width:2.25;" width="147" x="1059" y="966"/><ellipse cx="1084.875" cy="990" fill="#ADD1B2" rx="16.5" ry="16.5" style="stroke:#A80036;stroke-width:1.5;"/><path d="M1087.875,984.75 Q1088.1797,984 1088.5313,983.625 Q1088.8828,983.25 1089.2813,983.25 Q1089.9844,983.25 1090.4297,983.6719 Q1090.875,984.0938 1090.875,985.0781 L1090.875,987.4219 Q1090.875,988.4063 1090.4531,988.8281 Q1090.0313,989.25 1089.375,989.25 Q1088.7891,989.25 1088.4141,988.9922 Q1088.0391,988.7344 1087.875,988.0547 Q1087.8047,987.5859 1087.5469,987.3281 Q1087.0781,986.8359 1086.2344,986.5547 Q1085.3906,986.25 1084.5469,986.25 Q1083.4922,986.25 1082.6016,986.6719 Q1081.7344,987.0938 1081.0547,988.0313 Q1080.375,988.9688 1080.375,990.2578 L1080.375,991.6406 Q1080.375,993.1875 1081.6406,994.2188 Q1082.9063,995.25 1085.1563,995.25 Q1086.4922,995.25 1087.4297,994.9453 Q1087.9688,994.7813 1088.5781,994.2422 Q1088.9766,993.9375 1089.1875,993.8438 Q1089.3984,993.75 1089.6563,993.75 Q1090.1484,993.75 1090.5,994.1484 Q1090.875,994.5234 1090.875,995.0625 Q1090.875,995.5781 1090.3594,996.1875 Q1089.6094,997.0781 1088.4141,997.5703 Q1086.8438,998.25 1084.9219,998.25 Q1082.6719,998.25 1080.8672,997.3594 Q1079.4141,996.6563 1078.3828,995.1328 Q1077.375,993.6094 1077.375,991.8047 L1077.375,990.1641 Q1077.375,988.2891 1078.2656,986.6484 Q1079.1797,985.0078 1080.75,984.1406 Q1082.3438,983.25 1084.125,983.25 Q1085.2031,983.25 1086.1406,983.625 Q1087.0781,984 1087.875,984.75 Z " fill="#000000"/><text fill="#000000" font-family="sans-serif" font-size="18" lengthAdjust="spacing" textLength="91.5" x="1106.625" y="997.3652">Containers</text><line style="stroke:#A80036;stroke-width:2.25;" x1="1060.5" x2="1204.5" y1="1014" y2="1014"/><text fill="#000000" font-family="sans-serif" font-size="16.5" lengthAdjust="spacing" textLength="15" x="1068" y="1037.1284">-x</text><text fill="#000000" font-family="sans-serif" font-size="16.5" lengthAdjust="spacing" textLength="15" x="1068" y="1057.8823">-y</text><text fill="#000000" font-family="sans-serif" font-size="16.5" lengthAdjust="spacing" textLength="15" x="1068" y="1078.6362">-z</text><text fill="#000000" font-family="sans-serif" font-size="16.5" lengthAdjust="spacing" textLength="129" x="1068" y="1099.3901">-containerNumber</text><text fill="#000000" font-family="sans-serif" font-size="16.5" lengthAdjust="spacing" textLength="79.5" x="1068" y="1120.144">-checkDigit</text><text fill="#000000" font-family="sans-serif" font-size="16.5" lengthAdjust="spacing" textLength="64.5" x="1068" y="1140.8979">-isoCode</text><text fill="#000000" font-family="sans-serif" font-size="16.5" lengthAdjust="spacing" textLength="69" x="1068" y="1161.6519">-payLoad</text><text fill="#000000" font-family="sans-serif" font-size="16.5" lengthAdjust="spacing" textLength="34.5" x="1068" y="1182.4058">-tare</text><text fill="#000000" font-family="sans-serif" font-size="16.5" lengthAdjust="spacing" textLength="48" x="1068" y="1203.1597">-gross</text><text fill="#000000" font-family="sans-serif" font-size="16.5" lengthAdjust="spacing" textLength="55.5" x="1068" y="1223.9136">-weight</text><!--MD5=[76562047389981627aea27c31a97aff5]
class CargoManifest--><rect codeLine="28" fill="#FEFECE" filter="url(#f14wqu4ypnsw80)" height="205.2773" id="CargoManifest" style="stroke:#A80036;stroke-width:2.25;" width="174" x="1404" y="1028.25"/><ellipse cx="1429.2" cy="1052.25" fill="#ADD1B2" rx="16.5" ry="16.5" style="stroke:#A80036;stroke-width:1.5;"/><path d="M1432.2,1047 Q1432.5047,1046.25 1432.8562,1045.875 Q1433.2078,1045.5 1433.6062,1045.5 Q1434.3094,1045.5 1434.7547,1045.9219 Q1435.2,1046.3438 1435.2,1047.3281 L1435.2,1049.6719 Q1435.2,1050.6563 1434.7781,1051.0781 Q1434.3562,1051.5 1433.7,1051.5 Q1433.1141,1051.5 1432.7391,1051.2422 Q1432.3641,1050.9844 1432.2,1050.3047 Q1432.1297,1049.8359 1431.8719,1049.5781 Q1431.4031,1049.0859 1430.5594,1048.8047 Q1429.7156,1048.5 1428.8719,1048.5 Q1427.8172,1048.5 1426.9266,1048.9219 Q1426.0594,1049.3438 1425.3797,1050.2813 Q1424.7,1051.2188 1424.7,1052.5078 L1424.7,1053.8906 Q1424.7,1055.4375 1425.9656,1056.4688 Q1427.2312,1057.5 1429.4812,1057.5 Q1430.8172,1057.5 1431.7547,1057.1953 Q1432.2937,1057.0313 1432.9031,1056.4922 Q1433.3016,1056.1875 1433.5125,1056.0938 Q1433.7234,1056 1433.9812,1056 Q1434.4734,1056 1434.825,1056.3984 Q1435.2,1056.7734 1435.2,1057.3125 Q1435.2,1057.8281 1434.6844,1058.4375 Q1433.9344,1059.3281 1432.7391,1059.8203 Q1431.1687,1060.5 1429.2469,1060.5 Q1426.9969,1060.5 1425.1922,1059.6094 Q1423.7391,1058.9063 1422.7078,1057.3828 Q1421.7,1055.8594 1421.7,1054.0547 L1421.7,1052.4141 Q1421.7,1050.5391 1422.5906,1048.8984 Q1423.5047,1047.2578 1425.075,1046.3906 Q1426.6687,1045.5 1428.45,1045.5 Q1429.5281,1045.5 1430.4656,1045.875 Q1431.4031,1046.25 1432.2,1047 Z " fill="#000000"/><text fill="#000000" font-family="sans-serif" font-size="18" lengthAdjust="spacing" textLength="120" x="1450.8" y="1059.6152">CargoManifest</text><line style="stroke:#A80036;stroke-width:2.25;" x1="1405.5" x2="1576.5" y1="1076.25" y2="1076.25"/><text fill="#000000" font-family="sans-serif" font-size="16.5" lengthAdjust="spacing" textLength="121.5" x="1413" y="1099.3784">-listOfContainers</text><text fill="#000000" font-family="sans-serif" font-size="16.5" lengthAdjust="spacing" textLength="37.5" x="1413" y="1120.1323">-ratio</text><text fill="#000000" font-family="sans-serif" font-size="16.5" lengthAdjust="spacing" textLength="37.5" x="1413" y="1140.8862">-date</text><text fill="#000000" font-family="sans-serif" font-size="16.5" lengthAdjust="spacing" textLength="79.5" x="1413" y="1161.6401">-mmsiCode</text><text fill="#000000" font-family="sans-serif" font-size="16.5" lengthAdjust="spacing" textLength="18" x="1413" y="1182.394">-id</text><text fill="#000000" font-family="sans-serif" font-size="16.5" lengthAdjust="spacing" textLength="156" x="1413" y="1203.1479">-numberOfContainers</text><text fill="#000000" font-family="sans-serif" font-size="16.5" lengthAdjust="spacing" textLength="84" x="1413" y="1223.9019">-destination</text><!--MD5=[0dc7f2ddb409b58bcf52b12238c25399]
class Ship--><rect codeLine="38" fill="#FEFECE" filter="url(#f14wqu4ypnsw80)" height="288.293" id="Ship" style="stroke:#A80036;stroke-width:2.25;" width="211.5" x="289.5" y="567"/><ellipse cx="370.125" cy="591" fill="#ADD1B2" rx="16.5" ry="16.5" style="stroke:#A80036;stroke-width:1.5;"/><path d="M373.125,585.75 Q373.4297,585 373.7813,584.625 Q374.1328,584.25 374.5313,584.25 Q375.2344,584.25 375.6797,584.6719 Q376.125,585.0938 376.125,586.0781 L376.125,588.4219 Q376.125,589.4063 375.7031,589.8281 Q375.2813,590.25 374.625,590.25 Q374.0391,590.25 373.6641,589.9922 Q373.2891,589.7344 373.125,589.0547 Q373.0547,588.5859 372.7969,588.3281 Q372.3281,587.8359 371.4844,587.5547 Q370.6406,587.25 369.7969,587.25 Q368.7422,587.25 367.8516,587.6719 Q366.9844,588.0938 366.3047,589.0313 Q365.625,589.9688 365.625,591.2578 L365.625,592.6406 Q365.625,594.1875 366.8906,595.2188 Q368.1563,596.25 370.4063,596.25 Q371.7422,596.25 372.6797,595.9453 Q373.2188,595.7813 373.8281,595.2422 Q374.2266,594.9375 374.4375,594.8438 Q374.6484,594.75 374.9063,594.75 Q375.3984,594.75 375.75,595.1484 Q376.125,595.5234 376.125,596.0625 Q376.125,596.5781 375.6094,597.1875 Q374.8594,598.0781 373.6641,598.5703 Q372.0938,599.25 370.1719,599.25 Q367.9219,599.25 366.1172,598.3594 Q364.6641,597.6563 363.6328,596.1328 Q362.625,594.6094 362.625,592.8047 L362.625,591.1641 Q362.625,589.2891 363.5156,587.6484 Q364.4297,586.0078 366,585.1406 Q367.5938,584.25 369.375,584.25 Q370.4531,584.25 371.3906,584.625 Q372.3281,585 373.125,585.75 Z " fill="#000000"/><text fill="#000000" font-family="sans-serif" font-size="18" lengthAdjust="spacing" textLength="37.5" x="400.875" y="598.3652">Ship</text><line style="stroke:#A80036;stroke-width:2.25;" x1="291" x2="499.5" y1="615" y2="615"/><text fill="#000000" font-family="sans-serif" font-size="16.5" lengthAdjust="spacing" textLength="79.5" x="298.5" y="638.1284">-mmsiCode</text><text fill="#000000" font-family="sans-serif" font-size="16.5" lengthAdjust="spacing" textLength="67.5" x="298.5" y="658.8823">-imoCode</text><text fill="#000000" font-family="sans-serif" font-size="16.5" lengthAdjust="spacing" textLength="193.5" x="298.5" y="679.6362">-numberEnergyGenerators</text><text fill="#000000" font-family="sans-serif" font-size="16.5" lengthAdjust="spacing" textLength="124.5" x="298.5" y="700.3901">-generatorPower</text><text fill="#000000" font-family="sans-serif" font-size="16.5" lengthAdjust="spacing" textLength="61.5" x="298.5" y="721.144">-callSign</text><text fill="#000000" font-family="sans-serif" font-size="16.5" lengthAdjust="spacing" textLength="40.5" x="298.5" y="741.8979">-draft</text><text fill="#000000" font-family="sans-serif" font-size="16.5" lengthAdjust="spacing" textLength="45" x="298.5" y="762.6519">-name</text><text fill="#000000" font-family="sans-serif" font-size="16.5" lengthAdjust="spacing" textLength="102" x="298.5" y="783.4058">-vesselTypeId</text><text fill="#000000" font-family="sans-serif" font-size="16.5" lengthAdjust="spacing" textLength="49.5" x="298.5" y="804.1597">-length</text><text fill="#000000" font-family="sans-serif" font-size="16.5" lengthAdjust="spacing" textLength="46.5" x="298.5" y="824.9136">-width</text><text fill="#000000" font-family="sans-serif" font-size="16.5" lengthAdjust="spacing" textLength="67.5" x="298.5" y="845.6675">-capacity</text><!--MD5=[ea13aecf8df941b18fb8e3885c78c184]
class Ports--><rect codeLine="54" fill="#FEFECE" filter="url(#f14wqu4ypnsw80)" height="101.5078" id="Ports" style="stroke:#A80036;stroke-width:2.25;" width="114" x="1803" y="819"/><ellipse cx="1835.625" cy="843" fill="#ADD1B2" rx="16.5" ry="16.5" style="stroke:#A80036;stroke-width:1.5;"/><path d="M1838.625,837.75 Q1838.9297,837 1839.2813,836.625 Q1839.6328,836.25 1840.0313,836.25 Q1840.7344,836.25 1841.1797,836.6719 Q1841.625,837.0938 1841.625,838.0781 L1841.625,840.4219 Q1841.625,841.4063 1841.2031,841.8281 Q1840.7813,842.25 1840.125,842.25 Q1839.5391,842.25 1839.1641,841.9922 Q1838.7891,841.7344 1838.625,841.0547 Q1838.5547,840.5859 1838.2969,840.3281 Q1837.8281,839.8359 1836.9844,839.5547 Q1836.1406,839.25 1835.2969,839.25 Q1834.2422,839.25 1833.3516,839.6719 Q1832.4844,840.0938 1831.8047,841.0313 Q1831.125,841.9688 1831.125,843.2578 L1831.125,844.6406 Q1831.125,846.1875 1832.3906,847.2188 Q1833.6563,848.25 1835.9063,848.25 Q1837.2422,848.25 1838.1797,847.9453 Q1838.7188,847.7813 1839.3281,847.2422 Q1839.7266,846.9375 1839.9375,846.8438 Q1840.1484,846.75 1840.4063,846.75 Q1840.8984,846.75 1841.25,847.1484 Q1841.625,847.5234 1841.625,848.0625 Q1841.625,848.5781 1841.1094,849.1875 Q1840.3594,850.0781 1839.1641,850.5703 Q1837.5938,851.25 1835.6719,851.25 Q1833.4219,851.25 1831.6172,850.3594 Q1830.1641,849.6563 1829.1328,848.1328 Q1828.125,846.6094 1828.125,844.8047 L1828.125,843.1641 Q1828.125,841.2891 1829.0156,839.6484 Q1829.9297,838.0078 1831.5,837.1406 Q1833.0938,836.25 1834.875,836.25 Q1835.9531,836.25 1836.8906,836.625 Q1837.8281,837 1838.625,837.75 Z " fill="#000000"/><text fill="#000000" font-family="sans-serif" font-size="18" lengthAdjust="spacing" textLength="43.5" x="1858.875" y="850.3652">Ports</text><line style="stroke:#A80036;stroke-width:2.25;" x1="1804.5" x2="1915.5" y1="867" y2="867"/><text fill="#000000" font-family="sans-serif" font-size="16.5" lengthAdjust="spacing" textLength="96" x="1812" y="890.1284">-identification</text><text fill="#000000" font-family="sans-serif" font-size="16.5" lengthAdjust="spacing" textLength="45" x="1812" y="910.8823">-name</text><!--MD5=[f2ba7f6ab60af8dd0d3e354f91729b14]
class Truck--><rect codeLine="59" fill="#FEFECE" filter="url(#f14wqu4ypnsw80)" height="60" id="Truck" style="stroke:#A80036;stroke-width:2.25;" width="93" x="766.5" y="1069.5"/><ellipse cx="789" cy="1093.5" fill="#ADD1B2" rx="16.5" ry="16.5" style="stroke:#A80036;stroke-width:1.5;"/><path d="M792,1088.25 Q792.3047,1087.5 792.6563,1087.125 Q793.0078,1086.75 793.4063,1086.75 Q794.1094,1086.75 794.5547,1087.1719 Q795,1087.5938 795,1088.5781 L795,1090.9219 Q795,1091.9063 794.5781,1092.3281 Q794.1563,1092.75 793.5,1092.75 Q792.9141,1092.75 792.5391,1092.4922 Q792.1641,1092.2344 792,1091.5547 Q791.9297,1091.0859 791.6719,1090.8281 Q791.2031,1090.3359 790.3594,1090.0547 Q789.5156,1089.75 788.6719,1089.75 Q787.6172,1089.75 786.7266,1090.1719 Q785.8594,1090.5938 785.1797,1091.5313 Q784.5,1092.4688 784.5,1093.7578 L784.5,1095.1406 Q784.5,1096.6875 785.7656,1097.7188 Q787.0313,1098.75 789.2813,1098.75 Q790.6172,1098.75 791.5547,1098.4453 Q792.0938,1098.2813 792.7031,1097.7422 Q793.1016,1097.4375 793.3125,1097.3438 Q793.5234,1097.25 793.7813,1097.25 Q794.2734,1097.25 794.625,1097.6484 Q795,1098.0234 795,1098.5625 Q795,1099.0781 794.4844,1099.6875 Q793.7344,1100.5781 792.5391,1101.0703 Q790.9688,1101.75 789.0469,1101.75 Q786.7969,1101.75 784.9922,1100.8594 Q783.5391,1100.1563 782.5078,1098.6328 Q781.5,1097.1094 781.5,1095.3047 L781.5,1093.6641 Q781.5,1091.7891 782.3906,1090.1484 Q783.3047,1088.5078 784.875,1087.6406 Q786.4688,1086.75 788.25,1086.75 Q789.3281,1086.75 790.2656,1087.125 Q791.2031,1087.5 792,1088.25 Z " fill="#000000"/><text fill="#000000" font-family="sans-serif" font-size="18" lengthAdjust="spacing" textLength="45" x="810" y="1100.8652">Truck</text><line style="stroke:#A80036;stroke-width:2.25;" x1="768" x2="858" y1="1117.5" y2="1117.5"/><!--MD5=[c5149b4909ffd2688ff51a939867f774]
class Warehouse--><rect codeLine="63" fill="#FEFECE" filter="url(#f14wqu4ypnsw80)" height="143.0156" id="Warehouse" style="stroke:#A80036;stroke-width:2.25;" width="144" x="1788" y="1263.75"/><ellipse cx="1810.5" cy="1287.75" fill="#ADD1B2" rx="16.5" ry="16.5" style="stroke:#A80036;stroke-width:1.5;"/><path d="M1813.5,1282.5 Q1813.8047,1281.75 1814.1563,1281.375 Q1814.5078,1281 1814.9063,1281 Q1815.6094,1281 1816.0547,1281.4219 Q1816.5,1281.8438 1816.5,1282.8281 L1816.5,1285.1719 Q1816.5,1286.1563 1816.0781,1286.5781 Q1815.6563,1287 1815,1287 Q1814.4141,1287 1814.0391,1286.7422 Q1813.6641,1286.4844 1813.5,1285.8047 Q1813.4297,1285.3359 1813.1719,1285.0781 Q1812.7031,1284.5859 1811.8594,1284.3047 Q1811.0156,1284 1810.1719,1284 Q1809.1172,1284 1808.2266,1284.4219 Q1807.3594,1284.8438 1806.6797,1285.7813 Q1806,1286.7188 1806,1288.0078 L1806,1289.3906 Q1806,1290.9375 1807.2656,1291.9688 Q1808.5313,1293 1810.7813,1293 Q1812.1172,1293 1813.0547,1292.6953 Q1813.5938,1292.5313 1814.2031,1291.9922 Q1814.6016,1291.6875 1814.8125,1291.5938 Q1815.0234,1291.5 1815.2813,1291.5 Q1815.7734,1291.5 1816.125,1291.8984 Q1816.5,1292.2734 1816.5,1292.8125 Q1816.5,1293.3281 1815.9844,1293.9375 Q1815.2344,1294.8281 1814.0391,1295.3203 Q1812.4688,1296 1810.5469,1296 Q1808.2969,1296 1806.4922,1295.1094 Q1805.0391,1294.4063 1804.0078,1292.8828 Q1803,1291.3594 1803,1289.5547 L1803,1287.9141 Q1803,1286.0391 1803.8906,1284.3984 Q1804.8047,1282.7578 1806.375,1281.8906 Q1807.9688,1281 1809.75,1281 Q1810.8281,1281 1811.7656,1281.375 Q1812.7031,1281.75 1813.5,1282.5 Z " fill="#000000"/><text fill="#000000" font-family="sans-serif" font-size="18" lengthAdjust="spacing" textLength="96" x="1831.5" y="1295.1152">Warehouse</text><line style="stroke:#A80036;stroke-width:2.25;" x1="1789.5" x2="1930.5" y1="1311.75" y2="1311.75"/><text fill="#000000" font-family="sans-serif" font-size="16.5" lengthAdjust="spacing" textLength="96" x="1797" y="1334.8784">-identification</text><text fill="#000000" font-family="sans-serif" font-size="16.5" lengthAdjust="spacing" textLength="45" x="1797" y="1355.6323">-name</text><text fill="#000000" font-family="sans-serif" font-size="16.5" lengthAdjust="spacing" textLength="67.5" x="1797" y="1376.3862">-capacity</text><text fill="#000000" font-family="sans-serif" font-size="16.5" lengthAdjust="spacing" textLength="87" x="1797" y="1397.1401">-occupancy</text><!--MD5=[deb4e1f6eb1e3c1256fdb830f96abfbb]
class Country--><rect codeLine="70" fill="#FEFECE" filter="url(#f14wqu4ypnsw80)" height="101.5078" id="Country" style="stroke:#A80036;stroke-width:2.25;" width="111" x="2485.5" y="1407"/><ellipse cx="2508" cy="1431" fill="#ADD1B2" rx="16.5" ry="16.5" style="stroke:#A80036;stroke-width:1.5;"/><path d="M2511,1425.75 Q2511.3047,1425 2511.6563,1424.625 Q2512.0078,1424.25 2512.4063,1424.25 Q2513.1094,1424.25 2513.5547,1424.6719 Q2514,1425.0938 2514,1426.0781 L2514,1428.4219 Q2514,1429.4063 2513.5781,1429.8281 Q2513.1563,1430.25 2512.5,1430.25 Q2511.9141,1430.25 2511.5391,1429.9922 Q2511.1641,1429.7344 2511,1429.0547 Q2510.9297,1428.5859 2510.6719,1428.3281 Q2510.2031,1427.8359 2509.3594,1427.5547 Q2508.5156,1427.25 2507.6719,1427.25 Q2506.6172,1427.25 2505.7266,1427.6719 Q2504.8594,1428.0938 2504.1797,1429.0313 Q2503.5,1429.9688 2503.5,1431.2578 L2503.5,1432.6406 Q2503.5,1434.1875 2504.7656,1435.2188 Q2506.0313,1436.25 2508.2813,1436.25 Q2509.6172,1436.25 2510.5547,1435.9453 Q2511.0938,1435.7813 2511.7031,1435.2422 Q2512.1016,1434.9375 2512.3125,1434.8438 Q2512.5234,1434.75 2512.7813,1434.75 Q2513.2734,1434.75 2513.625,1435.1484 Q2514,1435.5234 2514,1436.0625 Q2514,1436.5781 2513.4844,1437.1875 Q2512.7344,1438.0781 2511.5391,1438.5703 Q2509.9688,1439.25 2508.0469,1439.25 Q2505.7969,1439.25 2503.9922,1438.3594 Q2502.5391,1437.6563 2501.5078,1436.1328 Q2500.5,1434.6094 2500.5,1432.8047 L2500.5,1431.1641 Q2500.5,1429.2891 2501.3906,1427.6484 Q2502.3047,1426.0078 2503.875,1425.1406 Q2505.4688,1424.25 2507.25,1424.25 Q2508.3281,1424.25 2509.2656,1424.625 Q2510.2031,1425 2511,1425.75 Z " fill="#000000"/><text fill="#000000" font-family="sans-serif" font-size="18" lengthAdjust="spacing" textLength="63" x="2529" y="1438.3652">Country</text><line style="stroke:#A80036;stroke-width:2.25;" x1="2487" x2="2595" y1="1455" y2="1455"/><text fill="#000000" font-family="sans-serif" font-size="16.5" lengthAdjust="spacing" textLength="45" x="2494.5" y="1478.1284">-name</text><text fill="#000000" font-family="sans-serif" font-size="16.5" lengthAdjust="spacing" textLength="72" x="2494.5" y="1498.8823">-continent</text><!--MD5=[9febfb2ff9adfe183e01ff702b9c1c02]
class PlaceLocation--><rect codeLine="75" fill="#FEFECE" filter="url(#f14wqu4ypnsw80)" height="101.5078" id="PlaceLocation" style="stroke:#A80036;stroke-width:2.25;" width="165" x="2130" y="1407"/><ellipse cx="2152.5" cy="1431" fill="#ADD1B2" rx="16.5" ry="16.5" style="stroke:#A80036;stroke-width:1.5;"/><path d="M2155.5,1425.75 Q2155.8047,1425 2156.1563,1424.625 Q2156.5078,1424.25 2156.9063,1424.25 Q2157.6094,1424.25 2158.0547,1424.6719 Q2158.5,1425.0938 2158.5,1426.0781 L2158.5,1428.4219 Q2158.5,1429.4063 2158.0781,1429.8281 Q2157.6563,1430.25 2157,1430.25 Q2156.4141,1430.25 2156.0391,1429.9922 Q2155.6641,1429.7344 2155.5,1429.0547 Q2155.4297,1428.5859 2155.1719,1428.3281 Q2154.7031,1427.8359 2153.8594,1427.5547 Q2153.0156,1427.25 2152.1719,1427.25 Q2151.1172,1427.25 2150.2266,1427.6719 Q2149.3594,1428.0938 2148.6797,1429.0313 Q2148,1429.9688 2148,1431.2578 L2148,1432.6406 Q2148,1434.1875 2149.2656,1435.2188 Q2150.5313,1436.25 2152.7813,1436.25 Q2154.1172,1436.25 2155.0547,1435.9453 Q2155.5938,1435.7813 2156.2031,1435.2422 Q2156.6016,1434.9375 2156.8125,1434.8438 Q2157.0234,1434.75 2157.2813,1434.75 Q2157.7734,1434.75 2158.125,1435.1484 Q2158.5,1435.5234 2158.5,1436.0625 Q2158.5,1436.5781 2157.9844,1437.1875 Q2157.2344,1438.0781 2156.0391,1438.5703 Q2154.4688,1439.25 2152.5469,1439.25 Q2150.2969,1439.25 2148.4922,1438.3594 Q2147.0391,1437.6563 2146.0078,1436.1328 Q2145,1434.6094 2145,1432.8047 L2145,1431.1641 Q2145,1429.2891 2145.8906,1427.6484 Q2146.8047,1426.0078 2148.375,1425.1406 Q2149.9688,1424.25 2151.75,1424.25 Q2152.8281,1424.25 2153.7656,1424.625 Q2154.7031,1425 2155.5,1425.75 Z " fill="#000000"/><text fill="#000000" font-family="sans-serif" font-size="18" lengthAdjust="spacing" textLength="117" x="2173.5" y="1438.3652">PlaceLocation</text><line style="stroke:#A80036;stroke-width:2.25;" x1="2131.5" x2="2293.5" y1="1455" y2="1455"/><text fill="#000000" font-family="sans-serif" font-size="16.5" lengthAdjust="spacing" textLength="57" x="2139" y="1478.1284">-latitude</text><text fill="#000000" font-family="sans-serif" font-size="16.5" lengthAdjust="spacing" textLength="70.5" x="2139" y="1498.8823">-longitude</text><!--MD5=[efa7c3600894dd6faaa8b816738c33b1]
class ShipLocation--><rect codeLine="80" fill="#FEFECE" filter="url(#f14wqu4ypnsw80)" height="226.0313" id="ShipLocation" style="stroke:#A80036;stroke-width:2.25;" width="156" x="1054.5" y="402.75"/><ellipse cx="1077" cy="426.75" fill="#ADD1B2" rx="16.5" ry="16.5" style="stroke:#A80036;stroke-width:1.5;"/><path d="M1080,421.5 Q1080.3047,420.75 1080.6563,420.375 Q1081.0078,420 1081.4063,420 Q1082.1094,420 1082.5547,420.4219 Q1083,420.8438 1083,421.8281 L1083,424.1719 Q1083,425.1563 1082.5781,425.5781 Q1082.1563,426 1081.5,426 Q1080.9141,426 1080.5391,425.7422 Q1080.1641,425.4844 1080,424.8047 Q1079.9297,424.3359 1079.6719,424.0781 Q1079.2031,423.5859 1078.3594,423.3047 Q1077.5156,423 1076.6719,423 Q1075.6172,423 1074.7266,423.4219 Q1073.8594,423.8438 1073.1797,424.7813 Q1072.5,425.7188 1072.5,427.0078 L1072.5,428.3906 Q1072.5,429.9375 1073.7656,430.9688 Q1075.0313,432 1077.2813,432 Q1078.6172,432 1079.5547,431.6953 Q1080.0938,431.5313 1080.7031,430.9922 Q1081.1016,430.6875 1081.3125,430.5938 Q1081.5234,430.5 1081.7813,430.5 Q1082.2734,430.5 1082.625,430.8984 Q1083,431.2734 1083,431.8125 Q1083,432.3281 1082.4844,432.9375 Q1081.7344,433.8281 1080.5391,434.3203 Q1078.9688,435 1077.0469,435 Q1074.7969,435 1072.9922,434.1094 Q1071.5391,433.4063 1070.5078,431.8828 Q1069.5,430.3594 1069.5,428.5547 L1069.5,426.9141 Q1069.5,425.0391 1070.3906,423.3984 Q1071.3047,421.7578 1072.875,420.8906 Q1074.4688,420 1076.25,420 Q1077.3281,420 1078.2656,420.375 Q1079.2031,420.75 1080,421.5 Z " fill="#000000"/><text fill="#000000" font-family="sans-serif" font-size="18" lengthAdjust="spacing" textLength="108" x="1098" y="434.1152">ShipLocation</text><line style="stroke:#A80036;stroke-width:2.25;" x1="1056" x2="1209" y1="450.75" y2="450.75"/><text fill="#000000" font-family="sans-serif" font-size="16.5" lengthAdjust="spacing" textLength="108" x="1063.5" y="473.8784">-baseDateTime</text><text fill="#000000" font-family="sans-serif" font-size="16.5" lengthAdjust="spacing" textLength="57" x="1063.5" y="494.6323">-latitude</text><text fill="#000000" font-family="sans-serif" font-size="16.5" lengthAdjust="spacing" textLength="70.5" x="1063.5" y="515.3862">-longitude</text><text fill="#000000" font-family="sans-serif" font-size="16.5" lengthAdjust="spacing" textLength="33" x="1063.5" y="536.1401">-sog</text><text fill="#000000" font-family="sans-serif" font-size="16.5" lengthAdjust="spacing" textLength="33" x="1063.5" y="556.894">-cog</text><text fill="#000000" font-family="sans-serif" font-size="16.5" lengthAdjust="spacing" textLength="63" x="1063.5" y="577.6479">-heading</text><text fill="#000000" font-family="sans-serif" font-size="16.5" lengthAdjust="spacing" textLength="61.5" x="1063.5" y="598.4019">-position</text><text fill="#000000" font-family="sans-serif" font-size="16.5" lengthAdjust="spacing" textLength="88.5" x="1063.5" y="619.1558">-transceiver</text><!--MD5=[3fd616f346a44cd59a91eb10b19e157c]
class User--><rect codeLine="91" fill="#FEFECE" filter="url(#f14wqu4ypnsw80)" height="101.5078" id="User" style="stroke:#A80036;stroke-width:2.25;" width="99" x="763.5" y="115.5"/><ellipse cx="790.725" cy="139.5" fill="#ADD1B2" rx="16.5" ry="16.5" style="stroke:#A80036;stroke-width:1.5;"/><path d="M793.725,134.25 Q794.0297,133.5 794.3812,133.125 Q794.7328,132.75 795.1312,132.75 Q795.8344,132.75 796.2797,133.1719 Q796.725,133.5938 796.725,134.5781 L796.725,136.9219 Q796.725,137.9063 796.3031,138.3281 Q795.8812,138.75 795.225,138.75 Q794.6391,138.75 794.2641,138.4922 Q793.8891,138.2344 793.725,137.5547 Q793.6547,137.0859 793.3969,136.8281 Q792.9281,136.3359 792.0844,136.0547 Q791.2406,135.75 790.3969,135.75 Q789.3422,135.75 788.4516,136.1719 Q787.5844,136.5938 786.9047,137.5313 Q786.225,138.4688 786.225,139.7578 L786.225,141.1406 Q786.225,142.6875 787.4906,143.7188 Q788.7562,144.75 791.0062,144.75 Q792.3422,144.75 793.2797,144.4453 Q793.8187,144.2813 794.4281,143.7422 Q794.8266,143.4375 795.0375,143.3438 Q795.2484,143.25 795.5062,143.25 Q795.9984,143.25 796.35,143.6484 Q796.725,144.0234 796.725,144.5625 Q796.725,145.0781 796.2094,145.6875 Q795.4594,146.5781 794.2641,147.0703 Q792.6937,147.75 790.7719,147.75 Q788.5219,147.75 786.7172,146.8594 Q785.2641,146.1563 784.2328,144.6328 Q783.225,143.1094 783.225,141.3047 L783.225,139.6641 Q783.225,137.7891 784.1156,136.1484 Q785.0297,134.5078 786.6,133.6406 Q788.1937,132.75 789.975,132.75 Q791.0531,132.75 791.9906,133.125 Q792.9281,133.5 793.725,134.25 Z " fill="#000000"/><text fill="#000000" font-family="sans-serif" font-size="18" lengthAdjust="spacing" textLength="40.5" x="812.775" y="146.8652">User</text><line style="stroke:#A80036;stroke-width:2.25;" x1="765" x2="861" y1="163.5" y2="163.5"/><text fill="#000000" font-family="sans-serif" font-size="16.5" lengthAdjust="spacing" textLength="78" x="772.5" y="186.6284">-username</text><text fill="#000000" font-family="sans-serif" font-size="16.5" lengthAdjust="spacing" textLength="81" x="772.5" y="207.3823">-password</text><!--MD5=[a3638c1e5b65d287ecad7f06f5c0f212]
class Role--><rect codeLine="96" fill="#FEFECE" filter="url(#f14wqu4ypnsw80)" height="80.7539" id="Role" style="stroke:#A80036;stroke-width:2.25;" width="106.5" x="1079.25" y="136.5"/><ellipse cx="1110.525" cy="160.5" fill="#ADD1B2" rx="16.5" ry="16.5" style="stroke:#A80036;stroke-width:1.5;"/><path d="M1113.525,155.25 Q1113.8297,154.5 1114.1813,154.125 Q1114.5328,153.75 1114.9313,153.75 Q1115.6344,153.75 1116.0797,154.1719 Q1116.525,154.5938 1116.525,155.5781 L1116.525,157.9219 Q1116.525,158.9063 1116.1031,159.3281 Q1115.6813,159.75 1115.025,159.75 Q1114.4391,159.75 1114.0641,159.4922 Q1113.6891,159.2344 1113.525,158.5547 Q1113.4547,158.0859 1113.1969,157.8281 Q1112.7281,157.3359 1111.8844,157.0547 Q1111.0406,156.75 1110.1969,156.75 Q1109.1422,156.75 1108.2516,157.1719 Q1107.3844,157.5938 1106.7047,158.5313 Q1106.025,159.4688 1106.025,160.7578 L1106.025,162.1406 Q1106.025,163.6875 1107.2906,164.7188 Q1108.5563,165.75 1110.8063,165.75 Q1112.1422,165.75 1113.0797,165.4453 Q1113.6188,165.2813 1114.2281,164.7422 Q1114.6266,164.4375 1114.8375,164.3438 Q1115.0484,164.25 1115.3063,164.25 Q1115.7984,164.25 1116.15,164.6484 Q1116.525,165.0234 1116.525,165.5625 Q1116.525,166.0781 1116.0094,166.6875 Q1115.2594,167.5781 1114.0641,168.0703 Q1112.4938,168.75 1110.5719,168.75 Q1108.3219,168.75 1106.5172,167.8594 Q1105.0641,167.1563 1104.0328,165.6328 Q1103.025,164.1094 1103.025,162.3047 L1103.025,160.6641 Q1103.025,158.7891 1103.9156,157.1484 Q1104.8297,155.5078 1106.4,154.6406 Q1107.9938,153.75 1109.775,153.75 Q1110.8531,153.75 1111.7906,154.125 Q1112.7281,154.5 1113.525,155.25 Z " fill="#000000"/><text fill="#000000" font-family="sans-serif" font-size="18" lengthAdjust="spacing" textLength="39" x="1133.475" y="167.8652">Role</text><line style="stroke:#A80036;stroke-width:2.25;" x1="1080.75" x2="1184.25" y1="184.5" y2="184.5"/><text fill="#000000" font-family="sans-serif" font-size="16.5" lengthAdjust="spacing" textLength="88.5" x="1088.25" y="207.6284">-designation</text><!--MD5=[ea8f20dfdca176213da526d9b557babf]
class Capital--><rect codeLine="100" fill="#FEFECE" filter="url(#f14wqu4ypnsw80)" height="80.7539" id="Capital" style="stroke:#A80036;stroke-width:2.25;" width="106.5" x="1806.75" y="1612.5"/><ellipse cx="1829.25" cy="1636.5" fill="#ADD1B2" rx="16.5" ry="16.5" style="stroke:#A80036;stroke-width:1.5;"/><path d="M1832.25,1631.25 Q1832.5547,1630.5 1832.9063,1630.125 Q1833.2578,1629.75 1833.6563,1629.75 Q1834.3594,1629.75 1834.8047,1630.1719 Q1835.25,1630.5938 1835.25,1631.5781 L1835.25,1633.9219 Q1835.25,1634.9063 1834.8281,1635.3281 Q1834.4063,1635.75 1833.75,1635.75 Q1833.1641,1635.75 1832.7891,1635.4922 Q1832.4141,1635.2344 1832.25,1634.5547 Q1832.1797,1634.0859 1831.9219,1633.8281 Q1831.4531,1633.3359 1830.6094,1633.0547 Q1829.7656,1632.75 1828.9219,1632.75 Q1827.8672,1632.75 1826.9766,1633.1719 Q1826.1094,1633.5938 1825.4297,1634.5313 Q1824.75,1635.4688 1824.75,1636.7578 L1824.75,1638.1406 Q1824.75,1639.6875 1826.0156,1640.7188 Q1827.2813,1641.75 1829.5313,1641.75 Q1830.8672,1641.75 1831.8047,1641.4453 Q1832.3438,1641.2813 1832.9531,1640.7422 Q1833.3516,1640.4375 1833.5625,1640.3438 Q1833.7734,1640.25 1834.0313,1640.25 Q1834.5234,1640.25 1834.875,1640.6484 Q1835.25,1641.0234 1835.25,1641.5625 Q1835.25,1642.0781 1834.7344,1642.6875 Q1833.9844,1643.5781 1832.7891,1644.0703 Q1831.2188,1644.75 1829.2969,1644.75 Q1827.0469,1644.75 1825.2422,1643.8594 Q1823.7891,1643.1563 1822.7578,1641.6328 Q1821.75,1640.1094 1821.75,1638.3047 L1821.75,1636.6641 Q1821.75,1634.7891 1822.6406,1633.1484 Q1823.5547,1631.5078 1825.125,1630.6406 Q1826.7188,1629.75 1828.5,1629.75 Q1829.5781,1629.75 1830.5156,1630.125 Q1831.4531,1630.5 1832.25,1631.25 Z " fill="#000000"/><text fill="#000000" font-family="sans-serif" font-size="18" lengthAdjust="spacing" textLength="58.5" x="1850.25" y="1643.8652">Capital</text><line style="stroke:#A80036;stroke-width:2.25;" x1="1808.25" x2="1911.75" y1="1660.5" y2="1660.5"/><text fill="#000000" font-family="sans-serif" font-size="16.5" lengthAdjust="spacing" textLength="45" x="1815.75" y="1683.6284">-name</text><!--MD5=[8515a37c80da559ff7ce07f8a9e75d30]
class Place--><rect codeLine="104" fill="#FEFECE" filter="url(#f14wqu4ypnsw80)" height="60" id="Place" style="stroke:#A80036;stroke-width:2.25;" width="94.5" x="1443.75" y="1525.5"/><ellipse cx="1466.25" cy="1549.5" fill="#ADD1B2" rx="16.5" ry="16.5" style="stroke:#A80036;stroke-width:1.5;"/><path d="M1469.25,1544.25 Q1469.5547,1543.5 1469.9063,1543.125 Q1470.2578,1542.75 1470.6563,1542.75 Q1471.3594,1542.75 1471.8047,1543.1719 Q1472.25,1543.5938 1472.25,1544.5781 L1472.25,1546.9219 Q1472.25,1547.9063 1471.8281,1548.3281 Q1471.4063,1548.75 1470.75,1548.75 Q1470.1641,1548.75 1469.7891,1548.4922 Q1469.4141,1548.2344 1469.25,1547.5547 Q1469.1797,1547.0859 1468.9219,1546.8281 Q1468.4531,1546.3359 1467.6094,1546.0547 Q1466.7656,1545.75 1465.9219,1545.75 Q1464.8672,1545.75 1463.9766,1546.1719 Q1463.1094,1546.5938 1462.4297,1547.5313 Q1461.75,1548.4688 1461.75,1549.7578 L1461.75,1551.1406 Q1461.75,1552.6875 1463.0156,1553.7188 Q1464.2813,1554.75 1466.5313,1554.75 Q1467.8672,1554.75 1468.8047,1554.4453 Q1469.3438,1554.2813 1469.9531,1553.7422 Q1470.3516,1553.4375 1470.5625,1553.3438 Q1470.7734,1553.25 1471.0313,1553.25 Q1471.5234,1553.25 1471.875,1553.6484 Q1472.25,1554.0234 1472.25,1554.5625 Q1472.25,1555.0781 1471.7344,1555.6875 Q1470.9844,1556.5781 1469.7891,1557.0703 Q1468.2188,1557.75 1466.2969,1557.75 Q1464.0469,1557.75 1462.2422,1556.8594 Q1460.7891,1556.1563 1459.7578,1554.6328 Q1458.75,1553.1094 1458.75,1551.3047 L1458.75,1549.6641 Q1458.75,1547.7891 1459.6406,1546.1484 Q1460.5547,1544.5078 1462.125,1543.6406 Q1463.7188,1542.75 1465.5,1542.75 Q1466.5781,1542.75 1467.5156,1543.125 Q1468.4531,1543.5 1469.25,1544.25 Z " fill="#000000"/><text fill="#000000" font-family="sans-serif" font-size="18" lengthAdjust="spacing" textLength="46.5" x="1487.25" y="1556.8652">Place</text><line style="stroke:#A80036;stroke-width:2.25;" x1="1445.25" x2="1536.75" y1="1573.5" y2="1573.5"/><!--MD5=[a0336aaa8110b78d9cacadb9d45e00a3]
class Border--><rect codeLine="108" fill="#FEFECE" filter="url(#f14wqu4ypnsw80)" height="101.5078" id="Border" style="stroke:#A80036;stroke-width:2.25;" width="129" x="2757" y="1407"/><ellipse cx="2790.975" cy="1431" fill="#ADD1B2" rx="16.5" ry="16.5" style="stroke:#A80036;stroke-width:1.5;"/><path d="M2793.975,1425.75 Q2794.2797,1425 2794.6313,1424.625 Q2794.9828,1424.25 2795.3813,1424.25 Q2796.0844,1424.25 2796.5297,1424.6719 Q2796.975,1425.0938 2796.975,1426.0781 L2796.975,1428.4219 Q2796.975,1429.4063 2796.5531,1429.8281 Q2796.1313,1430.25 2795.475,1430.25 Q2794.8891,1430.25 2794.5141,1429.9922 Q2794.1391,1429.7344 2793.975,1429.0547 Q2793.9047,1428.5859 2793.6469,1428.3281 Q2793.1781,1427.8359 2792.3344,1427.5547 Q2791.4906,1427.25 2790.6469,1427.25 Q2789.5922,1427.25 2788.7016,1427.6719 Q2787.8344,1428.0938 2787.1547,1429.0313 Q2786.475,1429.9688 2786.475,1431.2578 L2786.475,1432.6406 Q2786.475,1434.1875 2787.7406,1435.2188 Q2789.0063,1436.25 2791.2563,1436.25 Q2792.5922,1436.25 2793.5297,1435.9453 Q2794.0688,1435.7813 2794.6781,1435.2422 Q2795.0766,1434.9375 2795.2875,1434.8438 Q2795.4984,1434.75 2795.7563,1434.75 Q2796.2484,1434.75 2796.6,1435.1484 Q2796.975,1435.5234 2796.975,1436.0625 Q2796.975,1436.5781 2796.4594,1437.1875 Q2795.7094,1438.0781 2794.5141,1438.5703 Q2792.9438,1439.25 2791.0219,1439.25 Q2788.7719,1439.25 2786.9672,1438.3594 Q2785.5141,1437.6563 2784.4828,1436.1328 Q2783.475,1434.6094 2783.475,1432.8047 L2783.475,1431.1641 Q2783.475,1429.2891 2784.3656,1427.6484 Q2785.2797,1426.0078 2786.85,1425.1406 Q2788.4438,1424.25 2790.225,1424.25 Q2791.3031,1424.25 2792.2406,1424.625 Q2793.1781,1425 2793.975,1425.75 Z " fill="#000000"/><text fill="#000000" font-family="sans-serif" font-size="18" lengthAdjust="spacing" textLength="55.5" x="2814.525" y="1438.3652">Border</text><line style="stroke:#A80036;stroke-width:2.25;" x1="2758.5" x2="2884.5" y1="1455" y2="1455"/><text fill="#000000" font-family="sans-serif" font-size="16.5" lengthAdjust="spacing" textLength="111" x="2766" y="1478.1284">-countryName1</text><text fill="#000000" font-family="sans-serif" font-size="16.5" lengthAdjust="spacing" textLength="111" x="2766" y="1498.8823">-countryName2</text><!--MD5=[074ba6ad47b234bd73d65012320c1634]
class FreightNetwork--><rect codeLine="113" fill="#FEFECE" filter="url(#f14wqu4ypnsw80)" height="60" id="FreightNetwork" style="stroke:#A80036;stroke-width:2.25;" width="172.5" x="546" y="1318.5"/><ellipse cx="568.5" cy="1342.5" fill="#ADD1B2" rx="16.5" ry="16.5" style="stroke:#A80036;stroke-width:1.5;"/><path d="M571.5,1337.25 Q571.8047,1336.5 572.1563,1336.125 Q572.5078,1335.75 572.9063,1335.75 Q573.6094,1335.75 574.0547,1336.1719 Q574.5,1336.5938 574.5,1337.5781 L574.5,1339.9219 Q574.5,1340.9063 574.0781,1341.3281 Q573.6563,1341.75 573,1341.75 Q572.4141,1341.75 572.0391,1341.4922 Q571.6641,1341.2344 571.5,1340.5547 Q571.4297,1340.0859 571.1719,1339.8281 Q570.7031,1339.3359 569.8594,1339.0547 Q569.0156,1338.75 568.1719,1338.75 Q567.1172,1338.75 566.2266,1339.1719 Q565.3594,1339.5938 564.6797,1340.5313 Q564,1341.4688 564,1342.7578 L564,1344.1406 Q564,1345.6875 565.2656,1346.7188 Q566.5313,1347.75 568.7813,1347.75 Q570.1172,1347.75 571.0547,1347.4453 Q571.5938,1347.2813 572.2031,1346.7422 Q572.6016,1346.4375 572.8125,1346.3438 Q573.0234,1346.25 573.2813,1346.25 Q573.7734,1346.25 574.125,1346.6484 Q574.5,1347.0234 574.5,1347.5625 Q574.5,1348.0781 573.9844,1348.6875 Q573.2344,1349.5781 572.0391,1350.0703 Q570.4688,1350.75 568.5469,1350.75 Q566.2969,1350.75 564.4922,1349.8594 Q563.0391,1349.1563 562.0078,1347.6328 Q561,1346.1094 561,1344.3047 L561,1342.6641 Q561,1340.7891 561.8906,1339.1484 Q562.8047,1337.5078 564.375,1336.6406 Q565.9688,1335.75 567.75,1335.75 Q568.8281,1335.75 569.7656,1336.125 Q570.7031,1336.5 571.5,1337.25 Z " fill="#000000"/><text fill="#000000" font-family="sans-serif" font-size="18" lengthAdjust="spacing" textLength="124.5" x="589.5" y="1349.8652">FreightNetwork</text><line style="stroke:#A80036;stroke-width:2.25;" x1="547.5" x2="717" y1="1366.5" y2="1366.5"/><!--MD5=[e24af10a0367b93d82d6bdd24a6ec764]
class Seadist--><rect codeLine="116" fill="#FEFECE" filter="url(#f14wqu4ypnsw80)" height="205.2773" id="Seadist" style="stroke:#A80036;stroke-width:2.25;" width="129" x="2148" y="767.25"/><ellipse cx="2178.6" cy="791.25" fill="#ADD1B2" rx="16.5" ry="16.5" style="stroke:#A80036;stroke-width:1.5;"/><path d="M2181.6,786 Q2181.9047,785.25 2182.2563,784.875 Q2182.6078,784.5 2183.0063,784.5 Q2183.7094,784.5 2184.1547,784.9219 Q2184.6,785.3438 2184.6,786.3281 L2184.6,788.6719 Q2184.6,789.6563 2184.1781,790.0781 Q2183.7563,790.5 2183.1,790.5 Q2182.5141,790.5 2182.1391,790.2422 Q2181.7641,789.9844 2181.6,789.3047 Q2181.5297,788.8359 2181.2719,788.5781 Q2180.8031,788.0859 2179.9594,787.8047 Q2179.1156,787.5 2178.2719,787.5 Q2177.2172,787.5 2176.3266,787.9219 Q2175.4594,788.3438 2174.7797,789.2813 Q2174.1,790.2188 2174.1,791.5078 L2174.1,792.8906 Q2174.1,794.4375 2175.3656,795.4688 Q2176.6313,796.5 2178.8813,796.5 Q2180.2172,796.5 2181.1547,796.1953 Q2181.6938,796.0313 2182.3031,795.4922 Q2182.7016,795.1875 2182.9125,795.0938 Q2183.1234,795 2183.3813,795 Q2183.8734,795 2184.225,795.3984 Q2184.6,795.7734 2184.6,796.3125 Q2184.6,796.8281 2184.0844,797.4375 Q2183.3344,798.3281 2182.1391,798.8203 Q2180.5688,799.5 2178.6469,799.5 Q2176.3969,799.5 2174.5922,798.6094 Q2173.1391,797.9063 2172.1078,796.3828 Q2171.1,794.8594 2171.1,793.0547 L2171.1,791.4141 Q2171.1,789.5391 2171.9906,787.8984 Q2172.9047,786.2578 2174.475,785.3906 Q2176.0688,784.5 2177.85,784.5 Q2178.9281,784.5 2179.8656,784.875 Q2180.8031,785.25 2181.6,786 Z " fill="#000000"/><text fill="#000000" font-family="sans-serif" font-size="18" lengthAdjust="spacing" textLength="63" x="2201.4" y="798.6152">Seadist</text><line style="stroke:#A80036;stroke-width:2.25;" x1="2149.5" x2="2275.5" y1="815.25" y2="815.25"/><text fill="#000000" font-family="sans-serif" font-size="16.5" lengthAdjust="spacing" textLength="55.5" x="2157" y="838.3784">-portId1</text><text fill="#000000" font-family="sans-serif" font-size="16.5" lengthAdjust="spacing" textLength="55.5" x="2157" y="859.1323">-portId2</text><text fill="#000000" font-family="sans-serif" font-size="16.5" lengthAdjust="spacing" textLength="96" x="2157" y="879.8862">-seaDistance</text><text fill="#000000" font-family="sans-serif" font-size="16.5" lengthAdjust="spacing" textLength="84" x="2157" y="900.6401">-portName1</text><text fill="#000000" font-family="sans-serif" font-size="16.5" lengthAdjust="spacing" textLength="84" x="2157" y="921.394">-portName2</text><text fill="#000000" font-family="sans-serif" font-size="16.5" lengthAdjust="spacing" textLength="111" x="2157" y="942.1479">-countryName1</text><text fill="#000000" font-family="sans-serif" font-size="16.5" lengthAdjust="spacing" textLength="111" x="2157" y="962.9019">-countryName2</text><!--MD5=[f8e092794d52bf9a252466252ae7bd1c]
class System--><rect fill="#FEFECE" filter="url(#f14wqu4ypnsw80)" height="60" id="System" style="stroke:#A80036;stroke-width:2.25;" width="109.5" x="1077.75" y="10.5"/><ellipse cx="1100.25" cy="34.5" fill="#ADD1B2" rx="16.5" ry="16.5" style="stroke:#A80036;stroke-width:1.5;"/><path d="M1103.25,29.25 Q1103.5547,28.5 1103.9063,28.125 Q1104.2578,27.75 1104.6563,27.75 Q1105.3594,27.75 1105.8047,28.1719 Q1106.25,28.5938 1106.25,29.5781 L1106.25,31.9219 Q1106.25,32.9063 1105.8281,33.3281 Q1105.4063,33.75 1104.75,33.75 Q1104.1641,33.75 1103.7891,33.4922 Q1103.4141,33.2344 1103.25,32.5547 Q1103.1797,32.0859 1102.9219,31.8281 Q1102.4531,31.3359 1101.6094,31.0547 Q1100.7656,30.75 1099.9219,30.75 Q1098.8672,30.75 1097.9766,31.1719 Q1097.1094,31.5938 1096.4297,32.5313 Q1095.75,33.4688 1095.75,34.7578 L1095.75,36.1406 Q1095.75,37.6875 1097.0156,38.7188 Q1098.2813,39.75 1100.5313,39.75 Q1101.8672,39.75 1102.8047,39.4453 Q1103.3438,39.2813 1103.9531,38.7422 Q1104.3516,38.4375 1104.5625,38.3438 Q1104.7734,38.25 1105.0313,38.25 Q1105.5234,38.25 1105.875,38.6484 Q1106.25,39.0234 1106.25,39.5625 Q1106.25,40.0781 1105.7344,40.6875 Q1104.9844,41.5781 1103.7891,42.0703 Q1102.2188,42.75 1100.2969,42.75 Q1098.0469,42.75 1096.2422,41.8594 Q1094.7891,41.1563 1093.7578,39.6328 Q1092.75,38.1094 1092.75,36.3047 L1092.75,34.6641 Q1092.75,32.7891 1093.6406,31.1484 Q1094.5547,29.5078 1096.125,28.6406 Q1097.7188,27.75 1099.5,27.75 Q1100.5781,27.75 1101.5156,28.125 Q1102.4531,28.5 1103.25,29.25 Z " fill="#000000"/><text fill="#000000" font-family="sans-serif" font-size="18" lengthAdjust="spacing" textLength="61.5" x="1121.25" y="41.8652">System</text><line style="stroke:#A80036;stroke-width:2.25;" x1="1079.25" x2="1185.75" y1="58.5" y2="58.5"/><!--MD5=[d729e47c8b99010fceb84b610067730f]
link CargoManifest to Ports--><path codeLine="126" d="M1578.57,1089.72 C1628.715,1063.83 1691.925,1027.95 1743,988.5 C1768.695,968.655 1794.21,943.245 1814.7,921.045 " fill="none" id="CargoManifest-Ports" style="stroke:#A80036;stroke-width:1.5;"/><polygon fill="#000000" points="1636.6029,970.9042,1623.0002,975.2034,1628.1251,982.3777,1636.6029,970.9042" style="stroke:#000000;stroke-width:1.5;"/><text fill="#000000" font-family="sans-serif" font-size="19.5" lengthAdjust="spacing" textLength="97.5" x="1644" y="983.2427">delivered at</text><text fill="#000000" font-family="sans-serif" font-size="19.5" lengthAdjust="spacing" textLength="7.5" x="1590.2704" y="1106.2592">*</text><text fill="#000000" font-family="sans-serif" font-size="19.5" lengthAdjust="spacing" textLength="10.5" x="1795.1958" y="952.6084">1</text><!--MD5=[1007fce2994c0804f23855fbfd3e6bbd]
link CargoManifest to Warehouse--><path codeLine="127" d="M1578.315,1178.835 C1642.125,1214.4 1728.135,1262.34 1787.955,1295.685 " fill="none" id="CargoManifest-Warehouse" style="stroke:#A80036;stroke-width:1.5;"/><polygon fill="#000000" points="1637.0511,1197.9151,1627.3463,1187.4589,1623.0538,1195.1602,1637.0511,1197.9151" style="stroke:#000000;stroke-width:1.5;"/><text fill="#000000" font-family="sans-serif" font-size="19.5" lengthAdjust="spacing" textLength="97.5" x="1644" y="1202.2427">delivered at</text><text fill="#000000" font-family="sans-serif" font-size="19.5" lengthAdjust="spacing" textLength="7.5" x="1589.9827" y="1206.7921">*</text><text fill="#000000" font-family="sans-serif" font-size="19.5" lengthAdjust="spacing" textLength="10.5" x="1765.6192" y="1284.071">1</text><!--MD5=[37a14a5de6d6fd738aee271300f4b5c8]
link Company to Ship--><path codeLine="129" d="M138.195,801.405 C181.065,786.24 239.01,765.75 288.87,748.095 " fill="none" id="Company-Ship" style="stroke:#A80036;stroke-width:1.5;"/><polygon fill="#000000" points="199.8205,747.7621,185.5594,748.1316,188.5002,756.4434,199.8205,747.7621" style="stroke:#000000;stroke-width:1.5;"/><text fill="#000000" font-family="sans-serif" font-size="19.5" lengthAdjust="spacing" textLength="34.5" x="206.25" y="758.2427">own</text><text fill="#000000" font-family="sans-serif" font-size="19.5" lengthAdjust="spacing" textLength="10.5" x="150.0879" y="819.9791">1</text><text fill="#000000" font-family="sans-serif" font-size="19.5" lengthAdjust="spacing" textLength="30" x="247.6803" y="772.8744">1..*</text><!--MD5=[a2a194d3aa0c5b34ec916a16bebf9a1a]
link Company to System--><path codeLine="130" d="M81.48,782.97 C97.26,685.275 149.805,433.92 289.5,285 C506.505,53.64 928.23,36.96 1077.255,38.73 " fill="none" id="Company-System" style="stroke:#A80036;stroke-width:1.5;"/><polygon fill="#000000" points="618.7575,55.7737,605.2507,60.365,610.529,67.4273,618.7575,55.7737" style="stroke:#000000;stroke-width:1.5;"/><text fill="#000000" font-family="sans-serif" font-size="19.5" lengthAdjust="spacing" textLength="31.5" x="626.25" y="68.2427">has</text><text fill="#000000" font-family="sans-serif" font-size="19.5" lengthAdjust="spacing" textLength="10.5" x="71.4626" y="766.5028">1</text><text fill="#000000" font-family="sans-serif" font-size="19.5" lengthAdjust="spacing" textLength="30" x="1035.6207" y="60.7107">1..*</text><!--MD5=[09366576ee87d48d594df10cacc83f45]
link Company to Employee--><path codeLine="131" d="M103.14,782.94 C163.245,693.9 306.165,482.235 366.315,393.135 " fill="none" id="Company-Employee" style="stroke:#A80036;stroke-width:1.5;"/><polygon fill="#000000" points="194.6967,555.0477,183.4512,563.8257,190.7585,568.7592,194.6967,555.0477" style="stroke:#000000;stroke-width:1.5;"/><text fill="#000000" font-family="sans-serif" font-size="19.5" lengthAdjust="spacing" textLength="39" x="204" y="569.2427">have</text><text fill="#000000" font-family="sans-serif" font-size="19.5" lengthAdjust="spacing" textLength="10.5" x="98.4022" y="766.4654">1</text><text fill="#000000" font-family="sans-serif" font-size="19.5" lengthAdjust="spacing" textLength="30" x="326.7042" y="424.9762">1..*</text><!--MD5=[710b10ea314ec23c5eb602bd01bfa9d5]
link Company to Truck--><path codeLine="132" d="M93.375,864.675 C110.925,900.72 141.255,951.795 183,981 C368.13,1110.555 656.085,1109.025 766.395,1102.935 " fill="none" id="Company-Truck" style="stroke:#A80036;stroke-width:1.5;"/><polygon fill="#000000" points="381.32,1027.2666,370.0014,1018.5831,367.059,1026.8944,381.32,1027.2666" style="stroke:#000000;stroke-width:1.5;"/><text fill="#000000" font-family="sans-serif" font-size="19.5" lengthAdjust="spacing" textLength="34.5" x="387.75" y="1032.7427">own</text><text fill="#000000" font-family="sans-serif" font-size="19.5" lengthAdjust="spacing" textLength="10.5" x="85.7367" y="895.9648">1</text><text fill="#000000" font-family="sans-serif" font-size="19.5" lengthAdjust="spacing" textLength="30" x="724.6515" y="1126.1702">1..*</text><!--MD5=[3d97e7a8068d9b0a6bb8fcf7dc76451d]
link Company to Ports--><path codeLine="133" d="M138.435,845.415 C180.555,858.96 237.645,875.025 289.5,882 C382.665,894.525 406.995,882.42 501,882 C1006.545,879.765 1617.96,872.85 1802.895,870.675 " fill="none" id="Company-Ports" style="stroke:#A80036;stroke-width:1.5;"/><polygon fill="#000000" points="942.7491,864.3775,929.25,859.7637,929.1162,868.5795,942.7491,864.3775" style="stroke:#000000;stroke-width:1.5;"/><text fill="#000000" font-family="sans-serif" font-size="19.5" lengthAdjust="spacing" textLength="39" x="948.75" y="872.2427">have</text><text fill="#000000" font-family="sans-serif" font-size="19.5" lengthAdjust="spacing" textLength="10.5" x="149.9352" y="871.3389">1</text><text fill="#000000" font-family="sans-serif" font-size="19.5" lengthAdjust="spacing" textLength="30" x="1760.9526" y="865.1264">1..*</text><!--MD5=[e359b474b5bea3d5e0a05d5f38acf6c5]
link Company to FreightNetwork--><path codeLine="134" d="M78.345,864.525 C84.75,933 106.905,1071.3 183,1155 C279.84,1261.515 445.515,1311.9 545.895,1333.725 " fill="none" id="Company-FreightNetwork" style="stroke:#A80036;stroke-width:1.5;"/><polygon fill="#000000" points="195.794,1147.0763,189.3398,1134.354,183.0944,1140.5774,195.794,1147.0763" style="stroke:#000000;stroke-width:1.5;"/><text fill="#000000" font-family="sans-serif" font-size="19.5" lengthAdjust="spacing" textLength="39" x="204" y="1149.7427">have</text><text fill="#000000" font-family="sans-serif" font-size="19.5" lengthAdjust="spacing" textLength="10.5" x="67.6068" y="895.7838">1</text><text fill="#000000" font-family="sans-serif" font-size="19.5" lengthAdjust="spacing" textLength="10.5" x="523.6581" y="1353.6459">1</text><!--MD5=[a27713cdd7694cea32c8be89a3131559]
link Containers to CargoManifest--><path codeLine="136" d="M1206.375,1105.905 C1263.42,1110.96 1343.13,1118.025 1403.445,1123.38 " fill="none" id="Containers-CargoManifest" style="stroke:#A80036;stroke-width:1.5;"/><polygon fill="#000000" points="1270.4707,1097.4261,1257.3455,1091.8366,1256.5667,1100.6189,1270.4707,1097.4261" style="stroke:#000000;stroke-width:1.5;"/><text fill="#000000" font-family="sans-serif" font-size="19.5" lengthAdjust="spacing" textLength="81" x="1276.5" y="1104.7427">related to</text><text fill="#000000" font-family="sans-serif" font-size="19.5" lengthAdjust="spacing" textLength="30" x="1217.7621" y="1128.5051">1..*</text><text fill="#000000" font-family="sans-serif" font-size="19.5" lengthAdjust="spacing" textLength="30" x="1362.228" y="1144.1428">1..*</text><!--MD5=[c7fc6f07f2489647d2a3f83969f89660]
link Containers to Ports--><path codeLine="137" d="M1206.33,1071.96 C1260.465,1051.695 1336.47,1023.975 1404,1002 C1546.59,955.605 1716.87,908.265 1802.88,884.925 " fill="none" id="Containers-Ports" style="stroke:#A80036;stroke-width:1.5;"/><polygon fill="#000000" points="1472.6565,932.5199,1458.3914,932.3724,1461.0291,940.7854,1472.6565,932.5199" style="stroke:#000000;stroke-width:1.5;"/><text fill="#000000" font-family="sans-serif" font-size="19.5" lengthAdjust="spacing" textLength="43.5" x="1479" y="942.7427">store</text><text fill="#000000" font-family="sans-serif" font-size="19.5" lengthAdjust="spacing" textLength="30" x="1218.2665" y="1090.1137">0..*</text><text fill="#000000" font-family="sans-serif" font-size="19.5" lengthAdjust="spacing" textLength="10.5" x="1780.4907" y="910.3974">1</text><!--MD5=[40d84d2acc82335a7c6decf41782281a]
link Containers to Warehouse--><path codeLine="138" d="M1206.165,1164.78 C1257.495,1207.2 1330.185,1259.55 1404,1287 C1533.21,1335.06 1696.395,1339.995 1787.91,1338.21 " fill="none" id="Containers-Warehouse" style="stroke:#A80036;stroke-width:1.5;"/><polygon fill="#000000" points="1472.6874,1275.9064,1460.9447,1267.8055,1458.4258,1276.2548,1472.6874,1275.9064" style="stroke:#000000;stroke-width:1.5;"/><text fill="#000000" font-family="sans-serif" font-size="19.5" lengthAdjust="spacing" textLength="43.5" x="1479" y="1281.7427">store</text><text fill="#000000" font-family="sans-serif" font-size="19.5" lengthAdjust="spacing" textLength="30" x="1218.0794" y="1195.4064">0..*</text><text fill="#000000" font-family="sans-serif" font-size="19.5" lengthAdjust="spacing" textLength="10.5" x="1765.5673" y="1333.1076">1</text><!--MD5=[553c71e238892de64676e9482c62727a]
link Country to Border--><path codeLine="140" d="M2596.665,1458 C2642.565,1458 2708.43,1458 2756.745,1458 " fill="none" id="Country-Border" style="stroke:#A80036;stroke-width:1.5;"/><polygon fill="#000000" points="2656.5,1444.7637,2642.9324,1440.3553,2642.9324,1449.1721,2656.5,1444.7637" style="stroke:#000000;stroke-width:1.5;"/><text fill="#000000" font-family="sans-serif" font-size="19.5" lengthAdjust="spacing" textLength="48" x="2662.5" y="1452.7427">has a</text><text fill="#000000" font-family="sans-serif" font-size="19.5" lengthAdjust="spacing" textLength="10.5" x="2608.6576" y="1480.7055">2</text><text fill="#000000" font-family="sans-serif" font-size="19.5" lengthAdjust="spacing" textLength="7.5" x="2737.4707" y="1480.3928">*</text><!--MD5=[c549efd5903bd57ae8426884da365cce]
reverse link Place to Ports--><path codeLine="142" d="M1539.225,1502.115 C1594.215,1437.045 1685.34,1321.935 1743,1210.5 C1793.205,1113.48 1828.74,989.985 1846.2,921.555 " fill="none" id="Place-backto-Ports" style="stroke:#A80036;stroke-width:1.5;"/><polygon fill="none" points="1546.89,1509.315,1519.395,1525.26,1530.945,1495.65,1546.89,1509.315" style="stroke:#A80036;stroke-width:1.5;"/><!--MD5=[8019f7a40ce5be359cb5778b910e4989]
reverse link Place to Capital--><path codeLine="143" d="M1568.04,1575.63 C1639.335,1594.62 1744.335,1622.595 1806.63,1639.185 " fill="none" id="Place-backto-Capital" style="stroke:#A80036;stroke-width:1.5;"/><polygon fill="none" points="1565.145,1585.71,1538.85,1567.845,1570.545,1565.43,1565.145,1585.71" style="stroke:#A80036;stroke-width:1.5;"/><!--MD5=[3d04185e7085eaaeba7ebd93b9963be0]
link PlaceLocation to Country--><path codeLine="145" d="M2295.3,1458 C2354.61,1458 2433.375,1458 2485.2,1458 " fill="none" id="PlaceLocation-Country" style="stroke:#A80036;stroke-width:1.5;"/><polygon fill="#000000" points="2355,1444.7637,2341.4324,1440.3553,2341.4324,1449.1721,2355,1444.7637" style="stroke:#000000;stroke-width:1.5;"/><text fill="#000000" font-family="sans-serif" font-size="19.5" lengthAdjust="spacing" textLength="78" x="2361" y="1452.7427">placed in</text><text fill="#000000" font-family="sans-serif" font-size="19.5" lengthAdjust="spacing" textLength="7.5" x="2306.9302" y="1479.9237">*</text><text fill="#000000" font-family="sans-serif" font-size="19.5" lengthAdjust="spacing" textLength="10.5" x="2463.0623" y="1480.6273">1</text><!--MD5=[3f90a4e0e12e19ee6f3a457d358ba219]
link Place to PlaceLocation--><path codeLine="147" d="M1538.535,1549.26 C1657.785,1533.075 1977.93,1489.635 2129.415,1469.07 " fill="none" id="Place-PlaceLocation" style="stroke:#A80036;stroke-width:1.5;"/><polygon fill="#000000" points="1820.9319,1482.7551,1806.8946,1480.2113,1808.0803,1488.948,1820.9319,1482.7551" style="stroke:#000000;stroke-width:1.5;"/><text fill="#000000" font-family="sans-serif" font-size="19.5" lengthAdjust="spacing" textLength="85.5" x="1827" y="1491.7427">located at</text><text fill="#000000" font-family="sans-serif" font-size="19.5" lengthAdjust="spacing" textLength="10.5" x="1550.0817" y="1570.8204">1</text><text fill="#000000" font-family="sans-serif" font-size="19.5" lengthAdjust="spacing" textLength="10.5" x="2107.5971" y="1492.3338">1</text><!--MD5=[cff4e3c6ede03364cf99bd3378be6b6a]
link Ship to Containers--><path codeLine="149" d="M501.36,733.62 C673.71,771.03 999.45,842.535 1009.5,850.5 C1046.445,879.78 1072.905,923.145 1091.49,965.505 " fill="none" id="Ship-Containers" style="stroke:#A80036;stroke-width:1.5;"/><polygon fill="#000000" points="777.9804,781.5066,766.9649,772.4416,763.7405,780.6476,777.9804,781.5066" style="stroke:#000000;stroke-width:1.5;"/><text fill="#000000" font-family="sans-serif" font-size="19.5" lengthAdjust="spacing" textLength="76.5" x="784.5" y="786.7427">transport</text><text fill="#000000" font-family="sans-serif" font-size="19.5" lengthAdjust="spacing" textLength="10.5" x="512.844" y="757.4449">1</text><text fill="#000000" font-family="sans-serif" font-size="19.5" lengthAdjust="spacing" textLength="30" x="1056.8517" y="949.657">1..*</text><!--MD5=[b5e7d3b323f2cd13b2215620f50e65f3]
link Ship to Ports--><path codeLine="150" d="M501.45,707.85 C777.03,700.875 1516.755,690.96 1743,777 C1767.06,786.15 1789.95,802.35 1808.91,818.685 " fill="none" id="Ship-Ports" style="stroke:#A80036;stroke-width:1.5;"/><polygon fill="#000000" points="1115.2232,692.3972,1102.0764,686.8585,1101.3317,695.6438,1115.2232,692.3972" style="stroke:#000000;stroke-width:1.5;"/><text fill="#000000" font-family="sans-serif" font-size="19.5" lengthAdjust="spacing" textLength="42" x="1121.25" y="699.7427">dock</text><text fill="#000000" font-family="sans-serif" font-size="19.5" lengthAdjust="spacing" textLength="30" x="513.0019" y="728.9474">0..*</text><text fill="#000000" font-family="sans-serif" font-size="19.5" lengthAdjust="spacing" textLength="10.5" x="1787.3181" y="802.5629">1</text><!--MD5=[5541ef512584d1243c10a7f3b3317e1c]
link Ship to ShipLocation--><path codeLine="151" d="M501.315,677.64 C516.285,673.095 531.51,668.595 546,664.5 C727.26,613.305 942.39,560.79 1054.455,534.045 " fill="none" id="Ship-ShipLocation" style="stroke:#A80036;stroke-width:1.5;"/><polygon fill="#000000" points="800.7594,568.3791,786.5193,567.5213,788.7347,576.0552,800.7594,568.3791" style="stroke:#000000;stroke-width:1.5;"/><text fill="#000000" font-family="sans-serif" font-size="19.5" lengthAdjust="spacing" textLength="31.5" x="807" y="578.2427">has</text><text fill="#000000" font-family="sans-serif" font-size="19.5" lengthAdjust="spacing" textLength="10.5" x="512.7944" y="695.692">1</text><text fill="#000000" font-family="sans-serif" font-size="19.5" lengthAdjust="spacing" textLength="30" x="1012.5336" y="558.201">1..*</text><!--MD5=[9c226fb16923f449f2aeb2d55d4b05b5]
link Employee to ShipLocation--><path codeLine="153" d="M460.62,366.72 C595.47,396.75 908.745,466.515 1054.215,498.9 " fill="none" id="Employee-ShipLocation" style="stroke:#A80036;stroke-width:1.5;"/><polygon fill="#000000" points="782.0707,423.3938,769.7856,416.1419,767.8693,424.7478,782.0707,423.3938" style="stroke:#000000;stroke-width:1.5;"/><text fill="#000000" font-family="sans-serif" font-size="19.5" lengthAdjust="spacing" textLength="69" x="788.25" y="429.7427">controls</text><text fill="#000000" font-family="sans-serif" font-size="19.5" lengthAdjust="spacing" textLength="10.5" x="472.3164" y="391.3694">1</text><text fill="#000000" font-family="sans-serif" font-size="19.5" lengthAdjust="spacing" textLength="30" x="1012.2629" y="518.5531">1..*</text><!--MD5=[22fb9506fac029fc1d2ae00f0eb8d606]
link Employee to User--><path codeLine="154" d="M453.78,311.985 C480.87,293.91 514.215,273.285 546,258 C618.945,222.93 708.915,194.865 763.17,179.475 " fill="none" id="Employee-User" style="stroke:#A80036;stroke-width:1.5;"/><polygon fill="#000000" points="594.8943,178.8109,580.6868,180.1002,584.158,188.2049,594.8943,178.8109" style="stroke:#000000;stroke-width:1.5;"/><text fill="#000000" font-family="sans-serif" font-size="19.5" lengthAdjust="spacing" textLength="81" x="601.5" y="189.7427">relates to</text><text fill="#000000" font-family="sans-serif" font-size="19.5" lengthAdjust="spacing" textLength="10.5" x="456.267" y="295.5214">1</text><text fill="#000000" font-family="sans-serif" font-size="19.5" lengthAdjust="spacing" textLength="10.5" x="741.3097" y="204.9739">1</text><!--MD5=[bfae458883a557d51202afbf4dc319fa]
link Employee to Ports--><path codeLine="155" d="M461.055,338.49 C542.28,322.05 686.55,297 811.5,297 C811.5,297 811.5,297 1492.5,297 C1738.905,297 1826.82,678 1850.88,818.64 " fill="none" id="Employee-Ports" style="stroke:#A80036;stroke-width:1.5;"/><polygon fill="#000000" points="1101.3389,286.2127,1089.9545,277.6156,1087.0755,285.9491,1101.3389,286.2127" style="stroke:#000000;stroke-width:1.5;"/><text fill="#000000" font-family="sans-serif" font-size="19.5" lengthAdjust="spacing" textLength="69" x="1107.75" y="291.7427">controls</text><text fill="#000000" font-family="sans-serif" font-size="19.5" lengthAdjust="spacing" textLength="10.5" x="472.3794" y="358.474">1</text><text fill="#000000" font-family="sans-serif" font-size="19.5" lengthAdjust="spacing" textLength="30" x="1816.2821" y="802.9018">1..*</text><!--MD5=[8cef3b8bb432fdc493768abc58cade76]
link Truck to Containers--><path codeLine="157" d="M859.845,1099.5 C911.805,1099.5 997.665,1099.5 1058.835,1099.5 " fill="none" id="Truck-Containers" style="stroke:#A80036;stroke-width:1.5;"/><polygon fill="#000000" points="924,1086.2637,910.4324,1081.8553,910.4324,1090.6721,924,1086.2637" style="stroke:#000000;stroke-width:1.5;"/><text fill="#000000" font-family="sans-serif" font-size="19.5" lengthAdjust="spacing" textLength="76.5" x="930" y="1094.2427">transport</text><text fill="#000000" font-family="sans-serif" font-size="19.5" lengthAdjust="spacing" textLength="10.5" x="871.2408" y="1122.4254">1</text><text fill="#000000" font-family="sans-serif" font-size="19.5" lengthAdjust="spacing" textLength="30" x="1016.9206" y="1121.3544">1..*</text><!--MD5=[668bfb6c3cf503ab645d5414a0ff2b4e]
link Truck to Warehouse--><path codeLine="158" d="M850.245,1129.665 C895.095,1165.965 975.72,1226.235 1054.5,1260 C1289.64,1360.755 1367.28,1342.995 1623,1350 C1676.31,1351.455 1689.78,1353.435 1743,1350 C1757.535,1349.055 1773.015,1347.465 1787.79,1345.65 " fill="none" id="Truck-Warehouse" style="stroke:#A80036;stroke-width:1.5;"/><polygon fill="#000000" points="1292.0586,1315.9474,1279.8269,1308.6057,1277.8476,1317.1974,1292.0586,1315.9474" style="stroke:#000000;stroke-width:1.5;"/><text fill="#000000" font-family="sans-serif" font-size="19.5" lengthAdjust="spacing" textLength="37.5" x="1298.25" y="1322.2427">park</text><text fill="#000000" font-family="sans-serif" font-size="19.5" lengthAdjust="spacing" textLength="30" x="826.5014" y="1161.8407">0..*</text><text fill="#000000" font-family="sans-serif" font-size="19.5" lengthAdjust="spacing" textLength="10.5" x="1765.4289" y="1369.3619">1</text><!--MD5=[4a0bbcdd6df460060db454e8e2c30a96]
link User to System--><path codeLine="160" d="M862.515,149.745 C902.19,135.675 959.85,114.675 1009.5,94.5 C1031.955,85.38 1056.435,74.655 1077.495,65.175 " fill="none" id="User-System" style="stroke:#A80036;stroke-width:1.5;"/><polygon fill="#000000" points="940.7294,78.5181,926.4897,79.3825,929.7174,87.5873,940.7294,78.5181" style="stroke:#000000;stroke-width:1.5;"/><text fill="#000000" font-family="sans-serif" font-size="19.5" lengthAdjust="spacing" textLength="42" x="947.25" y="89.2427">uses</text><text fill="#000000" font-family="sans-serif" font-size="19.5" lengthAdjust="spacing" textLength="30" x="874.41" y="169.205">1..*</text><text fill="#000000" font-family="sans-serif" font-size="19.5" lengthAdjust="spacing" textLength="10.5" x="1055.1323" y="92.69">1</text><!--MD5=[70c37dc9bfbc8656942103c36f1181e4]
link User to Role--><path codeLine="161" d="M862.59,175.755 C876.975,178.125 892.83,180.33 907.5,181.5 C966.105,186.195 1033.62,183.765 1078.98,180.99 " fill="none" id="User-Role" style="stroke:#A80036;stroke-width:1.5;"/><polygon fill="#000000" points="946.4978,168.4451,933.0408,163.7098,932.8275,172.524,946.4978,168.4451" style="stroke:#000000;stroke-width:1.5;"/><text fill="#000000" font-family="sans-serif" font-size="19.5" lengthAdjust="spacing" textLength="31.5" x="952.5" y="176.2427">has</text><text fill="#000000" font-family="sans-serif" font-size="19.5" lengthAdjust="spacing" textLength="10.5" x="874.5862" y="200.7587">1</text><text fill="#000000" font-family="sans-serif" font-size="19.5" lengthAdjust="spacing" textLength="30" x="1037.2031" y="204.0474">1..*</text><!--MD5=[591625470abc4a5f324d9b49d40e13b3]
link Warehouse to PlaceLocation--><path codeLine="163" d="M1932.225,1359.885 C1989.465,1380.03 2070.135,1408.425 2129.97,1429.485 " fill="none" id="Warehouse-PlaceLocation" style="stroke:#A80036;stroke-width:1.5;"/><polygon fill="#000000" points="1991.5746,1366.2537,1980.2401,1357.5909,1977.3129,1365.9075,1991.5746,1366.2537" style="stroke:#000000;stroke-width:1.5;"/><text fill="#000000" font-family="sans-serif" font-size="19.5" lengthAdjust="spacing" textLength="85.5" x="1998" y="1371.7427">located at</text><text fill="#000000" font-family="sans-serif" font-size="19.5" lengthAdjust="spacing" textLength="10.5" x="1944.0884" y="1385.7766">1</text><text fill="#000000" font-family="sans-serif" font-size="19.5" lengthAdjust="spacing" textLength="10.5" x="2107.6746" y="1447.577">1</text><!--MD5=[fa4d65f953ae0f8f2ca1213e61726aa9]
link FreightNetwork to Place--><path codeLine="164" d="M671.31,1378.8 C721.665,1417.47 815.4,1482.855 907.5,1512 C1099.26,1572.69 1343.55,1565.415 1443.63,1559.085 " fill="none" id="FreightNetwork-Place" style="stroke:#A80036;stroke-width:1.5;"/><text fill="#000000" font-family="sans-serif" font-size="19.5" lengthAdjust="spacing" textLength="99" x="909" y="1506.7427">related with</text><text fill="#000000" font-family="sans-serif" font-size="19.5" lengthAdjust="spacing" textLength="10.5" x="669.8964" y="1410.4817">1</text><text fill="#000000" font-family="sans-serif" font-size="19.5" lengthAdjust="spacing" textLength="30" x="1401.7407" y="1582.3488">1..*</text><!--MD5=[6d3d45a2319404bb3e06b58881af6b0d]
link Ports to Seadist--><path codeLine="166" d="M1917.27,870 C1980.09,870 2082,870 2147.745,870 " fill="none" id="Ports-Seadist" style="stroke:#A80036;stroke-width:1.5;"/><text fill="#000000" font-family="sans-serif" font-size="19.5" lengthAdjust="spacing" textLength="48" x="2007" y="864.7427">has a</text><text fill="#000000" font-family="sans-serif" font-size="19.5" lengthAdjust="spacing" textLength="10.5" x="1929.1879" y="892.6273">2</text><text fill="#000000" font-family="sans-serif" font-size="19.5" lengthAdjust="spacing" textLength="7.5" x="2128.4707" y="892.3696">*</text><!--MD5=[6392a3b190709e347d4a23943ceb8f0e]
@startuml
'https://plantuml.com/class-diagram

hide methods
left to right direction
skinparam classAttributeIconSize 0

class Company {
-designation
}

class Employee {
-name
}

class Containers {
-x
-y
-z
-containerNumber
-checkDigit
-isoCode
-payLoad
-tare
-gross
-weight
}

class CargoManifest {
-listOfContainers
-ratio
-date
-mmsiCode
-id
-numberOfContainers
-destination
}

class Ship {
-mmsiCode
-imoCode
-numberEnergyGenerators
-generatorPower
-callSign
-draft
-name
-vesselTypeId
-length
-width
-capacity
}



class Ports {
-identification
-name
}

class Truck {

}

class Warehouse {
-identification
-name
-capacity
-occupancy
}

class Country {
-name
-continent
}

class PlaceLocation {
-latitude
-longitude
}

class ShipLocation {
-baseDateTime
-latitude
-longitude
-sog
-cog
-heading
-position
-transceiver
}

class User{
-username
-password
}

class Role{
-designation
}

class Capital{
-name
}

class Place {

}

class Border {
-countryName1
-countryName2
}

class FreightNetwork {
}

class Seadist {
-portId1
-portId2
-seaDistance
-portName1
-portName2
-countryName1
-countryName2
}

CargoManifest "*" - - "1" Ports : delivered at >
CargoManifest "*" - - "1" Warehouse : delivered at >

Company "1"- -"1..*" Ship: own >
Company "1" - "1..*" System : has >
Company "1"- -"1..*" Employee: have >
Company "1"- -"1..*" Truck: own >
Company "1"- -"1..*" Ports: have >
Company "1"- -"1" FreightNetwork: have >

Containers "1..*"- -"1..*" CargoManifest: related to >
Containers "0..*"- -"1" Ports: store >
Containers "0..*"- -"1" Warehouse: store >

Country "2" - - "*" Border : has a >

Place <|- - Ports
Place <|- - Capital

PlaceLocation "*" - - "1" Country : placed in >

Place "1" - - "1" PlaceLocation : located at >

Ship "1"- - -"1..*" Containers : transport >
Ship "0..*"- -"1" Ports: dock >
Ship "1" - - "1..*" ShipLocation : has >

Employee "1" - - - "1..*" ShipLocation : controls >
Employee "1" - - "1" User : relates to >
Employee "1" - - - "1..*" Ports : controls >

Truck "1"- -"1..*" Containers : transport >
Truck "0..*"- -"1" Warehouse: park >

User "1..*" - - "1" System : uses >
User "1" - - "1..*" Role : has >

Warehouse "1" - - "1" PlaceLocation : located at >
FreightNetwork "1" - - "1..*" Place : related with

Ports "2"- -"*" Seadist: has a


@enduml

@startuml

hide methods
left to right direction
skinparam classAttributeIconSize 0

class Company {
-designation
}

class Employee {
-name
}

class Containers {
-x
-y
-z
-containerNumber
-checkDigit
-isoCode
-payLoad
-tare
-gross
-weight
}

class CargoManifest {
-listOfContainers
-ratio
-date
-mmsiCode
-id
-numberOfContainers
-destination
}

class Ship {
-mmsiCode
-imoCode
-numberEnergyGenerators
-generatorPower
-callSign
-draft
-name
-vesselTypeId
-length
-width
-capacity
}



class Ports {
-identification
-name
}

class Truck {

}

class Warehouse {
-identification
-name
-capacity
-occupancy
}

class Country {
-name
-continent
}

class PlaceLocation {
-latitude
-longitude
}

class ShipLocation {
-baseDateTime
-latitude
-longitude
-sog
-cog
-heading
-position
-transceiver
}

class User{
-username
-password
}

class Role{
-designation
}

class Capital{
-name
}

class Place {

}

class Border {
-countryName1
-countryName2
}

class FreightNetwork {
}

class Seadist {
-portId1
-portId2
-seaDistance
-portName1
-portName2
-countryName1
-countryName2
}

CargoManifest "*" - - "1" Ports : delivered at >
CargoManifest "*" - - "1" Warehouse : delivered at >

Company "1"- -"1..*" Ship: own >
Company "1" - "1..*" System : has >
Company "1"- -"1..*" Employee: have >
Company "1"- -"1..*" Truck: own >
Company "1"- -"1..*" Ports: have >
Company "1"- -"1" FreightNetwork: have >

Containers "1..*"- -"1..*" CargoManifest: related to >
Containers "0..*"- -"1" Ports: store >
Containers "0..*"- -"1" Warehouse: store >

Country "2" - - "*" Border : has a >

Place <|- - Ports
Place <|- - Capital

PlaceLocation "*" - - "1" Country : placed in >

Place "1" - - "1" PlaceLocation : located at >

Ship "1"- - -"1..*" Containers : transport >
Ship "0..*"- -"1" Ports: dock >
Ship "1" - - "1..*" ShipLocation : has >

Employee "1" - - - "1..*" ShipLocation : controls >
Employee "1" - - "1" User : relates to >
Employee "1" - - - "1..*" Ports : controls >

Truck "1"- -"1..*" Containers : transport >
Truck "0..*"- -"1" Warehouse: park >

User "1..*" - - "1" System : uses >
User "1" - - "1..*" Role : has >

Warehouse "1" - - "1" PlaceLocation : located at >
FreightNetwork "1" - - "1..*" Place : related with

Ports "2"- -"*" Seadist: has a


@enduml

PlantUML version 1.2021.5(Sun Apr 25 12:20:28 BST 2021)
(GPL source distribution)
Java Runtime: OpenJDK Runtime Environment
JVM: Dynamic Code Evolution 64-Bit Server VM
Default Encoding: Cp1252
Language: pt
Country: PT
--></g></svg>