<?xml version="1.0" encoding="UTF-8" standalone="no"?><svg xmlns="http://www.w3.org/2000/svg" xmlns:xlink="http://www.w3.org/1999/xlink" contentScriptType="application/ecmascript" contentStyleType="text/css" height="658.8px" preserveAspectRatio="none" style="width:1162px;height:658px;" version="1.1" viewBox="0 0 1162 658" width="1162.8px" zoomAndPan="magnify"><defs><filter height="300%" id="f1aqg66i4d8j45" width="300%" x="-1" y="-1"><feGaussianBlur result="blurOut" stdDeviation="1.2"/><feColorMatrix in="blurOut" result="blurOut2" type="matrix" values="0 0 0 0 0 0 0 0 0 0 0 0 0 0 0 0 0 0 .4 0"/><feOffset dx="2.4" dy="2.4" in="blurOut2" result="blurOut3"/><feBlend in="SourceGraphic" in2="blurOut3" mode="normal"/></filter></defs><g><!--MD5=[02e4b9b7573f1156f41e60aa5b4e25a4]
class Company--><rect codeLine="7" fill="#FEFECE" filter="url(#f1aqg66i4d8j45)" height="32.3016" id="Company" style="stroke:#A80036;stroke-width:0.8999999999999999;" width="51" x="4.2" y="313.2"/><ellipse cx="13.2" cy="322.8" fill="#ADD1B2" rx="6.6" ry="6.6" style="stroke:#A80036;stroke-width:0.6;"/><path d="M14.4,320.7 Q14.5219,320.4 14.6625,320.25 Q14.8031,320.1 14.9625,320.1 Q15.2437,320.1 15.4219,320.2688 Q15.6,320.4375 15.6,320.8313 L15.6,321.7688 Q15.6,322.1625 15.4312,322.3313 Q15.2625,322.5 15,322.5 Q14.7656,322.5 14.6156,322.3969 Q14.4656,322.2938 14.4,322.0219 Q14.3719,321.8344 14.2687,321.7313 Q14.0812,321.5344 13.7438,321.4219 Q13.4063,321.3 13.0688,321.3 Q12.6469,321.3 12.2906,321.4688 Q11.9438,321.6375 11.6719,322.0125 Q11.4,322.3875 11.4,322.9031 L11.4,323.4563 Q11.4,324.075 11.9063,324.4875 Q12.4125,324.9 13.3125,324.9 Q13.8469,324.9 14.2219,324.7781 Q14.4375,324.7125 14.6812,324.4969 Q14.8406,324.375 14.925,324.3375 Q15.0094,324.3 15.1125,324.3 Q15.3094,324.3 15.45,324.4594 Q15.6,324.6094 15.6,324.825 Q15.6,325.0313 15.3937,325.275 Q15.0938,325.6312 14.6156,325.8281 Q13.9875,326.1 13.2188,326.1 Q12.3188,326.1 11.5969,325.7438 Q11.0156,325.4625 10.6031,324.8531 Q10.2,324.2438 10.2,323.5219 L10.2,322.8656 Q10.2,322.1156 10.5563,321.4594 Q10.9219,320.8031 11.55,320.4563 Q12.1875,320.1 12.9,320.1 Q13.3312,320.1 13.7062,320.25 Q14.0812,320.4 14.4,320.7 Z " fill="#000000"/><text fill="#000000" font-family="sans-serif" font-size="7.2" lengthAdjust="spacing" textLength="31.8" x="21.6" y="325.7461">Company</text><line style="stroke:#A80036;stroke-width:0.8999999999999999;" x1="4.8" x2="54.6" y1="332.4" y2="332.4"/><text fill="#000000" font-family="sans-serif" font-size="6.6" lengthAdjust="spacing" textLength="35.4" x="7.8" y="341.6514">-designation</text><!--MD5=[7421f545a0d8420c5bec41e74b387d9c]
class Employee--><rect codeLine="11" fill="#FEFECE" filter="url(#f1aqg66i4d8j45)" height="32.3016" id="Employee" style="stroke:#A80036;stroke-width:0.8999999999999999;" width="52.2" x="132" y="124.8"/><ellipse cx="141" cy="134.4" fill="#ADD1B2" rx="6.6" ry="6.6" style="stroke:#A80036;stroke-width:0.6;"/><path d="M142.2,132.3 Q142.3219,132 142.4625,131.85 Q142.6031,131.7 142.7625,131.7 Q143.0438,131.7 143.2219,131.8688 Q143.4,132.0375 143.4,132.4313 L143.4,133.3688 Q143.4,133.7625 143.2313,133.9313 Q143.0625,134.1 142.8,134.1 Q142.5656,134.1 142.4156,133.9969 Q142.2656,133.8937 142.2,133.6219 Q142.1719,133.4344 142.0688,133.3312 Q141.8813,133.1344 141.5438,133.0219 Q141.2062,132.9 140.8688,132.9 Q140.4469,132.9 140.0906,133.0688 Q139.7438,133.2375 139.4719,133.6125 Q139.2,133.9875 139.2,134.5031 L139.2,135.0563 Q139.2,135.675 139.7062,136.0875 Q140.2125,136.5 141.1125,136.5 Q141.6469,136.5 142.0219,136.3781 Q142.2375,136.3125 142.4813,136.0969 Q142.6406,135.975 142.725,135.9375 Q142.8094,135.9 142.9125,135.9 Q143.1094,135.9 143.25,136.0594 Q143.4,136.2094 143.4,136.425 Q143.4,136.6313 143.1938,136.875 Q142.8937,137.2313 142.4156,137.4281 Q141.7875,137.7 141.0187,137.7 Q140.1188,137.7 139.3969,137.3438 Q138.8156,137.0625 138.4031,136.4531 Q138,135.8438 138,135.1219 L138,134.4656 Q138,133.7156 138.3563,133.0594 Q138.7219,132.4031 139.35,132.0563 Q139.9875,131.7 140.7,131.7 Q141.1313,131.7 141.5063,131.85 Q141.8813,132 142.2,132.3 Z " fill="#000000"/><text fill="#000000" font-family="sans-serif" font-size="7.2" lengthAdjust="spacing" textLength="33" x="149.4" y="137.3461">Employee</text><line style="stroke:#A80036;stroke-width:0.8999999999999999;" x1="132.6" x2="183.6" y1="144" y2="144"/><text fill="#000000" font-family="sans-serif" font-size="6.6" lengthAdjust="spacing" textLength="18" x="135.6" y="153.2514">-name</text><!--MD5=[a3093aa9f96b7df9aab31d8715601ff6]
class Containers--><rect codeLine="15" fill="#FEFECE" filter="url(#f1aqg66i4d8j45)" height="107.0156" id="Containers" style="stroke:#A80036;stroke-width:0.8999999999999999;" width="58.8" x="423.6" y="386.4"/><ellipse cx="433.95" cy="396" fill="#ADD1B2" rx="6.6" ry="6.6" style="stroke:#A80036;stroke-width:0.6;"/><path d="M435.15,393.9 Q435.2719,393.6 435.4125,393.45 Q435.5531,393.3 435.7125,393.3 Q435.9938,393.3 436.1719,393.4688 Q436.35,393.6375 436.35,394.0313 L436.35,394.9688 Q436.35,395.3625 436.1813,395.5313 Q436.0125,395.7 435.75,395.7 Q435.5156,395.7 435.3656,395.5969 Q435.2156,395.4938 435.15,395.2219 Q435.1219,395.0344 435.0188,394.9313 Q434.8313,394.7344 434.4938,394.6219 Q434.1563,394.5 433.8187,394.5 Q433.3969,394.5 433.0406,394.6688 Q432.6937,394.8375 432.4219,395.2125 Q432.15,395.5875 432.15,396.1031 L432.15,396.6563 Q432.15,397.275 432.6563,397.6875 Q433.1625,398.1 434.0625,398.1 Q434.5969,398.1 434.9719,397.9781 Q435.1875,397.9125 435.4313,397.6969 Q435.5906,397.575 435.675,397.5375 Q435.7594,397.5 435.8625,397.5 Q436.0594,397.5 436.2,397.6594 Q436.35,397.8094 436.35,398.025 Q436.35,398.2313 436.1438,398.475 Q435.8438,398.8313 435.3656,399.0281 Q434.7375,399.3 433.9688,399.3 Q433.0687,399.3 432.3469,398.9437 Q431.7656,398.6625 431.3531,398.0531 Q430.95,397.4437 430.95,396.7219 L430.95,396.0656 Q430.95,395.3156 431.3063,394.6594 Q431.6719,394.0031 432.3,393.6563 Q432.9375,393.3 433.65,393.3 Q434.0813,393.3 434.4563,393.45 Q434.8313,393.6 435.15,393.9 Z " fill="#000000"/><text fill="#000000" font-family="sans-serif" font-size="7.2" lengthAdjust="spacing" textLength="36.6" x="442.65" y="398.9461">Containers</text><line style="stroke:#A80036;stroke-width:0.8999999999999999;" x1="424.2" x2="481.8" y1="405.6" y2="405.6"/><text fill="#000000" font-family="sans-serif" font-size="6.6" lengthAdjust="spacing" textLength="6" x="427.2" y="414.8514">-x</text><text fill="#000000" font-family="sans-serif" font-size="6.6" lengthAdjust="spacing" textLength="6" x="427.2" y="423.1529">-y</text><text fill="#000000" font-family="sans-serif" font-size="6.6" lengthAdjust="spacing" textLength="6" x="427.2" y="431.4545">-z</text><text fill="#000000" font-family="sans-serif" font-size="6.6" lengthAdjust="spacing" textLength="51.6" x="427.2" y="439.7561">-containerNumber</text><text fill="#000000" font-family="sans-serif" font-size="6.6" lengthAdjust="spacing" textLength="31.8" x="427.2" y="448.0576">-checkDigit</text><text fill="#000000" font-family="sans-serif" font-size="6.6" lengthAdjust="spacing" textLength="25.8" x="427.2" y="456.3592">-isoCode</text><text fill="#000000" font-family="sans-serif" font-size="6.6" lengthAdjust="spacing" textLength="27.6" x="427.2" y="464.6607">-payLoad</text><text fill="#000000" font-family="sans-serif" font-size="6.6" lengthAdjust="spacing" textLength="13.8" x="427.2" y="472.9623">-tare</text><text fill="#000000" font-family="sans-serif" font-size="6.6" lengthAdjust="spacing" textLength="19.2" x="427.2" y="481.2639">-gross</text><text fill="#000000" font-family="sans-serif" font-size="6.6" lengthAdjust="spacing" textLength="22.2" x="427.2" y="489.5654">-weight</text><!--MD5=[76562047389981627aea27c31a97aff5]
class CargoManifest--><rect codeLine="28" fill="#FEFECE" filter="url(#f1aqg66i4d8j45)" height="82.1109" id="CargoManifest" style="stroke:#A80036;stroke-width:0.8999999999999999;" width="69.6" x="561.6" y="411.3"/><ellipse cx="571.68" cy="420.9" fill="#ADD1B2" rx="6.6" ry="6.6" style="stroke:#A80036;stroke-width:0.6;"/><path d="M572.88,418.8 Q573.0019,418.5 573.1425,418.35 Q573.2831,418.2 573.4425,418.2 Q573.7238,418.2 573.9019,418.3688 Q574.08,418.5375 574.08,418.9313 L574.08,419.8688 Q574.08,420.2625 573.9113,420.4313 Q573.7425,420.6 573.48,420.6 Q573.2456,420.6 573.0956,420.4969 Q572.9456,420.3938 572.88,420.1219 Q572.8519,419.9344 572.7488,419.8313 Q572.5613,419.6344 572.2238,419.5219 Q571.8862,419.4 571.5487,419.4 Q571.1269,419.4 570.7706,419.5687 Q570.4237,419.7375 570.1519,420.1125 Q569.88,420.4875 569.88,421.0031 L569.88,421.5563 Q569.88,422.175 570.3862,422.5875 Q570.8925,423 571.7925,423 Q572.3269,423 572.7019,422.8781 Q572.9175,422.8125 573.1613,422.5969 Q573.3206,422.475 573.405,422.4375 Q573.4894,422.4 573.5925,422.4 Q573.7894,422.4 573.93,422.5594 Q574.08,422.7094 574.08,422.925 Q574.08,423.1312 573.8738,423.375 Q573.5737,423.7313 573.0956,423.9281 Q572.4675,424.2 571.6987,424.2 Q570.7987,424.2 570.0769,423.8438 Q569.4956,423.5625 569.0831,422.9531 Q568.68,422.3438 568.68,421.6219 L568.68,420.9656 Q568.68,420.2156 569.0363,419.5594 Q569.4019,418.9031 570.03,418.5563 Q570.6675,418.2 571.38,418.2 Q571.8113,418.2 572.1863,418.35 Q572.5613,418.5 572.88,418.8 Z " fill="#000000"/><text fill="#000000" font-family="sans-serif" font-size="7.2" lengthAdjust="spacing" textLength="48" x="580.32" y="423.8461">CargoManifest</text><line style="stroke:#A80036;stroke-width:0.8999999999999999;" x1="562.2" x2="630.6" y1="430.5" y2="430.5"/><text fill="#000000" font-family="sans-serif" font-size="6.6" lengthAdjust="spacing" textLength="48.6" x="565.2" y="439.7514">-listOfContainers</text><text fill="#000000" font-family="sans-serif" font-size="6.6" lengthAdjust="spacing" textLength="15" x="565.2" y="448.0529">-ratio</text><text fill="#000000" font-family="sans-serif" font-size="6.6" lengthAdjust="spacing" textLength="15" x="565.2" y="456.3545">-date</text><text fill="#000000" font-family="sans-serif" font-size="6.6" lengthAdjust="spacing" textLength="31.8" x="565.2" y="464.6561">-mmsiCode</text><text fill="#000000" font-family="sans-serif" font-size="6.6" lengthAdjust="spacing" textLength="7.2" x="565.2" y="472.9576">-id</text><text fill="#000000" font-family="sans-serif" font-size="6.6" lengthAdjust="spacing" textLength="62.4" x="565.2" y="481.2592">-numberOfContainers</text><text fill="#000000" font-family="sans-serif" font-size="6.6" lengthAdjust="spacing" textLength="33.6" x="565.2" y="489.5607">-destination</text><!--MD5=[0dc7f2ddb409b58bcf52b12238c25399]
class Ship--><rect codeLine="38" fill="#FEFECE" filter="url(#f1aqg66i4d8j45)" height="115.3172" id="Ship" style="stroke:#A80036;stroke-width:0.8999999999999999;" width="84.6" x="115.8" y="226.8"/><ellipse cx="148.05" cy="236.4" fill="#ADD1B2" rx="6.6" ry="6.6" style="stroke:#A80036;stroke-width:0.6;"/><path d="M149.25,234.3 Q149.3719,234 149.5125,233.85 Q149.6531,233.7 149.8125,233.7 Q150.0938,233.7 150.2719,233.8687 Q150.45,234.0375 150.45,234.4312 L150.45,235.3687 Q150.45,235.7625 150.2813,235.9312 Q150.1125,236.1 149.85,236.1 Q149.6156,236.1 149.4656,235.9969 Q149.3156,235.8937 149.25,235.6219 Q149.2219,235.4344 149.1188,235.3312 Q148.9313,235.1344 148.5938,235.0219 Q148.2563,234.9 147.9188,234.9 Q147.4969,234.9 147.1406,235.0688 Q146.7938,235.2375 146.5219,235.6125 Q146.25,235.9875 146.25,236.5031 L146.25,237.0562 Q146.25,237.675 146.7563,238.0875 Q147.2625,238.5 148.1625,238.5 Q148.6969,238.5 149.0719,238.3781 Q149.2875,238.3125 149.5313,238.0969 Q149.6906,237.975 149.775,237.9375 Q149.8594,237.9 149.9625,237.9 Q150.1594,237.9 150.3,238.0594 Q150.45,238.2094 150.45,238.425 Q150.45,238.6313 150.2438,238.875 Q149.9438,239.2313 149.4656,239.4281 Q148.8375,239.7 148.0688,239.7 Q147.1688,239.7 146.4469,239.3438 Q145.8656,239.0625 145.4531,238.4531 Q145.05,237.8438 145.05,237.1219 L145.05,236.4656 Q145.05,235.7156 145.4063,235.0594 Q145.7719,234.4031 146.4,234.0562 Q147.0375,233.7 147.75,233.7 Q148.1813,233.7 148.5563,233.85 Q148.9313,234 149.25,234.3 Z " fill="#000000"/><text fill="#000000" font-family="sans-serif" font-size="7.2" lengthAdjust="spacing" textLength="15" x="160.35" y="239.3461">Ship</text><line style="stroke:#A80036;stroke-width:0.8999999999999999;" x1="116.4" x2="199.8" y1="246" y2="246"/><text fill="#000000" font-family="sans-serif" font-size="6.6" lengthAdjust="spacing" textLength="31.8" x="119.4" y="255.2514">-mmsiCode</text><text fill="#000000" font-family="sans-serif" font-size="6.6" lengthAdjust="spacing" textLength="27" x="119.4" y="263.5529">-imoCode</text><text fill="#000000" font-family="sans-serif" font-size="6.6" lengthAdjust="spacing" textLength="77.4" x="119.4" y="271.8545">-numberEnergyGenerators</text><text fill="#000000" font-family="sans-serif" font-size="6.6" lengthAdjust="spacing" textLength="49.8" x="119.4" y="280.1561">-generatorPower</text><text fill="#000000" font-family="sans-serif" font-size="6.6" lengthAdjust="spacing" textLength="24.6" x="119.4" y="288.4576">-callSign</text><text fill="#000000" font-family="sans-serif" font-size="6.6" lengthAdjust="spacing" textLength="16.2" x="119.4" y="296.7592">-draft</text><text fill="#000000" font-family="sans-serif" font-size="6.6" lengthAdjust="spacing" textLength="18" x="119.4" y="305.0607">-name</text><text fill="#000000" font-family="sans-serif" font-size="6.6" lengthAdjust="spacing" textLength="40.8" x="119.4" y="313.3623">-vesselTypeId</text><text fill="#000000" font-family="sans-serif" font-size="6.6" lengthAdjust="spacing" textLength="19.8" x="119.4" y="321.6639">-length</text><text fill="#000000" font-family="sans-serif" font-size="6.6" lengthAdjust="spacing" textLength="18.6" x="119.4" y="329.9654">-width</text><text fill="#000000" font-family="sans-serif" font-size="6.6" lengthAdjust="spacing" textLength="27" x="119.4" y="338.267">-capacity</text><!--MD5=[ea13aecf8df941b18fb8e3885c78c184]
class Ports--><rect codeLine="54" fill="#FEFECE" filter="url(#f1aqg66i4d8j45)" height="40.6031" id="Ports" style="stroke:#A80036;stroke-width:0.8999999999999999;" width="45.6" x="721.2" y="327.6"/><ellipse cx="734.25" cy="337.2" fill="#ADD1B2" rx="6.6" ry="6.6" style="stroke:#A80036;stroke-width:0.6;"/><path d="M735.45,335.1 Q735.5719,334.8 735.7125,334.65 Q735.8531,334.5 736.0125,334.5 Q736.2937,334.5 736.4719,334.6688 Q736.65,334.8375 736.65,335.2313 L736.65,336.1688 Q736.65,336.5625 736.4812,336.7313 Q736.3125,336.9 736.05,336.9 Q735.8156,336.9 735.6656,336.7969 Q735.5156,336.6937 735.45,336.4219 Q735.4219,336.2344 735.3188,336.1312 Q735.1313,335.9344 734.7937,335.8219 Q734.4563,335.7 734.1188,335.7 Q733.6969,335.7 733.3406,335.8688 Q732.9938,336.0375 732.7219,336.4125 Q732.45,336.7875 732.45,337.3031 L732.45,337.8563 Q732.45,338.475 732.9563,338.8875 Q733.4625,339.3 734.3625,339.3 Q734.8969,339.3 735.2719,339.1781 Q735.4875,339.1125 735.7312,338.8969 Q735.8906,338.775 735.975,338.7375 Q736.0594,338.7 736.1625,338.7 Q736.3594,338.7 736.5,338.8594 Q736.65,339.0094 736.65,339.225 Q736.65,339.4313 736.4438,339.675 Q736.1438,340.0313 735.6656,340.2281 Q735.0375,340.5 734.2688,340.5 Q733.3688,340.5 732.6469,340.1438 Q732.0656,339.8625 731.6531,339.2531 Q731.25,338.6438 731.25,337.9219 L731.25,337.2656 Q731.25,336.5156 731.6062,335.8594 Q731.9719,335.2031 732.6,334.8563 Q733.2375,334.5 733.95,334.5 Q734.3813,334.5 734.7563,334.65 Q735.1313,334.8 735.45,335.1 Z " fill="#000000"/><text fill="#000000" font-family="sans-serif" font-size="7.2" lengthAdjust="spacing" textLength="17.4" x="743.55" y="340.1461">Ports</text><line style="stroke:#A80036;stroke-width:0.8999999999999999;" x1="721.8" x2="766.2" y1="346.8" y2="346.8"/><text fill="#000000" font-family="sans-serif" font-size="6.6" lengthAdjust="spacing" textLength="38.4" x="724.8" y="356.0514">-identification</text><text fill="#000000" font-family="sans-serif" font-size="6.6" lengthAdjust="spacing" textLength="18" x="724.8" y="364.3529">-name</text><!--MD5=[f2ba7f6ab60af8dd0d3e354f91729b14]
class Truck--><rect codeLine="59" fill="#FEFECE" filter="url(#f1aqg66i4d8j45)" height="24" id="Truck" style="stroke:#A80036;stroke-width:0.8999999999999999;" width="37.2" x="306.6" y="427.8"/><ellipse cx="315.6" cy="437.4" fill="#ADD1B2" rx="6.6" ry="6.6" style="stroke:#A80036;stroke-width:0.6;"/><path d="M316.8,435.3 Q316.9219,435 317.0625,434.85 Q317.2031,434.7 317.3625,434.7 Q317.6438,434.7 317.8219,434.8688 Q318,435.0375 318,435.4313 L318,436.3688 Q318,436.7625 317.8313,436.9313 Q317.6625,437.1 317.4,437.1 Q317.1656,437.1 317.0156,436.9969 Q316.8656,436.8938 316.8,436.6219 Q316.7719,436.4344 316.6688,436.3313 Q316.4813,436.1344 316.1438,436.0219 Q315.8063,435.9 315.4688,435.9 Q315.0469,435.9 314.6906,436.0687 Q314.3438,436.2375 314.0719,436.6125 Q313.8,436.9875 313.8,437.5031 L313.8,438.0563 Q313.8,438.675 314.3063,439.0875 Q314.8125,439.5 315.7125,439.5 Q316.2469,439.5 316.6219,439.3781 Q316.8375,439.3125 317.0813,439.0969 Q317.2406,438.975 317.325,438.9375 Q317.4094,438.9 317.5125,438.9 Q317.7094,438.9 317.85,439.0594 Q318,439.2094 318,439.425 Q318,439.6312 317.7938,439.875 Q317.4938,440.2313 317.0156,440.4281 Q316.3875,440.7 315.6188,440.7 Q314.7188,440.7 313.9969,440.3438 Q313.4156,440.0625 313.0031,439.4531 Q312.6,438.8438 312.6,438.1219 L312.6,437.4656 Q312.6,436.7156 312.9563,436.0594 Q313.3219,435.4031 313.95,435.0563 Q314.5875,434.7 315.3,434.7 Q315.7313,434.7 316.1063,434.85 Q316.4813,435 316.8,435.3 Z " fill="#000000"/><text fill="#000000" font-family="sans-serif" font-size="7.2" lengthAdjust="spacing" textLength="18" x="324" y="440.3461">Truck</text><line style="stroke:#A80036;stroke-width:0.8999999999999999;" x1="307.2" x2="343.2" y1="447" y2="447"/><!--MD5=[c5149b4909ffd2688ff51a939867f774]
class Warehouse--><rect codeLine="63" fill="#FEFECE" filter="url(#f1aqg66i4d8j45)" height="57.2063" id="Warehouse" style="stroke:#A80036;stroke-width:0.8999999999999999;" width="57.6" x="715.2" y="500.1"/><ellipse cx="724.2" cy="509.7" fill="#ADD1B2" rx="6.6" ry="6.6" style="stroke:#A80036;stroke-width:0.6;"/><path d="M725.4,507.6 Q725.5219,507.3 725.6625,507.15 Q725.8031,507 725.9625,507 Q726.2438,507 726.4219,507.1688 Q726.6,507.3375 726.6,507.7313 L726.6,508.6688 Q726.6,509.0625 726.4313,509.2313 Q726.2625,509.4 726,509.4 Q725.7656,509.4 725.6156,509.2969 Q725.4656,509.1937 725.4,508.9219 Q725.3719,508.7344 725.2688,508.6312 Q725.0813,508.4344 724.7438,508.3219 Q724.4063,508.2 724.0688,508.2 Q723.6469,508.2 723.2906,508.3688 Q722.9438,508.5375 722.6719,508.9125 Q722.4,509.2875 722.4,509.8031 L722.4,510.3563 Q722.4,510.975 722.9063,511.3875 Q723.4125,511.8 724.3125,511.8 Q724.8469,511.8 725.2219,511.6781 Q725.4375,511.6125 725.6813,511.3969 Q725.8406,511.275 725.925,511.2375 Q726.0094,511.2 726.1125,511.2 Q726.3094,511.2 726.45,511.3594 Q726.6,511.5094 726.6,511.725 Q726.6,511.9313 726.3938,512.175 Q726.0938,512.5313 725.6156,512.7281 Q724.9875,513 724.2188,513 Q723.3188,513 722.5969,512.6438 Q722.0156,512.3625 721.6031,511.7531 Q721.2,511.1437 721.2,510.4219 L721.2,509.7656 Q721.2,509.0156 721.5563,508.3594 Q721.9219,507.7031 722.55,507.3563 Q723.1875,507 723.9,507 Q724.3313,507 724.7063,507.15 Q725.0813,507.3 725.4,507.6 Z " fill="#000000"/><text fill="#000000" font-family="sans-serif" font-size="7.2" lengthAdjust="spacing" textLength="38.4" x="732.6" y="512.6461">Warehouse</text><line style="stroke:#A80036;stroke-width:0.8999999999999999;" x1="715.8" x2="772.2" y1="519.3" y2="519.3"/><text fill="#000000" font-family="sans-serif" font-size="6.6" lengthAdjust="spacing" textLength="38.4" x="718.8" y="528.5514">-identification</text><text fill="#000000" font-family="sans-serif" font-size="6.6" lengthAdjust="spacing" textLength="18" x="718.8" y="536.8529">-name</text><text fill="#000000" font-family="sans-serif" font-size="6.6" lengthAdjust="spacing" textLength="27" x="718.8" y="545.1545">-capacity</text><text fill="#000000" font-family="sans-serif" font-size="6.6" lengthAdjust="spacing" textLength="34.8" x="718.8" y="553.4561">-occupancy</text><!--MD5=[deb4e1f6eb1e3c1256fdb830f96abfbb]
class Country--><rect codeLine="70" fill="#FEFECE" filter="url(#f1aqg66i4d8j45)" height="40.6031" id="Country" style="stroke:#A80036;stroke-width:0.8999999999999999;" width="44.4" x="994.2" y="610.2"/><ellipse cx="1003.2" cy="619.8" fill="#ADD1B2" rx="6.6" ry="6.6" style="stroke:#A80036;stroke-width:0.6;"/><path d="M1004.4,617.7 Q1004.5219,617.4 1004.6625,617.25 Q1004.8031,617.1 1004.9625,617.1 Q1005.2438,617.1 1005.4219,617.2688 Q1005.6,617.4375 1005.6,617.8313 L1005.6,618.7688 Q1005.6,619.1625 1005.4313,619.3313 Q1005.2625,619.5 1005,619.5 Q1004.7656,619.5 1004.6156,619.3969 Q1004.4656,619.2937 1004.4,619.0219 Q1004.3719,618.8344 1004.2688,618.7312 Q1004.0813,618.5344 1003.7438,618.4219 Q1003.4063,618.3 1003.0687,618.3 Q1002.6469,618.3 1002.2906,618.4688 Q1001.9437,618.6375 1001.6719,619.0125 Q1001.4,619.3875 1001.4,619.9031 L1001.4,620.4563 Q1001.4,621.075 1001.9063,621.4875 Q1002.4125,621.9 1003.3125,621.9 Q1003.8469,621.9 1004.2219,621.7781 Q1004.4375,621.7125 1004.6813,621.4969 Q1004.8406,621.375 1004.925,621.3375 Q1005.0094,621.3 1005.1125,621.3 Q1005.3094,621.3 1005.45,621.4594 Q1005.6,621.6094 1005.6,621.825 Q1005.6,622.0313 1005.3938,622.275 Q1005.0938,622.6313 1004.6156,622.8281 Q1003.9875,623.1 1003.2188,623.1 Q1002.3187,623.1 1001.5969,622.7438 Q1001.0156,622.4625 1000.6031,621.8531 Q1000.2,621.2438 1000.2,620.5219 L1000.2,619.8656 Q1000.2,619.1156 1000.5563,618.4594 Q1000.9219,617.8031 1001.55,617.4563 Q1002.1875,617.1 1002.9,617.1 Q1003.3313,617.1 1003.7063,617.25 Q1004.0813,617.4 1004.4,617.7 Z " fill="#000000"/><text fill="#000000" font-family="sans-serif" font-size="7.2" lengthAdjust="spacing" textLength="25.2" x="1011.6" y="622.7461">Country</text><line style="stroke:#A80036;stroke-width:0.8999999999999999;" x1="994.8" x2="1038" y1="629.4" y2="629.4"/><text fill="#000000" font-family="sans-serif" font-size="6.6" lengthAdjust="spacing" textLength="18" x="997.8" y="638.6514">-name</text><text fill="#000000" font-family="sans-serif" font-size="6.6" lengthAdjust="spacing" textLength="28.8" x="997.8" y="646.9529">-continent</text><!--MD5=[9febfb2ff9adfe183e01ff702b9c1c02]
class PlaceLocation--><rect codeLine="75" fill="#FEFECE" filter="url(#f1aqg66i4d8j45)" height="40.6031" id="PlaceLocation" style="stroke:#A80036;stroke-width:0.8999999999999999;" width="66" x="852" y="610.2"/><ellipse cx="861" cy="619.8" fill="#ADD1B2" rx="6.6" ry="6.6" style="stroke:#A80036;stroke-width:0.6;"/><path d="M862.2,617.7 Q862.3219,617.4 862.4625,617.25 Q862.6031,617.1 862.7625,617.1 Q863.0437,617.1 863.2219,617.2688 Q863.4,617.4375 863.4,617.8313 L863.4,618.7688 Q863.4,619.1625 863.2312,619.3313 Q863.0625,619.5 862.8,619.5 Q862.5656,619.5 862.4156,619.3969 Q862.2656,619.2937 862.2,619.0219 Q862.1719,618.8344 862.0688,618.7312 Q861.8813,618.5344 861.5437,618.4219 Q861.2063,618.3 860.8688,618.3 Q860.4469,618.3 860.0906,618.4688 Q859.7438,618.6375 859.4719,619.0125 Q859.2,619.3875 859.2,619.9031 L859.2,620.4563 Q859.2,621.075 859.7063,621.4875 Q860.2125,621.9 861.1125,621.9 Q861.6469,621.9 862.0219,621.7781 Q862.2375,621.7125 862.4812,621.4969 Q862.6406,621.375 862.725,621.3375 Q862.8094,621.3 862.9125,621.3 Q863.1094,621.3 863.25,621.4594 Q863.4,621.6094 863.4,621.825 Q863.4,622.0313 863.1938,622.275 Q862.8938,622.6313 862.4156,622.8281 Q861.7875,623.1 861.0188,623.1 Q860.1188,623.1 859.3969,622.7438 Q858.8156,622.4625 858.4031,621.8531 Q858,621.2438 858,620.5219 L858,619.8656 Q858,619.1156 858.3562,618.4594 Q858.7219,617.8031 859.35,617.4563 Q859.9875,617.1 860.7,617.1 Q861.1313,617.1 861.5063,617.25 Q861.8813,617.4 862.2,617.7 Z " fill="#000000"/><text fill="#000000" font-family="sans-serif" font-size="7.2" lengthAdjust="spacing" textLength="46.8" x="869.4" y="622.7461">PlaceLocation</text><line style="stroke:#A80036;stroke-width:0.8999999999999999;" x1="852.6" x2="917.4" y1="629.4" y2="629.4"/><text fill="#000000" font-family="sans-serif" font-size="6.6" lengthAdjust="spacing" textLength="22.8" x="855.6" y="638.6514">-latitude</text><text fill="#000000" font-family="sans-serif" font-size="6.6" lengthAdjust="spacing" textLength="28.2" x="855.6" y="646.9529">-longitude</text><!--MD5=[efa7c3600894dd6faaa8b816738c33b1]
class ShipLocation--><rect codeLine="80" fill="#FEFECE" filter="url(#f1aqg66i4d8j45)" height="90.4125" id="ShipLocation" style="stroke:#A80036;stroke-width:0.8999999999999999;" width="62.4" x="421.8" y="161.1"/><ellipse cx="430.8" cy="170.7" fill="#ADD1B2" rx="6.6" ry="6.6" style="stroke:#A80036;stroke-width:0.6;"/><path d="M432,168.6 Q432.1219,168.3 432.2625,168.15 Q432.4031,168 432.5625,168 Q432.8438,168 433.0219,168.1688 Q433.2,168.3375 433.2,168.7313 L433.2,169.6688 Q433.2,170.0625 433.0313,170.2313 Q432.8625,170.4 432.6,170.4 Q432.3656,170.4 432.2156,170.2969 Q432.0656,170.1938 432,169.9219 Q431.9719,169.7344 431.8688,169.6313 Q431.6813,169.4344 431.3438,169.3219 Q431.0062,169.2 430.6688,169.2 Q430.2469,169.2 429.8906,169.3688 Q429.5438,169.5375 429.2719,169.9125 Q429,170.2875 429,170.8031 L429,171.3563 Q429,171.975 429.5062,172.3875 Q430.0125,172.8 430.9125,172.8 Q431.4469,172.8 431.8219,172.6781 Q432.0375,172.6125 432.2813,172.3969 Q432.4406,172.275 432.525,172.2375 Q432.6094,172.2 432.7125,172.2 Q432.9094,172.2 433.05,172.3594 Q433.2,172.5094 433.2,172.725 Q433.2,172.9313 432.9938,173.175 Q432.6937,173.5313 432.2156,173.7281 Q431.5875,174 430.8187,174 Q429.9188,174 429.1969,173.6437 Q428.6156,173.3625 428.2031,172.7531 Q427.8,172.1437 427.8,171.4219 L427.8,170.7656 Q427.8,170.0156 428.1563,169.3594 Q428.5219,168.7031 429.15,168.3563 Q429.7875,168 430.5,168 Q430.9313,168 431.3063,168.15 Q431.6813,168.3 432,168.6 Z " fill="#000000"/><text fill="#000000" font-family="sans-serif" font-size="7.2" lengthAdjust="spacing" textLength="43.2" x="439.2" y="173.6461">ShipLocation</text><line style="stroke:#A80036;stroke-width:0.8999999999999999;" x1="422.4" x2="483.6" y1="180.3" y2="180.3"/><text fill="#000000" font-family="sans-serif" font-size="6.6" lengthAdjust="spacing" textLength="43.2" x="425.4" y="189.5514">-baseDateTime</text><text fill="#000000" font-family="sans-serif" font-size="6.6" lengthAdjust="spacing" textLength="22.8" x="425.4" y="197.8529">-latitude</text><text fill="#000000" font-family="sans-serif" font-size="6.6" lengthAdjust="spacing" textLength="28.2" x="425.4" y="206.1545">-longitude</text><text fill="#000000" font-family="sans-serif" font-size="6.6" lengthAdjust="spacing" textLength="13.2" x="425.4" y="214.4561">-sog</text><text fill="#000000" font-family="sans-serif" font-size="6.6" lengthAdjust="spacing" textLength="13.2" x="425.4" y="222.7576">-cog</text><text fill="#000000" font-family="sans-serif" font-size="6.6" lengthAdjust="spacing" textLength="25.2" x="425.4" y="231.0592">-heading</text><text fill="#000000" font-family="sans-serif" font-size="6.6" lengthAdjust="spacing" textLength="24.6" x="425.4" y="239.3607">-position</text><text fill="#000000" font-family="sans-serif" font-size="6.6" lengthAdjust="spacing" textLength="35.4" x="425.4" y="247.6623">-transceiver</text><!--MD5=[3fd616f346a44cd59a91eb10b19e157c]
class User--><rect codeLine="91" fill="#FEFECE" filter="url(#f1aqg66i4d8j45)" height="40.6031" id="User" style="stroke:#A80036;stroke-width:0.8999999999999999;" width="39.6" x="305.4" y="46.2"/><ellipse cx="316.29" cy="55.8" fill="#ADD1B2" rx="6.6" ry="6.6" style="stroke:#A80036;stroke-width:0.6;"/><path d="M317.49,53.7 Q317.6119,53.4 317.7525,53.25 Q317.8931,53.1 318.0525,53.1 Q318.3337,53.1 318.5119,53.2688 Q318.69,53.4375 318.69,53.8313 L318.69,54.7688 Q318.69,55.1625 318.5212,55.3313 Q318.3525,55.5 318.09,55.5 Q317.8556,55.5 317.7056,55.3969 Q317.5556,55.2937 317.49,55.0219 Q317.4619,54.8344 317.3588,54.7312 Q317.1713,54.5344 316.8337,54.4219 Q316.4963,54.3 316.1588,54.3 Q315.7369,54.3 315.3806,54.4688 Q315.0338,54.6375 314.7619,55.0125 Q314.49,55.3875 314.49,55.9031 L314.49,56.4563 Q314.49,57.075 314.9963,57.4875 Q315.5025,57.9 316.4025,57.9 Q316.9369,57.9 317.3119,57.7781 Q317.5275,57.7125 317.7712,57.4969 Q317.9306,57.375 318.015,57.3375 Q318.0994,57.3 318.2025,57.3 Q318.3994,57.3 318.54,57.4594 Q318.69,57.6094 318.69,57.825 Q318.69,58.0313 318.4838,58.275 Q318.1838,58.6312 317.7056,58.8281 Q317.0775,59.1 316.3088,59.1 Q315.4088,59.1 314.6869,58.7438 Q314.1056,58.4625 313.6931,57.8531 Q313.29,57.2438 313.29,56.5219 L313.29,55.8656 Q313.29,55.1156 313.6462,54.4594 Q314.0119,53.8031 314.64,53.4563 Q315.2775,53.1 315.99,53.1 Q316.4213,53.1 316.7963,53.25 Q317.1713,53.4 317.49,53.7 Z " fill="#000000"/><text fill="#000000" font-family="sans-serif" font-size="7.2" lengthAdjust="spacing" textLength="16.2" x="325.11" y="58.7461">User</text><line style="stroke:#A80036;stroke-width:0.8999999999999999;" x1="306" x2="344.4" y1="65.4" y2="65.4"/><text fill="#000000" font-family="sans-serif" font-size="6.6" lengthAdjust="spacing" textLength="31.2" x="309" y="74.6514">-username</text><text fill="#000000" font-family="sans-serif" font-size="6.6" lengthAdjust="spacing" textLength="32.4" x="309" y="82.9529">-password</text><!--MD5=[a3638c1e5b65d287ecad7f06f5c0f212]
class Role--><rect codeLine="96" fill="#FEFECE" filter="url(#f1aqg66i4d8j45)" height="32.3016" id="Role" style="stroke:#A80036;stroke-width:0.8999999999999999;" width="42.6" x="431.7" y="54.6"/><ellipse cx="444.21" cy="64.2" fill="#ADD1B2" rx="6.6" ry="6.6" style="stroke:#A80036;stroke-width:0.6;"/><path d="M445.41,62.1 Q445.5319,61.8 445.6725,61.65 Q445.8131,61.5 445.9725,61.5 Q446.2538,61.5 446.4319,61.6687 Q446.61,61.8375 446.61,62.2312 L446.61,63.1687 Q446.61,63.5625 446.4413,63.7312 Q446.2725,63.9 446.01,63.9 Q445.7756,63.9 445.6256,63.7969 Q445.4756,63.6937 445.41,63.4219 Q445.3819,63.2344 445.2788,63.1312 Q445.0913,62.9344 444.7538,62.8219 Q444.4163,62.7 444.0788,62.7 Q443.6569,62.7 443.3006,62.8688 Q442.9538,63.0375 442.6819,63.4125 Q442.41,63.7875 442.41,64.3031 L442.41,64.8563 Q442.41,65.475 442.9163,65.8875 Q443.4225,66.3 444.3225,66.3 Q444.8569,66.3 445.2319,66.1781 Q445.4475,66.1125 445.6913,65.8969 Q445.8506,65.775 445.935,65.7375 Q446.0194,65.7 446.1225,65.7 Q446.3194,65.7 446.46,65.8594 Q446.61,66.0094 446.61,66.225 Q446.61,66.4312 446.4038,66.675 Q446.1038,67.0313 445.6256,67.2281 Q444.9975,67.5 444.2288,67.5 Q443.3288,67.5 442.6069,67.1438 Q442.0256,66.8625 441.6131,66.2531 Q441.21,65.6438 441.21,64.9219 L441.21,64.2656 Q441.21,63.5156 441.5663,62.8594 Q441.9319,62.2031 442.56,61.8562 Q443.1975,61.5 443.91,61.5 Q444.3413,61.5 444.7163,61.65 Q445.0913,61.8 445.41,62.1 Z " fill="#000000"/><text fill="#000000" font-family="sans-serif" font-size="7.2" lengthAdjust="spacing" textLength="15.6" x="453.39" y="67.1461">Role</text><line style="stroke:#A80036;stroke-width:0.8999999999999999;" x1="432.3" x2="473.7" y1="73.8" y2="73.8"/><text fill="#000000" font-family="sans-serif" font-size="6.6" lengthAdjust="spacing" textLength="35.4" x="435.3" y="83.0514">-designation</text><!--MD5=[ea8f20dfdca176213da526d9b557babf]
class Capital--><rect codeLine="100" fill="#FEFECE" filter="url(#f1aqg66i4d8j45)" height="32.3016" id="Capital" style="stroke:#A80036;stroke-width:0.8999999999999999;" width="42.6" x="722.7" y="583.8"/><ellipse cx="731.7" cy="593.4" fill="#ADD1B2" rx="6.6" ry="6.6" style="stroke:#A80036;stroke-width:0.6;"/><path d="M732.9,591.3 Q733.0219,591 733.1625,590.85 Q733.3031,590.7 733.4625,590.7 Q733.7438,590.7 733.9219,590.8688 Q734.1,591.0375 734.1,591.4313 L734.1,592.3688 Q734.1,592.7625 733.9313,592.9313 Q733.7625,593.1 733.5,593.1 Q733.2656,593.1 733.1156,592.9969 Q732.9656,592.8938 732.9,592.6219 Q732.8719,592.4344 732.7688,592.3313 Q732.5813,592.1344 732.2438,592.0219 Q731.9063,591.9 731.5688,591.9 Q731.1469,591.9 730.7906,592.0688 Q730.4438,592.2375 730.1719,592.6125 Q729.9,592.9875 729.9,593.5031 L729.9,594.0563 Q729.9,594.675 730.4063,595.0875 Q730.9125,595.5 731.8125,595.5 Q732.3469,595.5 732.7219,595.3781 Q732.9375,595.3125 733.1813,595.0969 Q733.3406,594.975 733.425,594.9375 Q733.5094,594.9 733.6125,594.9 Q733.8094,594.9 733.95,595.0594 Q734.1,595.2094 734.1,595.425 Q734.1,595.6313 733.8938,595.875 Q733.5938,596.2312 733.1156,596.4281 Q732.4875,596.7 731.7188,596.7 Q730.8188,596.7 730.0969,596.3438 Q729.5156,596.0625 729.1031,595.4531 Q728.7,594.8438 728.7,594.1219 L728.7,593.4656 Q728.7,592.7156 729.0563,592.0594 Q729.4219,591.4031 730.05,591.0563 Q730.6875,590.7 731.4,590.7 Q731.8313,590.7 732.2063,590.85 Q732.5813,591 732.9,591.3 Z " fill="#000000"/><text fill="#000000" font-family="sans-serif" font-size="7.2" lengthAdjust="spacing" textLength="23.4" x="740.1" y="596.3461">Capital</text><line style="stroke:#A80036;stroke-width:0.8999999999999999;" x1="723.3" x2="764.7" y1="603" y2="603"/><text fill="#000000" font-family="sans-serif" font-size="6.6" lengthAdjust="spacing" textLength="18" x="726.3" y="612.2514">-name</text><!--MD5=[8515a37c80da559ff7ce07f8a9e75d30]
class Place--><rect codeLine="104" fill="#FEFECE" filter="url(#f1aqg66i4d8j45)" height="24" id="Place" style="stroke:#A80036;stroke-width:0.8999999999999999;" width="37.8" x="577.5" y="610.2"/><ellipse cx="586.5" cy="619.8" fill="#ADD1B2" rx="6.6" ry="6.6" style="stroke:#A80036;stroke-width:0.6;"/><path d="M587.7,617.7 Q587.8219,617.4 587.9625,617.25 Q588.1031,617.1 588.2625,617.1 Q588.5437,617.1 588.7219,617.2688 Q588.9,617.4375 588.9,617.8313 L588.9,618.7688 Q588.9,619.1625 588.7312,619.3313 Q588.5625,619.5 588.3,619.5 Q588.0656,619.5 587.9156,619.3969 Q587.7656,619.2937 587.7,619.0219 Q587.6719,618.8344 587.5688,618.7312 Q587.3813,618.5344 587.0437,618.4219 Q586.7063,618.3 586.3688,618.3 Q585.9469,618.3 585.5906,618.4688 Q585.2438,618.6375 584.9719,619.0125 Q584.7,619.3875 584.7,619.9031 L584.7,620.4563 Q584.7,621.075 585.2063,621.4875 Q585.7125,621.9 586.6125,621.9 Q587.1469,621.9 587.5219,621.7781 Q587.7375,621.7125 587.9812,621.4969 Q588.1406,621.375 588.225,621.3375 Q588.3094,621.3 588.4125,621.3 Q588.6094,621.3 588.75,621.4594 Q588.9,621.6094 588.9,621.825 Q588.9,622.0313 588.6938,622.275 Q588.3938,622.6313 587.9156,622.8281 Q587.2875,623.1 586.5188,623.1 Q585.6188,623.1 584.8969,622.7438 Q584.3156,622.4625 583.9031,621.8531 Q583.5,621.2438 583.5,620.5219 L583.5,619.8656 Q583.5,619.1156 583.8562,618.4594 Q584.2219,617.8031 584.85,617.4563 Q585.4875,617.1 586.2,617.1 Q586.6313,617.1 587.0063,617.25 Q587.3813,617.4 587.7,617.7 Z " fill="#000000"/><text fill="#000000" font-family="sans-serif" font-size="7.2" lengthAdjust="spacing" textLength="18.6" x="594.9" y="622.7461">Place</text><line style="stroke:#A80036;stroke-width:0.8999999999999999;" x1="578.1" x2="614.7" y1="629.4" y2="629.4"/><!--MD5=[a0336aaa8110b78d9cacadb9d45e00a3]
class Border--><rect codeLine="108" fill="#FEFECE" filter="url(#f1aqg66i4d8j45)" height="40.6031" id="Border" style="stroke:#A80036;stroke-width:0.8999999999999999;" width="51.6" x="1102.8" y="610.2"/><ellipse cx="1116.39" cy="619.8" fill="#ADD1B2" rx="6.6" ry="6.6" style="stroke:#A80036;stroke-width:0.6;"/><path d="M1117.59,617.7 Q1117.7119,617.4 1117.8525,617.25 Q1117.9931,617.1 1118.1525,617.1 Q1118.4338,617.1 1118.6119,617.2688 Q1118.79,617.4375 1118.79,617.8313 L1118.79,618.7688 Q1118.79,619.1625 1118.6213,619.3313 Q1118.4525,619.5 1118.19,619.5 Q1117.9556,619.5 1117.8056,619.3969 Q1117.6556,619.2937 1117.59,619.0219 Q1117.5619,618.8344 1117.4588,618.7312 Q1117.2713,618.5344 1116.9338,618.4219 Q1116.5963,618.3 1116.2588,618.3 Q1115.8369,618.3 1115.4806,618.4688 Q1115.1338,618.6375 1114.8619,619.0125 Q1114.59,619.3875 1114.59,619.9031 L1114.59,620.4563 Q1114.59,621.075 1115.0963,621.4875 Q1115.6025,621.9 1116.5025,621.9 Q1117.0369,621.9 1117.4119,621.7781 Q1117.6275,621.7125 1117.8713,621.4969 Q1118.0306,621.375 1118.115,621.3375 Q1118.1994,621.3 1118.3025,621.3 Q1118.4994,621.3 1118.64,621.4594 Q1118.79,621.6094 1118.79,621.825 Q1118.79,622.0313 1118.5838,622.275 Q1118.2838,622.6313 1117.8056,622.8281 Q1117.1775,623.1 1116.4088,623.1 Q1115.5088,623.1 1114.7869,622.7438 Q1114.2056,622.4625 1113.7931,621.8531 Q1113.39,621.2438 1113.39,620.5219 L1113.39,619.8656 Q1113.39,619.1156 1113.7463,618.4594 Q1114.1119,617.8031 1114.74,617.4563 Q1115.3775,617.1 1116.09,617.1 Q1116.5213,617.1 1116.8963,617.25 Q1117.2713,617.4 1117.59,617.7 Z " fill="#000000"/><text fill="#000000" font-family="sans-serif" font-size="7.2" lengthAdjust="spacing" textLength="22.2" x="1125.81" y="622.7461">Border</text><line style="stroke:#A80036;stroke-width:0.8999999999999999;" x1="1103.4" x2="1153.8" y1="629.4" y2="629.4"/><text fill="#000000" font-family="sans-serif" font-size="6.6" lengthAdjust="spacing" textLength="44.4" x="1106.4" y="638.6514">-countryName1</text><text fill="#000000" font-family="sans-serif" font-size="6.6" lengthAdjust="spacing" textLength="44.4" x="1106.4" y="646.9529">-countryName2</text><!--MD5=[074ba6ad47b234bd73d65012320c1634]
class FreightNetwork--><rect codeLine="113" fill="#FEFECE" filter="url(#f1aqg66i4d8j45)" height="24" id="FreightNetwork" style="stroke:#A80036;stroke-width:0.8999999999999999;" width="69" x="218.4" y="527.4"/><ellipse cx="227.4" cy="537" fill="#ADD1B2" rx="6.6" ry="6.6" style="stroke:#A80036;stroke-width:0.6;"/><path d="M228.6,534.9 Q228.7219,534.6 228.8625,534.45 Q229.0031,534.3 229.1625,534.3 Q229.4438,534.3 229.6219,534.4688 Q229.8,534.6375 229.8,535.0313 L229.8,535.9688 Q229.8,536.3625 229.6313,536.5313 Q229.4625,536.7 229.2,536.7 Q228.9656,536.7 228.8156,536.5969 Q228.6656,536.4938 228.6,536.2219 Q228.5719,536.0344 228.4688,535.9313 Q228.2813,535.7344 227.9438,535.6219 Q227.6063,535.5 227.2687,535.5 Q226.8469,535.5 226.4906,535.6687 Q226.1437,535.8375 225.8719,536.2125 Q225.6,536.5875 225.6,537.1031 L225.6,537.6563 Q225.6,538.275 226.1063,538.6875 Q226.6125,539.1 227.5125,539.1 Q228.0469,539.1 228.4219,538.9781 Q228.6375,538.9125 228.8813,538.6969 Q229.0406,538.575 229.125,538.5375 Q229.2094,538.5 229.3125,538.5 Q229.5094,538.5 229.65,538.6594 Q229.8,538.8094 229.8,539.025 Q229.8,539.2312 229.5938,539.475 Q229.2938,539.8313 228.8156,540.0281 Q228.1875,540.3 227.4188,540.3 Q226.5187,540.3 225.7969,539.9438 Q225.2156,539.6625 224.8031,539.0531 Q224.4,538.4438 224.4,537.7219 L224.4,537.0656 Q224.4,536.3156 224.7563,535.6594 Q225.1219,535.0031 225.75,534.6563 Q226.3875,534.3 227.1,534.3 Q227.5313,534.3 227.9063,534.45 Q228.2813,534.6 228.6,534.9 Z " fill="#000000"/><text fill="#000000" font-family="sans-serif" font-size="7.2" lengthAdjust="spacing" textLength="49.8" x="235.8" y="539.9461">FreightNetwork</text><line style="stroke:#A80036;stroke-width:0.8999999999999999;" x1="219" x2="286.8" y1="546.6" y2="546.6"/><!--MD5=[f8e092794d52bf9a252466252ae7bd1c]
class System--><rect fill="#FEFECE" filter="url(#f1aqg66i4d8j45)" height="24" id="System" style="stroke:#A80036;stroke-width:0.8999999999999999;" width="43.8" x="431.1" y="4.2"/><ellipse cx="440.1" cy="13.8" fill="#ADD1B2" rx="6.6" ry="6.6" style="stroke:#A80036;stroke-width:0.6;"/><path d="M441.3,11.7 Q441.4219,11.4 441.5625,11.25 Q441.7031,11.1 441.8625,11.1 Q442.1438,11.1 442.3219,11.2687 Q442.5,11.4375 442.5,11.8312 L442.5,12.7687 Q442.5,13.1625 442.3313,13.3312 Q442.1625,13.5 441.9,13.5 Q441.6656,13.5 441.5156,13.3969 Q441.3656,13.2938 441.3,13.0219 Q441.2719,12.8344 441.1688,12.7313 Q440.9813,12.5344 440.6438,12.4219 Q440.3063,12.3 439.9688,12.3 Q439.5469,12.3 439.1906,12.4688 Q438.8438,12.6375 438.5719,13.0125 Q438.3,13.3875 438.3,13.9031 L438.3,14.4562 Q438.3,15.075 438.8063,15.4875 Q439.3125,15.9 440.2125,15.9 Q440.7469,15.9 441.1219,15.7781 Q441.3375,15.7125 441.5813,15.4969 Q441.7406,15.375 441.825,15.3375 Q441.9094,15.3 442.0125,15.3 Q442.2094,15.3 442.35,15.4594 Q442.5,15.6094 442.5,15.825 Q442.5,16.0313 442.2938,16.275 Q441.9938,16.6312 441.5156,16.8281 Q440.8875,17.1 440.1188,17.1 Q439.2188,17.1 438.4969,16.7438 Q437.9156,16.4625 437.5031,15.8531 Q437.1,15.2437 437.1,14.5219 L437.1,13.8656 Q437.1,13.1156 437.4563,12.4594 Q437.8219,11.8031 438.45,11.4562 Q439.0875,11.1 439.8,11.1 Q440.2313,11.1 440.6063,11.25 Q440.9813,11.4 441.3,11.7 Z " fill="#000000"/><text fill="#000000" font-family="sans-serif" font-size="7.2" lengthAdjust="spacing" textLength="24.6" x="448.5" y="16.7461">System</text><line style="stroke:#A80036;stroke-width:0.8999999999999999;" x1="431.7" x2="474.3" y1="23.4" y2="23.4"/><!--MD5=[d729e47c8b99010fceb84b610067730f]
link CargoManifest to Ports--><path codeLine="116" d="M631.428,435.888 C651.486,425.532 676.77,411.18 697.2,395.4 C707.478,387.462 717.684,377.298 725.88,368.418 " fill="none" id="CargoManifest-Ports" style="stroke:#A80036;stroke-width:0.6;"/><polygon fill="#000000" points="654.6411,388.3617,649.2001,390.0814,651.25,392.9511,654.6411,388.3617" style="stroke:#000000;stroke-width:0.6;"/><text fill="#000000" font-family="sans-serif" font-size="7.8" lengthAdjust="spacing" textLength="39" x="657.6" y="393.2971">delivered at</text><text fill="#000000" font-family="sans-serif" font-size="7.8" lengthAdjust="spacing" textLength="3" x="636.1082" y="442.5037">*</text><text fill="#000000" font-family="sans-serif" font-size="7.8" lengthAdjust="spacing" textLength="4.2" x="718.0783" y="381.0433">1</text><!--MD5=[1007fce2994c0804f23855fbfd3e6bbd]
link CargoManifest to Warehouse--><path codeLine="117" d="M631.326,470.268 C656.85,483.552 691.254,501.456 715.182,513.912 " fill="none" id="CargoManifest-Warehouse" style="stroke:#A80036;stroke-width:0.6;"/><polygon fill="#000000" points="654.8611,477.2905,650.8612,473.2208,649.233,476.3491,654.8611,477.2905" style="stroke:#000000;stroke-width:0.6;"/><text fill="#000000" font-family="sans-serif" font-size="7.8" lengthAdjust="spacing" textLength="39" x="657.6" y="479.0971">delivered at</text><text fill="#000000" font-family="sans-serif" font-size="7.8" lengthAdjust="spacing" textLength="3" x="635.9931" y="481.2886">*</text><text fill="#000000" font-family="sans-serif" font-size="7.8" lengthAdjust="spacing" textLength="4.2" x="706.2477" y="520.4953">1</text><!--MD5=[37a14a5de6d6fd738aee271300f4b5c8]
link Company to Ship--><path codeLine="119" d="M55.278,320.562 C72.426,314.496 95.604,306.3 115.548,299.238 " fill="none" id="Company-Ship" style="stroke:#A80036;stroke-width:0.6;"/><polygon fill="#000000" points="79.9282,299.1048,74.2238,299.2526,75.4001,302.5774,79.9282,299.1048" style="stroke:#000000;stroke-width:0.6;"/><text fill="#000000" font-family="sans-serif" font-size="7.8" lengthAdjust="spacing" textLength="13.8" x="82.5" y="303.2971">own</text><text fill="#000000" font-family="sans-serif" font-size="7.8" lengthAdjust="spacing" textLength="4.2" x="60.0352" y="327.9916">1</text><text fill="#000000" font-family="sans-serif" font-size="7.8" lengthAdjust="spacing" textLength="12" x="99.0721" y="309.1498">1..*</text><!--MD5=[a2a194d3aa0c5b34ec916a16bebf9a1a]
link Company to System--><path codeLine="120" d="M32.592,313.188 C38.904,274.11 59.922,173.568 115.8,114 C202.602,21.456 371.292,14.784 430.902,15.492 " fill="none" id="Company-System" style="stroke:#A80036;stroke-width:0.6;"/><polygon fill="#000000" points="247.503,22.3095,242.1003,24.146,244.2116,26.9709,247.503,22.3095" style="stroke:#000000;stroke-width:0.6;"/><text fill="#000000" font-family="sans-serif" font-size="7.8" lengthAdjust="spacing" textLength="12.6" x="250.5" y="27.2971">has</text><text fill="#000000" font-family="sans-serif" font-size="7.8" lengthAdjust="spacing" textLength="4.2" x="28.5851" y="306.6011">1</text><text fill="#000000" font-family="sans-serif" font-size="7.8" lengthAdjust="spacing" textLength="12" x="414.2483" y="24.2843">1..*</text><!--MD5=[09366576ee87d48d594df10cacc83f45]
link Company to Employee--><path codeLine="121" d="M41.256,313.176 C65.298,277.56 122.466,192.894 146.526,157.254 " fill="none" id="Company-Employee" style="stroke:#A80036;stroke-width:0.6;"/><polygon fill="#000000" points="77.8787,222.0191,73.3805,225.5303,76.3034,227.5037,77.8787,222.0191" style="stroke:#000000;stroke-width:0.6;"/><text fill="#000000" font-family="sans-serif" font-size="7.8" lengthAdjust="spacing" textLength="15.6" x="81.6" y="227.6971">have</text><text fill="#000000" font-family="sans-serif" font-size="7.8" lengthAdjust="spacing" textLength="4.2" x="39.3609" y="306.5862">1</text><text fill="#000000" font-family="sans-serif" font-size="7.8" lengthAdjust="spacing" textLength="12" x="130.6817" y="169.9905">1..*</text><!--MD5=[710b10ea314ec23c5eb602bd01bfa9d5]
link Company to Truck--><path codeLine="122" d="M37.35,345.87 C44.37,360.288 56.502,380.718 73.2,392.4 C147.252,444.222 262.434,443.61 306.558,441.174 " fill="none" id="Company-Truck" style="stroke:#A80036;stroke-width:0.6;"/><polygon fill="#000000" points="152.528,410.9066,148.0006,407.4332,146.8236,410.7578,152.528,410.9066" style="stroke:#000000;stroke-width:0.6;"/><text fill="#000000" font-family="sans-serif" font-size="7.8" lengthAdjust="spacing" textLength="13.8" x="155.1" y="413.0971">own</text><text fill="#000000" font-family="sans-serif" font-size="7.8" lengthAdjust="spacing" textLength="4.2" x="34.2947" y="358.3859">1</text><text fill="#000000" font-family="sans-serif" font-size="7.8" lengthAdjust="spacing" textLength="12" x="289.8606" y="450.4681">1..*</text><!--MD5=[3d97e7a8068d9b0a6bb8fcf7dc76451d]
link Company to Ports--><path codeLine="123" d="M55.374,338.166 C72.222,343.584 95.058,350.01 115.8,352.8 C153.066,357.81 162.798,352.968 200.4,352.8 C402.618,351.906 647.184,349.14 721.158,348.27 " fill="none" id="Company-Ports" style="stroke:#A80036;stroke-width:0.6;"/><polygon fill="#000000" points="377.0997,345.751,371.7,343.9055,371.6465,347.4318,377.0997,345.751" style="stroke:#000000;stroke-width:0.6;"/><text fill="#000000" font-family="sans-serif" font-size="7.8" lengthAdjust="spacing" textLength="15.6" x="379.5" y="348.8971">have</text><text fill="#000000" font-family="sans-serif" font-size="7.8" lengthAdjust="spacing" textLength="4.2" x="59.9741" y="348.5356">1</text><text fill="#000000" font-family="sans-serif" font-size="7.8" lengthAdjust="spacing" textLength="12" x="704.381" y="346.0506">1..*</text><!--MD5=[e359b474b5bea3d5e0a05d5f38acf6c5]
link Company to FreightNetwork--><path codeLine="124" d="M31.338,345.81 C33.9,373.2 42.762,428.52 73.2,462 C111.936,504.606 178.206,524.76 218.358,533.49 " fill="none" id="Company-FreightNetwork" style="stroke:#A80036;stroke-width:0.6;"/><polygon fill="#000000" points="78.3176,458.8305,75.7359,453.7416,73.2378,456.2309,78.3176,458.8305" style="stroke:#000000;stroke-width:0.6;"/><text fill="#000000" font-family="sans-serif" font-size="7.8" lengthAdjust="spacing" textLength="15.6" x="81.6" y="459.8971">have</text><text fill="#000000" font-family="sans-serif" font-size="7.8" lengthAdjust="spacing" textLength="4.2" x="27.0427" y="358.3135">1</text><text fill="#000000" font-family="sans-serif" font-size="7.8" lengthAdjust="spacing" textLength="4.2" x="209.4632" y="541.4584">1</text><!--MD5=[a27713cdd7694cea32c8be89a3131559]
link Containers to CargoManifest--><path codeLine="126" d="M482.55,442.362 C505.368,444.384 537.252,447.21 561.378,449.352 " fill="none" id="Containers-CargoManifest" style="stroke:#A80036;stroke-width:0.6;"/><polygon fill="#000000" points="508.1883,438.9705,502.9382,436.7346,502.6267,440.2476,508.1883,438.9705" style="stroke:#000000;stroke-width:0.6;"/><text fill="#000000" font-family="sans-serif" font-size="7.8" lengthAdjust="spacing" textLength="32.4" x="510.6" y="441.8971">related to</text><text fill="#000000" font-family="sans-serif" font-size="7.8" lengthAdjust="spacing" textLength="12" x="487.1048" y="451.402">1..*</text><text fill="#000000" font-family="sans-serif" font-size="7.8" lengthAdjust="spacing" textLength="12" x="544.8912" y="457.6571">1..*</text><!--MD5=[c7fc6f07f2489647d2a3f83969f89660]
link Containers to Ports--><path codeLine="127" d="M482.532,428.784 C504.186,420.678 534.588,409.59 561.6,400.8 C618.636,382.242 686.748,363.306 721.152,353.97 " fill="none" id="Containers-Ports" style="stroke:#A80036;stroke-width:0.6;"/><polygon fill="#000000" points="589.0626,373.008,583.3566,372.949,584.4116,376.3142,589.0626,373.008" style="stroke:#000000;stroke-width:0.6;"/><text fill="#000000" font-family="sans-serif" font-size="7.8" lengthAdjust="spacing" textLength="17.4" x="591.6" y="377.0971">store</text><text fill="#000000" font-family="sans-serif" font-size="7.8" lengthAdjust="spacing" textLength="12" x="487.3066" y="436.0455">0..*</text><text fill="#000000" font-family="sans-serif" font-size="7.8" lengthAdjust="spacing" textLength="4.2" x="712.1963" y="364.159">1</text><!--MD5=[40d84d2acc82335a7c6decf41782281a]
link Containers to Warehouse--><path codeLine="128" d="M482.586,466.38 C503.064,483.438 532.026,504.294 561.6,514.8 C613.35,533.184 678.462,532.986 715.05,530.952 " fill="none" id="Containers-Warehouse" style="stroke:#A80036;stroke-width:0.6;"/><polygon fill="#000000" points="589.0906,510.3084,584.3334,507.1569,583.3895,510.5549,589.0906,510.3084" style="stroke:#000000;stroke-width:0.6;"/><text fill="#000000" font-family="sans-serif" font-size="7.8" lengthAdjust="spacing" textLength="17.4" x="591.6" y="512.6971">store</text><text fill="#000000" font-family="sans-serif" font-size="7.8" lengthAdjust="spacing" textLength="12" x="487.1455" y="478.4973">0..*</text><text fill="#000000" font-family="sans-serif" font-size="7.8" lengthAdjust="spacing" textLength="4.2" x="706.2895" y="540.0999">1</text><!--MD5=[553c71e238892de64676e9482c62727a]
link Country to Border--><path codeLine="130" d="M1038.666,630.6 C1057.026,630.6 1083.372,630.6 1102.698,630.6 " fill="none" id="Country-Border" style="stroke:#A80036;stroke-width:0.6;"/><polygon fill="#000000" points="1062.6,625.3055,1057.1729,623.5421,1057.1729,627.0688,1062.6,625.3055" style="stroke:#000000;stroke-width:0.6;"/><text fill="#000000" font-family="sans-serif" font-size="7.8" lengthAdjust="spacing" textLength="19.2" x="1065" y="628.4971">has a</text><text fill="#000000" font-family="sans-serif" font-size="7.8" lengthAdjust="spacing" textLength="4.2" x="1043.4631" y="639.6822">2</text><text fill="#000000" font-family="sans-serif" font-size="7.8" lengthAdjust="spacing" textLength="3" x="1094.9883" y="639.5571">*</text><!--MD5=[c549efd5903bd57ae8426884da365cce]
reverse link Place to Ports--><path codeLine="132" d="M615.69,600.846 C637.686,574.818 674.136,528.774 697.2,484.2 C717.282,445.392 731.496,395.994 738.48,368.622 " fill="none" id="Place-backto-Ports" style="stroke:#A80036;stroke-width:0.6;"/><polygon fill="none" points="618.756,603.726,607.758,610.104,612.378,598.26,618.756,603.726" style="stroke:#A80036;stroke-width:0.6;"/><!--MD5=[8019f7a40ce5be359cb5778b910e4989]
reverse link Place to Capital--><path codeLine="133" d="M627.408,617.586 C655.926,613.266 697.788,606.918 722.652,603.144 " fill="none" id="Place-backto-Capital" style="stroke:#A80036;stroke-width:0.6;"/><polygon fill="none" points="628.038,621.744,615.54,619.386,626.778,613.434,628.038,621.744" style="stroke:#A80036;stroke-width:0.6;"/><!--MD5=[3d04185e7085eaaeba7ebd93b9963be0]
link PlaceLocation to Country--><path codeLine="135" d="M918.12,630.6 C941.844,630.6 973.35,630.6 994.08,630.6 " fill="none" id="PlaceLocation-Country" style="stroke:#A80036;stroke-width:0.6;"/><polygon fill="#000000" points="942,625.3055,936.5729,623.5421,936.5729,627.0688,942,625.3055" style="stroke:#000000;stroke-width:0.6;"/><text fill="#000000" font-family="sans-serif" font-size="7.8" lengthAdjust="spacing" textLength="31.2" x="944.4" y="628.4971">placed in</text><text fill="#000000" font-family="sans-serif" font-size="7.8" lengthAdjust="spacing" textLength="3" x="922.7721" y="639.3695">*</text><text fill="#000000" font-family="sans-serif" font-size="7.8" lengthAdjust="spacing" textLength="4.2" x="985.2249" y="639.6509">1</text><!--MD5=[3f90a4e0e12e19ee6f3a457d358ba219]
link Place to PlaceLocation--><path codeLine="137" d="M615.354,625.38 C638.532,629.226 679.674,635.466 715.2,637.8 C740.742,639.48 747.216,638.622 772.8,637.8 C799.482,636.942 829.698,634.926 851.952,633.246 " fill="none" id="Place-PlaceLocation" style="stroke:#A80036;stroke-width:0.6;"/><polygon fill="#000000" points="728.3983,632.6052,723.0329,630.6624,722.9157,634.1872,728.3983,632.6052" style="stroke:#000000;stroke-width:0.6;"/><text fill="#000000" font-family="sans-serif" font-size="7.8" lengthAdjust="spacing" textLength="34.2" x="730.8" y="635.6971">located at</text><text fill="#000000" font-family="sans-serif" font-size="7.8" lengthAdjust="spacing" textLength="4.2" x="620.2227" y="635.3468">1</text><text fill="#000000" font-family="sans-serif" font-size="7.8" lengthAdjust="spacing" textLength="4.2" x="843.029" y="642.371">1</text><!--MD5=[cff4e3c6ede03364cf99bd3378be6b6a]
link Ship to Containers--><path codeLine="139" d="M200.544,293.448 C269.484,308.412 399.78,337.014 403.8,340.2 C418.578,351.912 429.162,369.258 436.596,386.202 " fill="none" id="Ship-Containers" style="stroke:#A80036;stroke-width:0.6;"/><polygon fill="#000000" points="311.1922,312.6026,306.786,308.9767,305.4962,312.2591,311.1922,312.6026" style="stroke:#000000;stroke-width:0.6;"/><text fill="#000000" font-family="sans-serif" font-size="7.8" lengthAdjust="spacing" textLength="30.6" x="313.8" y="314.6971">transport</text><text fill="#000000" font-family="sans-serif" font-size="7.8" lengthAdjust="spacing" textLength="4.2" x="205.1376" y="302.978">1</text><text fill="#000000" font-family="sans-serif" font-size="7.8" lengthAdjust="spacing" textLength="12" x="422.7407" y="379.8628">1..*</text><!--MD5=[b5e7d3b323f2cd13b2215620f50e65f3]
link Ship to Ports--><path codeLine="140" d="M200.58,283.14 C310.812,280.35 606.702,276.384 697.2,310.8 C706.824,314.46 715.98,320.94 723.564,327.474 " fill="none" id="Ship-Ports" style="stroke:#A80036;stroke-width:0.6;"/><polygon fill="#000000" points="446.0893,276.9589,440.8306,274.7434,440.5327,278.2575,446.0893,276.9589" style="stroke:#000000;stroke-width:0.6;"/><text fill="#000000" font-family="sans-serif" font-size="7.8" lengthAdjust="spacing" textLength="16.8" x="448.5" y="279.8971">dock</text><text fill="#000000" font-family="sans-serif" font-size="7.8" lengthAdjust="spacing" textLength="12" x="205.2008" y="291.5789">0..*</text><text fill="#000000" font-family="sans-serif" font-size="7.8" lengthAdjust="spacing" textLength="4.2" x="714.9272" y="321.0252">1</text><!--MD5=[5541ef512584d1243c10a7f3b3317e1c]
link Ship to ShipLocation--><path codeLine="141" d="M200.526,271.056 C206.514,269.238 212.604,267.438 218.4,265.8 C290.904,245.322 376.956,224.316 421.782,213.618 " fill="none" id="Ship-ShipLocation" style="stroke:#A80036;stroke-width:0.6;"/><polygon fill="#000000" points="320.3038,227.3517,314.6077,227.0085,315.4939,230.4221,320.3038,227.3517" style="stroke:#000000;stroke-width:0.6;"/><text fill="#000000" font-family="sans-serif" font-size="7.8" lengthAdjust="spacing" textLength="12.6" x="322.8" y="231.2971">has</text><text fill="#000000" font-family="sans-serif" font-size="7.8" lengthAdjust="spacing" textLength="4.2" x="205.1177" y="278.2768">1</text><text fill="#000000" font-family="sans-serif" font-size="7.8" lengthAdjust="spacing" textLength="12" x="405.0134" y="223.2804">1..*</text><!--MD5=[9c226fb16923f449f2aeb2d55d4b05b5]
link Employee to ShipLocation--><path codeLine="143" d="M184.248,146.688 C238.188,158.7 363.498,186.606 421.686,199.56 " fill="none" id="Employee-ShipLocation" style="stroke:#A80036;stroke-width:0.6;"/><polygon fill="#000000" points="312.8283,169.3575,307.9142,166.4567,307.1477,169.8991,312.8283,169.3575" style="stroke:#000000;stroke-width:0.6;"/><text fill="#000000" font-family="sans-serif" font-size="7.8" lengthAdjust="spacing" textLength="27.6" x="315.3" y="171.8971">controls</text><text fill="#000000" font-family="sans-serif" font-size="7.8" lengthAdjust="spacing" textLength="4.2" x="188.9266" y="156.5478">1</text><text fill="#000000" font-family="sans-serif" font-size="7.8" lengthAdjust="spacing" textLength="12" x="404.9051" y="207.4212">1..*</text><!--MD5=[22fb9506fac029fc1d2ae00f0eb8d606]
link Employee to User--><path codeLine="144" d="M181.512,124.794 C192.348,117.564 205.686,109.314 218.4,103.2 C247.578,89.172 283.566,77.946 305.268,71.79 " fill="none" id="Employee-User" style="stroke:#A80036;stroke-width:0.6;"/><polygon fill="#000000" points="237.9577,71.5244,232.2747,72.0401,233.6632,75.282,237.9577,71.5244" style="stroke:#000000;stroke-width:0.6;"/><text fill="#000000" font-family="sans-serif" font-size="7.8" lengthAdjust="spacing" textLength="32.4" x="240.6" y="75.8971">relates to</text><text fill="#000000" font-family="sans-serif" font-size="7.8" lengthAdjust="spacing" textLength="4.2" x="182.5068" y="118.2086">1</text><text fill="#000000" font-family="sans-serif" font-size="7.8" lengthAdjust="spacing" textLength="4.2" x="296.5239" y="81.9896">1</text><!--MD5=[bfae458883a557d51202afbf4dc319fa]
link Employee to Ports--><path codeLine="145" d="M184.422,135.396 C216.912,128.82 274.62,118.8 324.6,118.8 C324.6,118.8 324.6,118.8 597,118.8 C695.562,118.8 730.728,271.2 740.352,327.456 " fill="none" id="Employee-Ports" style="stroke:#A80036;stroke-width:0.6;"/><polygon fill="#000000" points="440.5356,114.4851,435.9818,111.0462,434.8302,114.3796,440.5356,114.4851" style="stroke:#000000;stroke-width:0.6;"/><text fill="#000000" font-family="sans-serif" font-size="7.8" lengthAdjust="spacing" textLength="27.6" x="443.1" y="116.6971">controls</text><text fill="#000000" font-family="sans-serif" font-size="7.8" lengthAdjust="spacing" textLength="4.2" x="188.9518" y="143.3896">1</text><text fill="#000000" font-family="sans-serif" font-size="7.8" lengthAdjust="spacing" textLength="12" x="726.5129" y="321.1607">1..*</text><!--MD5=[8cef3b8bb432fdc493768abc58cade76]
link Truck to Containers--><path codeLine="147" d="M343.938,439.8 C364.722,439.8 399.066,439.8 423.534,439.8 " fill="none" id="Truck-Containers" style="stroke:#A80036;stroke-width:0.6;"/><polygon fill="#000000" points="369.6,434.5055,364.1729,432.7421,364.1729,436.2688,369.6,434.5055" style="stroke:#000000;stroke-width:0.6;"/><text fill="#000000" font-family="sans-serif" font-size="7.8" lengthAdjust="spacing" textLength="30.6" x="372" y="437.6971">transport</text><text fill="#000000" font-family="sans-serif" font-size="7.8" lengthAdjust="spacing" textLength="4.2" x="348.4963" y="448.9701">1</text><text fill="#000000" font-family="sans-serif" font-size="7.8" lengthAdjust="spacing" textLength="12" x="406.7683" y="448.5418">1..*</text><!--MD5=[668bfb6c3cf503ab645d5414a0ff2b4e]
link Truck to Warehouse--><path codeLine="148" d="M340.116,451.83 C358.074,466.314 390.336,490.386 421.8,504 C515.49,544.542 547.128,534.654 649.2,536.4 C670.53,536.766 675.942,538.182 697.2,536.4 C703.038,535.908 709.242,535.08 715.152,534.138 " fill="none" id="Truck-Warehouse" style="stroke:#A80036;stroke-width:0.6;"/><polygon fill="#000000" points="516.8303,525.7486,511.9074,522.8628,511.1514,526.3076,516.8303,525.7486" style="stroke:#000000;stroke-width:0.6;"/><text fill="#000000" font-family="sans-serif" font-size="7.8" lengthAdjust="spacing" textLength="15" x="519.3" y="528.2971">park</text><text fill="#000000" font-family="sans-serif" font-size="7.8" lengthAdjust="spacing" textLength="12" x="330.6236" y="464.6902">0..*</text><text fill="#000000" font-family="sans-serif" font-size="7.8" lengthAdjust="spacing" textLength="4.2" x="706.2131" y="532.7484">1</text><!--MD5=[4a0bbcdd6df460060db454e8e2c30a96]
link User to System--><path codeLine="150" d="M345.006,59.898 C360.876,54.27 383.94,45.87 403.8,37.8 C412.782,34.152 422.574,29.862 430.998,26.07 " fill="none" id="User-System" style="stroke:#A80036;stroke-width:0.6;"/><polygon fill="#000000" points="376.2918,31.4072,370.5959,31.753,371.887,35.0349,376.2918,31.4072" style="stroke:#000000;stroke-width:0.6;"/><text fill="#000000" font-family="sans-serif" font-size="7.8" lengthAdjust="spacing" textLength="16.8" x="378.9" y="35.6971">uses</text><text fill="#000000" font-family="sans-serif" font-size="7.8" lengthAdjust="spacing" textLength="12" x="349.764" y="67.682">1..*</text><text fill="#000000" font-family="sans-serif" font-size="7.8" lengthAdjust="spacing" textLength="4.2" x="422.0529" y="37.076">1</text><!--MD5=[70c37dc9bfbc8656942103c36f1181e4]
link User to Role--><path codeLine="151" d="M345.036,70.302 C350.79,71.25 357.132,72.132 363,72.6 C386.442,74.478 413.448,73.506 431.592,72.396 " fill="none" id="User-Role" style="stroke:#A80036;stroke-width:0.6;"/><polygon fill="#000000" points="378.5991,67.378,373.2163,65.4839,373.131,69.0096,378.5991,67.378" style="stroke:#000000;stroke-width:0.6;"/><text fill="#000000" font-family="sans-serif" font-size="7.8" lengthAdjust="spacing" textLength="12.6" x="381" y="70.4971">has</text><text fill="#000000" font-family="sans-serif" font-size="7.8" lengthAdjust="spacing" textLength="4.2" x="349.8345" y="80.3035">1</text><text fill="#000000" font-family="sans-serif" font-size="7.8" lengthAdjust="spacing" textLength="12" x="414.8813" y="81.619">1..*</text><!--MD5=[591625470abc4a5f324d9b49d40e13b3]
link Warehouse to PlaceLocation--><path codeLine="153" d="M772.89,549.24 C797.226,566.994 832.14,592.47 856.392,610.164 " fill="none" id="Warehouse-PlaceLocation" style="stroke:#A80036;stroke-width:0.6;"/><polygon fill="#000000" points="796.2235,560.4737,792.8787,555.8504,790.8,558.6995,796.2235,560.4737" style="stroke:#000000;stroke-width:0.6;"/><text fill="#000000" font-family="sans-serif" font-size="7.8" lengthAdjust="spacing" textLength="34.2" x="799.2" y="561.8971">located at</text><text fill="#000000" font-family="sans-serif" font-size="7.8" lengthAdjust="spacing" textLength="4.2" x="777.6353" y="561.2329">1</text><text fill="#000000" font-family="sans-serif" font-size="7.8" lengthAdjust="spacing" textLength="4.2" x="846.1464" y="603.7329">1</text><!--MD5=[fa4d65f953ae0f8f2ca1213e61726aa9]
link FreightNetwork to Place--><path codeLine="154" d="M268.524,551.52 C288.666,566.988 326.16,593.142 363,604.8 C439.704,629.076 537.42,626.166 577.452,623.634 " fill="none" id="FreightNetwork-Place" style="stroke:#A80036;stroke-width:0.6;"/><text fill="#000000" font-family="sans-serif" font-size="7.8" lengthAdjust="spacing" textLength="39.6" x="363.6" y="602.6971">related with</text><text fill="#000000" font-family="sans-serif" font-size="7.8" lengthAdjust="spacing" textLength="4.2" x="267.9586" y="564.1927">1</text><text fill="#000000" font-family="sans-serif" font-size="7.8" lengthAdjust="spacing" textLength="12" x="560.6963" y="632.9395">1..*</text><!--MD5=[df556757ff5a8fa73fac434117e9a5a4]
@startuml
'https://plantuml.com/class-diagram

hide methods
left to right direction
skinparam classAttributeIconSize 0

class Company {
-designation
}

class Employee {
-name
}

class Containers {
-x
-y
-z
-containerNumber
-checkDigit
-isoCode
-payLoad
-tare
-gross
-weight
}

class CargoManifest {
-listOfContainers
-ratio
-date
-mmsiCode
-id
-numberOfContainers
-destination
}

class Ship {
-mmsiCode
-imoCode
-numberEnergyGenerators
-generatorPower
-callSign
-draft
-name
-vesselTypeId
-length
-width
-capacity
}



class Ports {
-identification
-name
}

class Truck {

}

class Warehouse {
-identification
-name
-capacity
-occupancy
}

class Country {
-name
-continent
}

class PlaceLocation {
-latitude
-longitude
}

class ShipLocation {
-baseDateTime
-latitude
-longitude
-sog
-cog
-heading
-position
-transceiver
}

class User{
-username
-password
}

class Role{
-designation
}

class Capital{
-name
}

class Place {

}

class Border {
-countryName1
-countryName2
}

class FreightNetwork {
}

CargoManifest "*" - - "1" Ports : delivered at >
CargoManifest "*" - - "1" Warehouse : delivered at >

Company "1"- -"1..*" Ship: own >
Company "1" - "1..*" System : has >
Company "1"- -"1..*" Employee: have >
Company "1"- -"1..*" Truck: own >
Company "1"- -"1..*" Ports: have >
Company "1"- -"1" FreightNetwork: have >

Containers "1..*"- -"1..*" CargoManifest: related to >
Containers "0..*"- -"1" Ports: store >
Containers "0..*"- -"1" Warehouse: store >

Country "2" - - "*" Border : has a >

Place <|- - Ports
Place <|- - Capital

PlaceLocation "*" - - "1" Country : placed in >

Place "1" - - "1" PlaceLocation : located at >

Ship "1"- - -"1..*" Containers : transport >
Ship "0..*"- -"1" Ports: dock >
Ship "1" - - "1..*" ShipLocation : has >

Employee "1" - - - "1..*" ShipLocation : controls >
Employee "1" - - "1" User : relates to >
Employee "1" - - - "1..*" Ports : controls >

Truck "1"- -"1..*" Containers : transport >
Truck "0..*"- -"1" Warehouse: park >

User "1..*" - - "1" System : uses >
User "1" - - "1..*" Role : has >

Warehouse "1" - - "1" PlaceLocation : located at >
FreightNetwork "1" - - "1..*" Place : related with




@enduml

@startuml

hide methods
left to right direction
skinparam classAttributeIconSize 0

class Company {
-designation
}

class Employee {
-name
}

class Containers {
-x
-y
-z
-containerNumber
-checkDigit
-isoCode
-payLoad
-tare
-gross
-weight
}

class CargoManifest {
-listOfContainers
-ratio
-date
-mmsiCode
-id
-numberOfContainers
-destination
}

class Ship {
-mmsiCode
-imoCode
-numberEnergyGenerators
-generatorPower
-callSign
-draft
-name
-vesselTypeId
-length
-width
-capacity
}



class Ports {
-identification
-name
}

class Truck {

}

class Warehouse {
-identification
-name
-capacity
-occupancy
}

class Country {
-name
-continent
}

class PlaceLocation {
-latitude
-longitude
}

class ShipLocation {
-baseDateTime
-latitude
-longitude
-sog
-cog
-heading
-position
-transceiver
}

class User{
-username
-password
}

class Role{
-designation
}

class Capital{
-name
}

class Place {

}

class Border {
-countryName1
-countryName2
}

class FreightNetwork {
}

CargoManifest "*" - - "1" Ports : delivered at >
CargoManifest "*" - - "1" Warehouse : delivered at >

Company "1"- -"1..*" Ship: own >
Company "1" - "1..*" System : has >
Company "1"- -"1..*" Employee: have >
Company "1"- -"1..*" Truck: own >
Company "1"- -"1..*" Ports: have >
Company "1"- -"1" FreightNetwork: have >

Containers "1..*"- -"1..*" CargoManifest: related to >
Containers "0..*"- -"1" Ports: store >
Containers "0..*"- -"1" Warehouse: store >

Country "2" - - "*" Border : has a >

Place <|- - Ports
Place <|- - Capital

PlaceLocation "*" - - "1" Country : placed in >

Place "1" - - "1" PlaceLocation : located at >

Ship "1"- - -"1..*" Containers : transport >
Ship "0..*"- -"1" Ports: dock >
Ship "1" - - "1..*" ShipLocation : has >

Employee "1" - - - "1..*" ShipLocation : controls >
Employee "1" - - "1" User : relates to >
Employee "1" - - - "1..*" Ports : controls >

Truck "1"- -"1..*" Containers : transport >
Truck "0..*"- -"1" Warehouse: park >

User "1..*" - - "1" System : uses >
User "1" - - "1..*" Role : has >

Warehouse "1" - - "1" PlaceLocation : located at >
FreightNetwork "1" - - "1..*" Place : related with




@enduml

PlantUML version 1.2021.5(Sun Apr 25 12:20:28 BST 2021)
(GPL source distribution)
Java Runtime: OpenJDK Runtime Environment
JVM: Dynamic Code Evolution 64-Bit Server VM
Default Encoding: Cp1252
Language: pt
Country: PT
--></g></svg>