<?xml version="1.0" encoding="UTF-8" standalone="no"?><svg xmlns="http://www.w3.org/2000/svg" xmlns:xlink="http://www.w3.org/1999/xlink" contentScriptType="application/ecmascript" contentStyleType="text/css" height="838.5px" preserveAspectRatio="none" style="width:1228px;height:838px;" version="1.1" viewBox="0 0 1228 838" width="1228.5px" zoomAndPan="magnify"><defs><filter height="300%" id="fz7ddqmm331ij" width="300%" x="-1" y="-1"><feGaussianBlur result="blurOut" stdDeviation="3.0"/><feColorMatrix in="blurOut" result="blurOut2" type="matrix" values="0 0 0 0 0 0 0 0 0 0 0 0 0 0 0 0 0 0 .4 0"/><feOffset dx="6.0" dy="6.0" in="blurOut2" result="blurOut3"/><feBlend in="SourceGraphic" in2="blurOut3" mode="normal"/></filter></defs><g><!--MD5=[02e4b9b7573f1156f41e60aa5b4e25a4]
class Company--><rect codeLine="7" fill="#FEFECE" filter="url(#fz7ddqmm331ij)" height="80.7539" id="Company" style="stroke:#A80036;stroke-width:2.25;" width="127.5" x="10.5" y="318.75"/><ellipse cx="33" cy="342.75" fill="#ADD1B2" rx="16.5" ry="16.5" style="stroke:#A80036;stroke-width:1.5;"/><path d="M36,337.5 Q36.3047,336.75 36.6563,336.375 Q37.0078,336 37.4063,336 Q38.1094,336 38.5547,336.4219 Q39,336.8438 39,337.8281 L39,340.1719 Q39,341.1563 38.5781,341.5781 Q38.1563,342 37.5,342 Q36.9141,342 36.5391,341.7422 Q36.1641,341.4844 36,340.8047 Q35.9297,340.3359 35.6719,340.0781 Q35.2031,339.5859 34.3594,339.3047 Q33.5156,339 32.6719,339 Q31.6172,339 30.7266,339.4219 Q29.8594,339.8438 29.1797,340.7813 Q28.5,341.7188 28.5,343.0078 L28.5,344.3906 Q28.5,345.9375 29.7656,346.9688 Q31.0313,348 33.2813,348 Q34.6172,348 35.5547,347.6953 Q36.0938,347.5313 36.7031,346.9922 Q37.1016,346.6875 37.3125,346.5938 Q37.5234,346.5 37.7813,346.5 Q38.2734,346.5 38.625,346.8984 Q39,347.2734 39,347.8125 Q39,348.3281 38.4844,348.9375 Q37.7344,349.8281 36.5391,350.3203 Q34.9688,351 33.0469,351 Q30.7969,351 28.9922,350.1094 Q27.5391,349.4063 26.5078,347.8828 Q25.5,346.3594 25.5,344.5547 L25.5,342.9141 Q25.5,341.0391 26.3906,339.3984 Q27.3047,337.7578 28.875,336.8906 Q30.4688,336 32.25,336 Q33.3281,336 34.2656,336.375 Q35.2031,336.75 36,337.5 Z " fill="#000000"/><text fill="#000000" font-family="sans-serif" font-size="18" lengthAdjust="spacing" textLength="79.5" x="54" y="350.1152">Company</text><line style="stroke:#A80036;stroke-width:2.25;" x1="12" x2="136.5" y1="366.75" y2="366.75"/><text fill="#000000" font-family="sans-serif" font-size="16.5" lengthAdjust="spacing" textLength="88.5" x="19.5" y="389.8784">-designation</text><!--MD5=[ddaf6f62b0bc30921877ec9fb9463c9f]
class TrafficManager--><rect codeLine="11" fill="#FEFECE" filter="url(#fz7ddqmm331ij)" height="80.7539" id="TrafficManager" style="stroke:#A80036;stroke-width:2.25;" width="169.5" x="310.5" y="81.75"/><ellipse cx="333" cy="105.75" fill="#ADD1B2" rx="16.5" ry="16.5" style="stroke:#A80036;stroke-width:1.5;"/><path d="M336,100.5 Q336.3047,99.75 336.6563,99.375 Q337.0078,99 337.4063,99 Q338.1094,99 338.5547,99.4219 Q339,99.8438 339,100.8281 L339,103.1719 Q339,104.1563 338.5781,104.5781 Q338.1563,105 337.5,105 Q336.9141,105 336.5391,104.7422 Q336.1641,104.4844 336,103.8047 Q335.9297,103.3359 335.6719,103.0781 Q335.2031,102.5859 334.3594,102.3047 Q333.5156,102 332.6719,102 Q331.6172,102 330.7266,102.4219 Q329.8594,102.8438 329.1797,103.7813 Q328.5,104.7188 328.5,106.0078 L328.5,107.3906 Q328.5,108.9375 329.7656,109.9688 Q331.0313,111 333.2813,111 Q334.6172,111 335.5547,110.6953 Q336.0938,110.5313 336.7031,109.9922 Q337.1016,109.6875 337.3125,109.5938 Q337.5234,109.5 337.7813,109.5 Q338.2734,109.5 338.625,109.8984 Q339,110.2734 339,110.8125 Q339,111.3281 338.4844,111.9375 Q337.7344,112.8281 336.5391,113.3203 Q334.9688,114 333.0469,114 Q330.7969,114 328.9922,113.1094 Q327.5391,112.4063 326.5078,110.8828 Q325.5,109.3594 325.5,107.5547 L325.5,105.9141 Q325.5,104.0391 326.3906,102.3984 Q327.3047,100.7578 328.875,99.8906 Q330.4688,99 332.25,99 Q333.3281,99 334.2656,99.375 Q335.2031,99.75 336,100.5 Z " fill="#000000"/><text fill="#000000" font-family="sans-serif" font-size="18" lengthAdjust="spacing" textLength="121.5" x="354" y="113.1152">TrafficManager</text><line style="stroke:#A80036;stroke-width:2.25;" x1="312" x2="478.5" y1="129.75" y2="129.75"/><text fill="#000000" font-family="sans-serif" font-size="16.5" lengthAdjust="spacing" textLength="45" x="319.5" y="152.8784">-name</text><!--MD5=[a3093aa9f96b7df9aab31d8715601ff6]
class Containers--><rect codeLine="15" fill="#FEFECE" filter="url(#fz7ddqmm331ij)" height="309.0469" id="Containers" style="stroke:#A80036;stroke-width:2.25;" width="147" x="694.5" y="426.75"/><ellipse cx="720.375" cy="450.75" fill="#ADD1B2" rx="16.5" ry="16.5" style="stroke:#A80036;stroke-width:1.5;"/><path d="M723.375,445.5 Q723.6797,444.75 724.0313,444.375 Q724.3828,444 724.7813,444 Q725.4844,444 725.9297,444.4219 Q726.375,444.8438 726.375,445.8281 L726.375,448.1719 Q726.375,449.1563 725.9531,449.5781 Q725.5313,450 724.875,450 Q724.2891,450 723.9141,449.7422 Q723.5391,449.4844 723.375,448.8047 Q723.3047,448.3359 723.0469,448.0781 Q722.5781,447.5859 721.7344,447.3047 Q720.8906,447 720.0469,447 Q718.9922,447 718.1016,447.4219 Q717.2344,447.8438 716.5547,448.7813 Q715.875,449.7188 715.875,451.0078 L715.875,452.3906 Q715.875,453.9375 717.1406,454.9688 Q718.4063,456 720.6563,456 Q721.9922,456 722.9297,455.6953 Q723.4688,455.5313 724.0781,454.9922 Q724.4766,454.6875 724.6875,454.5938 Q724.8984,454.5 725.1563,454.5 Q725.6484,454.5 726,454.8984 Q726.375,455.2734 726.375,455.8125 Q726.375,456.3281 725.8594,456.9375 Q725.1094,457.8281 723.9141,458.3203 Q722.3438,459 720.4219,459 Q718.1719,459 716.3672,458.1094 Q714.9141,457.4063 713.8828,455.8828 Q712.875,454.3594 712.875,452.5547 L712.875,450.9141 Q712.875,449.0391 713.7656,447.3984 Q714.6797,445.7578 716.25,444.8906 Q717.8438,444 719.625,444 Q720.7031,444 721.6406,444.375 Q722.5781,444.75 723.375,445.5 Z " fill="#000000"/><text fill="#000000" font-family="sans-serif" font-size="18" lengthAdjust="spacing" textLength="91.5" x="742.125" y="458.1152">Containers</text><line style="stroke:#A80036;stroke-width:2.25;" x1="696" x2="840" y1="474.75" y2="474.75"/><text fill="#000000" font-family="sans-serif" font-size="16.5" lengthAdjust="spacing" textLength="15" x="703.5" y="497.8784">-x</text><text fill="#000000" font-family="sans-serif" font-size="16.5" lengthAdjust="spacing" textLength="15" x="703.5" y="518.6323">-y</text><text fill="#000000" font-family="sans-serif" font-size="16.5" lengthAdjust="spacing" textLength="15" x="703.5" y="539.3862">-z</text><text fill="#000000" font-family="sans-serif" font-size="16.5" lengthAdjust="spacing" textLength="129" x="703.5" y="560.1401">-containerNumber</text><text fill="#000000" font-family="sans-serif" font-size="16.5" lengthAdjust="spacing" textLength="79.5" x="703.5" y="580.894">-checkDigit</text><text fill="#000000" font-family="sans-serif" font-size="16.5" lengthAdjust="spacing" textLength="64.5" x="703.5" y="601.6479">-isoCode</text><text fill="#000000" font-family="sans-serif" font-size="16.5" lengthAdjust="spacing" textLength="46.5" x="703.5" y="622.4019">-width</text><text fill="#000000" font-family="sans-serif" font-size="16.5" lengthAdjust="spacing" textLength="49.5" x="703.5" y="643.1558">-height</text><text fill="#000000" font-family="sans-serif" font-size="16.5" lengthAdjust="spacing" textLength="49.5" x="703.5" y="663.9097">-length</text><text fill="#000000" font-family="sans-serif" font-size="16.5" lengthAdjust="spacing" textLength="69" x="703.5" y="684.6636">-payLoad</text><text fill="#000000" font-family="sans-serif" font-size="16.5" lengthAdjust="spacing" textLength="34.5" x="703.5" y="705.4175">-tare</text><text fill="#000000" font-family="sans-serif" font-size="16.5" lengthAdjust="spacing" textLength="48" x="703.5" y="726.1714">-gross</text><!--MD5=[76562047389981627aea27c31a97aff5]
class CargoManifest--><rect codeLine="30" fill="#FEFECE" filter="url(#fz7ddqmm331ij)" height="80.7539" id="CargoManifest" style="stroke:#A80036;stroke-width:2.25;" width="168" x="1039.5" y="540.75"/><ellipse cx="1062" cy="564.75" fill="#ADD1B2" rx="16.5" ry="16.5" style="stroke:#A80036;stroke-width:1.5;"/><path d="M1065,559.5 Q1065.3047,558.75 1065.6563,558.375 Q1066.0078,558 1066.4063,558 Q1067.1094,558 1067.5547,558.4219 Q1068,558.8438 1068,559.8281 L1068,562.1719 Q1068,563.1563 1067.5781,563.5781 Q1067.1563,564 1066.5,564 Q1065.9141,564 1065.5391,563.7422 Q1065.1641,563.4844 1065,562.8047 Q1064.9297,562.3359 1064.6719,562.0781 Q1064.2031,561.5859 1063.3594,561.3047 Q1062.5156,561 1061.6719,561 Q1060.6172,561 1059.7266,561.4219 Q1058.8594,561.8438 1058.1797,562.7813 Q1057.5,563.7188 1057.5,565.0078 L1057.5,566.3906 Q1057.5,567.9375 1058.7656,568.9688 Q1060.0313,570 1062.2813,570 Q1063.6172,570 1064.5547,569.6953 Q1065.0938,569.5313 1065.7031,568.9922 Q1066.1016,568.6875 1066.3125,568.5938 Q1066.5234,568.5 1066.7813,568.5 Q1067.2734,568.5 1067.625,568.8984 Q1068,569.2734 1068,569.8125 Q1068,570.3281 1067.4844,570.9375 Q1066.7344,571.8281 1065.5391,572.3203 Q1063.9688,573 1062.0469,573 Q1059.7969,573 1057.9922,572.1094 Q1056.5391,571.4063 1055.5078,569.8828 Q1054.5,568.3594 1054.5,566.5547 L1054.5,564.9141 Q1054.5,563.0391 1055.3906,561.3984 Q1056.3047,559.7578 1057.875,558.8906 Q1059.4688,558 1061.25,558 Q1062.3281,558 1063.2656,558.375 Q1064.2031,558.75 1065,559.5 Z " fill="#000000"/><text fill="#000000" font-family="sans-serif" font-size="18" lengthAdjust="spacing" textLength="120" x="1083" y="572.1152">CargoManifest</text><line style="stroke:#A80036;stroke-width:2.25;" x1="1041" x2="1206" y1="588.75" y2="588.75"/><text fill="#000000" font-family="sans-serif" font-size="16.5" lengthAdjust="spacing" textLength="129" x="1048.5" y="611.8784">-containerNumber</text><!--MD5=[0dc7f2ddb409b58bcf52b12238c25399]
class Ship--><rect codeLine="34" fill="#FEFECE" filter="url(#fz7ddqmm331ij)" height="288.293" id="Ship" style="stroke:#A80036;stroke-width:2.25;" width="211.5" x="289.5" y="215.25"/><ellipse cx="370.125" cy="239.25" fill="#ADD1B2" rx="16.5" ry="16.5" style="stroke:#A80036;stroke-width:1.5;"/><path d="M373.125,234 Q373.4297,233.25 373.7813,232.875 Q374.1328,232.5 374.5313,232.5 Q375.2344,232.5 375.6797,232.9219 Q376.125,233.3438 376.125,234.3281 L376.125,236.6719 Q376.125,237.6563 375.7031,238.0781 Q375.2813,238.5 374.625,238.5 Q374.0391,238.5 373.6641,238.2422 Q373.2891,237.9844 373.125,237.3047 Q373.0547,236.8359 372.7969,236.5781 Q372.3281,236.0859 371.4844,235.8047 Q370.6406,235.5 369.7969,235.5 Q368.7422,235.5 367.8516,235.9219 Q366.9844,236.3438 366.3047,237.2813 Q365.625,238.2188 365.625,239.5078 L365.625,240.8906 Q365.625,242.4375 366.8906,243.4688 Q368.1563,244.5 370.4063,244.5 Q371.7422,244.5 372.6797,244.1953 Q373.2188,244.0313 373.8281,243.4922 Q374.2266,243.1875 374.4375,243.0938 Q374.6484,243 374.9063,243 Q375.3984,243 375.75,243.3984 Q376.125,243.7734 376.125,244.3125 Q376.125,244.8281 375.6094,245.4375 Q374.8594,246.3281 373.6641,246.8203 Q372.0938,247.5 370.1719,247.5 Q367.9219,247.5 366.1172,246.6094 Q364.6641,245.9063 363.6328,244.3828 Q362.625,242.8594 362.625,241.0547 L362.625,239.4141 Q362.625,237.5391 363.5156,235.8984 Q364.4297,234.2578 366,233.3906 Q367.5938,232.5 369.375,232.5 Q370.4531,232.5 371.3906,232.875 Q372.3281,233.25 373.125,234 Z " fill="#000000"/><text fill="#000000" font-family="sans-serif" font-size="18" lengthAdjust="spacing" textLength="37.5" x="400.875" y="246.6152">Ship</text><line style="stroke:#A80036;stroke-width:2.25;" x1="291" x2="499.5" y1="263.25" y2="263.25"/><text fill="#000000" font-family="sans-serif" font-size="16.5" lengthAdjust="spacing" textLength="79.5" x="298.5" y="286.3784">-mmsiCode</text><text fill="#000000" font-family="sans-serif" font-size="16.5" lengthAdjust="spacing" textLength="45" x="298.5" y="307.1323">-name</text><text fill="#000000" font-family="sans-serif" font-size="16.5" lengthAdjust="spacing" textLength="67.5" x="298.5" y="327.8862">-imoCode</text><text fill="#000000" font-family="sans-serif" font-size="16.5" lengthAdjust="spacing" textLength="193.5" x="298.5" y="348.6401">-numberEnergyGenerators</text><text fill="#000000" font-family="sans-serif" font-size="16.5" lengthAdjust="spacing" textLength="124.5" x="298.5" y="369.394">-generatorPower</text><text fill="#000000" font-family="sans-serif" font-size="16.5" lengthAdjust="spacing" textLength="61.5" x="298.5" y="390.1479">-callSign</text><text fill="#000000" font-family="sans-serif" font-size="16.5" lengthAdjust="spacing" textLength="90" x="298.5" y="410.9019">-vesselType</text><text fill="#000000" font-family="sans-serif" font-size="16.5" lengthAdjust="spacing" textLength="49.5" x="298.5" y="431.6558">-length</text><text fill="#000000" font-family="sans-serif" font-size="16.5" lengthAdjust="spacing" textLength="46.5" x="298.5" y="452.4097">-width</text><text fill="#000000" font-family="sans-serif" font-size="16.5" lengthAdjust="spacing" textLength="67.5" x="298.5" y="473.1636">-capacity</text><text fill="#000000" font-family="sans-serif" font-size="16.5" lengthAdjust="spacing" textLength="40.5" x="298.5" y="493.9175">-draft</text><!--MD5=[ea13aecf8df941b18fb8e3885c78c184]
class Ports--><rect codeLine="48" fill="#FEFECE" filter="url(#fz7ddqmm331ij)" height="60" id="Ports" style="stroke:#A80036;stroke-width:2.25;" width="91.5" x="1077.75" y="341.25"/><ellipse cx="1100.25" cy="365.25" fill="#ADD1B2" rx="16.5" ry="16.5" style="stroke:#A80036;stroke-width:1.5;"/><path d="M1103.25,360 Q1103.5547,359.25 1103.9063,358.875 Q1104.2578,358.5 1104.6563,358.5 Q1105.3594,358.5 1105.8047,358.9219 Q1106.25,359.3438 1106.25,360.3281 L1106.25,362.6719 Q1106.25,363.6563 1105.8281,364.0781 Q1105.4063,364.5 1104.75,364.5 Q1104.1641,364.5 1103.7891,364.2422 Q1103.4141,363.9844 1103.25,363.3047 Q1103.1797,362.8359 1102.9219,362.5781 Q1102.4531,362.0859 1101.6094,361.8047 Q1100.7656,361.5 1099.9219,361.5 Q1098.8672,361.5 1097.9766,361.9219 Q1097.1094,362.3438 1096.4297,363.2813 Q1095.75,364.2188 1095.75,365.5078 L1095.75,366.8906 Q1095.75,368.4375 1097.0156,369.4688 Q1098.2813,370.5 1100.5313,370.5 Q1101.8672,370.5 1102.8047,370.1953 Q1103.3438,370.0313 1103.9531,369.4922 Q1104.3516,369.1875 1104.5625,369.0938 Q1104.7734,369 1105.0313,369 Q1105.5234,369 1105.875,369.3984 Q1106.25,369.7734 1106.25,370.3125 Q1106.25,370.8281 1105.7344,371.4375 Q1104.9844,372.3281 1103.7891,372.8203 Q1102.2188,373.5 1100.2969,373.5 Q1098.0469,373.5 1096.2422,372.6094 Q1094.7891,371.9063 1093.7578,370.3828 Q1092.75,368.8594 1092.75,367.0547 L1092.75,365.4141 Q1092.75,363.5391 1093.6406,361.8984 Q1094.5547,360.2578 1096.125,359.3906 Q1097.7188,358.5 1099.5,358.5 Q1100.5781,358.5 1101.5156,358.875 Q1102.4531,359.25 1103.25,360 Z " fill="#000000"/><text fill="#000000" font-family="sans-serif" font-size="18" lengthAdjust="spacing" textLength="43.5" x="1121.25" y="372.6152">Ports</text><line style="stroke:#A80036;stroke-width:2.25;" x1="1079.25" x2="1167.75" y1="389.25" y2="389.25"/><!--MD5=[f2ba7f6ab60af8dd0d3e354f91729b14]
class Truck--><rect codeLine="52" fill="#FEFECE" filter="url(#fz7ddqmm331ij)" height="60" id="Truck" style="stroke:#A80036;stroke-width:2.25;" width="93" x="348.75" y="555.75"/><ellipse cx="371.25" cy="579.75" fill="#ADD1B2" rx="16.5" ry="16.5" style="stroke:#A80036;stroke-width:1.5;"/><path d="M374.25,574.5 Q374.5547,573.75 374.9063,573.375 Q375.2578,573 375.6563,573 Q376.3594,573 376.8047,573.4219 Q377.25,573.8438 377.25,574.8281 L377.25,577.1719 Q377.25,578.1563 376.8281,578.5781 Q376.4063,579 375.75,579 Q375.1641,579 374.7891,578.7422 Q374.4141,578.4844 374.25,577.8047 Q374.1797,577.3359 373.9219,577.0781 Q373.4531,576.5859 372.6094,576.3047 Q371.7656,576 370.9219,576 Q369.8672,576 368.9766,576.4219 Q368.1094,576.8438 367.4297,577.7813 Q366.75,578.7188 366.75,580.0078 L366.75,581.3906 Q366.75,582.9375 368.0156,583.9688 Q369.2813,585 371.5313,585 Q372.8672,585 373.8047,584.6953 Q374.3438,584.5313 374.9531,583.9922 Q375.3516,583.6875 375.5625,583.5938 Q375.7734,583.5 376.0313,583.5 Q376.5234,583.5 376.875,583.8984 Q377.25,584.2734 377.25,584.8125 Q377.25,585.3281 376.7344,585.9375 Q375.9844,586.8281 374.7891,587.3203 Q373.2188,588 371.2969,588 Q369.0469,588 367.2422,587.1094 Q365.7891,586.4063 364.7578,584.8828 Q363.75,583.3594 363.75,581.5547 L363.75,579.9141 Q363.75,578.0391 364.6406,576.3984 Q365.5547,574.7578 367.125,573.8906 Q368.7188,573 370.5,573 Q371.5781,573 372.5156,573.375 Q373.4531,573.75 374.25,574.5 Z " fill="#000000"/><text fill="#000000" font-family="sans-serif" font-size="18" lengthAdjust="spacing" textLength="45" x="392.25" y="587.1152">Truck</text><line style="stroke:#A80036;stroke-width:2.25;" x1="350.25" x2="440.25" y1="603.75" y2="603.75"/><!--MD5=[c5149b4909ffd2688ff51a939867f774]
class Warehouse--><rect codeLine="56" fill="#FEFECE" filter="url(#fz7ddqmm331ij)" height="60" id="Warehouse" style="stroke:#A80036;stroke-width:2.25;" width="144" x="1051.5" y="729.75"/><ellipse cx="1074" cy="753.75" fill="#ADD1B2" rx="16.5" ry="16.5" style="stroke:#A80036;stroke-width:1.5;"/><path d="M1077,748.5 Q1077.3047,747.75 1077.6563,747.375 Q1078.0078,747 1078.4063,747 Q1079.1094,747 1079.5547,747.4219 Q1080,747.8438 1080,748.8281 L1080,751.1719 Q1080,752.1563 1079.5781,752.5781 Q1079.1563,753 1078.5,753 Q1077.9141,753 1077.5391,752.7422 Q1077.1641,752.4844 1077,751.8047 Q1076.9297,751.3359 1076.6719,751.0781 Q1076.2031,750.5859 1075.3594,750.3047 Q1074.5156,750 1073.6719,750 Q1072.6172,750 1071.7266,750.4219 Q1070.8594,750.8438 1070.1797,751.7813 Q1069.5,752.7188 1069.5,754.0078 L1069.5,755.3906 Q1069.5,756.9375 1070.7656,757.9688 Q1072.0313,759 1074.2813,759 Q1075.6172,759 1076.5547,758.6953 Q1077.0938,758.5313 1077.7031,757.9922 Q1078.1016,757.6875 1078.3125,757.5938 Q1078.5234,757.5 1078.7813,757.5 Q1079.2734,757.5 1079.625,757.8984 Q1080,758.2734 1080,758.8125 Q1080,759.3281 1079.4844,759.9375 Q1078.7344,760.8281 1077.5391,761.3203 Q1075.9688,762 1074.0469,762 Q1071.7969,762 1069.9922,761.1094 Q1068.5391,760.4063 1067.5078,758.8828 Q1066.5,757.3594 1066.5,755.5547 L1066.5,753.9141 Q1066.5,752.0391 1067.3906,750.3984 Q1068.3047,748.7578 1069.875,747.8906 Q1071.4688,747 1073.25,747 Q1074.3281,747 1075.2656,747.375 Q1076.2031,747.75 1077,748.5 Z " fill="#000000"/><text fill="#000000" font-family="sans-serif" font-size="18" lengthAdjust="spacing" textLength="96" x="1095" y="761.1152">Warehouse</text><line style="stroke:#A80036;stroke-width:2.25;" x1="1053" x2="1194" y1="777.75" y2="777.75"/><!--MD5=[efa7c3600894dd6faaa8b816738c33b1]
class ShipLocation--><rect codeLine="60" fill="#FEFECE" filter="url(#fz7ddqmm331ij)" height="226.0313" id="ShipLocation" style="stroke:#A80036;stroke-width:2.25;" width="156" x="690" y="10.5"/><ellipse cx="712.5" cy="34.5" fill="#ADD1B2" rx="16.5" ry="16.5" style="stroke:#A80036;stroke-width:1.5;"/><path d="M715.5,29.25 Q715.8047,28.5 716.1563,28.125 Q716.5078,27.75 716.9063,27.75 Q717.6094,27.75 718.0547,28.1719 Q718.5,28.5938 718.5,29.5781 L718.5,31.9219 Q718.5,32.9063 718.0781,33.3281 Q717.6563,33.75 717,33.75 Q716.4141,33.75 716.0391,33.4922 Q715.6641,33.2344 715.5,32.5547 Q715.4297,32.0859 715.1719,31.8281 Q714.7031,31.3359 713.8594,31.0547 Q713.0156,30.75 712.1719,30.75 Q711.1172,30.75 710.2266,31.1719 Q709.3594,31.5938 708.6797,32.5313 Q708,33.4688 708,34.7578 L708,36.1406 Q708,37.6875 709.2656,38.7188 Q710.5313,39.75 712.7813,39.75 Q714.1172,39.75 715.0547,39.4453 Q715.5938,39.2813 716.2031,38.7422 Q716.6016,38.4375 716.8125,38.3438 Q717.0234,38.25 717.2813,38.25 Q717.7734,38.25 718.125,38.6484 Q718.5,39.0234 718.5,39.5625 Q718.5,40.0781 717.9844,40.6875 Q717.2344,41.5781 716.0391,42.0703 Q714.4688,42.75 712.5469,42.75 Q710.2969,42.75 708.4922,41.8594 Q707.0391,41.1563 706.0078,39.6328 Q705,38.1094 705,36.3047 L705,34.6641 Q705,32.7891 705.8906,31.1484 Q706.8047,29.5078 708.375,28.6406 Q709.9688,27.75 711.75,27.75 Q712.8281,27.75 713.7656,28.125 Q714.7031,28.5 715.5,29.25 Z " fill="#000000"/><text fill="#000000" font-family="sans-serif" font-size="18" lengthAdjust="spacing" textLength="108" x="733.5" y="41.8652">ShipLocation</text><line style="stroke:#A80036;stroke-width:2.25;" x1="691.5" x2="844.5" y1="58.5" y2="58.5"/><text fill="#000000" font-family="sans-serif" font-size="16.5" lengthAdjust="spacing" textLength="108" x="699" y="81.6284">-baseDateTime</text><text fill="#000000" font-family="sans-serif" font-size="16.5" lengthAdjust="spacing" textLength="57" x="699" y="102.3823">-latitude</text><text fill="#000000" font-family="sans-serif" font-size="16.5" lengthAdjust="spacing" textLength="70.5" x="699" y="123.1362">-longitude</text><text fill="#000000" font-family="sans-serif" font-size="16.5" lengthAdjust="spacing" textLength="33" x="699" y="143.8901">-sog</text><text fill="#000000" font-family="sans-serif" font-size="16.5" lengthAdjust="spacing" textLength="33" x="699" y="164.644">-cog</text><text fill="#000000" font-family="sans-serif" font-size="16.5" lengthAdjust="spacing" textLength="63" x="699" y="185.3979">-heading</text><text fill="#000000" font-family="sans-serif" font-size="16.5" lengthAdjust="spacing" textLength="61.5" x="699" y="206.1519">-position</text><text fill="#000000" font-family="sans-serif" font-size="16.5" lengthAdjust="spacing" textLength="88.5" x="699" y="226.9058">-transceiver</text><!--MD5=[37a14a5de6d6fd738aee271300f4b5c8]
link Company to Ship--><path codeLine="71" d="M138.195,359.25 C181.065,359.25 239.01,359.25 288.87,359.25 " fill="none" id="Company-Ship" style="stroke:#A80036;stroke-width:1.5;"/><polygon fill="#000000" points="200.25,346.0137,186.6824,341.6053,186.6824,350.4221,200.25,346.0137" style="stroke:#000000;stroke-width:1.5;"/><text fill="#000000" font-family="sans-serif" font-size="19.5" lengthAdjust="spacing" textLength="34.5" x="206.25" y="353.9927">own</text><text fill="#000000" font-family="sans-serif" font-size="19.5" lengthAdjust="spacing" textLength="10.5" x="150.0879" y="381.6216">1</text><text fill="#000000" font-family="sans-serif" font-size="19.5" lengthAdjust="spacing" textLength="30" x="247.6803" y="380.6097">1..*</text><!--MD5=[683ea96df93176af8455607a7c1d2a32]
link Company to TrafficManager--><path codeLine="72" d="M123.375,318.645 C165.945,282.96 230.505,230.34 289.5,188.25 C301.365,179.79 314.28,171.18 326.85,163.08 " fill="none" id="Company-TrafficManager" style="stroke:#A80036;stroke-width:1.5;"/><polygon fill="#000000" points="196.4582,206.4584,183.0022,211.1968,188.3573,218.2011,196.4582,206.4584" style="stroke:#000000;stroke-width:1.5;"/><text fill="#000000" font-family="sans-serif" font-size="19.5" lengthAdjust="spacing" textLength="39" x="204" y="218.9927">have</text><text fill="#000000" font-family="sans-serif" font-size="19.5" lengthAdjust="spacing" textLength="10.5" x="123.5695" y="302.1595">1</text><text fill="#000000" font-family="sans-serif" font-size="19.5" lengthAdjust="spacing" textLength="30" x="278.6063" y="194.9638">1..*</text><!--MD5=[710b10ea314ec23c5eb602bd01bfa9d5]
link Company to Truck--><path codeLine="73" d="M121.395,399.9 C163.425,436.32 228.36,490.02 289.5,530.25 C308.175,542.535 329.835,554.43 348.57,564.03 " fill="none" id="Company-Truck" style="stroke:#A80036;stroke-width:1.5;"/><polygon fill="#000000" points="198.8293,444.9059,190.4134,433.3869,185.25,440.5336,198.8293,444.9059" style="stroke:#000000;stroke-width:1.5;"/><text fill="#000000" font-family="sans-serif" font-size="19.5" lengthAdjust="spacing" textLength="34.5" x="206.25" y="448.4927">own</text><text fill="#000000" font-family="sans-serif" font-size="19.5" lengthAdjust="spacing" textLength="10.5" x="120.0595" y="431.7445">1</text><text fill="#000000" font-family="sans-serif" font-size="19.5" lengthAdjust="spacing" textLength="30" x="306.8122" y="582.4701">1..*</text><!--MD5=[a27713cdd7694cea32c8be89a3131559]
link Containers to CargoManifest--><path codeLine="75" d="M841.68,581.25 C899.085,581.25 979.44,581.25 1039.41,581.25 " fill="none" id="Containers-CargoManifest" style="stroke:#A80036;stroke-width:1.5;"/><polygon fill="#000000" points="906,568.0137,892.4324,563.6053,892.4324,572.4221,906,568.0137" style="stroke:#000000;stroke-width:1.5;"/><text fill="#000000" font-family="sans-serif" font-size="19.5" lengthAdjust="spacing" textLength="81" x="912" y="575.9927">related to</text><text fill="#000000" font-family="sans-serif" font-size="19.5" lengthAdjust="spacing" textLength="30" x="853.5964" y="603.1375">1..*</text><text fill="#000000" font-family="sans-serif" font-size="19.5" lengthAdjust="spacing" textLength="30" x="997.3334" y="603.0023">1..*</text><!--MD5=[c7fc6f07f2489647d2a3f83969f89660]
link Containers to Ports--><path codeLine="76" d="M841.68,538.245 C912.39,496.14 1017.885,433.275 1077.255,397.92 " fill="none" id="Containers-Ports" style="stroke:#A80036;stroke-width:1.5;"/><polygon fill="#000000" points="923.6935,433.6755,909.7811,436.8315,914.2931,444.4062,923.6935,433.6755" style="stroke:#000000;stroke-width:1.5;"/><text fill="#000000" font-family="sans-serif" font-size="19.5" lengthAdjust="spacing" textLength="43.5" x="930.75" y="445.4927">store</text><text fill="#000000" font-family="sans-serif" font-size="19.5" lengthAdjust="spacing" textLength="30" x="853.5964" y="554.3537">0..*</text><text fill="#000000" font-family="sans-serif" font-size="19.5" lengthAdjust="spacing" textLength="10.5" x="1055.4905" y="426.6794">1</text><!--MD5=[40d84d2acc82335a7c6decf41782281a]
link Containers to Warehouse--><path codeLine="77" d="M841.68,617.805 C906.75,650.76 1001.28,698.625 1062.21,729.48 " fill="none" id="Containers-Warehouse" style="stroke:#A80036;stroke-width:1.5;"/><polygon fill="#000000" points="923.941,632.902,913.8284,622.8396,909.8453,630.7054,923.941,632.902" style="stroke:#000000;stroke-width:1.5;"/><text fill="#000000" font-family="sans-serif" font-size="19.5" lengthAdjust="spacing" textLength="43.5" x="930.75" y="637.4927">store</text><text fill="#000000" font-family="sans-serif" font-size="19.5" lengthAdjust="spacing" textLength="30" x="853.5964" y="644.6045">0..*</text><text fill="#000000" font-family="sans-serif" font-size="19.5" lengthAdjust="spacing" textLength="10.5" x="1032.1639" y="713.3833">1</text><!--MD5=[cff4e3c6ede03364cf99bd3378be6b6a]
link Ship to Containers--><path codeLine="79" d="M501.225,421.98 C562.935,459.03 639.51,505.005 694.485,538.02 " fill="none" id="Ship-Containers" style="stroke:#A80036;stroke-width:1.5;"/><polygon fill="#000000" points="559.93,439.8744,550.5674,429.1108,546.0287,436.6697,559.93,439.8744" style="stroke:#000000;stroke-width:1.5;"/><text fill="#000000" font-family="sans-serif" font-size="19.5" lengthAdjust="spacing" textLength="76.5" x="567" y="443.9927">transport</text><text fill="#000000" font-family="sans-serif" font-size="19.5" lengthAdjust="spacing" textLength="10.5" x="512.6951" y="449.9413">1</text><text fill="#000000" font-family="sans-serif" font-size="19.5" lengthAdjust="spacing" textLength="30" x="652.5908" y="554.0984">1..*</text><!--MD5=[b5e7d3b323f2cd13b2215620f50e65f3]
link Ship to Ports--><path codeLine="80" d="M501.045,360.975 C661.95,363.645 964.005,368.64 1077.435,370.515 " fill="none" id="Ship-Ports" style="stroke:#A80036;stroke-width:1.5;"/><polygon fill="#000000" points="750.749,352.1378,737.2562,347.5055,737.1102,356.321,750.749,352.1378" style="stroke:#000000;stroke-width:1.5;"/><text fill="#000000" font-family="sans-serif" font-size="19.5" lengthAdjust="spacing" textLength="42" x="756.75" y="359.9927">dock</text><text fill="#000000" font-family="sans-serif" font-size="19.5" lengthAdjust="spacing" textLength="30" x="512.9358" y="382.5803">0..*</text><text fill="#000000" font-family="sans-serif" font-size="19.5" lengthAdjust="spacing" textLength="10.5" x="1055.0684" y="393.4237">1</text><!--MD5=[5541ef512584d1243c10a7f3b3317e1c]
link Ship to ShipLocation--><path codeLine="81" d="M501.225,292.71 C561.225,254.49 635.28,207.33 689.88,172.56 " fill="none" id="Ship-ShipLocation" style="stroke:#A80036;stroke-width:1.5;"/><polygon fill="#000000" points="582.326,190.4848,568.5141,194.0548,573.2503,201.4914,582.326,190.4848" style="stroke:#000000;stroke-width:1.5;"/><text fill="#000000" font-family="sans-serif" font-size="19.5" lengthAdjust="spacing" textLength="31.5" x="589.5" y="202.4927">has</text><text fill="#000000" font-family="sans-serif" font-size="19.5" lengthAdjust="spacing" textLength="10.5" x="512.6951" y="307.3403">1</text><text fill="#000000" font-family="sans-serif" font-size="19.5" lengthAdjust="spacing" textLength="30" x="647.949" y="200.6578">1..*</text><!--MD5=[1acbea49718d4a103d0265f6d40a2097]
link TrafficManager to ShipLocation--><path codeLine="83" d="M480.195,122.595 C543.03,122.85 628.5,123.195 689.67,123.45 " fill="none" id="TrafficManager-ShipLocation" style="stroke:#A80036;stroke-width:1.5;"/><polygon fill="#000000" points="564.7499,110.5443,551.2004,106.0806,551.1644,114.8973,564.7499,110.5443" style="stroke:#000000;stroke-width:1.5;"/><text fill="#000000" font-family="sans-serif" font-size="19.5" lengthAdjust="spacing" textLength="69" x="570.75" y="118.4927">controls</text><text fill="#000000" font-family="sans-serif" font-size="19.5" lengthAdjust="spacing" textLength="10.5" x="491.7512" y="144.4689">1</text><text fill="#000000" font-family="sans-serif" font-size="19.5" lengthAdjust="spacing" textLength="30" x="647.7121" y="145.2556">1..*</text><!--MD5=[8cef3b8bb432fdc493768abc58cade76]
link Truck to Containers--><path codeLine="84" d="M442.095,585.21 C504.96,584.445 619.29,583.05 694.05,582.135 " fill="none" id="Truck-Containers" style="stroke:#A80036;stroke-width:1.5;"/><polygon fill="#000000" points="560.9994,569.4221,547.379,565.1797,547.4866,573.9958,560.9994,569.4221" style="stroke:#000000;stroke-width:1.5;"/><text fill="#000000" font-family="sans-serif" font-size="19.5" lengthAdjust="spacing" textLength="76.5" x="567" y="577.4927">transport</text><text fill="#000000" font-family="sans-serif" font-size="19.5" lengthAdjust="spacing" textLength="10.5" x="453.4908" y="608.0172">1</text><text fill="#000000" font-family="sans-serif" font-size="19.5" lengthAdjust="spacing" textLength="30" x="652.6533" y="604.0593">1..*</text><!--MD5=[668bfb6c3cf503ab645d5414a0ff2b4e]
link Truck to Warehouse--><path codeLine="85" d="M426.24,615.81 C475.56,663.675 580.23,755.325 690,789.75 C812.67,828.225 964.215,801.915 1051.32,780.21 " fill="none" id="Truck-Warehouse" style="stroke:#A80036;stroke-width:1.5;"/><polygon fill="#000000" points="752.7533,778.4213,740.7532,770.7069,738.5106,779.2337,752.7533,778.4213" style="stroke:#000000;stroke-width:1.5;"/><text fill="#000000" font-family="sans-serif" font-size="19.5" lengthAdjust="spacing" textLength="37.5" x="759" y="784.4927">park</text><text fill="#000000" font-family="sans-serif" font-size="19.5" lengthAdjust="spacing" textLength="30" x="400.7372" y="647.9562">0..*</text><text fill="#000000" font-family="sans-serif" font-size="19.5" lengthAdjust="spacing" textLength="10.5" x="1028.9635" y="805.4635">1</text><!--MD5=[16fd16d932322f836972f88246a86fbb]
@startuml
'https://plantuml.com/class-diagram

hide methods
left to right direction
skinparam classAttributeIconSize 0

class Company {
-designation
}

class TrafficManager {
-name
}

class Containers {
-x
-y
-z
-containerNumber
-checkDigit
-isoCode
-width
-height
-length
-payLoad
-tare
-gross
}

class CargoManifest {
-containerNumber
}

class Ship {
-mmsiCode
-name
-imoCode
-numberEnergyGenerators
-generatorPower
-callSign
-vesselType
-length
-width
-capacity
-draft
}

class Ports {

}

class Truck {

}

class Warehouse {

}

class ShipLocation {
-baseDateTime
-latitude
-longitude
-sog
-cog
-heading
-position
-transceiver
}

Company "1"- -"1..*" Ship: own >
Company "1"- -"1..*" TrafficManager: have >
Company "1"- -"1..*" Truck: own >

Containers "1..*"- -"1..*" CargoManifest: related to >
Containers "0..*"- -"1" Ports: store >
Containers "0..*"- -"1" Warehouse: store >

Ship "1"- -"1..*" Containers : transport >
Ship "0..*"- -"1" Ports: dock >
Ship "1" - - "1..*" ShipLocation : has >

TrafficManager "1" - - "1..*" ShipLocation : controls >
Truck "1"- -"1..*" Containers : transport >
Truck "0..*"- -"1" Warehouse: park >





@enduml

@startuml

hide methods
left to right direction
skinparam classAttributeIconSize 0

class Company {
-designation
}

class TrafficManager {
-name
}

class Containers {
-x
-y
-z
-containerNumber
-checkDigit
-isoCode
-width
-height
-length
-payLoad
-tare
-gross
}

class CargoManifest {
-containerNumber
}

class Ship {
-mmsiCode
-name
-imoCode
-numberEnergyGenerators
-generatorPower
-callSign
-vesselType
-length
-width
-capacity
-draft
}

class Ports {

}

class Truck {

}

class Warehouse {

}

class ShipLocation {
-baseDateTime
-latitude
-longitude
-sog
-cog
-heading
-position
-transceiver
}

Company "1"- -"1..*" Ship: own >
Company "1"- -"1..*" TrafficManager: have >
Company "1"- -"1..*" Truck: own >

Containers "1..*"- -"1..*" CargoManifest: related to >
Containers "0..*"- -"1" Ports: store >
Containers "0..*"- -"1" Warehouse: store >

Ship "1"- -"1..*" Containers : transport >
Ship "0..*"- -"1" Ports: dock >
Ship "1" - - "1..*" ShipLocation : has >

TrafficManager "1" - - "1..*" ShipLocation : controls >
Truck "1"- -"1..*" Containers : transport >
Truck "0..*"- -"1" Warehouse: park >





@enduml

PlantUML version 1.2021.5(Sun Apr 25 12:20:28 BST 2021)
(GPL source distribution)
Java Runtime: OpenJDK Runtime Environment
JVM: Dynamic Code Evolution 64-Bit Server VM
Default Encoding: Cp1252
Language: pt
Country: PT
--></g></svg>