<?xml version="1.0" encoding="UTF-8" standalone="no"?><svg xmlns="http://www.w3.org/2000/svg" xmlns:xlink="http://www.w3.org/1999/xlink" contentScriptType="application/ecmascript" contentStyleType="text/css" height="816px" preserveAspectRatio="none" style="width:2200px;height:816px;" version="1.1" viewBox="0 0 2200 816" width="2200.5px" zoomAndPan="magnify"><defs><filter height="300%" id="f87u4kdzi45p6" width="300%" x="-1" y="-1"><feGaussianBlur result="blurOut" stdDeviation="3.0"/><feColorMatrix in="blurOut" result="blurOut2" type="matrix" values="0 0 0 0 0 0 0 0 0 0 0 0 0 0 0 0 0 0 .4 0"/><feOffset dx="6.0" dy="6.0" in="blurOut2" result="blurOut3"/><feBlend in="SourceGraphic" in2="blurOut3" mode="normal"/></filter></defs><g><!--MD5=[02e4b9b7573f1156f41e60aa5b4e25a4]
class Company--><rect codeLine="7" fill="#FEFECE" filter="url(#f87u4kdzi45p6)" height="80.7539" id="Company" style="stroke:#A80036;stroke-width:2.25;" width="127.5" x="10.5" y="317.25"/><ellipse cx="33" cy="341.25" fill="#ADD1B2" rx="16.5" ry="16.5" style="stroke:#A80036;stroke-width:1.5;"/><path d="M36,336 Q36.3047,335.25 36.6563,334.875 Q37.0078,334.5 37.4063,334.5 Q38.1094,334.5 38.5547,334.9219 Q39,335.3438 39,336.3281 L39,338.6719 Q39,339.6563 38.5781,340.0781 Q38.1563,340.5 37.5,340.5 Q36.9141,340.5 36.5391,340.2422 Q36.1641,339.9844 36,339.3047 Q35.9297,338.8359 35.6719,338.5781 Q35.2031,338.0859 34.3594,337.8047 Q33.5156,337.5 32.6719,337.5 Q31.6172,337.5 30.7266,337.9219 Q29.8594,338.3438 29.1797,339.2813 Q28.5,340.2188 28.5,341.5078 L28.5,342.8906 Q28.5,344.4375 29.7656,345.4688 Q31.0313,346.5 33.2813,346.5 Q34.6172,346.5 35.5547,346.1953 Q36.0938,346.0313 36.7031,345.4922 Q37.1016,345.1875 37.3125,345.0938 Q37.5234,345 37.7813,345 Q38.2734,345 38.625,345.3984 Q39,345.7734 39,346.3125 Q39,346.8281 38.4844,347.4375 Q37.7344,348.3281 36.5391,348.8203 Q34.9688,349.5 33.0469,349.5 Q30.7969,349.5 28.9922,348.6094 Q27.5391,347.9063 26.5078,346.3828 Q25.5,344.8594 25.5,343.0547 L25.5,341.4141 Q25.5,339.5391 26.3906,337.8984 Q27.3047,336.2578 28.875,335.3906 Q30.4688,334.5 32.25,334.5 Q33.3281,334.5 34.2656,334.875 Q35.2031,335.25 36,336 Z " fill="#000000"/><text fill="#000000" font-family="sans-serif" font-size="18" lengthAdjust="spacing" textLength="79.5" x="54" y="348.6152">Company</text><line style="stroke:#A80036;stroke-width:2.25;" x1="12" x2="136.5" y1="365.25" y2="365.25"/><text fill="#000000" font-family="sans-serif" font-size="16.5" lengthAdjust="spacing" textLength="88.5" x="19.5" y="388.3784">-designation</text><!--MD5=[7421f545a0d8420c5bec41e74b387d9c]
class Employee--><rect codeLine="11" fill="#FEFECE" filter="url(#f87u4kdzi45p6)" height="80.7539" id="Employee" style="stroke:#A80036;stroke-width:2.25;" width="130.5" x="330" y="80.25"/><ellipse cx="352.5" cy="104.25" fill="#ADD1B2" rx="16.5" ry="16.5" style="stroke:#A80036;stroke-width:1.5;"/><path d="M355.5,99 Q355.8047,98.25 356.1563,97.875 Q356.5078,97.5 356.9063,97.5 Q357.6094,97.5 358.0547,97.9219 Q358.5,98.3438 358.5,99.3281 L358.5,101.6719 Q358.5,102.6563 358.0781,103.0781 Q357.6563,103.5 357,103.5 Q356.4141,103.5 356.0391,103.2422 Q355.6641,102.9844 355.5,102.3047 Q355.4297,101.8359 355.1719,101.5781 Q354.7031,101.0859 353.8594,100.8047 Q353.0156,100.5 352.1719,100.5 Q351.1172,100.5 350.2266,100.9219 Q349.3594,101.3438 348.6797,102.2813 Q348,103.2188 348,104.5078 L348,105.8906 Q348,107.4375 349.2656,108.4688 Q350.5313,109.5 352.7813,109.5 Q354.1172,109.5 355.0547,109.1953 Q355.5938,109.0313 356.2031,108.4922 Q356.6016,108.1875 356.8125,108.0938 Q357.0234,108 357.2813,108 Q357.7734,108 358.125,108.3984 Q358.5,108.7734 358.5,109.3125 Q358.5,109.8281 357.9844,110.4375 Q357.2344,111.3281 356.0391,111.8203 Q354.4688,112.5 352.5469,112.5 Q350.2969,112.5 348.4922,111.6094 Q347.0391,110.9063 346.0078,109.3828 Q345,107.8594 345,106.0547 L345,104.4141 Q345,102.5391 345.8906,100.8984 Q346.8047,99.2578 348.375,98.3906 Q349.9688,97.5 351.75,97.5 Q352.8281,97.5 353.7656,97.875 Q354.7031,98.25 355.5,99 Z " fill="#000000"/><text fill="#000000" font-family="sans-serif" font-size="18" lengthAdjust="spacing" textLength="82.5" x="373.5" y="111.6152">Employee</text><line style="stroke:#A80036;stroke-width:2.25;" x1="331.5" x2="459" y1="128.25" y2="128.25"/><text fill="#000000" font-family="sans-serif" font-size="16.5" lengthAdjust="spacing" textLength="45" x="339" y="151.3784">-name</text><!--MD5=[a3093aa9f96b7df9aab31d8715601ff6]
class Containers--><rect codeLine="15" fill="#FEFECE" filter="url(#f87u4kdzi45p6)" height="309.0469" id="Containers" style="stroke:#A80036;stroke-width:2.25;" width="147" x="694.5" y="423.75"/><ellipse cx="720.375" cy="447.75" fill="#ADD1B2" rx="16.5" ry="16.5" style="stroke:#A80036;stroke-width:1.5;"/><path d="M723.375,442.5 Q723.6797,441.75 724.0313,441.375 Q724.3828,441 724.7813,441 Q725.4844,441 725.9297,441.4219 Q726.375,441.8438 726.375,442.8281 L726.375,445.1719 Q726.375,446.1563 725.9531,446.5781 Q725.5313,447 724.875,447 Q724.2891,447 723.9141,446.7422 Q723.5391,446.4844 723.375,445.8047 Q723.3047,445.3359 723.0469,445.0781 Q722.5781,444.5859 721.7344,444.3047 Q720.8906,444 720.0469,444 Q718.9922,444 718.1016,444.4219 Q717.2344,444.8438 716.5547,445.7813 Q715.875,446.7188 715.875,448.0078 L715.875,449.3906 Q715.875,450.9375 717.1406,451.9688 Q718.4063,453 720.6563,453 Q721.9922,453 722.9297,452.6953 Q723.4688,452.5313 724.0781,451.9922 Q724.4766,451.6875 724.6875,451.5938 Q724.8984,451.5 725.1563,451.5 Q725.6484,451.5 726,451.8984 Q726.375,452.2734 726.375,452.8125 Q726.375,453.3281 725.8594,453.9375 Q725.1094,454.8281 723.9141,455.3203 Q722.3438,456 720.4219,456 Q718.1719,456 716.3672,455.1094 Q714.9141,454.4063 713.8828,452.8828 Q712.875,451.3594 712.875,449.5547 L712.875,447.9141 Q712.875,446.0391 713.7656,444.3984 Q714.6797,442.7578 716.25,441.8906 Q717.8438,441 719.625,441 Q720.7031,441 721.6406,441.375 Q722.5781,441.75 723.375,442.5 Z " fill="#000000"/><text fill="#000000" font-family="sans-serif" font-size="18" lengthAdjust="spacing" textLength="91.5" x="742.125" y="455.1152">Containers</text><line style="stroke:#A80036;stroke-width:2.25;" x1="696" x2="840" y1="471.75" y2="471.75"/><text fill="#000000" font-family="sans-serif" font-size="16.5" lengthAdjust="spacing" textLength="15" x="703.5" y="494.8784">-x</text><text fill="#000000" font-family="sans-serif" font-size="16.5" lengthAdjust="spacing" textLength="15" x="703.5" y="515.6323">-y</text><text fill="#000000" font-family="sans-serif" font-size="16.5" lengthAdjust="spacing" textLength="15" x="703.5" y="536.3862">-z</text><text fill="#000000" font-family="sans-serif" font-size="16.5" lengthAdjust="spacing" textLength="129" x="703.5" y="557.1401">-containerNumber</text><text fill="#000000" font-family="sans-serif" font-size="16.5" lengthAdjust="spacing" textLength="79.5" x="703.5" y="577.894">-checkDigit</text><text fill="#000000" font-family="sans-serif" font-size="16.5" lengthAdjust="spacing" textLength="64.5" x="703.5" y="598.6479">-isoCode</text><text fill="#000000" font-family="sans-serif" font-size="16.5" lengthAdjust="spacing" textLength="46.5" x="703.5" y="619.4019">-width</text><text fill="#000000" font-family="sans-serif" font-size="16.5" lengthAdjust="spacing" textLength="49.5" x="703.5" y="640.1558">-height</text><text fill="#000000" font-family="sans-serif" font-size="16.5" lengthAdjust="spacing" textLength="49.5" x="703.5" y="660.9097">-length</text><text fill="#000000" font-family="sans-serif" font-size="16.5" lengthAdjust="spacing" textLength="69" x="703.5" y="681.6636">-payLoad</text><text fill="#000000" font-family="sans-serif" font-size="16.5" lengthAdjust="spacing" textLength="34.5" x="703.5" y="702.4175">-tare</text><text fill="#000000" font-family="sans-serif" font-size="16.5" lengthAdjust="spacing" textLength="48" x="703.5" y="723.1714">-gross</text><!--MD5=[76562047389981627aea27c31a97aff5]
class CargoManifest--><rect codeLine="30" fill="#FEFECE" filter="url(#f87u4kdzi45p6)" height="80.7539" id="CargoManifest" style="stroke:#A80036;stroke-width:2.25;" width="168" x="1039.5" y="537.75"/><ellipse cx="1062" cy="561.75" fill="#ADD1B2" rx="16.5" ry="16.5" style="stroke:#A80036;stroke-width:1.5;"/><path d="M1065,556.5 Q1065.3047,555.75 1065.6563,555.375 Q1066.0078,555 1066.4063,555 Q1067.1094,555 1067.5547,555.4219 Q1068,555.8438 1068,556.8281 L1068,559.1719 Q1068,560.1563 1067.5781,560.5781 Q1067.1563,561 1066.5,561 Q1065.9141,561 1065.5391,560.7422 Q1065.1641,560.4844 1065,559.8047 Q1064.9297,559.3359 1064.6719,559.0781 Q1064.2031,558.5859 1063.3594,558.3047 Q1062.5156,558 1061.6719,558 Q1060.6172,558 1059.7266,558.4219 Q1058.8594,558.8438 1058.1797,559.7813 Q1057.5,560.7188 1057.5,562.0078 L1057.5,563.3906 Q1057.5,564.9375 1058.7656,565.9688 Q1060.0313,567 1062.2813,567 Q1063.6172,567 1064.5547,566.6953 Q1065.0938,566.5313 1065.7031,565.9922 Q1066.1016,565.6875 1066.3125,565.5938 Q1066.5234,565.5 1066.7813,565.5 Q1067.2734,565.5 1067.625,565.8984 Q1068,566.2734 1068,566.8125 Q1068,567.3281 1067.4844,567.9375 Q1066.7344,568.8281 1065.5391,569.3203 Q1063.9688,570 1062.0469,570 Q1059.7969,570 1057.9922,569.1094 Q1056.5391,568.4063 1055.5078,566.8828 Q1054.5,565.3594 1054.5,563.5547 L1054.5,561.9141 Q1054.5,560.0391 1055.3906,558.3984 Q1056.3047,556.7578 1057.875,555.8906 Q1059.4688,555 1061.25,555 Q1062.3281,555 1063.2656,555.375 Q1064.2031,555.75 1065,556.5 Z " fill="#000000"/><text fill="#000000" font-family="sans-serif" font-size="18" lengthAdjust="spacing" textLength="120" x="1083" y="569.1152">CargoManifest</text><line style="stroke:#A80036;stroke-width:2.25;" x1="1041" x2="1206" y1="585.75" y2="585.75"/><text fill="#000000" font-family="sans-serif" font-size="16.5" lengthAdjust="spacing" textLength="129" x="1048.5" y="608.8784">-containerNumber</text><!--MD5=[0dc7f2ddb409b58bcf52b12238c25399]
class Ship--><rect codeLine="34" fill="#FEFECE" filter="url(#f87u4kdzi45p6)" height="288.293" id="Ship" style="stroke:#A80036;stroke-width:2.25;" width="211.5" x="289.5" y="213.75"/><ellipse cx="370.125" cy="237.75" fill="#ADD1B2" rx="16.5" ry="16.5" style="stroke:#A80036;stroke-width:1.5;"/><path d="M373.125,232.5 Q373.4297,231.75 373.7813,231.375 Q374.1328,231 374.5313,231 Q375.2344,231 375.6797,231.4219 Q376.125,231.8438 376.125,232.8281 L376.125,235.1719 Q376.125,236.1563 375.7031,236.5781 Q375.2813,237 374.625,237 Q374.0391,237 373.6641,236.7422 Q373.2891,236.4844 373.125,235.8047 Q373.0547,235.3359 372.7969,235.0781 Q372.3281,234.5859 371.4844,234.3047 Q370.6406,234 369.7969,234 Q368.7422,234 367.8516,234.4219 Q366.9844,234.8438 366.3047,235.7813 Q365.625,236.7188 365.625,238.0078 L365.625,239.3906 Q365.625,240.9375 366.8906,241.9688 Q368.1563,243 370.4063,243 Q371.7422,243 372.6797,242.6953 Q373.2188,242.5313 373.8281,241.9922 Q374.2266,241.6875 374.4375,241.5938 Q374.6484,241.5 374.9063,241.5 Q375.3984,241.5 375.75,241.8984 Q376.125,242.2734 376.125,242.8125 Q376.125,243.3281 375.6094,243.9375 Q374.8594,244.8281 373.6641,245.3203 Q372.0938,246 370.1719,246 Q367.9219,246 366.1172,245.1094 Q364.6641,244.4063 363.6328,242.8828 Q362.625,241.3594 362.625,239.5547 L362.625,237.9141 Q362.625,236.0391 363.5156,234.3984 Q364.4297,232.7578 366,231.8906 Q367.5938,231 369.375,231 Q370.4531,231 371.3906,231.375 Q372.3281,231.75 373.125,232.5 Z " fill="#000000"/><text fill="#000000" font-family="sans-serif" font-size="18" lengthAdjust="spacing" textLength="37.5" x="400.875" y="245.1152">Ship</text><line style="stroke:#A80036;stroke-width:2.25;" x1="291" x2="499.5" y1="261.75" y2="261.75"/><text fill="#000000" font-family="sans-serif" font-size="16.5" lengthAdjust="spacing" textLength="79.5" x="298.5" y="284.8784">-mmsiCode</text><text fill="#000000" font-family="sans-serif" font-size="16.5" lengthAdjust="spacing" textLength="45" x="298.5" y="305.6323">-name</text><text fill="#000000" font-family="sans-serif" font-size="16.5" lengthAdjust="spacing" textLength="67.5" x="298.5" y="326.3862">-imoCode</text><text fill="#000000" font-family="sans-serif" font-size="16.5" lengthAdjust="spacing" textLength="193.5" x="298.5" y="347.1401">-numberEnergyGenerators</text><text fill="#000000" font-family="sans-serif" font-size="16.5" lengthAdjust="spacing" textLength="124.5" x="298.5" y="367.894">-generatorPower</text><text fill="#000000" font-family="sans-serif" font-size="16.5" lengthAdjust="spacing" textLength="61.5" x="298.5" y="388.6479">-callSign</text><text fill="#000000" font-family="sans-serif" font-size="16.5" lengthAdjust="spacing" textLength="90" x="298.5" y="409.4019">-vesselType</text><text fill="#000000" font-family="sans-serif" font-size="16.5" lengthAdjust="spacing" textLength="49.5" x="298.5" y="430.1558">-length</text><text fill="#000000" font-family="sans-serif" font-size="16.5" lengthAdjust="spacing" textLength="46.5" x="298.5" y="450.9097">-width</text><text fill="#000000" font-family="sans-serif" font-size="16.5" lengthAdjust="spacing" textLength="67.5" x="298.5" y="471.6636">-capacity</text><text fill="#000000" font-family="sans-serif" font-size="16.5" lengthAdjust="spacing" textLength="40.5" x="298.5" y="492.4175">-draft</text><!--MD5=[ea13aecf8df941b18fb8e3885c78c184]
class Ports--><rect codeLine="48" fill="#FEFECE" filter="url(#f87u4kdzi45p6)" height="101.5078" id="Ports" style="stroke:#A80036;stroke-width:2.25;" width="114" x="1432.5" y="416.25"/><ellipse cx="1465.125" cy="440.25" fill="#ADD1B2" rx="16.5" ry="16.5" style="stroke:#A80036;stroke-width:1.5;"/><path d="M1468.125,435 Q1468.4297,434.25 1468.7813,433.875 Q1469.1328,433.5 1469.5313,433.5 Q1470.2344,433.5 1470.6797,433.9219 Q1471.125,434.3438 1471.125,435.3281 L1471.125,437.6719 Q1471.125,438.6563 1470.7031,439.0781 Q1470.2813,439.5 1469.625,439.5 Q1469.0391,439.5 1468.6641,439.2422 Q1468.2891,438.9844 1468.125,438.3047 Q1468.0547,437.8359 1467.7969,437.5781 Q1467.3281,437.0859 1466.4844,436.8047 Q1465.6406,436.5 1464.7969,436.5 Q1463.7422,436.5 1462.8516,436.9219 Q1461.9844,437.3438 1461.3047,438.2813 Q1460.625,439.2188 1460.625,440.5078 L1460.625,441.8906 Q1460.625,443.4375 1461.8906,444.4688 Q1463.1563,445.5 1465.4063,445.5 Q1466.7422,445.5 1467.6797,445.1953 Q1468.2188,445.0313 1468.8281,444.4922 Q1469.2266,444.1875 1469.4375,444.0938 Q1469.6484,444 1469.9063,444 Q1470.3984,444 1470.75,444.3984 Q1471.125,444.7734 1471.125,445.3125 Q1471.125,445.8281 1470.6094,446.4375 Q1469.8594,447.3281 1468.6641,447.8203 Q1467.0938,448.5 1465.1719,448.5 Q1462.9219,448.5 1461.1172,447.6094 Q1459.6641,446.9063 1458.6328,445.3828 Q1457.625,443.8594 1457.625,442.0547 L1457.625,440.4141 Q1457.625,438.5391 1458.5156,436.8984 Q1459.4297,435.2578 1461,434.3906 Q1462.5938,433.5 1464.375,433.5 Q1465.4531,433.5 1466.3906,433.875 Q1467.3281,434.25 1468.125,435 Z " fill="#000000"/><text fill="#000000" font-family="sans-serif" font-size="18" lengthAdjust="spacing" textLength="43.5" x="1488.375" y="447.6152">Ports</text><line style="stroke:#A80036;stroke-width:2.25;" x1="1434" x2="1545" y1="464.25" y2="464.25"/><text fill="#000000" font-family="sans-serif" font-size="16.5" lengthAdjust="spacing" textLength="96" x="1441.5" y="487.3784">-identification</text><text fill="#000000" font-family="sans-serif" font-size="16.5" lengthAdjust="spacing" textLength="45" x="1441.5" y="508.1323">-name</text><!--MD5=[f2ba7f6ab60af8dd0d3e354f91729b14]
class Truck--><rect codeLine="53" fill="#FEFECE" filter="url(#f87u4kdzi45p6)" height="60" id="Truck" style="stroke:#A80036;stroke-width:2.25;" width="93" x="348.75" y="554.25"/><ellipse cx="371.25" cy="578.25" fill="#ADD1B2" rx="16.5" ry="16.5" style="stroke:#A80036;stroke-width:1.5;"/><path d="M374.25,573 Q374.5547,572.25 374.9063,571.875 Q375.2578,571.5 375.6563,571.5 Q376.3594,571.5 376.8047,571.9219 Q377.25,572.3438 377.25,573.3281 L377.25,575.6719 Q377.25,576.6563 376.8281,577.0781 Q376.4063,577.5 375.75,577.5 Q375.1641,577.5 374.7891,577.2422 Q374.4141,576.9844 374.25,576.3047 Q374.1797,575.8359 373.9219,575.5781 Q373.4531,575.0859 372.6094,574.8047 Q371.7656,574.5 370.9219,574.5 Q369.8672,574.5 368.9766,574.9219 Q368.1094,575.3438 367.4297,576.2813 Q366.75,577.2188 366.75,578.5078 L366.75,579.8906 Q366.75,581.4375 368.0156,582.4688 Q369.2813,583.5 371.5313,583.5 Q372.8672,583.5 373.8047,583.1953 Q374.3438,583.0313 374.9531,582.4922 Q375.3516,582.1875 375.5625,582.0938 Q375.7734,582 376.0313,582 Q376.5234,582 376.875,582.3984 Q377.25,582.7734 377.25,583.3125 Q377.25,583.8281 376.7344,584.4375 Q375.9844,585.3281 374.7891,585.8203 Q373.2188,586.5 371.2969,586.5 Q369.0469,586.5 367.2422,585.6094 Q365.7891,584.9063 364.7578,583.3828 Q363.75,581.8594 363.75,580.0547 L363.75,578.4141 Q363.75,576.5391 364.6406,574.8984 Q365.5547,573.2578 367.125,572.3906 Q368.7188,571.5 370.5,571.5 Q371.5781,571.5 372.5156,571.875 Q373.4531,572.25 374.25,573 Z " fill="#000000"/><text fill="#000000" font-family="sans-serif" font-size="18" lengthAdjust="spacing" textLength="45" x="392.25" y="585.6152">Truck</text><line style="stroke:#A80036;stroke-width:2.25;" x1="350.25" x2="440.25" y1="602.25" y2="602.25"/><!--MD5=[c5149b4909ffd2688ff51a939867f774]
class Warehouse--><rect codeLine="57" fill="#FEFECE" filter="url(#f87u4kdzi45p6)" height="101.5078" id="Warehouse" style="stroke:#A80036;stroke-width:2.25;" width="144" x="1417.5" y="579.75"/><ellipse cx="1440" cy="603.75" fill="#ADD1B2" rx="16.5" ry="16.5" style="stroke:#A80036;stroke-width:1.5;"/><path d="M1443,598.5 Q1443.3047,597.75 1443.6563,597.375 Q1444.0078,597 1444.4063,597 Q1445.1094,597 1445.5547,597.4219 Q1446,597.8438 1446,598.8281 L1446,601.1719 Q1446,602.1563 1445.5781,602.5781 Q1445.1563,603 1444.5,603 Q1443.9141,603 1443.5391,602.7422 Q1443.1641,602.4844 1443,601.8047 Q1442.9297,601.3359 1442.6719,601.0781 Q1442.2031,600.5859 1441.3594,600.3047 Q1440.5156,600 1439.6719,600 Q1438.6172,600 1437.7266,600.4219 Q1436.8594,600.8438 1436.1797,601.7813 Q1435.5,602.7188 1435.5,604.0078 L1435.5,605.3906 Q1435.5,606.9375 1436.7656,607.9688 Q1438.0313,609 1440.2813,609 Q1441.6172,609 1442.5547,608.6953 Q1443.0938,608.5313 1443.7031,607.9922 Q1444.1016,607.6875 1444.3125,607.5938 Q1444.5234,607.5 1444.7813,607.5 Q1445.2734,607.5 1445.625,607.8984 Q1446,608.2734 1446,608.8125 Q1446,609.3281 1445.4844,609.9375 Q1444.7344,610.8281 1443.5391,611.3203 Q1441.9688,612 1440.0469,612 Q1437.7969,612 1435.9922,611.1094 Q1434.5391,610.4063 1433.5078,608.8828 Q1432.5,607.3594 1432.5,605.5547 L1432.5,603.9141 Q1432.5,602.0391 1433.3906,600.3984 Q1434.3047,598.7578 1435.875,597.8906 Q1437.4688,597 1439.25,597 Q1440.3281,597 1441.2656,597.375 Q1442.2031,597.75 1443,598.5 Z " fill="#000000"/><text fill="#000000" font-family="sans-serif" font-size="18" lengthAdjust="spacing" textLength="96" x="1461" y="611.1152">Warehouse</text><line style="stroke:#A80036;stroke-width:2.25;" x1="1419" x2="1560" y1="627.75" y2="627.75"/><text fill="#000000" font-family="sans-serif" font-size="16.5" lengthAdjust="spacing" textLength="96" x="1426.5" y="650.8784">-identification</text><text fill="#000000" font-family="sans-serif" font-size="16.5" lengthAdjust="spacing" textLength="45" x="1426.5" y="671.6323">-name</text><!--MD5=[deb4e1f6eb1e3c1256fdb830f96abfbb]
class Country--><rect codeLine="62" fill="#FEFECE" filter="url(#f87u4kdzi45p6)" height="101.5078" id="Country" style="stroke:#A80036;stroke-width:2.25;" width="111" x="2068.5" y="503.25"/><ellipse cx="2091" cy="527.25" fill="#ADD1B2" rx="16.5" ry="16.5" style="stroke:#A80036;stroke-width:1.5;"/><path d="M2094,522 Q2094.3047,521.25 2094.6563,520.875 Q2095.0078,520.5 2095.4063,520.5 Q2096.1094,520.5 2096.5547,520.9219 Q2097,521.3438 2097,522.3281 L2097,524.6719 Q2097,525.6563 2096.5781,526.0781 Q2096.1563,526.5 2095.5,526.5 Q2094.9141,526.5 2094.5391,526.2422 Q2094.1641,525.9844 2094,525.3047 Q2093.9297,524.8359 2093.6719,524.5781 Q2093.2031,524.0859 2092.3594,523.8047 Q2091.5156,523.5 2090.6719,523.5 Q2089.6172,523.5 2088.7266,523.9219 Q2087.8594,524.3438 2087.1797,525.2813 Q2086.5,526.2188 2086.5,527.5078 L2086.5,528.8906 Q2086.5,530.4375 2087.7656,531.4688 Q2089.0313,532.5 2091.2813,532.5 Q2092.6172,532.5 2093.5547,532.1953 Q2094.0938,532.0313 2094.7031,531.4922 Q2095.1016,531.1875 2095.3125,531.0938 Q2095.5234,531 2095.7813,531 Q2096.2734,531 2096.625,531.3984 Q2097,531.7734 2097,532.3125 Q2097,532.8281 2096.4844,533.4375 Q2095.7344,534.3281 2094.5391,534.8203 Q2092.9688,535.5 2091.0469,535.5 Q2088.7969,535.5 2086.9922,534.6094 Q2085.5391,533.9063 2084.5078,532.3828 Q2083.5,530.8594 2083.5,529.0547 L2083.5,527.4141 Q2083.5,525.5391 2084.3906,523.8984 Q2085.3047,522.2578 2086.875,521.3906 Q2088.4688,520.5 2090.25,520.5 Q2091.3281,520.5 2092.2656,520.875 Q2093.2031,521.25 2094,522 Z " fill="#000000"/><text fill="#000000" font-family="sans-serif" font-size="18" lengthAdjust="spacing" textLength="63" x="2112" y="534.6152">Country</text><line style="stroke:#A80036;stroke-width:2.25;" x1="2070" x2="2178" y1="551.25" y2="551.25"/><text fill="#000000" font-family="sans-serif" font-size="16.5" lengthAdjust="spacing" textLength="45" x="2077.5" y="574.3784">-name</text><text fill="#000000" font-family="sans-serif" font-size="16.5" lengthAdjust="spacing" textLength="72" x="2077.5" y="595.1323">-continent</text><!--MD5=[9febfb2ff9adfe183e01ff702b9c1c02]
class PlaceLocation--><rect codeLine="67" fill="#FEFECE" filter="url(#f87u4kdzi45p6)" height="101.5078" id="PlaceLocation" style="stroke:#A80036;stroke-width:2.25;" width="165" x="1759.5" y="503.25"/><ellipse cx="1782" cy="527.25" fill="#ADD1B2" rx="16.5" ry="16.5" style="stroke:#A80036;stroke-width:1.5;"/><path d="M1785,522 Q1785.3047,521.25 1785.6563,520.875 Q1786.0078,520.5 1786.4063,520.5 Q1787.1094,520.5 1787.5547,520.9219 Q1788,521.3438 1788,522.3281 L1788,524.6719 Q1788,525.6563 1787.5781,526.0781 Q1787.1563,526.5 1786.5,526.5 Q1785.9141,526.5 1785.5391,526.2422 Q1785.1641,525.9844 1785,525.3047 Q1784.9297,524.8359 1784.6719,524.5781 Q1784.2031,524.0859 1783.3594,523.8047 Q1782.5156,523.5 1781.6719,523.5 Q1780.6172,523.5 1779.7266,523.9219 Q1778.8594,524.3438 1778.1797,525.2813 Q1777.5,526.2188 1777.5,527.5078 L1777.5,528.8906 Q1777.5,530.4375 1778.7656,531.4688 Q1780.0313,532.5 1782.2813,532.5 Q1783.6172,532.5 1784.5547,532.1953 Q1785.0938,532.0313 1785.7031,531.4922 Q1786.1016,531.1875 1786.3125,531.0938 Q1786.5234,531 1786.7813,531 Q1787.2734,531 1787.625,531.3984 Q1788,531.7734 1788,532.3125 Q1788,532.8281 1787.4844,533.4375 Q1786.7344,534.3281 1785.5391,534.8203 Q1783.9688,535.5 1782.0469,535.5 Q1779.7969,535.5 1777.9922,534.6094 Q1776.5391,533.9063 1775.5078,532.3828 Q1774.5,530.8594 1774.5,529.0547 L1774.5,527.4141 Q1774.5,525.5391 1775.3906,523.8984 Q1776.3047,522.2578 1777.875,521.3906 Q1779.4688,520.5 1781.25,520.5 Q1782.3281,520.5 1783.2656,520.875 Q1784.2031,521.25 1785,522 Z " fill="#000000"/><text fill="#000000" font-family="sans-serif" font-size="18" lengthAdjust="spacing" textLength="117" x="1803" y="534.6152">PlaceLocation</text><line style="stroke:#A80036;stroke-width:2.25;" x1="1761" x2="1923" y1="551.25" y2="551.25"/><text fill="#000000" font-family="sans-serif" font-size="16.5" lengthAdjust="spacing" textLength="57" x="1768.5" y="574.3784">-latitude</text><text fill="#000000" font-family="sans-serif" font-size="16.5" lengthAdjust="spacing" textLength="70.5" x="1768.5" y="595.1323">-longitude</text><!--MD5=[efa7c3600894dd6faaa8b816738c33b1]
class ShipLocation--><rect codeLine="72" fill="#FEFECE" filter="url(#f87u4kdzi45p6)" height="226.0313" id="ShipLocation" style="stroke:#A80036;stroke-width:2.25;" width="156" x="690" y="10.5"/><ellipse cx="712.5" cy="34.5" fill="#ADD1B2" rx="16.5" ry="16.5" style="stroke:#A80036;stroke-width:1.5;"/><path d="M715.5,29.25 Q715.8047,28.5 716.1563,28.125 Q716.5078,27.75 716.9063,27.75 Q717.6094,27.75 718.0547,28.1719 Q718.5,28.5938 718.5,29.5781 L718.5,31.9219 Q718.5,32.9063 718.0781,33.3281 Q717.6563,33.75 717,33.75 Q716.4141,33.75 716.0391,33.4922 Q715.6641,33.2344 715.5,32.5547 Q715.4297,32.0859 715.1719,31.8281 Q714.7031,31.3359 713.8594,31.0547 Q713.0156,30.75 712.1719,30.75 Q711.1172,30.75 710.2266,31.1719 Q709.3594,31.5938 708.6797,32.5313 Q708,33.4688 708,34.7578 L708,36.1406 Q708,37.6875 709.2656,38.7188 Q710.5313,39.75 712.7813,39.75 Q714.1172,39.75 715.0547,39.4453 Q715.5938,39.2813 716.2031,38.7422 Q716.6016,38.4375 716.8125,38.3438 Q717.0234,38.25 717.2813,38.25 Q717.7734,38.25 718.125,38.6484 Q718.5,39.0234 718.5,39.5625 Q718.5,40.0781 717.9844,40.6875 Q717.2344,41.5781 716.0391,42.0703 Q714.4688,42.75 712.5469,42.75 Q710.2969,42.75 708.4922,41.8594 Q707.0391,41.1563 706.0078,39.6328 Q705,38.1094 705,36.3047 L705,34.6641 Q705,32.7891 705.8906,31.1484 Q706.8047,29.5078 708.375,28.6406 Q709.9688,27.75 711.75,27.75 Q712.8281,27.75 713.7656,28.125 Q714.7031,28.5 715.5,29.25 Z " fill="#000000"/><text fill="#000000" font-family="sans-serif" font-size="18" lengthAdjust="spacing" textLength="108" x="733.5" y="41.8652">ShipLocation</text><line style="stroke:#A80036;stroke-width:2.25;" x1="691.5" x2="844.5" y1="58.5" y2="58.5"/><text fill="#000000" font-family="sans-serif" font-size="16.5" lengthAdjust="spacing" textLength="108" x="699" y="81.6284">-baseDateTime</text><text fill="#000000" font-family="sans-serif" font-size="16.5" lengthAdjust="spacing" textLength="57" x="699" y="102.3823">-latitude</text><text fill="#000000" font-family="sans-serif" font-size="16.5" lengthAdjust="spacing" textLength="70.5" x="699" y="123.1362">-longitude</text><text fill="#000000" font-family="sans-serif" font-size="16.5" lengthAdjust="spacing" textLength="33" x="699" y="143.8901">-sog</text><text fill="#000000" font-family="sans-serif" font-size="16.5" lengthAdjust="spacing" textLength="33" x="699" y="164.644">-cog</text><text fill="#000000" font-family="sans-serif" font-size="16.5" lengthAdjust="spacing" textLength="63" x="699" y="185.3979">-heading</text><text fill="#000000" font-family="sans-serif" font-size="16.5" lengthAdjust="spacing" textLength="61.5" x="699" y="206.1519">-position</text><text fill="#000000" font-family="sans-serif" font-size="16.5" lengthAdjust="spacing" textLength="88.5" x="699" y="226.9058">-transceiver</text><!--MD5=[d729e47c8b99010fceb84b610067730f]
link CargoManifest to Ports--><path codeLine="83" d="M1207.83,552.93 C1276.455,531.945 1372.14,502.68 1432.05,484.365 " fill="none" id="CargoManifest-Ports" style="stroke:#A80036;stroke-width:1.5;"/><polygon fill="#000000" points="1267.1722,486.3205,1252.9085,486.0723,1255.4867,494.5037,1267.1722,486.3205" style="stroke:#000000;stroke-width:1.5;"/><text fill="#000000" font-family="sans-serif" font-size="19.5" lengthAdjust="spacing" textLength="97.5" x="1273.5" y="496.4927">delivered at</text><text fill="#000000" font-family="sans-serif" font-size="19.5" lengthAdjust="spacing" textLength="7.5" x="1219.6658" y="571.4348">*</text><text fill="#000000" font-family="sans-serif" font-size="19.5" lengthAdjust="spacing" textLength="30" x="1390.5033" y="509.3291">1..*</text><!--MD5=[1007fce2994c0804f23855fbfd3e6bbd]
link CargoManifest to Warehouse--><path codeLine="84" d="M1207.83,590.235 C1271.025,599.37 1357.14,611.82 1417.155,620.505 " fill="none" id="CargoManifest-Warehouse" style="stroke:#A80036;stroke-width:1.5;"/><polygon fill="#000000" points="1267.4228,584.0871,1254.6258,577.7823,1253.3639,586.5083,1267.4228,584.0871" style="stroke:#000000;stroke-width:1.5;"/><text fill="#000000" font-family="sans-serif" font-size="19.5" lengthAdjust="spacing" textLength="97.5" x="1273.5" y="590.9927">delivered at</text><text fill="#000000" font-family="sans-serif" font-size="19.5" lengthAdjust="spacing" textLength="7.5" x="1219.6658" y="613.7526">*</text><text fill="#000000" font-family="sans-serif" font-size="19.5" lengthAdjust="spacing" textLength="30" x="1375.418" y="641.052">1..*</text><!--MD5=[37a14a5de6d6fd738aee271300f4b5c8]
link Company to Ship--><path codeLine="86" d="M138.195,357.75 C181.065,357.75 239.01,357.75 288.87,357.75 " fill="none" id="Company-Ship" style="stroke:#A80036;stroke-width:1.5;"/><polygon fill="#000000" points="200.25,344.5137,186.6824,340.1053,186.6824,348.9221,200.25,344.5137" style="stroke:#000000;stroke-width:1.5;"/><text fill="#000000" font-family="sans-serif" font-size="19.5" lengthAdjust="spacing" textLength="34.5" x="206.25" y="352.4927">own</text><text fill="#000000" font-family="sans-serif" font-size="19.5" lengthAdjust="spacing" textLength="10.5" x="150.0879" y="380.1216">1</text><text fill="#000000" font-family="sans-serif" font-size="19.5" lengthAdjust="spacing" textLength="30" x="247.6803" y="379.1097">1..*</text><!--MD5=[09366576ee87d48d594df10cacc83f45]
link Company to Employee--><path codeLine="87" d="M123.375,317.13 C165.945,281.46 230.505,228.84 289.5,186.75 C302.235,177.675 316.185,168.405 329.61,159.795 " fill="none" id="Company-Employee" style="stroke:#A80036;stroke-width:1.5;"/><polygon fill="#000000" points="196.4629,203.4646,183.0021,208.189,188.3498,215.1988,196.4629,203.4646" style="stroke:#000000;stroke-width:1.5;"/><text fill="#000000" font-family="sans-serif" font-size="19.5" lengthAdjust="spacing" textLength="39" x="204" y="215.9927">have</text><text fill="#000000" font-family="sans-serif" font-size="19.5" lengthAdjust="spacing" textLength="10.5" x="123.5695" y="300.6408">1</text><text fill="#000000" font-family="sans-serif" font-size="19.5" lengthAdjust="spacing" textLength="30" x="287.766" y="187.5917">1..*</text><!--MD5=[710b10ea314ec23c5eb602bd01bfa9d5]
link Company to Truck--><path codeLine="88" d="M121.395,398.4 C163.425,434.82 228.36,488.52 289.5,528.75 C308.175,541.035 329.835,552.93 348.57,562.515 " fill="none" id="Company-Truck" style="stroke:#A80036;stroke-width:1.5;"/><polygon fill="#000000" points="198.8295,443.4056,190.4131,431.887,185.25,439.034,198.8295,443.4056" style="stroke:#000000;stroke-width:1.5;"/><text fill="#000000" font-family="sans-serif" font-size="19.5" lengthAdjust="spacing" textLength="34.5" x="206.25" y="446.9927">own</text><text fill="#000000" font-family="sans-serif" font-size="19.5" lengthAdjust="spacing" textLength="10.5" x="120.0595" y="430.2445">1</text><text fill="#000000" font-family="sans-serif" font-size="19.5" lengthAdjust="spacing" textLength="30" x="306.8122" y="580.9522">1..*</text><!--MD5=[a27713cdd7694cea32c8be89a3131559]
link Containers to CargoManifest--><path codeLine="90" d="M841.68,578.25 C899.085,578.25 979.44,578.25 1039.41,578.25 " fill="none" id="Containers-CargoManifest" style="stroke:#A80036;stroke-width:1.5;"/><polygon fill="#000000" points="906,565.0137,892.4324,560.6053,892.4324,569.4221,906,565.0137" style="stroke:#000000;stroke-width:1.5;"/><text fill="#000000" font-family="sans-serif" font-size="19.5" lengthAdjust="spacing" textLength="81" x="912" y="572.9927">related to</text><text fill="#000000" font-family="sans-serif" font-size="19.5" lengthAdjust="spacing" textLength="30" x="853.5964" y="600.1375">1..*</text><text fill="#000000" font-family="sans-serif" font-size="19.5" lengthAdjust="spacing" textLength="30" x="997.3334" y="600.0023">1..*</text><!--MD5=[c7fc6f07f2489647d2a3f83969f89660]
link Containers to Ports--><path codeLine="91" d="M841.71,553.635 C857.835,548.535 874.92,543.45 891,539.25 C1049.625,497.805 1089.375,482.175 1252.5,465.75 C1305.57,460.41 1319.175,465.405 1372.5,465.75 C1391.955,465.885 1413.24,466.125 1432.185,466.38 " fill="none" id="Containers-Ports" style="stroke:#A80036;stroke-width:1.5;"/><polygon fill="#000000" points="1105.4194,455.9173,1091.3531,453.5396,1092.642,462.2617,1105.4194,455.9173" style="stroke:#000000;stroke-width:1.5;"/><text fill="#000000" font-family="sans-serif" font-size="19.5" lengthAdjust="spacing" textLength="43.5" x="1111.5" y="464.9927">store</text><text fill="#000000" font-family="sans-serif" font-size="19.5" lengthAdjust="spacing" textLength="30" x="853.6304" y="572.2148">0..*</text><text fill="#000000" font-family="sans-serif" font-size="19.5" lengthAdjust="spacing" textLength="10.5" x="1410.1496" y="488.7688">1</text><!--MD5=[40d84d2acc82335a7c6decf41782281a]
link Containers to Warehouse--><path codeLine="92" d="M841.65,610.995 C895.035,633.345 970.215,660.975 1039.5,672.75 C1171.92,695.25 1328.535,668.655 1417.275,648.72 " fill="none" id="Containers-Warehouse" style="stroke:#A80036;stroke-width:1.5;"/><polygon fill="#000000" points="1105.4839,660.0042,1092.2337,654.7179,1091.6571,663.5158,1105.4839,660.0042" style="stroke:#000000;stroke-width:1.5;"/><text fill="#000000" font-family="sans-serif" font-size="19.5" lengthAdjust="spacing" textLength="43.5" x="1111.5" y="667.4927">store</text><text fill="#000000" font-family="sans-serif" font-size="19.5" lengthAdjust="spacing" textLength="30" x="853.5623" y="637.2826">0..*</text><text fill="#000000" font-family="sans-serif" font-size="19.5" lengthAdjust="spacing" textLength="10.5" x="1394.9116" y="673.6299">1</text><!--MD5=[3d04185e7085eaaeba7ebd93b9963be0]
link PlaceLocation to Country--><path codeLine="94" d="M1924.575,554.25 C1970.745,554.25 2027.355,554.25 2068.17,554.25 " fill="none" id="PlaceLocation-Country" style="stroke:#A80036;stroke-width:1.5;"/><polygon fill="#000000" points="1984.5,541.0137,1970.9324,536.6053,1970.9324,545.4221,1984.5,541.0137" style="stroke:#000000;stroke-width:1.5;"/><text fill="#000000" font-family="sans-serif" font-size="19.5" lengthAdjust="spacing" textLength="31.5" x="1990.5" y="548.9927">in a</text><text fill="#000000" font-family="sans-serif" font-size="19.5" lengthAdjust="spacing" textLength="7.5" x="1936.7145" y="576.2519">*</text><text fill="#000000" font-family="sans-serif" font-size="19.5" lengthAdjust="spacing" textLength="10.5" x="2046.0266" y="576.8773">1</text><!--MD5=[aaa368e4b832683362a5bdda330bd90d]
link Ports to PlaceLocation--><path codeLine="96" d="M1546.77,481.14 C1604.01,495.375 1693.68,517.71 1758.9,533.94 " fill="none" id="Ports-PlaceLocation" style="stroke:#A80036;stroke-width:1.5;"/><polygon fill="#000000" points="1621.2779,485.8252,1609.1768,478.2703,1607.0472,486.826,1621.2779,485.8252" style="stroke:#000000;stroke-width:1.5;"/><text fill="#000000" font-family="sans-serif" font-size="19.5" lengthAdjust="spacing" textLength="85.5" x="1627.5" y="491.9927">located at</text><text fill="#000000" font-family="sans-serif" font-size="19.5" lengthAdjust="spacing" textLength="10.5" x="1558.6879" y="506.4151">1</text><text fill="#000000" font-family="sans-serif" font-size="19.5" lengthAdjust="spacing" textLength="10.5" x="1737.0802" y="553.1833">1</text><!--MD5=[cff4e3c6ede03364cf99bd3378be6b6a]
link Ship to Containers--><path codeLine="98" d="M501.225,420.06 C562.935,456.855 639.51,502.515 694.485,535.305 " fill="none" id="Ship-Containers" style="stroke:#A80036;stroke-width:1.5;"/><polygon fill="#000000" points="559.9416,438.355,550.5465,427.6197,546.0308,435.1923,559.9416,438.355" style="stroke:#000000;stroke-width:1.5;"/><text fill="#000000" font-family="sans-serif" font-size="19.5" lengthAdjust="spacing" textLength="76.5" x="567" y="442.4927">transport</text><text fill="#000000" font-family="sans-serif" font-size="19.5" lengthAdjust="spacing" textLength="10.5" x="512.6951" y="447.978">1</text><text fill="#000000" font-family="sans-serif" font-size="19.5" lengthAdjust="spacing" textLength="30" x="652.5908" y="551.4217">1..*</text><!--MD5=[b5e7d3b323f2cd13b2215620f50e65f3]
link Ship to Ports--><path codeLine="99" d="M501.33,355.485 C681.375,353.685 1060.62,359.13 1372.5,425.25 C1392.33,429.45 1413.345,436.32 1431.945,443.295 " fill="none" id="Ship-Ports" style="stroke:#A80036;stroke-width:1.5;"/><polygon fill="#000000" points="925.4668,352.7182,912.3733,347.0548,911.5451,355.8326,925.4668,352.7182" style="stroke:#000000;stroke-width:1.5;"/><text fill="#000000" font-family="sans-serif" font-size="19.5" lengthAdjust="spacing" textLength="42" x="931.5" y="359.9927">dock</text><text fill="#000000" font-family="sans-serif" font-size="19.5" lengthAdjust="spacing" textLength="30" x="512.8704" y="376.6667">0..*</text><text fill="#000000" font-family="sans-serif" font-size="19.5" lengthAdjust="spacing" textLength="10.5" x="1409.8653" y="433.0025">1</text><!--MD5=[5541ef512584d1243c10a7f3b3317e1c]
link Ship to ShipLocation--><path codeLine="100" d="M501.225,291.63 C561.225,253.665 635.28,206.805 689.88,172.245 " fill="none" id="Ship-ShipLocation" style="stroke:#A80036;stroke-width:1.5;"/><polygon fill="#000000" points="582.3376,189.0031,568.5154,192.5331,573.2301,199.9834,582.3376,189.0031" style="stroke:#000000;stroke-width:1.5;"/><text fill="#000000" font-family="sans-serif" font-size="19.5" lengthAdjust="spacing" textLength="31.5" x="589.5" y="200.9927">has</text><text fill="#000000" font-family="sans-serif" font-size="19.5" lengthAdjust="spacing" textLength="10.5" x="512.6951" y="306.3036">1</text><text fill="#000000" font-family="sans-serif" font-size="19.5" lengthAdjust="spacing" textLength="30" x="647.949" y="200.3024">1..*</text><!--MD5=[9c226fb16923f449f2aeb2d55d4b05b5]
link Employee to ShipLocation--><path codeLine="102" d="M460.74,121.275 C524.4,121.785 622.11,122.58 689.88,123.135 " fill="none" id="Employee-ShipLocation" style="stroke:#A80036;stroke-width:1.5;"/><polygon fill="#000000" points="564.7498,109.0745,551.2184,104.5562,551.1468,113.3727,564.7498,109.0745" style="stroke:#000000;stroke-width:1.5;"/><text fill="#000000" font-family="sans-serif" font-size="19.5" lengthAdjust="spacing" textLength="69" x="570.75" y="116.9927">controls</text><text fill="#000000" font-family="sans-serif" font-size="19.5" lengthAdjust="spacing" textLength="10.5" x="472.4563" y="143.6562">1</text><text fill="#000000" font-family="sans-serif" font-size="19.5" lengthAdjust="spacing" textLength="30" x="647.949" y="144.9002">1..*</text><!--MD5=[8cef3b8bb432fdc493768abc58cade76]
link Truck to Containers--><path codeLine="104" d="M442.095,583.515 C504.96,582.495 619.29,580.635 694.05,579.435 " fill="none" id="Truck-Containers" style="stroke:#A80036;stroke-width:1.5;"/><polygon fill="#000000" points="560.999,566.3922,547.3618,562.2041,547.5045,571.0197,560.999,566.3922" style="stroke:#000000;stroke-width:1.5;"/><text fill="#000000" font-family="sans-serif" font-size="19.5" lengthAdjust="spacing" textLength="76.5" x="567" y="574.4927">transport</text><text fill="#000000" font-family="sans-serif" font-size="19.5" lengthAdjust="spacing" textLength="10.5" x="453.4908" y="606.2796">1</text><text fill="#000000" font-family="sans-serif" font-size="19.5" lengthAdjust="spacing" textLength="30" x="652.6533" y="601.3978">1..*</text><!--MD5=[668bfb6c3cf503ab645d5414a0ff2b4e]
link Truck to Warehouse--><path codeLine="105" d="M432.165,614.295 C484.47,656.52 587.34,731.385 690,759.75 C858.48,806.31 1203.345,737.34 1372.5,686.25 C1387.41,681.75 1402.8,675.555 1417.29,668.94 " fill="none" id="Truck-Warehouse" style="stroke:#A80036;stroke-width:1.5;"/><polygon fill="#000000" points="927.7385,751.4291,914.4358,746.276,913.9475,755.0792,927.7385,751.4291" style="stroke:#000000;stroke-width:1.5;"/><text fill="#000000" font-family="sans-serif" font-size="19.5" lengthAdjust="spacing" textLength="37.5" x="933.75" y="758.9927">park</text><text fill="#000000" font-family="sans-serif" font-size="19.5" lengthAdjust="spacing" textLength="30" x="408.3286" y="646.437">0..*</text><text fill="#000000" font-family="sans-serif" font-size="19.5" lengthAdjust="spacing" textLength="10.5" x="1394.9289" y="696.9461">1</text><!--MD5=[591625470abc4a5f324d9b49d40e13b3]
link Warehouse to PlaceLocation--><path codeLine="107" d="M1561.635,617.4 C1605.705,608.85 1663.53,597.255 1714.5,585.75 C1729.02,582.48 1744.425,578.805 1759.29,575.145 " fill="none" id="Warehouse-PlaceLocation" style="stroke:#A80036;stroke-width:1.5;"/><polygon fill="#000000" points="1621.3343,570.9457,1607.1448,569.4712,1608.9881,578.0931,1621.3343,570.9457" style="stroke:#000000;stroke-width:1.5;"/><text fill="#000000" font-family="sans-serif" font-size="19.5" lengthAdjust="spacing" textLength="85.5" x="1627.5" y="580.4927">located at</text><text fill="#000000" font-family="sans-serif" font-size="19.5" lengthAdjust="spacing" textLength="10.5" x="1573.4846" y="637.514">1</text><text fill="#000000" font-family="sans-serif" font-size="19.5" lengthAdjust="spacing" textLength="10.5" x="1736.9704" y="599.8764">1</text><!--MD5=[7553668665304073113bd19fc6ca6cff]
@startuml
'https://plantuml.com/class-diagram

hide methods
left to right direction
skinparam classAttributeIconSize 0

class Company {
-designation
}

class Employee {
-name
}

class Containers {
-x
-y
-z
-containerNumber
-checkDigit
-isoCode
-width
-height
-length
-payLoad
-tare
-gross
}

class CargoManifest {
-containerNumber
}

class Ship {
-mmsiCode
-name
-imoCode
-numberEnergyGenerators
-generatorPower
-callSign
-vesselType
-length
-width
-capacity
-draft
}

class Ports {
-identification
-name
}

class Truck {

}

class Warehouse {
-identification
-name
}

class Country {
-name
-continent
}

class PlaceLocation {
-latitude
-longitude
}

class ShipLocation {
-baseDateTime
-latitude
-longitude
-sog
-cog
-heading
-position
-transceiver
}

CargoManifest "*" - - "1..*" Ports : delivered at >
CargoManifest "*" - - "1..*" Warehouse : delivered at >

Company "1"- -"1..*" Ship: own >
Company "1"- -"1..*" Employee: have >
Company "1"- -"1..*" Truck: own >

Containers "1..*"- -"1..*" CargoManifest: related to >
Containers "0..*"- -"1" Ports: store >
Containers "0..*"- -"1" Warehouse: store >

PlaceLocation "*" - - "1" Country : in a >

Ports "1" - - "1" PlaceLocation : located at >

Ship "1"- -"1..*" Containers : transport >
Ship "0..*"- -"1" Ports: dock >
Ship "1" - - "1..*" ShipLocation : has >

Employee "1" - - "1..*" ShipLocation : controls >

Truck "1"- -"1..*" Containers : transport >
Truck "0..*"- -"1" Warehouse: park >

Warehouse "1" - - "1" PlaceLocation : located at >





@enduml

@startuml

hide methods
left to right direction
skinparam classAttributeIconSize 0

class Company {
-designation
}

class Employee {
-name
}

class Containers {
-x
-y
-z
-containerNumber
-checkDigit
-isoCode
-width
-height
-length
-payLoad
-tare
-gross
}

class CargoManifest {
-containerNumber
}

class Ship {
-mmsiCode
-name
-imoCode
-numberEnergyGenerators
-generatorPower
-callSign
-vesselType
-length
-width
-capacity
-draft
}

class Ports {
-identification
-name
}

class Truck {

}

class Warehouse {
-identification
-name
}

class Country {
-name
-continent
}

class PlaceLocation {
-latitude
-longitude
}

class ShipLocation {
-baseDateTime
-latitude
-longitude
-sog
-cog
-heading
-position
-transceiver
}

CargoManifest "*" - - "1..*" Ports : delivered at >
CargoManifest "*" - - "1..*" Warehouse : delivered at >

Company "1"- -"1..*" Ship: own >
Company "1"- -"1..*" Employee: have >
Company "1"- -"1..*" Truck: own >

Containers "1..*"- -"1..*" CargoManifest: related to >
Containers "0..*"- -"1" Ports: store >
Containers "0..*"- -"1" Warehouse: store >

PlaceLocation "*" - - "1" Country : in a >

Ports "1" - - "1" PlaceLocation : located at >

Ship "1"- -"1..*" Containers : transport >
Ship "0..*"- -"1" Ports: dock >
Ship "1" - - "1..*" ShipLocation : has >

Employee "1" - - "1..*" ShipLocation : controls >

Truck "1"- -"1..*" Containers : transport >
Truck "0..*"- -"1" Warehouse: park >

Warehouse "1" - - "1" PlaceLocation : located at >





@enduml

PlantUML version 1.2021.5(Sun Apr 25 12:20:28 BST 2021)
(GPL source distribution)
Java Runtime: OpenJDK Runtime Environment
JVM: Dynamic Code Evolution 64-Bit Server VM
Default Encoding: Cp1252
Language: pt
Country: PT
--></g></svg>