<?xml version="1.0" encoding="UTF-8" standalone="no"?><svg xmlns="http://www.w3.org/2000/svg" xmlns:xlink="http://www.w3.org/1999/xlink" contentScriptType="application/ecmascript" contentStyleType="text/css" height="489.6px" preserveAspectRatio="none" style="width:1320px;height:489px;" version="1.1" viewBox="0 0 1320 489" width="1320.3px" zoomAndPan="magnify"><defs><filter height="300%" id="fnkgukhgwwhaw" width="300%" x="-1" y="-1"><feGaussianBlur result="blurOut" stdDeviation="1.8"/><feColorMatrix in="blurOut" result="blurOut2" type="matrix" values="0 0 0 0 0 0 0 0 0 0 0 0 0 0 0 0 0 0 .4 0"/><feOffset dx="3.6" dy="3.6" in="blurOut2" result="blurOut3"/><feBlend in="SourceGraphic" in2="blurOut3" mode="normal"/></filter></defs><g><!--MD5=[02e4b9b7573f1156f41e60aa5b4e25a4]
class Company--><rect codeLine="7" fill="#FEFECE" filter="url(#fnkgukhgwwhaw)" height="48.4523" id="Company" style="stroke:#A80036;stroke-width:1.35;" width="76.5" x="6.3" y="190.35"/><ellipse cx="19.8" cy="204.75" fill="#ADD1B2" rx="9.9" ry="9.9" style="stroke:#A80036;stroke-width:0.9;"/><path d="M21.6,201.6 Q21.7828,201.15 21.9938,200.925 Q22.2047,200.7 22.4438,200.7 Q22.8656,200.7 23.1328,200.9531 Q23.4,201.2063 23.4,201.7969 L23.4,203.2031 Q23.4,203.7938 23.1469,204.0469 Q22.8938,204.3 22.5,204.3 Q22.1484,204.3 21.9234,204.1453 Q21.6984,203.9906 21.6,203.5828 Q21.5578,203.3016 21.4031,203.1469 Q21.1219,202.8516 20.6156,202.6828 Q20.1094,202.5 19.6031,202.5 Q18.9703,202.5 18.4359,202.7531 Q17.9156,203.0063 17.5078,203.5688 Q17.1,204.1313 17.1,204.9047 L17.1,205.7344 Q17.1,206.6625 17.8594,207.2813 Q18.6188,207.9 19.9688,207.9 Q20.7703,207.9 21.3328,207.7172 Q21.6563,207.6188 22.0219,207.2953 Q22.2609,207.1125 22.3875,207.0563 Q22.5141,207 22.6688,207 Q22.9641,207 23.175,207.2391 Q23.4,207.4641 23.4,207.7875 Q23.4,208.0969 23.0906,208.4625 Q22.6406,208.9969 21.9234,209.2922 Q20.9813,209.7 19.8281,209.7 Q18.4781,209.7 17.3953,209.1656 Q16.5234,208.7438 15.9047,207.8297 Q15.3,206.9156 15.3,205.8328 L15.3,204.8484 Q15.3,203.7234 15.8344,202.7391 Q16.3828,201.7547 17.325,201.2344 Q18.2813,200.7 19.35,200.7 Q19.9969,200.7 20.5594,200.925 Q21.1219,201.15 21.6,201.6 Z " fill="#000000"/><text fill="#000000" font-family="sans-serif" font-size="10.8" lengthAdjust="spacing" textLength="47.7" x="32.4" y="209.1691">Company</text><line style="stroke:#A80036;stroke-width:1.35;" x1="7.2" x2="81.9" y1="219.15" y2="219.15"/><text fill="#000000" font-family="sans-serif" font-size="9.9" lengthAdjust="spacing" textLength="53.1" x="11.7" y="233.0271">-designation</text><!--MD5=[ddaf6f62b0bc30921877ec9fb9463c9f]
class TrafficManager--><rect codeLine="11" fill="#FEFECE" filter="url(#fnkgukhgwwhaw)" height="48.4523" id="TrafficManager" style="stroke:#A80036;stroke-width:1.35;" width="101.7" x="186.3" y="48.15"/><ellipse cx="199.8" cy="62.55" fill="#ADD1B2" rx="9.9" ry="9.9" style="stroke:#A80036;stroke-width:0.9;"/><path d="M201.6,59.4 Q201.7828,58.95 201.9938,58.725 Q202.2047,58.5 202.4438,58.5 Q202.8656,58.5 203.1328,58.7531 Q203.4,59.0063 203.4,59.5969 L203.4,61.0031 Q203.4,61.5938 203.1469,61.8469 Q202.8938,62.1 202.5,62.1 Q202.1484,62.1 201.9234,61.9453 Q201.6984,61.7906 201.6,61.3828 Q201.5578,61.1016 201.4031,60.9469 Q201.1219,60.6516 200.6156,60.4828 Q200.1094,60.3 199.6031,60.3 Q198.9703,60.3 198.4359,60.5531 Q197.9156,60.8063 197.5078,61.3688 Q197.1,61.9313 197.1,62.7047 L197.1,63.5344 Q197.1,64.4625 197.8594,65.0813 Q198.6188,65.7 199.9688,65.7 Q200.7703,65.7 201.3328,65.5172 Q201.6563,65.4188 202.0219,65.0953 Q202.2609,64.9125 202.3875,64.8563 Q202.5141,64.8 202.6688,64.8 Q202.9641,64.8 203.175,65.0391 Q203.4,65.2641 203.4,65.5875 Q203.4,65.8969 203.0906,66.2625 Q202.6406,66.7969 201.9234,67.0922 Q200.9813,67.5 199.8281,67.5 Q198.4781,67.5 197.3953,66.9656 Q196.5234,66.5438 195.9047,65.6297 Q195.3,64.7156 195.3,63.6328 L195.3,62.6484 Q195.3,61.5234 195.8344,60.5391 Q196.3828,59.5547 197.325,59.0344 Q198.2813,58.5 199.35,58.5 Q199.9969,58.5 200.5594,58.725 Q201.1219,58.95 201.6,59.4 Z " fill="#000000"/><text fill="#000000" font-family="sans-serif" font-size="10.8" lengthAdjust="spacing" textLength="72.9" x="212.4" y="66.9691">TrafficManager</text><line style="stroke:#A80036;stroke-width:1.35;" x1="187.2" x2="287.1" y1="76.95" y2="76.95"/><text fill="#000000" font-family="sans-serif" font-size="9.9" lengthAdjust="spacing" textLength="27" x="191.7" y="90.8271">-name</text><!--MD5=[a3093aa9f96b7df9aab31d8715601ff6]
class Containers--><rect codeLine="15" fill="#FEFECE" filter="url(#fnkgukhgwwhaw)" height="185.4281" id="Containers" style="stroke:#A80036;stroke-width:1.35;" width="88.2" x="416.7" y="254.25"/><ellipse cx="432.225" cy="268.65" fill="#ADD1B2" rx="9.9" ry="9.9" style="stroke:#A80036;stroke-width:0.9;"/><path d="M434.025,265.5 Q434.2078,265.05 434.4188,264.825 Q434.6297,264.6 434.8688,264.6 Q435.2906,264.6 435.5578,264.8531 Q435.825,265.1063 435.825,265.6969 L435.825,267.1031 Q435.825,267.6938 435.5719,267.9469 Q435.3188,268.2 434.925,268.2 Q434.5734,268.2 434.3484,268.0453 Q434.1234,267.8906 434.025,267.4828 Q433.9828,267.2016 433.8281,267.0469 Q433.5469,266.7516 433.0406,266.5828 Q432.5344,266.4 432.0281,266.4 Q431.3953,266.4 430.8609,266.6531 Q430.3406,266.9063 429.9328,267.4688 Q429.525,268.0313 429.525,268.8047 L429.525,269.6344 Q429.525,270.5625 430.2844,271.1813 Q431.0438,271.8 432.3938,271.8 Q433.1953,271.8 433.7578,271.6172 Q434.0813,271.5188 434.4469,271.1953 Q434.6859,271.0125 434.8125,270.9563 Q434.9391,270.9 435.0938,270.9 Q435.3891,270.9 435.6,271.1391 Q435.825,271.3641 435.825,271.6875 Q435.825,271.9969 435.5156,272.3625 Q435.0656,272.8969 434.3484,273.1922 Q433.4063,273.6 432.2531,273.6 Q430.9031,273.6 429.8203,273.0656 Q428.9484,272.6438 428.3297,271.7297 Q427.725,270.8156 427.725,269.7328 L427.725,268.7484 Q427.725,267.6234 428.2594,266.6391 Q428.8078,265.6547 429.75,265.1344 Q430.7063,264.6 431.775,264.6 Q432.4219,264.6 432.9844,264.825 Q433.5469,265.05 434.025,265.5 Z " fill="#000000"/><text fill="#000000" font-family="sans-serif" font-size="10.8" lengthAdjust="spacing" textLength="54.9" x="445.275" y="273.0691">Containers</text><line style="stroke:#A80036;stroke-width:1.35;" x1="417.6" x2="504" y1="283.05" y2="283.05"/><text fill="#000000" font-family="sans-serif" font-size="9.9" lengthAdjust="spacing" textLength="9" x="422.1" y="296.9271">-x</text><text fill="#000000" font-family="sans-serif" font-size="9.9" lengthAdjust="spacing" textLength="9" x="422.1" y="309.3794">-y</text><text fill="#000000" font-family="sans-serif" font-size="9.9" lengthAdjust="spacing" textLength="9" x="422.1" y="321.8317">-z</text><text fill="#000000" font-family="sans-serif" font-size="9.9" lengthAdjust="spacing" textLength="77.4" x="422.1" y="334.2841">-containerNumber</text><text fill="#000000" font-family="sans-serif" font-size="9.9" lengthAdjust="spacing" textLength="47.7" x="422.1" y="346.7364">-checkDigit</text><text fill="#000000" font-family="sans-serif" font-size="9.9" lengthAdjust="spacing" textLength="38.7" x="422.1" y="359.1888">-isoCode</text><text fill="#000000" font-family="sans-serif" font-size="9.9" lengthAdjust="spacing" textLength="27.9" x="422.1" y="371.6411">-width</text><text fill="#000000" font-family="sans-serif" font-size="9.9" lengthAdjust="spacing" textLength="29.7" x="422.1" y="384.0935">-height</text><text fill="#000000" font-family="sans-serif" font-size="9.9" lengthAdjust="spacing" textLength="29.7" x="422.1" y="396.5458">-length</text><text fill="#000000" font-family="sans-serif" font-size="9.9" lengthAdjust="spacing" textLength="41.4" x="422.1" y="408.9981">-payLoad</text><text fill="#000000" font-family="sans-serif" font-size="9.9" lengthAdjust="spacing" textLength="20.7" x="422.1" y="421.4505">-tare</text><text fill="#000000" font-family="sans-serif" font-size="9.9" lengthAdjust="spacing" textLength="28.8" x="422.1" y="433.9028">-gross</text><!--MD5=[76562047389981627aea27c31a97aff5]
class CargoManifest--><rect codeLine="30" fill="#FEFECE" filter="url(#fnkgukhgwwhaw)" height="48.4523" id="CargoManifest" style="stroke:#A80036;stroke-width:1.35;" width="100.8" x="623.7" y="322.65"/><ellipse cx="637.2" cy="337.05" fill="#ADD1B2" rx="9.9" ry="9.9" style="stroke:#A80036;stroke-width:0.9;"/><path d="M639,333.9 Q639.1828,333.45 639.3938,333.225 Q639.6047,333 639.8438,333 Q640.2656,333 640.5328,333.2531 Q640.8,333.5063 640.8,334.0969 L640.8,335.5031 Q640.8,336.0938 640.5469,336.3469 Q640.2938,336.6 639.9,336.6 Q639.5484,336.6 639.3234,336.4453 Q639.0984,336.2906 639,335.8828 Q638.9578,335.6016 638.8031,335.4469 Q638.5219,335.1516 638.0156,334.9828 Q637.5094,334.8 637.0031,334.8 Q636.3703,334.8 635.8359,335.0531 Q635.3156,335.3063 634.9078,335.8688 Q634.5,336.4313 634.5,337.2047 L634.5,338.0344 Q634.5,338.9625 635.2594,339.5813 Q636.0188,340.2 637.3688,340.2 Q638.1703,340.2 638.7328,340.0172 Q639.0563,339.9188 639.4219,339.5953 Q639.6609,339.4125 639.7875,339.3563 Q639.9141,339.3 640.0688,339.3 Q640.3641,339.3 640.575,339.5391 Q640.8,339.7641 640.8,340.0875 Q640.8,340.3969 640.4906,340.7625 Q640.0406,341.2969 639.3234,341.5922 Q638.3813,342 637.2281,342 Q635.8781,342 634.7953,341.4656 Q633.9234,341.0438 633.3047,340.1297 Q632.7,339.2156 632.7,338.1328 L632.7,337.1484 Q632.7,336.0234 633.2344,335.0391 Q633.7828,334.0547 634.725,333.5344 Q635.6813,333 636.75,333 Q637.3969,333 637.9594,333.225 Q638.5219,333.45 639,333.9 Z " fill="#000000"/><text fill="#000000" font-family="sans-serif" font-size="10.8" lengthAdjust="spacing" textLength="72" x="649.8" y="341.4691">CargoManifest</text><line style="stroke:#A80036;stroke-width:1.35;" x1="624.6" x2="723.6" y1="351.45" y2="351.45"/><text fill="#000000" font-family="sans-serif" font-size="9.9" lengthAdjust="spacing" textLength="77.4" x="629.1" y="365.3271">-containerNumber</text><!--MD5=[0dc7f2ddb409b58bcf52b12238c25399]
class Ship--><rect codeLine="34" fill="#FEFECE" filter="url(#fnkgukhgwwhaw)" height="172.9758" id="Ship" style="stroke:#A80036;stroke-width:1.35;" width="126.9" x="173.7" y="128.25"/><ellipse cx="222.075" cy="142.65" fill="#ADD1B2" rx="9.9" ry="9.9" style="stroke:#A80036;stroke-width:0.9;"/><path d="M223.875,139.5 Q224.0578,139.05 224.2688,138.825 Q224.4797,138.6 224.7188,138.6 Q225.1406,138.6 225.4078,138.8531 Q225.675,139.1063 225.675,139.6969 L225.675,141.1031 Q225.675,141.6938 225.4219,141.9469 Q225.1688,142.2 224.775,142.2 Q224.4234,142.2 224.1984,142.0453 Q223.9734,141.8906 223.875,141.4828 Q223.8328,141.2016 223.6781,141.0469 Q223.3969,140.7516 222.8906,140.5828 Q222.3844,140.4 221.8781,140.4 Q221.2453,140.4 220.7109,140.6531 Q220.1906,140.9063 219.7828,141.4688 Q219.375,142.0313 219.375,142.8047 L219.375,143.6344 Q219.375,144.5625 220.1344,145.1813 Q220.8938,145.8 222.2438,145.8 Q223.0453,145.8 223.6078,145.6172 Q223.9313,145.5188 224.2969,145.1953 Q224.5359,145.0125 224.6625,144.9563 Q224.7891,144.9 224.9438,144.9 Q225.2391,144.9 225.45,145.1391 Q225.675,145.3641 225.675,145.6875 Q225.675,145.9969 225.3656,146.3625 Q224.9156,146.8969 224.1984,147.1922 Q223.2563,147.6 222.1031,147.6 Q220.7531,147.6 219.6703,147.0656 Q218.7984,146.6438 218.1797,145.7297 Q217.575,144.8156 217.575,143.7328 L217.575,142.7484 Q217.575,141.6234 218.1094,140.6391 Q218.6578,139.6547 219.6,139.1344 Q220.5563,138.6 221.625,138.6 Q222.2719,138.6 222.8344,138.825 Q223.3969,139.05 223.875,139.5 Z " fill="#000000"/><text fill="#000000" font-family="sans-serif" font-size="10.8" lengthAdjust="spacing" textLength="22.5" x="240.525" y="147.0691">Ship</text><line style="stroke:#A80036;stroke-width:1.35;" x1="174.6" x2="299.7" y1="157.05" y2="157.05"/><text fill="#000000" font-family="sans-serif" font-size="9.9" lengthAdjust="spacing" textLength="47.7" x="179.1" y="170.9271">-mmsiCode</text><text fill="#000000" font-family="sans-serif" font-size="9.9" lengthAdjust="spacing" textLength="27" x="179.1" y="183.3794">-name</text><text fill="#000000" font-family="sans-serif" font-size="9.9" lengthAdjust="spacing" textLength="40.5" x="179.1" y="195.8317">-imoCode</text><text fill="#000000" font-family="sans-serif" font-size="9.9" lengthAdjust="spacing" textLength="116.1" x="179.1" y="208.2841">-numberEnergyGenerators</text><text fill="#000000" font-family="sans-serif" font-size="9.9" lengthAdjust="spacing" textLength="74.7" x="179.1" y="220.7364">-generatorPower</text><text fill="#000000" font-family="sans-serif" font-size="9.9" lengthAdjust="spacing" textLength="36.9" x="179.1" y="233.1888">-callSign</text><text fill="#000000" font-family="sans-serif" font-size="9.9" lengthAdjust="spacing" textLength="54" x="179.1" y="245.6411">-vesselType</text><text fill="#000000" font-family="sans-serif" font-size="9.9" lengthAdjust="spacing" textLength="29.7" x="179.1" y="258.0935">-length</text><text fill="#000000" font-family="sans-serif" font-size="9.9" lengthAdjust="spacing" textLength="27.9" x="179.1" y="270.5458">-width</text><text fill="#000000" font-family="sans-serif" font-size="9.9" lengthAdjust="spacing" textLength="40.5" x="179.1" y="282.9981">-capacity</text><text fill="#000000" font-family="sans-serif" font-size="9.9" lengthAdjust="spacing" textLength="24.3" x="179.1" y="295.4505">-draft</text><!--MD5=[ea13aecf8df941b18fb8e3885c78c184]
class Ports--><rect codeLine="48" fill="#FEFECE" filter="url(#fnkgukhgwwhaw)" height="60.9047" id="Ports" style="stroke:#A80036;stroke-width:1.35;" width="68.4" x="859.5" y="249.75"/><ellipse cx="879.075" cy="264.15" fill="#ADD1B2" rx="9.9" ry="9.9" style="stroke:#A80036;stroke-width:0.9;"/><path d="M880.875,261 Q881.0578,260.55 881.2688,260.325 Q881.4797,260.1 881.7188,260.1 Q882.1406,260.1 882.4078,260.3531 Q882.675,260.6063 882.675,261.1969 L882.675,262.6031 Q882.675,263.1938 882.4219,263.4469 Q882.1688,263.7 881.775,263.7 Q881.4234,263.7 881.1984,263.5453 Q880.9734,263.3906 880.875,262.9828 Q880.8328,262.7016 880.6781,262.5469 Q880.3969,262.2516 879.8906,262.0828 Q879.3844,261.9 878.8781,261.9 Q878.2453,261.9 877.7109,262.1531 Q877.1906,262.4063 876.7828,262.9688 Q876.375,263.5313 876.375,264.3047 L876.375,265.1344 Q876.375,266.0625 877.1344,266.6813 Q877.8938,267.3 879.2438,267.3 Q880.0453,267.3 880.6078,267.1172 Q880.9313,267.0188 881.2969,266.6953 Q881.5359,266.5125 881.6625,266.4563 Q881.7891,266.4 881.9438,266.4 Q882.2391,266.4 882.45,266.6391 Q882.675,266.8641 882.675,267.1875 Q882.675,267.4969 882.3656,267.8625 Q881.9156,268.3969 881.1984,268.6922 Q880.2563,269.1 879.1031,269.1 Q877.7531,269.1 876.6703,268.5656 Q875.7984,268.1438 875.1797,267.2297 Q874.575,266.3156 874.575,265.2328 L874.575,264.2484 Q874.575,263.1234 875.1094,262.1391 Q875.6578,261.1547 876.6,260.6344 Q877.5563,260.1 878.625,260.1 Q879.2719,260.1 879.8344,260.325 Q880.3969,260.55 880.875,261 Z " fill="#000000"/><text fill="#000000" font-family="sans-serif" font-size="10.8" lengthAdjust="spacing" textLength="26.1" x="893.025" y="268.5691">Ports</text><line style="stroke:#A80036;stroke-width:1.35;" x1="860.4" x2="927" y1="278.55" y2="278.55"/><text fill="#000000" font-family="sans-serif" font-size="9.9" lengthAdjust="spacing" textLength="57.6" x="864.9" y="292.4271">-identification</text><text fill="#000000" font-family="sans-serif" font-size="9.9" lengthAdjust="spacing" textLength="27" x="864.9" y="304.8794">-name</text><!--MD5=[f2ba7f6ab60af8dd0d3e354f91729b14]
class Truck--><rect codeLine="53" fill="#FEFECE" filter="url(#fnkgukhgwwhaw)" height="36" id="Truck" style="stroke:#A80036;stroke-width:1.35;" width="55.8" x="209.25" y="332.55"/><ellipse cx="222.75" cy="346.95" fill="#ADD1B2" rx="9.9" ry="9.9" style="stroke:#A80036;stroke-width:0.9;"/><path d="M224.55,343.8 Q224.7328,343.35 224.9438,343.125 Q225.1547,342.9 225.3938,342.9 Q225.8156,342.9 226.0828,343.1531 Q226.35,343.4063 226.35,343.9969 L226.35,345.4031 Q226.35,345.9938 226.0969,346.2469 Q225.8438,346.5 225.45,346.5 Q225.0984,346.5 224.8734,346.3453 Q224.6484,346.1906 224.55,345.7828 Q224.5078,345.5016 224.3531,345.3469 Q224.0719,345.0516 223.5656,344.8828 Q223.0594,344.7 222.5531,344.7 Q221.9203,344.7 221.3859,344.9531 Q220.8656,345.2063 220.4578,345.7688 Q220.05,346.3313 220.05,347.1047 L220.05,347.9344 Q220.05,348.8625 220.8094,349.4813 Q221.5688,350.1 222.9188,350.1 Q223.7203,350.1 224.2828,349.9172 Q224.6063,349.8188 224.9719,349.4953 Q225.2109,349.3125 225.3375,349.2563 Q225.4641,349.2 225.6188,349.2 Q225.9141,349.2 226.125,349.4391 Q226.35,349.6641 226.35,349.9875 Q226.35,350.2969 226.0406,350.6625 Q225.5906,351.1969 224.8734,351.4922 Q223.9313,351.9 222.7781,351.9 Q221.4281,351.9 220.3453,351.3656 Q219.4734,350.9438 218.8547,350.0297 Q218.25,349.1156 218.25,348.0328 L218.25,347.0484 Q218.25,345.9234 218.7844,344.9391 Q219.3328,343.9547 220.275,343.4344 Q221.2313,342.9 222.3,342.9 Q222.9469,342.9 223.5094,343.125 Q224.0719,343.35 224.55,343.8 Z " fill="#000000"/><text fill="#000000" font-family="sans-serif" font-size="10.8" lengthAdjust="spacing" textLength="27" x="235.35" y="351.3691">Truck</text><line style="stroke:#A80036;stroke-width:1.35;" x1="210.15" x2="264.15" y1="361.35" y2="361.35"/><!--MD5=[c5149b4909ffd2688ff51a939867f774]
class Warehouse--><rect codeLine="57" fill="#FEFECE" filter="url(#fnkgukhgwwhaw)" height="60.9047" id="Warehouse" style="stroke:#A80036;stroke-width:1.35;" width="86.4" x="850.5" y="347.85"/><ellipse cx="864" cy="362.25" fill="#ADD1B2" rx="9.9" ry="9.9" style="stroke:#A80036;stroke-width:0.9;"/><path d="M865.8,359.1 Q865.9828,358.65 866.1938,358.425 Q866.4047,358.2 866.6438,358.2 Q867.0656,358.2 867.3328,358.4531 Q867.6,358.7063 867.6,359.2969 L867.6,360.7031 Q867.6,361.2938 867.3469,361.5469 Q867.0938,361.8 866.7,361.8 Q866.3484,361.8 866.1234,361.6453 Q865.8984,361.4906 865.8,361.0828 Q865.7578,360.8016 865.6031,360.6469 Q865.3219,360.3516 864.8156,360.1828 Q864.3094,360 863.8031,360 Q863.1703,360 862.6359,360.2531 Q862.1156,360.5063 861.7078,361.0688 Q861.3,361.6313 861.3,362.4047 L861.3,363.2344 Q861.3,364.1625 862.0594,364.7813 Q862.8188,365.4 864.1688,365.4 Q864.9703,365.4 865.5328,365.2172 Q865.8563,365.1188 866.2219,364.7953 Q866.4609,364.6125 866.5875,364.5563 Q866.7141,364.5 866.8688,364.5 Q867.1641,364.5 867.375,364.7391 Q867.6,364.9641 867.6,365.2875 Q867.6,365.5969 867.2906,365.9625 Q866.8406,366.4969 866.1234,366.7922 Q865.1813,367.2 864.0281,367.2 Q862.6781,367.2 861.5953,366.6656 Q860.7234,366.2438 860.1047,365.3297 Q859.5,364.4156 859.5,363.3328 L859.5,362.3484 Q859.5,361.2234 860.0344,360.2391 Q860.5828,359.2547 861.525,358.7344 Q862.4813,358.2 863.55,358.2 Q864.1969,358.2 864.7594,358.425 Q865.3219,358.65 865.8,359.1 Z " fill="#000000"/><text fill="#000000" font-family="sans-serif" font-size="10.8" lengthAdjust="spacing" textLength="57.6" x="876.6" y="366.6691">Warehouse</text><line style="stroke:#A80036;stroke-width:1.35;" x1="851.4" x2="936" y1="376.65" y2="376.65"/><text fill="#000000" font-family="sans-serif" font-size="9.9" lengthAdjust="spacing" textLength="57.6" x="855.9" y="390.5271">-identification</text><text fill="#000000" font-family="sans-serif" font-size="9.9" lengthAdjust="spacing" textLength="27" x="855.9" y="402.9794">-name</text><!--MD5=[deb4e1f6eb1e3c1256fdb830f96abfbb]
class Country--><rect codeLine="62" fill="#FEFECE" filter="url(#fnkgukhgwwhaw)" height="60.9047" id="Country" style="stroke:#A80036;stroke-width:1.35;" width="66.6" x="1241.1" y="301.95"/><ellipse cx="1254.6" cy="316.35" fill="#ADD1B2" rx="9.9" ry="9.9" style="stroke:#A80036;stroke-width:0.9;"/><path d="M1256.4,313.2 Q1256.5828,312.75 1256.7938,312.525 Q1257.0047,312.3 1257.2438,312.3 Q1257.6656,312.3 1257.9328,312.5531 Q1258.2,312.8063 1258.2,313.3969 L1258.2,314.8031 Q1258.2,315.3938 1257.9469,315.6469 Q1257.6938,315.9 1257.3,315.9 Q1256.9484,315.9 1256.7234,315.7453 Q1256.4984,315.5906 1256.4,315.1828 Q1256.3578,314.9016 1256.2031,314.7469 Q1255.9219,314.4516 1255.4156,314.2828 Q1254.9094,314.1 1254.4031,314.1 Q1253.7703,314.1 1253.2359,314.3531 Q1252.7156,314.6063 1252.3078,315.1688 Q1251.9,315.7313 1251.9,316.5047 L1251.9,317.3344 Q1251.9,318.2625 1252.6594,318.8813 Q1253.4188,319.5 1254.7688,319.5 Q1255.5703,319.5 1256.1328,319.3172 Q1256.4563,319.2188 1256.8219,318.8953 Q1257.0609,318.7125 1257.1875,318.6563 Q1257.3141,318.6 1257.4688,318.6 Q1257.7641,318.6 1257.975,318.8391 Q1258.2,319.0641 1258.2,319.3875 Q1258.2,319.6969 1257.8906,320.0625 Q1257.4406,320.5969 1256.7234,320.8922 Q1255.7813,321.3 1254.6281,321.3 Q1253.2781,321.3 1252.1953,320.7656 Q1251.3234,320.3438 1250.7047,319.4297 Q1250.1,318.5156 1250.1,317.4328 L1250.1,316.4484 Q1250.1,315.3234 1250.6344,314.3391 Q1251.1828,313.3547 1252.125,312.8344 Q1253.0813,312.3 1254.15,312.3 Q1254.7969,312.3 1255.3594,312.525 Q1255.9219,312.75 1256.4,313.2 Z " fill="#000000"/><text fill="#000000" font-family="sans-serif" font-size="10.8" lengthAdjust="spacing" textLength="37.8" x="1267.2" y="320.7691">Country</text><line style="stroke:#A80036;stroke-width:1.35;" x1="1242" x2="1306.8" y1="330.75" y2="330.75"/><text fill="#000000" font-family="sans-serif" font-size="9.9" lengthAdjust="spacing" textLength="27" x="1246.5" y="344.6271">-name</text><text fill="#000000" font-family="sans-serif" font-size="9.9" lengthAdjust="spacing" textLength="43.2" x="1246.5" y="357.0794">-continent</text><!--MD5=[9febfb2ff9adfe183e01ff702b9c1c02]
class PlaceLocation--><rect codeLine="67" fill="#FEFECE" filter="url(#fnkgukhgwwhaw)" height="60.9047" id="PlaceLocation" style="stroke:#A80036;stroke-width:1.35;" width="99" x="1055.7" y="301.95"/><ellipse cx="1069.2" cy="316.35" fill="#ADD1B2" rx="9.9" ry="9.9" style="stroke:#A80036;stroke-width:0.9;"/><path d="M1071,313.2 Q1071.1828,312.75 1071.3938,312.525 Q1071.6047,312.3 1071.8438,312.3 Q1072.2656,312.3 1072.5328,312.5531 Q1072.8,312.8063 1072.8,313.3969 L1072.8,314.8031 Q1072.8,315.3938 1072.5469,315.6469 Q1072.2938,315.9 1071.9,315.9 Q1071.5484,315.9 1071.3234,315.7453 Q1071.0984,315.5906 1071,315.1828 Q1070.9578,314.9016 1070.8031,314.7469 Q1070.5219,314.4516 1070.0156,314.2828 Q1069.5094,314.1 1069.0031,314.1 Q1068.3703,314.1 1067.8359,314.3531 Q1067.3156,314.6063 1066.9078,315.1688 Q1066.5,315.7313 1066.5,316.5047 L1066.5,317.3344 Q1066.5,318.2625 1067.2594,318.8813 Q1068.0188,319.5 1069.3688,319.5 Q1070.1703,319.5 1070.7328,319.3172 Q1071.0563,319.2188 1071.4219,318.8953 Q1071.6609,318.7125 1071.7875,318.6563 Q1071.9141,318.6 1072.0688,318.6 Q1072.3641,318.6 1072.575,318.8391 Q1072.8,319.0641 1072.8,319.3875 Q1072.8,319.6969 1072.4906,320.0625 Q1072.0406,320.5969 1071.3234,320.8922 Q1070.3813,321.3 1069.2281,321.3 Q1067.8781,321.3 1066.7953,320.7656 Q1065.9234,320.3438 1065.3047,319.4297 Q1064.7,318.5156 1064.7,317.4328 L1064.7,316.4484 Q1064.7,315.3234 1065.2344,314.3391 Q1065.7828,313.3547 1066.725,312.8344 Q1067.6813,312.3 1068.75,312.3 Q1069.3969,312.3 1069.9594,312.525 Q1070.5219,312.75 1071,313.2 Z " fill="#000000"/><text fill="#000000" font-family="sans-serif" font-size="10.8" lengthAdjust="spacing" textLength="70.2" x="1081.8" y="320.7691">PlaceLocation</text><line style="stroke:#A80036;stroke-width:1.35;" x1="1056.6" x2="1153.8" y1="330.75" y2="330.75"/><text fill="#000000" font-family="sans-serif" font-size="9.9" lengthAdjust="spacing" textLength="34.2" x="1061.1" y="344.6271">-latitude</text><text fill="#000000" font-family="sans-serif" font-size="9.9" lengthAdjust="spacing" textLength="42.3" x="1061.1" y="357.0794">-longitude</text><!--MD5=[efa7c3600894dd6faaa8b816738c33b1]
class ShipLocation--><rect codeLine="72" fill="#FEFECE" filter="url(#fnkgukhgwwhaw)" height="135.6188" id="ShipLocation" style="stroke:#A80036;stroke-width:1.35;" width="93.6" x="414" y="6.3"/><ellipse cx="427.5" cy="20.7" fill="#ADD1B2" rx="9.9" ry="9.9" style="stroke:#A80036;stroke-width:0.9;"/><path d="M429.3,17.55 Q429.4828,17.1 429.6938,16.875 Q429.9047,16.65 430.1438,16.65 Q430.5656,16.65 430.8328,16.9031 Q431.1,17.1563 431.1,17.7469 L431.1,19.1531 Q431.1,19.7438 430.8469,19.9969 Q430.5938,20.25 430.2,20.25 Q429.8484,20.25 429.6234,20.0953 Q429.3984,19.9406 429.3,19.5328 Q429.2578,19.2516 429.1031,19.0969 Q428.8219,18.8016 428.3156,18.6328 Q427.8094,18.45 427.3031,18.45 Q426.6703,18.45 426.1359,18.7031 Q425.6156,18.9563 425.2078,19.5188 Q424.8,20.0813 424.8,20.8547 L424.8,21.6844 Q424.8,22.6125 425.5594,23.2313 Q426.3188,23.85 427.6688,23.85 Q428.4703,23.85 429.0328,23.6672 Q429.3563,23.5688 429.7219,23.2453 Q429.9609,23.0625 430.0875,23.0063 Q430.2141,22.95 430.3688,22.95 Q430.6641,22.95 430.875,23.1891 Q431.1,23.4141 431.1,23.7375 Q431.1,24.0469 430.7906,24.4125 Q430.3406,24.9469 429.6234,25.2422 Q428.6813,25.65 427.5281,25.65 Q426.1781,25.65 425.0953,25.1156 Q424.2234,24.6938 423.6047,23.7797 Q423,22.8656 423,21.7828 L423,20.7984 Q423,19.6734 423.5344,18.6891 Q424.0828,17.7047 425.025,17.1844 Q425.9813,16.65 427.05,16.65 Q427.6969,16.65 428.2594,16.875 Q428.8219,17.1 429.3,17.55 Z " fill="#000000"/><text fill="#000000" font-family="sans-serif" font-size="10.8" lengthAdjust="spacing" textLength="64.8" x="440.1" y="25.1191">ShipLocation</text><line style="stroke:#A80036;stroke-width:1.35;" x1="414.9" x2="506.7" y1="35.1" y2="35.1"/><text fill="#000000" font-family="sans-serif" font-size="9.9" lengthAdjust="spacing" textLength="64.8" x="419.4" y="48.9771">-baseDateTime</text><text fill="#000000" font-family="sans-serif" font-size="9.9" lengthAdjust="spacing" textLength="34.2" x="419.4" y="61.4294">-latitude</text><text fill="#000000" font-family="sans-serif" font-size="9.9" lengthAdjust="spacing" textLength="42.3" x="419.4" y="73.8817">-longitude</text><text fill="#000000" font-family="sans-serif" font-size="9.9" lengthAdjust="spacing" textLength="19.8" x="419.4" y="86.3341">-sog</text><text fill="#000000" font-family="sans-serif" font-size="9.9" lengthAdjust="spacing" textLength="19.8" x="419.4" y="98.7864">-cog</text><text fill="#000000" font-family="sans-serif" font-size="9.9" lengthAdjust="spacing" textLength="37.8" x="419.4" y="111.2388">-heading</text><text fill="#000000" font-family="sans-serif" font-size="9.9" lengthAdjust="spacing" textLength="36.9" x="419.4" y="123.6911">-position</text><text fill="#000000" font-family="sans-serif" font-size="9.9" lengthAdjust="spacing" textLength="53.1" x="419.4" y="136.1435">-transceiver</text><!--MD5=[d729e47c8b99010fceb84b610067730f]
link CargoManifest to Ports--><path codeLine="83" d="M724.698,331.758 C765.873,319.167 823.284,301.608 859.23,290.619 " fill="none" id="CargoManifest-Ports" style="stroke:#A80036;stroke-width:0.9;"/><polygon fill="#000000" points="760.3033,291.7923,751.7451,291.6434,753.292,296.7022,760.3033,291.7923" style="stroke:#000000;stroke-width:0.9;"/><text fill="#000000" font-family="sans-serif" font-size="11.7" lengthAdjust="spacing" textLength="58.5" x="764.1" y="297.8956">delivered at</text><text fill="#000000" font-family="sans-serif" font-size="11.7" lengthAdjust="spacing" textLength="4.5" x="731.7995" y="342.8609">*</text><text fill="#000000" font-family="sans-serif" font-size="11.7" lengthAdjust="spacing" textLength="18" x="834.302" y="305.5975">1..*</text><!--MD5=[1007fce2994c0804f23855fbfd3e6bbd]
link CargoManifest to Warehouse--><path codeLine="84" d="M724.698,354.141 C762.615,359.622 814.284,367.092 850.293,372.303 " fill="none" id="CargoManifest-Warehouse" style="stroke:#A80036;stroke-width:0.9;"/><polygon fill="#000000" points="760.4537,350.4522,752.7755,346.6694,752.0183,351.905,760.4537,350.4522" style="stroke:#000000;stroke-width:0.9;"/><text fill="#000000" font-family="sans-serif" font-size="11.7" lengthAdjust="spacing" textLength="58.5" x="764.1" y="354.5956">delivered at</text><text fill="#000000" font-family="sans-serif" font-size="11.7" lengthAdjust="spacing" textLength="4.5" x="731.7995" y="368.2516">*</text><text fill="#000000" font-family="sans-serif" font-size="11.7" lengthAdjust="spacing" textLength="18" x="825.2508" y="384.6312">1..*</text><!--MD5=[37a14a5de6d6fd738aee271300f4b5c8]
link Company to Ship--><path codeLine="86" d="M82.917,214.65 C108.639,214.65 143.406,214.65 173.322,214.65 " fill="none" id="Company-Ship" style="stroke:#A80036;stroke-width:0.9;"/><polygon fill="#000000" points="120.15,206.7082,112.0094,204.0632,112.0094,209.3532,120.15,206.7082" style="stroke:#000000;stroke-width:0.9;"/><text fill="#000000" font-family="sans-serif" font-size="11.7" lengthAdjust="spacing" textLength="20.7" x="123.75" y="211.4956">own</text><text fill="#000000" font-family="sans-serif" font-size="11.7" lengthAdjust="spacing" textLength="6.3" x="90.0527" y="228.073">1</text><text fill="#000000" font-family="sans-serif" font-size="11.7" lengthAdjust="spacing" textLength="18" x="148.6082" y="227.4658">1..*</text><!--MD5=[683ea96df93176af8455607a7c1d2a32]
link Company to TrafficManager--><path codeLine="87" d="M74.025,190.278 C99.567,168.876 138.303,137.304 173.7,112.05 C180.819,106.974 188.568,101.799 196.11,96.939 " fill="none" id="Company-TrafficManager" style="stroke:#A80036;stroke-width:0.9;"/><polygon fill="#000000" points="117.8749,122.075,109.8013,124.9181,113.0144,129.1206,117.8749,122.075" style="stroke:#000000;stroke-width:0.9;"/><text fill="#000000" font-family="sans-serif" font-size="11.7" lengthAdjust="spacing" textLength="23.4" x="122.4" y="129.5956">have</text><text fill="#000000" font-family="sans-serif" font-size="11.7" lengthAdjust="spacing" textLength="6.3" x="74.1417" y="180.3845">1</text><text fill="#000000" font-family="sans-serif" font-size="11.7" lengthAdjust="spacing" textLength="18" x="167.1638" y="116.0673">1..*</text><!--MD5=[710b10ea314ec23c5eb602bd01bfa9d5]
link Company to Truck--><path codeLine="88" d="M72.837,239.04 C98.055,260.892 137.016,293.112 173.7,317.25 C184.905,324.621 197.901,331.758 209.142,337.509 " fill="none" id="Company-Truck" style="stroke:#A80036;stroke-width:0.9;"/><polygon fill="#000000" points="119.2977,266.0434,114.2478,259.1322,111.15,263.4204,119.2977,266.0434" style="stroke:#000000;stroke-width:0.9;"/><text fill="#000000" font-family="sans-serif" font-size="11.7" lengthAdjust="spacing" textLength="20.7" x="123.75" y="268.1956">own</text><text fill="#000000" font-family="sans-serif" font-size="11.7" lengthAdjust="spacing" textLength="6.3" x="72.0357" y="258.1467">1</text><text fill="#000000" font-family="sans-serif" font-size="11.7" lengthAdjust="spacing" textLength="18" x="184.0874" y="348.5713">1..*</text><!--MD5=[a27713cdd7694cea32c8be89a3131559]
link Containers to CargoManifest--><path codeLine="90" d="M505.008,346.95 C539.451,346.95 587.664,346.95 623.646,346.95 " fill="none" id="Containers-CargoManifest" style="stroke:#A80036;stroke-width:0.9;"/><polygon fill="#000000" points="543.6,339.0082,535.4594,336.3632,535.4594,341.6532,543.6,339.0082" style="stroke:#000000;stroke-width:0.9;"/><text fill="#000000" font-family="sans-serif" font-size="11.7" lengthAdjust="spacing" textLength="48.6" x="547.2" y="343.7956">related to</text><text fill="#000000" font-family="sans-serif" font-size="11.7" lengthAdjust="spacing" textLength="18" x="512.1578" y="360.0825">1..*</text><text fill="#000000" font-family="sans-serif" font-size="11.7" lengthAdjust="spacing" textLength="18" x="598.4" y="360.0014">1..*</text><!--MD5=[c7fc6f07f2489647d2a3f83969f89660]
link Containers to Ports--><path codeLine="91" d="M505.026,332.181 C514.701,329.121 524.952,326.07 534.6,323.55 C629.775,298.683 653.625,289.305 751.5,279.45 C783.342,276.246 791.505,279.243 823.5,279.45 C835.173,279.531 847.944,279.675 859.311,279.828 " fill="none" id="Containers-Ports" style="stroke:#A80036;stroke-width:0.9;"/><polygon fill="#000000" points="663.2517,273.5504,654.8119,272.1238,655.5852,277.357,663.2517,273.5504" style="stroke:#000000;stroke-width:0.9;"/><text fill="#000000" font-family="sans-serif" font-size="11.7" lengthAdjust="spacing" textLength="26.1" x="666.9" y="278.9956">store</text><text fill="#000000" font-family="sans-serif" font-size="11.7" lengthAdjust="spacing" textLength="18" x="512.1782" y="343.3289">0..*</text><text fill="#000000" font-family="sans-serif" font-size="11.7" lengthAdjust="spacing" textLength="6.3" x="846.0897" y="293.2613">1</text><!--MD5=[40d84d2acc82335a7c6decf41782281a]
link Containers to Warehouse--><path codeLine="92" d="M504.99,366.597 C537.021,380.007 582.129,396.585 623.7,403.65 C703.152,417.15 797.121,401.193 850.365,389.232 " fill="none" id="Containers-Warehouse" style="stroke:#A80036;stroke-width:0.9;"/><polygon fill="#000000" points="663.2904,396.0025,655.3402,392.8307,654.9942,398.1095,663.2904,396.0025" style="stroke:#000000;stroke-width:0.9;"/><text fill="#000000" font-family="sans-serif" font-size="11.7" lengthAdjust="spacing" textLength="26.1" x="666.9" y="400.4956">store</text><text fill="#000000" font-family="sans-serif" font-size="11.7" lengthAdjust="spacing" textLength="18" x="512.1374" y="382.3695">0..*</text><text fill="#000000" font-family="sans-serif" font-size="11.7" lengthAdjust="spacing" textLength="6.3" x="836.947" y="404.1779">1</text><!--MD5=[3d04185e7085eaaeba7ebd93b9963be0]
link PlaceLocation to Country--><path codeLine="94" d="M1154.745,332.55 C1182.447,332.55 1216.413,332.55 1240.902,332.55 " fill="none" id="PlaceLocation-Country" style="stroke:#A80036;stroke-width:0.9;"/><polygon fill="#000000" points="1190.7,324.6082,1182.5594,321.9632,1182.5594,327.2532,1190.7,324.6082" style="stroke:#000000;stroke-width:0.9;"/><text fill="#000000" font-family="sans-serif" font-size="11.7" lengthAdjust="spacing" textLength="18.9" x="1194.3" y="329.3956">in a</text><text fill="#000000" font-family="sans-serif" font-size="11.7" lengthAdjust="spacing" textLength="4.5" x="1162.0287" y="345.7511">*</text><text fill="#000000" font-family="sans-serif" font-size="11.7" lengthAdjust="spacing" textLength="6.3" x="1227.616" y="346.1264">1</text><!--MD5=[aaa368e4b832683362a5bdda330bd90d]
link Ports to PlaceLocation--><path codeLine="96" d="M928.062,288.684 C962.406,297.225 1016.208,310.626 1055.34,320.364 " fill="none" id="Ports-PlaceLocation" style="stroke:#A80036;stroke-width:0.9;"/><polygon fill="#000000" points="972.7668,291.4951,965.5061,286.9622,964.2283,292.0956,972.7668,291.4951" style="stroke:#000000;stroke-width:0.9;"/><text fill="#000000" font-family="sans-serif" font-size="11.7" lengthAdjust="spacing" textLength="51.3" x="976.5" y="295.1956">located at</text><text fill="#000000" font-family="sans-serif" font-size="11.7" lengthAdjust="spacing" textLength="6.3" x="935.2127" y="303.8491">1</text><text fill="#000000" font-family="sans-serif" font-size="11.7" lengthAdjust="spacing" textLength="6.3" x="1042.2481" y="331.91">1</text><!--MD5=[cff4e3c6ede03364cf99bd3378be6b6a]
link Ship to Containers--><path codeLine="98" d="M300.735,252.036 C337.761,274.113 383.706,301.509 416.691,321.183 " fill="none" id="Ship-Containers" style="stroke:#A80036;stroke-width:0.9;"/><polygon fill="#000000" points="335.965,263.013,330.3279,256.5718,327.6185,261.1154,335.965,263.013" style="stroke:#000000;stroke-width:0.9;"/><text fill="#000000" font-family="sans-serif" font-size="11.7" lengthAdjust="spacing" textLength="45.9" x="340.2" y="265.4956">transport</text><text fill="#000000" font-family="sans-serif" font-size="11.7" lengthAdjust="spacing" textLength="6.3" x="307.617" y="268.7868">1</text><text fill="#000000" font-family="sans-serif" font-size="11.7" lengthAdjust="spacing" textLength="18" x="391.5545" y="330.853">1..*</text><!--MD5=[b5e7d3b323f2cd13b2215620f50e65f3]
link Ship to Ports--><path codeLine="99" d="M300.798,213.291 C408.825,212.211 636.372,215.478 823.5,255.15 C835.398,257.67 848.007,261.792 859.167,265.977 " fill="none" id="Ship-Ports" style="stroke:#A80036;stroke-width:0.9;"/><polygon fill="#000000" points="555.2801,211.6309,547.424,208.2329,546.927,213.4995,555.2801,211.6309" style="stroke:#000000;stroke-width:0.9;"/><text fill="#000000" font-family="sans-serif" font-size="11.7" lengthAdjust="spacing" textLength="25.2" x="558.9" y="215.9956">dock</text><text fill="#000000" font-family="sans-serif" font-size="11.7" lengthAdjust="spacing" textLength="18" x="307.7223" y="226">0..*</text><text fill="#000000" font-family="sans-serif" font-size="11.7" lengthAdjust="spacing" textLength="6.3" x="845.9192" y="259.8015">1</text><!--MD5=[5541ef512584d1243c10a7f3b3317e1c]
link Ship to ShipLocation--><path codeLine="100" d="M300.735,174.978 C336.735,152.199 381.168,124.083 413.928,103.347 " fill="none" id="Ship-ShipLocation" style="stroke:#A80036;stroke-width:0.9;"/><polygon fill="#000000" points="349.4026,113.4019,341.1092,115.5199,343.9381,119.9901,349.4026,113.4019" style="stroke:#000000;stroke-width:0.9;"/><text fill="#000000" font-family="sans-serif" font-size="11.7" lengthAdjust="spacing" textLength="18.9" x="353.7" y="120.5956">has</text><text fill="#000000" font-family="sans-serif" font-size="11.7" lengthAdjust="spacing" textLength="6.3" x="307.617" y="183.7822">1</text><text fill="#000000" font-family="sans-serif" font-size="11.7" lengthAdjust="spacing" textLength="18" x="388.7694" y="120.1814">1..*</text><!--MD5=[1acbea49718d4a103d0265f6d40a2097]
link TrafficManager to ShipLocation--><path codeLine="102" d="M288.117,72.855 C325.818,73.161 377.1,73.584 413.802,73.881 " fill="none" id="TrafficManager-ShipLocation" style="stroke:#A80036;stroke-width:0.9;"/><polygon fill="#000000" points="338.8499,65.4449,330.7311,62.7335,330.688,68.0234,338.8499,65.4449" style="stroke:#000000;stroke-width:0.9;"/><text fill="#000000" font-family="sans-serif" font-size="11.7" lengthAdjust="spacing" textLength="41.4" x="342.45" y="70.1956">controls</text><text fill="#000000" font-family="sans-serif" font-size="11.7" lengthAdjust="spacing" textLength="6.3" x="295.0507" y="86.0047">1</text><text fill="#000000" font-family="sans-serif" font-size="11.7" lengthAdjust="spacing" textLength="18" x="388.6273" y="86.9401">1..*</text><!--MD5=[8cef3b8bb432fdc493768abc58cade76]
link Truck to Containers--><path codeLine="104" d="M265.257,350.109 C302.976,349.497 371.574,348.381 416.43,347.661 " fill="none" id="Truck-Containers" style="stroke:#A80036;stroke-width:0.9;"/><polygon fill="#000000" points="336.5994,339.8353,328.4171,337.3225,328.5027,342.6118,336.5994,339.8353" style="stroke:#000000;stroke-width:0.9;"/><text fill="#000000" font-family="sans-serif" font-size="11.7" lengthAdjust="spacing" textLength="45.9" x="340.2" y="344.6956">transport</text><text fill="#000000" font-family="sans-serif" font-size="11.7" lengthAdjust="spacing" textLength="6.3" x="272.0945" y="363.7677">1</text><text fill="#000000" font-family="sans-serif" font-size="11.7" lengthAdjust="spacing" textLength="18" x="391.592" y="360.8387">1..*</text><!--MD5=[668bfb6c3cf503ab645d5414a0ff2b4e]
link Truck to Warehouse--><path codeLine="105" d="M259.299,368.577 C290.682,393.912 352.404,438.831 414,455.85 C515.088,483.786 722.007,442.404 823.5,411.75 C832.446,409.05 841.68,405.333 850.374,401.364 " fill="none" id="Truck-Warehouse" style="stroke:#A80036;stroke-width:0.9;"/><polygon fill="#000000" points="556.6431,450.8574,548.6615,447.7656,548.3685,453.0475,556.6431,450.8574" style="stroke:#000000;stroke-width:0.9;"/><text fill="#000000" font-family="sans-serif" font-size="11.7" lengthAdjust="spacing" textLength="22.5" x="560.25" y="455.3956">park</text><text fill="#000000" font-family="sans-serif" font-size="11.7" lengthAdjust="spacing" textLength="18" x="244.9972" y="387.8622">0..*</text><text fill="#000000" font-family="sans-serif" font-size="11.7" lengthAdjust="spacing" textLength="6.3" x="836.9574" y="418.1676">1</text><!--MD5=[591625470abc4a5f324d9b49d40e13b3]
link Warehouse to PlaceLocation--><path codeLine="107" d="M936.981,370.44 C963.423,365.31 998.118,358.353 1028.7,351.45 C1037.412,349.488 1046.655,347.283 1055.574,345.087 " fill="none" id="Warehouse-PlaceLocation" style="stroke:#A80036;stroke-width:0.9;"/><polygon fill="#000000" points="972.8006,342.5674,964.2869,341.6827,965.3928,346.8559,972.8006,342.5674" style="stroke:#000000;stroke-width:0.9;"/><text fill="#000000" font-family="sans-serif" font-size="11.7" lengthAdjust="spacing" textLength="51.3" x="976.5" y="348.2956">located at</text><text fill="#000000" font-family="sans-serif" font-size="11.7" lengthAdjust="spacing" textLength="6.3" x="944.0907" y="382.5084">1</text><text fill="#000000" font-family="sans-serif" font-size="11.7" lengthAdjust="spacing" textLength="6.3" x="1042.1822" y="359.9259">1</text><!--MD5=[4f5ed59dfe2a9e4f48ec205894e6a4d7]
@startuml
'https://plantuml.com/class-diagram

hide methods
left to right direction
skinparam classAttributeIconSize 0

class Company {
-designation
}

class TrafficManager {
-name
}

class Containers {
-x
-y
-z
-containerNumber
-checkDigit
-isoCode
-width
-height
-length
-payLoad
-tare
-gross
}

class CargoManifest {
-containerNumber
}

class Ship {
-mmsiCode
-name
-imoCode
-numberEnergyGenerators
-generatorPower
-callSign
-vesselType
-length
-width
-capacity
-draft
}

class Ports {
-identification
-name
}

class Truck {

}

class Warehouse {
-identification
-name
}

class Country {
-name
-continent
}

class PlaceLocation {
-latitude
-longitude
}

class ShipLocation {
-baseDateTime
-latitude
-longitude
-sog
-cog
-heading
-position
-transceiver
}

CargoManifest "*" - - "1..*" Ports : delivered at >
CargoManifest "*" - - "1..*" Warehouse : delivered at >

Company "1"- -"1..*" Ship: own >
Company "1"- -"1..*" TrafficManager: have >
Company "1"- -"1..*" Truck: own >

Containers "1..*"- -"1..*" CargoManifest: related to >
Containers "0..*"- -"1" Ports: store >
Containers "0..*"- -"1" Warehouse: store >

PlaceLocation "*" - - "1" Country : in a >

Ports "1" - - "1" PlaceLocation : located at >

Ship "1"- -"1..*" Containers : transport >
Ship "0..*"- -"1" Ports: dock >
Ship "1" - - "1..*" ShipLocation : has >

TrafficManager "1" - - "1..*" ShipLocation : controls >

Truck "1"- -"1..*" Containers : transport >
Truck "0..*"- -"1" Warehouse: park >

Warehouse "1" - - "1" PlaceLocation : located at >





@enduml

@startuml

hide methods
left to right direction
skinparam classAttributeIconSize 0

class Company {
-designation
}

class TrafficManager {
-name
}

class Containers {
-x
-y
-z
-containerNumber
-checkDigit
-isoCode
-width
-height
-length
-payLoad
-tare
-gross
}

class CargoManifest {
-containerNumber
}

class Ship {
-mmsiCode
-name
-imoCode
-numberEnergyGenerators
-generatorPower
-callSign
-vesselType
-length
-width
-capacity
-draft
}

class Ports {
-identification
-name
}

class Truck {

}

class Warehouse {
-identification
-name
}

class Country {
-name
-continent
}

class PlaceLocation {
-latitude
-longitude
}

class ShipLocation {
-baseDateTime
-latitude
-longitude
-sog
-cog
-heading
-position
-transceiver
}

CargoManifest "*" - - "1..*" Ports : delivered at >
CargoManifest "*" - - "1..*" Warehouse : delivered at >

Company "1"- -"1..*" Ship: own >
Company "1"- -"1..*" TrafficManager: have >
Company "1"- -"1..*" Truck: own >

Containers "1..*"- -"1..*" CargoManifest: related to >
Containers "0..*"- -"1" Ports: store >
Containers "0..*"- -"1" Warehouse: store >

PlaceLocation "*" - - "1" Country : in a >

Ports "1" - - "1" PlaceLocation : located at >

Ship "1"- -"1..*" Containers : transport >
Ship "0..*"- -"1" Ports: dock >
Ship "1" - - "1..*" ShipLocation : has >

TrafficManager "1" - - "1..*" ShipLocation : controls >

Truck "1"- -"1..*" Containers : transport >
Truck "0..*"- -"1" Warehouse: park >

Warehouse "1" - - "1" PlaceLocation : located at >





@enduml

PlantUML version 1.2021.5(Sun Apr 25 12:20:28 BST 2021)
(GPL source distribution)
Java Runtime: OpenJDK Runtime Environment
JVM: Dynamic Code Evolution 64-Bit Server VM
Default Encoding: Cp1252
Language: pt
Country: PT
--></g></svg>