<?xml version="1.0" encoding="UTF-8" standalone="no"?><svg xmlns="http://www.w3.org/2000/svg" xmlns:xlink="http://www.w3.org/1999/xlink" contentScriptType="application/ecmascript" contentStyleType="text/css" height="759.2px" preserveAspectRatio="none" style="width:1357px;height:759px;background:#FFFFFF;" version="1.1" viewBox="0 0 1357 759" width="1357.6px" zoomAndPan="magnify"><defs><filter height="300%" id="fp3tlh5mr5xou" width="300%" x="-1" y="-1"><feGaussianBlur result="blurOut" stdDeviation="1.6000000000000003"/><feColorMatrix in="blurOut" result="blurOut2" type="matrix" values="0 0 0 0 0 0 0 0 0 0 0 0 0 0 0 0 0 0 .4 0"/><feOffset dx="3.2000000000000006" dy="3.2000000000000006" in="blurOut2" result="blurOut3"/><feBlend in="SourceGraphic" in2="blurOut3" mode="normal"/></filter></defs><g><!--MD5=[02e4b9b7573f1156f41e60aa5b4e25a4]
class Company--><rect codeLine="7" fill="#FEFECE" filter="url(#fp3tlh5mr5xou)" height="43.0688" id="Company" style="stroke:#A80036;stroke-width:1.2000000000000002;" width="68" x="5.6" y="220.064"/><ellipse cx="17.6" cy="232.864" fill="#ADD1B2" rx="8.8" ry="8.8" style="stroke:#A80036;stroke-width:0.8000000000000002;"/><path d="M19.2,230.064 Q19.3625,229.664 19.55,229.464 Q19.7375,229.264 19.95,229.264 Q20.325,229.264 20.5625,229.489 Q20.8,229.714 20.8,230.239 L20.8,231.489 Q20.8,232.014 20.575,232.239 Q20.35,232.464 20,232.464 Q19.6875,232.464 19.4875,232.3265 Q19.2875,232.189 19.2,231.8265 Q19.1625,231.5765 19.025,231.439 Q18.775,231.1765 18.325,231.0265 Q17.875,230.864 17.425,230.864 Q16.8625,230.864 16.3875,231.089 Q15.925,231.314 15.5625,231.814 Q15.2,232.314 15.2,233.0015 L15.2,233.739 Q15.2,234.564 15.875,235.114 Q16.55,235.664 17.75,235.664 Q18.4625,235.664 18.9625,235.5015 Q19.25,235.414 19.575,235.1265 Q19.7875,234.964 19.9,234.914 Q20.0125,234.864 20.15,234.864 Q20.4125,234.864 20.6,235.0765 Q20.8,235.2765 20.8,235.564 Q20.8,235.839 20.525,236.164 Q20.125,236.639 19.4875,236.9015 Q18.65,237.264 17.625,237.264 Q16.425,237.264 15.4625,236.789 Q14.6875,236.414 14.1375,235.6015 Q13.6,234.789 13.6,233.8265 L13.6,232.9515 Q13.6,231.9515 14.075,231.0765 Q14.5625,230.2015 15.4,229.739 Q16.25,229.264 17.2,229.264 Q17.775,229.264 18.275,229.464 Q18.775,229.664 19.2,230.064 Z " fill="#000000"/><text fill="#000000" font-family="sans-serif" font-size="9.6" lengthAdjust="spacing" textLength="42.4" x="28.8" y="236.7921">Company</text><line style="stroke:#A80036;stroke-width:1.2000000000000002;" x1="6.4" x2="72.8" y1="245.664" y2="245.664"/><text fill="#000000" font-family="sans-serif" font-size="8.8" lengthAdjust="spacing" textLength="47.2" x="10.4" y="257.9992">-designation</text><!--MD5=[7421f545a0d8420c5bec41e74b387d9c]
class Employee--><rect codeLine="11" fill="#FEFECE" filter="url(#fp3tlh5mr5xou)" height="43.0688" id="Employee" style="stroke:#A80036;stroke-width:1.2000000000000002;" width="69.6" x="176" y="220.064"/><ellipse cx="188" cy="232.864" fill="#ADD1B2" rx="8.8" ry="8.8" style="stroke:#A80036;stroke-width:0.8000000000000002;"/><path d="M189.6,230.064 Q189.7625,229.664 189.95,229.464 Q190.1375,229.264 190.35,229.264 Q190.725,229.264 190.9625,229.489 Q191.2,229.714 191.2,230.239 L191.2,231.489 Q191.2,232.014 190.975,232.239 Q190.75,232.464 190.4,232.464 Q190.0875,232.464 189.8875,232.3265 Q189.6875,232.189 189.6,231.8265 Q189.5625,231.5765 189.425,231.439 Q189.175,231.1765 188.725,231.0265 Q188.275,230.864 187.825,230.864 Q187.2625,230.864 186.7875,231.089 Q186.325,231.314 185.9625,231.814 Q185.6,232.314 185.6,233.0015 L185.6,233.739 Q185.6,234.564 186.275,235.114 Q186.95,235.664 188.15,235.664 Q188.8625,235.664 189.3625,235.5015 Q189.65,235.414 189.975,235.1265 Q190.1875,234.964 190.3,234.914 Q190.4125,234.864 190.55,234.864 Q190.8125,234.864 191,235.0765 Q191.2,235.2765 191.2,235.564 Q191.2,235.839 190.925,236.164 Q190.525,236.639 189.8875,236.9015 Q189.05,237.264 188.025,237.264 Q186.825,237.264 185.8625,236.789 Q185.0875,236.414 184.5375,235.6015 Q184,234.789 184,233.8265 L184,232.9515 Q184,231.9515 184.475,231.0765 Q184.9625,230.2015 185.8,229.739 Q186.65,229.264 187.6,229.264 Q188.175,229.264 188.675,229.464 Q189.175,229.664 189.6,230.064 Z " fill="#000000"/><text fill="#000000" font-family="sans-serif" font-size="9.6" lengthAdjust="spacing" textLength="44" x="199.2" y="236.7921">Employee</text><line style="stroke:#A80036;stroke-width:1.2000000000000002;" x1="176.8" x2="244.8" y1="245.664" y2="245.664"/><text fill="#000000" font-family="sans-serif" font-size="8.8" lengthAdjust="spacing" textLength="24" x="180.8" y="257.9992">-name</text><!--MD5=[a3093aa9f96b7df9aab31d8715601ff6]
class Containers--><rect codeLine="15" fill="#FEFECE" filter="url(#fp3tlh5mr5xou)" height="142.6875" id="Containers" style="stroke:#A80036;stroke-width:1.2000000000000002;" width="78.4" x="526.4" y="539.264"/><ellipse cx="540.2" cy="552.064" fill="#ADD1B2" rx="8.8" ry="8.8" style="stroke:#A80036;stroke-width:0.8000000000000002;"/><path d="M541.8,549.264 Q541.9625,548.864 542.15,548.664 Q542.3375,548.464 542.55,548.464 Q542.925,548.464 543.1625,548.689 Q543.4,548.914 543.4,549.439 L543.4,550.689 Q543.4,551.214 543.175,551.439 Q542.95,551.664 542.6,551.664 Q542.2875,551.664 542.0875,551.5265 Q541.8875,551.389 541.8,551.0265 Q541.7625,550.7765 541.625,550.639 Q541.375,550.3765 540.925,550.2265 Q540.475,550.064 540.025,550.064 Q539.4625,550.064 538.9875,550.289 Q538.525,550.514 538.1625,551.014 Q537.8,551.514 537.8,552.2015 L537.8,552.939 Q537.8,553.764 538.475,554.314 Q539.15,554.864 540.35,554.864 Q541.0625,554.864 541.5625,554.7015 Q541.85,554.614 542.175,554.3265 Q542.3875,554.164 542.5,554.114 Q542.6125,554.064 542.75,554.064 Q543.0125,554.064 543.2,554.2765 Q543.4,554.4765 543.4,554.764 Q543.4,555.039 543.125,555.364 Q542.725,555.839 542.0875,556.1015 Q541.25,556.464 540.225,556.464 Q539.025,556.464 538.0625,555.989 Q537.2875,555.614 536.7375,554.8015 Q536.2,553.989 536.2,553.0265 L536.2,552.1515 Q536.2,551.1515 536.675,550.2765 Q537.1625,549.4015 538,548.939 Q538.85,548.464 539.8,548.464 Q540.375,548.464 540.875,548.664 Q541.375,548.864 541.8,549.264 Z " fill="#000000"/><text fill="#000000" font-family="sans-serif" font-size="9.6" lengthAdjust="spacing" textLength="48.8" x="551.8" y="555.9921">Containers</text><line style="stroke:#A80036;stroke-width:1.2000000000000002;" x1="527.2" x2="604" y1="564.864" y2="564.864"/><text fill="#000000" font-family="sans-serif" font-size="8.8" lengthAdjust="spacing" textLength="8" x="531.2" y="577.1992">-x</text><text fill="#000000" font-family="sans-serif" font-size="8.8" lengthAdjust="spacing" textLength="8" x="531.2" y="588.2679">-y</text><text fill="#000000" font-family="sans-serif" font-size="8.8" lengthAdjust="spacing" textLength="8" x="531.2" y="599.3367">-z</text><text fill="#000000" font-family="sans-serif" font-size="8.8" lengthAdjust="spacing" textLength="68.8" x="531.2" y="610.4054">-containerNumber</text><text fill="#000000" font-family="sans-serif" font-size="8.8" lengthAdjust="spacing" textLength="42.4" x="531.2" y="621.4742">-checkDigit</text><text fill="#000000" font-family="sans-serif" font-size="8.8" lengthAdjust="spacing" textLength="34.4" x="531.2" y="632.5429">-isoCode</text><text fill="#000000" font-family="sans-serif" font-size="8.8" lengthAdjust="spacing" textLength="36.8" x="531.2" y="643.6117">-payLoad</text><text fill="#000000" font-family="sans-serif" font-size="8.8" lengthAdjust="spacing" textLength="18.4" x="531.2" y="654.6804">-tare</text><text fill="#000000" font-family="sans-serif" font-size="8.8" lengthAdjust="spacing" textLength="25.6" x="531.2" y="665.7492">-gross</text><text fill="#000000" font-family="sans-serif" font-size="8.8" lengthAdjust="spacing" textLength="29.6" x="531.2" y="676.8179">-weight</text><!--MD5=[76562047389981627aea27c31a97aff5]
class CargoManifest--><rect codeLine="28" fill="#FEFECE" filter="url(#fp3tlh5mr5xou)" height="109.4813" id="CargoManifest" style="stroke:#A80036;stroke-width:1.2000000000000002;" width="92.8" x="710.4" y="560.464"/><ellipse cx="723.84" cy="573.264" fill="#ADD1B2" rx="8.8" ry="8.8" style="stroke:#A80036;stroke-width:0.8000000000000002;"/><path d="M725.44,570.464 Q725.6025,570.064 725.79,569.864 Q725.9775,569.664 726.19,569.664 Q726.565,569.664 726.8025,569.889 Q727.04,570.114 727.04,570.639 L727.04,571.889 Q727.04,572.414 726.815,572.639 Q726.59,572.864 726.24,572.864 Q725.9275,572.864 725.7275,572.7265 Q725.5275,572.589 725.44,572.2265 Q725.4025,571.9765 725.265,571.839 Q725.015,571.5765 724.565,571.4265 Q724.115,571.264 723.665,571.264 Q723.1025,571.264 722.6275,571.489 Q722.165,571.714 721.8025,572.214 Q721.44,572.714 721.44,573.4015 L721.44,574.139 Q721.44,574.964 722.115,575.514 Q722.79,576.064 723.99,576.064 Q724.7025,576.064 725.2025,575.9015 Q725.49,575.814 725.815,575.5265 Q726.0275,575.364 726.14,575.314 Q726.2525,575.264 726.39,575.264 Q726.6525,575.264 726.84,575.4765 Q727.04,575.6765 727.04,575.964 Q727.04,576.239 726.765,576.564 Q726.365,577.039 725.7275,577.3015 Q724.89,577.664 723.865,577.664 Q722.665,577.664 721.7025,577.189 Q720.9275,576.814 720.3775,576.0015 Q719.84,575.189 719.84,574.2265 L719.84,573.3515 Q719.84,572.3515 720.315,571.4765 Q720.8025,570.6015 721.64,570.139 Q722.49,569.664 723.44,569.664 Q724.015,569.664 724.515,569.864 Q725.015,570.064 725.44,570.464 Z " fill="#000000"/><text fill="#000000" font-family="sans-serif" font-size="9.6" lengthAdjust="spacing" textLength="64" x="735.36" y="577.1921">CargoManifest</text><line style="stroke:#A80036;stroke-width:1.2000000000000002;" x1="711.2" x2="802.4" y1="586.064" y2="586.064"/><text fill="#000000" font-family="sans-serif" font-size="8.8" lengthAdjust="spacing" textLength="64.8" x="715.2" y="598.3992">-listOfContainers</text><text fill="#000000" font-family="sans-serif" font-size="8.8" lengthAdjust="spacing" textLength="20" x="715.2" y="609.4679">-ratio</text><text fill="#000000" font-family="sans-serif" font-size="8.8" lengthAdjust="spacing" textLength="20" x="715.2" y="620.5367">-date</text><text fill="#000000" font-family="sans-serif" font-size="8.8" lengthAdjust="spacing" textLength="42.4" x="715.2" y="631.6054">-mmsiCode</text><text fill="#000000" font-family="sans-serif" font-size="8.8" lengthAdjust="spacing" textLength="9.6" x="715.2" y="642.6742">-id</text><text fill="#000000" font-family="sans-serif" font-size="8.8" lengthAdjust="spacing" textLength="83.2" x="715.2" y="653.7429">-numberOfContainers</text><text fill="#000000" font-family="sans-serif" font-size="8.8" lengthAdjust="spacing" textLength="44.8" x="715.2" y="664.8117">-destination</text><!--MD5=[0dc7f2ddb409b58bcf52b12238c25399]
class Ship--><rect codeLine="38" fill="#FEFECE" filter="url(#fp3tlh5mr5xou)" height="153.7563" id="Ship" style="stroke:#A80036;stroke-width:1.2000000000000002;" width="112.8" x="154.4" y="344.064"/><ellipse cx="197.4" cy="356.864" fill="#ADD1B2" rx="8.8" ry="8.8" style="stroke:#A80036;stroke-width:0.8000000000000002;"/><path d="M199,354.064 Q199.1625,353.664 199.35,353.464 Q199.5375,353.264 199.75,353.264 Q200.125,353.264 200.3625,353.489 Q200.6,353.714 200.6,354.239 L200.6,355.489 Q200.6,356.014 200.375,356.239 Q200.15,356.464 199.8,356.464 Q199.4875,356.464 199.2875,356.3265 Q199.0875,356.189 199,355.8265 Q198.9625,355.5765 198.825,355.439 Q198.575,355.1765 198.125,355.0265 Q197.675,354.864 197.225,354.864 Q196.6625,354.864 196.1875,355.089 Q195.725,355.314 195.3625,355.814 Q195,356.314 195,357.0015 L195,357.739 Q195,358.564 195.675,359.114 Q196.35,359.664 197.55,359.664 Q198.2625,359.664 198.7625,359.5015 Q199.05,359.414 199.375,359.1265 Q199.5875,358.964 199.7,358.914 Q199.8125,358.864 199.95,358.864 Q200.2125,358.864 200.4,359.0765 Q200.6,359.2765 200.6,359.564 Q200.6,359.839 200.325,360.164 Q199.925,360.639 199.2875,360.9015 Q198.45,361.264 197.425,361.264 Q196.225,361.264 195.2625,360.789 Q194.4875,360.414 193.9375,359.6015 Q193.4,358.789 193.4,357.8265 L193.4,356.9515 Q193.4,355.9515 193.875,355.0765 Q194.3625,354.2015 195.2,353.739 Q196.05,353.264 197,353.264 Q197.575,353.264 198.075,353.464 Q198.575,353.664 199,354.064 Z " fill="#000000"/><text fill="#000000" font-family="sans-serif" font-size="9.6" lengthAdjust="spacing" textLength="20" x="213.8" y="360.7921">Ship</text><line style="stroke:#A80036;stroke-width:1.2000000000000002;" x1="155.2" x2="266.4" y1="369.664" y2="369.664"/><text fill="#000000" font-family="sans-serif" font-size="8.8" lengthAdjust="spacing" textLength="42.4" x="159.2" y="381.9992">-mmsiCode</text><text fill="#000000" font-family="sans-serif" font-size="8.8" lengthAdjust="spacing" textLength="36" x="159.2" y="393.0679">-imoCode</text><text fill="#000000" font-family="sans-serif" font-size="8.8" lengthAdjust="spacing" textLength="103.2" x="159.2" y="404.1367">-numberEnergyGenerators</text><text fill="#000000" font-family="sans-serif" font-size="8.8" lengthAdjust="spacing" textLength="66.4" x="159.2" y="415.2054">-generatorPower</text><text fill="#000000" font-family="sans-serif" font-size="8.8" lengthAdjust="spacing" textLength="32.8" x="159.2" y="426.2742">-callSign</text><text fill="#000000" font-family="sans-serif" font-size="8.8" lengthAdjust="spacing" textLength="21.6" x="159.2" y="437.3429">-draft</text><text fill="#000000" font-family="sans-serif" font-size="8.8" lengthAdjust="spacing" textLength="24" x="159.2" y="448.4117">-name</text><text fill="#000000" font-family="sans-serif" font-size="8.8" lengthAdjust="spacing" textLength="54.4" x="159.2" y="459.4804">-vesselTypeId</text><text fill="#000000" font-family="sans-serif" font-size="8.8" lengthAdjust="spacing" textLength="26.4" x="159.2" y="470.5492">-length</text><text fill="#000000" font-family="sans-serif" font-size="8.8" lengthAdjust="spacing" textLength="24.8" x="159.2" y="481.6179">-width</text><text fill="#000000" font-family="sans-serif" font-size="8.8" lengthAdjust="spacing" textLength="36" x="159.2" y="492.6867">-capacity</text><!--MD5=[ea13aecf8df941b18fb8e3885c78c184]
class Ports--><rect codeLine="54" fill="#FEFECE" filter="url(#fp3tlh5mr5xou)" height="54.1375" id="Ports" style="stroke:#A80036;stroke-width:1.2000000000000002;" width="60.8" x="923.2" y="448.864"/><ellipse cx="940.6" cy="461.664" fill="#ADD1B2" rx="8.8" ry="8.8" style="stroke:#A80036;stroke-width:0.8000000000000002;"/><path d="M942.2,458.864 Q942.3625,458.464 942.55,458.264 Q942.7375,458.064 942.95,458.064 Q943.325,458.064 943.5625,458.289 Q943.8,458.514 943.8,459.039 L943.8,460.289 Q943.8,460.814 943.575,461.039 Q943.35,461.264 943,461.264 Q942.6875,461.264 942.4875,461.1265 Q942.2875,460.989 942.2,460.6265 Q942.1625,460.3765 942.025,460.239 Q941.775,459.9765 941.325,459.8265 Q940.875,459.664 940.425,459.664 Q939.8625,459.664 939.3875,459.889 Q938.925,460.114 938.5625,460.614 Q938.2,461.114 938.2,461.8015 L938.2,462.539 Q938.2,463.364 938.875,463.914 Q939.55,464.464 940.75,464.464 Q941.4625,464.464 941.9625,464.3015 Q942.25,464.214 942.575,463.9265 Q942.7875,463.764 942.9,463.714 Q943.0125,463.664 943.15,463.664 Q943.4125,463.664 943.6,463.8765 Q943.8,464.0765 943.8,464.364 Q943.8,464.639 943.525,464.964 Q943.125,465.439 942.4875,465.7015 Q941.65,466.064 940.625,466.064 Q939.425,466.064 938.4625,465.589 Q937.6875,465.214 937.1375,464.4015 Q936.6,463.589 936.6,462.6265 L936.6,461.7515 Q936.6,460.7515 937.075,459.8765 Q937.5625,459.0015 938.4,458.539 Q939.25,458.064 940.2,458.064 Q940.775,458.064 941.275,458.264 Q941.775,458.464 942.2,458.864 Z " fill="#000000"/><text fill="#000000" font-family="sans-serif" font-size="9.6" lengthAdjust="spacing" textLength="23.2" x="953" y="465.5921">Ports</text><line style="stroke:#A80036;stroke-width:1.2000000000000002;" x1="924" x2="983.2" y1="474.464" y2="474.464"/><text fill="#000000" font-family="sans-serif" font-size="8.8" lengthAdjust="spacing" textLength="51.2" x="928" y="486.7992">-identification</text><text fill="#000000" font-family="sans-serif" font-size="8.8" lengthAdjust="spacing" textLength="24" x="928" y="497.8679">-name</text><!--MD5=[f2ba7f6ab60af8dd0d3e354f91729b14]
class Truck--><rect codeLine="59" fill="#FEFECE" filter="url(#fp3tlh5mr5xou)" height="32" id="Truck" style="stroke:#A80036;stroke-width:1.2000000000000002;" width="49.6" x="372" y="594.464"/><ellipse cx="384" cy="607.264" fill="#ADD1B2" rx="8.8" ry="8.8" style="stroke:#A80036;stroke-width:0.8000000000000002;"/><path d="M385.6,604.464 Q385.7625,604.064 385.95,603.864 Q386.1375,603.664 386.35,603.664 Q386.725,603.664 386.9625,603.889 Q387.2,604.114 387.2,604.639 L387.2,605.889 Q387.2,606.414 386.975,606.639 Q386.75,606.864 386.4,606.864 Q386.0875,606.864 385.8875,606.7265 Q385.6875,606.589 385.6,606.2265 Q385.5625,605.9765 385.425,605.839 Q385.175,605.5765 384.725,605.4265 Q384.275,605.264 383.825,605.264 Q383.2625,605.264 382.7875,605.489 Q382.325,605.714 381.9625,606.214 Q381.6,606.714 381.6,607.4015 L381.6,608.139 Q381.6,608.964 382.275,609.514 Q382.95,610.064 384.15,610.064 Q384.8625,610.064 385.3625,609.9015 Q385.65,609.814 385.975,609.5265 Q386.1875,609.364 386.3,609.314 Q386.4125,609.264 386.55,609.264 Q386.8125,609.264 387,609.4765 Q387.2,609.6765 387.2,609.964 Q387.2,610.239 386.925,610.564 Q386.525,611.039 385.8875,611.3015 Q385.05,611.664 384.025,611.664 Q382.825,611.664 381.8625,611.189 Q381.0875,610.814 380.5375,610.0015 Q380,609.189 380,608.2265 L380,607.3515 Q380,606.3515 380.475,605.4765 Q380.9625,604.6015 381.8,604.139 Q382.65,603.664 383.6,603.664 Q384.175,603.664 384.675,603.864 Q385.175,604.064 385.6,604.464 Z " fill="#000000"/><text fill="#000000" font-family="sans-serif" font-size="9.6" lengthAdjust="spacing" textLength="24" x="395.2" y="611.1921">Truck</text><line style="stroke:#A80036;stroke-width:1.2000000000000002;" x1="372.8" x2="420.8" y1="620.064" y2="620.064"/><!--MD5=[c5149b4909ffd2688ff51a939867f774]
class Warehouse--><rect codeLine="63" fill="#FEFECE" filter="url(#fp3tlh5mr5xou)" height="76.275" id="Warehouse" style="stroke:#A80036;stroke-width:1.2000000000000002;" width="76.8" x="915.2" y="638.864"/><ellipse cx="927.2" cy="651.664" fill="#ADD1B2" rx="8.8" ry="8.8" style="stroke:#A80036;stroke-width:0.8000000000000002;"/><path d="M928.8,648.864 Q928.9625,648.464 929.15,648.264 Q929.3375,648.064 929.55,648.064 Q929.925,648.064 930.1625,648.289 Q930.4,648.514 930.4,649.039 L930.4,650.289 Q930.4,650.814 930.175,651.039 Q929.95,651.264 929.6,651.264 Q929.2875,651.264 929.0875,651.1265 Q928.8875,650.989 928.8,650.6265 Q928.7625,650.3765 928.625,650.239 Q928.375,649.9765 927.925,649.8265 Q927.475,649.664 927.025,649.664 Q926.4625,649.664 925.9875,649.889 Q925.525,650.114 925.1625,650.614 Q924.8,651.114 924.8,651.8015 L924.8,652.539 Q924.8,653.364 925.475,653.914 Q926.15,654.464 927.35,654.464 Q928.0625,654.464 928.5625,654.3015 Q928.85,654.214 929.175,653.9265 Q929.3875,653.764 929.5,653.714 Q929.6125,653.664 929.75,653.664 Q930.0125,653.664 930.2,653.8765 Q930.4,654.0765 930.4,654.364 Q930.4,654.639 930.125,654.964 Q929.725,655.439 929.0875,655.7015 Q928.25,656.064 927.225,656.064 Q926.025,656.064 925.0625,655.589 Q924.2875,655.214 923.7375,654.4015 Q923.2,653.589 923.2,652.6265 L923.2,651.7515 Q923.2,650.7515 923.675,649.8765 Q924.1625,649.0015 925,648.539 Q925.85,648.064 926.8,648.064 Q927.375,648.064 927.875,648.264 Q928.375,648.464 928.8,648.864 Z " fill="#000000"/><text fill="#000000" font-family="sans-serif" font-size="9.6" lengthAdjust="spacing" textLength="51.2" x="938.4" y="655.5921">Warehouse</text><line style="stroke:#A80036;stroke-width:1.2000000000000002;" x1="916" x2="991.2" y1="664.464" y2="664.464"/><text fill="#000000" font-family="sans-serif" font-size="8.8" lengthAdjust="spacing" textLength="51.2" x="920" y="676.7992">-identification</text><text fill="#000000" font-family="sans-serif" font-size="8.8" lengthAdjust="spacing" textLength="24" x="920" y="687.8679">-name</text><text fill="#000000" font-family="sans-serif" font-size="8.8" lengthAdjust="spacing" textLength="36" x="920" y="698.9367">-capacity</text><text fill="#000000" font-family="sans-serif" font-size="8.8" lengthAdjust="spacing" textLength="46.4" x="920" y="710.0054">-occupancy</text><!--MD5=[deb4e1f6eb1e3c1256fdb830f96abfbb]
class Country--><rect codeLine="70" fill="#FEFECE" filter="url(#fp3tlh5mr5xou)" height="54.1375" id="Country" style="stroke:#A80036;stroke-width:1.2000000000000002;" width="59.2" x="1287.2" y="594.464"/><ellipse cx="1299.2" cy="607.264" fill="#ADD1B2" rx="8.8" ry="8.8" style="stroke:#A80036;stroke-width:0.8000000000000002;"/><path d="M1300.8,604.464 Q1300.9625,604.064 1301.15,603.864 Q1301.3375,603.664 1301.55,603.664 Q1301.925,603.664 1302.1625,603.889 Q1302.4,604.114 1302.4,604.639 L1302.4,605.889 Q1302.4,606.414 1302.175,606.639 Q1301.95,606.864 1301.6,606.864 Q1301.2875,606.864 1301.0875,606.7265 Q1300.8875,606.589 1300.8,606.2265 Q1300.7625,605.9765 1300.625,605.839 Q1300.375,605.5765 1299.925,605.4265 Q1299.475,605.264 1299.025,605.264 Q1298.4625,605.264 1297.9875,605.489 Q1297.525,605.714 1297.1625,606.214 Q1296.8,606.714 1296.8,607.4015 L1296.8,608.139 Q1296.8,608.964 1297.475,609.514 Q1298.15,610.064 1299.35,610.064 Q1300.0625,610.064 1300.5625,609.9015 Q1300.85,609.814 1301.175,609.5265 Q1301.3875,609.364 1301.5,609.314 Q1301.6125,609.264 1301.75,609.264 Q1302.0125,609.264 1302.2,609.4765 Q1302.4,609.6765 1302.4,609.964 Q1302.4,610.239 1302.125,610.564 Q1301.725,611.039 1301.0875,611.3015 Q1300.25,611.664 1299.225,611.664 Q1298.025,611.664 1297.0625,611.189 Q1296.2875,610.814 1295.7375,610.0015 Q1295.2,609.189 1295.2,608.2265 L1295.2,607.3515 Q1295.2,606.3515 1295.675,605.4765 Q1296.1625,604.6015 1297,604.139 Q1297.85,603.664 1298.8,603.664 Q1299.375,603.664 1299.875,603.864 Q1300.375,604.064 1300.8,604.464 Z " fill="#000000"/><text fill="#000000" font-family="sans-serif" font-size="9.6" lengthAdjust="spacing" textLength="33.6" x="1310.4" y="611.1921">Country</text><line style="stroke:#A80036;stroke-width:1.2000000000000002;" x1="1288" x2="1345.6" y1="620.064" y2="620.064"/><text fill="#000000" font-family="sans-serif" font-size="8.8" lengthAdjust="spacing" textLength="24" x="1292" y="632.3992">-name</text><text fill="#000000" font-family="sans-serif" font-size="8.8" lengthAdjust="spacing" textLength="38.4" x="1292" y="643.4679">-continent</text><!--MD5=[9febfb2ff9adfe183e01ff702b9c1c02]
class PlaceLocation--><rect codeLine="75" fill="#FEFECE" filter="url(#fp3tlh5mr5xou)" height="54.1375" id="PlaceLocation" style="stroke:#A80036;stroke-width:1.2000000000000002;" width="88" x="1097.6" y="594.464"/><ellipse cx="1109.6" cy="607.264" fill="#ADD1B2" rx="8.8" ry="8.8" style="stroke:#A80036;stroke-width:0.8000000000000002;"/><path d="M1111.2,604.464 Q1111.3625,604.064 1111.55,603.864 Q1111.7375,603.664 1111.95,603.664 Q1112.325,603.664 1112.5625,603.889 Q1112.8,604.114 1112.8,604.639 L1112.8,605.889 Q1112.8,606.414 1112.575,606.639 Q1112.35,606.864 1112,606.864 Q1111.6875,606.864 1111.4875,606.7265 Q1111.2875,606.589 1111.2,606.2265 Q1111.1625,605.9765 1111.025,605.839 Q1110.775,605.5765 1110.325,605.4265 Q1109.875,605.264 1109.425,605.264 Q1108.8625,605.264 1108.3875,605.489 Q1107.925,605.714 1107.5625,606.214 Q1107.2,606.714 1107.2,607.4015 L1107.2,608.139 Q1107.2,608.964 1107.875,609.514 Q1108.55,610.064 1109.75,610.064 Q1110.4625,610.064 1110.9625,609.9015 Q1111.25,609.814 1111.575,609.5265 Q1111.7875,609.364 1111.9,609.314 Q1112.0125,609.264 1112.15,609.264 Q1112.4125,609.264 1112.6,609.4765 Q1112.8,609.6765 1112.8,609.964 Q1112.8,610.239 1112.525,610.564 Q1112.125,611.039 1111.4875,611.3015 Q1110.65,611.664 1109.625,611.664 Q1108.425,611.664 1107.4625,611.189 Q1106.6875,610.814 1106.1375,610.0015 Q1105.6,609.189 1105.6,608.2265 L1105.6,607.3515 Q1105.6,606.3515 1106.075,605.4765 Q1106.5625,604.6015 1107.4,604.139 Q1108.25,603.664 1109.2,603.664 Q1109.775,603.664 1110.275,603.864 Q1110.775,604.064 1111.2,604.464 Z " fill="#000000"/><text fill="#000000" font-family="sans-serif" font-size="9.6" lengthAdjust="spacing" textLength="62.4" x="1120.8" y="611.1921">PlaceLocation</text><line style="stroke:#A80036;stroke-width:1.2000000000000002;" x1="1098.4" x2="1184.8" y1="620.064" y2="620.064"/><text fill="#000000" font-family="sans-serif" font-size="8.8" lengthAdjust="spacing" textLength="30.4" x="1102.4" y="632.3992">-latitude</text><text fill="#000000" font-family="sans-serif" font-size="8.8" lengthAdjust="spacing" textLength="37.6" x="1102.4" y="643.4679">-longitude</text><!--MD5=[efa7c3600894dd6faaa8b816738c33b1]
class ShipLocation--><rect codeLine="80" fill="#FEFECE" filter="url(#fp3tlh5mr5xou)" height="120.55" id="ShipLocation" style="stroke:#A80036;stroke-width:1.2000000000000002;" width="83.2" x="524" y="298.064"/><ellipse cx="536" cy="310.864" fill="#ADD1B2" rx="8.8" ry="8.8" style="stroke:#A80036;stroke-width:0.8000000000000002;"/><path d="M537.6,308.064 Q537.7625,307.664 537.95,307.464 Q538.1375,307.264 538.35,307.264 Q538.725,307.264 538.9625,307.489 Q539.2,307.714 539.2,308.239 L539.2,309.489 Q539.2,310.014 538.975,310.239 Q538.75,310.464 538.4,310.464 Q538.0875,310.464 537.8875,310.3265 Q537.6875,310.189 537.6,309.8265 Q537.5625,309.5765 537.425,309.439 Q537.175,309.1765 536.725,309.0265 Q536.275,308.864 535.825,308.864 Q535.2625,308.864 534.7875,309.089 Q534.325,309.314 533.9625,309.814 Q533.6,310.314 533.6,311.0015 L533.6,311.739 Q533.6,312.564 534.275,313.114 Q534.95,313.664 536.15,313.664 Q536.8625,313.664 537.3625,313.5015 Q537.65,313.414 537.975,313.1265 Q538.1875,312.964 538.3,312.914 Q538.4125,312.864 538.55,312.864 Q538.8125,312.864 539,313.0765 Q539.2,313.2765 539.2,313.564 Q539.2,313.839 538.925,314.164 Q538.525,314.639 537.8875,314.9015 Q537.05,315.264 536.025,315.264 Q534.825,315.264 533.8625,314.789 Q533.0875,314.414 532.5375,313.6015 Q532,312.789 532,311.8265 L532,310.9515 Q532,309.9515 532.475,309.0765 Q532.9625,308.2015 533.8,307.739 Q534.65,307.264 535.6,307.264 Q536.175,307.264 536.675,307.464 Q537.175,307.664 537.6,308.064 Z " fill="#000000"/><text fill="#000000" font-family="sans-serif" font-size="9.6" lengthAdjust="spacing" textLength="57.6" x="547.2" y="314.7921">ShipLocation</text><line style="stroke:#A80036;stroke-width:1.2000000000000002;" x1="524.8" x2="606.4" y1="323.664" y2="323.664"/><text fill="#000000" font-family="sans-serif" font-size="8.8" lengthAdjust="spacing" textLength="57.6" x="528.8" y="335.9992">-baseDateTime</text><text fill="#000000" font-family="sans-serif" font-size="8.8" lengthAdjust="spacing" textLength="30.4" x="528.8" y="347.0679">-latitude</text><text fill="#000000" font-family="sans-serif" font-size="8.8" lengthAdjust="spacing" textLength="37.6" x="528.8" y="358.1367">-longitude</text><text fill="#000000" font-family="sans-serif" font-size="8.8" lengthAdjust="spacing" textLength="17.6" x="528.8" y="369.2054">-sog</text><text fill="#000000" font-family="sans-serif" font-size="8.8" lengthAdjust="spacing" textLength="17.6" x="528.8" y="380.2742">-cog</text><text fill="#000000" font-family="sans-serif" font-size="8.8" lengthAdjust="spacing" textLength="33.6" x="528.8" y="391.3429">-heading</text><text fill="#000000" font-family="sans-serif" font-size="8.8" lengthAdjust="spacing" textLength="32.8" x="528.8" y="402.4117">-position</text><text fill="#000000" font-family="sans-serif" font-size="8.8" lengthAdjust="spacing" textLength="47.2" x="528.8" y="413.4804">-transceiver</text><!--MD5=[f8e092794d52bf9a252466252ae7bd1c]
class System--><rect fill="#FEFECE" filter="url(#fp3tlh5mr5xou)" height="32" id="System" style="stroke:#A80036;stroke-width:1.2000000000000002;" width="58.4" x="536.4" y="167.264"/><ellipse cx="548.4" cy="180.064" fill="#ADD1B2" rx="8.8" ry="8.8" style="stroke:#A80036;stroke-width:0.8000000000000002;"/><path d="M550,177.264 Q550.1625,176.864 550.35,176.664 Q550.5375,176.464 550.75,176.464 Q551.125,176.464 551.3625,176.689 Q551.6,176.914 551.6,177.439 L551.6,178.689 Q551.6,179.214 551.375,179.439 Q551.15,179.664 550.8,179.664 Q550.4875,179.664 550.2875,179.5265 Q550.0875,179.389 550,179.0265 Q549.9625,178.7765 549.825,178.639 Q549.575,178.3765 549.125,178.2265 Q548.675,178.064 548.225,178.064 Q547.6625,178.064 547.1875,178.289 Q546.725,178.514 546.3625,179.014 Q546,179.514 546,180.2015 L546,180.939 Q546,181.764 546.675,182.314 Q547.35,182.864 548.55,182.864 Q549.2625,182.864 549.7625,182.7015 Q550.05,182.614 550.375,182.3265 Q550.5875,182.164 550.7,182.114 Q550.8125,182.064 550.95,182.064 Q551.2125,182.064 551.4,182.2765 Q551.6,182.4765 551.6,182.764 Q551.6,183.039 551.325,183.364 Q550.925,183.839 550.2875,184.1015 Q549.45,184.464 548.425,184.464 Q547.225,184.464 546.2625,183.989 Q545.4875,183.614 544.9375,182.8015 Q544.4,181.989 544.4,181.0265 L544.4,180.1515 Q544.4,179.1515 544.875,178.2765 Q545.3625,177.4015 546.2,176.939 Q547.05,176.464 548,176.464 Q548.575,176.464 549.075,176.664 Q549.575,176.864 550,177.264 Z " fill="#000000"/><text fill="#000000" font-family="sans-serif" font-size="9.6" lengthAdjust="spacing" textLength="32.8" x="559.6" y="183.9921">System</text><line style="stroke:#A80036;stroke-width:1.2000000000000002;" x1="537.2" x2="594" y1="192.864" y2="192.864"/><!--MD5=[3fd616f346a44cd59a91eb10b19e157c]
class User--><rect fill="#FEFECE" filter="url(#fp3tlh5mr5xou)" height="32" id="User" style="stroke:#A80036;stroke-width:1.2000000000000002;" width="47.2" x="373.2" y="167.264"/><ellipse cx="385.2" cy="180.064" fill="#ADD1B2" rx="8.8" ry="8.8" style="stroke:#A80036;stroke-width:0.8000000000000002;"/><path d="M386.8,177.264 Q386.9625,176.864 387.15,176.664 Q387.3375,176.464 387.55,176.464 Q387.925,176.464 388.1625,176.689 Q388.4,176.914 388.4,177.439 L388.4,178.689 Q388.4,179.214 388.175,179.439 Q387.95,179.664 387.6,179.664 Q387.2875,179.664 387.0875,179.5265 Q386.8875,179.389 386.8,179.0265 Q386.7625,178.7765 386.625,178.639 Q386.375,178.3765 385.925,178.2265 Q385.475,178.064 385.025,178.064 Q384.4625,178.064 383.9875,178.289 Q383.525,178.514 383.1625,179.014 Q382.8,179.514 382.8,180.2015 L382.8,180.939 Q382.8,181.764 383.475,182.314 Q384.15,182.864 385.35,182.864 Q386.0625,182.864 386.5625,182.7015 Q386.85,182.614 387.175,182.3265 Q387.3875,182.164 387.5,182.114 Q387.6125,182.064 387.75,182.064 Q388.0125,182.064 388.2,182.2765 Q388.4,182.4765 388.4,182.764 Q388.4,183.039 388.125,183.364 Q387.725,183.839 387.0875,184.1015 Q386.25,184.464 385.225,184.464 Q384.025,184.464 383.0625,183.989 Q382.2875,183.614 381.7375,182.8015 Q381.2,181.989 381.2,181.0265 L381.2,180.1515 Q381.2,179.1515 381.675,178.2765 Q382.1625,177.4015 383,176.939 Q383.85,176.464 384.8,176.464 Q385.375,176.464 385.875,176.664 Q386.375,176.864 386.8,177.264 Z " fill="#000000"/><text fill="#000000" font-family="sans-serif" font-size="9.6" lengthAdjust="spacing" textLength="21.6" x="396.4" y="183.9921">User</text><line style="stroke:#A80036;stroke-width:1.2000000000000002;" x1="374" x2="419.6" y1="192.864" y2="192.864"/><!--MD5=[d729e47c8b99010fceb84b610067730f]
link CargoManifest to Ports--><path codeLine="91" d="M803.504,593.248 C830.248,579.448 863.96,560.312 891.2,539.264 C904.904,528.68 918.512,515.128 929.44,503.288 " fill="none" id="CargoManifest-Ports" style="stroke:#A80036;stroke-width:0.8000000000000002;"/><polygon fill="#000000" points="834.4549,529.8796,827.2001,532.1725,829.9334,535.9988,834.4549,529.8796" style="stroke:#000000;stroke-width:0.8000000000000002;"/><text fill="#000000" font-family="sans-serif" font-size="10.4" lengthAdjust="spacing" textLength="52" x="838.4" y="536.4601">delivered at</text><text fill="#000000" font-family="sans-serif" font-size="10.4" lengthAdjust="spacing" textLength="4" x="809.7442" y="602.0689">*</text><text fill="#000000" font-family="sans-serif" font-size="10.4" lengthAdjust="spacing" textLength="5.6" x="919.0378" y="520.1218">1</text><!--MD5=[1007fce2994c0804f23855fbfd3e6bbd]
link CargoManifest to Warehouse--><path codeLine="92" d="M803.368,629.712 C837.4,640.448 883.272,654.928 915.176,664.992 " fill="none" id="CargoManifest-Warehouse" style="stroke:#A80036;stroke-width:0.8000000000000002;"/><polygon fill="#000000" points="835.0146,632.6083,828.8214,628.1887,827.4064,632.673,835.0146,632.6083" style="stroke:#000000;stroke-width:0.8000000000000002;"/><text fill="#000000" font-family="sans-serif" font-size="10.4" lengthAdjust="spacing" textLength="52" x="838.4" y="635.6601">delivered at</text><text fill="#000000" font-family="sans-serif" font-size="10.4" lengthAdjust="spacing" textLength="4" x="809.5908" y="643.2049">*</text><text fill="#000000" font-family="sans-serif" font-size="10.4" lengthAdjust="spacing" textLength="5.6" x="903.2636" y="674.9507">1</text><!--MD5=[37a14a5de6d6fd738aee271300f4b5c8]
link Company to Ship--><path codeLine="94" d="M60.856,263.28 C83.856,287.576 122.16,328.056 154.192,361.904 " fill="none" id="Company-Ship" style="stroke:#A80036;stroke-width:0.8000000000000002;"/><polygon fill="#000000" points="105.5495,299.9099,102.2833,293.0381,98.868,296.2703,105.5495,299.9099" style="stroke:#000000;stroke-width:0.8000000000000002;"/><text fill="#000000" font-family="sans-serif" font-size="10.4" lengthAdjust="spacing" textLength="18.4" x="110" y="301.2601">own</text><text fill="#000000" font-family="sans-serif" font-size="10.4" lengthAdjust="spacing" textLength="5.6" x="59.2933" y="280.2497">1</text><text fill="#000000" font-family="sans-serif" font-size="10.4" lengthAdjust="spacing" textLength="16" x="132.0341" y="367.6964">1..*</text><!--MD5=[a2a194d3aa0c5b34ec916a16bebf9a1a]
link Company to System--><path codeLine="95" d="M42.224,219.848 C46.184,188.08 58.648,130.056 97.6,104.064 C246.368,4.8 338.384,27.48 500,104.064 C527.456,117.08 547.144,148.048 557.192,167.176 " fill="none" id="Company-System" style="stroke:#A80036;stroke-width:0.8000000000000002;"/><polygon fill="#000000" points="312.3792,30.9976,304.9415,29.395,305.42,34.0728,312.3792,30.9976" style="stroke:#000000;stroke-width:0.8000000000000002;"/><text fill="#000000" font-family="sans-serif" font-size="10.4" lengthAdjust="spacing" textLength="16.8" x="315.6" y="35.6601">has</text><text fill="#000000" font-family="sans-serif" font-size="10.4" lengthAdjust="spacing" textLength="5.6" x="36.5833" y="211.3668">1</text><text fill="#000000" font-family="sans-serif" font-size="10.4" lengthAdjust="spacing" textLength="16" x="536.3722" y="158.6076">1..*</text><!--MD5=[09366576ee87d48d594df10cacc83f45]
link Company to Employee--><path codeLine="96" d="M73.704,241.664 C103.224,241.664 146.144,241.664 175.896,241.664 " fill="none" id="Company-Employee" style="stroke:#A80036;stroke-width:0.8000000000000002;"/><polygon fill="#000000" points="105.6,234.6046,98.3639,232.2535,98.3639,236.9558,105.6,234.6046" style="stroke:#000000;stroke-width:0.8000000000000002;"/><text fill="#000000" font-family="sans-serif" font-size="10.4" lengthAdjust="spacing" textLength="20.8" x="108.8" y="238.8601">have</text><text fill="#000000" font-family="sans-serif" font-size="10.4" lengthAdjust="spacing" textLength="5.6" x="80.0469" y="253.5955">1</text><text fill="#000000" font-family="sans-serif" font-size="10.4" lengthAdjust="spacing" textLength="16" x="153.5945" y="253.4304">1..*</text><!--MD5=[710b10ea314ec23c5eb602bd01bfa9d5]
link Company to Truck--><path codeLine="97" d="M42.984,263.632 C50.344,316.472 76.208,451.8 154.4,526.464 C216.864,586.12 323.872,603.616 371.688,608.584 " fill="none" id="Company-Truck" style="stroke:#A80036;stroke-width:0.8000000000000002;"/><polygon fill="#000000" points="202.3594,522.3004,199.0697,515.4399,195.6655,518.6838,202.3594,522.3004" style="stroke:#000000;stroke-width:0.8000000000000002;"/><text fill="#000000" font-family="sans-serif" font-size="10.4" lengthAdjust="spacing" textLength="18.4" x="206.8" y="523.6601">own</text><text fill="#000000" font-family="sans-serif" font-size="10.4" lengthAdjust="spacing" textLength="5.6" x="37.5045" y="280.3215">1</text><text fill="#000000" font-family="sans-serif" font-size="10.4" lengthAdjust="spacing" textLength="16" x="349.583" y="620.2394">1..*</text><!--MD5=[3d97e7a8068d9b0a6bb8fcf7dc76451d]
link Company to Ports--><path codeLine="98" d="M56.816,219.976 C84.424,186.192 143.68,124.864 210,124.864 C210,124.864 210,124.864 757.6,124.864 C905.656,124.864 942.392,366.288 950.616,448.8 " fill="none" id="Company-Ports" style="stroke:#A80036;stroke-width:0.8000000000000002;"/><polygon fill="#000000" points="465.075,118.7967,458.6482,114.7244,457.4819,119.2797,465.075,118.7967" style="stroke:#000000;stroke-width:0.8000000000000002;"/><text fill="#000000" font-family="sans-serif" font-size="10.4" lengthAdjust="spacing" textLength="20.8" x="468.4" y="122.0601">have</text><text fill="#000000" font-family="sans-serif" font-size="10.4" lengthAdjust="spacing" textLength="5.6" x="54.5497" y="211.5244">1</text><text fill="#000000" font-family="sans-serif" font-size="10.4" lengthAdjust="spacing" textLength="16" x="951.6035" y="440.222">1..*</text><!--MD5=[a27713cdd7694cea32c8be89a3131559]
link Containers to CargoManifest--><path codeLine="100" d="M605,611.448 C635.424,612.216 677.936,613.288 710.104,614.104 " fill="none" id="Containers-CargoManifest" style="stroke:#A80036;stroke-width:0.8000000000000002;"/><polygon fill="#000000" points="639.1987,605.1057,632.0244,602.5725,631.9056,607.2733,639.1987,605.1057" style="stroke:#000000;stroke-width:0.8000000000000002;"/><text fill="#000000" font-family="sans-serif" font-size="10.4" lengthAdjust="spacing" textLength="43.2" x="642.4" y="609.2601">related to</text><text fill="#000000" font-family="sans-serif" font-size="10.4" lengthAdjust="spacing" textLength="16" x="611.0731" y="623.1898">1..*</text><text fill="#000000" font-family="sans-serif" font-size="10.4" lengthAdjust="spacing" textLength="16" x="688.1216" y="625.4951">1..*</text><!--MD5=[c7fc6f07f2489647d2a3f83969f89660]
link Containers to Ports--><path codeLine="101" d="M604.928,591.632 C633.6,578.04 673.912,559.808 710.4,546.464 C785.512,519.008 876.72,494.92 922.904,483.352 " fill="none" id="Containers-Ports" style="stroke:#A80036;stroke-width:0.8000000000000002;"/><polygon fill="#000000" points="746.9865,507.7152,739.3788,507.8221,740.8946,512.2734,746.9865,507.7152" style="stroke:#000000;stroke-width:0.8000000000000002;"/><text fill="#000000" font-family="sans-serif" font-size="10.4" lengthAdjust="spacing" textLength="23.2" x="750.4" y="513.2601">store</text><text fill="#000000" font-family="sans-serif" font-size="10.4" lengthAdjust="spacing" textLength="16" x="611.2877" y="600.7571">0..*</text><text fill="#000000" font-family="sans-serif" font-size="10.4" lengthAdjust="spacing" textLength="5.6" x="911.1282" y="496.7219">1</text><!--MD5=[40d84d2acc82335a7c6decf41782281a]
link Containers to Warehouse--><path codeLine="102" d="M604.872,642.12 C632.392,662.624 671.336,687.48 710.4,698.464 C780.76,718.264 866.72,701.44 915.072,688.448 " fill="none" id="Containers-Warehouse" style="stroke:#A80036;stroke-width:0.8000000000000002;"/><polygon fill="#000000" points="747.1561,691.9955,740.3467,688.6013,739.6521,693.252,747.1561,691.9955" style="stroke:#000000;stroke-width:0.8000000000000002;"/><text fill="#000000" font-family="sans-serif" font-size="10.4" lengthAdjust="spacing" textLength="23.2" x="750.4" y="695.6601">store</text><text fill="#000000" font-family="sans-serif" font-size="10.4" lengthAdjust="spacing" textLength="16" x="611.2242" y="658.0294">0..*</text><text fill="#000000" font-family="sans-serif" font-size="10.4" lengthAdjust="spacing" textLength="5.6" x="903.1437" y="701.9984">1</text><!--MD5=[3d04185e7085eaaeba7ebd93b9963be0]
link PlaceLocation to Country--><path codeLine="104" d="M1185.76,621.664 C1217.392,621.664 1259.4,621.664 1287.04,621.664 " fill="none" id="PlaceLocation-Country" style="stroke:#A80036;stroke-width:0.8000000000000002;"/><polygon fill="#000000" points="1217.6,614.6046,1210.3639,612.2535,1210.3639,616.9558,1217.6,614.6046" style="stroke:#000000;stroke-width:0.8000000000000002;"/><text fill="#000000" font-family="sans-serif" font-size="10.4" lengthAdjust="spacing" textLength="41.6" x="1220.8" y="618.8601">placed in</text><text fill="#000000" font-family="sans-serif" font-size="10.4" lengthAdjust="spacing" textLength="4" x="1191.9628" y="633.3566">*</text><text fill="#000000" font-family="sans-serif" font-size="10.4" lengthAdjust="spacing" textLength="5.6" x="1275.2333" y="633.7319">1</text><!--MD5=[aaa368e4b832683362a5bdda330bd90d]
link Ports to PlaceLocation--><path codeLine="106" d="M984.144,499.296 C1017.24,525.152 1070.664,566.888 1105.768,594.304 " fill="none" id="Ports-PlaceLocation" style="stroke:#A80036;stroke-width:0.8000000000000002;"/><polygon fill="#000000" points="1023.1522,522.667,1018.8972,516.3597,1016.0024,520.0653,1023.1522,522.667" style="stroke:#000000;stroke-width:0.8000000000000002;"/><text fill="#000000" font-family="sans-serif" font-size="10.4" lengthAdjust="spacing" textLength="45.6" x="1027.2" y="524.4601">located at</text><text fill="#000000" font-family="sans-serif" font-size="10.4" lengthAdjust="spacing" textLength="5.6" x="990.5002" y="515.7925">1</text><text fill="#000000" font-family="sans-serif" font-size="10.4" lengthAdjust="spacing" textLength="5.6" x="1092.5623" y="585.7071">1</text><!--MD5=[cff4e3c6ede03364cf99bd3378be6b6a]
link Ship to Containers--><path codeLine="108" d="M267.248,466.376 C275.104,472.072 283.224,477.6 291.2,482.464 C370.872,531.104 472.024,573.992 526.272,595.608 " fill="none" id="Ship-Containers" style="stroke:#A80036;stroke-width:0.8000000000000002;"/><polygon fill="#000000" points="377.9793,521.1904,372.554,515.8561,370.4547,520.0637,377.9793,521.1904" style="stroke:#000000;stroke-width:0.8000000000000002;"/><text fill="#000000" font-family="sans-serif" font-size="10.4" lengthAdjust="spacing" textLength="40.8" x="381.6" y="523.6601">transport</text><text fill="#000000" font-family="sans-serif" font-size="10.4" lengthAdjust="spacing" textLength="5.6" x="273.7283" y="482.8568">1</text><text fill="#000000" font-family="sans-serif" font-size="10.4" lengthAdjust="spacing" textLength="16" x="503.9123" y="605.2674">1..*</text><!--MD5=[b5e7d3b323f2cd13b2215620f50e65f3]
link Ship to Ports--><path codeLine="109" d="M267.448,425.88 C329.928,431.416 434.176,440.456 524,447.264 C673.912,458.632 853.488,469.952 923.152,474.256 " fill="none" id="Ship-Ports" style="stroke:#A80036;stroke-width:0.8000000000000002;"/><polygon fill="#000000" points="556.3892,440.4989,549.3457,437.6218,548.9997,442.3113,556.3892,440.4989" style="stroke:#000000;stroke-width:0.8000000000000002;"/><text fill="#000000" font-family="sans-serif" font-size="10.4" lengthAdjust="spacing" textLength="22.4" x="559.6" y="444.4601">dock</text><text fill="#000000" font-family="sans-serif" font-size="10.4" lengthAdjust="spacing" textLength="16" x="273.6098" y="437.7701">0..*</text><text fill="#000000" font-family="sans-serif" font-size="10.4" lengthAdjust="spacing" textLength="5.6" x="911.2141" y="470.7393">1</text><!--MD5=[5541ef512584d1243c10a7f3b3317e1c]
link Ship to ShipLocation--><path codeLine="110" d="M267.568,410.984 C338.952,398.368 460.72,376.856 523.96,365.68 " fill="none" id="Ship-ShipLocation" style="stroke:#A80036;stroke-width:0.8000000000000002;"/><polygon fill="#000000" points="390.339,376.3086,382.8042,375.2524,383.6224,379.883,390.339,376.3086" style="stroke:#000000;stroke-width:0.8000000000000002;"/><text fill="#000000" font-family="sans-serif" font-size="10.4" lengthAdjust="spacing" textLength="16.8" x="393.6" y="381.2601">has</text><text fill="#000000" font-family="sans-serif" font-size="10.4" lengthAdjust="spacing" textLength="5.6" x="273.711" y="421.4277">1</text><text fill="#000000" font-family="sans-serif" font-size="10.4" lengthAdjust="spacing" textLength="16" x="501.5999" y="378.2547">1..*</text><!--MD5=[9c226fb16923f449f2aeb2d55d4b05b5]
link Employee to ShipLocation--><path codeLine="112" d="M245.784,252.976 C311.144,274.584 453.544,321.68 523.856,344.928 " fill="none" id="Employee-ShipLocation" style="stroke:#A80036;stroke-width:0.8000000000000002;"/><polygon fill="#000000" points="380.1977,287.8605,374.0657,283.3564,372.5894,287.8209,380.1977,287.8605" style="stroke:#000000;stroke-width:0.8000000000000002;"/><text fill="#000000" font-family="sans-serif" font-size="10.4" lengthAdjust="spacing" textLength="36.8" x="383.6" y="290.8601">controls</text><text fill="#000000" font-family="sans-serif" font-size="10.4" lengthAdjust="spacing" textLength="5.6" x="252.042" y="266.7398">1</text><text fill="#000000" font-family="sans-serif" font-size="10.4" lengthAdjust="spacing" textLength="16" x="501.4826" y="354.8438">1..*</text><!--MD5=[22fb9506fac029fc1d2ae00f0eb8d606]
link Employee to User--><path codeLine="113" d="M245.64,230.888 C282.68,219.152 340.904,200.712 372.944,190.568 " fill="none" id="Employee-User" style="stroke:#A80036;stroke-width:0.8000000000000002;"/><polygon fill="#000000" points="299.0133,192.5969,291.4051,192.5403,292.8249,197.0231,299.0133,192.5969" style="stroke:#000000;stroke-width:0.8000000000000002;"/><text fill="#000000" font-family="sans-serif" font-size="10.4" lengthAdjust="spacing" textLength="43.2" x="302.4" y="198.0601">relates to</text><text fill="#000000" font-family="sans-serif" font-size="10.4" lengthAdjust="spacing" textLength="5.6" x="252.1094" y="225.9674">1</text><text fill="#000000" font-family="sans-serif" font-size="10.4" lengthAdjust="spacing" textLength="5.6" x="361.1798" y="204.5657">1</text><!--MD5=[bfae458883a557d51202afbf4dc319fa]
link Employee to Ports--><path codeLine="114" d="M245.928,241.664 C282.96,241.664 343.656,241.664 396,241.664 C396,241.664 396,241.664 757.6,241.664 C864.312,241.664 923.968,386.888 944.536,448.72 " fill="none" id="Employee-Ports" style="stroke:#A80036;stroke-width:0.8000000000000002;"/><polygon fill="#000000" points="549.0351,235.7413,542.7655,231.4308,541.4292,235.9393,549.0351,235.7413" style="stroke:#000000;stroke-width:0.8000000000000002;"/><text fill="#000000" font-family="sans-serif" font-size="10.4" lengthAdjust="spacing" textLength="36.8" x="552.4" y="238.8601">controls</text><text fill="#000000" font-family="sans-serif" font-size="10.4" lengthAdjust="spacing" textLength="5.6" x="251.9728" y="253.513">1</text><text fill="#000000" font-family="sans-serif" font-size="10.4" lengthAdjust="spacing" textLength="16" x="925.1765" y="440.1263">1..*</text><!--MD5=[8cef3b8bb432fdc493768abc58cade76]
link Truck to Containers--><path codeLine="116" d="M421.912,610.464 C449.264,610.464 494.064,610.464 526.208,610.464 " fill="none" id="Truck-Containers" style="stroke:#A80036;stroke-width:0.8000000000000002;"/><polygon fill="#000000" points="455.2,603.4046,447.9639,601.0535,447.9639,605.7558,455.2,603.4046" style="stroke:#000000;stroke-width:0.8000000000000002;"/><text fill="#000000" font-family="sans-serif" font-size="10.4" lengthAdjust="spacing" textLength="40.8" x="458.4" y="607.6601">transport</text><text fill="#000000" font-family="sans-serif" font-size="10.4" lengthAdjust="spacing" textLength="5.6" x="428.0178" y="622.6909">1</text><text fill="#000000" font-family="sans-serif" font-size="10.4" lengthAdjust="spacing" textLength="16" x="504.1359" y="622.0797">1..*</text><!--MD5=[668bfb6c3cf503ab645d5414a0ff2b4e]
link Truck to Warehouse--><path codeLine="117" d="M415.32,626.52 C438.456,646.48 481.104,679.888 524,696.064 C676.816,753.712 733.696,753.696 891.2,710.464 C899.304,708.24 907.52,704.776 915.192,700.896 " fill="none" id="Truck-Warehouse" style="stroke:#A80036;stroke-width:0.8000000000000002;"/><polygon fill="#000000" points="650.7564,723.9933,643.9452,720.6028,643.2532,725.2539,650.7564,723.9933" style="stroke:#000000;stroke-width:0.8000000000000002;"/><text fill="#000000" font-family="sans-serif" font-size="10.4" lengthAdjust="spacing" textLength="20" x="654" y="727.6601">park</text><text fill="#000000" font-family="sans-serif" font-size="10.4" lengthAdjust="spacing" textLength="16" x="402.2788" y="643.6714">0..*</text><text fill="#000000" font-family="sans-serif" font-size="10.4" lengthAdjust="spacing" textLength="5.6" x="903.282" y="716.3525">1</text><!--MD5=[4a0bbcdd6df460060db454e8e2c30a96]
link User to System--><path codeLine="119" d="M420.496,183.264 C450.64,183.264 503.616,183.264 536.312,183.264 " fill="none" id="User-System" style="stroke:#A80036;stroke-width:0.8000000000000002;"/><polygon fill="#000000" points="464.4,176.2046,457.1639,173.8535,457.1639,178.5558,464.4,176.2046" style="stroke:#000000;stroke-width:0.8000000000000002;"/><text fill="#000000" font-family="sans-serif" font-size="10.4" lengthAdjust="spacing" textLength="22.4" x="467.6" y="180.4601">uses</text><text fill="#000000" font-family="sans-serif" font-size="10.4" lengthAdjust="spacing" textLength="16" x="426.7362" y="195.3478">1..*</text><text fill="#000000" font-family="sans-serif" font-size="10.4" lengthAdjust="spacing" textLength="5.6" x="524.3947" y="195.3478">1</text><!--MD5=[591625470abc4a5f324d9b49d40e13b3]
link Warehouse to PlaceLocation--><path codeLine="121" d="M992.12,665.696 C1022.648,656.656 1065.672,643.912 1097.584,634.464 " fill="none" id="Warehouse-PlaceLocation" style="stroke:#A80036;stroke-width:0.8000000000000002;"/><polygon fill="#000000" points="1023.8354,634.2688,1016.2295,634.0691,1017.5647,638.5779,1023.8354,634.2688" style="stroke:#000000;stroke-width:0.8000000000000002;"/><text fill="#000000" font-family="sans-serif" font-size="10.4" lengthAdjust="spacing" textLength="45.6" x="1027.2" y="639.6601">located at</text><text fill="#000000" font-family="sans-serif" font-size="10.4" lengthAdjust="spacing" textLength="5.6" x="998.4471" y="675.7625">1</text><text fill="#000000" font-family="sans-serif" font-size="10.4" lengthAdjust="spacing" textLength="5.6" x="1085.6931" y="647.8766">1</text><!--MD5=[f28078bf946ed57b7ac08a0ec2b568f7]
@startuml
'https://plantuml.com/class-diagram

hide methods
left to right direction
skinparam classAttributeIconSize 0

class Company {
-designation
}

class Employee {
-name
}

class Containers {
-x
-y
-z
-containerNumber
-checkDigit
-isoCode
-payLoad
-tare
-gross
-weight
}

class CargoManifest {
-listOfContainers
-ratio
-date
-mmsiCode
-id
-numberOfContainers
-destination
}

class Ship {
-mmsiCode
-imoCode
-numberEnergyGenerators
-generatorPower
-callSign
-draft
-name
-vesselTypeId
-length
-width
-capacity
}



class Ports {
-identification
-name
}

class Truck {

}

class Warehouse {
-identification
-name
-capacity
-occupancy
}

class Country {
-name
-continent
}

class PlaceLocation {
-latitude
-longitude
}

class ShipLocation {
-baseDateTime
-latitude
-longitude
-sog
-cog
-heading
-position
-transceiver
}

CargoManifest "*" - - "1" Ports : delivered at >
CargoManifest "*" - - "1" Warehouse : delivered at >

Company "1"- -"1..*" Ship: own >
Company "1" - "1..*" System : has >
Company "1"- -"1..*" Employee: have >
Company "1"- -"1..*" Truck: own >
Company "1"- -"1..*" Ports: have >

Containers "1..*"- -"1..*" CargoManifest: related to >
Containers "0..*"- -"1" Ports: store >
Containers "0..*"- -"1" Warehouse: store >

PlaceLocation "*" - - "1" Country : placed in >

Ports "1" - - "1" PlaceLocation : located at >

Ship "1"- - -"1..*" Containers : transport >
Ship "0..*"- -"1" Ports: dock >
Ship "1" - - "1..*" ShipLocation : has >

Employee "1" - - - "1..*" ShipLocation : controls >
Employee "1" - - "1" User : relates to >
Employee "1" - - - "1..*" Ports : controls >

Truck "1"- -"1..*" Containers : transport >
Truck "0..*"- -"1" Warehouse: park >

User "1..*" - - "1" System : uses >

Warehouse "1" - - "1" PlaceLocation : located at >





@enduml

@startuml

hide methods
left to right direction
skinparam classAttributeIconSize 0

class Company {
-designation
}

class Employee {
-name
}

class Containers {
-x
-y
-z
-containerNumber
-checkDigit
-isoCode
-payLoad
-tare
-gross
-weight
}

class CargoManifest {
-listOfContainers
-ratio
-date
-mmsiCode
-id
-numberOfContainers
-destination
}

class Ship {
-mmsiCode
-imoCode
-numberEnergyGenerators
-generatorPower
-callSign
-draft
-name
-vesselTypeId
-length
-width
-capacity
}



class Ports {
-identification
-name
}

class Truck {

}

class Warehouse {
-identification
-name
-capacity
-occupancy
}

class Country {
-name
-continent
}

class PlaceLocation {
-latitude
-longitude
}

class ShipLocation {
-baseDateTime
-latitude
-longitude
-sog
-cog
-heading
-position
-transceiver
}

CargoManifest "*" - - "1" Ports : delivered at >
CargoManifest "*" - - "1" Warehouse : delivered at >

Company "1"- -"1..*" Ship: own >
Company "1" - "1..*" System : has >
Company "1"- -"1..*" Employee: have >
Company "1"- -"1..*" Truck: own >
Company "1"- -"1..*" Ports: have >

Containers "1..*"- -"1..*" CargoManifest: related to >
Containers "0..*"- -"1" Ports: store >
Containers "0..*"- -"1" Warehouse: store >

PlaceLocation "*" - - "1" Country : placed in >

Ports "1" - - "1" PlaceLocation : located at >

Ship "1"- - -"1..*" Containers : transport >
Ship "0..*"- -"1" Ports: dock >
Ship "1" - - "1..*" ShipLocation : has >

Employee "1" - - - "1..*" ShipLocation : controls >
Employee "1" - - "1" User : relates to >
Employee "1" - - - "1..*" Ports : controls >

Truck "1"- -"1..*" Containers : transport >
Truck "0..*"- -"1" Warehouse: park >

User "1..*" - - "1" System : uses >

Warehouse "1" - - "1" PlaceLocation : located at >





@enduml

PlantUML version 1.2021.11(Sat Oct 02 14:26:11 BST 2021)
(GPL source distribution)
Java Runtime: OpenJDK Runtime Environment
JVM: OpenJDK 64-Bit Server VM
Default Encoding: Cp1252
Language: pt
Country: PT
--></g></svg>