<?xml version="1.0" encoding="UTF-8" standalone="no"?><svg xmlns="http://www.w3.org/2000/svg" xmlns:xlink="http://www.w3.org/1999/xlink" contentScriptType="application/ecmascript" contentStyleType="text/css" height="584.1px" preserveAspectRatio="none" style="width:1523px;height:584px;" version="1.1" viewBox="0 0 1523 584" width="1523.7px" zoomAndPan="magnify"><defs><filter height="300%" id="fektz0u75qcfz" width="300%" x="-1" y="-1"><feGaussianBlur result="blurOut" stdDeviation="1.8"/><feColorMatrix in="blurOut" result="blurOut2" type="matrix" values="0 0 0 0 0 0 0 0 0 0 0 0 0 0 0 0 0 0 .4 0"/><feOffset dx="3.6" dy="3.6" in="blurOut2" result="blurOut3"/><feBlend in="SourceGraphic" in2="blurOut3" mode="normal"/></filter></defs><g><!--MD5=[02e4b9b7573f1156f41e60aa5b4e25a4]
class Company--><rect codeLine="7" fill="#FEFECE" filter="url(#fektz0u75qcfz)" height="48.4523" id="Company" style="stroke:#A80036;stroke-width:1.35;" width="76.5" x="6.3" y="182.7"/><ellipse cx="19.8" cy="197.1" fill="#ADD1B2" rx="9.9" ry="9.9" style="stroke:#A80036;stroke-width:0.9;"/><path d="M21.6,193.95 Q21.7828,193.5 21.9938,193.275 Q22.2047,193.05 22.4438,193.05 Q22.8656,193.05 23.1328,193.3031 Q23.4,193.5563 23.4,194.1469 L23.4,195.5531 Q23.4,196.1438 23.1469,196.3969 Q22.8938,196.65 22.5,196.65 Q22.1484,196.65 21.9234,196.4953 Q21.6984,196.3406 21.6,195.9328 Q21.5578,195.6516 21.4031,195.4969 Q21.1219,195.2016 20.6156,195.0328 Q20.1094,194.85 19.6031,194.85 Q18.9703,194.85 18.4359,195.1031 Q17.9156,195.3563 17.5078,195.9188 Q17.1,196.4813 17.1,197.2547 L17.1,198.0844 Q17.1,199.0125 17.8594,199.6313 Q18.6188,200.25 19.9688,200.25 Q20.7703,200.25 21.3328,200.0672 Q21.6563,199.9688 22.0219,199.6453 Q22.2609,199.4625 22.3875,199.4063 Q22.5141,199.35 22.6688,199.35 Q22.9641,199.35 23.175,199.5891 Q23.4,199.8141 23.4,200.1375 Q23.4,200.4469 23.0906,200.8125 Q22.6406,201.3469 21.9234,201.6422 Q20.9813,202.05 19.8281,202.05 Q18.4781,202.05 17.3953,201.5156 Q16.5234,201.0938 15.9047,200.1797 Q15.3,199.2656 15.3,198.1828 L15.3,197.1984 Q15.3,196.0734 15.8344,195.0891 Q16.3828,194.1047 17.325,193.5844 Q18.2813,193.05 19.35,193.05 Q19.9969,193.05 20.5594,193.275 Q21.1219,193.5 21.6,193.95 Z " fill="#000000"/><text fill="#000000" font-family="sans-serif" font-size="10.8" lengthAdjust="spacing" textLength="47.7" x="32.4" y="201.5191">Company</text><line style="stroke:#A80036;stroke-width:1.35;" x1="7.2" x2="81.9" y1="211.5" y2="211.5"/><text fill="#000000" font-family="sans-serif" font-size="9.9" lengthAdjust="spacing" textLength="53.1" x="11.7" y="225.3771">-designation</text><!--MD5=[7421f545a0d8420c5bec41e74b387d9c]
class Employee--><rect codeLine="11" fill="#FEFECE" filter="url(#fektz0u75qcfz)" height="48.4523" id="Employee" style="stroke:#A80036;stroke-width:1.35;" width="78.3" x="198" y="125.1"/><ellipse cx="211.5" cy="139.5" fill="#ADD1B2" rx="9.9" ry="9.9" style="stroke:#A80036;stroke-width:0.9;"/><path d="M213.3,136.35 Q213.4828,135.9 213.6938,135.675 Q213.9047,135.45 214.1438,135.45 Q214.5656,135.45 214.8328,135.7031 Q215.1,135.9563 215.1,136.5469 L215.1,137.9531 Q215.1,138.5438 214.8469,138.7969 Q214.5938,139.05 214.2,139.05 Q213.8484,139.05 213.6234,138.8953 Q213.3984,138.7406 213.3,138.3328 Q213.2578,138.0516 213.1031,137.8969 Q212.8219,137.6016 212.3156,137.4328 Q211.8094,137.25 211.3031,137.25 Q210.6703,137.25 210.1359,137.5031 Q209.6156,137.7563 209.2078,138.3188 Q208.8,138.8813 208.8,139.6547 L208.8,140.4844 Q208.8,141.4125 209.5594,142.0313 Q210.3188,142.65 211.6688,142.65 Q212.4703,142.65 213.0328,142.4672 Q213.3563,142.3688 213.7219,142.0453 Q213.9609,141.8625 214.0875,141.8063 Q214.2141,141.75 214.3688,141.75 Q214.6641,141.75 214.875,141.9891 Q215.1,142.2141 215.1,142.5375 Q215.1,142.8469 214.7906,143.2125 Q214.3406,143.7469 213.6234,144.0422 Q212.6813,144.45 211.5281,144.45 Q210.1781,144.45 209.0953,143.9156 Q208.2234,143.4938 207.6047,142.5797 Q207,141.6656 207,140.5828 L207,139.5984 Q207,138.4734 207.5344,137.4891 Q208.0828,136.5047 209.025,135.9844 Q209.9813,135.45 211.05,135.45 Q211.6969,135.45 212.2594,135.675 Q212.8219,135.9 213.3,136.35 Z " fill="#000000"/><text fill="#000000" font-family="sans-serif" font-size="10.8" lengthAdjust="spacing" textLength="49.5" x="224.1" y="143.9191">Employee</text><line style="stroke:#A80036;stroke-width:1.35;" x1="198.9" x2="275.4" y1="153.9" y2="153.9"/><text fill="#000000" font-family="sans-serif" font-size="9.9" lengthAdjust="spacing" textLength="27" x="203.4" y="167.7771">-name</text><!--MD5=[a3093aa9f96b7df9aab31d8715601ff6]
class Containers--><rect codeLine="15" fill="#FEFECE" filter="url(#fektz0u75qcfz)" height="160.5234" id="Containers" style="stroke:#A80036;stroke-width:1.35;" width="88.2" x="592.2" y="376.2"/><ellipse cx="607.725" cy="390.6" fill="#ADD1B2" rx="9.9" ry="9.9" style="stroke:#A80036;stroke-width:0.9;"/><path d="M609.525,387.45 Q609.7078,387 609.9188,386.775 Q610.1297,386.55 610.3688,386.55 Q610.7906,386.55 611.0578,386.8031 Q611.325,387.0563 611.325,387.6469 L611.325,389.0531 Q611.325,389.6438 611.0719,389.8969 Q610.8188,390.15 610.425,390.15 Q610.0734,390.15 609.8484,389.9953 Q609.6234,389.8406 609.525,389.4328 Q609.4828,389.1516 609.3281,388.9969 Q609.0469,388.7016 608.5406,388.5328 Q608.0344,388.35 607.5281,388.35 Q606.8953,388.35 606.3609,388.6031 Q605.8406,388.8563 605.4328,389.4188 Q605.025,389.9813 605.025,390.7547 L605.025,391.5844 Q605.025,392.5125 605.7844,393.1313 Q606.5438,393.75 607.8938,393.75 Q608.6953,393.75 609.2578,393.5672 Q609.5813,393.4688 609.9469,393.1453 Q610.1859,392.9625 610.3125,392.9063 Q610.4391,392.85 610.5938,392.85 Q610.8891,392.85 611.1,393.0891 Q611.325,393.3141 611.325,393.6375 Q611.325,393.9469 611.0156,394.3125 Q610.5656,394.8469 609.8484,395.1422 Q608.9063,395.55 607.7531,395.55 Q606.4031,395.55 605.3203,395.0156 Q604.4484,394.5938 603.8297,393.6797 Q603.225,392.7656 603.225,391.6828 L603.225,390.6984 Q603.225,389.5734 603.7594,388.5891 Q604.3078,387.6047 605.25,387.0844 Q606.2063,386.55 607.275,386.55 Q607.9219,386.55 608.4844,386.775 Q609.0469,387 609.525,387.45 Z " fill="#000000"/><text fill="#000000" font-family="sans-serif" font-size="10.8" lengthAdjust="spacing" textLength="54.9" x="620.775" y="395.0191">Containers</text><line style="stroke:#A80036;stroke-width:1.35;" x1="593.1" x2="679.5" y1="405" y2="405"/><text fill="#000000" font-family="sans-serif" font-size="9.9" lengthAdjust="spacing" textLength="9" x="597.6" y="418.8771">-x</text><text fill="#000000" font-family="sans-serif" font-size="9.9" lengthAdjust="spacing" textLength="9" x="597.6" y="431.3294">-y</text><text fill="#000000" font-family="sans-serif" font-size="9.9" lengthAdjust="spacing" textLength="9" x="597.6" y="443.7817">-z</text><text fill="#000000" font-family="sans-serif" font-size="9.9" lengthAdjust="spacing" textLength="77.4" x="597.6" y="456.2341">-containerNumber</text><text fill="#000000" font-family="sans-serif" font-size="9.9" lengthAdjust="spacing" textLength="47.7" x="597.6" y="468.6864">-checkDigit</text><text fill="#000000" font-family="sans-serif" font-size="9.9" lengthAdjust="spacing" textLength="38.7" x="597.6" y="481.1388">-isoCode</text><text fill="#000000" font-family="sans-serif" font-size="9.9" lengthAdjust="spacing" textLength="41.4" x="597.6" y="493.5911">-payLoad</text><text fill="#000000" font-family="sans-serif" font-size="9.9" lengthAdjust="spacing" textLength="20.7" x="597.6" y="506.0435">-tare</text><text fill="#000000" font-family="sans-serif" font-size="9.9" lengthAdjust="spacing" textLength="28.8" x="597.6" y="518.4958">-gross</text><text fill="#000000" font-family="sans-serif" font-size="9.9" lengthAdjust="spacing" textLength="33.3" x="597.6" y="530.9481">-weight</text><!--MD5=[76562047389981627aea27c31a97aff5]
class CargoManifest--><rect codeLine="28" fill="#FEFECE" filter="url(#fektz0u75qcfz)" height="48.4523" id="CargoManifest" style="stroke:#A80036;stroke-width:1.35;" width="100.8" x="799.2" y="434.7"/><ellipse cx="812.7" cy="449.1" fill="#ADD1B2" rx="9.9" ry="9.9" style="stroke:#A80036;stroke-width:0.9;"/><path d="M814.5,445.95 Q814.6828,445.5 814.8938,445.275 Q815.1047,445.05 815.3438,445.05 Q815.7656,445.05 816.0328,445.3031 Q816.3,445.5563 816.3,446.1469 L816.3,447.5531 Q816.3,448.1438 816.0469,448.3969 Q815.7938,448.65 815.4,448.65 Q815.0484,448.65 814.8234,448.4953 Q814.5984,448.3406 814.5,447.9328 Q814.4578,447.6516 814.3031,447.4969 Q814.0219,447.2016 813.5156,447.0328 Q813.0094,446.85 812.5031,446.85 Q811.8703,446.85 811.3359,447.1031 Q810.8156,447.3563 810.4078,447.9188 Q810,448.4813 810,449.2547 L810,450.0844 Q810,451.0125 810.7594,451.6313 Q811.5188,452.25 812.8688,452.25 Q813.6703,452.25 814.2328,452.0672 Q814.5563,451.9688 814.9219,451.6453 Q815.1609,451.4625 815.2875,451.4063 Q815.4141,451.35 815.5688,451.35 Q815.8641,451.35 816.075,451.5891 Q816.3,451.8141 816.3,452.1375 Q816.3,452.4469 815.9906,452.8125 Q815.5406,453.3469 814.8234,453.6422 Q813.8813,454.05 812.7281,454.05 Q811.3781,454.05 810.2953,453.5156 Q809.4234,453.0938 808.8047,452.1797 Q808.2,451.2656 808.2,450.1828 L808.2,449.1984 Q808.2,448.0734 808.7344,447.0891 Q809.2828,446.1047 810.225,445.5844 Q811.1813,445.05 812.25,445.05 Q812.8969,445.05 813.4594,445.275 Q814.0219,445.5 814.5,445.95 Z " fill="#000000"/><text fill="#000000" font-family="sans-serif" font-size="10.8" lengthAdjust="spacing" textLength="72" x="825.3" y="453.5191">CargoManifest</text><line style="stroke:#A80036;stroke-width:1.35;" x1="800.1" x2="899.1" y1="463.5" y2="463.5"/><text fill="#000000" font-family="sans-serif" font-size="9.9" lengthAdjust="spacing" textLength="77.4" x="804.6" y="477.3771">-containerNumber</text><!--MD5=[0dc7f2ddb409b58bcf52b12238c25399]
class Ship--><rect codeLine="32" fill="#FEFECE" filter="url(#fektz0u75qcfz)" height="172.9758" id="Ship" style="stroke:#A80036;stroke-width:1.35;" width="126.9" x="173.7" y="213.3"/><ellipse cx="222.075" cy="227.7" fill="#ADD1B2" rx="9.9" ry="9.9" style="stroke:#A80036;stroke-width:0.9;"/><path d="M223.875,224.55 Q224.0578,224.1 224.2688,223.875 Q224.4797,223.65 224.7188,223.65 Q225.1406,223.65 225.4078,223.9031 Q225.675,224.1563 225.675,224.7469 L225.675,226.1531 Q225.675,226.7438 225.4219,226.9969 Q225.1688,227.25 224.775,227.25 Q224.4234,227.25 224.1984,227.0953 Q223.9734,226.9406 223.875,226.5328 Q223.8328,226.2516 223.6781,226.0969 Q223.3969,225.8016 222.8906,225.6328 Q222.3844,225.45 221.8781,225.45 Q221.2453,225.45 220.7109,225.7031 Q220.1906,225.9563 219.7828,226.5188 Q219.375,227.0813 219.375,227.8547 L219.375,228.6844 Q219.375,229.6125 220.1344,230.2313 Q220.8938,230.85 222.2438,230.85 Q223.0453,230.85 223.6078,230.6672 Q223.9313,230.5688 224.2969,230.2453 Q224.5359,230.0625 224.6625,230.0063 Q224.7891,229.95 224.9438,229.95 Q225.2391,229.95 225.45,230.1891 Q225.675,230.4141 225.675,230.7375 Q225.675,231.0469 225.3656,231.4125 Q224.9156,231.9469 224.1984,232.2422 Q223.2563,232.65 222.1031,232.65 Q220.7531,232.65 219.6703,232.1156 Q218.7984,231.6938 218.1797,230.7797 Q217.575,229.8656 217.575,228.7828 L217.575,227.7984 Q217.575,226.6734 218.1094,225.6891 Q218.6578,224.7047 219.6,224.1844 Q220.5563,223.65 221.625,223.65 Q222.2719,223.65 222.8344,223.875 Q223.3969,224.1 223.875,224.55 Z " fill="#000000"/><text fill="#000000" font-family="sans-serif" font-size="10.8" lengthAdjust="spacing" textLength="22.5" x="240.525" y="232.1191">Ship</text><line style="stroke:#A80036;stroke-width:1.35;" x1="174.6" x2="299.7" y1="242.1" y2="242.1"/><text fill="#000000" font-family="sans-serif" font-size="9.9" lengthAdjust="spacing" textLength="47.7" x="179.1" y="255.9771">-mmsiCode</text><text fill="#000000" font-family="sans-serif" font-size="9.9" lengthAdjust="spacing" textLength="40.5" x="179.1" y="268.4294">-imoCode</text><text fill="#000000" font-family="sans-serif" font-size="9.9" lengthAdjust="spacing" textLength="116.1" x="179.1" y="280.8817">-numberEnergyGenerators</text><text fill="#000000" font-family="sans-serif" font-size="9.9" lengthAdjust="spacing" textLength="74.7" x="179.1" y="293.3341">-generatorPower</text><text fill="#000000" font-family="sans-serif" font-size="9.9" lengthAdjust="spacing" textLength="36.9" x="179.1" y="305.7864">-callSign</text><text fill="#000000" font-family="sans-serif" font-size="9.9" lengthAdjust="spacing" textLength="24.3" x="179.1" y="318.2388">-draft</text><text fill="#000000" font-family="sans-serif" font-size="9.9" lengthAdjust="spacing" textLength="27" x="179.1" y="330.6911">-name</text><text fill="#000000" font-family="sans-serif" font-size="9.9" lengthAdjust="spacing" textLength="61.2" x="179.1" y="343.1435">-vesselTypeId</text><text fill="#000000" font-family="sans-serif" font-size="9.9" lengthAdjust="spacing" textLength="29.7" x="179.1" y="355.5958">-length</text><text fill="#000000" font-family="sans-serif" font-size="9.9" lengthAdjust="spacing" textLength="27.9" x="179.1" y="368.0481">-width</text><text fill="#000000" font-family="sans-serif" font-size="9.9" lengthAdjust="spacing" textLength="40.5" x="179.1" y="380.5005">-capacity</text><!--MD5=[ea13aecf8df941b18fb8e3885c78c184]
class Ports--><rect codeLine="48" fill="#FEFECE" filter="url(#fektz0u75qcfz)" height="60.9047" id="Ports" style="stroke:#A80036;stroke-width:1.35;" width="68.4" x="1035" y="361.8"/><ellipse cx="1054.575" cy="376.2" fill="#ADD1B2" rx="9.9" ry="9.9" style="stroke:#A80036;stroke-width:0.9;"/><path d="M1056.375,373.05 Q1056.5578,372.6 1056.7688,372.375 Q1056.9797,372.15 1057.2188,372.15 Q1057.6406,372.15 1057.9078,372.4031 Q1058.175,372.6563 1058.175,373.2469 L1058.175,374.6531 Q1058.175,375.2438 1057.9219,375.4969 Q1057.6688,375.75 1057.275,375.75 Q1056.9234,375.75 1056.6984,375.5953 Q1056.4734,375.4406 1056.375,375.0328 Q1056.3328,374.7516 1056.1781,374.5969 Q1055.8969,374.3016 1055.3906,374.1328 Q1054.8844,373.95 1054.3781,373.95 Q1053.7453,373.95 1053.2109,374.2031 Q1052.6906,374.4563 1052.2828,375.0188 Q1051.875,375.5813 1051.875,376.3547 L1051.875,377.1844 Q1051.875,378.1125 1052.6344,378.7313 Q1053.3938,379.35 1054.7438,379.35 Q1055.5453,379.35 1056.1078,379.1672 Q1056.4313,379.0688 1056.7969,378.7453 Q1057.0359,378.5625 1057.1625,378.5063 Q1057.2891,378.45 1057.4438,378.45 Q1057.7391,378.45 1057.95,378.6891 Q1058.175,378.9141 1058.175,379.2375 Q1058.175,379.5469 1057.8656,379.9125 Q1057.4156,380.4469 1056.6984,380.7422 Q1055.7563,381.15 1054.6031,381.15 Q1053.2531,381.15 1052.1703,380.6156 Q1051.2984,380.1938 1050.6797,379.2797 Q1050.075,378.3656 1050.075,377.2828 L1050.075,376.2984 Q1050.075,375.1734 1050.6094,374.1891 Q1051.1578,373.2047 1052.1,372.6844 Q1053.0563,372.15 1054.125,372.15 Q1054.7719,372.15 1055.3344,372.375 Q1055.8969,372.6 1056.375,373.05 Z " fill="#000000"/><text fill="#000000" font-family="sans-serif" font-size="10.8" lengthAdjust="spacing" textLength="26.1" x="1068.525" y="380.6191">Ports</text><line style="stroke:#A80036;stroke-width:1.35;" x1="1035.9" x2="1102.5" y1="390.6" y2="390.6"/><text fill="#000000" font-family="sans-serif" font-size="9.9" lengthAdjust="spacing" textLength="57.6" x="1040.4" y="404.4771">-identification</text><text fill="#000000" font-family="sans-serif" font-size="9.9" lengthAdjust="spacing" textLength="27" x="1040.4" y="416.9294">-name</text><!--MD5=[f2ba7f6ab60af8dd0d3e354f91729b14]
class Truck--><rect codeLine="53" fill="#FEFECE" filter="url(#fektz0u75qcfz)" height="36" id="Truck" style="stroke:#A80036;stroke-width:1.35;" width="55.8" x="418.5" y="438.3"/><ellipse cx="432" cy="452.7" fill="#ADD1B2" rx="9.9" ry="9.9" style="stroke:#A80036;stroke-width:0.9;"/><path d="M433.8,449.55 Q433.9828,449.1 434.1938,448.875 Q434.4047,448.65 434.6438,448.65 Q435.0656,448.65 435.3328,448.9031 Q435.6,449.1563 435.6,449.7469 L435.6,451.1531 Q435.6,451.7438 435.3469,451.9969 Q435.0938,452.25 434.7,452.25 Q434.3484,452.25 434.1234,452.0953 Q433.8984,451.9406 433.8,451.5328 Q433.7578,451.2516 433.6031,451.0969 Q433.3219,450.8016 432.8156,450.6328 Q432.3094,450.45 431.8031,450.45 Q431.1703,450.45 430.6359,450.7031 Q430.1156,450.9563 429.7078,451.5188 Q429.3,452.0813 429.3,452.8547 L429.3,453.6844 Q429.3,454.6125 430.0594,455.2313 Q430.8188,455.85 432.1688,455.85 Q432.9703,455.85 433.5328,455.6672 Q433.8563,455.5688 434.2219,455.2453 Q434.4609,455.0625 434.5875,455.0063 Q434.7141,454.95 434.8688,454.95 Q435.1641,454.95 435.375,455.1891 Q435.6,455.4141 435.6,455.7375 Q435.6,456.0469 435.2906,456.4125 Q434.8406,456.9469 434.1234,457.2422 Q433.1813,457.65 432.0281,457.65 Q430.6781,457.65 429.5953,457.1156 Q428.7234,456.6938 428.1047,455.7797 Q427.5,454.8656 427.5,453.7828 L427.5,452.7984 Q427.5,451.6734 428.0344,450.6891 Q428.5828,449.7047 429.525,449.1844 Q430.4813,448.65 431.55,448.65 Q432.1969,448.65 432.7594,448.875 Q433.3219,449.1 433.8,449.55 Z " fill="#000000"/><text fill="#000000" font-family="sans-serif" font-size="10.8" lengthAdjust="spacing" textLength="27" x="444.6" y="457.1191">Truck</text><line style="stroke:#A80036;stroke-width:1.35;" x1="419.4" x2="473.4" y1="467.1" y2="467.1"/><!--MD5=[c5149b4909ffd2688ff51a939867f774]
class Warehouse--><rect codeLine="57" fill="#FEFECE" filter="url(#fektz0u75qcfz)" height="60.9047" id="Warehouse" style="stroke:#A80036;stroke-width:1.35;" width="86.4" x="1026" y="459.9"/><ellipse cx="1039.5" cy="474.3" fill="#ADD1B2" rx="9.9" ry="9.9" style="stroke:#A80036;stroke-width:0.9;"/><path d="M1041.3,471.15 Q1041.4828,470.7 1041.6938,470.475 Q1041.9047,470.25 1042.1438,470.25 Q1042.5656,470.25 1042.8328,470.5031 Q1043.1,470.7563 1043.1,471.3469 L1043.1,472.7531 Q1043.1,473.3438 1042.8469,473.5969 Q1042.5938,473.85 1042.2,473.85 Q1041.8484,473.85 1041.6234,473.6953 Q1041.3984,473.5406 1041.3,473.1328 Q1041.2578,472.8516 1041.1031,472.6969 Q1040.8219,472.4016 1040.3156,472.2328 Q1039.8094,472.05 1039.3031,472.05 Q1038.6703,472.05 1038.1359,472.3031 Q1037.6156,472.5563 1037.2078,473.1188 Q1036.8,473.6813 1036.8,474.4547 L1036.8,475.2844 Q1036.8,476.2125 1037.5594,476.8313 Q1038.3188,477.45 1039.6688,477.45 Q1040.4703,477.45 1041.0328,477.2672 Q1041.3563,477.1688 1041.7219,476.8453 Q1041.9609,476.6625 1042.0875,476.6063 Q1042.2141,476.55 1042.3688,476.55 Q1042.6641,476.55 1042.875,476.7891 Q1043.1,477.0141 1043.1,477.3375 Q1043.1,477.6469 1042.7906,478.0125 Q1042.3406,478.5469 1041.6234,478.8422 Q1040.6813,479.25 1039.5281,479.25 Q1038.1781,479.25 1037.0953,478.7156 Q1036.2234,478.2938 1035.6047,477.3797 Q1035,476.4656 1035,475.3828 L1035,474.3984 Q1035,473.2734 1035.5344,472.2891 Q1036.0828,471.3047 1037.025,470.7844 Q1037.9813,470.25 1039.05,470.25 Q1039.6969,470.25 1040.2594,470.475 Q1040.8219,470.7 1041.3,471.15 Z " fill="#000000"/><text fill="#000000" font-family="sans-serif" font-size="10.8" lengthAdjust="spacing" textLength="57.6" x="1052.1" y="478.7191">Warehouse</text><line style="stroke:#A80036;stroke-width:1.35;" x1="1026.9" x2="1111.5" y1="488.7" y2="488.7"/><text fill="#000000" font-family="sans-serif" font-size="9.9" lengthAdjust="spacing" textLength="57.6" x="1031.4" y="502.5771">-identification</text><text fill="#000000" font-family="sans-serif" font-size="9.9" lengthAdjust="spacing" textLength="27" x="1031.4" y="515.0294">-name</text><!--MD5=[deb4e1f6eb1e3c1256fdb830f96abfbb]
class Country--><rect codeLine="62" fill="#FEFECE" filter="url(#fektz0u75qcfz)" height="60.9047" id="Country" style="stroke:#A80036;stroke-width:1.35;" width="66.6" x="1444.5" y="414"/><ellipse cx="1458" cy="428.4" fill="#ADD1B2" rx="9.9" ry="9.9" style="stroke:#A80036;stroke-width:0.9;"/><path d="M1459.8,425.25 Q1459.9828,424.8 1460.1938,424.575 Q1460.4047,424.35 1460.6438,424.35 Q1461.0656,424.35 1461.3328,424.6031 Q1461.6,424.8563 1461.6,425.4469 L1461.6,426.8531 Q1461.6,427.4438 1461.3469,427.6969 Q1461.0938,427.95 1460.7,427.95 Q1460.3484,427.95 1460.1234,427.7953 Q1459.8984,427.6406 1459.8,427.2328 Q1459.7578,426.9516 1459.6031,426.7969 Q1459.3219,426.5016 1458.8156,426.3328 Q1458.3094,426.15 1457.8031,426.15 Q1457.1703,426.15 1456.6359,426.4031 Q1456.1156,426.6563 1455.7078,427.2188 Q1455.3,427.7813 1455.3,428.5547 L1455.3,429.3844 Q1455.3,430.3125 1456.0594,430.9313 Q1456.8188,431.55 1458.1688,431.55 Q1458.9703,431.55 1459.5328,431.3672 Q1459.8563,431.2688 1460.2219,430.9453 Q1460.4609,430.7625 1460.5875,430.7063 Q1460.7141,430.65 1460.8688,430.65 Q1461.1641,430.65 1461.375,430.8891 Q1461.6,431.1141 1461.6,431.4375 Q1461.6,431.7469 1461.2906,432.1125 Q1460.8406,432.6469 1460.1234,432.9422 Q1459.1813,433.35 1458.0281,433.35 Q1456.6781,433.35 1455.5953,432.8156 Q1454.7234,432.3938 1454.1047,431.4797 Q1453.5,430.5656 1453.5,429.4828 L1453.5,428.4984 Q1453.5,427.3734 1454.0344,426.3891 Q1454.5828,425.4047 1455.525,424.8844 Q1456.4813,424.35 1457.55,424.35 Q1458.1969,424.35 1458.7594,424.575 Q1459.3219,424.8 1459.8,425.25 Z " fill="#000000"/><text fill="#000000" font-family="sans-serif" font-size="10.8" lengthAdjust="spacing" textLength="37.8" x="1470.6" y="432.8191">Country</text><line style="stroke:#A80036;stroke-width:1.35;" x1="1445.4" x2="1510.2" y1="442.8" y2="442.8"/><text fill="#000000" font-family="sans-serif" font-size="9.9" lengthAdjust="spacing" textLength="27" x="1449.9" y="456.6771">-name</text><text fill="#000000" font-family="sans-serif" font-size="9.9" lengthAdjust="spacing" textLength="43.2" x="1449.9" y="469.1294">-continent</text><!--MD5=[9febfb2ff9adfe183e01ff702b9c1c02]
class PlaceLocation--><rect codeLine="67" fill="#FEFECE" filter="url(#fektz0u75qcfz)" height="60.9047" id="PlaceLocation" style="stroke:#A80036;stroke-width:1.35;" width="99" x="1231.2" y="414"/><ellipse cx="1244.7" cy="428.4" fill="#ADD1B2" rx="9.9" ry="9.9" style="stroke:#A80036;stroke-width:0.9;"/><path d="M1246.5,425.25 Q1246.6828,424.8 1246.8938,424.575 Q1247.1047,424.35 1247.3438,424.35 Q1247.7656,424.35 1248.0328,424.6031 Q1248.3,424.8563 1248.3,425.4469 L1248.3,426.8531 Q1248.3,427.4438 1248.0469,427.6969 Q1247.7938,427.95 1247.4,427.95 Q1247.0484,427.95 1246.8234,427.7953 Q1246.5984,427.6406 1246.5,427.2328 Q1246.4578,426.9516 1246.3031,426.7969 Q1246.0219,426.5016 1245.5156,426.3328 Q1245.0094,426.15 1244.5031,426.15 Q1243.8703,426.15 1243.3359,426.4031 Q1242.8156,426.6563 1242.4078,427.2188 Q1242,427.7813 1242,428.5547 L1242,429.3844 Q1242,430.3125 1242.7594,430.9313 Q1243.5188,431.55 1244.8688,431.55 Q1245.6703,431.55 1246.2328,431.3672 Q1246.5563,431.2688 1246.9219,430.9453 Q1247.1609,430.7625 1247.2875,430.7063 Q1247.4141,430.65 1247.5688,430.65 Q1247.8641,430.65 1248.075,430.8891 Q1248.3,431.1141 1248.3,431.4375 Q1248.3,431.7469 1247.9906,432.1125 Q1247.5406,432.6469 1246.8234,432.9422 Q1245.8813,433.35 1244.7281,433.35 Q1243.3781,433.35 1242.2953,432.8156 Q1241.4234,432.3938 1240.8047,431.4797 Q1240.2,430.5656 1240.2,429.4828 L1240.2,428.4984 Q1240.2,427.3734 1240.7344,426.3891 Q1241.2828,425.4047 1242.225,424.8844 Q1243.1813,424.35 1244.25,424.35 Q1244.8969,424.35 1245.4594,424.575 Q1246.0219,424.8 1246.5,425.25 Z " fill="#000000"/><text fill="#000000" font-family="sans-serif" font-size="10.8" lengthAdjust="spacing" textLength="70.2" x="1257.3" y="432.8191">PlaceLocation</text><line style="stroke:#A80036;stroke-width:1.35;" x1="1232.1" x2="1329.3" y1="442.8" y2="442.8"/><text fill="#000000" font-family="sans-serif" font-size="9.9" lengthAdjust="spacing" textLength="34.2" x="1236.6" y="456.6771">-latitude</text><text fill="#000000" font-family="sans-serif" font-size="9.9" lengthAdjust="spacing" textLength="42.3" x="1236.6" y="469.1294">-longitude</text><!--MD5=[efa7c3600894dd6faaa8b816738c33b1]
class ShipLocation--><rect codeLine="72" fill="#FEFECE" filter="url(#fektz0u75qcfz)" height="135.6188" id="ShipLocation" style="stroke:#A80036;stroke-width:1.35;" width="93.6" x="589.5" y="102.15"/><ellipse cx="603" cy="116.55" fill="#ADD1B2" rx="9.9" ry="9.9" style="stroke:#A80036;stroke-width:0.9;"/><path d="M604.8,113.4 Q604.9828,112.95 605.1938,112.725 Q605.4047,112.5 605.6438,112.5 Q606.0656,112.5 606.3328,112.7531 Q606.6,113.0063 606.6,113.5969 L606.6,115.0031 Q606.6,115.5938 606.3469,115.8469 Q606.0938,116.1 605.7,116.1 Q605.3484,116.1 605.1234,115.9453 Q604.8984,115.7906 604.8,115.3828 Q604.7578,115.1016 604.6031,114.9469 Q604.3219,114.6516 603.8156,114.4828 Q603.3094,114.3 602.8031,114.3 Q602.1703,114.3 601.6359,114.5531 Q601.1156,114.8063 600.7078,115.3688 Q600.3,115.9313 600.3,116.7047 L600.3,117.5344 Q600.3,118.4625 601.0594,119.0813 Q601.8188,119.7 603.1688,119.7 Q603.9703,119.7 604.5328,119.5172 Q604.8563,119.4188 605.2219,119.0953 Q605.4609,118.9125 605.5875,118.8563 Q605.7141,118.8 605.8688,118.8 Q606.1641,118.8 606.375,119.0391 Q606.6,119.2641 606.6,119.5875 Q606.6,119.8969 606.2906,120.2625 Q605.8406,120.7969 605.1234,121.0922 Q604.1813,121.5 603.0281,121.5 Q601.6781,121.5 600.5953,120.9656 Q599.7234,120.5438 599.1047,119.6297 Q598.5,118.7156 598.5,117.6328 L598.5,116.6484 Q598.5,115.5234 599.0344,114.5391 Q599.5828,113.5547 600.525,113.0344 Q601.4813,112.5 602.55,112.5 Q603.1969,112.5 603.7594,112.725 Q604.3219,112.95 604.8,113.4 Z " fill="#000000"/><text fill="#000000" font-family="sans-serif" font-size="10.8" lengthAdjust="spacing" textLength="64.8" x="615.6" y="120.9691">ShipLocation</text><line style="stroke:#A80036;stroke-width:1.35;" x1="590.4" x2="682.2" y1="130.95" y2="130.95"/><text fill="#000000" font-family="sans-serif" font-size="9.9" lengthAdjust="spacing" textLength="64.8" x="594.9" y="144.8271">-baseDateTime</text><text fill="#000000" font-family="sans-serif" font-size="9.9" lengthAdjust="spacing" textLength="34.2" x="594.9" y="157.2794">-latitude</text><text fill="#000000" font-family="sans-serif" font-size="9.9" lengthAdjust="spacing" textLength="42.3" x="594.9" y="169.7317">-longitude</text><text fill="#000000" font-family="sans-serif" font-size="9.9" lengthAdjust="spacing" textLength="19.8" x="594.9" y="182.1841">-sog</text><text fill="#000000" font-family="sans-serif" font-size="9.9" lengthAdjust="spacing" textLength="19.8" x="594.9" y="194.6364">-cog</text><text fill="#000000" font-family="sans-serif" font-size="9.9" lengthAdjust="spacing" textLength="37.8" x="594.9" y="207.0888">-heading</text><text fill="#000000" font-family="sans-serif" font-size="9.9" lengthAdjust="spacing" textLength="36.9" x="594.9" y="219.5411">-position</text><text fill="#000000" font-family="sans-serif" font-size="9.9" lengthAdjust="spacing" textLength="53.1" x="594.9" y="231.9935">-transceiver</text><!--MD5=[f8e092794d52bf9a252466252ae7bd1c]
class System--><rect fill="#FEFECE" filter="url(#fektz0u75qcfz)" height="36" id="System" style="stroke:#A80036;stroke-width:1.35;" width="65.7" x="603.45" y="6.3"/><ellipse cx="616.95" cy="20.7" fill="#ADD1B2" rx="9.9" ry="9.9" style="stroke:#A80036;stroke-width:0.9;"/><path d="M618.75,17.55 Q618.9328,17.1 619.1438,16.875 Q619.3547,16.65 619.5938,16.65 Q620.0156,16.65 620.2828,16.9031 Q620.55,17.1563 620.55,17.7469 L620.55,19.1531 Q620.55,19.7438 620.2969,19.9969 Q620.0438,20.25 619.65,20.25 Q619.2984,20.25 619.0734,20.0953 Q618.8484,19.9406 618.75,19.5328 Q618.7078,19.2516 618.5531,19.0969 Q618.2719,18.8016 617.7656,18.6328 Q617.2594,18.45 616.7531,18.45 Q616.1203,18.45 615.5859,18.7031 Q615.0656,18.9563 614.6578,19.5188 Q614.25,20.0813 614.25,20.8547 L614.25,21.6844 Q614.25,22.6125 615.0094,23.2313 Q615.7688,23.85 617.1188,23.85 Q617.9203,23.85 618.4828,23.6672 Q618.8063,23.5688 619.1719,23.2453 Q619.4109,23.0625 619.5375,23.0063 Q619.6641,22.95 619.8188,22.95 Q620.1141,22.95 620.325,23.1891 Q620.55,23.4141 620.55,23.7375 Q620.55,24.0469 620.2406,24.4125 Q619.7906,24.9469 619.0734,25.2422 Q618.1313,25.65 616.9781,25.65 Q615.6281,25.65 614.5453,25.1156 Q613.6734,24.6938 613.0547,23.7797 Q612.45,22.8656 612.45,21.7828 L612.45,20.7984 Q612.45,19.6734 612.9844,18.6891 Q613.5328,17.7047 614.475,17.1844 Q615.4313,16.65 616.5,16.65 Q617.1469,16.65 617.7094,16.875 Q618.2719,17.1 618.75,17.55 Z " fill="#000000"/><text fill="#000000" font-family="sans-serif" font-size="10.8" lengthAdjust="spacing" textLength="36.9" x="629.55" y="25.1191">System</text><line style="stroke:#A80036;stroke-width:1.35;" x1="604.35" x2="668.25" y1="35.1" y2="35.1"/><!--MD5=[3fd616f346a44cd59a91eb10b19e157c]
class User--><rect fill="#FEFECE" filter="url(#fektz0u75qcfz)" height="36" id="User" style="stroke:#A80036;stroke-width:1.35;" width="53.1" x="419.85" y="65.7"/><ellipse cx="433.35" cy="80.1" fill="#ADD1B2" rx="9.9" ry="9.9" style="stroke:#A80036;stroke-width:0.9;"/><path d="M435.15,76.95 Q435.3328,76.5 435.5438,76.275 Q435.7547,76.05 435.9938,76.05 Q436.4156,76.05 436.6828,76.3031 Q436.95,76.5563 436.95,77.1469 L436.95,78.5531 Q436.95,79.1438 436.6969,79.3969 Q436.4438,79.65 436.05,79.65 Q435.6984,79.65 435.4734,79.4953 Q435.2484,79.3406 435.15,78.9328 Q435.1078,78.6516 434.9531,78.4969 Q434.6719,78.2016 434.1656,78.0328 Q433.6594,77.85 433.1531,77.85 Q432.5203,77.85 431.9859,78.1031 Q431.4656,78.3563 431.0578,78.9188 Q430.65,79.4813 430.65,80.2547 L430.65,81.0844 Q430.65,82.0125 431.4094,82.6313 Q432.1688,83.25 433.5188,83.25 Q434.3203,83.25 434.8828,83.0672 Q435.2063,82.9688 435.5719,82.6453 Q435.8109,82.4625 435.9375,82.4063 Q436.0641,82.35 436.2188,82.35 Q436.5141,82.35 436.725,82.5891 Q436.95,82.8141 436.95,83.1375 Q436.95,83.4469 436.6406,83.8125 Q436.1906,84.3469 435.4734,84.6422 Q434.5313,85.05 433.3781,85.05 Q432.0281,85.05 430.9453,84.5156 Q430.0734,84.0938 429.4547,83.1797 Q428.85,82.2656 428.85,81.1828 L428.85,80.1984 Q428.85,79.0734 429.3844,78.0891 Q429.9328,77.1047 430.875,76.5844 Q431.8313,76.05 432.9,76.05 Q433.5469,76.05 434.1094,76.275 Q434.6719,76.5 435.15,76.95 Z " fill="#000000"/><text fill="#000000" font-family="sans-serif" font-size="10.8" lengthAdjust="spacing" textLength="24.3" x="445.95" y="84.5191">User</text><line style="stroke:#A80036;stroke-width:1.35;" x1="420.75" x2="472.05" y1="94.5" y2="94.5"/><!--MD5=[d729e47c8b99010fceb84b610067730f]
link CargoManifest to Ports--><path codeLine="83" d="M900.198,443.799 C941.373,431.208 998.784,413.658 1034.73,402.66 " fill="none" id="CargoManifest-Ports" style="stroke:#A80036;stroke-width:0.9;"/><polygon fill="#000000" points="935.8033,403.8423,927.2451,403.6934,928.792,408.7522,935.8033,403.8423" style="stroke:#000000;stroke-width:0.9;"/><text fill="#000000" font-family="sans-serif" font-size="11.7" lengthAdjust="spacing" textLength="58.5" x="939.6" y="409.9456">delivered at</text><text fill="#000000" font-family="sans-serif" font-size="11.7" lengthAdjust="spacing" textLength="4.5" x="907.2995" y="454.9007">*</text><text fill="#000000" font-family="sans-serif" font-size="11.7" lengthAdjust="spacing" textLength="6.3" x="1021.4938" y="418.0812">1</text><!--MD5=[1007fce2994c0804f23855fbfd3e6bbd]
link CargoManifest to Warehouse--><path codeLine="84" d="M900.198,466.182 C938.115,471.672 989.784,479.142 1025.793,484.353 " fill="none" id="CargoManifest-Warehouse" style="stroke:#A80036;stroke-width:0.9;"/><polygon fill="#000000" points="935.9536,462.5026,928.2757,458.7191,927.5182,463.9547,935.9536,462.5026" style="stroke:#000000;stroke-width:0.9;"/><text fill="#000000" font-family="sans-serif" font-size="11.7" lengthAdjust="spacing" textLength="58.5" x="939.6" y="466.6456">delivered at</text><text fill="#000000" font-family="sans-serif" font-size="11.7" lengthAdjust="spacing" textLength="4.5" x="907.2995" y="480.2914">*</text><text fill="#000000" font-family="sans-serif" font-size="11.7" lengthAdjust="spacing" textLength="6.3" x="1012.364" y="480.1017">1</text><!--MD5=[37a14a5de6d6fd738aee271300f4b5c8]
link Company to Ship--><path codeLine="86" d="M82.917,225.198 C108.639,237.699 143.406,254.592 173.322,269.127 " fill="none" id="Company-Ship" style="stroke:#A80036;stroke-width:0.9;"/><polygon fill="#000000" points="119.6975,233.4249,113.5315,227.4881,111.2195,232.2461,119.6975,233.4249" style="stroke:#000000;stroke-width:0.9;"/><text fill="#000000" font-family="sans-serif" font-size="11.7" lengthAdjust="spacing" textLength="20.7" x="123.75" y="236.2456">own</text><text fill="#000000" font-family="sans-serif" font-size="11.7" lengthAdjust="spacing" textLength="6.3" x="90.0527" y="241.7488">1</text><text fill="#000000" font-family="sans-serif" font-size="11.7" lengthAdjust="spacing" textLength="18" x="148.6082" y="279.1244">1..*</text><!--MD5=[a2a194d3aa0c5b34ec916a16bebf9a1a]
link Company to System--><path codeLine="87" d="M70.182,182.502 C94.473,159.885 133.632,127.107 173.7,108.9 C324.108,40.527 525.879,27.387 603.306,24.885 " fill="none" id="Company-System" style="stroke:#A80036;stroke-width:0.9;"/><polygon fill="#000000" points="351.2654,38.4824,342.7089,38.2539,344.2087,43.3269,351.2654,38.4824" style="stroke:#000000;stroke-width:0.9;"/><text fill="#000000" font-family="sans-serif" font-size="11.7" lengthAdjust="spacing" textLength="18.9" x="355.05" y="44.5456">has</text><text fill="#000000" font-family="sans-serif" font-size="11.7" lengthAdjust="spacing" textLength="6.3" x="69.081" y="172.9711">1</text><text fill="#000000" font-family="sans-serif" font-size="11.7" lengthAdjust="spacing" textLength="18" x="578.3507" y="38.3462">1..*</text><!--MD5=[09366576ee87d48d594df10cacc83f45]
link Company to Employee--><path codeLine="88" d="M82.917,195.687 C116.127,185.661 164.412,171.081 197.883,160.983 " fill="none" id="Company-Employee" style="stroke:#A80036;stroke-width:0.9;"/><polygon fill="#000000" points="118.608,168.0578,110.0504,167.8781,111.5791,172.9425,118.608,168.0578" style="stroke:#000000;stroke-width:0.9;"/><text fill="#000000" font-family="sans-serif" font-size="11.7" lengthAdjust="spacing" textLength="23.4" x="122.4" y="174.1456">have</text><text fill="#000000" font-family="sans-serif" font-size="11.7" lengthAdjust="spacing" textLength="6.3" x="90.0527" y="207.1656">1</text><text fill="#000000" font-family="sans-serif" font-size="11.7" lengthAdjust="spacing" textLength="18" x="172.7938" y="175.9214">1..*</text><!--MD5=[710b10ea314ec23c5eb602bd01bfa9d5]
link Company to Truck--><path codeLine="89" d="M52.578,231.552 C67.122,276.867 104.823,373.176 173.7,418.5 C250.515,469.035 365.994,464.859 418.176,459.738 " fill="none" id="Company-Truck" style="stroke:#A80036;stroke-width:0.9;"/><polygon fill="#000000" points="228.3675,412.9408,222.8621,406.3868,220.0611,410.8744,228.3675,412.9408" style="stroke:#000000;stroke-width:0.9;"/><text fill="#000000" font-family="sans-serif" font-size="11.7" lengthAdjust="spacing" textLength="20.7" x="232.65" y="415.3456">own</text><text fill="#000000" font-family="sans-serif" font-size="11.7" lengthAdjust="spacing" textLength="6.3" x="47.3451" y="250.6941">1</text><text fill="#000000" font-family="sans-serif" font-size="11.7" lengthAdjust="spacing" textLength="18" x="393.3128" y="473.8742">1..*</text><!--MD5=[a27713cdd7694cea32c8be89a3131559]
link Containers to CargoManifest--><path codeLine="91" d="M680.508,456.849 C714.951,457.29 763.164,457.902 799.146,458.361 " fill="none" id="Containers-CargoManifest" style="stroke:#A80036;stroke-width:0.9;"/><polygon fill="#000000" points="719.0996,449.3155,710.9934,446.567,710.926,451.8566,719.0996,449.3155" style="stroke:#000000;stroke-width:0.9;"/><text fill="#000000" font-family="sans-serif" font-size="11.7" lengthAdjust="spacing" textLength="48.6" x="722.7" y="454.0456">related to</text><text fill="#000000" font-family="sans-serif" font-size="11.7" lengthAdjust="spacing" textLength="18" x="687.6578" y="470.0354">1..*</text><text fill="#000000" font-family="sans-serif" font-size="11.7" lengthAdjust="spacing" textLength="18" x="773.9" y="471.3345">1..*</text><!--MD5=[c7fc6f07f2489647d2a3f83969f89660]
link Containers to Ports--><path codeLine="92" d="M680.544,442.089 C690.219,439.146 700.461,436.221 710.1,433.8 C805.356,409.878 829.242,400.941 927,391.5 C958.851,388.422 967.005,391.293 999,391.5 C1010.673,391.572 1023.444,391.725 1034.811,391.878 " fill="none" id="Containers-Ports" style="stroke:#A80036;stroke-width:0.9;"/><polygon fill="#000000" points="838.7555,385.6267,830.3243,384.1502,831.0666,389.3879,838.7555,385.6267" style="stroke:#000000;stroke-width:0.9;"/><text fill="#000000" font-family="sans-serif" font-size="11.7" lengthAdjust="spacing" textLength="26.1" x="842.4" y="391.0456">store</text><text fill="#000000" font-family="sans-serif" font-size="11.7" lengthAdjust="spacing" textLength="18" x="687.6987" y="453.292">0..*</text><text fill="#000000" font-family="sans-serif" font-size="11.7" lengthAdjust="spacing" textLength="6.3" x="1021.5897" y="388.2563">1</text><!--MD5=[40d84d2acc82335a7c6decf41782281a]
link Containers to Warehouse--><path codeLine="93" d="M680.724,477.018 C712.692,491.04 757.611,508.311 799.2,515.7 C878.553,529.785 972.549,513.63 1025.829,501.471 " fill="none" id="Containers-Warehouse" style="stroke:#A80036;stroke-width:0.9;"/><polygon fill="#000000" points="838.7887,508.0763,830.8555,504.8625,830.4816,510.1393,838.7887,508.0763" style="stroke:#000000;stroke-width:0.9;"/><text fill="#000000" font-family="sans-serif" font-size="11.7" lengthAdjust="spacing" textLength="26.1" x="842.4" y="512.5456">store</text><text fill="#000000" font-family="sans-serif" font-size="11.7" lengthAdjust="spacing" textLength="18" x="687.569" y="492.7401">0..*</text><text fill="#000000" font-family="sans-serif" font-size="11.7" lengthAdjust="spacing" textLength="6.3" x="1012.4055" y="499.8409">1</text><!--MD5=[3d04185e7085eaaeba7ebd93b9963be0]
link PlaceLocation to Country--><path codeLine="95" d="M1330.38,444.6 C1365.966,444.6 1413.225,444.6 1444.32,444.6 " fill="none" id="PlaceLocation-Country" style="stroke:#A80036;stroke-width:0.9;"/><polygon fill="#000000" points="1366.2,436.6582,1358.0594,434.0132,1358.0594,439.3032,1366.2,436.6582" style="stroke:#000000;stroke-width:0.9;"/><text fill="#000000" font-family="sans-serif" font-size="11.7" lengthAdjust="spacing" textLength="46.8" x="1369.8" y="441.4456">placed in</text><text fill="#000000" font-family="sans-serif" font-size="11.7" lengthAdjust="spacing" textLength="4.5" x="1337.3581" y="457.7542">*</text><text fill="#000000" font-family="sans-serif" font-size="11.7" lengthAdjust="spacing" textLength="6.3" x="1431.0374" y="458.1764">1</text><!--MD5=[aaa368e4b832683362a5bdda330bd90d]
link Ports to PlaceLocation--><path codeLine="97" d="M1103.562,400.725 C1137.906,409.275 1191.708,422.667 1230.84,432.405 " fill="none" id="Ports-PlaceLocation" style="stroke:#A80036;stroke-width:0.9;"/><polygon fill="#000000" points="1148.2668,403.5451,1141.0061,399.0122,1139.7283,404.1456,1148.2668,403.5451" style="stroke:#000000;stroke-width:0.9;"/><text fill="#000000" font-family="sans-serif" font-size="11.7" lengthAdjust="spacing" textLength="51.3" x="1152" y="407.2456">located at</text><text fill="#000000" font-family="sans-serif" font-size="11.7" lengthAdjust="spacing" textLength="6.3" x="1110.7127" y="415.8884">1</text><text fill="#000000" font-family="sans-serif" font-size="11.7" lengthAdjust="spacing" textLength="6.3" x="1217.7481" y="443.9498">1</text><!--MD5=[cff4e3c6ede03364cf99bd3378be6b6a]
link Ship to Containers--><path codeLine="99" d="M301.014,324.513 C382.311,356.553 521.676,411.48 592.047,439.209 " fill="none" id="Ship-Containers" style="stroke:#A80036;stroke-width:0.9;"/><polygon fill="#000000" points="425.3866,363.6081,418.7828,358.1625,416.8432,363.0842,425.3866,363.6081" style="stroke:#000000;stroke-width:0.9;"/><text fill="#000000" font-family="sans-serif" font-size="11.7" lengthAdjust="spacing" textLength="45.9" x="429.3" y="366.7456">transport</text><text fill="#000000" font-family="sans-serif" font-size="11.7" lengthAdjust="spacing" textLength="6.3" x="307.9248" y="339.9672">1</text><text fill="#000000" font-family="sans-serif" font-size="11.7" lengthAdjust="spacing" textLength="18" x="566.8911" y="450.025">1..*</text><!--MD5=[b5e7d3b323f2cd13b2215620f50e65f3]
link Ship to Ports--><path codeLine="100" d="M300.663,303.417 C341.811,305.541 396.846,307.8 445.5,307.8 C445.5,307.8 445.5,307.8 850.5,307.8 C919.665,307.8 993.312,345.321 1034.793,370.395 " fill="none" id="Ship-Ports" style="stroke:#A80036;stroke-width:0.9;"/><polygon fill="#000000" points="625.9314,300.2671,618.0648,296.8933,617.5842,302.1615,625.9314,300.2671" style="stroke:#000000;stroke-width:0.9;"/><text fill="#000000" font-family="sans-serif" font-size="11.7" lengthAdjust="spacing" textLength="25.2" x="629.55" y="304.6456">dock</text><text fill="#000000" font-family="sans-serif" font-size="11.7" lengthAdjust="spacing" textLength="18" x="307.801" y="316.6442">0..*</text><text fill="#000000" font-family="sans-serif" font-size="11.7" lengthAdjust="spacing" textLength="6.3" x="1021.5684" y="362.8123">1</text><!--MD5=[5541ef512584d1243c10a7f3b3317e1c]
link Ship to ShipLocation--><path codeLine="101" d="M301.014,279.162 C381.321,252.972 518.31,208.287 589.455,185.085 " fill="none" id="Ship-ShipLocation" style="stroke:#A80036;stroke-width:0.9;"/><polygon fill="#000000" points="438.9782,215.6628,430.4187,215.6724,432.059,220.7017,438.9782,215.6628" style="stroke:#000000;stroke-width:0.9;"/><text fill="#000000" font-family="sans-serif" font-size="11.7" lengthAdjust="spacing" textLength="18.9" x="442.8" y="221.8456">has</text><text fill="#000000" font-family="sans-serif" font-size="11.7" lengthAdjust="spacing" textLength="6.3" x="307.9248" y="289.9394">1</text><text fill="#000000" font-family="sans-serif" font-size="11.7" lengthAdjust="spacing" textLength="18" x="564.2999" y="200.1113">1..*</text><!--MD5=[9c226fb16923f449f2aeb2d55d4b05b5]
link Employee to ShipLocation--><path codeLine="103" d="M276.507,151.398 C350.037,155.232 510.237,163.575 589.338,167.697 " fill="none" id="Employee-ShipLocation" style="stroke:#A80036;stroke-width:0.9;"/><polygon fill="#000000" points="427.9439,151.5923,419.952,148.5273,419.6767,153.8102,427.9439,151.5923" style="stroke:#000000;stroke-width:0.9;"/><text fill="#000000" font-family="sans-serif" font-size="11.7" lengthAdjust="spacing" textLength="41.4" x="431.55" y="156.1456">controls</text><text fill="#000000" font-family="sans-serif" font-size="11.7" lengthAdjust="spacing" textLength="6.3" x="283.5472" y="165.1055">1</text><text fill="#000000" font-family="sans-serif" font-size="11.7" lengthAdjust="spacing" textLength="18" x="564.1679" y="180.4955">1..*</text><!--MD5=[22fb9506fac029fc1d2ae00f0eb8d606]
link Employee to User--><path codeLine="104" d="M276.345,137.268 C318.015,124.074 383.517,103.329 419.562,91.908 " fill="none" id="Employee-User" style="stroke:#A80036;stroke-width:0.9;"/><polygon fill="#000000" points="336.39,94.1995,327.8307,94.1359,329.428,99.179,336.39,94.1995" style="stroke:#000000;stroke-width:0.9;"/><text fill="#000000" font-family="sans-serif" font-size="11.7" lengthAdjust="spacing" textLength="48.6" x="340.2" y="100.3456">relates to</text><text fill="#000000" font-family="sans-serif" font-size="11.7" lengthAdjust="spacing" textLength="6.3" x="283.623" y="131.7308">1</text><text fill="#000000" font-family="sans-serif" font-size="11.7" lengthAdjust="spacing" textLength="6.3" x="406.3273" y="107.6533">1</text><!--MD5=[8cef3b8bb432fdc493768abc58cade76]
link Truck to Containers--><path codeLine="106" d="M474.651,456.3 C505.422,456.3 555.822,456.3 591.984,456.3 " fill="none" id="Truck-Containers" style="stroke:#A80036;stroke-width:0.9;"/><polygon fill="#000000" points="512.1,448.3582,503.9594,445.7132,503.9594,451.0032,512.1,448.3582" style="stroke:#000000;stroke-width:0.9;"/><text fill="#000000" font-family="sans-serif" font-size="11.7" lengthAdjust="spacing" textLength="45.9" x="515.7" y="453.1456">transport</text><text fill="#000000" font-family="sans-serif" font-size="11.7" lengthAdjust="spacing" textLength="6.3" x="481.52" y="470.0552">1</text><text fill="#000000" font-family="sans-serif" font-size="11.7" lengthAdjust="spacing" textLength="18" x="567.1529" y="469.3677">1..*</text><!--MD5=[668bfb6c3cf503ab645d5414a0ff2b4e]
link Truck to Warehouse--><path codeLine="107" d="M466.02,474.525 C491.481,497.916 539.613,537.3 589.5,552.6 C671.733,577.818 839.862,569.304 999,524.7 C1007.91,522.198 1017.054,518.562 1025.658,514.584 " fill="none" id="Truck-Warehouse" style="stroke:#A80036;stroke-width:0.9;"/><polygon fill="#000000" points="732.1385,556.6795,724.2076,553.46,723.8299,558.7366,732.1385,556.6795" style="stroke:#000000;stroke-width:0.9;"/><text fill="#000000" font-family="sans-serif" font-size="11.7" lengthAdjust="spacing" textLength="22.5" x="735.75" y="561.1456">park</text><text fill="#000000" font-family="sans-serif" font-size="11.7" lengthAdjust="spacing" textLength="18" x="450.8741" y="493.5461">0..*</text><text fill="#000000" font-family="sans-serif" font-size="11.7" lengthAdjust="spacing" textLength="6.3" x="1012.5001" y="531.3694">1</text><!--MD5=[4a0bbcdd6df460060db454e8e2c30a96]
link User to System--><path codeLine="109" d="M473.112,79.425 C496.737,75.141 532.485,67.734 562.5,57.6 C576.207,52.965 590.814,46.602 603.315,40.68 " fill="none" id="User-System" style="stroke:#A80036;stroke-width:0.9;"/><polygon fill="#000000" points="522.2631,48.3747,513.7062,48.1614,515.215,53.2317,522.2631,48.3747" style="stroke:#000000;stroke-width:0.9;"/><text fill="#000000" font-family="sans-serif" font-size="11.7" lengthAdjust="spacing" textLength="25.2" x="526.05" y="54.4456">uses</text><text fill="#000000" font-family="sans-serif" font-size="11.7" lengthAdjust="spacing" textLength="18" x="480.1428" y="92.1776">1..*</text><text fill="#000000" font-family="sans-serif" font-size="11.7" lengthAdjust="spacing" textLength="6.3" x="589.9009" y="57.4991">1</text><!--MD5=[591625470abc4a5f324d9b49d40e13b3]
link Warehouse to PlaceLocation--><path codeLine="111" d="M1112.481,482.481 C1138.923,477.36 1173.618,470.394 1204.2,463.5 C1212.912,461.529 1222.155,459.324 1231.074,457.128 " fill="none" id="Warehouse-PlaceLocation" style="stroke:#A80036;stroke-width:0.9;"/><polygon fill="#000000" points="1148.3006,454.6174,1139.7869,453.7327,1140.8928,458.9059,1148.3006,454.6174" style="stroke:#000000;stroke-width:0.9;"/><text fill="#000000" font-family="sans-serif" font-size="11.7" lengthAdjust="spacing" textLength="51.3" x="1152" y="460.3456">located at</text><text fill="#000000" font-family="sans-serif" font-size="11.7" lengthAdjust="spacing" textLength="6.3" x="1119.5907" y="494.548">1</text><text fill="#000000" font-family="sans-serif" font-size="11.7" lengthAdjust="spacing" textLength="6.3" x="1217.6822" y="471.9657">1</text><!--MD5=[c59730118a742deda639cc49eb61cca5]
@startuml
'https://plantuml.com/class-diagram

hide methods
left to right direction
skinparam classAttributeIconSize 0

class Company {
-designation
}

class Employee {
-name
}

class Containers {
-x
-y
-z
-containerNumber
-checkDigit
-isoCode
-payLoad
-tare
-gross
-weight
}

class CargoManifest {
-containerNumber
}

class Ship {
-mmsiCode
-imoCode
-numberEnergyGenerators
-generatorPower
-callSign
-draft
-name
-vesselTypeId
-length
-width
-capacity
}



class Ports {
-identification
-name
}

class Truck {

}

class Warehouse {
-identification
-name
}

class Country {
-name
-continent
}

class PlaceLocation {
-latitude
-longitude
}

class ShipLocation {
-baseDateTime
-latitude
-longitude
-sog
-cog
-heading
-position
-transceiver
}

CargoManifest "*" - - "1" Ports : delivered at >
CargoManifest "*" - - "1" Warehouse : delivered at >

Company "1"- -"1..*" Ship: own >
Company "1" - "1..*" System : has >
Company "1"- -"1..*" Employee: have >
Company "1"- -"1..*" Truck: own >

Containers "1..*"- -"1..*" CargoManifest: related to >
Containers "0..*"- -"1" Ports: store >
Containers "0..*"- -"1" Warehouse: store >

PlaceLocation "*" - - "1" Country : placed in >

Ports "1" - - "1" PlaceLocation : located at >

Ship "1"- - -"1..*" Containers : transport >
Ship "0..*"- -"1" Ports: dock >
Ship "1" - - "1..*" ShipLocation : has >

Employee "1" - - - "1..*" ShipLocation : controls >
Employee "1" - - "1" User : relates to >

Truck "1"- -"1..*" Containers : transport >
Truck "0..*"- -"1" Warehouse: park >

User "1..*" - - "1" System : uses >

Warehouse "1" - - "1" PlaceLocation : located at >





@enduml

@startuml

hide methods
left to right direction
skinparam classAttributeIconSize 0

class Company {
-designation
}

class Employee {
-name
}

class Containers {
-x
-y
-z
-containerNumber
-checkDigit
-isoCode
-payLoad
-tare
-gross
-weight
}

class CargoManifest {
-containerNumber
}

class Ship {
-mmsiCode
-imoCode
-numberEnergyGenerators
-generatorPower
-callSign
-draft
-name
-vesselTypeId
-length
-width
-capacity
}



class Ports {
-identification
-name
}

class Truck {

}

class Warehouse {
-identification
-name
}

class Country {
-name
-continent
}

class PlaceLocation {
-latitude
-longitude
}

class ShipLocation {
-baseDateTime
-latitude
-longitude
-sog
-cog
-heading
-position
-transceiver
}

CargoManifest "*" - - "1" Ports : delivered at >
CargoManifest "*" - - "1" Warehouse : delivered at >

Company "1"- -"1..*" Ship: own >
Company "1" - "1..*" System : has >
Company "1"- -"1..*" Employee: have >
Company "1"- -"1..*" Truck: own >

Containers "1..*"- -"1..*" CargoManifest: related to >
Containers "0..*"- -"1" Ports: store >
Containers "0..*"- -"1" Warehouse: store >

PlaceLocation "*" - - "1" Country : placed in >

Ports "1" - - "1" PlaceLocation : located at >

Ship "1"- - -"1..*" Containers : transport >
Ship "0..*"- -"1" Ports: dock >
Ship "1" - - "1..*" ShipLocation : has >

Employee "1" - - - "1..*" ShipLocation : controls >
Employee "1" - - "1" User : relates to >

Truck "1"- -"1..*" Containers : transport >
Truck "0..*"- -"1" Warehouse: park >

User "1..*" - - "1" System : uses >

Warehouse "1" - - "1" PlaceLocation : located at >





@enduml

PlantUML version 1.2021.5(Sun Apr 25 12:20:28 BST 2021)
(GPL source distribution)
Java Runtime: OpenJDK Runtime Environment
JVM: Dynamic Code Evolution 64-Bit Server VM
Default Encoding: Cp1252
Language: pt
Country: PT
--></g></svg>