<?xml version="1.0" encoding="UTF-8" standalone="no"?><svg xmlns="http://www.w3.org/2000/svg" xmlns:xlink="http://www.w3.org/1999/xlink" contentScriptType="application/ecmascript" contentStyleType="text/css" height="743px" preserveAspectRatio="none" style="width:1697px;height:743px;background:#FFFFFF;" version="1.1" viewBox="0 0 1697 743" width="1697px" zoomAndPan="magnify"><defs><filter height="300%" id="f1rhha9kauwpq3" width="300%" x="-1" y="-1"><feGaussianBlur result="blurOut" stdDeviation="2.0"/><feColorMatrix in="blurOut" result="blurOut2" type="matrix" values="0 0 0 0 0 0 0 0 0 0 0 0 0 0 0 0 0 0 .4 0"/><feOffset dx="4.0" dy="4.0" in="blurOut2" result="blurOut3"/><feBlend in="SourceGraphic" in2="blurOut3" mode="normal"/></filter></defs><g><!--MD5=[02e4b9b7573f1156f41e60aa5b4e25a4]
class Company--><rect codeLine="7" fill="#FEFECE" filter="url(#f1rhha9kauwpq3)" height="53.8359" id="Company" style="stroke:#A80036;stroke-width:1.5;" width="85" x="7" y="203"/><ellipse cx="22" cy="219" fill="#ADD1B2" rx="11" ry="11" style="stroke:#A80036;stroke-width:1.0;"/><path d="M24,215.5 Q24.2031,215 24.4375,214.75 Q24.6719,214.5 24.9375,214.5 Q25.4063,214.5 25.7031,214.7813 Q26,215.0625 26,215.7188 L26,217.2813 Q26,217.9375 25.7188,218.2188 Q25.4375,218.5 25,218.5 Q24.6094,218.5 24.3594,218.3281 Q24.1094,218.1563 24,217.7031 Q23.9531,217.3906 23.7813,217.2188 Q23.4688,216.8906 22.9063,216.7031 Q22.3438,216.5 21.7813,216.5 Q21.0781,216.5 20.4844,216.7813 Q19.9063,217.0625 19.4531,217.6875 Q19,218.3125 19,219.1719 L19,220.0938 Q19,221.125 19.8438,221.8125 Q20.6875,222.5 22.1875,222.5 Q23.0781,222.5 23.7031,222.2969 Q24.0625,222.1875 24.4688,221.8281 Q24.7344,221.625 24.875,221.5625 Q25.0156,221.5 25.1875,221.5 Q25.5156,221.5 25.75,221.7656 Q26,222.0156 26,222.375 Q26,222.7188 25.6563,223.125 Q25.1563,223.7188 24.3594,224.0469 Q23.3125,224.5 22.0313,224.5 Q20.5313,224.5 19.3281,223.9063 Q18.3594,223.4375 17.6719,222.4219 Q17,221.4063 17,220.2031 L17,219.1094 Q17,217.8594 17.5938,216.7656 Q18.2031,215.6719 19.25,215.0938 Q20.3125,214.5 21.5,214.5 Q22.2188,214.5 22.8438,214.75 Q23.4688,215 24,215.5 Z " fill="#000000"/><text fill="#000000" font-family="sans-serif" font-size="12" lengthAdjust="spacing" textLength="53" x="36" y="223.9102">Company</text><line style="stroke:#A80036;stroke-width:1.5;" x1="8" x2="91" y1="235" y2="235"/><text fill="#000000" font-family="sans-serif" font-size="11" lengthAdjust="spacing" textLength="59" x="13" y="250.4189">-designation</text><!--MD5=[7421f545a0d8420c5bec41e74b387d9c]
class Employee--><rect codeLine="11" fill="#FEFECE" filter="url(#f1rhha9kauwpq3)" height="53.8359" id="Employee" style="stroke:#A80036;stroke-width:1.5;" width="87" x="220" y="139"/><ellipse cx="235" cy="155" fill="#ADD1B2" rx="11" ry="11" style="stroke:#A80036;stroke-width:1.0;"/><path d="M237,151.5 Q237.2031,151 237.4375,150.75 Q237.6719,150.5 237.9375,150.5 Q238.4063,150.5 238.7031,150.7813 Q239,151.0625 239,151.7188 L239,153.2813 Q239,153.9375 238.7188,154.2188 Q238.4375,154.5 238,154.5 Q237.6094,154.5 237.3594,154.3281 Q237.1094,154.1563 237,153.7031 Q236.9531,153.3906 236.7813,153.2188 Q236.4688,152.8906 235.9063,152.7031 Q235.3438,152.5 234.7813,152.5 Q234.0781,152.5 233.4844,152.7813 Q232.9063,153.0625 232.4531,153.6875 Q232,154.3125 232,155.1719 L232,156.0938 Q232,157.125 232.8438,157.8125 Q233.6875,158.5 235.1875,158.5 Q236.0781,158.5 236.7031,158.2969 Q237.0625,158.1875 237.4688,157.8281 Q237.7344,157.625 237.875,157.5625 Q238.0156,157.5 238.1875,157.5 Q238.5156,157.5 238.75,157.7656 Q239,158.0156 239,158.375 Q239,158.7188 238.6563,159.125 Q238.1563,159.7188 237.3594,160.0469 Q236.3125,160.5 235.0313,160.5 Q233.5313,160.5 232.3281,159.9063 Q231.3594,159.4375 230.6719,158.4219 Q230,157.4063 230,156.2031 L230,155.1094 Q230,153.8594 230.5938,152.7656 Q231.2031,151.6719 232.25,151.0938 Q233.3125,150.5 234.5,150.5 Q235.2188,150.5 235.8438,150.75 Q236.4688,151 237,151.5 Z " fill="#000000"/><text fill="#000000" font-family="sans-serif" font-size="12" lengthAdjust="spacing" textLength="55" x="249" y="159.9102">Employee</text><line style="stroke:#A80036;stroke-width:1.5;" x1="221" x2="306" y1="171" y2="171"/><text fill="#000000" font-family="sans-serif" font-size="11" lengthAdjust="spacing" textLength="30" x="226" y="186.4189">-name</text><!--MD5=[a3093aa9f96b7df9aab31d8715601ff6]
class Containers--><rect codeLine="15" fill="#FEFECE" filter="url(#f1rhha9kauwpq3)" height="178.3594" id="Containers" style="stroke:#A80036;stroke-width:1.5;" width="98" x="658" y="455"/><ellipse cx="675.25" cy="471" fill="#ADD1B2" rx="11" ry="11" style="stroke:#A80036;stroke-width:1.0;"/><path d="M677.25,467.5 Q677.4531,467 677.6875,466.75 Q677.9219,466.5 678.1875,466.5 Q678.6563,466.5 678.9531,466.7813 Q679.25,467.0625 679.25,467.7188 L679.25,469.2813 Q679.25,469.9375 678.9688,470.2188 Q678.6875,470.5 678.25,470.5 Q677.8594,470.5 677.6094,470.3281 Q677.3594,470.1563 677.25,469.7031 Q677.2031,469.3906 677.0313,469.2188 Q676.7188,468.8906 676.1563,468.7031 Q675.5938,468.5 675.0313,468.5 Q674.3281,468.5 673.7344,468.7813 Q673.1563,469.0625 672.7031,469.6875 Q672.25,470.3125 672.25,471.1719 L672.25,472.0938 Q672.25,473.125 673.0938,473.8125 Q673.9375,474.5 675.4375,474.5 Q676.3281,474.5 676.9531,474.2969 Q677.3125,474.1875 677.7188,473.8281 Q677.9844,473.625 678.125,473.5625 Q678.2656,473.5 678.4375,473.5 Q678.7656,473.5 679,473.7656 Q679.25,474.0156 679.25,474.375 Q679.25,474.7188 678.9063,475.125 Q678.4063,475.7188 677.6094,476.0469 Q676.5625,476.5 675.2813,476.5 Q673.7813,476.5 672.5781,475.9063 Q671.6094,475.4375 670.9219,474.4219 Q670.25,473.4063 670.25,472.2031 L670.25,471.1094 Q670.25,469.8594 670.8438,468.7656 Q671.4531,467.6719 672.5,467.0938 Q673.5625,466.5 674.75,466.5 Q675.4688,466.5 676.0938,466.75 Q676.7188,467 677.25,467.5 Z " fill="#000000"/><text fill="#000000" font-family="sans-serif" font-size="12" lengthAdjust="spacing" textLength="61" x="689.75" y="475.9102">Containers</text><line style="stroke:#A80036;stroke-width:1.5;" x1="659" x2="755" y1="487" y2="487"/><text fill="#000000" font-family="sans-serif" font-size="11" lengthAdjust="spacing" textLength="10" x="664" y="502.4189">-x</text><text fill="#000000" font-family="sans-serif" font-size="11" lengthAdjust="spacing" textLength="10" x="664" y="516.2549">-y</text><text fill="#000000" font-family="sans-serif" font-size="11" lengthAdjust="spacing" textLength="10" x="664" y="530.0908">-z</text><text fill="#000000" font-family="sans-serif" font-size="11" lengthAdjust="spacing" textLength="86" x="664" y="543.9268">-containerNumber</text><text fill="#000000" font-family="sans-serif" font-size="11" lengthAdjust="spacing" textLength="53" x="664" y="557.7627">-checkDigit</text><text fill="#000000" font-family="sans-serif" font-size="11" lengthAdjust="spacing" textLength="43" x="664" y="571.5986">-isoCode</text><text fill="#000000" font-family="sans-serif" font-size="11" lengthAdjust="spacing" textLength="46" x="664" y="585.4346">-payLoad</text><text fill="#000000" font-family="sans-serif" font-size="11" lengthAdjust="spacing" textLength="23" x="664" y="599.2705">-tare</text><text fill="#000000" font-family="sans-serif" font-size="11" lengthAdjust="spacing" textLength="32" x="664" y="613.1064">-gross</text><text fill="#000000" font-family="sans-serif" font-size="11" lengthAdjust="spacing" textLength="37" x="664" y="626.9424">-weight</text><!--MD5=[76562047389981627aea27c31a97aff5]
class CargoManifest--><rect codeLine="28" fill="#FEFECE" filter="url(#f1rhha9kauwpq3)" height="136.8516" id="CargoManifest" style="stroke:#A80036;stroke-width:1.5;" width="116" x="888" y="483.5"/><ellipse cx="904.8" cy="499.5" fill="#ADD1B2" rx="11" ry="11" style="stroke:#A80036;stroke-width:1.0;"/><path d="M906.8,496 Q907.0031,495.5 907.2375,495.25 Q907.4719,495 907.7375,495 Q908.2063,495 908.5031,495.2813 Q908.8,495.5625 908.8,496.2188 L908.8,497.7813 Q908.8,498.4375 908.5188,498.7188 Q908.2375,499 907.8,499 Q907.4094,499 907.1594,498.8281 Q906.9094,498.6563 906.8,498.2031 Q906.7531,497.8906 906.5813,497.7188 Q906.2688,497.3906 905.7063,497.2031 Q905.1438,497 904.5813,497 Q903.8781,497 903.2844,497.2813 Q902.7063,497.5625 902.2531,498.1875 Q901.8,498.8125 901.8,499.6719 L901.8,500.5938 Q901.8,501.625 902.6438,502.3125 Q903.4875,503 904.9875,503 Q905.8781,503 906.5031,502.7969 Q906.8625,502.6875 907.2688,502.3281 Q907.5344,502.125 907.675,502.0625 Q907.8156,502 907.9875,502 Q908.3156,502 908.55,502.2656 Q908.8,502.5156 908.8,502.875 Q908.8,503.2188 908.4563,503.625 Q907.9563,504.2188 907.1594,504.5469 Q906.1125,505 904.8313,505 Q903.3313,505 902.1281,504.4063 Q901.1594,503.9375 900.4719,502.9219 Q899.8,501.9063 899.8,500.7031 L899.8,499.6094 Q899.8,498.3594 900.3938,497.2656 Q901.0031,496.1719 902.05,495.5938 Q903.1125,495 904.3,495 Q905.0188,495 905.6438,495.25 Q906.2688,495.5 906.8,496 Z " fill="#000000"/><text fill="#000000" font-family="sans-serif" font-size="12" lengthAdjust="spacing" textLength="80" x="919.2" y="504.4102">CargoManifest</text><line style="stroke:#A80036;stroke-width:1.5;" x1="889" x2="1003" y1="515.5" y2="515.5"/><text fill="#000000" font-family="sans-serif" font-size="11" lengthAdjust="spacing" textLength="81" x="894" y="530.9189">-listOfContainers</text><text fill="#000000" font-family="sans-serif" font-size="11" lengthAdjust="spacing" textLength="25" x="894" y="544.7549">-ratio</text><text fill="#000000" font-family="sans-serif" font-size="11" lengthAdjust="spacing" textLength="25" x="894" y="558.5908">-date</text><text fill="#000000" font-family="sans-serif" font-size="11" lengthAdjust="spacing" textLength="53" x="894" y="572.4268">-mmsiCode</text><text fill="#000000" font-family="sans-serif" font-size="11" lengthAdjust="spacing" textLength="12" x="894" y="586.2627">-id</text><text fill="#000000" font-family="sans-serif" font-size="11" lengthAdjust="spacing" textLength="104" x="894" y="600.0986">-numberOfContainers</text><text fill="#000000" font-family="sans-serif" font-size="11" lengthAdjust="spacing" textLength="56" x="894" y="613.9346">-destination</text><!--MD5=[0dc7f2ddb409b58bcf52b12238c25399]
class Ship--><rect codeLine="38" fill="#FEFECE" filter="url(#f1rhha9kauwpq3)" height="192.1953" id="Ship" style="stroke:#A80036;stroke-width:1.5;" width="141" x="193" y="237"/><ellipse cx="246.75" cy="253" fill="#ADD1B2" rx="11" ry="11" style="stroke:#A80036;stroke-width:1.0;"/><path d="M248.75,249.5 Q248.9531,249 249.1875,248.75 Q249.4219,248.5 249.6875,248.5 Q250.1563,248.5 250.4531,248.7813 Q250.75,249.0625 250.75,249.7188 L250.75,251.2813 Q250.75,251.9375 250.4688,252.2188 Q250.1875,252.5 249.75,252.5 Q249.3594,252.5 249.1094,252.3281 Q248.8594,252.1563 248.75,251.7031 Q248.7031,251.3906 248.5313,251.2188 Q248.2188,250.8906 247.6563,250.7031 Q247.0938,250.5 246.5313,250.5 Q245.8281,250.5 245.2344,250.7813 Q244.6563,251.0625 244.2031,251.6875 Q243.75,252.3125 243.75,253.1719 L243.75,254.0938 Q243.75,255.125 244.5938,255.8125 Q245.4375,256.5 246.9375,256.5 Q247.8281,256.5 248.4531,256.2969 Q248.8125,256.1875 249.2188,255.8281 Q249.4844,255.625 249.625,255.5625 Q249.7656,255.5 249.9375,255.5 Q250.2656,255.5 250.5,255.7656 Q250.75,256.0156 250.75,256.375 Q250.75,256.7188 250.4063,257.125 Q249.9063,257.7188 249.1094,258.0469 Q248.0625,258.5 246.7813,258.5 Q245.2813,258.5 244.0781,257.9063 Q243.1094,257.4375 242.4219,256.4219 Q241.75,255.4063 241.75,254.2031 L241.75,253.1094 Q241.75,251.8594 242.3438,250.7656 Q242.9531,249.6719 244,249.0938 Q245.0625,248.5 246.25,248.5 Q246.9688,248.5 247.5938,248.75 Q248.2188,249 248.75,249.5 Z " fill="#000000"/><text fill="#000000" font-family="sans-serif" font-size="12" lengthAdjust="spacing" textLength="25" x="267.25" y="257.9102">Ship</text><line style="stroke:#A80036;stroke-width:1.5;" x1="194" x2="333" y1="269" y2="269"/><text fill="#000000" font-family="sans-serif" font-size="11" lengthAdjust="spacing" textLength="53" x="199" y="284.4189">-mmsiCode</text><text fill="#000000" font-family="sans-serif" font-size="11" lengthAdjust="spacing" textLength="45" x="199" y="298.2549">-imoCode</text><text fill="#000000" font-family="sans-serif" font-size="11" lengthAdjust="spacing" textLength="129" x="199" y="312.0908">-numberEnergyGenerators</text><text fill="#000000" font-family="sans-serif" font-size="11" lengthAdjust="spacing" textLength="83" x="199" y="325.9268">-generatorPower</text><text fill="#000000" font-family="sans-serif" font-size="11" lengthAdjust="spacing" textLength="41" x="199" y="339.7627">-callSign</text><text fill="#000000" font-family="sans-serif" font-size="11" lengthAdjust="spacing" textLength="27" x="199" y="353.5986">-draft</text><text fill="#000000" font-family="sans-serif" font-size="11" lengthAdjust="spacing" textLength="30" x="199" y="367.4346">-name</text><text fill="#000000" font-family="sans-serif" font-size="11" lengthAdjust="spacing" textLength="68" x="199" y="381.2705">-vesselTypeId</text><text fill="#000000" font-family="sans-serif" font-size="11" lengthAdjust="spacing" textLength="33" x="199" y="395.1064">-length</text><text fill="#000000" font-family="sans-serif" font-size="11" lengthAdjust="spacing" textLength="31" x="199" y="408.9424">-width</text><text fill="#000000" font-family="sans-serif" font-size="11" lengthAdjust="spacing" textLength="45" x="199" y="422.7783">-capacity</text><!--MD5=[ea13aecf8df941b18fb8e3885c78c184]
class Ports--><rect codeLine="54" fill="#FEFECE" filter="url(#f1rhha9kauwpq3)" height="67.6719" id="Ports" style="stroke:#A80036;stroke-width:1.5;" width="76" x="1154" y="463"/><ellipse cx="1175.75" cy="479" fill="#ADD1B2" rx="11" ry="11" style="stroke:#A80036;stroke-width:1.0;"/><path d="M1177.75,475.5 Q1177.9531,475 1178.1875,474.75 Q1178.4219,474.5 1178.6875,474.5 Q1179.1563,474.5 1179.4531,474.7813 Q1179.75,475.0625 1179.75,475.7188 L1179.75,477.2813 Q1179.75,477.9375 1179.4688,478.2188 Q1179.1875,478.5 1178.75,478.5 Q1178.3594,478.5 1178.1094,478.3281 Q1177.8594,478.1563 1177.75,477.7031 Q1177.7031,477.3906 1177.5313,477.2188 Q1177.2188,476.8906 1176.6563,476.7031 Q1176.0938,476.5 1175.5313,476.5 Q1174.8281,476.5 1174.2344,476.7813 Q1173.6563,477.0625 1173.2031,477.6875 Q1172.75,478.3125 1172.75,479.1719 L1172.75,480.0938 Q1172.75,481.125 1173.5938,481.8125 Q1174.4375,482.5 1175.9375,482.5 Q1176.8281,482.5 1177.4531,482.2969 Q1177.8125,482.1875 1178.2188,481.8281 Q1178.4844,481.625 1178.625,481.5625 Q1178.7656,481.5 1178.9375,481.5 Q1179.2656,481.5 1179.5,481.7656 Q1179.75,482.0156 1179.75,482.375 Q1179.75,482.7188 1179.4063,483.125 Q1178.9063,483.7188 1178.1094,484.0469 Q1177.0625,484.5 1175.7813,484.5 Q1174.2813,484.5 1173.0781,483.9063 Q1172.1094,483.4375 1171.4219,482.4219 Q1170.75,481.4063 1170.75,480.2031 L1170.75,479.1094 Q1170.75,477.8594 1171.3438,476.7656 Q1171.9531,475.6719 1173,475.0938 Q1174.0625,474.5 1175.25,474.5 Q1175.9688,474.5 1176.5938,474.75 Q1177.2188,475 1177.75,475.5 Z " fill="#000000"/><text fill="#000000" font-family="sans-serif" font-size="12" lengthAdjust="spacing" textLength="29" x="1191.25" y="483.9102">Ports</text><line style="stroke:#A80036;stroke-width:1.5;" x1="1155" x2="1229" y1="495" y2="495"/><text fill="#000000" font-family="sans-serif" font-size="11" lengthAdjust="spacing" textLength="64" x="1160" y="510.4189">-identification</text><text fill="#000000" font-family="sans-serif" font-size="11" lengthAdjust="spacing" textLength="30" x="1160" y="524.2549">-name</text><!--MD5=[f2ba7f6ab60af8dd0d3e354f91729b14]
class Truck--><rect codeLine="59" fill="#FEFECE" filter="url(#f1rhha9kauwpq3)" height="40" id="Truck" style="stroke:#A80036;stroke-width:1.5;" width="62" x="465" y="524"/><ellipse cx="480" cy="540" fill="#ADD1B2" rx="11" ry="11" style="stroke:#A80036;stroke-width:1.0;"/><path d="M482,536.5 Q482.2031,536 482.4375,535.75 Q482.6719,535.5 482.9375,535.5 Q483.4063,535.5 483.7031,535.7813 Q484,536.0625 484,536.7188 L484,538.2813 Q484,538.9375 483.7188,539.2188 Q483.4375,539.5 483,539.5 Q482.6094,539.5 482.3594,539.3281 Q482.1094,539.1563 482,538.7031 Q481.9531,538.3906 481.7813,538.2188 Q481.4688,537.8906 480.9063,537.7031 Q480.3438,537.5 479.7813,537.5 Q479.0781,537.5 478.4844,537.7813 Q477.9063,538.0625 477.4531,538.6875 Q477,539.3125 477,540.1719 L477,541.0938 Q477,542.125 477.8438,542.8125 Q478.6875,543.5 480.1875,543.5 Q481.0781,543.5 481.7031,543.2969 Q482.0625,543.1875 482.4688,542.8281 Q482.7344,542.625 482.875,542.5625 Q483.0156,542.5 483.1875,542.5 Q483.5156,542.5 483.75,542.7656 Q484,543.0156 484,543.375 Q484,543.7188 483.6563,544.125 Q483.1563,544.7188 482.3594,545.0469 Q481.3125,545.5 480.0313,545.5 Q478.5313,545.5 477.3281,544.9063 Q476.3594,544.4375 475.6719,543.4219 Q475,542.4063 475,541.2031 L475,540.1094 Q475,538.8594 475.5938,537.7656 Q476.2031,536.6719 477.25,536.0938 Q478.3125,535.5 479.5,535.5 Q480.2188,535.5 480.8438,535.75 Q481.4688,536 482,536.5 Z " fill="#000000"/><text fill="#000000" font-family="sans-serif" font-size="12" lengthAdjust="spacing" textLength="30" x="494" y="544.9102">Truck</text><line style="stroke:#A80036;stroke-width:1.5;" x1="466" x2="526" y1="556" y2="556"/><!--MD5=[c5149b4909ffd2688ff51a939867f774]
class Warehouse--><rect codeLine="63" fill="#FEFECE" filter="url(#f1rhha9kauwpq3)" height="67.6719" id="Warehouse" style="stroke:#A80036;stroke-width:1.5;" width="96" x="1144" y="575"/><ellipse cx="1159" cy="591" fill="#ADD1B2" rx="11" ry="11" style="stroke:#A80036;stroke-width:1.0;"/><path d="M1161,587.5 Q1161.2031,587 1161.4375,586.75 Q1161.6719,586.5 1161.9375,586.5 Q1162.4063,586.5 1162.7031,586.7813 Q1163,587.0625 1163,587.7188 L1163,589.2813 Q1163,589.9375 1162.7188,590.2188 Q1162.4375,590.5 1162,590.5 Q1161.6094,590.5 1161.3594,590.3281 Q1161.1094,590.1563 1161,589.7031 Q1160.9531,589.3906 1160.7813,589.2188 Q1160.4688,588.8906 1159.9063,588.7031 Q1159.3438,588.5 1158.7813,588.5 Q1158.0781,588.5 1157.4844,588.7813 Q1156.9063,589.0625 1156.4531,589.6875 Q1156,590.3125 1156,591.1719 L1156,592.0938 Q1156,593.125 1156.8438,593.8125 Q1157.6875,594.5 1159.1875,594.5 Q1160.0781,594.5 1160.7031,594.2969 Q1161.0625,594.1875 1161.4688,593.8281 Q1161.7344,593.625 1161.875,593.5625 Q1162.0156,593.5 1162.1875,593.5 Q1162.5156,593.5 1162.75,593.7656 Q1163,594.0156 1163,594.375 Q1163,594.7188 1162.6563,595.125 Q1162.1563,595.7188 1161.3594,596.0469 Q1160.3125,596.5 1159.0313,596.5 Q1157.5313,596.5 1156.3281,595.9063 Q1155.3594,595.4375 1154.6719,594.4219 Q1154,593.4063 1154,592.2031 L1154,591.1094 Q1154,589.8594 1154.5938,588.7656 Q1155.2031,587.6719 1156.25,587.0938 Q1157.3125,586.5 1158.5,586.5 Q1159.2188,586.5 1159.8438,586.75 Q1160.4688,587 1161,587.5 Z " fill="#000000"/><text fill="#000000" font-family="sans-serif" font-size="12" lengthAdjust="spacing" textLength="64" x="1173" y="595.9102">Warehouse</text><line style="stroke:#A80036;stroke-width:1.5;" x1="1145" x2="1239" y1="607" y2="607"/><text fill="#000000" font-family="sans-serif" font-size="11" lengthAdjust="spacing" textLength="64" x="1150" y="622.4189">-identification</text><text fill="#000000" font-family="sans-serif" font-size="11" lengthAdjust="spacing" textLength="30" x="1150" y="636.2549">-name</text><!--MD5=[deb4e1f6eb1e3c1256fdb830f96abfbb]
class Country--><rect codeLine="68" fill="#FEFECE" filter="url(#f1rhha9kauwpq3)" height="67.6719" id="Country" style="stroke:#A80036;stroke-width:1.5;" width="74" x="1609" y="524"/><ellipse cx="1624" cy="540" fill="#ADD1B2" rx="11" ry="11" style="stroke:#A80036;stroke-width:1.0;"/><path d="M1626,536.5 Q1626.2031,536 1626.4375,535.75 Q1626.6719,535.5 1626.9375,535.5 Q1627.4063,535.5 1627.7031,535.7813 Q1628,536.0625 1628,536.7188 L1628,538.2813 Q1628,538.9375 1627.7188,539.2188 Q1627.4375,539.5 1627,539.5 Q1626.6094,539.5 1626.3594,539.3281 Q1626.1094,539.1563 1626,538.7031 Q1625.9531,538.3906 1625.7813,538.2188 Q1625.4688,537.8906 1624.9063,537.7031 Q1624.3438,537.5 1623.7813,537.5 Q1623.0781,537.5 1622.4844,537.7813 Q1621.9063,538.0625 1621.4531,538.6875 Q1621,539.3125 1621,540.1719 L1621,541.0938 Q1621,542.125 1621.8438,542.8125 Q1622.6875,543.5 1624.1875,543.5 Q1625.0781,543.5 1625.7031,543.2969 Q1626.0625,543.1875 1626.4688,542.8281 Q1626.7344,542.625 1626.875,542.5625 Q1627.0156,542.5 1627.1875,542.5 Q1627.5156,542.5 1627.75,542.7656 Q1628,543.0156 1628,543.375 Q1628,543.7188 1627.6563,544.125 Q1627.1563,544.7188 1626.3594,545.0469 Q1625.3125,545.5 1624.0313,545.5 Q1622.5313,545.5 1621.3281,544.9063 Q1620.3594,544.4375 1619.6719,543.4219 Q1619,542.4063 1619,541.2031 L1619,540.1094 Q1619,538.8594 1619.5938,537.7656 Q1620.2031,536.6719 1621.25,536.0938 Q1622.3125,535.5 1623.5,535.5 Q1624.2188,535.5 1624.8438,535.75 Q1625.4688,536 1626,536.5 Z " fill="#000000"/><text fill="#000000" font-family="sans-serif" font-size="12" lengthAdjust="spacing" textLength="42" x="1638" y="544.9102">Country</text><line style="stroke:#A80036;stroke-width:1.5;" x1="1610" x2="1682" y1="556" y2="556"/><text fill="#000000" font-family="sans-serif" font-size="11" lengthAdjust="spacing" textLength="30" x="1615" y="571.4189">-name</text><text fill="#000000" font-family="sans-serif" font-size="11" lengthAdjust="spacing" textLength="48" x="1615" y="585.2549">-continent</text><!--MD5=[9febfb2ff9adfe183e01ff702b9c1c02]
class PlaceLocation--><rect codeLine="73" fill="#FEFECE" filter="url(#f1rhha9kauwpq3)" height="67.6719" id="PlaceLocation" style="stroke:#A80036;stroke-width:1.5;" width="110" x="1372" y="524"/><ellipse cx="1387" cy="540" fill="#ADD1B2" rx="11" ry="11" style="stroke:#A80036;stroke-width:1.0;"/><path d="M1389,536.5 Q1389.2031,536 1389.4375,535.75 Q1389.6719,535.5 1389.9375,535.5 Q1390.4063,535.5 1390.7031,535.7813 Q1391,536.0625 1391,536.7188 L1391,538.2813 Q1391,538.9375 1390.7188,539.2188 Q1390.4375,539.5 1390,539.5 Q1389.6094,539.5 1389.3594,539.3281 Q1389.1094,539.1563 1389,538.7031 Q1388.9531,538.3906 1388.7813,538.2188 Q1388.4688,537.8906 1387.9063,537.7031 Q1387.3438,537.5 1386.7813,537.5 Q1386.0781,537.5 1385.4844,537.7813 Q1384.9063,538.0625 1384.4531,538.6875 Q1384,539.3125 1384,540.1719 L1384,541.0938 Q1384,542.125 1384.8438,542.8125 Q1385.6875,543.5 1387.1875,543.5 Q1388.0781,543.5 1388.7031,543.2969 Q1389.0625,543.1875 1389.4688,542.8281 Q1389.7344,542.625 1389.875,542.5625 Q1390.0156,542.5 1390.1875,542.5 Q1390.5156,542.5 1390.75,542.7656 Q1391,543.0156 1391,543.375 Q1391,543.7188 1390.6563,544.125 Q1390.1563,544.7188 1389.3594,545.0469 Q1388.3125,545.5 1387.0313,545.5 Q1385.5313,545.5 1384.3281,544.9063 Q1383.3594,544.4375 1382.6719,543.4219 Q1382,542.4063 1382,541.2031 L1382,540.1094 Q1382,538.8594 1382.5938,537.7656 Q1383.2031,536.6719 1384.25,536.0938 Q1385.3125,535.5 1386.5,535.5 Q1387.2188,535.5 1387.8438,535.75 Q1388.4688,536 1389,536.5 Z " fill="#000000"/><text fill="#000000" font-family="sans-serif" font-size="12" lengthAdjust="spacing" textLength="78" x="1401" y="544.9102">PlaceLocation</text><line style="stroke:#A80036;stroke-width:1.5;" x1="1373" x2="1481" y1="556" y2="556"/><text fill="#000000" font-family="sans-serif" font-size="11" lengthAdjust="spacing" textLength="38" x="1378" y="571.4189">-latitude</text><text fill="#000000" font-family="sans-serif" font-size="11" lengthAdjust="spacing" textLength="47" x="1378" y="585.2549">-longitude</text><!--MD5=[efa7c3600894dd6faaa8b816738c33b1]
class ShipLocation--><rect codeLine="78" fill="#FEFECE" filter="url(#f1rhha9kauwpq3)" height="150.6875" id="ShipLocation" style="stroke:#A80036;stroke-width:1.5;" width="104" x="655" y="113.5"/><ellipse cx="670" cy="129.5" fill="#ADD1B2" rx="11" ry="11" style="stroke:#A80036;stroke-width:1.0;"/><path d="M672,126 Q672.2031,125.5 672.4375,125.25 Q672.6719,125 672.9375,125 Q673.4063,125 673.7031,125.2813 Q674,125.5625 674,126.2188 L674,127.7813 Q674,128.4375 673.7188,128.7188 Q673.4375,129 673,129 Q672.6094,129 672.3594,128.8281 Q672.1094,128.6563 672,128.2031 Q671.9531,127.8906 671.7813,127.7188 Q671.4688,127.3906 670.9063,127.2031 Q670.3438,127 669.7813,127 Q669.0781,127 668.4844,127.2813 Q667.9063,127.5625 667.4531,128.1875 Q667,128.8125 667,129.6719 L667,130.5938 Q667,131.625 667.8438,132.3125 Q668.6875,133 670.1875,133 Q671.0781,133 671.7031,132.7969 Q672.0625,132.6875 672.4688,132.3281 Q672.7344,132.125 672.875,132.0625 Q673.0156,132 673.1875,132 Q673.5156,132 673.75,132.2656 Q674,132.5156 674,132.875 Q674,133.2188 673.6563,133.625 Q673.1563,134.2188 672.3594,134.5469 Q671.3125,135 670.0313,135 Q668.5313,135 667.3281,134.4063 Q666.3594,133.9375 665.6719,132.9219 Q665,131.9063 665,130.7031 L665,129.6094 Q665,128.3594 665.5938,127.2656 Q666.2031,126.1719 667.25,125.5938 Q668.3125,125 669.5,125 Q670.2188,125 670.8438,125.25 Q671.4688,125.5 672,126 Z " fill="#000000"/><text fill="#000000" font-family="sans-serif" font-size="12" lengthAdjust="spacing" textLength="72" x="684" y="134.4102">ShipLocation</text><line style="stroke:#A80036;stroke-width:1.5;" x1="656" x2="758" y1="145.5" y2="145.5"/><text fill="#000000" font-family="sans-serif" font-size="11" lengthAdjust="spacing" textLength="72" x="661" y="160.9189">-baseDateTime</text><text fill="#000000" font-family="sans-serif" font-size="11" lengthAdjust="spacing" textLength="38" x="661" y="174.7549">-latitude</text><text fill="#000000" font-family="sans-serif" font-size="11" lengthAdjust="spacing" textLength="47" x="661" y="188.5908">-longitude</text><text fill="#000000" font-family="sans-serif" font-size="11" lengthAdjust="spacing" textLength="22" x="661" y="202.4268">-sog</text><text fill="#000000" font-family="sans-serif" font-size="11" lengthAdjust="spacing" textLength="22" x="661" y="216.2627">-cog</text><text fill="#000000" font-family="sans-serif" font-size="11" lengthAdjust="spacing" textLength="42" x="661" y="230.0986">-heading</text><text fill="#000000" font-family="sans-serif" font-size="11" lengthAdjust="spacing" textLength="41" x="661" y="243.9346">-position</text><text fill="#000000" font-family="sans-serif" font-size="11" lengthAdjust="spacing" textLength="59" x="661" y="257.7705">-transceiver</text><!--MD5=[f8e092794d52bf9a252466252ae7bd1c]
class System--><rect fill="#FEFECE" filter="url(#f1rhha9kauwpq3)" height="40" id="System" style="stroke:#A80036;stroke-width:1.5;" width="73" x="670.5" y="7"/><ellipse cx="685.5" cy="23" fill="#ADD1B2" rx="11" ry="11" style="stroke:#A80036;stroke-width:1.0;"/><path d="M687.5,19.5 Q687.7031,19 687.9375,18.75 Q688.1719,18.5 688.4375,18.5 Q688.9063,18.5 689.2031,18.7813 Q689.5,19.0625 689.5,19.7188 L689.5,21.2813 Q689.5,21.9375 689.2188,22.2188 Q688.9375,22.5 688.5,22.5 Q688.1094,22.5 687.8594,22.3281 Q687.6094,22.1563 687.5,21.7031 Q687.4531,21.3906 687.2813,21.2188 Q686.9688,20.8906 686.4063,20.7031 Q685.8438,20.5 685.2813,20.5 Q684.5781,20.5 683.9844,20.7813 Q683.4063,21.0625 682.9531,21.6875 Q682.5,22.3125 682.5,23.1719 L682.5,24.0938 Q682.5,25.125 683.3438,25.8125 Q684.1875,26.5 685.6875,26.5 Q686.5781,26.5 687.2031,26.2969 Q687.5625,26.1875 687.9688,25.8281 Q688.2344,25.625 688.375,25.5625 Q688.5156,25.5 688.6875,25.5 Q689.0156,25.5 689.25,25.7656 Q689.5,26.0156 689.5,26.375 Q689.5,26.7188 689.1563,27.125 Q688.6563,27.7188 687.8594,28.0469 Q686.8125,28.5 685.5313,28.5 Q684.0313,28.5 682.8281,27.9063 Q681.8594,27.4375 681.1719,26.4219 Q680.5,25.4063 680.5,24.2031 L680.5,23.1094 Q680.5,21.8594 681.0938,20.7656 Q681.7031,19.6719 682.75,19.0938 Q683.8125,18.5 685,18.5 Q685.7188,18.5 686.3438,18.75 Q686.9688,19 687.5,19.5 Z " fill="#000000"/><text fill="#000000" font-family="sans-serif" font-size="12" lengthAdjust="spacing" textLength="41" x="699.5" y="27.9102">System</text><line style="stroke:#A80036;stroke-width:1.5;" x1="671.5" x2="742.5" y1="39" y2="39"/><!--MD5=[3fd616f346a44cd59a91eb10b19e157c]
class User--><rect fill="#FEFECE" filter="url(#f1rhha9kauwpq3)" height="40" id="User" style="stroke:#A80036;stroke-width:1.5;" width="59" x="466.5" y="73"/><ellipse cx="481.5" cy="89" fill="#ADD1B2" rx="11" ry="11" style="stroke:#A80036;stroke-width:1.0;"/><path d="M483.5,85.5 Q483.7031,85 483.9375,84.75 Q484.1719,84.5 484.4375,84.5 Q484.9063,84.5 485.2031,84.7813 Q485.5,85.0625 485.5,85.7188 L485.5,87.2813 Q485.5,87.9375 485.2188,88.2188 Q484.9375,88.5 484.5,88.5 Q484.1094,88.5 483.8594,88.3281 Q483.6094,88.1563 483.5,87.7031 Q483.4531,87.3906 483.2813,87.2188 Q482.9688,86.8906 482.4063,86.7031 Q481.8438,86.5 481.2813,86.5 Q480.5781,86.5 479.9844,86.7813 Q479.4063,87.0625 478.9531,87.6875 Q478.5,88.3125 478.5,89.1719 L478.5,90.0938 Q478.5,91.125 479.3438,91.8125 Q480.1875,92.5 481.6875,92.5 Q482.5781,92.5 483.2031,92.2969 Q483.5625,92.1875 483.9688,91.8281 Q484.2344,91.625 484.375,91.5625 Q484.5156,91.5 484.6875,91.5 Q485.0156,91.5 485.25,91.7656 Q485.5,92.0156 485.5,92.375 Q485.5,92.7188 485.1563,93.125 Q484.6563,93.7188 483.8594,94.0469 Q482.8125,94.5 481.5313,94.5 Q480.0313,94.5 478.8281,93.9063 Q477.8594,93.4375 477.1719,92.4219 Q476.5,91.4063 476.5,90.2031 L476.5,89.1094 Q476.5,87.8594 477.0938,86.7656 Q477.7031,85.6719 478.75,85.0938 Q479.8125,84.5 481,84.5 Q481.7188,84.5 482.3438,84.75 Q482.9688,85 483.5,85.5 Z " fill="#000000"/><text fill="#000000" font-family="sans-serif" font-size="12" lengthAdjust="spacing" textLength="27" x="495.5" y="93.9102">User</text><line style="stroke:#A80036;stroke-width:1.5;" x1="467.5" x2="524.5" y1="105" y2="105"/><!--MD5=[d729e47c8b99010fceb84b610067730f]
link CargoManifest to Ports--><path codeLine="89" d="M1004.21,539.11 C1050.41,528.7 1114.07,514.34 1153.87,505.38 " fill="none" id="CargoManifest-Ports" style="stroke:#A80036;stroke-width:1.0;"/><polygon fill="#000000" points="1043.8777,504.0765,1034.4077,503.1981,1035.7001,508.9322,1043.8777,504.0765" style="stroke:#000000;stroke-width:1.0;"/><text fill="#000000" font-family="sans-serif" font-size="13" lengthAdjust="spacing" textLength="65" x="1048" y="510.4951">delivered at</text><text fill="#000000" font-family="sans-serif" font-size="13" lengthAdjust="spacing" textLength="5" x="1011.9885" y="552.0106">*</text><text fill="#000000" font-family="sans-serif" font-size="13" lengthAdjust="spacing" textLength="7" x="1138.9343" y="522.0623">1</text><!--MD5=[1007fce2994c0804f23855fbfd3e6bbd]
link CargoManifest to Warehouse--><path codeLine="90" d="M1004.21,565.37 C1046.75,575.31 1104.09,588.7 1143.97,598.02 " fill="none" id="CargoManifest-Warehouse" style="stroke:#A80036;stroke-width:1.0;"/><polygon fill="#000000" points="1043.8689,565.3132,1035.7295,560.3937,1034.3924,566.1174,1043.8689,565.3132" style="stroke:#000000;stroke-width:1.0;"/><text fill="#000000" font-family="sans-serif" font-size="13" lengthAdjust="spacing" textLength="65" x="1048" y="569.4951">delivered at</text><text fill="#000000" font-family="sans-serif" font-size="13" lengthAdjust="spacing" textLength="5" x="1011.9885" y="581.6352">*</text><text fill="#000000" font-family="sans-serif" font-size="13" lengthAdjust="spacing" textLength="7" x="1129.0795" y="611.1108">1</text><!--MD5=[37a14a5de6d6fd738aee271300f4b5c8]
link Company to Ship--><path codeLine="92" d="M92.13,250.23 C120.71,264.12 159.34,282.88 192.58,299.04 " fill="none" id="Company-Ship" style="stroke:#A80036;stroke-width:1.0;"/><polygon fill="#000000" points="132.9972,259.361,126.1462,252.7645,123.5772,258.0513,132.9972,259.361" style="stroke:#000000;stroke-width:1.0;"/><text fill="#000000" font-family="sans-serif" font-size="13" lengthAdjust="spacing" textLength="23" x="137.5" y="262.4951">own</text><text fill="#000000" font-family="sans-serif" font-size="13" lengthAdjust="spacing" textLength="7" x="100.0586" y="268.6215">1</text><text fill="#000000" font-family="sans-serif" font-size="13" lengthAdjust="spacing" textLength="20" x="165.1202" y="310.1491">1..*</text><!--MD5=[a2a194d3aa0c5b34ec916a16bebf9a1a]
link Company to System--><path codeLine="93" d="M77.98,202.79 C104.97,177.65 148.48,141.24 193,121 C360.12,45.04 584.31,30.44 670.34,27.65 " fill="none" id="Company-System" style="stroke:#A80036;stroke-width:1.0;"/><polygon fill="#000000" points="390.2948,42.7581,380.7876,42.5044,382.4542,48.141,390.2948,42.7581" style="stroke:#000000;stroke-width:1.0;"/><text fill="#000000" font-family="sans-serif" font-size="13" lengthAdjust="spacing" textLength="21" x="394.5" y="49.4951">has</text><text fill="#000000" font-family="sans-serif" font-size="13" lengthAdjust="spacing" textLength="7" x="76.7566" y="192.2024">1</text><text fill="#000000" font-family="sans-serif" font-size="13" lengthAdjust="spacing" textLength="20" x="642.6119" y="42.6069">1..*</text><!--MD5=[09366576ee87d48d594df10cacc83f45]
link Company to Employee--><path codeLine="94" d="M92.13,217.44 C129.03,206.3 182.68,190.1 219.87,178.87 " fill="none" id="Company-Employee" style="stroke:#A80036;stroke-width:1.0;"/><polygon fill="#000000" points="131.7866,186.7305,122.2781,186.5316,123.9771,192.1585,131.7866,186.7305" style="stroke:#000000;stroke-width:1.0;"/><text fill="#000000" font-family="sans-serif" font-size="13" lengthAdjust="spacing" textLength="26" x="136" y="193.4951">have</text><text fill="#000000" font-family="sans-serif" font-size="13" lengthAdjust="spacing" textLength="7" x="100.0586" y="230.1957">1</text><text fill="#000000" font-family="sans-serif" font-size="13" lengthAdjust="spacing" textLength="20" x="191.9931" y="195.4683">1..*</text><!--MD5=[710b10ea314ec23c5eb602bd01bfa9d5]
link Company to Truck--><path codeLine="95" d="M59.27,257.22 C76.58,306.52 119.95,410.52 193,465 C277.06,527.7 406.59,540.75 464.82,543.39 " fill="none" id="Company-Truck" style="stroke:#A80036;stroke-width:1.0;"/><polygon fill="#000000" points="253.5853,459.0585,247.8893,451.4423,244.5005,456.2449,253.5853,459.0585" style="stroke:#000000;stroke-width:1.0;"/><text fill="#000000" font-family="sans-serif" font-size="13" lengthAdjust="spacing" textLength="23" x="258.5" y="461.4951">own</text><text fill="#000000" font-family="sans-serif" font-size="13" lengthAdjust="spacing" textLength="7" x="53.6416" y="278.4759">1</text><text fill="#000000" font-family="sans-serif" font-size="13" lengthAdjust="spacing" textLength="20" x="436.9701" y="558.3273">1..*</text><!--MD5=[a27713cdd7694cea32c8be89a3131559]
link Containers to CargoManifest--><path codeLine="97" d="M756.25,545.63 C794.28,546.92 847.42,548.71 887.63,550.07 " fill="none" id="Containers-CargoManifest" style="stroke:#A80036;stroke-width:1.0;"/><polygon fill="#000000" points="798.9971,537.3447,790.0565,534.1019,789.858,539.9764,798.9971,537.3447" style="stroke:#000000;stroke-width:1.0;"/><text fill="#000000" font-family="sans-serif" font-size="13" lengthAdjust="spacing" textLength="54" x="803" y="542.4951">related to</text><text fill="#000000" font-family="sans-serif" font-size="13" lengthAdjust="spacing" textLength="20" x="763.8414" y="560.3585">1..*</text><text fill="#000000" font-family="sans-serif" font-size="13" lengthAdjust="spacing" textLength="20" x="860.152" y="564.2564">1..*</text><!--MD5=[c7fc6f07f2489647d2a3f83969f89660]
link Containers to Ports--><path codeLine="98" d="M756.25,516.63 C791.5,498.27 841.15,475.72 888,466 C982.49,446.41 1096.25,470.51 1153.78,485.96 " fill="none" id="Containers-Ports" style="stroke:#A80036;stroke-width:1.0;"/><polygon fill="#000000" points="933.9852,448.7912,924.7408,446.5567,925.193,452.4172,933.9852,448.7912" style="stroke:#000000;stroke-width:1.0;"/><text fill="#000000" font-family="sans-serif" font-size="13" lengthAdjust="spacing" textLength="29" x="938" y="454.4951">store</text><text fill="#000000" font-family="sans-serif" font-size="13" lengthAdjust="spacing" textLength="20" x="763.8414" y="527.6428">0..*</text><text fill="#000000" font-family="sans-serif" font-size="13" lengthAdjust="spacing" textLength="7" x="1139.0879" y="498.9573">1</text><!--MD5=[40d84d2acc82335a7c6decf41782281a]
link Containers to Warehouse--><path codeLine="99" d="M756.35,584.56 C790.67,610.6 839.16,642.05 888,656 C976.42,681.27 1083.48,651.03 1143.76,628.7 " fill="none" id="Containers-Warehouse" style="stroke:#A80036;stroke-width:1.0;"/><polygon fill="#000000" points="933.9679,647.7418,925.3136,643.7978,924.6482,649.6379,933.9679,647.7418" style="stroke:#000000;stroke-width:1.0;"/><text fill="#000000" font-family="sans-serif" font-size="13" lengthAdjust="spacing" textLength="29" x="938" y="652.4951">store</text><text fill="#000000" font-family="sans-serif" font-size="13" lengthAdjust="spacing" textLength="20" x="763.9542" y="604.2764">0..*</text><text fill="#000000" font-family="sans-serif" font-size="13" lengthAdjust="spacing" textLength="7" x="1129.1607" y="646.3135">1</text><!--MD5=[3d04185e7085eaaeba7ebd93b9963be0]
link PlaceLocation to Country--><path codeLine="101" d="M1482.2,558 C1521.74,558 1574.25,558 1608.8,558 " fill="none" id="PlaceLocation-Country" style="stroke:#A80036;stroke-width:1.0;"/><polygon fill="#000000" points="1522,549.1758,1512.9549,546.2369,1512.9549,552.1147,1522,549.1758" style="stroke:#000000;stroke-width:1.0;"/><text fill="#000000" font-family="sans-serif" font-size="13" lengthAdjust="spacing" textLength="52" x="1526" y="554.4951">placed in</text><text fill="#000000" font-family="sans-serif" font-size="13" lengthAdjust="spacing" textLength="5" x="1489.9534" y="572.6158">*</text><text fill="#000000" font-family="sans-serif" font-size="13" lengthAdjust="spacing" textLength="7" x="1594.0416" y="573.0849">1</text><!--MD5=[aaa368e4b832683362a5bdda330bd90d]
link Ports to PlaceLocation--><path codeLine="103" d="M1230.18,506.74 C1268.34,516.73 1328.12,532.38 1371.6,543.76 " fill="none" id="Ports-PlaceLocation" style="stroke:#A80036;stroke-width:1.0;"/><polygon fill="#000000" points="1279.837,510.442,1271.831,505.3083,1270.3425,510.9945,1279.837,510.442" style="stroke:#000000;stroke-width:1.0;"/><text fill="#000000" font-family="sans-serif" font-size="13" lengthAdjust="spacing" textLength="57" x="1284" y="514.4951">located at</text><text fill="#000000" font-family="sans-serif" font-size="13" lengthAdjust="spacing" textLength="7" x="1238.1253" y="523.6816">1</text><text fill="#000000" font-family="sans-serif" font-size="13" lengthAdjust="spacing" textLength="7" x="1357.0534" y="556.4992">1</text><!--MD5=[cff4e3c6ede03364cf99bd3378be6b6a]
link Ship to Containers--><path codeLine="105" d="M334.46,366.44 C424.79,409.61 579.64,483.62 657.83,520.98 " fill="none" id="Ship-Containers" style="stroke:#A80036;stroke-width:1.0;"/><polygon fill="#000000" points="472.5113,420.3318,465.6175,413.7799,463.083,419.0832,472.5113,420.3318" style="stroke:#000000;stroke-width:1.0;"/><text fill="#000000" font-family="sans-serif" font-size="13" lengthAdjust="spacing" textLength="51" x="477" y="423.4951">transport</text><text fill="#000000" font-family="sans-serif" font-size="13" lengthAdjust="spacing" textLength="7" x="342.1387" y="384.2167">1</text><text fill="#000000" font-family="sans-serif" font-size="13" lengthAdjust="spacing" textLength="20" x="629.879" y="532.4563">1..*</text><!--MD5=[b5e7d3b323f2cd13b2215620f50e65f3]
link Ship to Ports--><path codeLine="106" d="M334.07,337.14 C379.79,339.5 440.94,342 495,342 C495,342 495,342 947,342 C1036.58,342 1119.87,417.36 1162.08,462.99 " fill="none" id="Ship-Ports" style="stroke:#A80036;stroke-width:1.0;"/><polygon fill="#000000" points="695.4432,333.9271,686.9425,329.6624,686.0592,335.4735,695.4432,333.9271" style="stroke:#000000;stroke-width:1.0;"/><text fill="#000000" font-family="sans-serif" font-size="13" lengthAdjust="spacing" textLength="28" x="699.5" y="338.4951">dock</text><text fill="#000000" font-family="sans-serif" font-size="13" lengthAdjust="spacing" textLength="20" x="342.0011" y="351.8378">0..*</text><text fill="#000000" font-family="sans-serif" font-size="13" lengthAdjust="spacing" textLength="7" x="1148.1871" y="451.8906">1</text><!--MD5=[5541ef512584d1243c10a7f3b3317e1c]
link Ship to ShipLocation--><path codeLine="107" d="M334.46,310.19 C423.69,281.08 575.9,231.44 654.95,205.65 " fill="none" id="Ship-ShipLocation" style="stroke:#A80036;stroke-width:1.0;"/><polygon fill="#000000" points="487.7535,239.6252,478.2429,239.6362,480.0657,245.2242,487.7535,239.6252" style="stroke:#000000;stroke-width:1.0;"/><text fill="#000000" font-family="sans-serif" font-size="13" lengthAdjust="spacing" textLength="21" x="492" y="246.4951">has</text><text fill="#000000" font-family="sans-serif" font-size="13" lengthAdjust="spacing" textLength="7" x="342.1387" y="322.1659">1</text><text fill="#000000" font-family="sans-serif" font-size="13" lengthAdjust="spacing" textLength="20" x="626.9998" y="222.3459">1..*</text><!--MD5=[9c226fb16923f449f2aeb2d55d4b05b5]
link Employee to ShipLocation--><path codeLine="109" d="M307.23,168.23 C388.93,172.49 566.93,181.76 654.82,186.34 " fill="none" id="Employee-ShipLocation" style="stroke:#A80036;stroke-width:1.0;"/><polygon fill="#000000" points="475.4932,168.4359,466.6133,165.0304,466.3075,170.9003,475.4932,168.4359" style="stroke:#000000;stroke-width:1.0;"/><text fill="#000000" font-family="sans-serif" font-size="13" lengthAdjust="spacing" textLength="46" x="479.5" y="173.4951">controls</text><text fill="#000000" font-family="sans-serif" font-size="13" lengthAdjust="spacing" textLength="7" x="315.0525" y="183.4622">1</text><text fill="#000000" font-family="sans-serif" font-size="13" lengthAdjust="spacing" textLength="20" x="626.8532" y="200.5618">1..*</text><!--MD5=[22fb9506fac029fc1d2ae00f0eb8d606]
link Employee to User--><path codeLine="110" d="M307.05,152.53 C353.35,137.86 426.13,114.82 466.18,102.13 " fill="none" id="Employee-User" style="stroke:#A80036;stroke-width:1.0;"/><polygon fill="#000000" points="373.7666,104.6661,364.2563,104.5954,366.0311,110.1989,373.7666,104.6661" style="stroke:#000000;stroke-width:1.0;"/><text fill="#000000" font-family="sans-serif" font-size="13" lengthAdjust="spacing" textLength="54" x="378" y="111.4951">relates to</text><text fill="#000000" font-family="sans-serif" font-size="13" lengthAdjust="spacing" textLength="7" x="315.1367" y="146.3793">1</text><text fill="#000000" font-family="sans-serif" font-size="13" lengthAdjust="spacing" textLength="7" x="451.4748" y="119.6271">1</text><!--MD5=[8cef3b8bb432fdc493768abc58cade76]
link Truck to Containers--><path codeLine="112" d="M527.39,544 C561.58,544 617.58,544 657.76,544 " fill="none" id="Truck-Containers" style="stroke:#A80036;stroke-width:1.0;"/><polygon fill="#000000" points="569,535.1758,559.9549,532.2369,559.9549,538.1147,569,535.1758" style="stroke:#000000;stroke-width:1.0;"/><text fill="#000000" font-family="sans-serif" font-size="13" lengthAdjust="spacing" textLength="51" x="573" y="540.4951">transport</text><text fill="#000000" font-family="sans-serif" font-size="13" lengthAdjust="spacing" textLength="7" x="535.0222" y="559.2836">1</text><text fill="#000000" font-family="sans-serif" font-size="13" lengthAdjust="spacing" textLength="20" x="630.1699" y="558.5196">1..*</text><!--MD5=[668bfb6c3cf503ab645d5414a0ff2b4e]
link Truck to Warehouse--><path codeLine="113" d="M519.47,564.1 C548.53,588.88 601.76,630.25 655,651 C845.17,725.14 922.29,736.07 1114,666 C1128.22,660.81 1142.05,652.11 1153.99,643.04 " fill="none" id="Truck-Warehouse" style="stroke:#A80036;stroke-width:1.0;"/><polygon fill="#000000" points="813.4617,688.7931,804.8487,684.7599,804.123,690.5928,813.4617,688.7931" style="stroke:#000000;stroke-width:1.0;"/><text fill="#000000" font-family="sans-serif" font-size="13" lengthAdjust="spacing" textLength="25" x="817.5" y="693.4951">park</text><text fill="#000000" font-family="sans-serif" font-size="13" lengthAdjust="spacing" textLength="20" x="503.2584" y="585.5477">0..*</text><text fill="#000000" font-family="sans-serif" font-size="13" lengthAdjust="spacing" textLength="7" x="1139.596" y="664.084">1</text><!--MD5=[4a0bbcdd6df460060db454e8e2c30a96]
link User to System--><path codeLine="115" d="M525.68,88.25 C551.93,83.5 591.65,75.27 625,64 C640.23,58.86 656.46,51.79 670.35,45.21 " fill="none" id="User-System" style="stroke:#A80036;stroke-width:1.0;"/><polygon fill="#000000" points="580.2924,53.75,570.7848,53.5123,572.4609,59.1462,580.2924,53.75" style="stroke:#000000;stroke-width:1.0;"/><text fill="#000000" font-family="sans-serif" font-size="13" lengthAdjust="spacing" textLength="28" x="584.5" y="60.4951">uses</text><text fill="#000000" font-family="sans-serif" font-size="13" lengthAdjust="spacing" textLength="20" x="533.492" y="102.4196">1..*</text><text fill="#000000" font-family="sans-serif" font-size="13" lengthAdjust="spacing" textLength="7" x="655.4455" y="63.8998">1</text><!--MD5=[591625470abc4a5f324d9b49d40e13b3]
link Warehouse to PlaceLocation--><path codeLine="117" d="M1240.09,600.1 C1269.47,594.41 1308.02,586.67 1342,579 C1351.68,576.82 1361.95,574.37 1371.86,571.93 " fill="none" id="Warehouse-PlaceLocation" style="stroke:#A80036;stroke-width:1.0;"/><polygon fill="#000000" points="1279.8895,569.1305,1270.4299,568.1475,1271.6587,573.8954,1279.8895,569.1305" style="stroke:#000000;stroke-width:1.0;"/><text fill="#000000" font-family="sans-serif" font-size="13" lengthAdjust="spacing" textLength="57" x="1284" y="575.4951">located at</text><text fill="#000000" font-family="sans-serif" font-size="13" lengthAdjust="spacing" textLength="7" x="1247.9897" y="613.5093">1</text><text fill="#000000" font-family="sans-serif" font-size="13" lengthAdjust="spacing" textLength="7" x="1356.9802" y="588.4176">1</text><!--MD5=[acf91545c89829ce8a62e01245f47e02]
@startuml
'https://plantuml.com/class-diagram

hide methods
left to right direction
skinparam classAttributeIconSize 0

class Company {
-designation
}

class Employee {
-name
}

class Containers {
-x
-y
-z
-containerNumber
-checkDigit
-isoCode
-payLoad
-tare
-gross
-weight
}

class CargoManifest {
-listOfContainers 
-ratio
-date 
-mmsiCode
-id 
-numberOfContainers
-destination
}

class Ship {
-mmsiCode
-imoCode
-numberEnergyGenerators
-generatorPower
-callSign
-draft
-name
-vesselTypeId
-length
-width
-capacity
}



class Ports {
-identification
-name
}

class Truck {

}

class Warehouse {
-identification
-name
}

class Country {
-name
-continent
}

class PlaceLocation {
-latitude
-longitude
}

class ShipLocation {
-baseDateTime
-latitude
-longitude
-sog
-cog
-heading
-position
-transceiver
}

CargoManifest "*" - - "1" Ports : delivered at >
CargoManifest "*" - - "1" Warehouse : delivered at >

Company "1"- -"1..*" Ship: own >
Company "1" - "1..*" System : has >
Company "1"- -"1..*" Employee: have >
Company "1"- -"1..*" Truck: own >

Containers "1..*"- -"1..*" CargoManifest: related to >
Containers "0..*"- -"1" Ports: store >
Containers "0..*"- -"1" Warehouse: store >

PlaceLocation "*" - - "1" Country : placed in >

Ports "1" - - "1" PlaceLocation : located at >

Ship "1"- - -"1..*" Containers : transport >
Ship "0..*"- -"1" Ports: dock >
Ship "1" - - "1..*" ShipLocation : has >

Employee "1" - - - "1..*" ShipLocation : controls >
Employee "1" - - "1" User : relates to >

Truck "1"- -"1..*" Containers : transport >
Truck "0..*"- -"1" Warehouse: park >

User "1..*" - - "1" System : uses >

Warehouse "1" - - "1" PlaceLocation : located at >





@enduml

@startuml

hide methods
left to right direction
skinparam classAttributeIconSize 0

class Company {
-designation
}

class Employee {
-name
}

class Containers {
-x
-y
-z
-containerNumber
-checkDigit
-isoCode
-payLoad
-tare
-gross
-weight
}

class CargoManifest {
-listOfContainers 
-ratio
-date 
-mmsiCode
-id 
-numberOfContainers
-destination
}

class Ship {
-mmsiCode
-imoCode
-numberEnergyGenerators
-generatorPower
-callSign
-draft
-name
-vesselTypeId
-length
-width
-capacity
}



class Ports {
-identification
-name
}

class Truck {

}

class Warehouse {
-identification
-name
}

class Country {
-name
-continent
}

class PlaceLocation {
-latitude
-longitude
}

class ShipLocation {
-baseDateTime
-latitude
-longitude
-sog
-cog
-heading
-position
-transceiver
}

CargoManifest "*" - - "1" Ports : delivered at >
CargoManifest "*" - - "1" Warehouse : delivered at >

Company "1"- -"1..*" Ship: own >
Company "1" - "1..*" System : has >
Company "1"- -"1..*" Employee: have >
Company "1"- -"1..*" Truck: own >

Containers "1..*"- -"1..*" CargoManifest: related to >
Containers "0..*"- -"1" Ports: store >
Containers "0..*"- -"1" Warehouse: store >

PlaceLocation "*" - - "1" Country : placed in >

Ports "1" - - "1" PlaceLocation : located at >

Ship "1"- - -"1..*" Containers : transport >
Ship "0..*"- -"1" Ports: dock >
Ship "1" - - "1..*" ShipLocation : has >

Employee "1" - - - "1..*" ShipLocation : controls >
Employee "1" - - "1" User : relates to >

Truck "1"- -"1..*" Containers : transport >
Truck "0..*"- -"1" Warehouse: park >

User "1..*" - - "1" System : uses >

Warehouse "1" - - "1" PlaceLocation : located at >





@enduml

PlantUML version 1.2021.11(Sat Oct 02 14:26:11 BST 2021)
(GPL source distribution)
Java Runtime: OpenJDK Runtime Environment
JVM: OpenJDK 64-Bit Server VM
Default Encoding: Cp1252
Language: pt
Country: PT
--></g></svg>