<?xml version="1.0" encoding="UTF-8" standalone="no"?><svg xmlns="http://www.w3.org/2000/svg" xmlns:xlink="http://www.w3.org/1999/xlink" contentScriptType="application/ecmascript" contentStyleType="text/css" height="710.1px" preserveAspectRatio="none" style="width:1522px;height:710px;" version="1.1" viewBox="0 0 1522 710" width="1522.8px" zoomAndPan="magnify"><defs><filter height="300%" id="f1gtl0xr0gno79" width="300%" x="-1" y="-1"><feGaussianBlur result="blurOut" stdDeviation="1.8"/><feColorMatrix in="blurOut" result="blurOut2" type="matrix" values="0 0 0 0 0 0 0 0 0 0 0 0 0 0 0 0 0 0 .4 0"/><feOffset dx="3.6" dy="3.6" in="blurOut2" result="blurOut3"/><feBlend in="SourceGraphic" in2="blurOut3" mode="normal"/></filter></defs><g><!--MD5=[02e4b9b7573f1156f41e60aa5b4e25a4]
class Company--><rect codeLine="7" fill="#FEFECE" filter="url(#f1gtl0xr0gno79)" height="48.4523" id="Company" style="stroke:#A80036;stroke-width:1.35;" width="76.5" x="6.3" y="176.9329"/><ellipse cx="19.8" cy="191.3329" fill="#ADD1B2" rx="9.9" ry="9.9" style="stroke:#A80036;stroke-width:0.9;"/><path d="M21.6,188.1829 Q21.7828,187.7329 21.9938,187.5079 Q22.2047,187.2829 22.4438,187.2829 Q22.8656,187.2829 23.1328,187.5361 Q23.4,187.7892 23.4,188.3798 L23.4,189.7861 Q23.4,190.3767 23.1469,190.6298 Q22.8938,190.8829 22.5,190.8829 Q22.1484,190.8829 21.9234,190.7282 Q21.6984,190.5736 21.6,190.1657 Q21.5578,189.8845 21.4031,189.7298 Q21.1219,189.4345 20.6156,189.2657 Q20.1094,189.0829 19.6031,189.0829 Q18.9703,189.0829 18.4359,189.3361 Q17.9156,189.5892 17.5078,190.1517 Q17.1,190.7142 17.1,191.4876 L17.1,192.3173 Q17.1,193.2454 17.8594,193.8642 Q18.6188,194.4829 19.9688,194.4829 Q20.7703,194.4829 21.3328,194.3001 Q21.6563,194.2017 22.0219,193.8782 Q22.2609,193.6954 22.3875,193.6392 Q22.5141,193.5829 22.6688,193.5829 Q22.9641,193.5829 23.175,193.822 Q23.4,194.047 23.4,194.3704 Q23.4,194.6798 23.0906,195.0454 Q22.6406,195.5798 21.9234,195.8751 Q20.9813,196.2829 19.8281,196.2829 Q18.4781,196.2829 17.3953,195.7486 Q16.5234,195.3267 15.9047,194.4126 Q15.3,193.4986 15.3,192.4157 L15.3,191.4314 Q15.3,190.3064 15.8344,189.322 Q16.3828,188.3376 17.325,187.8173 Q18.2813,187.2829 19.35,187.2829 Q19.9969,187.2829 20.5594,187.5079 Q21.1219,187.7329 21.6,188.1829 Z " fill="#000000"/><text fill="#000000" font-family="sans-serif" font-size="10.8" lengthAdjust="spacing" textLength="47.7" x="32.4" y="195.7521">Company</text><line style="stroke:#A80036;stroke-width:1.35;" x1="7.2" x2="81.9" y1="205.7329" y2="205.7329"/><text fill="#000000" font-family="sans-serif" font-size="9.9" lengthAdjust="spacing" textLength="53.1" x="11.7" y="219.61">-designation</text><!--MD5=[7421f545a0d8420c5bec41e74b387d9c]
class Employee--><rect codeLine="11" fill="#FEFECE" filter="url(#f1gtl0xr0gno79)" height="48.4523" id="Employee" style="stroke:#A80036;stroke-width:1.35;" width="78.3" x="198" y="107.6329"/><ellipse cx="211.5" cy="122.0329" fill="#ADD1B2" rx="9.9" ry="9.9" style="stroke:#A80036;stroke-width:0.9;"/><path d="M213.3,118.8829 Q213.4828,118.4329 213.6938,118.2079 Q213.9047,117.9829 214.1438,117.9829 Q214.5656,117.9829 214.8328,118.2361 Q215.1,118.4892 215.1,119.0798 L215.1,120.4861 Q215.1,121.0767 214.8469,121.3298 Q214.5938,121.5829 214.2,121.5829 Q213.8484,121.5829 213.6234,121.4282 Q213.3984,121.2736 213.3,120.8657 Q213.2578,120.5845 213.1031,120.4298 Q212.8219,120.1345 212.3156,119.9657 Q211.8094,119.7829 211.3031,119.7829 Q210.6703,119.7829 210.1359,120.0361 Q209.6156,120.2892 209.2078,120.8517 Q208.8,121.4142 208.8,122.1876 L208.8,123.0173 Q208.8,123.9454 209.5594,124.5642 Q210.3188,125.1829 211.6688,125.1829 Q212.4703,125.1829 213.0328,125.0001 Q213.3563,124.9017 213.7219,124.5782 Q213.9609,124.3954 214.0875,124.3392 Q214.2141,124.2829 214.3688,124.2829 Q214.6641,124.2829 214.875,124.522 Q215.1,124.747 215.1,125.0704 Q215.1,125.3798 214.7906,125.7454 Q214.3406,126.2798 213.6234,126.5751 Q212.6813,126.9829 211.5281,126.9829 Q210.1781,126.9829 209.0953,126.4486 Q208.2234,126.0267 207.6047,125.1126 Q207,124.1986 207,123.1157 L207,122.1314 Q207,121.0064 207.5344,120.022 Q208.0828,119.0376 209.025,118.5173 Q209.9813,117.9829 211.05,117.9829 Q211.6969,117.9829 212.2594,118.2079 Q212.8219,118.4329 213.3,118.8829 Z " fill="#000000"/><text fill="#000000" font-family="sans-serif" font-size="10.8" lengthAdjust="spacing" textLength="49.5" x="224.1" y="126.4521">Employee</text><line style="stroke:#A80036;stroke-width:1.35;" x1="198.9" x2="275.4" y1="136.4329" y2="136.4329"/><text fill="#000000" font-family="sans-serif" font-size="9.9" lengthAdjust="spacing" textLength="27" x="203.4" y="150.31">-name</text><!--MD5=[a3093aa9f96b7df9aab31d8715601ff6]
class Containers--><rect codeLine="15" fill="#FEFECE" filter="url(#f1gtl0xr0gno79)" height="185.4281" id="Containers" style="stroke:#A80036;stroke-width:1.35;" width="88.2" x="619.2" y="471.2329"/><ellipse cx="634.725" cy="485.6329" fill="#ADD1B2" rx="9.9" ry="9.9" style="stroke:#A80036;stroke-width:0.9;"/><path d="M636.525,482.4829 Q636.7078,482.0329 636.9188,481.8079 Q637.1297,481.5829 637.3688,481.5829 Q637.7906,481.5829 638.0578,481.8361 Q638.325,482.0892 638.325,482.6798 L638.325,484.0861 Q638.325,484.6767 638.0719,484.9298 Q637.8188,485.1829 637.425,485.1829 Q637.0734,485.1829 636.8484,485.0282 Q636.6234,484.8736 636.525,484.4657 Q636.4828,484.1845 636.3281,484.0298 Q636.0469,483.7345 635.5406,483.5657 Q635.0344,483.3829 634.5281,483.3829 Q633.8953,483.3829 633.3609,483.6361 Q632.8406,483.8892 632.4328,484.4517 Q632.025,485.0142 632.025,485.7876 L632.025,486.6173 Q632.025,487.5454 632.7844,488.1642 Q633.5438,488.7829 634.8938,488.7829 Q635.6953,488.7829 636.2578,488.6001 Q636.5813,488.5017 636.9469,488.1782 Q637.1859,487.9954 637.3125,487.9392 Q637.4391,487.8829 637.5938,487.8829 Q637.8891,487.8829 638.1,488.122 Q638.325,488.347 638.325,488.6704 Q638.325,488.9798 638.0156,489.3454 Q637.5656,489.8798 636.8484,490.1751 Q635.9063,490.5829 634.7531,490.5829 Q633.4031,490.5829 632.3203,490.0486 Q631.4484,489.6267 630.8297,488.7126 Q630.225,487.7986 630.225,486.7157 L630.225,485.7314 Q630.225,484.6064 630.7594,483.622 Q631.3078,482.6376 632.25,482.1173 Q633.2063,481.5829 634.275,481.5829 Q634.9219,481.5829 635.4844,481.8079 Q636.0469,482.0329 636.525,482.4829 Z " fill="#000000"/><text fill="#000000" font-family="sans-serif" font-size="10.8" lengthAdjust="spacing" textLength="54.9" x="647.775" y="490.0521">Containers</text><line style="stroke:#A80036;stroke-width:1.35;" x1="620.1" x2="706.5" y1="500.0329" y2="500.0329"/><text fill="#000000" font-family="sans-serif" font-size="9.9" lengthAdjust="spacing" textLength="9" x="624.6" y="513.91">-x</text><text fill="#000000" font-family="sans-serif" font-size="9.9" lengthAdjust="spacing" textLength="9" x="624.6" y="526.3623">-y</text><text fill="#000000" font-family="sans-serif" font-size="9.9" lengthAdjust="spacing" textLength="9" x="624.6" y="538.8147">-z</text><text fill="#000000" font-family="sans-serif" font-size="9.9" lengthAdjust="spacing" textLength="77.4" x="624.6" y="551.267">-containerNumber</text><text fill="#000000" font-family="sans-serif" font-size="9.9" lengthAdjust="spacing" textLength="47.7" x="624.6" y="563.7194">-checkDigit</text><text fill="#000000" font-family="sans-serif" font-size="9.9" lengthAdjust="spacing" textLength="38.7" x="624.6" y="576.1717">-isoCode</text><text fill="#000000" font-family="sans-serif" font-size="9.9" lengthAdjust="spacing" textLength="27.9" x="624.6" y="588.624">-width</text><text fill="#000000" font-family="sans-serif" font-size="9.9" lengthAdjust="spacing" textLength="29.7" x="624.6" y="601.0764">-height</text><text fill="#000000" font-family="sans-serif" font-size="9.9" lengthAdjust="spacing" textLength="29.7" x="624.6" y="613.5287">-length</text><text fill="#000000" font-family="sans-serif" font-size="9.9" lengthAdjust="spacing" textLength="41.4" x="624.6" y="625.9811">-payLoad</text><text fill="#000000" font-family="sans-serif" font-size="9.9" lengthAdjust="spacing" textLength="20.7" x="624.6" y="638.4334">-tare</text><text fill="#000000" font-family="sans-serif" font-size="9.9" lengthAdjust="spacing" textLength="28.8" x="624.6" y="650.8858">-gross</text><!--MD5=[76562047389981627aea27c31a97aff5]
class CargoManifest--><rect codeLine="30" fill="#FEFECE" filter="url(#f1gtl0xr0gno79)" height="48.4523" id="CargoManifest" style="stroke:#A80036;stroke-width:1.35;" width="100.8" x="826.2" y="535.1329"/><ellipse cx="839.7" cy="549.5329" fill="#ADD1B2" rx="9.9" ry="9.9" style="stroke:#A80036;stroke-width:0.9;"/><path d="M841.5,546.3829 Q841.6828,545.9329 841.8938,545.7079 Q842.1047,545.4829 842.3438,545.4829 Q842.7656,545.4829 843.0328,545.7361 Q843.3,545.9892 843.3,546.5798 L843.3,547.9861 Q843.3,548.5767 843.0469,548.8298 Q842.7938,549.0829 842.4,549.0829 Q842.0484,549.0829 841.8234,548.9282 Q841.5984,548.7736 841.5,548.3657 Q841.4578,548.0845 841.3031,547.9298 Q841.0219,547.6345 840.5156,547.4657 Q840.0094,547.2829 839.5031,547.2829 Q838.8703,547.2829 838.3359,547.5361 Q837.8156,547.7892 837.4078,548.3517 Q837,548.9142 837,549.6876 L837,550.5173 Q837,551.4454 837.7594,552.0642 Q838.5188,552.6829 839.8688,552.6829 Q840.6703,552.6829 841.2328,552.5001 Q841.5563,552.4017 841.9219,552.0782 Q842.1609,551.8954 842.2875,551.8392 Q842.4141,551.7829 842.5688,551.7829 Q842.8641,551.7829 843.075,552.022 Q843.3,552.247 843.3,552.5704 Q843.3,552.8798 842.9906,553.2454 Q842.5406,553.7798 841.8234,554.0751 Q840.8813,554.4829 839.7281,554.4829 Q838.3781,554.4829 837.2953,553.9486 Q836.4234,553.5267 835.8047,552.6126 Q835.2,551.6986 835.2,550.6157 L835.2,549.6314 Q835.2,548.5064 835.7344,547.522 Q836.2828,546.5376 837.225,546.0173 Q838.1813,545.4829 839.25,545.4829 Q839.8969,545.4829 840.4594,545.7079 Q841.0219,545.9329 841.5,546.3829 Z " fill="#000000"/><text fill="#000000" font-family="sans-serif" font-size="10.8" lengthAdjust="spacing" textLength="72" x="852.3" y="553.9521">CargoManifest</text><line style="stroke:#A80036;stroke-width:1.35;" x1="827.1" x2="926.1" y1="563.9329" y2="563.9329"/><text fill="#000000" font-family="sans-serif" font-size="9.9" lengthAdjust="spacing" textLength="77.4" x="831.6" y="577.81">-containerNumber</text><!--MD5=[0dc7f2ddb409b58bcf52b12238c25399]
class Ship--><rect codeLine="34" fill="#FEFECE" filter="url(#f1gtl0xr0gno79)" height="123.1664" id="Ship" style="stroke:#A80036;stroke-width:1.35;" width="126.9" x="173.7" y="255.6829"/><ellipse cx="222.075" cy="270.0829" fill="#ADD1B2" rx="9.9" ry="9.9" style="stroke:#A80036;stroke-width:0.9;"/><path d="M223.875,266.9329 Q224.0578,266.4829 224.2688,266.2579 Q224.4797,266.0329 224.7188,266.0329 Q225.1406,266.0329 225.4078,266.2861 Q225.675,266.5392 225.675,267.1298 L225.675,268.5361 Q225.675,269.1267 225.4219,269.3798 Q225.1688,269.6329 224.775,269.6329 Q224.4234,269.6329 224.1984,269.4782 Q223.9734,269.3236 223.875,268.9157 Q223.8328,268.6345 223.6781,268.4798 Q223.3969,268.1845 222.8906,268.0157 Q222.3844,267.8329 221.8781,267.8329 Q221.2453,267.8329 220.7109,268.0861 Q220.1906,268.3392 219.7828,268.9017 Q219.375,269.4642 219.375,270.2376 L219.375,271.0673 Q219.375,271.9954 220.1344,272.6142 Q220.8938,273.2329 222.2438,273.2329 Q223.0453,273.2329 223.6078,273.0501 Q223.9313,272.9517 224.2969,272.6282 Q224.5359,272.4454 224.6625,272.3892 Q224.7891,272.3329 224.9438,272.3329 Q225.2391,272.3329 225.45,272.572 Q225.675,272.797 225.675,273.1204 Q225.675,273.4298 225.3656,273.7954 Q224.9156,274.3298 224.1984,274.6251 Q223.2563,275.0329 222.1031,275.0329 Q220.7531,275.0329 219.6703,274.4986 Q218.7984,274.0767 218.1797,273.1626 Q217.575,272.2486 217.575,271.1657 L217.575,270.1814 Q217.575,269.0564 218.1094,268.072 Q218.6578,267.0876 219.6,266.5673 Q220.5563,266.0329 221.625,266.0329 Q222.2719,266.0329 222.8344,266.2579 Q223.3969,266.4829 223.875,266.9329 Z " fill="#000000"/><text fill="#000000" font-family="sans-serif" font-size="10.8" lengthAdjust="spacing" textLength="22.5" x="240.525" y="274.5021">Ship</text><line style="stroke:#A80036;stroke-width:1.35;" x1="174.6" x2="299.7" y1="284.4829" y2="284.4829"/><text fill="#000000" font-family="sans-serif" font-size="9.9" lengthAdjust="spacing" textLength="47.7" x="179.1" y="298.36">-mmsiCode</text><text fill="#000000" font-family="sans-serif" font-size="9.9" lengthAdjust="spacing" textLength="27" x="179.1" y="310.8123">-name</text><text fill="#000000" font-family="sans-serif" font-size="9.9" lengthAdjust="spacing" textLength="40.5" x="179.1" y="323.2647">-imoCode</text><text fill="#000000" font-family="sans-serif" font-size="9.9" lengthAdjust="spacing" textLength="116.1" x="179.1" y="335.717">-numberEnergyGenerators</text><text fill="#000000" font-family="sans-serif" font-size="9.9" lengthAdjust="spacing" textLength="74.7" x="179.1" y="348.1694">-generatorPower</text><text fill="#000000" font-family="sans-serif" font-size="9.9" lengthAdjust="spacing" textLength="36.9" x="179.1" y="360.6217">-callSign</text><text fill="#000000" font-family="sans-serif" font-size="9.9" lengthAdjust="spacing" textLength="24.3" x="179.1" y="373.074">-draft</text><!--MD5=[cf9c7d7c3da40397ddde4f51b7097da6]
class VesselType--><rect codeLine="44" fill="#FEFECE" filter="url(#f1gtl0xr0gno79)" height="85.8094" id="VesselType" style="stroke:#A80036;stroke-width:1.35;" width="86.4" x="416.7" y="274.5829"/><ellipse cx="430.2" cy="288.9829" fill="#ADD1B2" rx="9.9" ry="9.9" style="stroke:#A80036;stroke-width:0.9;"/><path d="M432,285.8329 Q432.1828,285.3829 432.3938,285.1579 Q432.6047,284.9329 432.8438,284.9329 Q433.2656,284.9329 433.5328,285.1861 Q433.8,285.4392 433.8,286.0298 L433.8,287.4361 Q433.8,288.0267 433.5469,288.2798 Q433.2938,288.5329 432.9,288.5329 Q432.5484,288.5329 432.3234,288.3782 Q432.0984,288.2236 432,287.8157 Q431.9578,287.5345 431.8031,287.3798 Q431.5219,287.0845 431.0156,286.9157 Q430.5094,286.7329 430.0031,286.7329 Q429.3703,286.7329 428.8359,286.9861 Q428.3156,287.2392 427.9078,287.8017 Q427.5,288.3642 427.5,289.1376 L427.5,289.9673 Q427.5,290.8954 428.2594,291.5142 Q429.0188,292.1329 430.3688,292.1329 Q431.1703,292.1329 431.7328,291.9501 Q432.0563,291.8517 432.4219,291.5282 Q432.6609,291.3454 432.7875,291.2892 Q432.9141,291.2329 433.0688,291.2329 Q433.3641,291.2329 433.575,291.472 Q433.8,291.697 433.8,292.0204 Q433.8,292.3298 433.4906,292.6954 Q433.0406,293.2298 432.3234,293.5251 Q431.3813,293.9329 430.2281,293.9329 Q428.8781,293.9329 427.7953,293.3986 Q426.9234,292.9767 426.3047,292.0626 Q425.7,291.1486 425.7,290.0657 L425.7,289.0814 Q425.7,287.9564 426.2344,286.972 Q426.7828,285.9876 427.725,285.4673 Q428.6813,284.9329 429.75,284.9329 Q430.3969,284.9329 430.9594,285.1579 Q431.5219,285.3829 432,285.8329 Z " fill="#000000"/><text fill="#000000" font-family="sans-serif" font-size="10.8" lengthAdjust="spacing" textLength="57.6" x="442.8" y="293.4021">VesselType</text><line style="stroke:#A80036;stroke-width:1.35;" x1="417.6" x2="502.2" y1="303.3829" y2="303.3829"/><text fill="#000000" font-family="sans-serif" font-size="9.9" lengthAdjust="spacing" textLength="61.2" x="422.1" y="317.26">-vesselTypeId</text><text fill="#000000" font-family="sans-serif" font-size="9.9" lengthAdjust="spacing" textLength="29.7" x="422.1" y="329.7123">-length</text><text fill="#000000" font-family="sans-serif" font-size="9.9" lengthAdjust="spacing" textLength="27.9" x="422.1" y="342.1647">-width</text><text fill="#000000" font-family="sans-serif" font-size="9.9" lengthAdjust="spacing" textLength="40.5" x="422.1" y="354.617">-capacity</text><!--MD5=[ea13aecf8df941b18fb8e3885c78c184]
class Ports--><rect codeLine="51" fill="#FEFECE" filter="url(#f1gtl0xr0gno79)" height="60.9047" id="Ports" style="stroke:#A80036;stroke-width:1.35;" width="68.4" x="1062" y="462.2329"/><ellipse cx="1081.575" cy="476.6329" fill="#ADD1B2" rx="9.9" ry="9.9" style="stroke:#A80036;stroke-width:0.9;"/><path d="M1083.375,473.4829 Q1083.5578,473.0329 1083.7688,472.8079 Q1083.9797,472.5829 1084.2188,472.5829 Q1084.6406,472.5829 1084.9078,472.8361 Q1085.175,473.0892 1085.175,473.6798 L1085.175,475.0861 Q1085.175,475.6767 1084.9219,475.9298 Q1084.6688,476.1829 1084.275,476.1829 Q1083.9234,476.1829 1083.6984,476.0282 Q1083.4734,475.8736 1083.375,475.4657 Q1083.3328,475.1845 1083.1781,475.0298 Q1082.8969,474.7345 1082.3906,474.5657 Q1081.8844,474.3829 1081.3781,474.3829 Q1080.7453,474.3829 1080.2109,474.6361 Q1079.6906,474.8892 1079.2828,475.4517 Q1078.875,476.0142 1078.875,476.7876 L1078.875,477.6173 Q1078.875,478.5454 1079.6344,479.1642 Q1080.3938,479.7829 1081.7438,479.7829 Q1082.5453,479.7829 1083.1078,479.6001 Q1083.4313,479.5017 1083.7969,479.1782 Q1084.0359,478.9954 1084.1625,478.9392 Q1084.2891,478.8829 1084.4438,478.8829 Q1084.7391,478.8829 1084.95,479.122 Q1085.175,479.347 1085.175,479.6704 Q1085.175,479.9798 1084.8656,480.3454 Q1084.4156,480.8798 1083.6984,481.1751 Q1082.7563,481.5829 1081.6031,481.5829 Q1080.2531,481.5829 1079.1703,481.0486 Q1078.2984,480.6267 1077.6797,479.7126 Q1077.075,478.7986 1077.075,477.7157 L1077.075,476.7314 Q1077.075,475.6064 1077.6094,474.622 Q1078.1578,473.6376 1079.1,473.1173 Q1080.0563,472.5829 1081.125,472.5829 Q1081.7719,472.5829 1082.3344,472.8079 Q1082.8969,473.0329 1083.375,473.4829 Z " fill="#000000"/><text fill="#000000" font-family="sans-serif" font-size="10.8" lengthAdjust="spacing" textLength="26.1" x="1095.525" y="481.0521">Ports</text><line style="stroke:#A80036;stroke-width:1.35;" x1="1062.9" x2="1129.5" y1="491.0329" y2="491.0329"/><text fill="#000000" font-family="sans-serif" font-size="9.9" lengthAdjust="spacing" textLength="57.6" x="1067.4" y="504.91">-identification</text><text fill="#000000" font-family="sans-serif" font-size="9.9" lengthAdjust="spacing" textLength="27" x="1067.4" y="517.3623">-name</text><!--MD5=[f2ba7f6ab60af8dd0d3e354f91729b14]
class Truck--><rect codeLine="56" fill="#FEFECE" filter="url(#f1gtl0xr0gno79)" height="36" id="Truck" style="stroke:#A80036;stroke-width:1.35;" width="55.8" x="432" y="545.9329"/><ellipse cx="445.5" cy="560.3329" fill="#ADD1B2" rx="9.9" ry="9.9" style="stroke:#A80036;stroke-width:0.9;"/><path d="M447.3,557.1829 Q447.4828,556.7329 447.6938,556.5079 Q447.9047,556.2829 448.1438,556.2829 Q448.5656,556.2829 448.8328,556.5361 Q449.1,556.7892 449.1,557.3798 L449.1,558.7861 Q449.1,559.3767 448.8469,559.6298 Q448.5938,559.8829 448.2,559.8829 Q447.8484,559.8829 447.6234,559.7282 Q447.3984,559.5736 447.3,559.1657 Q447.2578,558.8845 447.1031,558.7298 Q446.8219,558.4345 446.3156,558.2657 Q445.8094,558.0829 445.3031,558.0829 Q444.6703,558.0829 444.1359,558.3361 Q443.6156,558.5892 443.2078,559.1517 Q442.8,559.7142 442.8,560.4876 L442.8,561.3173 Q442.8,562.2454 443.5594,562.8642 Q444.3188,563.4829 445.6688,563.4829 Q446.4703,563.4829 447.0328,563.3001 Q447.3563,563.2017 447.7219,562.8782 Q447.9609,562.6954 448.0875,562.6392 Q448.2141,562.5829 448.3688,562.5829 Q448.6641,562.5829 448.875,562.822 Q449.1,563.047 449.1,563.3704 Q449.1,563.6798 448.7906,564.0454 Q448.3406,564.5798 447.6234,564.8751 Q446.6813,565.2829 445.5281,565.2829 Q444.1781,565.2829 443.0953,564.7486 Q442.2234,564.3267 441.6047,563.4126 Q441,562.4986 441,561.4157 L441,560.4314 Q441,559.3064 441.5344,558.322 Q442.0828,557.3376 443.025,556.8173 Q443.9813,556.2829 445.05,556.2829 Q445.6969,556.2829 446.2594,556.5079 Q446.8219,556.7329 447.3,557.1829 Z " fill="#000000"/><text fill="#000000" font-family="sans-serif" font-size="10.8" lengthAdjust="spacing" textLength="27" x="458.1" y="564.7521">Truck</text><line style="stroke:#A80036;stroke-width:1.35;" x1="432.9" x2="486.9" y1="574.7329" y2="574.7329"/><!--MD5=[c5149b4909ffd2688ff51a939867f774]
class Warehouse--><rect codeLine="60" fill="#FEFECE" filter="url(#f1gtl0xr0gno79)" height="60.9047" id="Warehouse" style="stroke:#A80036;stroke-width:1.35;" width="86.4" x="1053" y="560.3329"/><ellipse cx="1066.5" cy="574.7329" fill="#ADD1B2" rx="9.9" ry="9.9" style="stroke:#A80036;stroke-width:0.9;"/><path d="M1068.3,571.5829 Q1068.4828,571.1329 1068.6938,570.9079 Q1068.9047,570.6829 1069.1438,570.6829 Q1069.5656,570.6829 1069.8328,570.9361 Q1070.1,571.1892 1070.1,571.7798 L1070.1,573.1861 Q1070.1,573.7767 1069.8469,574.0298 Q1069.5938,574.2829 1069.2,574.2829 Q1068.8484,574.2829 1068.6234,574.1282 Q1068.3984,573.9736 1068.3,573.5657 Q1068.2578,573.2845 1068.1031,573.1298 Q1067.8219,572.8345 1067.3156,572.6657 Q1066.8094,572.4829 1066.3031,572.4829 Q1065.6703,572.4829 1065.1359,572.7361 Q1064.6156,572.9892 1064.2078,573.5517 Q1063.8,574.1142 1063.8,574.8876 L1063.8,575.7173 Q1063.8,576.6454 1064.5594,577.2642 Q1065.3188,577.8829 1066.6688,577.8829 Q1067.4703,577.8829 1068.0328,577.7001 Q1068.3563,577.6017 1068.7219,577.2782 Q1068.9609,577.0954 1069.0875,577.0392 Q1069.2141,576.9829 1069.3688,576.9829 Q1069.6641,576.9829 1069.875,577.222 Q1070.1,577.447 1070.1,577.7704 Q1070.1,578.0798 1069.7906,578.4454 Q1069.3406,578.9798 1068.6234,579.2751 Q1067.6813,579.6829 1066.5281,579.6829 Q1065.1781,579.6829 1064.0953,579.1486 Q1063.2234,578.7267 1062.6047,577.8126 Q1062,576.8986 1062,575.8157 L1062,574.8314 Q1062,573.7064 1062.5344,572.722 Q1063.0828,571.7376 1064.025,571.2173 Q1064.9813,570.6829 1066.05,570.6829 Q1066.6969,570.6829 1067.2594,570.9079 Q1067.8219,571.1329 1068.3,571.5829 Z " fill="#000000"/><text fill="#000000" font-family="sans-serif" font-size="10.8" lengthAdjust="spacing" textLength="57.6" x="1079.1" y="579.1521">Warehouse</text><line style="stroke:#A80036;stroke-width:1.35;" x1="1053.9" x2="1138.5" y1="589.1329" y2="589.1329"/><text fill="#000000" font-family="sans-serif" font-size="9.9" lengthAdjust="spacing" textLength="57.6" x="1058.4" y="603.01">-identification</text><text fill="#000000" font-family="sans-serif" font-size="9.9" lengthAdjust="spacing" textLength="27" x="1058.4" y="615.4623">-name</text><!--MD5=[deb4e1f6eb1e3c1256fdb830f96abfbb]
class Country--><rect codeLine="65" fill="#FEFECE" filter="url(#f1gtl0xr0gno79)" height="60.9047" id="Country" style="stroke:#A80036;stroke-width:1.35;" width="66.6" x="1443.6" y="514.4329"/><ellipse cx="1457.1" cy="528.8329" fill="#ADD1B2" rx="9.9" ry="9.9" style="stroke:#A80036;stroke-width:0.9;"/><path d="M1458.9,525.6829 Q1459.0828,525.2329 1459.2938,525.0079 Q1459.5047,524.7829 1459.7438,524.7829 Q1460.1656,524.7829 1460.4328,525.0361 Q1460.7,525.2892 1460.7,525.8798 L1460.7,527.2861 Q1460.7,527.8767 1460.4469,528.1298 Q1460.1938,528.3829 1459.8,528.3829 Q1459.4484,528.3829 1459.2234,528.2282 Q1458.9984,528.0736 1458.9,527.6657 Q1458.8578,527.3845 1458.7031,527.2298 Q1458.4219,526.9345 1457.9156,526.7657 Q1457.4094,526.5829 1456.9031,526.5829 Q1456.2703,526.5829 1455.7359,526.8361 Q1455.2156,527.0892 1454.8078,527.6517 Q1454.4,528.2142 1454.4,528.9876 L1454.4,529.8173 Q1454.4,530.7454 1455.1594,531.3642 Q1455.9188,531.9829 1457.2688,531.9829 Q1458.0703,531.9829 1458.6328,531.8001 Q1458.9563,531.7017 1459.3219,531.3782 Q1459.5609,531.1954 1459.6875,531.1392 Q1459.8141,531.0829 1459.9688,531.0829 Q1460.2641,531.0829 1460.475,531.322 Q1460.7,531.547 1460.7,531.8704 Q1460.7,532.1798 1460.3906,532.5454 Q1459.9406,533.0798 1459.2234,533.3751 Q1458.2813,533.7829 1457.1281,533.7829 Q1455.7781,533.7829 1454.6953,533.2486 Q1453.8234,532.8267 1453.2047,531.9126 Q1452.6,530.9986 1452.6,529.9157 L1452.6,528.9314 Q1452.6,527.8064 1453.1344,526.822 Q1453.6828,525.8376 1454.625,525.3173 Q1455.5813,524.7829 1456.65,524.7829 Q1457.2969,524.7829 1457.8594,525.0079 Q1458.4219,525.2329 1458.9,525.6829 Z " fill="#000000"/><text fill="#000000" font-family="sans-serif" font-size="10.8" lengthAdjust="spacing" textLength="37.8" x="1469.7" y="533.2521">Country</text><line style="stroke:#A80036;stroke-width:1.35;" x1="1444.5" x2="1509.3" y1="543.2329" y2="543.2329"/><text fill="#000000" font-family="sans-serif" font-size="9.9" lengthAdjust="spacing" textLength="27" x="1449" y="557.11">-name</text><text fill="#000000" font-family="sans-serif" font-size="9.9" lengthAdjust="spacing" textLength="43.2" x="1449" y="569.5623">-continent</text><!--MD5=[9febfb2ff9adfe183e01ff702b9c1c02]
class PlaceLocation--><rect codeLine="70" fill="#FEFECE" filter="url(#f1gtl0xr0gno79)" height="60.9047" id="PlaceLocation" style="stroke:#A80036;stroke-width:1.35;" width="99" x="1258.2" y="514.4329"/><ellipse cx="1271.7" cy="528.8329" fill="#ADD1B2" rx="9.9" ry="9.9" style="stroke:#A80036;stroke-width:0.9;"/><path d="M1273.5,525.6829 Q1273.6828,525.2329 1273.8938,525.0079 Q1274.1047,524.7829 1274.3438,524.7829 Q1274.7656,524.7829 1275.0328,525.0361 Q1275.3,525.2892 1275.3,525.8798 L1275.3,527.2861 Q1275.3,527.8767 1275.0469,528.1298 Q1274.7938,528.3829 1274.4,528.3829 Q1274.0484,528.3829 1273.8234,528.2282 Q1273.5984,528.0736 1273.5,527.6657 Q1273.4578,527.3845 1273.3031,527.2298 Q1273.0219,526.9345 1272.5156,526.7657 Q1272.0094,526.5829 1271.5031,526.5829 Q1270.8703,526.5829 1270.3359,526.8361 Q1269.8156,527.0892 1269.4078,527.6517 Q1269,528.2142 1269,528.9876 L1269,529.8173 Q1269,530.7454 1269.7594,531.3642 Q1270.5188,531.9829 1271.8688,531.9829 Q1272.6703,531.9829 1273.2328,531.8001 Q1273.5563,531.7017 1273.9219,531.3782 Q1274.1609,531.1954 1274.2875,531.1392 Q1274.4141,531.0829 1274.5688,531.0829 Q1274.8641,531.0829 1275.075,531.322 Q1275.3,531.547 1275.3,531.8704 Q1275.3,532.1798 1274.9906,532.5454 Q1274.5406,533.0798 1273.8234,533.3751 Q1272.8813,533.7829 1271.7281,533.7829 Q1270.3781,533.7829 1269.2953,533.2486 Q1268.4234,532.8267 1267.8047,531.9126 Q1267.2,530.9986 1267.2,529.9157 L1267.2,528.9314 Q1267.2,527.8064 1267.7344,526.822 Q1268.2828,525.8376 1269.225,525.3173 Q1270.1813,524.7829 1271.25,524.7829 Q1271.8969,524.7829 1272.4594,525.0079 Q1273.0219,525.2329 1273.5,525.6829 Z " fill="#000000"/><text fill="#000000" font-family="sans-serif" font-size="10.8" lengthAdjust="spacing" textLength="70.2" x="1284.3" y="533.2521">PlaceLocation</text><line style="stroke:#A80036;stroke-width:1.35;" x1="1259.1" x2="1356.3" y1="543.2329" y2="543.2329"/><text fill="#000000" font-family="sans-serif" font-size="9.9" lengthAdjust="spacing" textLength="34.2" x="1263.6" y="557.11">-latitude</text><text fill="#000000" font-family="sans-serif" font-size="9.9" lengthAdjust="spacing" textLength="42.3" x="1263.6" y="569.5623">-longitude</text><!--MD5=[efa7c3600894dd6faaa8b816738c33b1]
class ShipLocation--><rect codeLine="75" fill="#FEFECE" filter="url(#f1gtl0xr0gno79)" height="135.6188" id="ShipLocation" style="stroke:#A80036;stroke-width:1.35;" width="93.6" x="616.5" y="103.5829"/><ellipse cx="630" cy="117.9829" fill="#ADD1B2" rx="9.9" ry="9.9" style="stroke:#A80036;stroke-width:0.9;"/><path d="M631.8,114.8329 Q631.9828,114.3829 632.1938,114.1579 Q632.4047,113.9329 632.6438,113.9329 Q633.0656,113.9329 633.3328,114.1861 Q633.6,114.4392 633.6,115.0298 L633.6,116.4361 Q633.6,117.0267 633.3469,117.2798 Q633.0938,117.5329 632.7,117.5329 Q632.3484,117.5329 632.1234,117.3782 Q631.8984,117.2236 631.8,116.8157 Q631.7578,116.5345 631.6031,116.3798 Q631.3219,116.0845 630.8156,115.9157 Q630.3094,115.7329 629.8031,115.7329 Q629.1703,115.7329 628.6359,115.9861 Q628.1156,116.2392 627.7078,116.8017 Q627.3,117.3642 627.3,118.1376 L627.3,118.9673 Q627.3,119.8954 628.0594,120.5142 Q628.8188,121.1329 630.1688,121.1329 Q630.9703,121.1329 631.5328,120.9501 Q631.8563,120.8517 632.2219,120.5282 Q632.4609,120.3454 632.5875,120.2892 Q632.7141,120.2329 632.8688,120.2329 Q633.1641,120.2329 633.375,120.472 Q633.6,120.697 633.6,121.0204 Q633.6,121.3298 633.2906,121.6954 Q632.8406,122.2298 632.1234,122.5251 Q631.1813,122.9329 630.0281,122.9329 Q628.6781,122.9329 627.5953,122.3986 Q626.7234,121.9767 626.1047,121.0626 Q625.5,120.1486 625.5,119.0657 L625.5,118.0814 Q625.5,116.9564 626.0344,115.972 Q626.5828,114.9876 627.525,114.4673 Q628.4813,113.9329 629.55,113.9329 Q630.1969,113.9329 630.7594,114.1579 Q631.3219,114.3829 631.8,114.8329 Z " fill="#000000"/><text fill="#000000" font-family="sans-serif" font-size="10.8" lengthAdjust="spacing" textLength="64.8" x="642.6" y="122.4021">ShipLocation</text><line style="stroke:#A80036;stroke-width:1.35;" x1="617.4" x2="709.2" y1="132.3829" y2="132.3829"/><text fill="#000000" font-family="sans-serif" font-size="9.9" lengthAdjust="spacing" textLength="64.8" x="621.9" y="146.26">-baseDateTime</text><text fill="#000000" font-family="sans-serif" font-size="9.9" lengthAdjust="spacing" textLength="34.2" x="621.9" y="158.7123">-latitude</text><text fill="#000000" font-family="sans-serif" font-size="9.9" lengthAdjust="spacing" textLength="42.3" x="621.9" y="171.1647">-longitude</text><text fill="#000000" font-family="sans-serif" font-size="9.9" lengthAdjust="spacing" textLength="19.8" x="621.9" y="183.617">-sog</text><text fill="#000000" font-family="sans-serif" font-size="9.9" lengthAdjust="spacing" textLength="19.8" x="621.9" y="196.0694">-cog</text><text fill="#000000" font-family="sans-serif" font-size="9.9" lengthAdjust="spacing" textLength="37.8" x="621.9" y="208.5217">-heading</text><text fill="#000000" font-family="sans-serif" font-size="9.9" lengthAdjust="spacing" textLength="36.9" x="621.9" y="220.974">-position</text><text fill="#000000" font-family="sans-serif" font-size="9.9" lengthAdjust="spacing" textLength="53.1" x="621.9" y="233.4264">-transceiver</text><!--MD5=[f8e092794d52bf9a252466252ae7bd1c]
class System--><rect fill="#FEFECE" filter="url(#f1gtl0xr0gno79)" height="36" id="System" style="stroke:#A80036;stroke-width:1.35;" width="65.7" x="630.45" y="7.7329"/><ellipse cx="643.95" cy="22.1329" fill="#ADD1B2" rx="9.9" ry="9.9" style="stroke:#A80036;stroke-width:0.9;"/><path d="M645.75,18.9829 Q645.9328,18.5329 646.1438,18.3079 Q646.3547,18.0829 646.5938,18.0829 Q647.0156,18.0829 647.2828,18.3361 Q647.55,18.5892 647.55,19.1798 L647.55,20.5861 Q647.55,21.1767 647.2969,21.4298 Q647.0438,21.6829 646.65,21.6829 Q646.2984,21.6829 646.0734,21.5282 Q645.8484,21.3736 645.75,20.9657 Q645.7078,20.6845 645.5531,20.5298 Q645.2719,20.2345 644.7656,20.0657 Q644.2594,19.8829 643.7531,19.8829 Q643.1203,19.8829 642.5859,20.1361 Q642.0656,20.3892 641.6578,20.9517 Q641.25,21.5142 641.25,22.2876 L641.25,23.1173 Q641.25,24.0454 642.0094,24.6642 Q642.7688,25.2829 644.1188,25.2829 Q644.9203,25.2829 645.4828,25.1001 Q645.8063,25.0017 646.1719,24.6782 Q646.4109,24.4954 646.5375,24.4392 Q646.6641,24.3829 646.8188,24.3829 Q647.1141,24.3829 647.325,24.622 Q647.55,24.847 647.55,25.1704 Q647.55,25.4798 647.2406,25.8454 Q646.7906,26.3798 646.0734,26.6751 Q645.1313,27.0829 643.9781,27.0829 Q642.6281,27.0829 641.5453,26.5486 Q640.6734,26.1267 640.0547,25.2126 Q639.45,24.2986 639.45,23.2157 L639.45,22.2314 Q639.45,21.1064 639.9844,20.122 Q640.5328,19.1376 641.475,18.6173 Q642.4313,18.0829 643.5,18.0829 Q644.1469,18.0829 644.7094,18.3079 Q645.2719,18.5329 645.75,18.9829 Z " fill="#000000"/><text fill="#000000" font-family="sans-serif" font-size="10.8" lengthAdjust="spacing" textLength="36.9" x="656.55" y="26.5521">System</text><line style="stroke:#A80036;stroke-width:1.35;" x1="631.35" x2="695.25" y1="36.5329" y2="36.5329"/><!--MD5=[3fd616f346a44cd59a91eb10b19e157c]
class User--><rect fill="#FEFECE" filter="url(#f1gtl0xr0gno79)" height="36" id="User" style="stroke:#A80036;stroke-width:1.35;" width="53.1" x="433.35" y="48.2329"/><ellipse cx="446.85" cy="62.6329" fill="#ADD1B2" rx="9.9" ry="9.9" style="stroke:#A80036;stroke-width:0.9;"/><path d="M448.65,59.4829 Q448.8328,59.0329 449.0438,58.8079 Q449.2547,58.5829 449.4938,58.5829 Q449.9156,58.5829 450.1828,58.8361 Q450.45,59.0892 450.45,59.6798 L450.45,61.0861 Q450.45,61.6767 450.1969,61.9298 Q449.9438,62.1829 449.55,62.1829 Q449.1984,62.1829 448.9734,62.0282 Q448.7484,61.8736 448.65,61.4657 Q448.6078,61.1845 448.4531,61.0298 Q448.1719,60.7345 447.6656,60.5657 Q447.1594,60.3829 446.6531,60.3829 Q446.0203,60.3829 445.4859,60.6361 Q444.9656,60.8892 444.5578,61.4517 Q444.15,62.0142 444.15,62.7876 L444.15,63.6173 Q444.15,64.5454 444.9094,65.1642 Q445.6688,65.7829 447.0188,65.7829 Q447.8203,65.7829 448.3828,65.6001 Q448.7063,65.5017 449.0719,65.1782 Q449.3109,64.9954 449.4375,64.9392 Q449.5641,64.8829 449.7188,64.8829 Q450.0141,64.8829 450.225,65.122 Q450.45,65.347 450.45,65.6704 Q450.45,65.9798 450.1406,66.3454 Q449.6906,66.8798 448.9734,67.1751 Q448.0313,67.5829 446.8781,67.5829 Q445.5281,67.5829 444.4453,67.0486 Q443.5734,66.6267 442.9547,65.7126 Q442.35,64.7986 442.35,63.7157 L442.35,62.7314 Q442.35,61.6064 442.8844,60.622 Q443.4328,59.6376 444.375,59.1173 Q445.3313,58.5829 446.4,58.5829 Q447.0469,58.5829 447.6094,58.8079 Q448.1719,59.0329 448.65,59.4829 Z " fill="#000000"/><text fill="#000000" font-family="sans-serif" font-size="10.8" lengthAdjust="spacing" textLength="24.3" x="459.45" y="67.0521">User</text><line style="stroke:#A80036;stroke-width:1.35;" x1="434.25" x2="485.55" y1="77.0329" y2="77.0329"/><!--MD5=[d729e47c8b99010fceb84b610067730f]
link CargoManifest to Ports--><path codeLine="86" d="M927.198,544.2319 C968.373,531.6409 1025.784,514.0909 1061.73,503.0929 " fill="none" id="CargoManifest-Ports" style="stroke:#A80036;stroke-width:0.9;"/><polygon fill="#000000" points="962.8033,504.2752,954.2451,504.1263,955.792,509.1851,962.8033,504.2752" style="stroke:#000000;stroke-width:0.9;"/><text fill="#000000" font-family="sans-serif" font-size="11.7" lengthAdjust="spacing" textLength="58.5" x="966.6" y="510.3785">delivered at</text><text fill="#000000" font-family="sans-serif" font-size="11.7" lengthAdjust="spacing" textLength="4.5" x="934.2995" y="555.3336">*</text><text fill="#000000" font-family="sans-serif" font-size="11.7" lengthAdjust="spacing" textLength="18" x="1036.802" y="518.07">1..*</text><!--MD5=[1007fce2994c0804f23855fbfd3e6bbd]
link CargoManifest to Warehouse--><path codeLine="87" d="M927.198,566.6149 C965.115,572.1049 1016.784,579.5749 1052.793,584.7859 " fill="none" id="CargoManifest-Warehouse" style="stroke:#A80036;stroke-width:0.9;"/><polygon fill="#000000" points="962.9536,562.9355,955.2757,559.1521,954.5182,564.3876,962.9536,562.9355" style="stroke:#000000;stroke-width:0.9;"/><text fill="#000000" font-family="sans-serif" font-size="11.7" lengthAdjust="spacing" textLength="58.5" x="966.6" y="567.0785">delivered at</text><text fill="#000000" font-family="sans-serif" font-size="11.7" lengthAdjust="spacing" textLength="4.5" x="934.2995" y="580.7243">*</text><text fill="#000000" font-family="sans-serif" font-size="11.7" lengthAdjust="spacing" textLength="18" x="1027.7508" y="580.7791">1..*</text><!--MD5=[37a14a5de6d6fd738aee271300f4b5c8]
link Company to Ship--><path codeLine="89" d="M82.917,224.0299 C108.639,239.6809 143.406,260.8309 173.322,279.0379 " fill="none" id="Company-Ship" style="stroke:#A80036;stroke-width:0.9;"/><polygon fill="#000000" points="119.4943,236.1302,113.9148,229.6391,111.165,234.1584,119.4943,236.1302" style="stroke:#000000;stroke-width:0.9;"/><text fill="#000000" font-family="sans-serif" font-size="11.7" lengthAdjust="spacing" textLength="20.7" x="123.75" y="238.5785">own</text><text fill="#000000" font-family="sans-serif" font-size="11.7" lengthAdjust="spacing" textLength="6.3" x="90.0527" y="241.3711">1</text><text fill="#000000" font-family="sans-serif" font-size="11.7" lengthAdjust="spacing" textLength="18" x="148.6082" y="288.3377">1..*</text><!--MD5=[a2a194d3aa0c5b34ec916a16bebf9a1a]
link Company to System--><path codeLine="90" d="M66.699,176.9059 C90.234,151.6069 130.59,112.8889 173.7,92.3329 C319.563,22.7719 368.748,29.2699 530.1,20.3329 C564.3,18.4339 603.504,20.5759 630.306,22.6909 " fill="none" id="Company-System" style="stroke:#A80036;stroke-width:0.9;"/><polygon fill="#000000" points="351.2905,18.4035,342.7404,18.0007,344.1366,23.1032,351.2905,18.4035" style="stroke:#000000;stroke-width:0.9;"/><text fill="#000000" font-family="sans-serif" font-size="11.7" lengthAdjust="spacing" textLength="18.9" x="355.05" y="24.3785">has</text><text fill="#000000" font-family="sans-serif" font-size="11.7" lengthAdjust="spacing" textLength="6.3" x="65.03" y="167.0234">1</text><text fill="#000000" font-family="sans-serif" font-size="11.7" lengthAdjust="spacing" textLength="18" x="605.3507" y="18.7664">1..*</text><!--MD5=[09366576ee87d48d594df10cacc83f45]
link Company to Employee--><path codeLine="91" d="M82.917,187.6249 C116.127,175.5559 164.412,158.0239 197.883,145.8649 " fill="none" id="Company-Employee" style="stroke:#A80036;stroke-width:0.9;"/><polygon fill="#000000" points="118.5296,154.8548,109.9751,155.148,111.7812,160.1202,118.5296,154.8548" style="stroke:#000000;stroke-width:0.9;"/><text fill="#000000" font-family="sans-serif" font-size="11.7" lengthAdjust="spacing" textLength="23.4" x="122.4" y="161.1785">have</text><text fill="#000000" font-family="sans-serif" font-size="11.7" lengthAdjust="spacing" textLength="6.3" x="90.0527" y="198.709">1</text><text fill="#000000" font-family="sans-serif" font-size="11.7" lengthAdjust="spacing" textLength="18" x="172.7938" y="161.1484">1..*</text><!--MD5=[710b10ea314ec23c5eb602bd01bfa9d5]
link Company to Truck--><path codeLine="92" d="M55.305,225.7579 C73.332,268.1029 115.227,355.6819 173.7,410.9329 C253.359,486.1999 377.199,535.5739 431.694,554.8339 " fill="none" id="Company-Truck" style="stroke:#A80036;stroke-width:0.9;"/><polygon fill="#000000" points="227.9378,405.9531,223.5502,398.6036,220.0683,402.5862,227.9378,405.9531" style="stroke:#000000;stroke-width:0.9;"/><text fill="#000000" font-family="sans-serif" font-size="11.7" lengthAdjust="spacing" textLength="20.7" x="232.65" y="407.7785">own</text><text fill="#000000" font-family="sans-serif" font-size="11.7" lengthAdjust="spacing" textLength="6.3" x="50.6686" y="244.8941">1</text><text fill="#000000" font-family="sans-serif" font-size="11.7" lengthAdjust="spacing" textLength="18" x="406.8341" y="566.6586">1..*</text><!--MD5=[a27713cdd7694cea32c8be89a3131559]
link Containers to CargoManifest--><path codeLine="94" d="M707.508,563.0059 C741.951,562.2769 790.164,561.2509 826.146,560.4859 " fill="none" id="Containers-CargoManifest" style="stroke:#A80036;stroke-width:0.9;"/><polygon fill="#000000" points="746.099,552.2956,737.9041,549.824,738.0164,555.1129,746.099,552.2956" style="stroke:#000000;stroke-width:0.9;"/><text fill="#000000" font-family="sans-serif" font-size="11.7" lengthAdjust="spacing" textLength="48.6" x="749.7" y="557.1785">related to</text><text fill="#000000" font-family="sans-serif" font-size="11.7" lengthAdjust="spacing" textLength="18" x="714.6578" y="576.0138">1..*</text><text fill="#000000" font-family="sans-serif" font-size="11.7" lengthAdjust="spacing" textLength="18" x="800.9" y="573.6656">1..*</text><!--MD5=[c7fc6f07f2489647d2a3f83969f89660]
link Containers to Ports--><path codeLine="95" d="M707.409,546.7159 C717.084,543.1969 727.371,539.7229 737.1,536.9329 C831.726,509.7529 856.062,501.9859 954,491.9329 C985.833,488.6659 994.005,491.7259 1026,491.9329 C1037.673,492.0049 1050.444,492.1489 1061.811,492.3109 " fill="none" id="Containers-Ports" style="stroke:#A80036;stroke-width:0.9;"/><polygon fill="#000000" points="865.7479,486.0083,857.3002,484.6291,858.1029,489.8579,865.7479,486.0083" style="stroke:#000000;stroke-width:0.9;"/><text fill="#000000" font-family="sans-serif" font-size="11.7" lengthAdjust="spacing" textLength="26.1" x="869.4" y="491.4785">store</text><text fill="#000000" font-family="sans-serif" font-size="11.7" lengthAdjust="spacing" textLength="18" x="714.5455" y="557.5349">0..*</text><text fill="#000000" font-family="sans-serif" font-size="11.7" lengthAdjust="spacing" textLength="6.3" x="1048.5897" y="488.6892">1</text><!--MD5=[40d84d2acc82335a7c6decf41782281a]
link Containers to Warehouse--><path codeLine="96" d="M707.643,582.0229 C739.755,594.3799 784.899,609.6349 826.2,616.1329 C905.814,628.6429 999.729,613.0189 1052.919,601.3819 " fill="none" id="Containers-Warehouse" style="stroke:#A80036;stroke-width:0.9;"/><polygon fill="#000000" points="865.7929,608.443,857.8132,605.3464,857.5171,610.6282,865.7929,608.443" style="stroke:#000000;stroke-width:0.9;"/><text fill="#000000" font-family="sans-serif" font-size="11.7" lengthAdjust="spacing" textLength="26.1" x="869.4" y="612.9785">store</text><text fill="#000000" font-family="sans-serif" font-size="11.7" lengthAdjust="spacing" textLength="18" x="714.4776" y="597.4273">0..*</text><text fill="#000000" font-family="sans-serif" font-size="11.7" lengthAdjust="spacing" textLength="6.3" x="1039.5093" y="599.6719">1</text><!--MD5=[3d04185e7085eaaeba7ebd93b9963be0]
link PlaceLocation to Country--><path codeLine="98" d="M1357.245,545.0329 C1384.947,545.0329 1418.913,545.0329 1443.402,545.0329 " fill="none" id="PlaceLocation-Country" style="stroke:#A80036;stroke-width:0.9;"/><polygon fill="#000000" points="1393.2,537.0911,1385.0594,534.4461,1385.0594,539.7362,1393.2,537.0911" style="stroke:#000000;stroke-width:0.9;"/><text fill="#000000" font-family="sans-serif" font-size="11.7" lengthAdjust="spacing" textLength="18.9" x="1396.8" y="541.8785">in a</text><text fill="#000000" font-family="sans-serif" font-size="11.7" lengthAdjust="spacing" textLength="4.5" x="1364.5287" y="558.234">*</text><text fill="#000000" font-family="sans-serif" font-size="11.7" lengthAdjust="spacing" textLength="6.3" x="1430.116" y="558.6093">1</text><!--MD5=[aaa368e4b832683362a5bdda330bd90d]
link Ports to PlaceLocation--><path codeLine="100" d="M1130.562,501.1579 C1164.906,509.7079 1218.708,523.0999 1257.84,532.8379 " fill="none" id="Ports-PlaceLocation" style="stroke:#A80036;stroke-width:0.9;"/><polygon fill="#000000" points="1175.2668,503.978,1168.0061,499.4451,1166.7283,504.5785,1175.2668,503.978" style="stroke:#000000;stroke-width:0.9;"/><text fill="#000000" font-family="sans-serif" font-size="11.7" lengthAdjust="spacing" textLength="51.3" x="1179" y="507.6785">located at</text><text fill="#000000" font-family="sans-serif" font-size="11.7" lengthAdjust="spacing" textLength="6.3" x="1137.7127" y="516.3213">1</text><text fill="#000000" font-family="sans-serif" font-size="11.7" lengthAdjust="spacing" textLength="6.3" x="1244.7481" y="544.3827">1</text><!--MD5=[cff4e3c6ede03364cf99bd3378be6b6a]
link Ship to Containers--><path codeLine="102" d="M276.984,379.0909 C291.132,397.8739 308.412,417.3049 327.6,431.6329 C375.678,467.5249 539.964,523.9909 619.101,549.9919 " fill="none" id="Ship-Containers" style="stroke:#A80036;stroke-width:0.9;"/><polygon fill="#000000" points="438.7257,470.7021,432.6252,464.698,430.2611,469.4304,438.7257,470.7021" style="stroke:#000000;stroke-width:0.9;"/><text fill="#000000" font-family="sans-serif" font-size="11.7" lengthAdjust="spacing" textLength="45.9" x="442.8" y="473.4785">transport</text><text fill="#000000" font-family="sans-serif" font-size="11.7" lengthAdjust="spacing" textLength="6.3" x="274.467" y="398.371">1</text><text fill="#000000" font-family="sans-serif" font-size="11.7" lengthAdjust="spacing" textLength="18" x="593.9524" y="544.9161">1..*</text><!--MD5=[b5e7d3b323f2cd13b2215620f50e65f3]
link Ship to Ports--><path codeLine="103" d="M300.762,358.3909 C343.539,382.4839 402.489,408.2329 459,408.2329 C459,408.2329 459,408.2329 877.5,408.2329 C946.665,408.2329 1020.312,445.7539 1061.793,470.8189 " fill="none" id="Ship-Ports" style="stroke:#A80036;stroke-width:0.9;"/><polygon fill="#000000" points="652.9017,400.9488,645.2351,397.1424,644.462,402.3757,652.9017,400.9488" style="stroke:#000000;stroke-width:0.9;"/><text fill="#000000" font-family="sans-serif" font-size="11.7" lengthAdjust="spacing" textLength="25.2" x="656.55" y="405.0785">dock</text><text fill="#000000" font-family="sans-serif" font-size="11.7" lengthAdjust="spacing" textLength="18" x="307.9097" y="375.3091">0..*</text><text fill="#000000" font-family="sans-serif" font-size="11.7" lengthAdjust="spacing" textLength="6.3" x="1048.5684" y="463.2346">1</text><!--MD5=[5541ef512584d1243c10a7f3b3317e1c]
link Ship to ShipLocation--><path codeLine="104" d="M300.663,295.8139 C386.775,266.2309 539.748,213.6709 616.212,187.3999 " fill="none" id="Ship-ShipLocation" style="stroke:#A80036;stroke-width:0.9;"/><polygon fill="#000000" points="452.4558,217.9289,443.8975,218.0726,445.6164,223.0756,452.4558,217.9289" style="stroke:#000000;stroke-width:0.9;"/><text fill="#000000" font-family="sans-serif" font-size="11.7" lengthAdjust="spacing" textLength="18.9" x="456.3" y="224.1785">has</text><text fill="#000000" font-family="sans-serif" font-size="11.7" lengthAdjust="spacing" textLength="6.3" x="307.9543" y="306.418">1</text><text fill="#000000" font-family="sans-serif" font-size="11.7" lengthAdjust="spacing" textLength="18" x="591.3763" y="202.3932">1..*</text><!--MD5=[c324832c0212842eac80843bc02aaded]
link Ship to VesselType--><path codeLine="105" d="M300.771,317.3329 C337.77,317.3329 383.625,317.3329 416.421,317.3329 " fill="none" id="Ship-VesselType" style="stroke:#A80036;stroke-width:0.9;"/><polygon fill="#000000" points="350.1,309.3911,341.9594,306.7461,341.9594,312.0362,350.1,309.3911" style="stroke:#000000;stroke-width:0.9;"/><text fill="#000000" font-family="sans-serif" font-size="11.7" lengthAdjust="spacing" textLength="21.6" x="353.7" y="314.1785">is of</text><text fill="#000000" font-family="sans-serif" font-size="11.7" lengthAdjust="spacing" textLength="4.5" x="307.9756" y="330.2906">*</text><text fill="#000000" font-family="sans-serif" font-size="11.7" lengthAdjust="spacing" textLength="6.3" x="403.2724" y="330.5366">1</text><!--MD5=[9c226fb16923f449f2aeb2d55d4b05b5]
link Employee to ShipLocation--><path codeLine="107" d="M276.453,135.5149 C354.699,142.8139 532.26,159.3829 616.455,167.2399 " fill="none" id="Employee-ShipLocation" style="stroke:#A80036;stroke-width:0.9;"/><polygon fill="#000000" points="441.4305,141.5092,433.5709,138.1193,433.0794,143.3865,441.4305,141.5092" style="stroke:#000000;stroke-width:0.9;"/><text fill="#000000" font-family="sans-serif" font-size="11.7" lengthAdjust="spacing" textLength="41.4" x="445.05" y="145.8785">controls</text><text fill="#000000" font-family="sans-serif" font-size="11.7" lengthAdjust="spacing" textLength="6.3" x="283.4843" y="149.4847">1</text><text fill="#000000" font-family="sans-serif" font-size="11.7" lengthAdjust="spacing" textLength="18" x="591.2999" y="179.7963">1..*</text><!--MD5=[22fb9506fac029fc1d2ae00f0eb8d606]
link Employee to User--><path codeLine="108" d="M276.534,120.4849 C321.417,107.1379 394.38,85.4479 433.035,73.9459 " fill="none" id="Employee-User" style="stroke:#A80036;stroke-width:0.9;"/><polygon fill="#000000" points="336.4133,77.7085,327.8565,77.4935,329.3644,82.5641,336.4133,77.7085" style="stroke:#000000;stroke-width:0.9;"/><text fill="#000000" font-family="sans-serif" font-size="11.7" lengthAdjust="spacing" textLength="48.6" x="340.2" y="83.7785">relates to</text><text fill="#000000" font-family="sans-serif" font-size="11.7" lengthAdjust="spacing" textLength="6.3" x="283.5787" y="131.9654">1</text><text fill="#000000" font-family="sans-serif" font-size="11.7" lengthAdjust="spacing" textLength="6.3" x="419.794" y="89.5768">1</text><!--MD5=[8cef3b8bb432fdc493768abc58cade76]
link Truck to Containers--><path codeLine="110" d="M487.989,563.9329 C521.631,563.9329 579.321,563.9329 619.083,563.9329 " fill="none" id="Truck-Containers" style="stroke:#A80036;stroke-width:0.9;"/><polygon fill="#000000" points="539.1,555.9911,530.9594,553.3461,530.9594,558.6362,539.1,555.9911" style="stroke:#000000;stroke-width:0.9;"/><text fill="#000000" font-family="sans-serif" font-size="11.7" lengthAdjust="spacing" textLength="45.9" x="542.7" y="560.7785">transport</text><text fill="#000000" font-family="sans-serif" font-size="11.7" lengthAdjust="spacing" textLength="6.3" x="494.8225" y="577.6881">1</text><text fill="#000000" font-family="sans-serif" font-size="11.7" lengthAdjust="spacing" textLength="18" x="593.932" y="577.0654">1..*</text><!--MD5=[668bfb6c3cf503ab645d5414a0ff2b4e]
link Truck to Warehouse--><path codeLine="111" d="M478.845,582.3109 C505.899,608.4019 559.863,654.9859 616.5,672.8329 C715.014,703.8649 913.491,659.0719 1026,624.2329 C1034.928,621.4699 1044.153,617.7259 1052.847,613.7479 " fill="none" id="Truck-Warehouse" style="stroke:#A80036;stroke-width:0.9;"/><polygon fill="#000000" points="759.1433,667.8372,751.1595,664.751,750.8702,670.0331,759.1433,667.8372" style="stroke:#000000;stroke-width:0.9;"/><text fill="#000000" font-family="sans-serif" font-size="11.7" lengthAdjust="spacing" textLength="22.5" x="762.75" y="672.3785">park</text><text fill="#000000" font-family="sans-serif" font-size="11.7" lengthAdjust="spacing" textLength="18" x="463.5177" y="601.3731">0..*</text><text fill="#000000" font-family="sans-serif" font-size="11.7" lengthAdjust="spacing" textLength="6.3" x="1039.4262" y="630.5364">1</text><!--MD5=[4a0bbcdd6df460060db454e8e2c30a96]
link User to System--><path codeLine="113" d="M486.747,61.0219 C523.431,53.6509 590.436,40.1869 630.234,32.1949 " fill="none" id="User-System" style="stroke:#A80036;stroke-width:0.9;"/><polygon fill="#000000" points="549.3618,32.2048,540.8598,31.215,541.9017,36.4014,549.3618,32.2048" style="stroke:#000000;stroke-width:0.9;"/><text fill="#000000" font-family="sans-serif" font-size="11.7" lengthAdjust="spacing" textLength="25.2" x="553.05" y="37.8785">uses</text><text fill="#000000" font-family="sans-serif" font-size="11.7" lengthAdjust="spacing" textLength="18" x="493.5803" y="73.5768">1..*</text><text fill="#000000" font-family="sans-serif" font-size="11.7" lengthAdjust="spacing" textLength="6.3" x="617.0303" y="46.975">1</text><!--MD5=[591625470abc4a5f324d9b49d40e13b3]
link Warehouse to PlaceLocation--><path codeLine="115" d="M1139.481,582.9139 C1165.923,577.7929 1200.618,570.8269 1231.2,563.9329 C1239.912,561.9619 1249.155,559.7569 1258.074,557.5609 " fill="none" id="Warehouse-PlaceLocation" style="stroke:#A80036;stroke-width:0.9;"/><polygon fill="#000000" points="1175.3006,555.0504,1166.7869,554.1656,1167.8928,559.3388,1175.3006,555.0504" style="stroke:#000000;stroke-width:0.9;"/><text fill="#000000" font-family="sans-serif" font-size="11.7" lengthAdjust="spacing" textLength="51.3" x="1179" y="560.7785">located at</text><text fill="#000000" font-family="sans-serif" font-size="11.7" lengthAdjust="spacing" textLength="6.3" x="1146.5907" y="594.981">1</text><text fill="#000000" font-family="sans-serif" font-size="11.7" lengthAdjust="spacing" textLength="6.3" x="1244.6822" y="572.3986">1</text><!--MD5=[7c0095254880e920cebf74af06c4454f]
@startuml
'https://plantuml.com/class-diagram

hide methods
left to right direction
skinparam classAttributeIconSize 0

class Company {
-designation
}

class Employee {
-name
}

class Containers {
-x
-y
-z
-containerNumber
-checkDigit
-isoCode
-width
-height
-length
-payLoad
-tare
-gross
}

class CargoManifest {
-containerNumber
}

class Ship {
-mmsiCode
-name
-imoCode
-numberEnergyGenerators
-generatorPower
-callSign
-draft
}

class VesselType {
-vesselTypeId
-length
-width
-capacity
}

class Ports {
-identification
-name
}

class Truck {

}

class Warehouse {
-identification
-name
}

class Country {
-name
-continent
}

class PlaceLocation {
-latitude
-longitude
}

class ShipLocation {
-baseDateTime
-latitude
-longitude
-sog
-cog
-heading
-position
-transceiver
}

CargoManifest "*" - - "1..*" Ports : delivered at >
CargoManifest "*" - - "1..*" Warehouse : delivered at >

Company "1"- -"1..*" Ship: own >
Company "1" - - "1..*" System : has >
Company "1"- -"1..*" Employee: have >
Company "1"- -"1..*" Truck: own >

Containers "1..*"- -"1..*" CargoManifest: related to >
Containers "0..*"- -"1" Ports: store >
Containers "0..*"- -"1" Warehouse: store >

PlaceLocation "*" - - "1" Country : in a >

Ports "1" - - "1" PlaceLocation : located at >

Ship "1"- - -"1..*" Containers : transport >
Ship "0..*"- -"1" Ports: dock >
Ship "1" - - "1..*" ShipLocation : has >
Ship "*" - - "1" VesselType : is of >

Employee "1" - - - "1..*" ShipLocation : controls >
Employee "1" - - "1" User : relates to >

Truck "1"- -"1..*" Containers : transport >
Truck "0..*"- -"1" Warehouse: park >

User "1..*" - - "1" System : uses >

Warehouse "1" - - "1" PlaceLocation : located at >





@enduml

@startuml

hide methods
left to right direction
skinparam classAttributeIconSize 0

class Company {
-designation
}

class Employee {
-name
}

class Containers {
-x
-y
-z
-containerNumber
-checkDigit
-isoCode
-width
-height
-length
-payLoad
-tare
-gross
}

class CargoManifest {
-containerNumber
}

class Ship {
-mmsiCode
-name
-imoCode
-numberEnergyGenerators
-generatorPower
-callSign
-draft
}

class VesselType {
-vesselTypeId
-length
-width
-capacity
}

class Ports {
-identification
-name
}

class Truck {

}

class Warehouse {
-identification
-name
}

class Country {
-name
-continent
}

class PlaceLocation {
-latitude
-longitude
}

class ShipLocation {
-baseDateTime
-latitude
-longitude
-sog
-cog
-heading
-position
-transceiver
}

CargoManifest "*" - - "1..*" Ports : delivered at >
CargoManifest "*" - - "1..*" Warehouse : delivered at >

Company "1"- -"1..*" Ship: own >
Company "1" - - "1..*" System : has >
Company "1"- -"1..*" Employee: have >
Company "1"- -"1..*" Truck: own >

Containers "1..*"- -"1..*" CargoManifest: related to >
Containers "0..*"- -"1" Ports: store >
Containers "0..*"- -"1" Warehouse: store >

PlaceLocation "*" - - "1" Country : in a >

Ports "1" - - "1" PlaceLocation : located at >

Ship "1"- - -"1..*" Containers : transport >
Ship "0..*"- -"1" Ports: dock >
Ship "1" - - "1..*" ShipLocation : has >
Ship "*" - - "1" VesselType : is of >

Employee "1" - - - "1..*" ShipLocation : controls >
Employee "1" - - "1" User : relates to >

Truck "1"- -"1..*" Containers : transport >
Truck "0..*"- -"1" Warehouse: park >

User "1..*" - - "1" System : uses >

Warehouse "1" - - "1" PlaceLocation : located at >





@enduml

PlantUML version 1.2021.5(Sun Apr 25 12:20:28 BST 2021)
(GPL source distribution)
Java Runtime: OpenJDK Runtime Environment
JVM: Dynamic Code Evolution 64-Bit Server VM
Default Encoding: Cp1252
Language: pt
Country: PT
--></g></svg>