<?xml version="1.0" encoding="UTF-8" standalone="no"?><svg xmlns="http://www.w3.org/2000/svg" xmlns:xlink="http://www.w3.org/1999/xlink" contentScriptType="application/ecmascript" contentStyleType="text/css" height="1423.5px" preserveAspectRatio="none" style="width:2545px;height:1423px;" version="1.1" viewBox="0 0 2545 1423" width="2545.5px" zoomAndPan="magnify"><defs><filter height="300%" id="fwqxdkk13nfz3" width="300%" x="-1" y="-1"><feGaussianBlur result="blurOut" stdDeviation="3.0"/><feColorMatrix in="blurOut" result="blurOut2" type="matrix" values="0 0 0 0 0 0 0 0 0 0 0 0 0 0 0 0 0 0 .4 0"/><feOffset dx="6.0" dy="6.0" in="blurOut2" result="blurOut3"/><feBlend in="SourceGraphic" in2="blurOut3" mode="normal"/></filter></defs><g><!--MD5=[02e4b9b7573f1156f41e60aa5b4e25a4]
class Company--><rect codeLine="7" fill="#FEFECE" filter="url(#fwqxdkk13nfz3)" height="80.7539" id="Company" style="stroke:#A80036;stroke-width:2.25;" width="127.5" x="10.5" y="412.62"/><ellipse cx="33" cy="436.62" fill="#ADD1B2" rx="16.5" ry="16.5" style="stroke:#A80036;stroke-width:1.5;"/><path d="M36,431.37 Q36.3047,430.62 36.6563,430.245 Q37.0078,429.87 37.4063,429.87 Q38.1094,429.87 38.5547,430.2919 Q39,430.7137 39,431.6981 L39,434.0419 Q39,435.0262 38.5781,435.4481 Q38.1563,435.87 37.5,435.87 Q36.9141,435.87 36.5391,435.6122 Q36.1641,435.3544 36,434.6747 Q35.9297,434.2059 35.6719,433.9481 Q35.2031,433.4559 34.3594,433.1747 Q33.5156,432.87 32.6719,432.87 Q31.6172,432.87 30.7266,433.2919 Q29.8594,433.7137 29.1797,434.6512 Q28.5,435.5887 28.5,436.8778 L28.5,438.2606 Q28.5,439.8075 29.7656,440.8387 Q31.0313,441.87 33.2813,441.87 Q34.6172,441.87 35.5547,441.5653 Q36.0938,441.4012 36.7031,440.8622 Q37.1016,440.5575 37.3125,440.4637 Q37.5234,440.37 37.7813,440.37 Q38.2734,440.37 38.625,440.7684 Q39,441.1434 39,441.6825 Q39,442.1981 38.4844,442.8075 Q37.7344,443.6981 36.5391,444.1903 Q34.9688,444.87 33.0469,444.87 Q30.7969,444.87 28.9922,443.9794 Q27.5391,443.2762 26.5078,441.7528 Q25.5,440.2294 25.5,438.4247 L25.5,436.7841 Q25.5,434.9091 26.3906,433.2684 Q27.3047,431.6278 28.875,430.7606 Q30.4688,429.87 32.25,429.87 Q33.3281,429.87 34.2656,430.245 Q35.2031,430.62 36,431.37 Z " fill="#000000"/><text fill="#000000" font-family="sans-serif" font-size="18" lengthAdjust="spacing" textLength="79.5" x="54" y="443.9852">Company</text><line style="stroke:#A80036;stroke-width:2.25;" x1="12" x2="136.5" y1="460.62" y2="460.62"/><text fill="#000000" font-family="sans-serif" font-size="16.5" lengthAdjust="spacing" textLength="88.5" x="19.5" y="483.7484">-designation</text><!--MD5=[7421f545a0d8420c5bec41e74b387d9c]
class Employee--><rect codeLine="11" fill="#FEFECE" filter="url(#fwqxdkk13nfz3)" height="80.7539" id="Employee" style="stroke:#A80036;stroke-width:2.25;" width="130.5" x="330" y="412.62"/><ellipse cx="352.5" cy="436.62" fill="#ADD1B2" rx="16.5" ry="16.5" style="stroke:#A80036;stroke-width:1.5;"/><path d="M355.5,431.37 Q355.8047,430.62 356.1563,430.245 Q356.5078,429.87 356.9063,429.87 Q357.6094,429.87 358.0547,430.2919 Q358.5,430.7137 358.5,431.6981 L358.5,434.0419 Q358.5,435.0262 358.0781,435.4481 Q357.6563,435.87 357,435.87 Q356.4141,435.87 356.0391,435.6122 Q355.6641,435.3544 355.5,434.6747 Q355.4297,434.2059 355.1719,433.9481 Q354.7031,433.4559 353.8594,433.1747 Q353.0156,432.87 352.1719,432.87 Q351.1172,432.87 350.2266,433.2919 Q349.3594,433.7137 348.6797,434.6512 Q348,435.5887 348,436.8778 L348,438.2606 Q348,439.8075 349.2656,440.8387 Q350.5313,441.87 352.7813,441.87 Q354.1172,441.87 355.0547,441.5653 Q355.5938,441.4012 356.2031,440.8622 Q356.6016,440.5575 356.8125,440.4637 Q357.0234,440.37 357.2813,440.37 Q357.7734,440.37 358.125,440.7684 Q358.5,441.1434 358.5,441.6825 Q358.5,442.1981 357.9844,442.8075 Q357.2344,443.6981 356.0391,444.1903 Q354.4688,444.87 352.5469,444.87 Q350.2969,444.87 348.4922,443.9794 Q347.0391,443.2762 346.0078,441.7528 Q345,440.2294 345,438.4247 L345,436.7841 Q345,434.9091 345.8906,433.2684 Q346.8047,431.6278 348.375,430.7606 Q349.9688,429.87 351.75,429.87 Q352.8281,429.87 353.7656,430.245 Q354.7031,430.62 355.5,431.37 Z " fill="#000000"/><text fill="#000000" font-family="sans-serif" font-size="18" lengthAdjust="spacing" textLength="82.5" x="373.5" y="443.9852">Employee</text><line style="stroke:#A80036;stroke-width:2.25;" x1="331.5" x2="459" y1="460.62" y2="460.62"/><text fill="#000000" font-family="sans-serif" font-size="16.5" lengthAdjust="spacing" textLength="45" x="339" y="483.7484">-name</text><!--MD5=[a3093aa9f96b7df9aab31d8715601ff6]
class Containers--><rect codeLine="15" fill="#FEFECE" filter="url(#fwqxdkk13nfz3)" height="267.5391" id="Containers" style="stroke:#A80036;stroke-width:2.25;" width="147" x="987" y="1011.12"/><ellipse cx="1012.875" cy="1035.12" fill="#ADD1B2" rx="16.5" ry="16.5" style="stroke:#A80036;stroke-width:1.5;"/><path d="M1015.875,1029.87 Q1016.1797,1029.12 1016.5313,1028.745 Q1016.8828,1028.37 1017.2813,1028.37 Q1017.9844,1028.37 1018.4297,1028.7919 Q1018.875,1029.2138 1018.875,1030.1981 L1018.875,1032.5419 Q1018.875,1033.5263 1018.4531,1033.9481 Q1018.0313,1034.37 1017.375,1034.37 Q1016.7891,1034.37 1016.4141,1034.1122 Q1016.0391,1033.8544 1015.875,1033.1747 Q1015.8047,1032.7059 1015.5469,1032.4481 Q1015.0781,1031.9559 1014.2344,1031.6747 Q1013.3906,1031.37 1012.5469,1031.37 Q1011.4922,1031.37 1010.6016,1031.7919 Q1009.7344,1032.2138 1009.0547,1033.1513 Q1008.375,1034.0888 1008.375,1035.3778 L1008.375,1036.7606 Q1008.375,1038.3075 1009.6406,1039.3388 Q1010.9063,1040.37 1013.1563,1040.37 Q1014.4922,1040.37 1015.4297,1040.0653 Q1015.9688,1039.9013 1016.5781,1039.3622 Q1016.9766,1039.0575 1017.1875,1038.9638 Q1017.3984,1038.87 1017.6563,1038.87 Q1018.1484,1038.87 1018.5,1039.2684 Q1018.875,1039.6434 1018.875,1040.1825 Q1018.875,1040.6981 1018.3594,1041.3075 Q1017.6094,1042.1981 1016.4141,1042.6903 Q1014.8438,1043.37 1012.9219,1043.37 Q1010.6719,1043.37 1008.8672,1042.4794 Q1007.4141,1041.7763 1006.3828,1040.2528 Q1005.375,1038.7294 1005.375,1036.9247 L1005.375,1035.2841 Q1005.375,1033.4091 1006.2656,1031.7684 Q1007.1797,1030.1278 1008.75,1029.2606 Q1010.3438,1028.37 1012.125,1028.37 Q1013.2031,1028.37 1014.1406,1028.745 Q1015.0781,1029.12 1015.875,1029.87 Z " fill="#000000"/><text fill="#000000" font-family="sans-serif" font-size="18" lengthAdjust="spacing" textLength="91.5" x="1034.625" y="1042.4852">Containers</text><line style="stroke:#A80036;stroke-width:2.25;" x1="988.5" x2="1132.5" y1="1059.12" y2="1059.12"/><text fill="#000000" font-family="sans-serif" font-size="16.5" lengthAdjust="spacing" textLength="15" x="996" y="1082.2484">-x</text><text fill="#000000" font-family="sans-serif" font-size="16.5" lengthAdjust="spacing" textLength="15" x="996" y="1103.0023">-y</text><text fill="#000000" font-family="sans-serif" font-size="16.5" lengthAdjust="spacing" textLength="15" x="996" y="1123.7562">-z</text><text fill="#000000" font-family="sans-serif" font-size="16.5" lengthAdjust="spacing" textLength="129" x="996" y="1144.5101">-containerNumber</text><text fill="#000000" font-family="sans-serif" font-size="16.5" lengthAdjust="spacing" textLength="79.5" x="996" y="1165.264">-checkDigit</text><text fill="#000000" font-family="sans-serif" font-size="16.5" lengthAdjust="spacing" textLength="64.5" x="996" y="1186.0179">-isoCode</text><text fill="#000000" font-family="sans-serif" font-size="16.5" lengthAdjust="spacing" textLength="69" x="996" y="1206.7719">-payLoad</text><text fill="#000000" font-family="sans-serif" font-size="16.5" lengthAdjust="spacing" textLength="34.5" x="996" y="1227.5258">-tare</text><text fill="#000000" font-family="sans-serif" font-size="16.5" lengthAdjust="spacing" textLength="48" x="996" y="1248.2797">-gross</text><text fill="#000000" font-family="sans-serif" font-size="16.5" lengthAdjust="spacing" textLength="55.5" x="996" y="1269.0336">-weight</text><!--MD5=[76562047389981627aea27c31a97aff5]
class CargoManifest--><rect codeLine="28" fill="#FEFECE" filter="url(#fwqxdkk13nfz3)" height="205.2773" id="CargoManifest" style="stroke:#A80036;stroke-width:2.25;" width="174" x="1332" y="1050.87"/><ellipse cx="1357.2" cy="1074.87" fill="#ADD1B2" rx="16.5" ry="16.5" style="stroke:#A80036;stroke-width:1.5;"/><path d="M1360.2,1069.62 Q1360.5047,1068.87 1360.8562,1068.495 Q1361.2078,1068.12 1361.6062,1068.12 Q1362.3094,1068.12 1362.7547,1068.5419 Q1363.2,1068.9638 1363.2,1069.9481 L1363.2,1072.2919 Q1363.2,1073.2763 1362.7781,1073.6981 Q1362.3562,1074.12 1361.7,1074.12 Q1361.1141,1074.12 1360.7391,1073.8622 Q1360.3641,1073.6044 1360.2,1072.9247 Q1360.1297,1072.4559 1359.8719,1072.1981 Q1359.4031,1071.7059 1358.5594,1071.4247 Q1357.7156,1071.12 1356.8719,1071.12 Q1355.8172,1071.12 1354.9266,1071.5419 Q1354.0594,1071.9638 1353.3797,1072.9013 Q1352.7,1073.8388 1352.7,1075.1278 L1352.7,1076.5106 Q1352.7,1078.0575 1353.9656,1079.0888 Q1355.2312,1080.12 1357.4812,1080.12 Q1358.8172,1080.12 1359.7547,1079.8153 Q1360.2937,1079.6513 1360.9031,1079.1122 Q1361.3016,1078.8075 1361.5125,1078.7138 Q1361.7234,1078.62 1361.9812,1078.62 Q1362.4734,1078.62 1362.825,1079.0184 Q1363.2,1079.3934 1363.2,1079.9325 Q1363.2,1080.4481 1362.6844,1081.0575 Q1361.9344,1081.9481 1360.7391,1082.4403 Q1359.1687,1083.12 1357.2469,1083.12 Q1354.9969,1083.12 1353.1922,1082.2294 Q1351.7391,1081.5263 1350.7078,1080.0028 Q1349.7,1078.4794 1349.7,1076.6747 L1349.7,1075.0341 Q1349.7,1073.1591 1350.5906,1071.5184 Q1351.5047,1069.8778 1353.075,1069.0106 Q1354.6687,1068.12 1356.45,1068.12 Q1357.5281,1068.12 1358.4656,1068.495 Q1359.4031,1068.87 1360.2,1069.62 Z " fill="#000000"/><text fill="#000000" font-family="sans-serif" font-size="18" lengthAdjust="spacing" textLength="120" x="1378.8" y="1082.2352">CargoManifest</text><line style="stroke:#A80036;stroke-width:2.25;" x1="1333.5" x2="1504.5" y1="1098.87" y2="1098.87"/><text fill="#000000" font-family="sans-serif" font-size="16.5" lengthAdjust="spacing" textLength="121.5" x="1341" y="1121.9984">-listOfContainers</text><text fill="#000000" font-family="sans-serif" font-size="16.5" lengthAdjust="spacing" textLength="37.5" x="1341" y="1142.7523">-ratio</text><text fill="#000000" font-family="sans-serif" font-size="16.5" lengthAdjust="spacing" textLength="37.5" x="1341" y="1163.5062">-date</text><text fill="#000000" font-family="sans-serif" font-size="16.5" lengthAdjust="spacing" textLength="79.5" x="1341" y="1184.2601">-mmsiCode</text><text fill="#000000" font-family="sans-serif" font-size="16.5" lengthAdjust="spacing" textLength="18" x="1341" y="1205.014">-id</text><text fill="#000000" font-family="sans-serif" font-size="16.5" lengthAdjust="spacing" textLength="156" x="1341" y="1225.7679">-numberOfContainers</text><text fill="#000000" font-family="sans-serif" font-size="16.5" lengthAdjust="spacing" textLength="84" x="1341" y="1246.5219">-destination</text><!--MD5=[0dc7f2ddb409b58bcf52b12238c25399]
class Ship--><rect codeLine="38" fill="#FEFECE" filter="url(#fwqxdkk13nfz3)" height="288.293" id="Ship" style="stroke:#A80036;stroke-width:2.25;" width="211.5" x="289.5" y="645.12"/><ellipse cx="370.125" cy="669.12" fill="#ADD1B2" rx="16.5" ry="16.5" style="stroke:#A80036;stroke-width:1.5;"/><path d="M373.125,663.87 Q373.4297,663.12 373.7813,662.745 Q374.1328,662.37 374.5313,662.37 Q375.2344,662.37 375.6797,662.7919 Q376.125,663.2137 376.125,664.1981 L376.125,666.5419 Q376.125,667.5262 375.7031,667.9481 Q375.2813,668.37 374.625,668.37 Q374.0391,668.37 373.6641,668.1122 Q373.2891,667.8544 373.125,667.1747 Q373.0547,666.7059 372.7969,666.4481 Q372.3281,665.9559 371.4844,665.6747 Q370.6406,665.37 369.7969,665.37 Q368.7422,665.37 367.8516,665.7919 Q366.9844,666.2137 366.3047,667.1512 Q365.625,668.0887 365.625,669.3778 L365.625,670.7606 Q365.625,672.3075 366.8906,673.3387 Q368.1563,674.37 370.4063,674.37 Q371.7422,674.37 372.6797,674.0653 Q373.2188,673.9012 373.8281,673.3622 Q374.2266,673.0575 374.4375,672.9637 Q374.6484,672.87 374.9063,672.87 Q375.3984,672.87 375.75,673.2684 Q376.125,673.6434 376.125,674.1825 Q376.125,674.6981 375.6094,675.3075 Q374.8594,676.1981 373.6641,676.6903 Q372.0938,677.37 370.1719,677.37 Q367.9219,677.37 366.1172,676.4794 Q364.6641,675.7762 363.6328,674.2528 Q362.625,672.7294 362.625,670.9247 L362.625,669.2841 Q362.625,667.4091 363.5156,665.7684 Q364.4297,664.1278 366,663.2606 Q367.5938,662.37 369.375,662.37 Q370.4531,662.37 371.3906,662.745 Q372.3281,663.12 373.125,663.87 Z " fill="#000000"/><text fill="#000000" font-family="sans-serif" font-size="18" lengthAdjust="spacing" textLength="37.5" x="400.875" y="676.4852">Ship</text><line style="stroke:#A80036;stroke-width:2.25;" x1="291" x2="499.5" y1="693.12" y2="693.12"/><text fill="#000000" font-family="sans-serif" font-size="16.5" lengthAdjust="spacing" textLength="79.5" x="298.5" y="716.2484">-mmsiCode</text><text fill="#000000" font-family="sans-serif" font-size="16.5" lengthAdjust="spacing" textLength="67.5" x="298.5" y="737.0023">-imoCode</text><text fill="#000000" font-family="sans-serif" font-size="16.5" lengthAdjust="spacing" textLength="193.5" x="298.5" y="757.7562">-numberEnergyGenerators</text><text fill="#000000" font-family="sans-serif" font-size="16.5" lengthAdjust="spacing" textLength="124.5" x="298.5" y="778.5101">-generatorPower</text><text fill="#000000" font-family="sans-serif" font-size="16.5" lengthAdjust="spacing" textLength="61.5" x="298.5" y="799.264">-callSign</text><text fill="#000000" font-family="sans-serif" font-size="16.5" lengthAdjust="spacing" textLength="40.5" x="298.5" y="820.0179">-draft</text><text fill="#000000" font-family="sans-serif" font-size="16.5" lengthAdjust="spacing" textLength="45" x="298.5" y="840.7719">-name</text><text fill="#000000" font-family="sans-serif" font-size="16.5" lengthAdjust="spacing" textLength="102" x="298.5" y="861.5258">-vesselTypeId</text><text fill="#000000" font-family="sans-serif" font-size="16.5" lengthAdjust="spacing" textLength="49.5" x="298.5" y="882.2797">-length</text><text fill="#000000" font-family="sans-serif" font-size="16.5" lengthAdjust="spacing" textLength="46.5" x="298.5" y="903.0336">-width</text><text fill="#000000" font-family="sans-serif" font-size="16.5" lengthAdjust="spacing" textLength="67.5" x="298.5" y="923.7875">-capacity</text><!--MD5=[ea13aecf8df941b18fb8e3885c78c184]
class Ports--><rect codeLine="54" fill="#FEFECE" filter="url(#fwqxdkk13nfz3)" height="101.5078" id="Ports" style="stroke:#A80036;stroke-width:2.25;" width="114" x="1731" y="841.62"/><ellipse cx="1763.625" cy="865.62" fill="#ADD1B2" rx="16.5" ry="16.5" style="stroke:#A80036;stroke-width:1.5;"/><path d="M1766.625,860.37 Q1766.9297,859.62 1767.2813,859.245 Q1767.6328,858.87 1768.0313,858.87 Q1768.7344,858.87 1769.1797,859.2919 Q1769.625,859.7137 1769.625,860.6981 L1769.625,863.0419 Q1769.625,864.0262 1769.2031,864.4481 Q1768.7813,864.87 1768.125,864.87 Q1767.5391,864.87 1767.1641,864.6122 Q1766.7891,864.3544 1766.625,863.6747 Q1766.5547,863.2059 1766.2969,862.9481 Q1765.8281,862.4559 1764.9844,862.1747 Q1764.1406,861.87 1763.2969,861.87 Q1762.2422,861.87 1761.3516,862.2919 Q1760.4844,862.7137 1759.8047,863.6512 Q1759.125,864.5887 1759.125,865.8778 L1759.125,867.2606 Q1759.125,868.8075 1760.3906,869.8387 Q1761.6563,870.87 1763.9063,870.87 Q1765.2422,870.87 1766.1797,870.5653 Q1766.7188,870.4012 1767.3281,869.8622 Q1767.7266,869.5575 1767.9375,869.4637 Q1768.1484,869.37 1768.4063,869.37 Q1768.8984,869.37 1769.25,869.7684 Q1769.625,870.1434 1769.625,870.6825 Q1769.625,871.1981 1769.1094,871.8075 Q1768.3594,872.6981 1767.1641,873.1903 Q1765.5938,873.87 1763.6719,873.87 Q1761.4219,873.87 1759.6172,872.9794 Q1758.1641,872.2762 1757.1328,870.7528 Q1756.125,869.2294 1756.125,867.4247 L1756.125,865.7841 Q1756.125,863.9091 1757.0156,862.2684 Q1757.9297,860.6278 1759.5,859.7606 Q1761.0938,858.87 1762.875,858.87 Q1763.9531,858.87 1764.8906,859.245 Q1765.8281,859.62 1766.625,860.37 Z " fill="#000000"/><text fill="#000000" font-family="sans-serif" font-size="18" lengthAdjust="spacing" textLength="43.5" x="1786.875" y="872.9852">Ports</text><line style="stroke:#A80036;stroke-width:2.25;" x1="1732.5" x2="1843.5" y1="889.62" y2="889.62"/><text fill="#000000" font-family="sans-serif" font-size="16.5" lengthAdjust="spacing" textLength="96" x="1740" y="912.7484">-identification</text><text fill="#000000" font-family="sans-serif" font-size="16.5" lengthAdjust="spacing" textLength="45" x="1740" y="933.5023">-name</text><!--MD5=[f2ba7f6ab60af8dd0d3e354f91729b14]
class Truck--><rect codeLine="59" fill="#FEFECE" filter="url(#fwqxdkk13nfz3)" height="60" id="Truck" style="stroke:#A80036;stroke-width:2.25;" width="93" x="697.5" y="1114.62"/><ellipse cx="720" cy="1138.62" fill="#ADD1B2" rx="16.5" ry="16.5" style="stroke:#A80036;stroke-width:1.5;"/><path d="M723,1133.37 Q723.3047,1132.62 723.6563,1132.245 Q724.0078,1131.87 724.4063,1131.87 Q725.1094,1131.87 725.5547,1132.2919 Q726,1132.7138 726,1133.6981 L726,1136.0419 Q726,1137.0263 725.5781,1137.4481 Q725.1563,1137.87 724.5,1137.87 Q723.9141,1137.87 723.5391,1137.6122 Q723.1641,1137.3544 723,1136.6747 Q722.9297,1136.2059 722.6719,1135.9481 Q722.2031,1135.4559 721.3594,1135.1747 Q720.5156,1134.87 719.6719,1134.87 Q718.6172,1134.87 717.7266,1135.2919 Q716.8594,1135.7138 716.1797,1136.6513 Q715.5,1137.5888 715.5,1138.8778 L715.5,1140.2606 Q715.5,1141.8075 716.7656,1142.8388 Q718.0313,1143.87 720.2813,1143.87 Q721.6172,1143.87 722.5547,1143.5653 Q723.0938,1143.4013 723.7031,1142.8622 Q724.1016,1142.5575 724.3125,1142.4638 Q724.5234,1142.37 724.7813,1142.37 Q725.2734,1142.37 725.625,1142.7684 Q726,1143.1434 726,1143.6825 Q726,1144.1981 725.4844,1144.8075 Q724.7344,1145.6981 723.5391,1146.1903 Q721.9688,1146.87 720.0469,1146.87 Q717.7969,1146.87 715.9922,1145.9794 Q714.5391,1145.2763 713.5078,1143.7528 Q712.5,1142.2294 712.5,1140.4247 L712.5,1138.7841 Q712.5,1136.9091 713.3906,1135.2684 Q714.3047,1133.6278 715.875,1132.7606 Q717.4688,1131.87 719.25,1131.87 Q720.3281,1131.87 721.2656,1132.245 Q722.2031,1132.62 723,1133.37 Z " fill="#000000"/><text fill="#000000" font-family="sans-serif" font-size="18" lengthAdjust="spacing" textLength="45" x="741" y="1145.9852">Truck</text><line style="stroke:#A80036;stroke-width:2.25;" x1="699" x2="789" y1="1162.62" y2="1162.62"/><!--MD5=[c5149b4909ffd2688ff51a939867f774]
class Warehouse--><rect codeLine="63" fill="#FEFECE" filter="url(#fwqxdkk13nfz3)" height="101.5078" id="Warehouse" style="stroke:#A80036;stroke-width:2.25;" width="144" x="1716" y="1218.12"/><ellipse cx="1738.5" cy="1242.12" fill="#ADD1B2" rx="16.5" ry="16.5" style="stroke:#A80036;stroke-width:1.5;"/><path d="M1741.5,1236.87 Q1741.8047,1236.12 1742.1563,1235.745 Q1742.5078,1235.37 1742.9063,1235.37 Q1743.6094,1235.37 1744.0547,1235.7919 Q1744.5,1236.2138 1744.5,1237.1981 L1744.5,1239.5419 Q1744.5,1240.5263 1744.0781,1240.9481 Q1743.6563,1241.37 1743,1241.37 Q1742.4141,1241.37 1742.0391,1241.1122 Q1741.6641,1240.8544 1741.5,1240.1747 Q1741.4297,1239.7059 1741.1719,1239.4481 Q1740.7031,1238.9559 1739.8594,1238.6747 Q1739.0156,1238.37 1738.1719,1238.37 Q1737.1172,1238.37 1736.2266,1238.7919 Q1735.3594,1239.2138 1734.6797,1240.1513 Q1734,1241.0888 1734,1242.3778 L1734,1243.7606 Q1734,1245.3075 1735.2656,1246.3388 Q1736.5313,1247.37 1738.7813,1247.37 Q1740.1172,1247.37 1741.0547,1247.0653 Q1741.5938,1246.9013 1742.2031,1246.3622 Q1742.6016,1246.0575 1742.8125,1245.9638 Q1743.0234,1245.87 1743.2813,1245.87 Q1743.7734,1245.87 1744.125,1246.2684 Q1744.5,1246.6434 1744.5,1247.1825 Q1744.5,1247.6981 1743.9844,1248.3075 Q1743.2344,1249.1981 1742.0391,1249.6903 Q1740.4688,1250.37 1738.5469,1250.37 Q1736.2969,1250.37 1734.4922,1249.4794 Q1733.0391,1248.7763 1732.0078,1247.2528 Q1731,1245.7294 1731,1243.9247 L1731,1242.2841 Q1731,1240.4091 1731.8906,1238.7684 Q1732.8047,1237.1278 1734.375,1236.2606 Q1735.9688,1235.37 1737.75,1235.37 Q1738.8281,1235.37 1739.7656,1235.745 Q1740.7031,1236.12 1741.5,1236.87 Z " fill="#000000"/><text fill="#000000" font-family="sans-serif" font-size="18" lengthAdjust="spacing" textLength="96" x="1759.5" y="1249.4852">Warehouse</text><line style="stroke:#A80036;stroke-width:2.25;" x1="1717.5" x2="1858.5" y1="1266.12" y2="1266.12"/><text fill="#000000" font-family="sans-serif" font-size="16.5" lengthAdjust="spacing" textLength="96" x="1725" y="1289.2484">-identification</text><text fill="#000000" font-family="sans-serif" font-size="16.5" lengthAdjust="spacing" textLength="45" x="1725" y="1310.0023">-name</text><!--MD5=[deb4e1f6eb1e3c1256fdb830f96abfbb]
class Country--><rect codeLine="68" fill="#FEFECE" filter="url(#fwqxdkk13nfz3)" height="101.5078" id="Country" style="stroke:#A80036;stroke-width:2.25;" width="111" x="2413.5" y="1114.62"/><ellipse cx="2436" cy="1138.62" fill="#ADD1B2" rx="16.5" ry="16.5" style="stroke:#A80036;stroke-width:1.5;"/><path d="M2439,1133.37 Q2439.3047,1132.62 2439.6563,1132.245 Q2440.0078,1131.87 2440.4063,1131.87 Q2441.1094,1131.87 2441.5547,1132.2919 Q2442,1132.7138 2442,1133.6981 L2442,1136.0419 Q2442,1137.0263 2441.5781,1137.4481 Q2441.1563,1137.87 2440.5,1137.87 Q2439.9141,1137.87 2439.5391,1137.6122 Q2439.1641,1137.3544 2439,1136.6747 Q2438.9297,1136.2059 2438.6719,1135.9481 Q2438.2031,1135.4559 2437.3594,1135.1747 Q2436.5156,1134.87 2435.6719,1134.87 Q2434.6172,1134.87 2433.7266,1135.2919 Q2432.8594,1135.7138 2432.1797,1136.6513 Q2431.5,1137.5888 2431.5,1138.8778 L2431.5,1140.2606 Q2431.5,1141.8075 2432.7656,1142.8388 Q2434.0313,1143.87 2436.2813,1143.87 Q2437.6172,1143.87 2438.5547,1143.5653 Q2439.0938,1143.4013 2439.7031,1142.8622 Q2440.1016,1142.5575 2440.3125,1142.4638 Q2440.5234,1142.37 2440.7813,1142.37 Q2441.2734,1142.37 2441.625,1142.7684 Q2442,1143.1434 2442,1143.6825 Q2442,1144.1981 2441.4844,1144.8075 Q2440.7344,1145.6981 2439.5391,1146.1903 Q2437.9688,1146.87 2436.0469,1146.87 Q2433.7969,1146.87 2431.9922,1145.9794 Q2430.5391,1145.2763 2429.5078,1143.7528 Q2428.5,1142.2294 2428.5,1140.4247 L2428.5,1138.7841 Q2428.5,1136.9091 2429.3906,1135.2684 Q2430.3047,1133.6278 2431.875,1132.7606 Q2433.4688,1131.87 2435.25,1131.87 Q2436.3281,1131.87 2437.2656,1132.245 Q2438.2031,1132.62 2439,1133.37 Z " fill="#000000"/><text fill="#000000" font-family="sans-serif" font-size="18" lengthAdjust="spacing" textLength="63" x="2457" y="1145.9852">Country</text><line style="stroke:#A80036;stroke-width:2.25;" x1="2415" x2="2523" y1="1162.62" y2="1162.62"/><text fill="#000000" font-family="sans-serif" font-size="16.5" lengthAdjust="spacing" textLength="45" x="2422.5" y="1185.7484">-name</text><text fill="#000000" font-family="sans-serif" font-size="16.5" lengthAdjust="spacing" textLength="72" x="2422.5" y="1206.5023">-continent</text><!--MD5=[9febfb2ff9adfe183e01ff702b9c1c02]
class PlaceLocation--><rect codeLine="73" fill="#FEFECE" filter="url(#fwqxdkk13nfz3)" height="101.5078" id="PlaceLocation" style="stroke:#A80036;stroke-width:2.25;" width="165" x="2058" y="1114.62"/><ellipse cx="2080.5" cy="1138.62" fill="#ADD1B2" rx="16.5" ry="16.5" style="stroke:#A80036;stroke-width:1.5;"/><path d="M2083.5,1133.37 Q2083.8047,1132.62 2084.1563,1132.245 Q2084.5078,1131.87 2084.9063,1131.87 Q2085.6094,1131.87 2086.0547,1132.2919 Q2086.5,1132.7138 2086.5,1133.6981 L2086.5,1136.0419 Q2086.5,1137.0263 2086.0781,1137.4481 Q2085.6563,1137.87 2085,1137.87 Q2084.4141,1137.87 2084.0391,1137.6122 Q2083.6641,1137.3544 2083.5,1136.6747 Q2083.4297,1136.2059 2083.1719,1135.9481 Q2082.7031,1135.4559 2081.8594,1135.1747 Q2081.0156,1134.87 2080.1719,1134.87 Q2079.1172,1134.87 2078.2266,1135.2919 Q2077.3594,1135.7138 2076.6797,1136.6513 Q2076,1137.5888 2076,1138.8778 L2076,1140.2606 Q2076,1141.8075 2077.2656,1142.8388 Q2078.5313,1143.87 2080.7813,1143.87 Q2082.1172,1143.87 2083.0547,1143.5653 Q2083.5938,1143.4013 2084.2031,1142.8622 Q2084.6016,1142.5575 2084.8125,1142.4638 Q2085.0234,1142.37 2085.2813,1142.37 Q2085.7734,1142.37 2086.125,1142.7684 Q2086.5,1143.1434 2086.5,1143.6825 Q2086.5,1144.1981 2085.9844,1144.8075 Q2085.2344,1145.6981 2084.0391,1146.1903 Q2082.4688,1146.87 2080.5469,1146.87 Q2078.2969,1146.87 2076.4922,1145.9794 Q2075.0391,1145.2763 2074.0078,1143.7528 Q2073,1142.2294 2073,1140.4247 L2073,1138.7841 Q2073,1136.9091 2073.8906,1135.2684 Q2074.8047,1133.6278 2076.375,1132.7606 Q2077.9688,1131.87 2079.75,1131.87 Q2080.8281,1131.87 2081.7656,1132.245 Q2082.7031,1132.62 2083.5,1133.37 Z " fill="#000000"/><text fill="#000000" font-family="sans-serif" font-size="18" lengthAdjust="spacing" textLength="117" x="2101.5" y="1145.9852">PlaceLocation</text><line style="stroke:#A80036;stroke-width:2.25;" x1="2059.5" x2="2221.5" y1="1162.62" y2="1162.62"/><text fill="#000000" font-family="sans-serif" font-size="16.5" lengthAdjust="spacing" textLength="57" x="2067" y="1185.7484">-latitude</text><text fill="#000000" font-family="sans-serif" font-size="16.5" lengthAdjust="spacing" textLength="70.5" x="2067" y="1206.5023">-longitude</text><!--MD5=[efa7c3600894dd6faaa8b816738c33b1]
class ShipLocation--><rect codeLine="78" fill="#FEFECE" filter="url(#fwqxdkk13nfz3)" height="226.0313" id="ShipLocation" style="stroke:#A80036;stroke-width:2.25;" width="156" x="982.5" y="558.87"/><ellipse cx="1005" cy="582.87" fill="#ADD1B2" rx="16.5" ry="16.5" style="stroke:#A80036;stroke-width:1.5;"/><path d="M1008,577.62 Q1008.3047,576.87 1008.6563,576.495 Q1009.0078,576.12 1009.4063,576.12 Q1010.1094,576.12 1010.5547,576.5419 Q1011,576.9637 1011,577.9481 L1011,580.2919 Q1011,581.2762 1010.5781,581.6981 Q1010.1563,582.12 1009.5,582.12 Q1008.9141,582.12 1008.5391,581.8622 Q1008.1641,581.6044 1008,580.9247 Q1007.9297,580.4559 1007.6719,580.1981 Q1007.2031,579.7059 1006.3594,579.4247 Q1005.5156,579.12 1004.6719,579.12 Q1003.6172,579.12 1002.7266,579.5419 Q1001.8594,579.9637 1001.1797,580.9012 Q1000.5,581.8387 1000.5,583.1278 L1000.5,584.5106 Q1000.5,586.0575 1001.7656,587.0887 Q1003.0313,588.12 1005.2813,588.12 Q1006.6172,588.12 1007.5547,587.8153 Q1008.0938,587.6512 1008.7031,587.1122 Q1009.1016,586.8075 1009.3125,586.7137 Q1009.5234,586.62 1009.7813,586.62 Q1010.2734,586.62 1010.625,587.0184 Q1011,587.3934 1011,587.9325 Q1011,588.4481 1010.4844,589.0575 Q1009.7344,589.9481 1008.5391,590.4403 Q1006.9688,591.12 1005.0469,591.12 Q1002.7969,591.12 1000.9922,590.2294 Q999.5391,589.5262 998.5078,588.0028 Q997.5,586.4794 997.5,584.6747 L997.5,583.0341 Q997.5,581.1591 998.3906,579.5184 Q999.3047,577.8778 1000.875,577.0106 Q1002.4688,576.12 1004.25,576.12 Q1005.3281,576.12 1006.2656,576.495 Q1007.2031,576.87 1008,577.62 Z " fill="#000000"/><text fill="#000000" font-family="sans-serif" font-size="18" lengthAdjust="spacing" textLength="108" x="1026" y="590.2352">ShipLocation</text><line style="stroke:#A80036;stroke-width:2.25;" x1="984" x2="1137" y1="606.87" y2="606.87"/><text fill="#000000" font-family="sans-serif" font-size="16.5" lengthAdjust="spacing" textLength="108" x="991.5" y="629.9984">-baseDateTime</text><text fill="#000000" font-family="sans-serif" font-size="16.5" lengthAdjust="spacing" textLength="57" x="991.5" y="650.7523">-latitude</text><text fill="#000000" font-family="sans-serif" font-size="16.5" lengthAdjust="spacing" textLength="70.5" x="991.5" y="671.5062">-longitude</text><text fill="#000000" font-family="sans-serif" font-size="16.5" lengthAdjust="spacing" textLength="33" x="991.5" y="692.2601">-sog</text><text fill="#000000" font-family="sans-serif" font-size="16.5" lengthAdjust="spacing" textLength="33" x="991.5" y="713.014">-cog</text><text fill="#000000" font-family="sans-serif" font-size="16.5" lengthAdjust="spacing" textLength="63" x="991.5" y="733.7679">-heading</text><text fill="#000000" font-family="sans-serif" font-size="16.5" lengthAdjust="spacing" textLength="61.5" x="991.5" y="754.5219">-position</text><text fill="#000000" font-family="sans-serif" font-size="16.5" lengthAdjust="spacing" textLength="88.5" x="991.5" y="775.2758">-transceiver</text><!--MD5=[f8e092794d52bf9a252466252ae7bd1c]
class System--><rect fill="#FEFECE" filter="url(#fwqxdkk13nfz3)" height="60" id="System" style="stroke:#A80036;stroke-width:2.25;" width="109.5" x="1005.75" y="313.62"/><ellipse cx="1028.25" cy="337.62" fill="#ADD1B2" rx="16.5" ry="16.5" style="stroke:#A80036;stroke-width:1.5;"/><path d="M1031.25,332.37 Q1031.5547,331.62 1031.9063,331.245 Q1032.2578,330.87 1032.6563,330.87 Q1033.3594,330.87 1033.8047,331.2919 Q1034.25,331.7137 1034.25,332.6981 L1034.25,335.0419 Q1034.25,336.0262 1033.8281,336.4481 Q1033.4063,336.87 1032.75,336.87 Q1032.1641,336.87 1031.7891,336.6122 Q1031.4141,336.3544 1031.25,335.6747 Q1031.1797,335.2059 1030.9219,334.9481 Q1030.4531,334.4559 1029.6094,334.1747 Q1028.7656,333.87 1027.9219,333.87 Q1026.8672,333.87 1025.9766,334.2919 Q1025.1094,334.7137 1024.4297,335.6512 Q1023.75,336.5887 1023.75,337.8778 L1023.75,339.2606 Q1023.75,340.8075 1025.0156,341.8387 Q1026.2813,342.87 1028.5313,342.87 Q1029.8672,342.87 1030.8047,342.5653 Q1031.3438,342.4012 1031.9531,341.8622 Q1032.3516,341.5575 1032.5625,341.4637 Q1032.7734,341.37 1033.0313,341.37 Q1033.5234,341.37 1033.875,341.7684 Q1034.25,342.1434 1034.25,342.6825 Q1034.25,343.1981 1033.7344,343.8075 Q1032.9844,344.6981 1031.7891,345.1903 Q1030.2188,345.87 1028.2969,345.87 Q1026.0469,345.87 1024.2422,344.9794 Q1022.7891,344.2762 1021.7578,342.7528 Q1020.75,341.2294 1020.75,339.4247 L1020.75,337.7841 Q1020.75,335.9091 1021.6406,334.2684 Q1022.5547,332.6278 1024.125,331.7606 Q1025.7188,330.87 1027.5,330.87 Q1028.5781,330.87 1029.5156,331.245 Q1030.4531,331.62 1031.25,332.37 Z " fill="#000000"/><text fill="#000000" font-family="sans-serif" font-size="18" lengthAdjust="spacing" textLength="61.5" x="1049.25" y="344.9852">System</text><line style="stroke:#A80036;stroke-width:2.25;" x1="1007.25" x2="1113.75" y1="361.62" y2="361.62"/><!--MD5=[3fd616f346a44cd59a91eb10b19e157c]
class User--><rect fill="#FEFECE" filter="url(#fwqxdkk13nfz3)" height="60" id="User" style="stroke:#A80036;stroke-width:2.25;" width="88.5" x="699.75" y="313.62"/><ellipse cx="722.25" cy="337.62" fill="#ADD1B2" rx="16.5" ry="16.5" style="stroke:#A80036;stroke-width:1.5;"/><path d="M725.25,332.37 Q725.5547,331.62 725.9063,331.245 Q726.2578,330.87 726.6563,330.87 Q727.3594,330.87 727.8047,331.2919 Q728.25,331.7137 728.25,332.6981 L728.25,335.0419 Q728.25,336.0262 727.8281,336.4481 Q727.4063,336.87 726.75,336.87 Q726.1641,336.87 725.7891,336.6122 Q725.4141,336.3544 725.25,335.6747 Q725.1797,335.2059 724.9219,334.9481 Q724.4531,334.4559 723.6094,334.1747 Q722.7656,333.87 721.9219,333.87 Q720.8672,333.87 719.9766,334.2919 Q719.1094,334.7137 718.4297,335.6512 Q717.75,336.5887 717.75,337.8778 L717.75,339.2606 Q717.75,340.8075 719.0156,341.8387 Q720.2813,342.87 722.5313,342.87 Q723.8672,342.87 724.8047,342.5653 Q725.3438,342.4012 725.9531,341.8622 Q726.3516,341.5575 726.5625,341.4637 Q726.7734,341.37 727.0313,341.37 Q727.5234,341.37 727.875,341.7684 Q728.25,342.1434 728.25,342.6825 Q728.25,343.1981 727.7344,343.8075 Q726.9844,344.6981 725.7891,345.1903 Q724.2188,345.87 722.2969,345.87 Q720.0469,345.87 718.2422,344.9794 Q716.7891,344.2762 715.7578,342.7528 Q714.75,341.2294 714.75,339.4247 L714.75,337.7841 Q714.75,335.9091 715.6406,334.2684 Q716.5547,332.6278 718.125,331.7606 Q719.7188,330.87 721.5,330.87 Q722.5781,330.87 723.5156,331.245 Q724.4531,331.62 725.25,332.37 Z " fill="#000000"/><text fill="#000000" font-family="sans-serif" font-size="18" lengthAdjust="spacing" textLength="40.5" x="743.25" y="344.9852">User</text><line style="stroke:#A80036;stroke-width:2.25;" x1="701.25" x2="786.75" y1="361.62" y2="361.62"/><!--MD5=[d729e47c8b99010fceb84b610067730f]
link CargoManifest to Ports--><path codeLine="89" d="M1506.57,1112.34 C1556.715,1086.465 1619.925,1050.585 1671,1011.12 C1696.695,991.275 1722.21,965.865 1742.7,943.665 " fill="none" id="CargoManifest-Ports" style="stroke:#A80036;stroke-width:1.5;"/><polygon fill="#000000" points="1564.6029,993.5242,1551.0002,997.8234,1556.1251,1004.9977,1564.6029,993.5242" style="stroke:#000000;stroke-width:1.5;"/><text fill="#000000" font-family="sans-serif" font-size="19.5" lengthAdjust="spacing" textLength="97.5" x="1572" y="1005.8627">delivered at</text><text fill="#000000" font-family="sans-serif" font-size="19.5" lengthAdjust="spacing" textLength="7.5" x="1518.2704" y="1128.8792">*</text><text fill="#000000" font-family="sans-serif" font-size="19.5" lengthAdjust="spacing" textLength="10.5" x="1723.1958" y="975.2284">1</text><!--MD5=[1007fce2994c0804f23855fbfd3e6bbd]
link CargoManifest to Warehouse--><path codeLine="90" d="M1506.315,1180.71 C1570.125,1200.84 1656.135,1227.99 1715.955,1246.86 " fill="none" id="CargoManifest-Warehouse" style="stroke:#A80036;stroke-width:1.5;"/><polygon fill="#000000" points="1565.6524,1186.1405,1554.0402,1177.8538,1551.387,1186.2619,1565.6524,1186.1405" style="stroke:#000000;stroke-width:1.5;"/><text fill="#000000" font-family="sans-serif" font-size="19.5" lengthAdjust="spacing" textLength="97.5" x="1572" y="1191.8627">delivered at</text><text fill="#000000" font-family="sans-serif" font-size="19.5" lengthAdjust="spacing" textLength="7.5" x="1517.9827" y="1206.0091">*</text><text fill="#000000" font-family="sans-serif" font-size="19.5" lengthAdjust="spacing" textLength="10.5" x="1693.6192" y="1265.6097">1</text><!--MD5=[37a14a5de6d6fd738aee271300f4b5c8]
link Company to Ship--><path codeLine="92" d="M114.105,493.65 C157.23,539.205 229.05,615.105 289.11,678.57 " fill="none" id="Company-Ship" style="stroke:#A80036;stroke-width:1.5;"/><polygon fill="#000000" points="197.9053,562.331,191.7812,549.4465,185.3775,555.5069,197.9053,562.331" style="stroke:#000000;stroke-width:1.5;"/><text fill="#000000" font-family="sans-serif" font-size="19.5" lengthAdjust="spacing" textLength="34.5" x="206.25" y="564.8627">own</text><text fill="#000000" font-family="sans-serif" font-size="19.5" lengthAdjust="spacing" textLength="10.5" x="111.1748" y="525.4682">1</text><text fill="#000000" font-family="sans-serif" font-size="19.5" lengthAdjust="spacing" textLength="30" x="247.5638" y="689.4308">1..*</text><!--MD5=[a2a194d3aa0c5b34ec916a16bebf9a1a]
link Company to System--><path codeLine="93" d="M79.17,412.215 C86.595,352.65 109.965,243.855 183,195.12 C461.94,9 634.47,51.525 937.5,195.12 C988.98,219.525 1025.895,277.59 1044.735,313.455 " fill="none" id="Company-System" style="stroke:#A80036;stroke-width:1.5;"/><polygon fill="#000000" points="585.7111,58.1205,571.7653,55.1156,572.6624,63.8866,585.7111,58.1205" style="stroke:#000000;stroke-width:1.5;"/><text fill="#000000" font-family="sans-serif" font-size="19.5" lengthAdjust="spacing" textLength="31.5" x="591.75" y="66.8627">has</text><text fill="#000000" font-family="sans-serif" font-size="19.5" lengthAdjust="spacing" textLength="10.5" x="68.5937" y="396.3128">1</text><text fill="#000000" font-family="sans-serif" font-size="19.5" lengthAdjust="spacing" textLength="30" x="1005.6978" y="297.3892">1..*</text><!--MD5=[09366576ee87d48d594df10cacc83f45]
link Company to Employee--><path codeLine="94" d="M138.195,453.12 C193.545,453.12 274.02,453.12 329.805,453.12 " fill="none" id="Company-Employee" style="stroke:#A80036;stroke-width:1.5;"/><polygon fill="#000000" points="198,439.8837,184.4324,435.4753,184.4324,444.2921,198,439.8837" style="stroke:#000000;stroke-width:1.5;"/><text fill="#000000" font-family="sans-serif" font-size="19.5" lengthAdjust="spacing" textLength="39" x="204" y="447.8627">have</text><text fill="#000000" font-family="sans-serif" font-size="19.5" lengthAdjust="spacing" textLength="10.5" x="150.0879" y="475.4916">1</text><text fill="#000000" font-family="sans-serif" font-size="19.5" lengthAdjust="spacing" textLength="30" x="287.9896" y="475.182">1..*</text><!--MD5=[710b10ea314ec23c5eb602bd01bfa9d5]
link Company to Truck--><path codeLine="95" d="M80.595,494.31 C94.395,593.385 142.89,847.125 289.5,987.12 C406.62,1098.975 607.26,1131.78 696.915,1141.095 " fill="none" id="Company-Truck" style="stroke:#A80036;stroke-width:1.5;"/><polygon fill="#000000" points="379.4239,979.3133,373.2557,966.4499,366.8728,972.5321,379.4239,979.3133" style="stroke:#000000;stroke-width:1.5;"/><text fill="#000000" font-family="sans-serif" font-size="19.5" lengthAdjust="spacing" textLength="34.5" x="387.75" y="981.8627">own</text><text fill="#000000" font-family="sans-serif" font-size="19.5" lengthAdjust="spacing" textLength="10.5" x="70.3208" y="525.6029">1</text><text fill="#000000" font-family="sans-serif" font-size="19.5" lengthAdjust="spacing" textLength="30" x="655.4681" y="1162.9489">1..*</text><!--MD5=[3d97e7a8068d9b0a6bb8fcf7dc76451d]
link Company to Ports--><path codeLine="96" d="M106.53,412.455 C158.295,349.11 269.4,234.12 393.75,234.12 C393.75,234.12 393.75,234.12 1420.5,234.12 C1698.105,234.12 1766.985,686.79 1782.405,841.5 " fill="none" id="Company-Ports" style="stroke:#A80036;stroke-width:1.5;"/><polygon fill="#000000" points="872.0157,222.7438,859.9653,215.1082,857.7786,223.6495,872.0157,222.7438" style="stroke:#000000;stroke-width:1.5;"/><text fill="#000000" font-family="sans-serif" font-size="19.5" lengthAdjust="spacing" textLength="39" x="878.25" y="228.8627">have</text><text fill="#000000" font-family="sans-serif" font-size="19.5" lengthAdjust="spacing" textLength="10.5" x="102.2807" y="396.6083">1</text><text fill="#000000" font-family="sans-serif" font-size="19.5" lengthAdjust="spacing" textLength="30" x="1784.2566" y="825.4163">1..*</text><!--MD5=[a27713cdd7694cea32c8be89a3131559]
link Containers to CargoManifest--><path codeLine="98" d="M1134.375,1146.465 C1191.42,1147.905 1271.13,1149.915 1331.445,1151.445 " fill="none" id="Containers-CargoManifest" style="stroke:#A80036;stroke-width:1.5;"/><polygon fill="#000000" points="1198.4976,1134.5731,1185.0457,1129.8234,1184.8229,1138.6374,1198.4976,1134.5731" style="stroke:#000000;stroke-width:1.5;"/><text fill="#000000" font-family="sans-serif" font-size="19.5" lengthAdjust="spacing" textLength="81" x="1204.5" y="1142.3627">related to</text><text fill="#000000" font-family="sans-serif" font-size="19.5" lengthAdjust="spacing" textLength="30" x="1145.7621" y="1168.4808">1..*</text><text fill="#000000" font-family="sans-serif" font-size="19.5" lengthAdjust="spacing" textLength="30" x="1290.228" y="1172.8033">1..*</text><!--MD5=[c7fc6f07f2489647d2a3f83969f89660]
link Containers to Ports--><path codeLine="99" d="M1134.24,1109.31 C1188,1083.825 1263.585,1049.64 1332,1024.62 C1472.835,973.14 1643.85,927.975 1730.445,906.285 " fill="none" id="Containers-Ports" style="stroke:#A80036;stroke-width:1.5;"/><polygon fill="#000000" points="1400.5997,951.966,1386.3352,952.1665,1389.1773,960.5127,1400.5997,951.966" style="stroke:#000000;stroke-width:1.5;"/><text fill="#000000" font-family="sans-serif" font-size="19.5" lengthAdjust="spacing" textLength="43.5" x="1407" y="962.3627">store</text><text fill="#000000" font-family="sans-serif" font-size="19.5" lengthAdjust="spacing" textLength="30" x="1146.1644" y="1126.4196">0..*</text><text fill="#000000" font-family="sans-serif" font-size="19.5" lengthAdjust="spacing" textLength="10.5" x="1708.3653" y="931.3536">1</text><!--MD5=[40d84d2acc82335a7c6decf41782281a]
link Containers to Warehouse--><path codeLine="100" d="M1134.135,1203.975 C1185.735,1242.42 1258.755,1289.025 1332,1309.62 C1463.925,1346.745 1625.1,1315.2 1715.76,1290.84 " fill="none" id="Containers-Warehouse" style="stroke:#A80036;stroke-width:1.5;"/><polygon fill="#000000" points="1400.9177,1297.4915,1388.1501,1291.1274,1386.8478,1299.8475,1400.9177,1297.4915" style="stroke:#000000;stroke-width:1.5;"/><text fill="#000000" font-family="sans-serif" font-size="19.5" lengthAdjust="spacing" textLength="43.5" x="1407" y="1304.3627">store</text><text fill="#000000" font-family="sans-serif" font-size="19.5" lengthAdjust="spacing" textLength="30" x="1146.0453" y="1233.8052">0..*</text><text fill="#000000" font-family="sans-serif" font-size="19.5" lengthAdjust="spacing" textLength="10.5" x="1693.3943" y="1316.3241">1</text><!--MD5=[3d04185e7085eaaeba7ebd93b9963be0]
link PlaceLocation to Country--><path codeLine="102" d="M2223.3,1165.62 C2282.61,1165.62 2361.375,1165.62 2413.2,1165.62 " fill="none" id="PlaceLocation-Country" style="stroke:#A80036;stroke-width:1.5;"/><polygon fill="#000000" points="2283,1152.3837,2269.4324,1147.9753,2269.4324,1156.7921,2283,1152.3837" style="stroke:#000000;stroke-width:1.5;"/><text fill="#000000" font-family="sans-serif" font-size="19.5" lengthAdjust="spacing" textLength="78" x="2289" y="1160.3627">placed in</text><text fill="#000000" font-family="sans-serif" font-size="19.5" lengthAdjust="spacing" textLength="7.5" x="2234.9302" y="1187.5437">*</text><text fill="#000000" font-family="sans-serif" font-size="19.5" lengthAdjust="spacing" textLength="10.5" x="2391.0623" y="1188.2473">1</text><!--MD5=[aaa368e4b832683362a5bdda330bd90d]
link Ports to PlaceLocation--><path codeLine="104" d="M1845.27,936.18 C1907.325,984.66 2007.495,1062.915 2073.315,1114.32 " fill="none" id="Ports-PlaceLocation" style="stroke:#A80036;stroke-width:1.5;"/><polygon fill="#000000" points="1918.4104,980.0007,1910.4322,968.1744,1905.0045,975.1225,1918.4104,980.0007" style="stroke:#000000;stroke-width:1.5;"/><text fill="#000000" font-family="sans-serif" font-size="19.5" lengthAdjust="spacing" textLength="85.5" x="1926" y="983.3627">located at</text><text fill="#000000" font-family="sans-serif" font-size="19.5" lengthAdjust="spacing" textLength="10.5" x="1857.1879" y="967.111">1</text><text fill="#000000" font-family="sans-serif" font-size="19.5" lengthAdjust="spacing" textLength="10.5" x="2048.5544" y="1098.2008">1</text><!--MD5=[cff4e3c6ede03364cf99bd3378be6b6a]
link Ship to Containers--><path codeLine="106" d="M501.09,874.455 C515.82,885.135 531.045,895.5 546,904.62 C695.385,995.82 885.045,1076.235 986.76,1116.765 " fill="none" id="Ship-Containers" style="stroke:#A80036;stroke-width:1.5;"/><polygon fill="#000000" points="708.7111,977.232,698.5387,967.2302,694.6025,975.1195,708.7111,977.232" style="stroke:#000000;stroke-width:1.5;"/><text fill="#000000" font-family="sans-serif" font-size="19.5" lengthAdjust="spacing" textLength="76.5" x="715.5" y="981.8627">transport</text><text fill="#000000" font-family="sans-serif" font-size="19.5" lengthAdjust="spacing" textLength="10.5" x="513.2405" y="905.3565">1</text><text fill="#000000" font-family="sans-serif" font-size="19.5" lengthAdjust="spacing" textLength="30" x="944.8356" y="1134.8764">1..*</text><!--MD5=[b5e7d3b323f2cd13b2215620f50e65f3]
link Ship to Ports--><path codeLine="107" d="M501.465,798.525 C618.615,808.905 814.08,825.855 982.5,838.62 C1263.585,859.935 1600.29,881.16 1730.91,889.23 " fill="none" id="Ship-Ports" style="stroke:#A80036;stroke-width:1.5;"/><polygon fill="#000000" points="1043.2297,825.9355,1030.0232,820.5408,1029.3745,829.3337,1043.2297,825.9355" style="stroke:#000000;stroke-width:1.5;"/><text fill="#000000" font-family="sans-serif" font-size="19.5" lengthAdjust="spacing" textLength="42" x="1049.25" y="833.3627">dock</text><text fill="#000000" font-family="sans-serif" font-size="19.5" lengthAdjust="spacing" textLength="30" x="513.0183" y="820.819">0..*</text><text fill="#000000" font-family="sans-serif" font-size="19.5" lengthAdjust="spacing" textLength="10.5" x="1708.5264" y="882.6361">1</text><!--MD5=[5541ef512584d1243c10a7f3b3317e1c]
link Ship to ShipLocation--><path codeLine="108" d="M501.69,770.595 C635.535,746.94 863.85,706.605 982.425,685.65 " fill="none" id="Ship-ShipLocation" style="stroke:#A80036;stroke-width:1.5;"/><polygon fill="#000000" points="731.8856,705.5787,717.7579,703.5983,719.292,712.2806,731.8856,705.5787" style="stroke:#000000;stroke-width:1.5;"/><text fill="#000000" font-family="sans-serif" font-size="19.5" lengthAdjust="spacing" textLength="31.5" x="738" y="714.8627">has</text><text fill="#000000" font-family="sans-serif" font-size="19.5" lengthAdjust="spacing" textLength="10.5" x="513.208" y="790.1769">1</text><text fill="#000000" font-family="sans-serif" font-size="19.5" lengthAdjust="spacing" textLength="30" x="940.4998" y="709.2275">1..*</text><!--MD5=[9c226fb16923f449f2aeb2d55d4b05b5]
link Employee to ShipLocation--><path codeLine="110" d="M460.845,474.33 C583.395,514.845 850.395,603.15 982.23,646.74 " fill="none" id="Employee-ShipLocation" style="stroke:#A80036;stroke-width:1.5;"/><polygon fill="#000000" points="712.8708,539.7383,701.3732,531.2932,698.6051,539.6642,712.8708,539.7383" style="stroke:#000000;stroke-width:1.5;"/><text fill="#000000" font-family="sans-serif" font-size="19.5" lengthAdjust="spacing" textLength="69" x="719.25" y="545.3627">controls</text><text fill="#000000" font-family="sans-serif" font-size="19.5" lengthAdjust="spacing" textLength="10.5" x="472.5787" y="500.1371">1</text><text fill="#000000" font-family="sans-serif" font-size="19.5" lengthAdjust="spacing" textLength="30" x="940.2798" y="665.3322">1..*</text><!--MD5=[22fb9506fac029fc1d2ae00f0eb8d606]
link Employee to User--><path codeLine="111" d="M460.575,432.915 C530.025,410.91 639.195,376.335 699.27,357.315 " fill="none" id="Employee-User" style="stroke:#A80036;stroke-width:1.5;"/><polygon fill="#000000" points="560.65,361.1191,546.3845,361.0131,549.0466,369.4184,560.65,361.1191" style="stroke:#000000;stroke-width:1.5;"/><text fill="#000000" font-family="sans-serif" font-size="19.5" lengthAdjust="spacing" textLength="81" x="567" y="371.3627">relates to</text><text fill="#000000" font-family="sans-serif" font-size="19.5" lengthAdjust="spacing" textLength="10.5" x="472.7051" y="423.6889">1</text><text fill="#000000" font-family="sans-serif" font-size="19.5" lengthAdjust="spacing" textLength="10.5" x="677.2121" y="383.5606">1</text><!--MD5=[bfae458883a557d51202afbf4dc319fa]
link Employee to Ports--><path codeLine="112" d="M461.115,453.12 C530.55,453.12 644.355,453.12 742.5,453.12 C742.5,453.12 742.5,453.12 1420.5,453.12 C1620.585,453.12 1732.44,725.415 1771.005,841.35 " fill="none" id="Employee-Ports" style="stroke:#A80036;stroke-width:1.5;"/><polygon fill="#000000" points="1029.4408,442.0149,1017.6852,433.9328,1015.1798,442.3861,1029.4408,442.0149" style="stroke:#000000;stroke-width:1.5;"/><text fill="#000000" font-family="sans-serif" font-size="19.5" lengthAdjust="spacing" textLength="69" x="1035.75" y="447.8627">controls</text><text fill="#000000" font-family="sans-serif" font-size="19.5" lengthAdjust="spacing" textLength="10.5" x="472.449" y="475.3368">1</text><text fill="#000000" font-family="sans-serif" font-size="19.5" lengthAdjust="spacing" textLength="30" x="1734.706" y="825.2368">1..*</text><!--MD5=[8cef3b8bb432fdc493768abc58cade76]
link Truck to Containers--><path codeLine="114" d="M791.085,1144.62 C842.37,1144.62 926.37,1144.62 986.64,1144.62 " fill="none" id="Truck-Containers" style="stroke:#A80036;stroke-width:1.5;"/><polygon fill="#000000" points="853.5,1131.3837,839.9324,1126.9753,839.9324,1135.7921,853.5,1131.3837" style="stroke:#000000;stroke-width:1.5;"/><text fill="#000000" font-family="sans-serif" font-size="19.5" lengthAdjust="spacing" textLength="76.5" x="859.5" y="1139.3627">transport</text><text fill="#000000" font-family="sans-serif" font-size="19.5" lengthAdjust="spacing" textLength="10.5" x="802.5333" y="1167.5454">1</text><text fill="#000000" font-family="sans-serif" font-size="19.5" lengthAdjust="spacing" textLength="30" x="945.2548" y="1166.3994">1..*</text><!--MD5=[668bfb6c3cf503ab645d5414a0ff2b4e]
link Truck to Warehouse--><path codeLine="115" d="M778.725,1174.725 C822.105,1212.15 902.07,1274.79 982.5,1305.12 C1269.03,1413.21 1375.68,1413.18 1671,1332.12 C1686.195,1327.95 1701.6,1321.455 1715.985,1314.18 " fill="none" id="Truck-Warehouse" style="stroke:#A80036;stroke-width:1.5;"/><polygon fill="#000000" points="1220.1683,1357.4874,1207.3972,1351.1303,1206.0997,1359.8511,1220.1683,1357.4874" style="stroke:#000000;stroke-width:1.5;"/><text fill="#000000" font-family="sans-serif" font-size="19.5" lengthAdjust="spacing" textLength="37.5" x="1226.25" y="1364.3627">park</text><text fill="#000000" font-family="sans-serif" font-size="19.5" lengthAdjust="spacing" textLength="30" x="754.2727" y="1206.8839">0..*</text><text fill="#000000" font-family="sans-serif" font-size="19.5" lengthAdjust="spacing" textLength="10.5" x="1693.6538" y="1343.238">1</text><!--MD5=[4a0bbcdd6df460060db454e8e2c30a96]
link User to System--><path codeLine="117" d="M788.43,343.62 C844.95,343.62 944.28,343.62 1005.585,343.62 " fill="none" id="User-System" style="stroke:#A80036;stroke-width:1.5;"/><polygon fill="#000000" points="870.75,330.3837,857.1824,325.9753,857.1824,334.7921,870.75,330.3837" style="stroke:#000000;stroke-width:1.5;"/><text fill="#000000" font-family="sans-serif" font-size="19.5" lengthAdjust="spacing" textLength="42" x="876.75" y="338.3627">uses</text><text fill="#000000" font-family="sans-serif" font-size="19.5" lengthAdjust="spacing" textLength="30" x="800.1303" y="366.2771">1..*</text><text fill="#000000" font-family="sans-serif" font-size="19.5" lengthAdjust="spacing" textLength="10.5" x="983.24" y="366.2771">1</text><!--MD5=[591625470abc4a5f324d9b49d40e13b3]
link Warehouse to PlaceLocation--><path codeLine="119" d="M1860.225,1248.18 C1917.465,1231.23 1998.135,1207.335 2057.97,1189.62 " fill="none" id="Warehouse-PlaceLocation" style="stroke:#A80036;stroke-width:1.5;"/><polygon fill="#000000" points="1919.6913,1189.254,1905.4304,1188.8796,1907.9339,1197.3335,1919.6913,1189.254" style="stroke:#000000;stroke-width:1.5;"/><text fill="#000000" font-family="sans-serif" font-size="19.5" lengthAdjust="spacing" textLength="85.5" x="1926" y="1199.3627">located at</text><text fill="#000000" font-family="sans-serif" font-size="19.5" lengthAdjust="spacing" textLength="10.5" x="1872.0884" y="1267.1318">1</text><text fill="#000000" font-family="sans-serif" font-size="19.5" lengthAdjust="spacing" textLength="10.5" x="2035.6746" y="1214.7687">1</text><!--MD5=[dc0db71ee1bdca4f73b5931e61d1b75b]
@startuml
'https://plantuml.com/class-diagram

hide methods
left to right direction
skinparam classAttributeIconSize 0

class Company {
-designation
}

class Employee {
-name
}

class Containers {
-x
-y
-z
-containerNumber
-checkDigit
-isoCode
-payLoad
-tare
-gross
-weight
}

class CargoManifest {
-listOfContainers
-ratio
-date
-mmsiCode
-id
-numberOfContainers
-destination
}

class Ship {
-mmsiCode
-imoCode
-numberEnergyGenerators
-generatorPower
-callSign
-draft
-name
-vesselTypeId
-length
-width
-capacity
}



class Ports {
-identification
-name
}

class Truck {

}

class Warehouse {
-identification
-name
}

class Country {
-name
-continent
}

class PlaceLocation {
-latitude
-longitude
}

class ShipLocation {
-baseDateTime
-latitude
-longitude
-sog
-cog
-heading
-position
-transceiver
}

CargoManifest "*" - - "1" Ports : delivered at >
CargoManifest "*" - - "1" Warehouse : delivered at >

Company "1"- -"1..*" Ship: own >
Company "1" - "1..*" System : has >
Company "1"- -"1..*" Employee: have >
Company "1"- -"1..*" Truck: own >
Company "1"- -"1..*" Ports: have >

Containers "1..*"- -"1..*" CargoManifest: related to >
Containers "0..*"- -"1" Ports: store >
Containers "0..*"- -"1" Warehouse: store >

PlaceLocation "*" - - "1" Country : placed in >

Ports "1" - - "1" PlaceLocation : located at >

Ship "1"- - -"1..*" Containers : transport >
Ship "0..*"- -"1" Ports: dock >
Ship "1" - - "1..*" ShipLocation : has >

Employee "1" - - - "1..*" ShipLocation : controls >
Employee "1" - - "1" User : relates to >
Employee "1" - - - "1..*" Ports : controls >

Truck "1"- -"1..*" Containers : transport >
Truck "0..*"- -"1" Warehouse: park >

User "1..*" - - "1" System : uses >

Warehouse "1" - - "1" PlaceLocation : located at >





@enduml

@startuml

hide methods
left to right direction
skinparam classAttributeIconSize 0

class Company {
-designation
}

class Employee {
-name
}

class Containers {
-x
-y
-z
-containerNumber
-checkDigit
-isoCode
-payLoad
-tare
-gross
-weight
}

class CargoManifest {
-listOfContainers
-ratio
-date
-mmsiCode
-id
-numberOfContainers
-destination
}

class Ship {
-mmsiCode
-imoCode
-numberEnergyGenerators
-generatorPower
-callSign
-draft
-name
-vesselTypeId
-length
-width
-capacity
}



class Ports {
-identification
-name
}

class Truck {

}

class Warehouse {
-identification
-name
}

class Country {
-name
-continent
}

class PlaceLocation {
-latitude
-longitude
}

class ShipLocation {
-baseDateTime
-latitude
-longitude
-sog
-cog
-heading
-position
-transceiver
}

CargoManifest "*" - - "1" Ports : delivered at >
CargoManifest "*" - - "1" Warehouse : delivered at >

Company "1"- -"1..*" Ship: own >
Company "1" - "1..*" System : has >
Company "1"- -"1..*" Employee: have >
Company "1"- -"1..*" Truck: own >
Company "1"- -"1..*" Ports: have >

Containers "1..*"- -"1..*" CargoManifest: related to >
Containers "0..*"- -"1" Ports: store >
Containers "0..*"- -"1" Warehouse: store >

PlaceLocation "*" - - "1" Country : placed in >

Ports "1" - - "1" PlaceLocation : located at >

Ship "1"- - -"1..*" Containers : transport >
Ship "0..*"- -"1" Ports: dock >
Ship "1" - - "1..*" ShipLocation : has >

Employee "1" - - - "1..*" ShipLocation : controls >
Employee "1" - - "1" User : relates to >
Employee "1" - - - "1..*" Ports : controls >

Truck "1"- -"1..*" Containers : transport >
Truck "0..*"- -"1" Warehouse: park >

User "1..*" - - "1" System : uses >

Warehouse "1" - - "1" PlaceLocation : located at >





@enduml

PlantUML version 1.2021.5(Sun Apr 25 12:20:28 BST 2021)
(GPL source distribution)
Java Runtime: OpenJDK Runtime Environment
JVM: Dynamic Code Evolution 64-Bit Server VM
Default Encoding: Cp1252
Language: pt
Country: PT
--></g></svg>