<?xml version="1.0" encoding="UTF-8" standalone="no"?><svg xmlns="http://www.w3.org/2000/svg" xmlns:xlink="http://www.w3.org/1999/xlink" contentScriptType="application/ecmascript" contentStyleType="text/css" height="504px" preserveAspectRatio="none" style="width:954px;height:504px;" version="1.1" viewBox="0 0 954 504" width="954px" zoomAndPan="magnify"><defs><filter height="300%" id="fheb8tydtu9k8" width="300%" x="-1" y="-1"><feGaussianBlur result="blurOut" stdDeviation="3.0"/><feColorMatrix in="blurOut" result="blurOut2" type="matrix" values="0 0 0 0 0 0 0 0 0 0 0 0 0 0 0 0 0 0 .4 0"/><feOffset dx="6.0" dy="6.0" in="blurOut2" result="blurOut3"/><feBlend in="SourceGraphic" in2="blurOut3" mode="normal"/></filter></defs><g><!--MD5=[ddaf6f62b0bc30921877ec9fb9463c9f]
class TrafficManager--><rect codeLine="7" fill="#FEFECE" filter="url(#fheb8tydtu9k8)" height="80.7539" id="TrafficManager" style="stroke:#A80036;stroke-width:2.25;" width="169.5" x="310.5" y="62.25"/><ellipse cx="333" cy="86.25" fill="#ADD1B2" rx="16.5" ry="16.5" style="stroke:#A80036;stroke-width:1.5;"/><path d="M336,81 Q336.3047,80.25 336.6563,79.875 Q337.0078,79.5 337.4063,79.5 Q338.1094,79.5 338.5547,79.9219 Q339,80.3438 339,81.3281 L339,83.6719 Q339,84.6563 338.5781,85.0781 Q338.1563,85.5 337.5,85.5 Q336.9141,85.5 336.5391,85.2422 Q336.1641,84.9844 336,84.3047 Q335.9297,83.8359 335.6719,83.5781 Q335.2031,83.0859 334.3594,82.8047 Q333.5156,82.5 332.6719,82.5 Q331.6172,82.5 330.7266,82.9219 Q329.8594,83.3438 329.1797,84.2813 Q328.5,85.2188 328.5,86.5078 L328.5,87.8906 Q328.5,89.4375 329.7656,90.4688 Q331.0313,91.5 333.2813,91.5 Q334.6172,91.5 335.5547,91.1953 Q336.0938,91.0313 336.7031,90.4922 Q337.1016,90.1875 337.3125,90.0938 Q337.5234,90 337.7813,90 Q338.2734,90 338.625,90.3984 Q339,90.7734 339,91.3125 Q339,91.8281 338.4844,92.4375 Q337.7344,93.3281 336.5391,93.8203 Q334.9688,94.5 333.0469,94.5 Q330.7969,94.5 328.9922,93.6094 Q327.5391,92.9063 326.5078,91.3828 Q325.5,89.8594 325.5,88.0547 L325.5,86.4141 Q325.5,84.5391 326.3906,82.8984 Q327.3047,81.2578 328.875,80.3906 Q330.4688,79.5 332.25,79.5 Q333.3281,79.5 334.2656,79.875 Q335.2031,80.25 336,81 Z " fill="#000000"/><text fill="#000000" font-family="sans-serif" font-size="18" lengthAdjust="spacing" textLength="121.5" x="354" y="93.6152">TrafficManager</text><line style="stroke:#A80036;stroke-width:2.25;" x1="312" x2="478.5" y1="110.25" y2="110.25"/><text fill="#000000" font-family="sans-serif" font-size="16.5" lengthAdjust="spacing" textLength="39" x="319.5" y="133.3784">name</text><!--MD5=[1c0c3765e68dc4575d559b566278b914]
class ShipPosition--><rect codeLine="11" fill="#FEFECE" filter="url(#fheb8tydtu9k8)" height="226.0313" id="ShipPosition" style="stroke:#A80036;stroke-width:2.25;" width="153" x="731.25" y="10.5"/><ellipse cx="753.75" cy="34.5" fill="#ADD1B2" rx="16.5" ry="16.5" style="stroke:#A80036;stroke-width:1.5;"/><path d="M756.75,29.25 Q757.0547,28.5 757.4063,28.125 Q757.7578,27.75 758.1563,27.75 Q758.8594,27.75 759.3047,28.1719 Q759.75,28.5938 759.75,29.5781 L759.75,31.9219 Q759.75,32.9063 759.3281,33.3281 Q758.9063,33.75 758.25,33.75 Q757.6641,33.75 757.2891,33.4922 Q756.9141,33.2344 756.75,32.5547 Q756.6797,32.0859 756.4219,31.8281 Q755.9531,31.3359 755.1094,31.0547 Q754.2656,30.75 753.4219,30.75 Q752.3672,30.75 751.4766,31.1719 Q750.6094,31.5938 749.9297,32.5313 Q749.25,33.4688 749.25,34.7578 L749.25,36.1406 Q749.25,37.6875 750.5156,38.7188 Q751.7813,39.75 754.0313,39.75 Q755.3672,39.75 756.3047,39.4453 Q756.8438,39.2813 757.4531,38.7422 Q757.8516,38.4375 758.0625,38.3438 Q758.2734,38.25 758.5313,38.25 Q759.0234,38.25 759.375,38.6484 Q759.75,39.0234 759.75,39.5625 Q759.75,40.0781 759.2344,40.6875 Q758.4844,41.5781 757.2891,42.0703 Q755.7188,42.75 753.7969,42.75 Q751.5469,42.75 749.7422,41.8594 Q748.2891,41.1563 747.2578,39.6328 Q746.25,38.1094 746.25,36.3047 L746.25,34.6641 Q746.25,32.7891 747.1406,31.1484 Q748.0547,29.5078 749.625,28.6406 Q751.2188,27.75 753,27.75 Q754.0781,27.75 755.0156,28.125 Q755.9531,28.5 756.75,29.25 Z " fill="#000000"/><text fill="#000000" font-family="sans-serif" font-size="18" lengthAdjust="spacing" textLength="105" x="774.75" y="41.8652">ShipPosition</text><line style="stroke:#A80036;stroke-width:2.25;" x1="732.75" x2="882.75" y1="58.5" y2="58.5"/><text fill="#000000" font-family="sans-serif" font-size="16.5" lengthAdjust="spacing" textLength="108" x="740.25" y="81.6284">-baseDateTime</text><text fill="#000000" font-family="sans-serif" font-size="16.5" lengthAdjust="spacing" textLength="57" x="740.25" y="102.3823">-latitude</text><text fill="#000000" font-family="sans-serif" font-size="16.5" lengthAdjust="spacing" textLength="70.5" x="740.25" y="123.1362">-longitude</text><text fill="#000000" font-family="sans-serif" font-size="16.5" lengthAdjust="spacing" textLength="33" x="740.25" y="143.8901">-sog</text><text fill="#000000" font-family="sans-serif" font-size="16.5" lengthAdjust="spacing" textLength="33" x="740.25" y="164.644">-cog</text><text fill="#000000" font-family="sans-serif" font-size="16.5" lengthAdjust="spacing" textLength="63" x="740.25" y="185.3979">-heading</text><text fill="#000000" font-family="sans-serif" font-size="16.5" lengthAdjust="spacing" textLength="61.5" x="740.25" y="206.1519">-position</text><text fill="#000000" font-family="sans-serif" font-size="16.5" lengthAdjust="spacing" textLength="88.5" x="740.25" y="226.9058">-transceiver</text><!--MD5=[df8116ae06fc72c6cfbc80bd1fc14ec5]
class Ships--><rect codeLine="22" fill="#FEFECE" filter="url(#fheb8tydtu9k8)" height="288.293" id="Ships" style="stroke:#A80036;stroke-width:2.25;" width="211.5" x="289.5" y="195.75"/><ellipse cx="364.875" cy="219.75" fill="#ADD1B2" rx="16.5" ry="16.5" style="stroke:#A80036;stroke-width:1.5;"/><path d="M367.875,214.5 Q368.1797,213.75 368.5313,213.375 Q368.8828,213 369.2813,213 Q369.9844,213 370.4297,213.4219 Q370.875,213.8438 370.875,214.8281 L370.875,217.1719 Q370.875,218.1563 370.4531,218.5781 Q370.0313,219 369.375,219 Q368.7891,219 368.4141,218.7422 Q368.0391,218.4844 367.875,217.8047 Q367.8047,217.3359 367.5469,217.0781 Q367.0781,216.5859 366.2344,216.3047 Q365.3906,216 364.5469,216 Q363.4922,216 362.6016,216.4219 Q361.7344,216.8438 361.0547,217.7813 Q360.375,218.7188 360.375,220.0078 L360.375,221.3906 Q360.375,222.9375 361.6406,223.9688 Q362.9063,225 365.1563,225 Q366.4922,225 367.4297,224.6953 Q367.9688,224.5313 368.5781,223.9922 Q368.9766,223.6875 369.1875,223.5938 Q369.3984,223.5 369.6563,223.5 Q370.1484,223.5 370.5,223.8984 Q370.875,224.2734 370.875,224.8125 Q370.875,225.3281 370.3594,225.9375 Q369.6094,226.8281 368.4141,227.3203 Q366.8438,228 364.9219,228 Q362.6719,228 360.8672,227.1094 Q359.4141,226.4063 358.3828,224.8828 Q357.375,223.3594 357.375,221.5547 L357.375,219.9141 Q357.375,218.0391 358.2656,216.3984 Q359.1797,214.7578 360.75,213.8906 Q362.3438,213 364.125,213 Q365.2031,213 366.1406,213.375 Q367.0781,213.75 367.875,214.5 Z " fill="#000000"/><text fill="#000000" font-family="sans-serif" font-size="18" lengthAdjust="spacing" textLength="48" x="395.625" y="227.1152">Ships</text><line style="stroke:#A80036;stroke-width:2.25;" x1="291" x2="499.5" y1="243.75" y2="243.75"/><text fill="#000000" font-family="sans-serif" font-size="16.5" lengthAdjust="spacing" textLength="79.5" x="298.5" y="266.8784">-mmsiCode</text><text fill="#000000" font-family="sans-serif" font-size="16.5" lengthAdjust="spacing" textLength="45" x="298.5" y="287.6323">-name</text><text fill="#000000" font-family="sans-serif" font-size="16.5" lengthAdjust="spacing" textLength="67.5" x="298.5" y="308.3862">-imoCode</text><text fill="#000000" font-family="sans-serif" font-size="16.5" lengthAdjust="spacing" textLength="193.5" x="298.5" y="329.1401">-numberEnergyGenerators</text><text fill="#000000" font-family="sans-serif" font-size="16.5" lengthAdjust="spacing" textLength="124.5" x="298.5" y="349.894">-generatorPower</text><text fill="#000000" font-family="sans-serif" font-size="16.5" lengthAdjust="spacing" textLength="61.5" x="298.5" y="370.6479">-callSign</text><text fill="#000000" font-family="sans-serif" font-size="16.5" lengthAdjust="spacing" textLength="90" x="298.5" y="391.4019">-vesselType</text><text fill="#000000" font-family="sans-serif" font-size="16.5" lengthAdjust="spacing" textLength="49.5" x="298.5" y="412.1558">-length</text><text fill="#000000" font-family="sans-serif" font-size="16.5" lengthAdjust="spacing" textLength="46.5" x="298.5" y="432.9097">-width</text><text fill="#000000" font-family="sans-serif" font-size="16.5" lengthAdjust="spacing" textLength="67.5" x="298.5" y="453.6636">-capacity</text><text fill="#000000" font-family="sans-serif" font-size="16.5" lengthAdjust="spacing" textLength="40.5" x="298.5" y="474.4175">-draft</text><!--MD5=[6700520e55a014612112dac63a0c8d0e]
class MessageUSCoastGuard--><rect codeLine="36" fill="#FEFECE" filter="url(#fheb8tydtu9k8)" height="60" id="MessageUSCoastGuard" style="stroke:#A80036;stroke-width:2.25;" width="250.5" x="682.5" y="309.75"/><ellipse cx="705" cy="333.75" fill="#ADD1B2" rx="16.5" ry="16.5" style="stroke:#A80036;stroke-width:1.5;"/><path d="M708,328.5 Q708.3047,327.75 708.6563,327.375 Q709.0078,327 709.4063,327 Q710.1094,327 710.5547,327.4219 Q711,327.8438 711,328.8281 L711,331.1719 Q711,332.1563 710.5781,332.5781 Q710.1563,333 709.5,333 Q708.9141,333 708.5391,332.7422 Q708.1641,332.4844 708,331.8047 Q707.9297,331.3359 707.6719,331.0781 Q707.2031,330.5859 706.3594,330.3047 Q705.5156,330 704.6719,330 Q703.6172,330 702.7266,330.4219 Q701.8594,330.8438 701.1797,331.7813 Q700.5,332.7188 700.5,334.0078 L700.5,335.3906 Q700.5,336.9375 701.7656,337.9688 Q703.0313,339 705.2813,339 Q706.6172,339 707.5547,338.6953 Q708.0938,338.5313 708.7031,337.9922 Q709.1016,337.6875 709.3125,337.5938 Q709.5234,337.5 709.7813,337.5 Q710.2734,337.5 710.625,337.8984 Q711,338.2734 711,338.8125 Q711,339.3281 710.4844,339.9375 Q709.7344,340.8281 708.5391,341.3203 Q706.9688,342 705.0469,342 Q702.7969,342 700.9922,341.1094 Q699.5391,340.4063 698.5078,338.8828 Q697.5,337.3594 697.5,335.5547 L697.5,333.9141 Q697.5,332.0391 698.3906,330.3984 Q699.3047,328.7578 700.875,327.8906 Q702.4688,327 704.25,327 Q705.3281,327 706.2656,327.375 Q707.2031,327.75 708,328.5 Z " fill="#000000"/><text fill="#000000" font-family="sans-serif" font-size="18" lengthAdjust="spacing" textLength="202.5" x="726" y="341.1152">MessageUSCoastGuard</text><line style="stroke:#A80036;stroke-width:2.25;" x1="684" x2="931.5" y1="357.75" y2="357.75"/><!--MD5=[02e4b9b7573f1156f41e60aa5b4e25a4]
class Company--><rect codeLine="40" fill="#FEFECE" filter="url(#fheb8tydtu9k8)" height="60" id="Company" style="stroke:#A80036;stroke-width:2.25;" width="127.5" x="10.5" y="191.25"/><ellipse cx="33" cy="215.25" fill="#ADD1B2" rx="16.5" ry="16.5" style="stroke:#A80036;stroke-width:1.5;"/><path d="M36,210 Q36.3047,209.25 36.6563,208.875 Q37.0078,208.5 37.4063,208.5 Q38.1094,208.5 38.5547,208.9219 Q39,209.3438 39,210.3281 L39,212.6719 Q39,213.6563 38.5781,214.0781 Q38.1563,214.5 37.5,214.5 Q36.9141,214.5 36.5391,214.2422 Q36.1641,213.9844 36,213.3047 Q35.9297,212.8359 35.6719,212.5781 Q35.2031,212.0859 34.3594,211.8047 Q33.5156,211.5 32.6719,211.5 Q31.6172,211.5 30.7266,211.9219 Q29.8594,212.3438 29.1797,213.2813 Q28.5,214.2188 28.5,215.5078 L28.5,216.8906 Q28.5,218.4375 29.7656,219.4688 Q31.0313,220.5 33.2813,220.5 Q34.6172,220.5 35.5547,220.1953 Q36.0938,220.0313 36.7031,219.4922 Q37.1016,219.1875 37.3125,219.0938 Q37.5234,219 37.7813,219 Q38.2734,219 38.625,219.3984 Q39,219.7734 39,220.3125 Q39,220.8281 38.4844,221.4375 Q37.7344,222.3281 36.5391,222.8203 Q34.9688,223.5 33.0469,223.5 Q30.7969,223.5 28.9922,222.6094 Q27.5391,221.9063 26.5078,220.3828 Q25.5,218.8594 25.5,217.0547 L25.5,215.4141 Q25.5,213.5391 26.3906,211.8984 Q27.3047,210.2578 28.875,209.3906 Q30.4688,208.5 32.25,208.5 Q33.3281,208.5 34.2656,208.875 Q35.2031,209.25 36,210 Z " fill="#000000"/><text fill="#000000" font-family="sans-serif" font-size="18" lengthAdjust="spacing" textLength="79.5" x="54" y="222.6152">Company</text><line style="stroke:#A80036;stroke-width:2.25;" x1="12" x2="136.5" y1="239.25" y2="239.25"/><!--MD5=[667bced85496be1e76c1f9676b42b73c]
link Company to Ships--><path codeLine="44" d="M138.195,244.515 C181.065,260.49 239.01,282.09 288.87,300.675 " fill="none" id="Company-Ships" style="stroke:#A80036;stroke-width:1.5;"/><polygon fill="#000000" points="199.7777,251.1331,188.6041,242.2638,185.5248,250.5253,199.7777,251.1331" style="stroke:#000000;stroke-width:1.5;"/><text fill="#000000" font-family="sans-serif" font-size="19.5" lengthAdjust="spacing" textLength="34.5" x="206.25" y="256.4927">own</text><text fill="#000000" font-family="sans-serif" font-size="19.5" lengthAdjust="spacing" textLength="10.5" x="150.0879" y="270.8642">1</text><text fill="#000000" font-family="sans-serif" font-size="19.5" lengthAdjust="spacing" textLength="30" x="247.6803" y="318.4325">1..*</text><!--MD5=[683ea96df93176af8455607a7c1d2a32]
link Company to TrafficManager--><path codeLine="45" d="M138.195,197.985 C187.395,179.64 256.44,153.915 310.365,133.815 " fill="none" id="Company-TrafficManager" style="stroke:#A80036;stroke-width:1.5;"/><polygon fill="#000000" points="197.5277,143.8943,183.2748,144.502,186.354,152.7636,197.5277,143.8943" style="stroke:#000000;stroke-width:1.5;"/><text fill="#000000" font-family="sans-serif" font-size="19.5" lengthAdjust="spacing" textLength="39" x="204" y="154.4927">have</text><text fill="#000000" font-family="sans-serif" font-size="19.5" lengthAdjust="spacing" textLength="10.5" x="150.0879" y="216.3368">1</text><text fill="#000000" font-family="sans-serif" font-size="19.5" lengthAdjust="spacing" textLength="30" x="268.1915" y="159.3534">1..*</text><!--MD5=[e438d463907482801f4864ed83145a7d]
link Ships to MessageUSCoastGuard--><path codeLine="47" d="M501.15,339.75 C556.35,339.75 624.51,339.75 682.38,339.75 " fill="none" id="Ships-MessageUSCoastGuard" style="stroke:#A80036;stroke-width:1.5;"/><polygon fill="#000000" points="574.5,326.5137,560.9324,322.1053,560.9324,330.9221,574.5,326.5137" style="stroke:#000000;stroke-width:1.5;"/><text fill="#000000" font-family="sans-serif" font-size="19.5" lengthAdjust="spacing" textLength="42" x="580.5" y="334.4927">send</text><text fill="#000000" font-family="sans-serif" font-size="19.5" lengthAdjust="spacing" textLength="10.5" x="513.307" y="361.318">1</text><text fill="#000000" font-family="sans-serif" font-size="19.5" lengthAdjust="spacing" textLength="30" x="640.317" y="361.0466">1..*</text><!--MD5=[e894dc1b6282853ac82a980f41cabdc9]
link Ships to ShipPosition--><path codeLine="48" d="M501.15,284.685 C572.94,246.81 666.615,197.4 731.13,163.38 " fill="none" id="Ships-ShipPosition" style="stroke:#A80036;stroke-width:1.5;"/><polygon fill="#000000" points="578.8838,203.0146,564.8265,205.4452,568.9399,213.2437,578.8838,203.0146" style="stroke:#000000;stroke-width:1.5;"/><text fill="#000000" font-family="sans-serif" font-size="19.5" lengthAdjust="spacing" textLength="31.5" x="585.75" y="214.4927">has</text><text fill="#000000" font-family="sans-serif" font-size="19.5" lengthAdjust="spacing" textLength="10.5" x="513.307" y="300.2303">1</text><text fill="#000000" font-family="sans-serif" font-size="19.5" lengthAdjust="spacing" textLength="30" x="689.3912" y="190.3016">1..*</text><!--MD5=[0e32c7758dbd9763ef36bc86a30fd8c6]
link TrafficManager to ShipPosition--><path codeLine="50" d="M480.105,107.025 C553.545,110.79 659.565,116.235 730.59,119.865 " fill="none" id="TrafficManager-ShipPosition" style="stroke:#A80036;stroke-width:1.5;"/><polygon fill="#000000" points="560.9902,98.8976,547.666,93.8004,547.2146,102.6057,560.9902,98.8976" style="stroke:#000000;stroke-width:1.5;"/><text fill="#000000" font-family="sans-serif" font-size="19.5" lengthAdjust="spacing" textLength="69" x="567" y="106.4927">controls</text><text fill="#000000" font-family="sans-serif" font-size="19.5" lengthAdjust="spacing" textLength="10.5" x="492.2129" y="129.5066">1</text><text fill="#000000" font-family="sans-serif" font-size="19.5" lengthAdjust="spacing" textLength="30" x="689.358" y="141.1574">1..*</text><!--MD5=[d80a2ad867b9d2ac330774bb838239d2]
@startuml
'https://plantuml.com/class-diagram

hide methods
left to right direction
skinparam classAttributeIconSize 0

class TrafficManager {
name
}

class ShipPosition {
-baseDateTime
-latitude
-longitude
-sog
-cog
-heading
-position
-transceiver
}

class Ships {
-mmsiCode
-name
-imoCode
-numberEnergyGenerators
-generatorPower
-callSign
-vesselType
-length
-width
-capacity
-draft
}

class MessageUSCoastGuard {

}

class Company {

}

Company "1"- -"1..*" Ships: own >
Company "1"- -"1..*" TrafficManager: have >

Ships "1"- -"1..*" MessageUSCoastGuard: send >
Ships "1" - - "1..*" ShipPosition : has >

TrafficManager "1" - - "1..*" ShipPosition : controls >

@enduml

@startuml

hide methods
left to right direction
skinparam classAttributeIconSize 0

class TrafficManager {
name
}

class ShipPosition {
-baseDateTime
-latitude
-longitude
-sog
-cog
-heading
-position
-transceiver
}

class Ships {
-mmsiCode
-name
-imoCode
-numberEnergyGenerators
-generatorPower
-callSign
-vesselType
-length
-width
-capacity
-draft
}

class MessageUSCoastGuard {

}

class Company {

}

Company "1"- -"1..*" Ships: own >
Company "1"- -"1..*" TrafficManager: have >

Ships "1"- -"1..*" MessageUSCoastGuard: send >
Ships "1" - - "1..*" ShipPosition : has >

TrafficManager "1" - - "1..*" ShipPosition : controls >

@enduml

PlantUML version 1.2021.5(Sun Apr 25 12:20:28 BST 2021)
(GPL source distribution)
Java Runtime: OpenJDK Runtime Environment
JVM: Dynamic Code Evolution 64-Bit Server VM
Default Encoding: Cp1252
Language: pt
Country: PT
--></g></svg>