<?xml version="1.0" encoding="UTF-8" standalone="no"?><svg xmlns="http://www.w3.org/2000/svg" xmlns:xlink="http://www.w3.org/1999/xlink" contentScriptType="application/ecmascript" contentStyleType="text/css" height="1705.5px" preserveAspectRatio="none" style="width:570px;height:1705px;" version="1.1" viewBox="0 0 570 1705" width="570px" zoomAndPan="magnify"><defs><filter height="300%" id="fctub7mox9rby" width="300%" x="-1" y="-1"><feGaussianBlur result="blurOut" stdDeviation="3.0"/><feColorMatrix in="blurOut" result="blurOut2" type="matrix" values="0 0 0 0 0 0 0 0 0 0 0 0 0 0 0 0 0 0 .4 0"/><feOffset dx="6.0" dy="6.0" in="blurOut2" result="blurOut3"/><feBlend in="SourceGraphic" in2="blurOut3" mode="normal"/></filter></defs><g><!--MD5=[0dc7f2ddb409b58bcf52b12238c25399]
class Ship--><rect codeLine="5" fill="#FEFECE" filter="url(#fctub7mox9rby)" height="300.293" id="Ship" style="stroke:#A80036;stroke-width:2.25;" width="211.5" x="155.265" y="820.5"/><ellipse cx="235.89" cy="844.5" fill="#ADD1B2" rx="16.5" ry="16.5" style="stroke:#A80036;stroke-width:1.5;"/><path d="M238.89,839.25 Q239.1947,838.5 239.5463,838.125 Q239.8978,837.75 240.2963,837.75 Q240.9994,837.75 241.4447,838.1719 Q241.89,838.5938 241.89,839.5781 L241.89,841.9219 Q241.89,842.9063 241.4681,843.3281 Q241.0463,843.75 240.39,843.75 Q239.8041,843.75 239.4291,843.4922 Q239.0541,843.2344 238.89,842.5547 Q238.8197,842.0859 238.5619,841.8281 Q238.0931,841.3359 237.2494,841.0547 Q236.4056,840.75 235.5619,840.75 Q234.5072,840.75 233.6166,841.1719 Q232.7494,841.5938 232.0697,842.5313 Q231.39,843.4688 231.39,844.7578 L231.39,846.1406 Q231.39,847.6875 232.6556,848.7188 Q233.9213,849.75 236.1713,849.75 Q237.5072,849.75 238.4447,849.4453 Q238.9838,849.2813 239.5931,848.7422 Q239.9916,848.4375 240.2025,848.3438 Q240.4134,848.25 240.6713,848.25 Q241.1634,848.25 241.515,848.6484 Q241.89,849.0234 241.89,849.5625 Q241.89,850.0781 241.3744,850.6875 Q240.6244,851.5781 239.4291,852.0703 Q237.8588,852.75 235.9369,852.75 Q233.6869,852.75 231.8822,851.8594 Q230.4291,851.1563 229.3978,849.6328 Q228.39,848.1094 228.39,846.3047 L228.39,844.6641 Q228.39,842.7891 229.2806,841.1484 Q230.1947,839.5078 231.765,838.6406 Q233.3588,837.75 235.14,837.75 Q236.2181,837.75 237.1556,838.125 Q238.0931,838.5 238.89,839.25 Z " fill="#000000"/><text fill="#000000" font-family="sans-serif" font-size="18" lengthAdjust="spacing" textLength="37.5" x="266.64" y="851.8652">Ship</text><line style="stroke:#A80036;stroke-width:2.25;" x1="156.765" x2="365.265" y1="868.5" y2="868.5"/><text fill="#000000" font-family="sans-serif" font-size="16.5" lengthAdjust="spacing" textLength="79.5" x="164.265" y="891.6284">-mmsiCode</text><text fill="#000000" font-family="sans-serif" font-size="16.5" lengthAdjust="spacing" textLength="45" x="164.265" y="912.3823">-name</text><text fill="#000000" font-family="sans-serif" font-size="16.5" lengthAdjust="spacing" textLength="67.5" x="164.265" y="933.1362">-imoCode</text><text fill="#000000" font-family="sans-serif" font-size="16.5" lengthAdjust="spacing" textLength="193.5" x="164.265" y="953.8901">-numberEnergyGenerators</text><text fill="#000000" font-family="sans-serif" font-size="16.5" lengthAdjust="spacing" textLength="124.5" x="164.265" y="974.644">-generatorPower</text><text fill="#000000" font-family="sans-serif" font-size="16.5" lengthAdjust="spacing" textLength="61.5" x="164.265" y="995.3979">-callSign</text><text fill="#000000" font-family="sans-serif" font-size="16.5" lengthAdjust="spacing" textLength="90" x="164.265" y="1016.1519">-vesselType</text><text fill="#000000" font-family="sans-serif" font-size="16.5" lengthAdjust="spacing" textLength="49.5" x="164.265" y="1036.9058">-length</text><text fill="#000000" font-family="sans-serif" font-size="16.5" lengthAdjust="spacing" textLength="46.5" x="164.265" y="1057.6597">-width</text><text fill="#000000" font-family="sans-serif" font-size="16.5" lengthAdjust="spacing" textLength="67.5" x="164.265" y="1078.4136">-capacity</text><text fill="#000000" font-family="sans-serif" font-size="16.5" lengthAdjust="spacing" textLength="40.5" x="164.265" y="1099.1675">-draft</text><line style="stroke:#A80036;stroke-width:2.25;" x1="156.765" x2="365.265" y1="1108.793" y2="1108.793"/><!--MD5=[1c0c3765e68dc4575d559b566278b914]
class ShipPosition--><rect codeLine="19" fill="#FEFECE" filter="url(#fctub7mox9rby)" height="238.0313" id="ShipPosition" style="stroke:#A80036;stroke-width:2.25;" width="153" x="307.515" y="1447.5"/><ellipse cx="330.015" cy="1471.5" fill="#ADD1B2" rx="16.5" ry="16.5" style="stroke:#A80036;stroke-width:1.5;"/><path d="M333.015,1466.25 Q333.3197,1465.5 333.6713,1465.125 Q334.0228,1464.75 334.4213,1464.75 Q335.1244,1464.75 335.5697,1465.1719 Q336.015,1465.5938 336.015,1466.5781 L336.015,1468.9219 Q336.015,1469.9063 335.5931,1470.3281 Q335.1713,1470.75 334.515,1470.75 Q333.9291,1470.75 333.5541,1470.4922 Q333.1791,1470.2344 333.015,1469.5547 Q332.9447,1469.0859 332.6869,1468.8281 Q332.2181,1468.3359 331.3744,1468.0547 Q330.5306,1467.75 329.6869,1467.75 Q328.6322,1467.75 327.7416,1468.1719 Q326.8744,1468.5938 326.1947,1469.5313 Q325.515,1470.4688 325.515,1471.7578 L325.515,1473.1406 Q325.515,1474.6875 326.7806,1475.7188 Q328.0463,1476.75 330.2963,1476.75 Q331.6322,1476.75 332.5697,1476.4453 Q333.1088,1476.2813 333.7181,1475.7422 Q334.1166,1475.4375 334.3275,1475.3438 Q334.5384,1475.25 334.7963,1475.25 Q335.2884,1475.25 335.64,1475.6484 Q336.015,1476.0234 336.015,1476.5625 Q336.015,1477.0781 335.4994,1477.6875 Q334.7494,1478.5781 333.5541,1479.0703 Q331.9838,1479.75 330.0619,1479.75 Q327.8119,1479.75 326.0072,1478.8594 Q324.5541,1478.1563 323.5228,1476.6328 Q322.515,1475.1094 322.515,1473.3047 L322.515,1471.6641 Q322.515,1469.7891 323.4056,1468.1484 Q324.3197,1466.5078 325.89,1465.6406 Q327.4838,1464.75 329.265,1464.75 Q330.3431,1464.75 331.2806,1465.125 Q332.2181,1465.5 333.015,1466.25 Z " fill="#000000"/><text fill="#000000" font-family="sans-serif" font-size="18" lengthAdjust="spacing" textLength="105" x="351.015" y="1478.8652">ShipPosition</text><line style="stroke:#A80036;stroke-width:2.25;" x1="309.015" x2="459.015" y1="1495.5" y2="1495.5"/><text fill="#000000" font-family="sans-serif" font-size="16.5" lengthAdjust="spacing" textLength="108" x="316.515" y="1518.6284">-baseDateTime</text><text fill="#000000" font-family="sans-serif" font-size="16.5" lengthAdjust="spacing" textLength="57" x="316.515" y="1539.3823">-latitude</text><text fill="#000000" font-family="sans-serif" font-size="16.5" lengthAdjust="spacing" textLength="70.5" x="316.515" y="1560.1362">-longitude</text><text fill="#000000" font-family="sans-serif" font-size="16.5" lengthAdjust="spacing" textLength="33" x="316.515" y="1580.8901">-sog</text><text fill="#000000" font-family="sans-serif" font-size="16.5" lengthAdjust="spacing" textLength="33" x="316.515" y="1601.644">-cog</text><text fill="#000000" font-family="sans-serif" font-size="16.5" lengthAdjust="spacing" textLength="63" x="316.515" y="1622.3979">-heading</text><text fill="#000000" font-family="sans-serif" font-size="16.5" lengthAdjust="spacing" textLength="61.5" x="316.515" y="1643.1519">-position</text><text fill="#000000" font-family="sans-serif" font-size="16.5" lengthAdjust="spacing" textLength="88.5" x="316.515" y="1663.9058">-transceiver</text><line style="stroke:#A80036;stroke-width:2.25;" x1="309.015" x2="459.015" y1="1673.5313" y2="1673.5313"/><!--MD5=[b5b6c86a063960d0027bc1719947b1c8]
class BstShip--><rect codeLine="30" fill="#FEFECE" filter="url(#fctub7mox9rby)" height="92.7539" id="BstShip" style="stroke:#A80036;stroke-width:2.25;" width="256.5" x="132.765" y="610.5"/><ellipse cx="222.39" cy="634.5" fill="#ADD1B2" rx="16.5" ry="16.5" style="stroke:#A80036;stroke-width:1.5;"/><path d="M225.39,629.25 Q225.6947,628.5 226.0463,628.125 Q226.3978,627.75 226.7963,627.75 Q227.4994,627.75 227.9447,628.1719 Q228.39,628.5938 228.39,629.5781 L228.39,631.9219 Q228.39,632.9063 227.9681,633.3281 Q227.5463,633.75 226.89,633.75 Q226.3041,633.75 225.9291,633.4922 Q225.5541,633.2344 225.39,632.5547 Q225.3197,632.0859 225.0619,631.8281 Q224.5931,631.3359 223.7494,631.0547 Q222.9056,630.75 222.0619,630.75 Q221.0072,630.75 220.1166,631.1719 Q219.2494,631.5938 218.5697,632.5313 Q217.89,633.4688 217.89,634.7578 L217.89,636.1406 Q217.89,637.6875 219.1556,638.7188 Q220.4213,639.75 222.6713,639.75 Q224.0072,639.75 224.9447,639.4453 Q225.4838,639.2813 226.0931,638.7422 Q226.4916,638.4375 226.7025,638.3438 Q226.9134,638.25 227.1713,638.25 Q227.6634,638.25 228.015,638.6484 Q228.39,639.0234 228.39,639.5625 Q228.39,640.0781 227.8744,640.6875 Q227.1244,641.5781 225.9291,642.0703 Q224.3588,642.75 222.4369,642.75 Q220.1869,642.75 218.3822,641.8594 Q216.9291,641.1563 215.8978,639.6328 Q214.89,638.1094 214.89,636.3047 L214.89,634.6641 Q214.89,632.7891 215.7806,631.1484 Q216.6947,629.5078 218.265,628.6406 Q219.8588,627.75 221.64,627.75 Q222.7181,627.75 223.6556,628.125 Q224.5931,628.5 225.39,629.25 Z " fill="#000000"/><text fill="#000000" font-family="sans-serif" font-size="18" lengthAdjust="spacing" textLength="64.5" x="253.14" y="641.8652">BstShip</text><line style="stroke:#A80036;stroke-width:2.25;" x1="134.265" x2="387.765" y1="658.5" y2="658.5"/><line style="stroke:#A80036;stroke-width:2.25;" x1="134.265" x2="387.765" y1="670.5" y2="670.5"/><text fill="#000000" font-family="sans-serif" font-size="16.5" lengthAdjust="spacing" textLength="238.5" x="141.765" y="693.6284">-getShipByMmsiCode(mmsiCode)</text><!--MD5=[44870eba88b8d6183fea351333848730]
class ShipLocationBST--><rect codeLine="34" fill="#FEFECE" filter="url(#fctub7mox9rby)" height="92.7539" id="ShipLocationBST" style="stroke:#A80036;stroke-width:2.25;" width="331.5" x="218.265" y="1237.5"/><ellipse cx="306.39" cy="1261.5" fill="#ADD1B2" rx="16.5" ry="16.5" style="stroke:#A80036;stroke-width:1.5;"/><path d="M309.39,1256.25 Q309.6947,1255.5 310.0463,1255.125 Q310.3978,1254.75 310.7963,1254.75 Q311.4994,1254.75 311.9447,1255.1719 Q312.39,1255.5938 312.39,1256.5781 L312.39,1258.9219 Q312.39,1259.9063 311.9681,1260.3281 Q311.5463,1260.75 310.89,1260.75 Q310.3041,1260.75 309.9291,1260.4922 Q309.5541,1260.2344 309.39,1259.5547 Q309.3197,1259.0859 309.0619,1258.8281 Q308.5931,1258.3359 307.7494,1258.0547 Q306.9056,1257.75 306.0619,1257.75 Q305.0072,1257.75 304.1166,1258.1719 Q303.2494,1258.5938 302.5697,1259.5313 Q301.89,1260.4688 301.89,1261.7578 L301.89,1263.1406 Q301.89,1264.6875 303.1556,1265.7188 Q304.4213,1266.75 306.6713,1266.75 Q308.0072,1266.75 308.9447,1266.4453 Q309.4838,1266.2813 310.0931,1265.7422 Q310.4916,1265.4375 310.7025,1265.3438 Q310.9134,1265.25 311.1713,1265.25 Q311.6634,1265.25 312.015,1265.6484 Q312.39,1266.0234 312.39,1266.5625 Q312.39,1267.0781 311.8744,1267.6875 Q311.1244,1268.5781 309.9291,1269.0703 Q308.3588,1269.75 306.4369,1269.75 Q304.1869,1269.75 302.3822,1268.8594 Q300.9291,1268.1563 299.8978,1266.6328 Q298.89,1265.1094 298.89,1263.3047 L298.89,1261.6641 Q298.89,1259.7891 299.7806,1258.1484 Q300.6947,1256.5078 302.265,1255.6406 Q303.8588,1254.75 305.64,1254.75 Q306.7181,1254.75 307.6556,1255.125 Q308.5931,1255.5 309.39,1256.25 Z " fill="#000000"/><text fill="#000000" font-family="sans-serif" font-size="18" lengthAdjust="spacing" textLength="142.5" x="337.14" y="1268.8652">ShipLocationBST</text><line style="stroke:#A80036;stroke-width:2.25;" x1="219.765" x2="548.265" y1="1285.5" y2="1285.5"/><line style="stroke:#A80036;stroke-width:2.25;" x1="219.765" x2="548.265" y1="1297.5" y2="1297.5"/><text fill="#000000" font-family="sans-serif" font-size="16.5" lengthAdjust="spacing" textLength="313.5" x="227.265" y="1320.6284">-getPositinalMessages(initialDate, finalDate)</text><!--MD5=[7b354142ed57bf82880e26038debff4b]
class ShowPositionalMessagesUI--><rect codeLine="38" fill="#FEFECE" filter="url(#fctub7mox9rby)" height="72" id="ShowPositionalMessagesUI" style="stroke:#A80036;stroke-width:2.25;" width="282" x="196.515" y="10.5"/><ellipse cx="219.015" cy="34.5" fill="#ADD1B2" rx="16.5" ry="16.5" style="stroke:#A80036;stroke-width:1.5;"/><path d="M222.015,29.25 Q222.3197,28.5 222.6713,28.125 Q223.0228,27.75 223.4213,27.75 Q224.1244,27.75 224.5697,28.1719 Q225.015,28.5938 225.015,29.5781 L225.015,31.9219 Q225.015,32.9063 224.5931,33.3281 Q224.1713,33.75 223.515,33.75 Q222.9291,33.75 222.5541,33.4922 Q222.1791,33.2344 222.015,32.5547 Q221.9447,32.0859 221.6869,31.8281 Q221.2181,31.3359 220.3744,31.0547 Q219.5306,30.75 218.6869,30.75 Q217.6322,30.75 216.7416,31.1719 Q215.8744,31.5938 215.1947,32.5313 Q214.515,33.4688 214.515,34.7578 L214.515,36.1406 Q214.515,37.6875 215.7806,38.7188 Q217.0463,39.75 219.2963,39.75 Q220.6322,39.75 221.5697,39.4453 Q222.1088,39.2813 222.7181,38.7422 Q223.1166,38.4375 223.3275,38.3438 Q223.5384,38.25 223.7963,38.25 Q224.2884,38.25 224.64,38.6484 Q225.015,39.0234 225.015,39.5625 Q225.015,40.0781 224.4994,40.6875 Q223.7494,41.5781 222.5541,42.0703 Q220.9838,42.75 219.0619,42.75 Q216.8119,42.75 215.0072,41.8594 Q213.5541,41.1563 212.5228,39.6328 Q211.515,38.1094 211.515,36.3047 L211.515,34.6641 Q211.515,32.7891 212.4056,31.1484 Q213.3197,29.5078 214.89,28.6406 Q216.4838,27.75 218.265,27.75 Q219.3431,27.75 220.2806,28.125 Q221.2181,28.5 222.015,29.25 Z " fill="#000000"/><text fill="#000000" font-family="sans-serif" font-size="18" lengthAdjust="spacing" textLength="234" x="240.015" y="41.8652">ShowPositionalMessagesUI</text><line style="stroke:#A80036;stroke-width:2.25;" x1="198.015" x2="477.015" y1="58.5" y2="58.5"/><line style="stroke:#A80036;stroke-width:2.25;" x1="198.015" x2="477.015" y1="70.5" y2="70.5"/><!--MD5=[0ac19ab3e3919ce943faa2e745f06aba]
class ShowPositionalMessagesController--><rect codeLine="40" fill="#FEFECE" filter="url(#fctub7mox9rby)" height="113.5078" id="ShowPositionalMessagesController" style="stroke:#A80036;stroke-width:2.25;" width="360" x="157.515" y="174"/><ellipse cx="186.765" cy="198" fill="#ADD1B2" rx="16.5" ry="16.5" style="stroke:#A80036;stroke-width:1.5;"/><path d="M189.765,192.75 Q190.0697,192 190.4213,191.625 Q190.7728,191.25 191.1713,191.25 Q191.8744,191.25 192.3197,191.6719 Q192.765,192.0938 192.765,193.0781 L192.765,195.4219 Q192.765,196.4063 192.3431,196.8281 Q191.9213,197.25 191.265,197.25 Q190.6791,197.25 190.3041,196.9922 Q189.9291,196.7344 189.765,196.0547 Q189.6947,195.5859 189.4369,195.3281 Q188.9681,194.8359 188.1244,194.5547 Q187.2806,194.25 186.4369,194.25 Q185.3822,194.25 184.4916,194.6719 Q183.6244,195.0938 182.9447,196.0313 Q182.265,196.9688 182.265,198.2578 L182.265,199.6406 Q182.265,201.1875 183.5306,202.2188 Q184.7963,203.25 187.0463,203.25 Q188.3822,203.25 189.3197,202.9453 Q189.8588,202.7813 190.4681,202.2422 Q190.8666,201.9375 191.0775,201.8438 Q191.2884,201.75 191.5463,201.75 Q192.0384,201.75 192.39,202.1484 Q192.765,202.5234 192.765,203.0625 Q192.765,203.5781 192.2494,204.1875 Q191.4994,205.0781 190.3041,205.5703 Q188.7338,206.25 186.8119,206.25 Q184.5619,206.25 182.7572,205.3594 Q181.3041,204.6563 180.2728,203.1328 Q179.265,201.6094 179.265,199.8047 L179.265,198.1641 Q179.265,196.2891 180.1556,194.6484 Q181.0697,193.0078 182.64,192.1406 Q184.2338,191.25 186.015,191.25 Q187.0931,191.25 188.0306,191.625 Q188.9681,192 189.765,192.75 Z " fill="#000000"/><text fill="#000000" font-family="sans-serif" font-size="18" lengthAdjust="spacing" textLength="297" x="209.265" y="205.3652">ShowPositionalMessagesController</text><line style="stroke:#A80036;stroke-width:2.25;" x1="159.015" x2="516.015" y1="222" y2="222"/><line style="stroke:#A80036;stroke-width:2.25;" x1="159.015" x2="516.015" y1="234" y2="234"/><text fill="#000000" font-family="sans-serif" font-size="16.5" lengthAdjust="spacing" textLength="156" x="166.515" y="257.1284">-shipExist(mmsiCode)</text><text fill="#000000" font-family="sans-serif" font-size="16.5" lengthAdjust="spacing" textLength="342" x="166.515" y="277.8823">-showPositionalMessages(initialDate, finalDate)</text><!--MD5=[02e4b9b7573f1156f41e60aa5b4e25a4]
class Company--><rect codeLine="45" fill="#FEFECE" filter="url(#fctub7mox9rby)" height="113.5078" id="Company" style="stroke:#A80036;stroke-width:2.25;" width="187.5" x="113.265" y="379.5"/><ellipse cx="162.765" cy="403.5" fill="#ADD1B2" rx="16.5" ry="16.5" style="stroke:#A80036;stroke-width:1.5;"/><path d="M165.765,398.25 Q166.0697,397.5 166.4213,397.125 Q166.7728,396.75 167.1713,396.75 Q167.8744,396.75 168.3197,397.1719 Q168.765,397.5938 168.765,398.5781 L168.765,400.9219 Q168.765,401.9063 168.3431,402.3281 Q167.9213,402.75 167.265,402.75 Q166.6791,402.75 166.3041,402.4922 Q165.9291,402.2344 165.765,401.5547 Q165.6947,401.0859 165.4369,400.8281 Q164.9681,400.3359 164.1244,400.0547 Q163.2806,399.75 162.4369,399.75 Q161.3822,399.75 160.4916,400.1719 Q159.6244,400.5938 158.9447,401.5313 Q158.265,402.4688 158.265,403.7578 L158.265,405.1406 Q158.265,406.6875 159.5306,407.7188 Q160.7963,408.75 163.0463,408.75 Q164.3822,408.75 165.3197,408.4453 Q165.8588,408.2813 166.4681,407.7422 Q166.8666,407.4375 167.0775,407.3438 Q167.2884,407.25 167.5463,407.25 Q168.0384,407.25 168.39,407.6484 Q168.765,408.0234 168.765,408.5625 Q168.765,409.0781 168.2494,409.6875 Q167.4994,410.5781 166.3041,411.0703 Q164.7338,411.75 162.8119,411.75 Q160.5619,411.75 158.7572,410.8594 Q157.3041,410.1563 156.2728,408.6328 Q155.265,407.1094 155.265,405.3047 L155.265,403.6641 Q155.265,401.7891 156.1556,400.1484 Q157.0697,398.5078 158.64,397.6406 Q160.2338,396.75 162.015,396.75 Q163.0931,396.75 164.0306,397.125 Q164.9681,397.5 165.765,398.25 Z " fill="#000000"/><text fill="#000000" font-family="sans-serif" font-size="18" lengthAdjust="spacing" textLength="79.5" x="189.765" y="410.8652">Company</text><line style="stroke:#A80036;stroke-width:2.25;" x1="114.765" x2="299.265" y1="427.5" y2="427.5"/><text fill="#000000" font-family="sans-serif" font-size="16.5" lengthAdjust="spacing" textLength="88.5" x="122.265" y="450.6284">-designation</text><line style="stroke:#A80036;stroke-width:2.25;" x1="114.765" x2="299.265" y1="460.2539" y2="460.2539"/><text fill="#000000" font-family="sans-serif" font-size="16.5" lengthAdjust="spacing" textLength="169.5" x="122.265" y="483.3823">-getBstShip(mmsiCode)</text><!--MD5=[42c269113f15bf3b39a3f95e82b93e8f]
link BstShip to Ship--><path codeLine="50" d="M261.015,703.65 C261.015,734.595 261.015,777.57 261.015,819.93 " fill="none" id="BstShip-Ship" style="stroke:#A80036;stroke-width:1.5;"/><polygon fill="#000000" points="268.515,769.7637,272.9234,756.196,264.1066,756.196,268.515,769.7637" style="stroke:#000000;stroke-width:1.5;"/><text fill="#000000" font-family="sans-serif" font-size="19.5" lengthAdjust="spacing" textLength="45" x="282.015" y="770.2427">owns</text><text fill="#000000" font-family="sans-serif" font-size="19.5" lengthAdjust="spacing" textLength="10.5" x="249.4814" y="735.5155">1</text><text fill="#000000" font-family="sans-serif" font-size="19.5" lengthAdjust="spacing" textLength="30" x="229.9134" y="804.2425">1..*</text><!--MD5=[4e02e30a7c4457e7a228ae888040005c]
link ShipLocationBST to ShipPosition--><path codeLine="51" d="M384.015,1331.07 C384.015,1362.66 384.015,1406.25 384.015,1447.26 " fill="none" id="ShipLocationBST-ShipPosition" style="stroke:#A80036;stroke-width:1.5;"/><polygon fill="#000000" points="391.515,1396.7637,395.9234,1383.196,387.1066,1383.196,391.515,1396.7637" style="stroke:#000000;stroke-width:1.5;"/><text fill="#000000" font-family="sans-serif" font-size="19.5" lengthAdjust="spacing" textLength="31.5" x="405.015" y="1397.2427">has</text><text fill="#000000" font-family="sans-serif" font-size="19.5" lengthAdjust="spacing" textLength="10.5" x="372.5142" y="1362.6466">1</text><text fill="#000000" font-family="sans-serif" font-size="19.5" lengthAdjust="spacing" textLength="30" x="352.5853" y="1431.0175">1..*</text><!--MD5=[14fdb76946ac0c0eabf5d41702e30a18]
link Company to BstShip--><path codeLine="53" d="M220.92,494.01 C229.845,530.01 241.32,576.18 249.69,609.93 " fill="none" id="Company-BstShip" style="stroke:#A80036;stroke-width:1.5;"/><polygon fill="#000000" points="247.8216,559.5428,248.832,545.3128,240.2748,547.4366,247.8216,559.5428" style="stroke:#000000;stroke-width:1.5;"/><text fill="#000000" font-family="sans-serif" font-size="19.5" lengthAdjust="spacing" textLength="42" x="259.515" y="560.2427">uses</text><text fill="#000000" font-family="sans-serif" font-size="19.5" lengthAdjust="spacing" textLength="10.5" x="211.7994" y="525.4121">1</text><text fill="#000000" font-family="sans-serif" font-size="19.5" lengthAdjust="spacing" textLength="10.5" x="235.7714" y="594.0692">1</text><!--MD5=[da82a26002d83bc84a8d0ff7e6a1d871]
link Ship to ShipLocationBST--><path codeLine="55" d="M319.98,1120.89 C336.75,1163.22 353.775,1206.18 366.045,1237.17 " fill="none" id="Ship-ShipLocationBST" style="stroke:#A80036;stroke-width:1.5;"/><polygon fill="#000000" points="358.2773,1186.2365,357.3787,1171.9989,349.1817,1175.2462,358.2773,1186.2365" style="stroke:#000000;stroke-width:1.5;"/><text fill="#000000" font-family="sans-serif" font-size="19.5" lengthAdjust="spacing" textLength="42" x="369.015" y="1187.2427">uses</text><text fill="#000000" font-family="sans-serif" font-size="19.5" lengthAdjust="spacing" textLength="10.5" x="313.4247" y="1153.0668">1</text><text fill="#000000" font-family="sans-serif" font-size="19.5" lengthAdjust="spacing" textLength="10.5" x="350.7559" y="1221.3587">1</text><!--MD5=[53dfa0943cd28e51f39eb655119d414f]
link ShowPositionalMessagesUI to ShowPositionalMessagesController--><path codeLine="57" d="M337.515,82.56 C337.515,106.065 337.515,137.865 337.515,165.87 " fill="none" id="ShowPositionalMessagesUI-to-ShowPositionalMessagesController" style="stroke:#A80036;stroke-width:1.5;stroke-dasharray:7.0,7.0;"/><polygon fill="#A80036" points="337.515,173.655,343.515,160.155,337.515,166.155,331.515,160.155,337.515,173.655" style="stroke:#A80036;stroke-width:1.5;"/><!--MD5=[e561b603bbd8b6521a638dc78f755f9d]
link ShowPositionalMessagesController to Company--><path codeLine="59" d="M301.5,288.375 C284.67,314.49 264.57,345.69 247.245,372.57 " fill="none" id="ShowPositionalMessagesController-to-Company" style="stroke:#A80036;stroke-width:1.5;stroke-dasharray:7.0,7.0;"/><polygon fill="#A80036" points="242.895,379.305,255.2618,371.2233,246.9658,373.0059,245.1832,364.71,242.895,379.305" style="stroke:#A80036;stroke-width:1.5;"/><!--MD5=[a8ce5a795d45fd172244d25ce1aea7e9]
link ShowPositionalMessagesController to BstShip--><path codeLine="60" d="M343.08,288.105 C347.79,355.86 349.14,472.785 315.015,565.5 C310.23,578.49 303.525,591.69 296.475,603.825 " fill="none" id="ShowPositionalMessagesController-to-BstShip" style="stroke:#A80036;stroke-width:1.5;stroke-dasharray:7.0,7.0;"/><polygon fill="#A80036" points="292.53,610.455,304.5873,601.9185,296.3635,604.0087,294.2733,595.7849,292.53,610.455" style="stroke:#A80036;stroke-width:1.5;"/><!--MD5=[8d5605e7226e951eefe0c75edc1e09c5]
link ShowPositionalMessagesController to Ship--><path codeLine="61" d="M186.57,288.09 C147.21,310.26 109.56,340.125 87.015,379.5 C9,515.73 78.105,690.075 151.02,813.72 " fill="none" id="ShowPositionalMessagesController-to-Ship" style="stroke:#A80036;stroke-width:1.5;stroke-dasharray:7.0,7.0;"/><polygon fill="#A80036" points="154.935,820.32,153.1917,805.6499,151.1015,813.8737,142.8777,811.7835,154.935,820.32" style="stroke:#A80036;stroke-width:1.5;"/><!--MD5=[15a57c37ba79ba63566ba007a3fbde9b]
link ShowPositionalMessagesController to ShipLocationBST--><path codeLine="62" d="M408.99,288.36 C447.63,325.215 487.515,377.25 487.515,435 C487.515,435 487.515,435 487.515,972 C487.515,1066.74 443.61,1169.775 412.995,1230.12 " fill="none" id="ShowPositionalMessagesController-to-ShipLocationBST" style="stroke:#A80036;stroke-width:1.5;stroke-dasharray:7.0,7.0;"/><polygon fill="#A80036" points="409.32,1237.26,420.8313,1228.0004,412.7511,1230.5908,410.1606,1222.5106,409.32,1237.26" style="stroke:#A80036;stroke-width:1.5;"/><!--MD5=[b2aa05ec3b13d99d7b9b72df92c7dc55]
@startuml
'https://plantuml.com/class-diagram

skinparam classAttributeIconSize 0

class Ship {
-mmsiCode
-name
-imoCode
-numberEnergyGenerators
-generatorPower
-callSign
-vesselType
-length
-width
-capacity
-draft
}

class ShipPosition {
-baseDateTime
-latitude
-longitude
-sog
-cog
-heading
-position
-transceiver
}

class BstShip {
-getShipByMmsiCode(mmsiCode)
}

class ShipLocationBST {
-getPositinalMessages(initialDate, finalDate)
}

class ShowPositionalMessagesUI {}

class ShowPositionalMessagesController {
-shipExist(mmsiCode)
-showPositionalMessages(initialDate, finalDate)
}

class Company {
-designation
-getBstShip(mmsiCode)
}

BstShip "1" - - "1..*" Ship : owns >
ShipLocationBST "1" - - "1..*" ShipPosition : has >

Company "1" - - "1" BstShip : uses >

Ship "1" - - "1" ShipLocationBST : uses >

ShowPositionalMessagesUI ..> ShowPositionalMessagesController

ShowPositionalMessagesController ..> Company
ShowPositionalMessagesController ..> BstShip
ShowPositionalMessagesController ..> Ship
ShowPositionalMessagesController ..> ShipLocationBST


@enduml

@startuml

skinparam classAttributeIconSize 0

class Ship {
-mmsiCode
-name
-imoCode
-numberEnergyGenerators
-generatorPower
-callSign
-vesselType
-length
-width
-capacity
-draft
}

class ShipPosition {
-baseDateTime
-latitude
-longitude
-sog
-cog
-heading
-position
-transceiver
}

class BstShip {
-getShipByMmsiCode(mmsiCode)
}

class ShipLocationBST {
-getPositinalMessages(initialDate, finalDate)
}

class ShowPositionalMessagesUI {}

class ShowPositionalMessagesController {
-shipExist(mmsiCode)
-showPositionalMessages(initialDate, finalDate)
}

class Company {
-designation
-getBstShip(mmsiCode)
}

BstShip "1" - - "1..*" Ship : owns >
ShipLocationBST "1" - - "1..*" ShipPosition : has >

Company "1" - - "1" BstShip : uses >

Ship "1" - - "1" ShipLocationBST : uses >

ShowPositionalMessagesUI ..> ShowPositionalMessagesController

ShowPositionalMessagesController ..> Company
ShowPositionalMessagesController ..> BstShip
ShowPositionalMessagesController ..> Ship
ShowPositionalMessagesController ..> ShipLocationBST


@enduml

PlantUML version 1.2021.5(Sun Apr 25 12:20:28 BST 2021)
(GPL source distribution)
Java Runtime: OpenJDK Runtime Environment
JVM: Dynamic Code Evolution 64-Bit Server VM
Default Encoding: Cp1252
Language: pt
Country: PT
--></g></svg>