<?xml version="1.0" encoding="UTF-8" standalone="no"?><svg xmlns="http://www.w3.org/2000/svg" xmlns:xlink="http://www.w3.org/1999/xlink" contentScriptType="application/ecmascript" contentStyleType="text/css" height="453px" preserveAspectRatio="none" style="width:859px;height:453px;" version="1.1" viewBox="0 0 859 453" width="859.5px" zoomAndPan="magnify"><defs><filter height="300%" id="f10ce7u5w33qny" width="300%" x="-1" y="-1"><feGaussianBlur result="blurOut" stdDeviation="3.0"/><feColorMatrix in="blurOut" result="blurOut2" type="matrix" values="0 0 0 0 0 0 0 0 0 0 0 0 0 0 0 0 0 0 .4 0"/><feOffset dx="6.0" dy="6.0" in="blurOut2" result="blurOut3"/><feBlend in="SourceGraphic" in2="blurOut3" mode="normal"/></filter></defs><g><!--MD5=[7421f545a0d8420c5bec41e74b387d9c]
class Employee--><rect codeLine="7" fill="#FEFECE" filter="url(#f10ce7u5w33qny)" height="80.7539" id="Employee" style="stroke:#A80036;stroke-width:2.25;" width="130.5" x="330" y="10.5"/><ellipse cx="352.5" cy="34.5" fill="#ADD1B2" rx="16.5" ry="16.5" style="stroke:#A80036;stroke-width:1.5;"/><path d="M355.5,29.25 Q355.8047,28.5 356.1563,28.125 Q356.5078,27.75 356.9063,27.75 Q357.6094,27.75 358.0547,28.1719 Q358.5,28.5938 358.5,29.5781 L358.5,31.9219 Q358.5,32.9063 358.0781,33.3281 Q357.6563,33.75 357,33.75 Q356.4141,33.75 356.0391,33.4922 Q355.6641,33.2344 355.5,32.5547 Q355.4297,32.0859 355.1719,31.8281 Q354.7031,31.3359 353.8594,31.0547 Q353.0156,30.75 352.1719,30.75 Q351.1172,30.75 350.2266,31.1719 Q349.3594,31.5938 348.6797,32.5313 Q348,33.4688 348,34.7578 L348,36.1406 Q348,37.6875 349.2656,38.7188 Q350.5313,39.75 352.7813,39.75 Q354.1172,39.75 355.0547,39.4453 Q355.5938,39.2813 356.2031,38.7422 Q356.6016,38.4375 356.8125,38.3438 Q357.0234,38.25 357.2813,38.25 Q357.7734,38.25 358.125,38.6484 Q358.5,39.0234 358.5,39.5625 Q358.5,40.0781 357.9844,40.6875 Q357.2344,41.5781 356.0391,42.0703 Q354.4688,42.75 352.5469,42.75 Q350.2969,42.75 348.4922,41.8594 Q347.0391,41.1563 346.0078,39.6328 Q345,38.1094 345,36.3047 L345,34.6641 Q345,32.7891 345.8906,31.1484 Q346.8047,29.5078 348.375,28.6406 Q349.9688,27.75 351.75,27.75 Q352.8281,27.75 353.7656,28.125 Q354.7031,28.5 355.5,29.25 Z " fill="#000000"/><text fill="#000000" font-family="sans-serif" font-size="18" lengthAdjust="spacing" textLength="82.5" x="373.5" y="41.8652">Employee</text><line style="stroke:#A80036;stroke-width:2.25;" x1="331.5" x2="459" y1="58.5" y2="58.5"/><text fill="#000000" font-family="sans-serif" font-size="16.5" lengthAdjust="spacing" textLength="45" x="339" y="81.6284">-name</text><!--MD5=[efa7c3600894dd6faaa8b816738c33b1]
class ShipLocation--><rect codeLine="11" fill="#FEFECE" filter="url(#f10ce7u5w33qny)" height="226.0313" id="ShipLocation" style="stroke:#A80036;stroke-width:2.25;" width="156" x="682.5" y="56.25"/><ellipse cx="705" cy="80.25" fill="#ADD1B2" rx="16.5" ry="16.5" style="stroke:#A80036;stroke-width:1.5;"/><path d="M708,75 Q708.3047,74.25 708.6563,73.875 Q709.0078,73.5 709.4063,73.5 Q710.1094,73.5 710.5547,73.9219 Q711,74.3438 711,75.3281 L711,77.6719 Q711,78.6563 710.5781,79.0781 Q710.1563,79.5 709.5,79.5 Q708.9141,79.5 708.5391,79.2422 Q708.1641,78.9844 708,78.3047 Q707.9297,77.8359 707.6719,77.5781 Q707.2031,77.0859 706.3594,76.8047 Q705.5156,76.5 704.6719,76.5 Q703.6172,76.5 702.7266,76.9219 Q701.8594,77.3438 701.1797,78.2813 Q700.5,79.2188 700.5,80.5078 L700.5,81.8906 Q700.5,83.4375 701.7656,84.4688 Q703.0313,85.5 705.2813,85.5 Q706.6172,85.5 707.5547,85.1953 Q708.0938,85.0313 708.7031,84.4922 Q709.1016,84.1875 709.3125,84.0938 Q709.5234,84 709.7813,84 Q710.2734,84 710.625,84.3984 Q711,84.7734 711,85.3125 Q711,85.8281 710.4844,86.4375 Q709.7344,87.3281 708.5391,87.8203 Q706.9688,88.5 705.0469,88.5 Q702.7969,88.5 700.9922,87.6094 Q699.5391,86.9063 698.5078,85.3828 Q697.5,83.8594 697.5,82.0547 L697.5,80.4141 Q697.5,78.5391 698.3906,76.8984 Q699.3047,75.2578 700.875,74.3906 Q702.4688,73.5 704.25,73.5 Q705.3281,73.5 706.2656,73.875 Q707.2031,74.25 708,75 Z " fill="#000000"/><text fill="#000000" font-family="sans-serif" font-size="18" lengthAdjust="spacing" textLength="108" x="726" y="87.6152">ShipLocation</text><line style="stroke:#A80036;stroke-width:2.25;" x1="684" x2="837" y1="104.25" y2="104.25"/><text fill="#000000" font-family="sans-serif" font-size="16.5" lengthAdjust="spacing" textLength="108" x="691.5" y="127.3784">-baseDateTime</text><text fill="#000000" font-family="sans-serif" font-size="16.5" lengthAdjust="spacing" textLength="57" x="691.5" y="148.1323">-latitude</text><text fill="#000000" font-family="sans-serif" font-size="16.5" lengthAdjust="spacing" textLength="70.5" x="691.5" y="168.8862">-longitude</text><text fill="#000000" font-family="sans-serif" font-size="16.5" lengthAdjust="spacing" textLength="33" x="691.5" y="189.6401">-sog</text><text fill="#000000" font-family="sans-serif" font-size="16.5" lengthAdjust="spacing" textLength="33" x="691.5" y="210.394">-cog</text><text fill="#000000" font-family="sans-serif" font-size="16.5" lengthAdjust="spacing" textLength="63" x="691.5" y="231.1479">-heading</text><text fill="#000000" font-family="sans-serif" font-size="16.5" lengthAdjust="spacing" textLength="61.5" x="691.5" y="251.9019">-position</text><text fill="#000000" font-family="sans-serif" font-size="16.5" lengthAdjust="spacing" textLength="88.5" x="691.5" y="272.6558">-transceiver</text><!--MD5=[0dc7f2ddb409b58bcf52b12238c25399]
class Ship--><rect codeLine="22" fill="#FEFECE" filter="url(#f10ce7u5w33qny)" height="288.293" id="Ship" style="stroke:#A80036;stroke-width:2.25;" width="211.5" x="289.5" y="144"/><ellipse cx="370.125" cy="168" fill="#ADD1B2" rx="16.5" ry="16.5" style="stroke:#A80036;stroke-width:1.5;"/><path d="M373.125,162.75 Q373.4297,162 373.7813,161.625 Q374.1328,161.25 374.5313,161.25 Q375.2344,161.25 375.6797,161.6719 Q376.125,162.0938 376.125,163.0781 L376.125,165.4219 Q376.125,166.4063 375.7031,166.8281 Q375.2813,167.25 374.625,167.25 Q374.0391,167.25 373.6641,166.9922 Q373.2891,166.7344 373.125,166.0547 Q373.0547,165.5859 372.7969,165.3281 Q372.3281,164.8359 371.4844,164.5547 Q370.6406,164.25 369.7969,164.25 Q368.7422,164.25 367.8516,164.6719 Q366.9844,165.0938 366.3047,166.0313 Q365.625,166.9688 365.625,168.2578 L365.625,169.6406 Q365.625,171.1875 366.8906,172.2188 Q368.1563,173.25 370.4063,173.25 Q371.7422,173.25 372.6797,172.9453 Q373.2188,172.7813 373.8281,172.2422 Q374.2266,171.9375 374.4375,171.8438 Q374.6484,171.75 374.9063,171.75 Q375.3984,171.75 375.75,172.1484 Q376.125,172.5234 376.125,173.0625 Q376.125,173.5781 375.6094,174.1875 Q374.8594,175.0781 373.6641,175.5703 Q372.0938,176.25 370.1719,176.25 Q367.9219,176.25 366.1172,175.3594 Q364.6641,174.6563 363.6328,173.1328 Q362.625,171.6094 362.625,169.8047 L362.625,168.1641 Q362.625,166.2891 363.5156,164.6484 Q364.4297,163.0078 366,162.1406 Q367.5938,161.25 369.375,161.25 Q370.4531,161.25 371.3906,161.625 Q372.3281,162 373.125,162.75 Z " fill="#000000"/><text fill="#000000" font-family="sans-serif" font-size="18" lengthAdjust="spacing" textLength="37.5" x="400.875" y="175.3652">Ship</text><line style="stroke:#A80036;stroke-width:2.25;" x1="291" x2="499.5" y1="192" y2="192"/><text fill="#000000" font-family="sans-serif" font-size="16.5" lengthAdjust="spacing" textLength="79.5" x="298.5" y="215.1284">-mmsiCode</text><text fill="#000000" font-family="sans-serif" font-size="16.5" lengthAdjust="spacing" textLength="45" x="298.5" y="235.8823">-name</text><text fill="#000000" font-family="sans-serif" font-size="16.5" lengthAdjust="spacing" textLength="67.5" x="298.5" y="256.6362">-imoCode</text><text fill="#000000" font-family="sans-serif" font-size="16.5" lengthAdjust="spacing" textLength="193.5" x="298.5" y="277.3901">-numberEnergyGenerators</text><text fill="#000000" font-family="sans-serif" font-size="16.5" lengthAdjust="spacing" textLength="124.5" x="298.5" y="298.144">-generatorPower</text><text fill="#000000" font-family="sans-serif" font-size="16.5" lengthAdjust="spacing" textLength="61.5" x="298.5" y="318.8979">-callSign</text><text fill="#000000" font-family="sans-serif" font-size="16.5" lengthAdjust="spacing" textLength="90" x="298.5" y="339.6519">-vesselType</text><text fill="#000000" font-family="sans-serif" font-size="16.5" lengthAdjust="spacing" textLength="49.5" x="298.5" y="360.4058">-length</text><text fill="#000000" font-family="sans-serif" font-size="16.5" lengthAdjust="spacing" textLength="46.5" x="298.5" y="381.1597">-width</text><text fill="#000000" font-family="sans-serif" font-size="16.5" lengthAdjust="spacing" textLength="67.5" x="298.5" y="401.9136">-capacity</text><text fill="#000000" font-family="sans-serif" font-size="16.5" lengthAdjust="spacing" textLength="40.5" x="298.5" y="422.6675">-draft</text><!--MD5=[02e4b9b7573f1156f41e60aa5b4e25a4]
class Company--><rect codeLine="36" fill="#FEFECE" filter="url(#f10ce7u5w33qny)" height="80.7539" id="Company" style="stroke:#A80036;stroke-width:2.25;" width="127.5" x="10.5" y="129"/><ellipse cx="33" cy="153" fill="#ADD1B2" rx="16.5" ry="16.5" style="stroke:#A80036;stroke-width:1.5;"/><path d="M36,147.75 Q36.3047,147 36.6563,146.625 Q37.0078,146.25 37.4063,146.25 Q38.1094,146.25 38.5547,146.6719 Q39,147.0938 39,148.0781 L39,150.4219 Q39,151.4063 38.5781,151.8281 Q38.1563,152.25 37.5,152.25 Q36.9141,152.25 36.5391,151.9922 Q36.1641,151.7344 36,151.0547 Q35.9297,150.5859 35.6719,150.3281 Q35.2031,149.8359 34.3594,149.5547 Q33.5156,149.25 32.6719,149.25 Q31.6172,149.25 30.7266,149.6719 Q29.8594,150.0938 29.1797,151.0313 Q28.5,151.9688 28.5,153.2578 L28.5,154.6406 Q28.5,156.1875 29.7656,157.2188 Q31.0313,158.25 33.2813,158.25 Q34.6172,158.25 35.5547,157.9453 Q36.0938,157.7813 36.7031,157.2422 Q37.1016,156.9375 37.3125,156.8438 Q37.5234,156.75 37.7813,156.75 Q38.2734,156.75 38.625,157.1484 Q39,157.5234 39,158.0625 Q39,158.5781 38.4844,159.1875 Q37.7344,160.0781 36.5391,160.5703 Q34.9688,161.25 33.0469,161.25 Q30.7969,161.25 28.9922,160.3594 Q27.5391,159.6563 26.5078,158.1328 Q25.5,156.6094 25.5,154.8047 L25.5,153.1641 Q25.5,151.2891 26.3906,149.6484 Q27.3047,148.0078 28.875,147.1406 Q30.4688,146.25 32.25,146.25 Q33.3281,146.25 34.2656,146.625 Q35.2031,147 36,147.75 Z " fill="#000000"/><text fill="#000000" font-family="sans-serif" font-size="18" lengthAdjust="spacing" textLength="79.5" x="54" y="160.3652">Company</text><line style="stroke:#A80036;stroke-width:2.25;" x1="12" x2="136.5" y1="177" y2="177"/><text fill="#000000" font-family="sans-serif" font-size="16.5" lengthAdjust="spacing" textLength="88.5" x="19.5" y="200.1284">-designation</text><!--MD5=[37a14a5de6d6fd738aee271300f4b5c8]
link Company to Ship--><path codeLine="40" d="M138.195,192.765 C181.065,208.74 239.01,230.34 288.87,248.925 " fill="none" id="Company-Ship" style="stroke:#A80036;stroke-width:1.5;"/><polygon fill="#000000" points="199.7777,199.3831,188.6041,190.5138,185.5248,198.7753,199.7777,199.3831" style="stroke:#000000;stroke-width:1.5;"/><text fill="#000000" font-family="sans-serif" font-size="19.5" lengthAdjust="spacing" textLength="34.5" x="206.25" y="204.7427">own</text><text fill="#000000" font-family="sans-serif" font-size="19.5" lengthAdjust="spacing" textLength="10.5" x="150.0879" y="219.1353">1</text><text fill="#000000" font-family="sans-serif" font-size="19.5" lengthAdjust="spacing" textLength="30" x="247.6803" y="266.6825">1..*</text><!--MD5=[09366576ee87d48d594df10cacc83f45]
link Company to Employee--><path codeLine="41" d="M138.195,146.235 C193.545,125.61 274.02,95.61 329.805,74.82 " fill="none" id="Company-Employee" style="stroke:#A80036;stroke-width:1.5;"/><polygon fill="#000000" points="197.5277,92.1444,183.2748,92.7519,186.354,101.0135,197.5277,92.1444" style="stroke:#000000;stroke-width:1.5;"/><text fill="#000000" font-family="sans-serif" font-size="19.5" lengthAdjust="spacing" textLength="39" x="204" y="102.7427">have</text><text fill="#000000" font-family="sans-serif" font-size="19.5" lengthAdjust="spacing" textLength="10.5" x="150.0879" y="164.608">1</text><text fill="#000000" font-family="sans-serif" font-size="19.5" lengthAdjust="spacing" textLength="30" x="287.9896" y="100.3805">1..*</text><!--MD5=[5541ef512584d1243c10a7f3b3317e1c]
link Ship to ShipLocation--><path codeLine="43" d="M501.045,253.89 C558.945,234.945 629.7,211.8 682.44,194.535 " fill="none" id="Ship-ShipLocation" style="stroke:#A80036;stroke-width:1.5;"/><polygon fill="#000000" points="579.3781,194.4313,565.1123,194.4608,567.8542,202.8404,579.3781,194.4313" style="stroke:#000000;stroke-width:1.5;"/><text fill="#000000" font-family="sans-serif" font-size="19.5" lengthAdjust="spacing" textLength="31.5" x="585.75" y="204.7427">has</text><text fill="#000000" font-family="sans-serif" font-size="19.5" lengthAdjust="spacing" textLength="10.5" x="513.1905" y="271.7272">1</text><text fill="#000000" font-family="sans-serif" font-size="19.5" lengthAdjust="spacing" textLength="30" x="640.5167" y="219.5866">1..*</text><!--MD5=[9c226fb16923f449f2aeb2d55d4b05b5]
link Employee to ShipLocation--><path codeLine="45" d="M460.68,71.91 C522.42,92.115 616.02,122.73 681.87,144.27 " fill="none" id="Employee-ShipLocation" style="stroke:#A80036;stroke-width:1.5;"/><polygon fill="#000000" points="560.6283,92.5956,549.1038,84.1872,546.3624,92.567,560.6283,92.5956" style="stroke:#000000;stroke-width:1.5;"/><text fill="#000000" font-family="sans-serif" font-size="19.5" lengthAdjust="spacing" textLength="69" x="567" y="98.2427">controls</text><text fill="#000000" font-family="sans-serif" font-size="19.5" lengthAdjust="spacing" textLength="10.5" x="472.3864" y="97.6674">1</text><text fill="#000000" font-family="sans-serif" font-size="19.5" lengthAdjust="spacing" textLength="30" x="640.4588" y="162.961">1..*</text><!--MD5=[d6225289c38fe9f02963ad6f806789a4]
@startuml
'https://plantuml.com/class-diagram

hide methods
left to right direction
skinparam classAttributeIconSize 0

class Employee {
-name
}

class ShipLocation {
-baseDateTime
-latitude
-longitude
-sog
-cog
-heading
-position
-transceiver
}

class Ship {
-mmsiCode
-name
-imoCode
-numberEnergyGenerators
-generatorPower
-callSign
-vesselType
-length
-width
-capacity
-draft
}

class Company {
-designation
}

Company "1"- -"1..*" Ship: own >
Company "1"- -"1..*" Employee: have >

Ship "1" - - "1..*" ShipLocation : has >

Employee "1" - - "1..*" ShipLocation : controls >

@enduml

@startuml

hide methods
left to right direction
skinparam classAttributeIconSize 0

class Employee {
-name
}

class ShipLocation {
-baseDateTime
-latitude
-longitude
-sog
-cog
-heading
-position
-transceiver
}

class Ship {
-mmsiCode
-name
-imoCode
-numberEnergyGenerators
-generatorPower
-callSign
-vesselType
-length
-width
-capacity
-draft
}

class Company {
-designation
}

Company "1"- -"1..*" Ship: own >
Company "1"- -"1..*" Employee: have >

Ship "1" - - "1..*" ShipLocation : has >

Employee "1" - - "1..*" ShipLocation : controls >

@enduml

PlantUML version 1.2021.5(Sun Apr 25 12:20:28 BST 2021)
(GPL source distribution)
Java Runtime: OpenJDK Runtime Environment
JVM: Dynamic Code Evolution 64-Bit Server VM
Default Encoding: Cp1252
Language: pt
Country: PT
--></g></svg>